<svg width="40" height="37" viewBox="0 0 40 37" fill="none" xmlns="http://www.w3.org/2000/svg">
<path d="M32.0228 19.8515C30.9244 19.5696 29.8598 19.1694 28.8478 18.6578C28.5353 18.5015 28.2478 18.3515 27.9853 18.2078C27.4666 17.9203 27.0541 17.664 26.7853 17.489C26.77 17.4782 26.7532 17.4698 26.7353 17.464C26.5372 17.3485 26.3111 17.2898 26.0818 17.2942C25.8525 17.2986 25.6289 17.366 25.4353 17.489C23.8227 18.5436 22.0557 19.3406 20.1979 19.8515C19.9243 19.918 19.681 20.0741 19.5065 20.295C19.3321 20.5158 19.2366 20.7888 19.2354 21.0702V22.139C19.2347 23.6825 19.6155 25.2022 20.3439 26.563C21.0722 27.9238 22.1256 29.0835 23.4103 29.939L23.9916 30.3265L25.4166 31.2765C25.5295 31.3509 25.6542 31.4058 25.7853 31.439H25.7916C25.8941 31.4743 26.002 31.4912 26.1103 31.489C26.3573 31.4869 26.5983 31.413 26.8041 31.2765L28.8103 29.939C30.095 29.0835 31.1484 27.9238 31.8768 26.563C32.6052 25.2022 32.986 23.6825 32.9853 22.139V21.0702C32.9841 20.7888 32.8886 20.5158 32.7142 20.295C32.5397 20.0741 32.2963 19.918 32.0228 19.8515ZM28.4291 23.2702L25.9291 25.7702C25.8106 25.8864 25.6513 25.9515 25.4853 25.9515C25.3194 25.9515 25.1601 25.8864 25.0416 25.7702L23.7916 24.5202C23.6739 24.4025 23.6078 24.2429 23.6078 24.0765C23.6078 23.9101 23.6739 23.7504 23.7916 23.6327C23.9093 23.5151 24.0689 23.4489 24.2353 23.4489C24.4018 23.4489 24.5614 23.5151 24.6791 23.6327L25.4853 24.4452L27.5416 22.3827C27.5999 22.3245 27.669 22.2782 27.7452 22.2467C27.8213 22.2152 27.9029 22.1989 27.9853 22.1989C28.0677 22.1989 28.1493 22.2152 28.2255 22.2467C28.3016 22.2782 28.3708 22.3245 28.4291 22.3827C28.4874 22.441 28.5336 22.5102 28.5651 22.5863C28.5967 22.6625 28.6129 22.7441 28.6129 22.8265C28.6129 22.9089 28.5967 22.9905 28.5651 23.0666C28.5336 23.1428 28.4874 23.212 28.4291 23.2702Z" fill="url(#paint0_linear_386_55421)"/>
<path d="M27.0978 11.7262L21.7541 6.26375C21.5623 6.06966 21.3458 5.90156 21.1103 5.76375V10.3262C21.1118 10.8231 21.3098 11.2991 21.6611 11.6504C22.0124 12.0017 22.4885 12.1997 22.9853 12.2012H27.479C27.3663 12.0319 27.2387 11.873 27.0978 11.7262ZM27.9478 13.4512H22.9853C22.1565 13.4512 21.3617 13.122 20.7756 12.5359C20.1896 11.9499 19.8603 11.155 19.8603 10.3262V5.35125C19.7487 5.33361 19.6358 5.32525 19.5228 5.32625H9.86034C9.03154 5.32625 8.23669 5.65549 7.65064 6.24154C7.06459 6.82759 6.73535 7.62245 6.73535 8.45124V28.4512C6.73535 29.28 7.06459 30.0748 7.65064 30.6609C8.23669 31.2469 9.03154 31.5762 9.86034 31.5762H23.6166L22.7166 30.9762C21.2603 30.0075 20.0663 28.6937 19.2408 27.1518C18.4153 25.6099 17.984 23.8877 17.9853 22.1387V21.07C17.9856 20.6834 18.0754 20.3022 18.2479 19.9563C18.4203 19.6103 18.6706 19.3091 18.9791 19.0762H11.1103C10.9446 19.0762 10.7856 19.0104 10.6684 18.8932C10.5512 18.7759 10.4853 18.617 10.4853 18.4512C10.4853 18.2855 10.5512 18.1265 10.6684 18.0093C10.7856 17.8921 10.9446 17.8262 11.1103 17.8262H22.1978C23.0828 17.4271 23.9372 16.9634 24.7541 16.4387C25.1205 16.2059 25.5408 16.0715 25.9743 16.0485C26.4079 16.0255 26.84 16.1147 27.229 16.3075L27.2728 16.3262L27.4603 16.4387C27.5915 16.5262 27.7665 16.6325 27.9853 16.7637V13.9137C27.9855 13.7588 27.9729 13.6041 27.9478 13.4512ZM17.9853 25.9512C17.9853 26.117 17.9195 26.2759 17.8023 26.3931C17.6851 26.5103 17.5261 26.5762 17.3603 26.5762H11.1103C10.9446 26.5762 10.7856 26.5103 10.6684 26.3931C10.5512 26.2759 10.4853 26.117 10.4853 25.9512C10.4853 25.7854 10.5512 25.6265 10.6684 25.5093C10.7856 25.392 10.9446 25.3262 11.1103 25.3262H17.3603C17.5261 25.3262 17.6851 25.392 17.8023 25.5093C17.9195 25.6265 17.9853 25.7854 17.9853 25.9512ZM11.1103 21.5762H16.1103C16.2761 21.5762 16.4351 21.6421 16.5523 21.7593C16.6695 21.8765 16.7353 22.0354 16.7353 22.2012C16.7353 22.367 16.6695 22.5259 16.5523 22.6431C16.4351 22.7604 16.2761 22.8262 16.1103 22.8262H11.1103C10.9446 22.8262 10.7856 22.7604 10.6684 22.6431C10.5512 22.5259 10.4853 22.367 10.4853 22.2012C10.4853 22.0354 10.5512 21.8765 10.6684 21.7593C10.7856 21.6421 10.9446 21.5762 11.1103 21.5762ZM11.1103 10.3262H16.1103C16.2761 10.3262 16.4351 10.3921 16.5523 10.5093C16.6695 10.6265 16.7353 10.7855 16.7353 10.9512C16.7353 11.117 16.6695 11.276 16.5523 11.3932C16.4351 11.5104 16.2761 11.5762 16.1103 11.5762H11.1103C10.9446 11.5762 10.7856 11.5104 10.6684 11.3932C10.5512 11.276 10.4853 11.117 10.4853 10.9512C10.4853 10.7855 10.5512 10.6265 10.6684 10.5093C10.7856 10.3921 10.9446 10.3262 11.1103 10.3262ZM19.8603 15.3262H11.1103C10.9446 15.3262 10.7856 15.2604 10.6684 15.1432C10.5512 15.026 10.4853 14.867 10.4853 14.7012C10.4853 14.5355 10.5512 14.3765 10.6684 14.2593C10.7856 14.1421 10.9446 14.0762 11.1103 14.0762H19.8603C20.0261 14.0762 20.185 14.1421 20.3023 14.2593C20.4195 14.3765 20.4853 14.5355 20.4853 14.7012C20.4853 14.867 20.4195 15.026 20.3023 15.1432C20.185 15.2604 20.0261 15.3262 19.8603 15.3262Z" fill="url(#paint1_linear_386_55421)"/>
<defs>
<linearGradient id="paint0_linear_386_55421" x1="26.1103" y1="17.2939" x2="26.1103" y2="31.4892" gradientUnits="userSpaceOnUse">
<stop stop-color="#0A4B6E"/>
<stop offset="1" stop-color="#1391D4"/>
</linearGradient>
<linearGradient id="paint1_linear_386_55421" x1="17.3603" y1="5.32617" x2="17.3603" y2="31.5762" gradientUnits="userSpaceOnUse">
<stop stop-color="#0A4B6E"/>
<stop offset="1" stop-color="#1391D4"/>
</linearGradient>
</defs>
</svg>
