<svg width="37" height="36" viewBox="0 0 37 36" fill="none" xmlns="http://www.w3.org/2000/svg">
<path fill-rule="evenodd" clip-rule="evenodd" d="M20.8891 16.1007C20.3197 15.5313 19.5941 15.1434 18.8042 14.9863C18.0144 14.8292 17.1957 14.9099 16.4516 15.2181C15.7076 15.5263 15.0716 16.0482 14.6242 16.7178C14.1768 17.3874 13.938 18.1747 13.938 18.98C13.938 19.7853 14.1768 20.5726 14.6242 21.2422C15.0716 21.9118 15.7076 22.4337 16.4516 22.7419C17.1957 23.0501 18.0144 23.1308 18.8042 22.9737C19.5941 22.8166 20.3197 22.4287 20.8891 21.8593C21.6527 21.0956 22.0817 20.0599 22.0817 18.98C22.0817 17.9001 21.6527 16.8644 20.8891 16.1007ZM30.9771 17.5892C30.5602 17.1723 30.0291 16.8885 29.4509 16.7734C28.8727 16.6584 28.2734 16.7175 27.7288 16.9431C27.1841 17.1687 26.7186 17.5507 26.3911 18.0409C26.0635 18.5311 25.8887 19.1073 25.8887 19.6969C25.8887 20.2864 26.0635 20.8627 26.3911 21.3529C26.7186 21.843 27.1841 22.2251 27.7288 22.4507C28.2734 22.6763 28.8727 22.7353 29.4509 22.6203C30.0291 22.5053 30.5602 22.2214 30.9771 21.8046C31.5361 21.2455 31.8501 20.4874 31.8501 19.6969C31.8501 18.9064 31.5361 18.1482 30.9771 17.5892ZM27.9519 31.963C29.189 32.0845 30.4378 31.9589 31.626 31.5935C32.8141 31.2281 33.9177 30.6302 34.8728 29.8345L34.8718 29.8335C35.2971 29.4596 35.2461 29.5705 35.2461 28.9936C35.2437 27.8443 34.7861 26.7429 33.9734 25.9302C33.1608 25.1176 32.0593 24.6599 30.9101 24.6575H26.8285C26.3863 24.6569 25.9466 24.7245 25.5249 24.858C25.4686 24.8757 25.418 24.9079 25.378 24.9513C25.3381 24.9948 25.3104 25.048 25.2975 25.1056C25.2847 25.1632 25.2872 25.2232 25.3049 25.2795C25.3226 25.3358 25.3548 25.3864 25.3983 25.4263C26.1081 26.0779 26.675 26.8697 27.0632 27.7515C27.4515 28.6334 27.6526 29.5861 27.6539 30.5497V31.5329H27.6523C27.6523 31.6399 27.6253 31.721 27.7231 31.8407C27.7507 31.8757 27.7852 31.9045 27.8245 31.9256C27.8637 31.9466 27.9069 31.9594 27.9512 31.963H27.9519ZM9.2587 17.5893C8.84185 17.1724 8.31075 16.8886 7.73257 16.7735C7.15438 16.6585 6.55508 16.7176 6.01044 16.9432C5.4658 17.1688 5.0003 17.5508 4.67278 18.041C4.34527 18.5311 4.17046 19.1074 4.17046 19.6969C4.17046 20.2864 4.34527 20.8627 4.67278 21.3529C5.0003 21.843 5.4658 22.2251 6.01044 22.4507C6.55508 22.6763 7.15438 22.7353 7.73257 22.6203C8.31075 22.5053 8.84185 22.2214 9.2587 21.8046C9.81764 21.2455 10.1316 20.4874 10.1316 19.6969C10.1316 18.9064 9.81764 18.1483 9.2587 17.5893ZM10.0567 31.7888L9.60639 31.3948C9.57151 31.3637 9.54372 31.3254 9.52492 31.2826C9.50612 31.2398 9.49674 31.1935 9.49741 31.1468V30.5494C9.50231 29.0009 10.1196 27.5172 11.2146 26.4222C12.3096 25.3273 13.7932 24.7099 15.3418 24.7051H20.6786C21.0627 24.7049 21.4458 24.7428 21.8223 24.8182L21.8227 24.8161C23.146 25.0854 24.336 25.8027 25.1922 26.847C26.0484 27.8914 26.5184 29.199 26.523 30.5494V31.1411C26.5237 31.1889 26.5139 31.2363 26.4942 31.2799C26.4746 31.3234 26.4456 31.3622 26.4093 31.3933L25.971 31.781L25.9719 31.7821L25.9119 31.8319C21.4885 35.4682 15.1251 35.624 10.5418 32.173L10.0563 31.7885L10.0567 31.7888ZM10.4943 24.8574C10.3453 24.8097 10.1939 24.7702 10.0405 24.7393L10.0401 24.7414C9.76077 24.6855 9.47656 24.6574 9.19165 24.6575H5.10997C3.96114 24.6613 2.86043 25.1193 2.04809 25.9317C1.23574 26.744 0.777709 27.8447 0.773962 28.9936V29.3569C0.773254 29.4042 0.782869 29.4511 0.80214 29.4944C0.82141 29.5376 0.849872 29.5761 0.885544 29.6072C1.85372 30.4764 2.99209 31.1347 4.22834 31.5404C5.46459 31.946 6.7717 32.0901 8.06662 31.9634C8.1109 31.9593 8.15391 31.9464 8.19315 31.9254C8.23239 31.9045 8.26707 31.876 8.29518 31.8415C8.32329 31.8071 8.34426 31.7673 8.35687 31.7247C8.36949 31.682 8.37349 31.6373 8.36865 31.5931L8.36548 30.5497C8.36607 29.5861 8.5667 28.6331 8.95467 27.751C9.34263 26.869 9.90949 26.0771 10.6194 25.4255C10.6628 25.3856 10.695 25.3351 10.7127 25.2789C10.7304 25.2227 10.7331 25.1628 10.7203 25.1053C10.7076 25.0477 10.68 24.9945 10.6402 24.951C10.6005 24.9075 10.55 24.8753 10.4938 24.8574H10.4943ZM10.1438 16.2316C10.1287 16.2841 10.1011 16.332 10.0634 16.3714C10.0256 16.4107 9.97886 16.4403 9.92712 16.4576C9.87538 16.4748 9.82022 16.4792 9.76641 16.4703C9.7126 16.4614 9.66176 16.4396 9.61828 16.4067C8.89678 15.8659 8.01758 15.5772 7.11595 15.585C6.21433 15.5928 5.34024 15.8966 4.62816 16.4497C3.91609 17.0028 3.40548 17.7746 3.17491 18.6463C2.94433 19.5179 3.00657 20.4412 3.35203 21.2741C3.37413 21.3251 3.38291 21.3808 3.37753 21.4361C3.37215 21.4914 3.35279 21.5444 3.32128 21.5902C3.19387 21.7813 2.98858 21.74 2.74107 21.74C2.2326 21.7381 1.7455 21.5353 1.38596 21.1758C1.02642 20.8162 0.823605 20.3291 0.821733 19.8206V17.2303C0.823605 16.7218 1.02642 16.2347 1.38596 15.8751C1.7455 15.5156 2.2326 15.3127 2.74107 15.3108H6.31085C6.43723 15.3108 6.55996 15.2685 6.6595 15.1906C6.75903 15.1128 6.82965 15.0038 6.86011 14.8812C6.95361 14.503 7.38432 13.5391 7.56661 13.1828C7.62078 13.0767 7.63996 12.9562 7.62141 12.8386C7.60285 12.7209 7.54751 12.6122 7.46333 12.528L7.46495 12.5264L4.93979 10.0015C4.58162 9.64065 4.38064 9.1528 4.38064 8.64434C4.38064 8.13588 4.58162 7.64804 4.93979 7.28714L6.77146 5.45539C7.13239 5.09725 7.62024 4.89629 8.1287 4.89629C8.63716 4.89629 9.12502 5.09725 9.48595 5.45539L12.0108 7.9802C12.1002 8.06959 12.2169 8.12646 12.3425 8.14177C12.468 8.15707 12.595 8.12991 12.7033 8.06462C12.711 8.05991 12.7173 8.05618 12.7258 8.0521C13.2663 7.78059 13.8266 7.55029 14.4019 7.36319C14.5156 7.32668 14.6148 7.25501 14.6852 7.1585C14.7556 7.06199 14.7936 6.94563 14.7936 6.82617H14.7952V3.25625C14.7971 2.74778 15 2.26068 15.3595 1.90114C15.7191 1.5416 16.2062 1.33879 16.7146 1.33691H19.3053C19.8138 1.33879 20.3009 1.5416 20.6604 1.90114C21.02 2.26068 21.2228 2.74778 21.2247 3.25625V6.82617C21.2247 6.95256 21.2671 7.07531 21.3449 7.17485C21.4228 7.27439 21.5318 7.345 21.6544 7.37543C22.0325 7.46893 22.9965 7.89971 23.3528 8.08193C23.4589 8.13612 23.5794 8.15531 23.697 8.13677C23.8146 8.11823 23.9234 8.0629 24.0077 7.97872L24.0092 7.98027L26.5337 5.45539C26.8947 5.09725 27.3825 4.89629 27.891 4.89629C28.3994 4.89629 28.8873 5.09725 29.2482 5.45539L31.0799 7.28714C31.4381 7.64805 31.639 8.13591 31.639 8.64438C31.639 9.15285 31.4381 9.64071 31.0799 10.0016L28.5551 12.5267C28.4657 12.6161 28.4088 12.7329 28.3935 12.8584C28.3782 12.9839 28.4054 13.1109 28.4707 13.2191C28.4753 13.2269 28.479 13.2336 28.4831 13.2417C28.7546 13.7822 28.9849 14.3425 29.172 14.9178C29.2085 15.0315 29.2802 15.1307 29.3768 15.2011C29.4733 15.2716 29.5896 15.3095 29.7091 15.3096V15.3112H33.2791C33.7875 15.3131 34.2746 15.5159 34.6341 15.8754C34.9936 16.2349 35.1964 16.7219 35.1984 17.2303V19.8207C35.1965 20.3292 34.9937 20.8163 34.6341 21.1758C34.2746 21.5353 33.7875 21.7381 33.279 21.74H32.9788C32.9233 21.7402 32.8686 21.7267 32.8197 21.7006C32.7707 21.6745 32.729 21.6367 32.6982 21.5905C32.6674 21.5444 32.6486 21.4913 32.6433 21.4361C32.638 21.3809 32.6465 21.3252 32.668 21.2741C33.0134 20.4412 33.0757 19.518 32.8451 18.6463C32.6145 17.7746 32.1039 17.0029 31.3918 16.4498C30.6798 15.8967 29.8057 15.5929 28.9041 15.5851C28.0025 15.5773 27.1233 15.866 26.4018 16.4067C26.3583 16.4396 26.3075 16.4614 26.2537 16.4703C26.1999 16.4792 26.1447 16.4748 26.0929 16.4576C26.0412 16.4403 25.9944 16.4107 25.9567 16.3714C25.9189 16.332 25.8913 16.2841 25.8763 16.2316C25.3799 14.5295 24.3448 13.0343 22.9264 11.9705C21.508 10.9067 19.7828 10.3316 18.0097 10.3316C16.2367 10.3316 14.5115 10.9067 13.0931 11.9705C11.6747 13.0343 10.6396 14.5295 10.1432 16.2316H10.1438Z" fill="url(#paint0_linear_386_55411)"/>
<defs>
<linearGradient id="paint0_linear_386_55411" x1="18.011" y1="1.33691" x2="18.011" y2="34.6634" gradientUnits="userSpaceOnUse">
<stop stop-color="#0A4B6E"/>
<stop offset="1" stop-color="#1391D4"/>
</linearGradient>
</defs>
</svg>
