<svg width="41" height="43" viewBox="0 0 41 43" fill="none" xmlns="http://www.w3.org/2000/svg">
<g clip-path="url(#clip0_386_56964)">
<path d="M19.8569 3.45399C20.0437 3.44166 20.2173 3.46883 20.3832 3.55472C20.8652 3.80424 21.3451 4.14477 21.8069 4.43747C22.4496 4.84696 23.1121 5.22485 23.7918 5.56976C26.0848 6.74011 28.7199 7.59879 31.2261 8.1596C31.7267 8.26995 32.2302 8.36822 32.7355 8.45435C33.242 8.53918 34.9942 8.68539 35.0561 9.39448C35.1452 10.4113 35.0982 11.5521 35.0944 12.5846L35.0866 16.5773C35.085 17.8378 35.0944 19.0582 34.9629 20.3174C34.8314 21.6293 34.5684 22.9249 34.1781 24.1844C33.9908 24.802 33.66 25.7503 33.3726 26.3253C32.6157 25.9978 32.2229 25.8611 31.423 25.6616C31.5646 25.2972 31.7142 24.9568 31.8483 24.5844C32.1728 23.6746 32.4278 22.7419 32.6113 21.7938C33.0164 19.6692 32.9385 17.8878 32.9411 15.7527L32.9691 10.8771C29.8567 10.2633 26.3761 9.23076 23.5516 7.84242C22.751 7.44287 21.9617 7.02101 21.1849 6.57729C20.7965 6.35462 20.3801 6.0869 19.9957 5.88218C18.5108 6.74559 17.0961 7.57115 15.5269 8.28066C12.8163 9.50632 9.97709 10.2701 7.07457 10.8729C7.05107 11.2536 7.06432 11.7835 7.06297 12.1801L7.05813 14.629C7.057 15.9732 7.05413 17.3168 7.07535 18.6609C7.10513 20.5479 7.46533 22.3123 8.00943 24.1087C9.65168 28.963 13.4528 32.9077 17.6092 35.7689C18.1849 36.1651 19.3677 36.9934 20.0239 37.211C20.2839 37.1202 20.869 36.7732 21.1124 36.6245C22.1372 35.9882 23.1328 35.3064 24.0971 34.5816C24.2656 34.9954 24.4272 35.3567 24.6634 35.7376C24.8168 35.9849 24.9873 36.2159 25.1391 36.4622C24.9688 36.6182 24.5994 36.8711 24.3999 37.0139C23.4749 37.6862 22.5136 38.3083 21.5211 38.8766C20.2373 39.6024 19.9244 39.6659 18.6149 38.9218C12.8542 35.648 7.57172 30.4274 5.7355 23.9104C5.38113 22.6616 5.14301 21.3826 5.02418 20.0898C4.86587 18.4277 4.94396 16.3889 4.92081 14.688L4.86882 11.5406C4.8603 10.9615 4.85552 10.3889 4.86773 9.80989C4.893 8.61291 6.22869 8.63084 7.118 8.48846C7.53222 8.42028 7.94518 8.34472 8.35669 8.26177C11.1428 7.70671 13.9346 6.78914 16.4426 5.44122C16.9611 5.1615 17.4716 4.86722 17.9735 4.5587C18.3991 4.29712 19.4657 3.55051 19.8569 3.45399Z" fill="url(#paint0_linear_386_56964)"/>
<path d="M30.0903 26.4021C33.2288 26.325 35.8357 28.8065 35.9133 31.945C35.9907 35.0836 33.5097 37.6907 30.3712 37.7688C27.2321 37.8466 24.6243 35.3649 24.5467 32.2259C24.4691 29.0869 26.9512 26.4793 30.0903 26.4021ZM28.1955 33.9574L30.4177 33.9569C30.9974 33.9576 31.6879 33.9748 32.2588 33.9496C32.265 33.52 32.2673 33.0902 32.2659 32.6607C32.2657 32.3675 32.2772 32.0575 32.2452 31.7667C32.1238 30.6692 31.1828 29.8691 30.0816 29.9474C29.5334 29.9893 29.0669 30.1987 28.7112 30.62C28.132 31.3063 28.1873 31.9003 28.1899 32.7308L28.1955 33.9574ZM30.1463 27.9155C29.8096 28.0621 29.8821 28.4145 29.871 28.7316C29.8597 29.0507 29.8712 29.4228 30.2822 29.4212C30.3672 29.3854 30.4801 29.3353 30.5071 29.2283C30.5876 28.9114 30.6088 28.4049 30.5022 28.0972C30.4446 27.9311 30.2935 27.9118 30.1463 27.9155ZM32.7731 35.7107C33.2133 35.5618 33.1349 35.1504 33.0554 34.7629C33.0074 34.5291 32.7265 34.5076 32.5383 34.5022C31.5726 34.4982 30.6062 34.5004 29.64 34.5001L28.396 34.4999C28.1979 34.4999 27.8885 34.4902 27.6991 34.5069C27.581 34.5523 27.4206 34.6243 27.3827 34.7624C27.3258 34.9704 27.3166 35.3212 27.4001 35.5192C27.489 35.7305 27.7744 35.7244 27.9723 35.7251C28.5573 35.727 29.1434 35.7256 29.7289 35.7253L31.6717 35.723C32.0055 35.7225 32.448 35.7333 32.7731 35.7107ZM26.3782 31.7295C25.9827 31.9398 26.0427 32.3492 26.4659 32.4078C26.7242 32.4433 27.1133 32.4103 27.3825 32.4023C27.5542 32.3017 27.7224 32.0986 27.589 31.8977C27.4128 31.6321 26.6953 31.7232 26.3782 31.7295ZM27.4142 29.0227C26.9254 29.3299 27.4098 29.7345 27.681 29.9872C27.8791 30.1721 27.9939 30.3053 28.2708 30.2634C28.7745 29.839 28.1228 29.4868 27.8332 29.1688C27.7095 29.0328 27.5911 29.006 27.4142 29.0227ZM33.0818 31.729C32.9898 31.7768 32.8766 31.8394 32.8458 31.9502C32.6705 32.5757 33.7054 32.4134 34.087 32.4021C34.2682 32.3193 34.3884 32.1607 34.3239 31.9598C34.2108 31.6079 33.3803 31.7225 33.0818 31.729ZM32.7985 29.0201C32.5602 29.1638 31.406 30.1806 32.3184 30.2733C32.3438 30.2759 32.4007 30.2719 32.4292 30.2707C32.6656 30.1055 33.8231 29.1201 32.9147 29.0168C32.8905 29.014 32.8265 29.0187 32.7985 29.0201Z" fill="url(#paint1_linear_386_56964)"/>
<path d="M18.7425 23.455C19.2652 23.4489 19.7881 23.4463 20.3109 23.4475C20.8028 23.4468 21.4255 23.4266 21.8953 23.524C22.268 23.6002 22.6225 23.7475 22.9398 23.9578C23.268 24.1742 23.5499 24.4537 23.7691 24.78C24.4347 25.7725 24.2394 26.6416 24.2702 27.7814C24.2839 28.2827 24.274 28.9349 24.2498 29.432C24.2422 29.5879 23.9978 30.2217 23.9324 30.4438C23.5645 31.6909 23.5892 32.5051 23.8423 33.7491C23.6331 33.9359 23.1953 34.2408 22.9638 34.4062C22.3089 34.8802 21.6356 35.3279 20.9451 35.7483C20.6525 35.9361 20.3523 36.1116 20.0453 36.2748C19.1444 35.7721 18.1357 35.0673 17.2929 34.4789C16.948 34.2382 16.0813 33.5972 15.7743 33.3031L15.7719 33.2676C15.7513 32.9464 15.7682 32.4046 15.7692 32.0701L15.7761 29.7244L15.7741 27.5508C15.7732 26.9928 15.7289 26.2915 15.8527 25.7582C16.1864 24.3203 17.3304 23.5237 18.7425 23.455Z" fill="url(#paint2_linear_386_56964)"/>
<path d="M12.0152 23.9487C12.168 23.9311 12.9246 23.9346 13.1059 23.9398C14.0397 23.9659 14.7605 23.8059 15.5734 24.3291C15.3677 24.7319 15.1267 25.0972 15.0307 25.5529C14.8684 26.3227 14.9181 27.254 14.9183 28.0527L14.92 30.8789C14.9207 31.439 14.9327 32.0288 14.9132 32.5861C14.6638 32.3737 14.4197 32.1549 14.1811 31.9305C12.7172 30.4949 11.4952 29.1003 10.428 27.3324C10.2537 27.0098 9.94445 26.6678 9.92111 26.2937C9.83976 24.9906 10.7411 24.0612 12.0152 23.9487Z" fill="url(#paint3_linear_386_56964)"/>
<path d="M19.7147 18.0839C21.0124 17.9176 22.1983 18.8371 22.3604 20.1352C22.5225 21.4333 21.5993 22.6164 20.3007 22.7745C19.0078 22.9319 17.8313 22.0137 17.6698 20.7212C17.5084 19.4288 18.4229 18.2494 19.7147 18.0839Z" fill="url(#paint4_linear_386_56964)"/>
<path d="M19.794 8.82064C20.1937 8.76418 20.5748 8.86755 20.6141 9.33338C20.6499 9.76044 20.636 10.2007 20.6358 10.6303L20.6367 13.0461C20.8757 12.8278 21.0726 12.5472 21.3423 12.3749C21.6363 12.1832 21.9836 12.2985 22.1616 12.573C22.2995 12.7853 22.2619 13.1322 22.0793 13.2907C21.649 13.6639 20.6614 14.8837 20.2286 15.113C20.0227 15.1643 19.8077 15.164 19.6409 15.0096C19.1916 14.5857 18.7619 14.1318 18.3306 13.6892C18.1107 13.4635 17.814 13.2453 17.7918 12.9187C17.7525 12.3423 18.3979 12.0876 18.8036 12.4598C19.0042 12.6439 19.1878 12.8483 19.3826 13.0388C19.4256 11.9827 19.3624 10.8905 19.3874 9.83085C19.3987 9.35417 19.3181 9.07721 19.794 8.82064Z" fill="url(#paint5_linear_386_56964)"/>
<path d="M12.9143 19.6558C13.9708 19.4894 14.9637 20.2065 15.1378 21.2617C15.312 22.3168 14.6022 23.315 13.5482 23.4968C12.4834 23.6806 11.4727 22.9616 11.2968 21.8957C11.1208 20.8294 11.847 19.824 12.9143 19.6558Z" fill="url(#paint6_linear_386_56964)"/>
<path d="M26.508 19.6573C27.564 19.4892 28.5578 20.2047 28.7333 21.2595C28.9085 22.3143 28.1999 23.313 27.1462 23.4955C26.0824 23.6802 25.072 22.9629 24.8948 21.8979C24.7177 20.8327 25.4418 19.8271 26.508 19.6573Z" fill="url(#paint7_linear_386_56964)"/>
<path d="M25.6214 23.9487C25.7447 23.9304 26.4347 23.94 26.5848 23.9445C27.1021 23.9593 27.8335 23.8986 28.3205 23.9854C28.5953 24.0348 28.8588 24.1336 29.0985 24.2769C29.568 24.562 29.9233 25.0078 30.0571 25.544C28.7962 25.6574 28.4064 25.7322 27.2696 26.298C26.3062 26.824 25.8418 27.2383 25.1142 28.0462C25.0509 26.3382 25.3577 25.9554 24.4658 24.3416C24.8218 24.0673 25.1869 23.9894 25.6214 23.9487Z" fill="url(#paint8_linear_386_56964)"/>
<path d="M28.0111 12.8394C28.2197 12.8216 28.422 12.8329 28.5853 12.9807C28.7098 13.0946 28.7839 13.2537 28.7905 13.4224C28.7961 13.5522 28.7601 13.6804 28.6881 13.7885C28.5519 13.989 28.1948 14.3006 28.0129 14.4918C27.4989 15.0324 26.8468 15.6004 26.3591 16.1531C26.6494 16.1475 26.9166 16.1411 27.2067 16.1566C27.7153 16.1838 27.9026 16.8067 27.5761 17.1483C27.5076 17.2192 27.4206 17.2692 27.3248 17.2922C27.1288 17.339 26.6266 17.322 26.3995 17.3209L25.0344 17.3173C24.6902 17.3221 24.2895 17.2349 24.291 16.8231C24.2938 16.003 24.2684 15.1434 24.2968 14.3267C24.3142 13.8265 24.9711 13.6687 25.2913 13.9789C25.5411 14.2213 25.4694 14.8804 25.4691 15.2209C25.6378 15.0811 25.9474 14.7525 26.114 14.5866L27.1695 13.5483C27.4006 13.3171 27.7099 12.9524 28.0111 12.8394Z" fill="url(#paint9_linear_386_56964)"/>
<path d="M11.6819 12.8393C11.8443 12.827 12.0506 12.8223 12.1848 12.927C12.5032 13.1752 12.7976 13.4944 13.0837 13.7785L14.5619 15.2267C14.5808 14.918 14.5194 14.5708 14.5877 14.2712C14.6241 14.1119 14.7045 13.9787 14.8489 13.8963C14.9971 13.8118 15.1628 13.796 15.3257 13.8432C15.4707 13.8853 15.6108 13.9837 15.6789 14.1214C15.7877 14.3411 15.7915 16.7769 15.6933 17.0154C15.6251 17.1814 15.4615 17.2475 15.3064 17.3064C14.87 17.3316 14.3732 17.3113 13.9273 17.3201C13.5672 17.2974 13.0907 17.3706 12.7413 17.3054C12.1089 17.1873 12.1498 16.169 12.8529 16.1502C13.1227 16.1429 13.3995 16.1486 13.664 16.1366C13.5088 15.9613 13.2512 15.7217 13.0773 15.5483C12.7706 15.2367 12.4618 14.9272 12.1508 14.62C11.8848 14.3603 11.469 14.0129 11.2872 13.7097C11.075 13.3559 11.359 12.9871 11.6819 12.8393Z" fill="url(#paint10_linear_386_56964)"/>
</g>
<defs>
<linearGradient id="paint0_linear_386_56964" x1="19.9852" y1="3.45117" x2="19.9852" y2="39.4512" gradientUnits="userSpaceOnUse">
<stop stop-color="#0A4B6E"/>
<stop offset="1" stop-color="#1391D4"/>
</linearGradient>
<linearGradient id="paint1_linear_386_56964" x1="30.23" y1="26.4004" x2="30.23" y2="37.7705" gradientUnits="userSpaceOnUse">
<stop stop-color="#0A4B6E"/>
<stop offset="1" stop-color="#1391D4"/>
</linearGradient>
<linearGradient id="paint2_linear_386_56964" x1="20.0191" y1="23.4453" x2="20.0191" y2="36.2748" gradientUnits="userSpaceOnUse">
<stop stop-color="#0A4B6E"/>
<stop offset="1" stop-color="#1391D4"/>
</linearGradient>
<linearGradient id="paint3_linear_386_56964" x1="12.7447" y1="23.9355" x2="12.7447" y2="32.5861" gradientUnits="userSpaceOnUse">
<stop stop-color="#0A4B6E"/>
<stop offset="1" stop-color="#1391D4"/>
</linearGradient>
<linearGradient id="paint4_linear_386_56964" x1="20.0151" y1="18.0645" x2="20.0151" y2="22.792" gradientUnits="userSpaceOnUse">
<stop stop-color="#0A4B6E"/>
<stop offset="1" stop-color="#1391D4"/>
</linearGradient>
<linearGradient id="paint5_linear_386_56964" x1="20.0174" y1="8.80664" x2="20.0174" y2="15.1436" gradientUnits="userSpaceOnUse">
<stop stop-color="#0A4B6E"/>
<stop offset="1" stop-color="#1391D4"/>
</linearGradient>
<linearGradient id="paint6_linear_386_56964" x1="13.2173" y1="19.6318" x2="13.2173" y2="23.5255" gradientUnits="userSpaceOnUse">
<stop stop-color="#0A4B6E"/>
<stop offset="1" stop-color="#1391D4"/>
</linearGradient>
<linearGradient id="paint7_linear_386_56964" x1="26.814" y1="19.6328" x2="26.814" y2="23.5245" gradientUnits="userSpaceOnUse">
<stop stop-color="#0A4B6E"/>
<stop offset="1" stop-color="#1391D4"/>
</linearGradient>
<linearGradient id="paint8_linear_386_56964" x1="27.2615" y1="23.9375" x2="27.2615" y2="28.0462" gradientUnits="userSpaceOnUse">
<stop stop-color="#0A4B6E"/>
<stop offset="1" stop-color="#1391D4"/>
</linearGradient>
<linearGradient id="paint9_linear_386_56964" x1="26.5371" y1="12.833" x2="26.5371" y2="17.3248" gradientUnits="userSpaceOnUse">
<stop stop-color="#0A4B6E"/>
<stop offset="1" stop-color="#1391D4"/>
</linearGradient>
<linearGradient id="paint10_linear_386_56964" x1="13.4889" y1="12.833" x2="13.4889" y2="17.3332" gradientUnits="userSpaceOnUse">
<stop stop-color="#0A4B6E"/>
<stop offset="1" stop-color="#1391D4"/>
</linearGradient>
<clipPath id="clip0_386_56964">
<rect width="31.0547" height="36" fill="white" transform="translate(4.86035 3.45117)"/>
</clipPath>
</defs>
</svg>
