<svg width="40" height="37" viewBox="0 0 40 37" fill="none" xmlns="http://www.w3.org/2000/svg">
<path d="M19.8251 0.451172C19.9632 0.451669 20.0667 0.468559 20.1864 0.540039C20.6409 0.811349 21.0889 1.1106 21.5399 1.39062C22.371 1.91517 23.2285 2.39706 24.1093 2.83301C26.809 4.16531 29.6314 5.12787 32.6093 5.5918C33.052 5.66081 34.3492 5.72474 34.6532 5.9043C34.7963 5.98886 34.8455 6.09111 34.8798 6.25195C34.9615 6.63606 34.9102 7.27733 34.9091 7.68848L34.9032 10.501C34.9006 12.1822 34.9434 14.0954 34.8495 15.7598C34.617 19.8753 33.4518 23.7753 31.1307 27.2041C28.7354 30.7425 25.5459 33.4259 21.8329 35.5088C21.4421 35.7281 20.3079 36.3797 19.9403 36.4512C19.5797 36.4301 19.0618 36.1105 18.7333 35.9355C18.0865 35.5934 17.4471 35.237 16.8163 34.8662C11.525 31.6979 7.16747 26.7802 5.65125 20.7041C5.30493 19.2864 5.06781 17.8437 4.94325 16.3896C4.85833 15.4276 4.85599 14.5642 4.84852 13.6006L4.83289 10.4072L4.81043 7.75098C4.80758 7.28487 4.7458 6.48363 4.912 6.08887C5.0434 5.77725 6.11967 5.76593 6.45399 5.72559C7.11059 5.63986 7.76444 5.53214 8.41395 5.40332C11.2113 4.84399 14.1783 3.67688 16.6718 2.31152C17.1785 2.03148 17.6777 1.73818 18.1688 1.43164C18.5142 1.21901 19.544 0.517451 19.8251 0.451172ZM10.9481 10.8506C10.6378 11.2246 10.2529 11.8666 10.0253 12.2988C8.98424 14.2419 8.53156 16.4464 8.72254 18.6426C9.00815 21.6962 10.4907 24.5129 12.8466 26.4766C13.9417 27.387 15.351 28.1969 16.7274 28.5889L16.7216 23.2891C16.5921 23.4449 16.4964 23.5584 16.3114 23.6592C15.6303 24.0298 14.7439 23.5695 14.7264 22.7725C14.7194 22.4489 14.7178 22.1285 14.7177 21.8047V20.0859L14.7196 18.584C14.7209 17.5789 14.7037 16.7006 15.3153 15.835C15.5844 16.0701 15.8501 16.3303 16.1054 16.5811C17.009 17.4686 17.9317 18.3437 18.827 19.2393L23.1102 23.4121C23.1102 25.1088 23.0787 26.9132 23.1141 28.6025C24.4936 28.1562 25.8469 27.4837 26.9491 26.5293C26.1506 25.6397 25.128 24.6475 24.2841 23.7832C21.6855 21.1511 19.0523 18.5531 16.3847 15.9912L12.7636 12.501L11.6386 11.4209C11.5051 11.2926 11.1184 10.8648 10.9481 10.8506ZM19.5624 6.18066C17.4341 6.28171 15.3789 6.98863 13.6386 8.21777C13.3627 8.41041 12.8263 8.79414 12.6171 9.04102C12.948 9.42732 13.7351 10.1414 14.122 10.5117L17.0331 13.3135C20.2037 16.4072 23.3426 19.5336 26.4481 22.6924C26.7025 22.9489 28.454 24.758 28.6112 24.8154C28.753 24.7362 28.9568 24.424 29.0585 24.2783C29.8319 23.1771 30.4109 21.9511 30.7704 20.6543C31.5765 17.7498 31.2043 14.6446 29.7352 12.0127C28.2451 9.35649 25.7639 7.39832 22.8339 6.56738C21.7705 6.26711 20.6662 6.13659 19.5624 6.18066Z" fill="url(#paint0_linear_386_56947)"/>
<path d="M19.5155 8.15382C20.9669 8.02487 22.2514 9.07004 22.3877 10.4909C22.5238 11.9117 21.4605 13.1727 20.0098 13.3105C18.5527 13.4489 17.258 12.402 17.1211 10.9749C16.9843 9.54782 18.0575 8.28336 19.5155 8.15382Z" fill="url(#paint1_linear_386_56947)"/>
<path d="M18.9219 13.9365C19.8587 13.9266 20.8036 13.9381 21.7341 13.9322C22.9673 13.9244 24.0407 14.5338 24.5851 15.6252C24.9865 16.43 24.9297 17.2169 24.9288 18.0809C24.9302 18.661 24.9274 19.2411 24.9206 19.8212C24.7697 19.7062 24.3017 19.2273 24.1525 19.0805L22.4883 17.4378L20.2455 15.2334C19.8392 14.8383 19.2938 14.3394 18.9219 13.9365Z" fill="url(#paint2_linear_386_56947)"/>
<defs>
<linearGradient id="paint0_linear_386_56947" x1="19.8615" y1="0.451172" x2="19.8615" y2="36.4512" gradientUnits="userSpaceOnUse">
<stop stop-color="#0A4B6E"/>
<stop offset="1" stop-color="#1391D4"/>
</linearGradient>
<linearGradient id="paint1_linear_386_56947" x1="19.7544" y1="8.14307" x2="19.7544" y2="13.3228" gradientUnits="userSpaceOnUse">
<stop stop-color="#0A4B6E"/>
<stop offset="1" stop-color="#1391D4"/>
</linearGradient>
<linearGradient id="paint2_linear_386_56947" x1="21.927" y1="13.9321" x2="21.927" y2="19.8212" gradientUnits="userSpaceOnUse">
<stop stop-color="#0A4B6E"/>
<stop offset="1" stop-color="#1391D4"/>
</linearGradient>
</defs>
</svg>
