<svg width="39" height="32" viewBox="0 0 39 32" fill="none" xmlns="http://www.w3.org/2000/svg">
<path d="M19.0282 0.0265771C19.0464 0.0244445 19.0649 0.0227668 19.0831 0.0215687C21.5131 -0.15465 24.1022 0.760686 25.95 2.3365C27.8749 3.97772 29.0655 6.31908 29.258 8.84137C29.5546 12.592 27.2411 16.6351 25.2867 19.6908C23.6422 22.2519 21.8349 24.7047 19.8765 27.0343C19.3311 27.4666 18.8979 26.7012 18.5926 26.3281C18.1412 25.7794 17.6971 25.2247 17.2604 24.6642C16.1549 23.242 15.1114 21.7724 14.133 20.2602C12.7247 18.1019 11.2049 15.5239 10.3966 13.0863C10.0702 12.1176 9.86942 11.111 9.7994 10.0911C9.65227 7.59548 10.5797 5.12096 12.2347 3.26163C13.978 1.3215 16.4232 0.157076 19.0282 0.0265771ZM19.9477 17.4216C24.1219 17.1966 27.3204 13.6255 27.0858 9.45188C26.8512 5.27825 23.2727 2.08803 19.0996 2.33228C14.9402 2.57571 11.7627 6.13998 11.9965 10.3C12.2303 14.46 15.7872 17.6459 19.9477 17.4216Z" fill="url(#paint0_linear_386_56916)"/>
<path d="M17.3003 10.9243C17.7246 10.8823 18.6724 10.9259 19.1426 10.9188C19.9595 10.9066 20.8353 10.9193 21.6522 10.9231C22.3718 10.9379 22.9883 11.2418 23.4755 11.7612C24.2372 12.5735 24.1821 13.7462 24.1212 14.7992C23.4977 15.4956 22.3912 16.0642 21.517 16.3824C19.1062 17.1042 16.7965 16.5391 14.965 14.8186C14.9153 14.2485 14.9183 13.1452 15.0992 12.6228C15.4461 11.621 16.2657 11.0577 17.3003 10.9243Z" fill="url(#paint1_linear_386_56916)"/>
<path d="M19.2108 4.92231C20.6909 4.74244 22.0359 5.7981 22.2128 7.27849C22.3898 8.75891 21.3314 10.1019 19.8508 10.2759C18.3741 10.4495 17.0356 9.3948 16.8592 7.91848C16.6827 6.44216 17.7348 5.10166 19.2108 4.92231Z" fill="url(#paint2_linear_386_56916)"/>
<path d="M34.8239 16.1452C35.6853 16.0695 36.6807 16.1671 37.5558 16.1364C37.9217 16.1234 38.3636 16.3362 38.6049 16.6101C38.7645 16.7917 38.8723 17.0129 38.9167 17.2506C38.9758 17.5758 38.9308 18.42 38.9368 18.7902C38.9325 19.3123 38.9557 19.8417 38.9363 20.3628C38.9279 20.5929 38.8429 20.8167 38.6634 20.9631C38.4389 21.1464 38.1899 21.1335 37.9237 21.1098C37.8913 22.0992 37.9308 23.1305 37.9184 24.1228C37.9153 24.3777 37.94 25.1788 37.8973 25.398C37.8705 25.5373 37.8038 25.6655 37.7054 25.7673C37.3251 26.1648 36.5746 25.977 36.4766 25.4433C36.4243 25.1589 36.4461 24.7343 36.4466 24.4357L36.4495 22.7886L36.4502 21.4584L36.0812 21.4546L36.0834 24.0042C36.0834 24.4321 36.1667 25.4107 35.9034 25.7244C35.7728 25.8792 35.5845 25.9734 35.3822 25.9851C35.1749 25.9947 34.9729 25.918 34.8239 25.7735C34.736 25.6873 34.6344 25.5191 34.6248 25.3968C34.5891 24.9404 34.6046 24.4508 34.6054 23.9941L34.6078 21.1172C33.528 21.1967 33.575 20.5428 33.5918 19.7139C33.6078 18.9249 33.5517 18.1003 33.6107 17.3124C33.6591 16.6635 34.2073 16.2392 34.8239 16.1452Z" fill="url(#paint3_linear_386_56916)"/>
<path d="M2.22487 16.1277L3.76047 16.1311C4.67609 16.1387 5.33417 16.5686 5.34974 17.571C5.36129 18.292 5.33913 19.0207 5.35533 19.7412C5.37457 20.5972 5.37687 21.1725 4.33628 21.1169L4.33084 23.9921C4.33132 24.2806 4.33552 24.5696 4.33338 24.8579C4.33104 25.1742 4.36612 25.5109 4.1333 25.7601C4.00112 25.8993 3.81891 25.9803 3.62695 25.9848C3.42169 25.9908 3.22328 25.9108 3.07958 25.7639C2.99262 25.675 2.91376 25.5384 2.89979 25.4157C2.85489 25.0208 2.8725 24.5603 2.87267 24.1606L2.87439 21.7351L2.87324 21.4588L2.511 21.461L2.51333 24.042C2.5129 24.468 2.58857 25.4174 2.33205 25.7246C2.20292 25.877 2.01637 25.9695 1.81672 25.9796C1.60865 25.9923 1.42038 25.9297 1.26968 25.7843C1.16049 25.6805 1.08702 25.5447 1.05987 25.3966C1.01537 25.15 1.03351 24.2653 1.03373 23.9806L1.0343 21.1138C0.974013 21.1207 0.91358 21.1267 0.853051 21.1313C0.213473 21.1768 -0.00592568 20.7285 0.00456981 20.1788C0.0161436 19.5713 -0.0105025 18.9438 0.00497713 18.3385C0.0212715 17.7011 -0.10453 17.0368 0.401745 16.5478C0.907829 16.0393 1.57638 16.1306 2.22487 16.1277Z" fill="url(#paint4_linear_386_56916)"/>
<path d="M15.8156 24.4404L15.8744 24.4421C16.0157 24.5236 16.5002 25.207 16.6135 25.3757C15.1347 25.5489 13.4813 25.8913 12.1527 26.5532C8.75675 28.2698 12.198 29.7919 14.1263 30.2872C17.139 31.0672 20.4028 31.1278 23.4602 30.5777C24.5275 30.3855 26.0364 29.9712 26.9769 29.4243C30.6518 27.2872 24.7908 25.6781 23.1544 25.5012C22.934 25.4775 22.6392 25.4255 22.42 25.38C22.6148 25.0963 22.9153 24.7086 23.1396 24.4481C23.5019 24.4718 24.1565 24.623 24.5308 24.7009C26.1296 25.0522 28.9174 25.9465 29.2428 27.838C29.3202 28.2888 29.1014 28.9247 28.8055 29.2679C27.3701 30.933 24.5102 31.5517 22.4437 31.8103C21.3874 31.9409 20.324 32.0041 19.2596 31.9996C16.6317 31.9756 12.9121 31.5088 10.7132 29.8847C10.232 29.5303 9.67851 28.8562 9.64216 28.2289C9.49589 25.7054 13.9929 24.6225 15.8156 24.4404Z" fill="url(#paint5_linear_386_56916)"/>
<path d="M35.9272 5.93607C36.5521 5.88452 37.1117 6.00453 37.6089 6.40776C38.0467 6.76099 38.3225 7.27657 38.3735 7.83676C38.4996 9.13384 37.2061 10.5882 36.4177 11.5429C36.1338 11.8299 35.7729 11.2474 35.6037 11.0311C34.6848 9.8563 33.4023 8.33012 34.442 6.82413C34.8029 6.30166 35.315 6.04205 35.9272 5.93607ZM36.3607 9.20483C36.9943 9.12427 37.4414 8.54331 37.3568 7.9101C37.2725 7.27692 36.6887 6.83348 36.0559 6.9219C35.4288 7.00953 34.99 7.58707 35.0739 8.21474C35.1575 8.84241 35.7324 9.2847 36.3607 9.20483Z" fill="url(#paint6_linear_386_56916)"/>
<path d="M2.45532 5.93845C3.08809 5.89554 3.60563 5.98516 4.11574 6.39345C4.5508 6.73467 4.82924 7.23743 4.88766 7.78722C5.02503 9.13349 3.77617 10.5391 2.95654 11.5432C2.87782 11.6174 2.75312 11.6918 2.65099 11.6075C2.47032 11.4582 2.32676 11.2534 2.17934 11.0713C1.23307 9.90275 -0.0828656 8.30844 0.992131 6.79918C1.35509 6.28974 1.84689 6.04183 2.45532 5.93845ZM2.93849 9.20492C3.5733 9.11248 4.01095 8.52013 3.91278 7.88616C3.8146 7.25221 3.2183 6.81996 2.58526 6.92383C1.96026 7.02641 1.53469 7.61349 1.63161 8.23941C1.72852 8.8653 2.31173 9.29617 2.93849 9.20492Z" fill="url(#paint7_linear_386_56916)"/>
<path d="M17.3558 26.4738C17.538 26.4592 17.6668 26.6993 17.7817 26.8239C18.0452 27.1095 18.2882 27.4867 18.5799 27.7399C18.874 27.9956 19.2598 28.12 19.648 28.0838C20.2949 28.0297 20.5751 27.6484 20.9491 27.1907C21.142 26.9506 21.3383 26.7134 21.5376 26.4791C22.1417 26.5569 24.1378 27.0498 23.8152 28.0148C23.6832 28.4095 23.0667 28.6786 22.7012 28.8415C22.4376 28.9302 22.1705 29.0068 21.8999 29.0713C20.1862 29.471 17.1184 29.4643 15.5368 28.5297C15.3239 28.3982 15.0748 28.1768 15.0304 27.9245C14.9748 27.6079 15.161 27.3534 15.4105 27.172C15.9535 26.7769 16.7025 26.5804 17.3558 26.4738Z" fill="url(#paint8_linear_386_56916)"/>
<path d="M36.0124 12.7038C36.8273 12.5694 37.5977 13.1198 37.7345 13.9344C37.8716 14.749 37.3236 15.5209 36.5093 15.6604C35.6915 15.8006 34.9154 15.2497 34.7778 14.4314C34.6403 13.6131 35.1936 12.8388 36.0124 12.7038Z" fill="url(#paint9_linear_386_56916)"/>
<path d="M2.42917 12.7029C3.24885 12.5641 4.02491 13.119 4.15857 13.9395C4.29224 14.7601 3.7324 15.5326 2.91102 15.6611C2.09698 15.7884 1.33284 15.2346 1.20038 14.4214C1.06792 13.6082 1.6168 12.8406 2.42917 12.7029Z" fill="url(#paint10_linear_386_56916)"/>
<path d="M32.3527 19.2922C32.5058 19.2424 32.6738 19.2798 32.7915 19.3898C32.9089 19.5 32.9573 19.6651 32.9175 19.8211C32.8777 19.9771 32.7563 20.099 32.6005 20.1395C32.3695 20.1994 32.1328 20.065 32.0657 19.8359C31.9988 19.6068 32.1258 19.3663 32.3527 19.2922Z" fill="url(#paint11_linear_386_56916)"/>
<path d="M6.38166 19.2726C6.62323 19.2601 6.82959 19.4451 6.84344 19.6866C6.85729 19.9282 6.67345 20.1354 6.43203 20.1505C6.18876 20.1659 5.97953 19.9802 5.96558 19.737C5.95161 19.4935 6.13825 19.2853 6.38166 19.2726Z" fill="url(#paint12_linear_386_56916)"/>
<path d="M10.5602 21.1817C10.7966 21.1338 11.0273 21.2854 11.0769 21.5215C11.1266 21.7575 10.9767 21.9895 10.7412 22.041C10.5029 22.0932 10.2678 21.9413 10.2175 21.7026C10.1673 21.4637 10.3211 21.2299 10.5602 21.1817Z" fill="url(#paint13_linear_386_56916)"/>
<path d="M26.6144 21.5654C26.8462 21.5064 27.0824 21.644 27.1454 21.8745C27.2085 22.105 27.0752 22.3437 26.8459 22.411C26.6938 22.4556 26.5296 22.4146 26.4163 22.3037C26.3029 22.193 26.2581 22.0295 26.2991 21.8764C26.3403 21.7235 26.4608 21.6045 26.6144 21.5654Z" fill="url(#paint14_linear_386_56916)"/>
<path d="M31.04 20.056C31.276 20.0009 31.5121 20.148 31.5667 20.3843C31.6211 20.6206 31.4735 20.8561 31.2372 20.91C31.0017 20.9639 30.7668 20.8168 30.7124 20.5815C30.6583 20.3459 30.8047 20.1109 31.04 20.056Z" fill="url(#paint15_linear_386_56916)"/>
<path d="M25.0847 21.8037C25.3171 21.7434 25.5546 21.8811 25.6176 22.1126C25.6806 22.3441 25.5459 22.5832 25.3152 22.6491C25.1635 22.6923 25.0003 22.6508 24.8877 22.5401C24.7753 22.4294 24.731 22.2669 24.7717 22.1145C24.8124 21.9621 24.932 21.8435 25.0847 21.8037Z" fill="url(#paint16_linear_386_56916)"/>
<path d="M9.05281 20.6795C9.28465 20.6175 9.52319 20.7538 9.58739 20.9851C9.65158 21.2163 9.51742 21.4562 9.28673 21.5225C9.0531 21.5896 8.80957 21.4533 8.74456 21.2192C8.67955 20.9848 8.81801 20.7426 9.05281 20.6795Z" fill="url(#paint17_linear_386_56916)"/>
<path d="M28.1537 21.1839C28.3897 21.1352 28.6205 21.2869 28.6696 21.5229C28.7185 21.7587 28.5673 21.99 28.3312 22.0393C28.095 22.0889 27.8633 21.937 27.8139 21.7005C27.7648 21.464 27.9169 21.2325 28.1537 21.1839Z" fill="url(#paint18_linear_386_56916)"/>
<path d="M13.6003 21.8044C13.8344 21.7452 14.0721 21.8876 14.1307 22.1219C14.1891 22.3563 14.0462 22.5935 13.8117 22.6515C13.5781 22.709 13.3419 22.5669 13.2836 22.3333C13.2253 22.0999 13.367 21.8634 13.6003 21.8044Z" fill="url(#paint19_linear_386_56916)"/>
<path d="M12.0879 21.563C12.3212 21.5129 12.5514 21.6596 12.6046 21.892C12.6578 22.1247 12.5143 22.3569 12.2824 22.4132C12.1296 22.4504 11.9687 22.4024 11.8611 22.2876C11.7536 22.1729 11.7161 22.0092 11.7631 21.8592C11.81 21.7092 11.9341 21.5959 12.0879 21.563Z" fill="url(#paint20_linear_386_56916)"/>
<path d="M7.66933 20.0563C7.90354 20.0096 8.13161 20.1603 8.1803 20.3942C8.22899 20.6281 8.08007 20.8574 7.8467 20.908C7.61052 20.9592 7.37783 20.808 7.32856 20.5715C7.27929 20.335 7.43234 20.1036 7.66933 20.0563Z" fill="url(#paint21_linear_386_56916)"/>
<path d="M29.6332 20.6795C29.8673 20.6285 30.0985 20.7765 30.1503 21.0107C30.2018 21.2445 30.0542 21.4762 29.8203 21.5282C29.5855 21.5805 29.3531 21.4324 29.3013 21.1976C29.2495 20.963 29.3983 20.7308 29.6332 20.6795Z" fill="url(#paint22_linear_386_56916)"/>
<defs>
<linearGradient id="paint0_linear_386_56916" x1="19.534" y1="0" x2="19.534" y2="27.1629" gradientUnits="userSpaceOnUse">
<stop stop-color="#0A4B6E"/>
<stop offset="1" stop-color="#1391D4"/>
</linearGradient>
<linearGradient id="paint1_linear_386_56916" x1="19.5454" y1="10.9058" x2="19.5454" y2="16.689" gradientUnits="userSpaceOnUse">
<stop stop-color="#0A4B6E"/>
<stop offset="1" stop-color="#1391D4"/>
</linearGradient>
<linearGradient id="paint2_linear_386_56916" x1="19.536" y1="4.90234" x2="19.536" y2="10.2946" gradientUnits="userSpaceOnUse">
<stop stop-color="#0A4B6E"/>
<stop offset="1" stop-color="#1391D4"/>
</linearGradient>
<linearGradient id="paint3_linear_386_56916" x1="36.2653" y1="16.1157" x2="36.2653" y2="25.9859" gradientUnits="userSpaceOnUse">
<stop stop-color="#0A4B6E"/>
<stop offset="1" stop-color="#1391D4"/>
</linearGradient>
<linearGradient id="paint4_linear_386_56916" x1="2.67988" y1="16.123" x2="2.67988" y2="25.9852" gradientUnits="userSpaceOnUse">
<stop stop-color="#0A4B6E"/>
<stop offset="1" stop-color="#1391D4"/>
</linearGradient>
<linearGradient id="paint5_linear_386_56916" x1="19.4486" y1="24.4404" x2="19.4486" y2="31.9998" gradientUnits="userSpaceOnUse">
<stop stop-color="#0A4B6E"/>
<stop offset="1" stop-color="#1391D4"/>
</linearGradient>
<linearGradient id="paint6_linear_386_56916" x1="36.2184" y1="5.9248" x2="36.2184" y2="11.6208" gradientUnits="userSpaceOnUse">
<stop stop-color="#0A4B6E"/>
<stop offset="1" stop-color="#1391D4"/>
</linearGradient>
<linearGradient id="paint7_linear_386_56916" x1="2.74397" y1="5.92871" x2="2.74397" y2="11.6449" gradientUnits="userSpaceOnUse">
<stop stop-color="#0A4B6E"/>
<stop offset="1" stop-color="#1391D4"/>
</linearGradient>
<linearGradient id="paint8_linear_386_56916" x1="19.4354" y1="26.4731" x2="19.4354" y2="29.3226" gradientUnits="userSpaceOnUse">
<stop stop-color="#0A4B6E"/>
<stop offset="1" stop-color="#1391D4"/>
</linearGradient>
<linearGradient id="paint9_linear_386_56916" x1="36.2562" y1="12.6836" x2="36.2562" y2="15.6822" gradientUnits="userSpaceOnUse">
<stop stop-color="#0A4B6E"/>
<stop offset="1" stop-color="#1391D4"/>
</linearGradient>
<linearGradient id="paint10_linear_386_56916" x1="2.67948" y1="12.6816" x2="2.67948" y2="15.6793" gradientUnits="userSpaceOnUse">
<stop stop-color="#0A4B6E"/>
<stop offset="1" stop-color="#1391D4"/>
</linearGradient>
<linearGradient id="paint11_linear_386_56916" x1="32.4895" y1="19.2705" x2="32.4895" y2="20.1538" gradientUnits="userSpaceOnUse">
<stop stop-color="#0A4B6E"/>
<stop offset="1" stop-color="#1391D4"/>
</linearGradient>
<linearGradient id="paint12_linear_386_56916" x1="6.40451" y1="19.272" x2="6.40451" y2="20.1514" gradientUnits="userSpaceOnUse">
<stop stop-color="#0A4B6E"/>
<stop offset="1" stop-color="#1391D4"/>
</linearGradient>
<linearGradient id="paint13_linear_386_56916" x1="10.6472" y1="21.1729" x2="10.6472" y2="22.0513" gradientUnits="userSpaceOnUse">
<stop stop-color="#0A4B6E"/>
<stop offset="1" stop-color="#1391D4"/>
</linearGradient>
<linearGradient id="paint14_linear_386_56916" x1="26.7226" y1="21.5518" x2="26.7226" y2="22.4287" gradientUnits="userSpaceOnUse">
<stop stop-color="#0A4B6E"/>
<stop offset="1" stop-color="#1391D4"/>
</linearGradient>
<linearGradient id="paint15_linear_386_56916" x1="31.1396" y1="20.0444" x2="31.1396" y2="20.9212" gradientUnits="userSpaceOnUse">
<stop stop-color="#0A4B6E"/>
<stop offset="1" stop-color="#1391D4"/>
</linearGradient>
<linearGradient id="paint16_linear_386_56916" x1="25.195" y1="21.7896" x2="25.195" y2="22.6659" gradientUnits="userSpaceOnUse">
<stop stop-color="#0A4B6E"/>
<stop offset="1" stop-color="#1391D4"/>
</linearGradient>
<linearGradient id="paint17_linear_386_56916" x1="9.16597" y1="20.6646" x2="9.16597" y2="21.5396" gradientUnits="userSpaceOnUse">
<stop stop-color="#0A4B6E"/>
<stop offset="1" stop-color="#1391D4"/>
</linearGradient>
<linearGradient id="paint18_linear_386_56916" x1="28.2417" y1="21.1748" x2="28.2417" y2="22.0487" gradientUnits="userSpaceOnUse">
<stop stop-color="#0A4B6E"/>
<stop offset="1" stop-color="#1391D4"/>
</linearGradient>
<linearGradient id="paint19_linear_386_56916" x1="13.7071" y1="21.791" x2="13.7071" y2="22.6643" gradientUnits="userSpaceOnUse">
<stop stop-color="#0A4B6E"/>
<stop offset="1" stop-color="#1391D4"/>
</linearGradient>
<linearGradient id="paint20_linear_386_56916" x1="12.1794" y1="21.5532" x2="12.1794" y2="22.4256" gradientUnits="userSpaceOnUse">
<stop stop-color="#0A4B6E"/>
<stop offset="1" stop-color="#1391D4"/>
</linearGradient>
<linearGradient id="paint21_linear_386_56916" x1="7.75443" y1="20.0479" x2="7.75443" y2="20.918" gradientUnits="userSpaceOnUse">
<stop stop-color="#0A4B6E"/>
<stop offset="1" stop-color="#1391D4"/>
</linearGradient>
<linearGradient id="paint22_linear_386_56916" x1="29.7258" y1="20.6694" x2="29.7258" y2="21.5387" gradientUnits="userSpaceOnUse">
<stop stop-color="#0A4B6E"/>
<stop offset="1" stop-color="#1391D4"/>
</linearGradient>
</defs>
</svg>
