<svg width="24" height="24" viewBox="0 0 24 24" fill="none" xmlns="http://www.w3.org/2000/svg">
<g opacity="0.8">
<path d="M23.4443 10.396L21.7655 8.49505C21.4057 8.13861 21.1659 7.42574 21.1659 6.9505V5.0495C21.1659 3.74257 20.0866 2.79208 18.8874 2.79208H16.8487C16.3691 2.79208 15.6496 2.55446 15.2898 2.19802L13.3711 0.534653C12.5316 -0.178218 11.2125 -0.178218 10.3731 0.534653L8.57428 2.19802C8.21451 2.55446 7.49499 2.79208 7.01531 2.79208H4.97668C3.65756 2.79208 2.6982 3.86139 2.6982 5.0495V7.06931C2.6982 7.54455 2.45836 8.25743 2.0986 8.61386L0.53964 10.5149C-0.17988 11.3465 -0.17988 12.6535 0.53964 13.4851L2.0986 15.3861C2.45836 15.7426 2.6982 16.4554 2.6982 16.9307V18.9505C2.6982 20.2574 3.77748 21.2079 4.97668 21.2079H7.01531C7.49499 21.2079 8.21451 21.4455 8.57428 21.802L10.493 23.4653C11.3324 24.1782 12.6516 24.1782 13.491 23.4653L15.4097 21.802C15.7695 21.4455 16.489 21.2079 16.9687 21.2079H19.0073C20.3264 21.2079 21.2858 20.1386 21.2858 18.9505V16.9307C21.2858 16.4554 21.5256 15.7426 21.8854 15.3861L23.5643 13.4851C24.1639 12.6535 24.1639 11.2277 23.4443 10.396Z" fill="url(#paint0_linear_476_2026)"/>
<path d="M17.8291 11.2827C17.7092 11.6392 16.3901 15.5599 16.3901 15.5599C16.2702 16.2728 15.4307 16.8669 14.7112 16.8669H12.4327C12.073 16.8669 11.4734 16.7481 11.2335 16.5104L9.43472 15.2035C9.43472 15.9164 9.07496 16.2728 8.23552 16.2728C8.23552 16.2728 8.59528 16.2728 7.75584 16.2728C6.9164 16.2728 6.55664 15.9164 6.55664 15.0847V9.38172C6.55664 8.55004 6.9164 8.19361 7.75584 8.19361H8.35544C9.19488 8.19361 9.55464 8.55004 9.55464 9.38172V9.85697L11.8331 6.41143C12.073 6.05499 12.6726 5.81737 13.1522 5.93618C13.7518 6.1738 14.1116 6.76786 13.9917 7.24311L13.7518 9.1441C13.7518 9.26291 13.7518 9.50054 13.8718 9.61935C13.9917 9.73816 14.1116 9.73816 14.2315 9.73816H16.6299C17.1096 9.73816 17.7092 10.2134 17.7092 10.2134C17.949 10.451 17.949 10.9263 17.8291 11.2827Z" fill="#D9FF60"/>
</g>
<defs>
<linearGradient id="paint0_linear_476_2026" x1="12" y1="0" x2="12" y2="24" gradientUnits="userSpaceOnUse">
<stop stop-color="#005276"/>
<stop offset="1" stop-color="#006F9F"/>
</linearGradient>
</defs>
</svg>
