<svg width="24" height="24" viewBox="0 0 24 24" fill="none" xmlns="http://www.w3.org/2000/svg">
<path fill-rule="evenodd" clip-rule="evenodd" d="M8.17616 3.03819C8.04061 2.99758 7.89745 2.98922 7.7581 3.01377C7.61875 3.03832 7.48707 3.09511 7.37356 3.1796C7.26006 3.26408 7.16788 3.37394 7.10437 3.50038C7.04087 3.62683 7.0078 3.76637 7.00781 3.90787V21H10.1851V17.8227C10.1851 17.5819 10.2808 17.351 10.451 17.1808C10.6213 17.0105 10.8522 16.9149 11.0929 16.9149H12.9085C13.1493 16.9149 13.3802 17.0105 13.5505 17.1808C13.7207 17.351 13.8163 17.5819 13.8163 17.8227V21H16.9937V6.35894C16.9937 6.16364 16.9307 5.97354 16.8141 5.81687C16.6975 5.6602 16.5335 5.54531 16.3464 5.48926L8.17616 3.03819ZM10.1851 8.29074C10.0647 8.29074 9.94929 8.33857 9.86417 8.42369C9.77905 8.50881 9.73122 8.62426 9.73122 8.74465V9.65245C9.73122 9.77283 9.77905 9.88828 9.86417 9.97341C9.94929 10.0585 10.0647 10.1064 10.1851 10.1064H11.0929C11.2133 10.1064 11.3288 10.0585 11.4139 9.97341C11.499 9.88828 11.5468 9.77283 11.5468 9.65245V8.74465C11.5468 8.62426 11.499 8.50881 11.4139 8.42369C11.3288 8.33857 11.2133 8.29074 11.0929 8.29074H10.1851ZM9.73122 11.4681C9.73122 11.3477 9.77905 11.2322 9.86417 11.1471C9.94929 11.062 10.0647 11.0142 10.1851 11.0142H11.0929C11.2133 11.0142 11.3288 11.062 11.4139 11.1471C11.499 11.2322 11.5468 11.3477 11.5468 11.4681V12.3759C11.5468 12.4962 11.499 12.6117 11.4139 12.6968C11.3288 12.7819 11.2133 12.8298 11.0929 12.8298H10.1851C10.0647 12.8298 9.94929 12.7819 9.86417 12.6968C9.77905 12.6117 9.73122 12.4962 9.73122 12.3759V11.4681ZM10.1851 13.7376C10.0647 13.7376 9.94929 13.7854 9.86417 13.8705C9.77905 13.9556 9.73122 14.0711 9.73122 14.1915V15.0993C9.73122 15.2197 9.77905 15.3351 9.86417 15.4202C9.94929 15.5054 10.0647 15.5532 10.1851 15.5532H11.0929C11.2133 15.5532 11.3288 15.5054 11.4139 15.4202C11.499 15.3351 11.5468 15.2197 11.5468 15.0993V14.1915C11.5468 14.0711 11.499 13.9556 11.4139 13.8705C11.3288 13.7854 11.2133 13.7376 11.0929 13.7376H10.1851ZM12.4546 8.74465C12.4546 8.62426 12.5025 8.50881 12.5876 8.42369C12.6727 8.33857 12.7882 8.29074 12.9085 8.29074H13.8163C13.9367 8.29074 14.0522 8.33857 14.1373 8.42369C14.2224 8.50881 14.2702 8.62426 14.2702 8.74465V9.65245C14.2702 9.77283 14.2224 9.88828 14.1373 9.97341C14.0522 10.0585 13.9367 10.1064 13.8163 10.1064H12.9085C12.7882 10.1064 12.6727 10.0585 12.5876 9.97341C12.5025 9.88828 12.4546 9.77283 12.4546 9.65245V8.74465ZM12.9085 11.0142C12.7882 11.0142 12.6727 11.062 12.5876 11.1471C12.5025 11.2322 12.4546 11.3477 12.4546 11.4681V12.3759C12.4546 12.4962 12.5025 12.6117 12.5876 12.6968C12.6727 12.7819 12.7882 12.8298 12.9085 12.8298H13.8163C13.9367 12.8298 14.0522 12.7819 14.1373 12.6968C14.2224 12.6117 14.2702 12.4962 14.2702 12.3759V11.4681C14.2702 11.3477 14.2224 11.2322 14.1373 11.1471C14.0522 11.062 13.9367 11.0142 13.8163 11.0142H12.9085ZM12.4546 14.1915C12.4546 14.0711 12.5025 13.9556 12.5876 13.8705C12.6727 13.7854 12.7882 13.7376 12.9085 13.7376H13.8163C13.9367 13.7376 14.0522 13.7854 14.1373 13.8705C14.2224 13.9556 14.2702 14.0711 14.2702 14.1915V15.0993C14.2702 15.2197 14.2224 15.3351 14.1373 15.4202C14.0522 15.5054 13.9367 15.5532 13.8163 15.5532H12.9085C12.7882 15.5532 12.6727 15.5054 12.5876 15.4202C12.5025 15.3351 12.4546 15.2197 12.4546 15.0993V14.1915Z" fill="url(#paint0_linear_1027_3154)"/>
<path d="M6.09919 21V5.56738H4.73748C4.49672 5.56738 4.26581 5.66303 4.09557 5.83327C3.92532 6.00352 3.82968 6.23442 3.82968 6.47519V20.0922H3.37578C3.25539 20.0922 3.13994 20.1401 3.05482 20.2252C2.9697 20.3103 2.92188 20.4258 2.92188 20.5461C2.92188 20.6665 2.9697 20.782 3.05482 20.8671C3.13994 20.9522 3.25539 21 3.37578 21H6.09919ZM20.6241 21H17.9006V8.99979L19.7126 10.0347C19.8518 10.1142 19.9675 10.2292 20.0479 10.3679C20.1282 10.5066 20.1704 10.6642 20.1701 10.8245V20.0922H20.6241C20.7444 20.0922 20.8599 20.1401 20.945 20.2252C21.0301 20.3103 21.078 20.4258 21.078 20.5461C21.078 20.6665 21.0301 20.782 20.945 20.8671C20.8599 20.9522 20.7444 21 20.6241 21ZM12.9077 21V17.8227H11.0921V21H12.9077Z" fill="url(#paint1_linear_1027_3154)"/>
<defs>
<linearGradient id="paint0_linear_1027_3154" x1="12.0007" y1="3" x2="12.0007" y2="21" gradientUnits="userSpaceOnUse">
<stop stop-color="#3890C0"/>
<stop offset="1" stop-color="#0A8EC8"/>
</linearGradient>
<linearGradient id="paint1_linear_1027_3154" x1="11.9999" y1="5.56738" x2="11.9999" y2="21" gradientUnits="userSpaceOnUse">
<stop stop-color="#3890C0"/>
<stop offset="1" stop-color="#0A8EC8"/>
</linearGradient>
</defs>
</svg>
