<svg width="32" height="32" viewBox="0 0 32 32" fill="none" xmlns="http://www.w3.org/2000/svg">
<path d="M9.10418 13.7077C9.37645 13.6952 9.68711 13.6807 9.9571 13.6924C11.5968 13.7636 13.499 13.5552 15.1107 13.7651C15.6917 13.8382 16.2611 13.9849 16.8051 14.2016C18.7845 14.9711 19.9079 16.2969 20.7351 18.1847C17.8495 18.2985 15.215 17.7778 13.3108 20.5854C12.3749 21.9653 12.0827 23.3185 12.3798 24.9628C12.5045 25.505 12.6569 25.9993 12.9716 26.4623C11.3396 26.5555 9.53238 26.4858 7.87696 26.5115C6.72313 26.44 5.36271 26.6474 4.23466 26.4368C1.99159 25.9203 2.59658 23.8781 2.4817 22.3514C2.14348 17.8573 4.29299 14.2392 9.10418 13.7077Z" fill="url(#paint0_linear_1027_3446)"/>
<path d="M17.3224 19.364C18.3243 19.2585 19.4748 19.3447 20.4902 19.3205C22.2143 19.2794 23.7247 19.3006 25.0376 20.5825C25.9055 21.4298 26.3943 22.5917 26.3931 23.8046C26.4065 25.553 25.4421 27.0621 23.9026 27.8753C22.7994 28.4581 21.6629 28.4036 20.4517 28.4074L19.1525 28.4276C18.5856 28.751 16.7266 30.6193 16.2525 30.3794C16.0965 29.9754 16.1603 28.5808 16.1444 28.042C14.631 27.1745 13.6241 26.273 13.4014 24.4237C13.2405 23.1811 13.5937 21.9267 14.3793 20.9507C15.1475 19.9864 16.1072 19.4987 17.3224 19.364ZM20.1714 24.6815C20.6413 24.5228 20.896 24.0156 20.7428 23.5439C20.5895 23.0722 20.0853 22.8116 19.6119 22.9594C19.3007 23.0565 19.0657 23.3134 18.9967 23.632C18.9277 23.9506 19.0353 24.2817 19.2784 24.4989C19.5215 24.7161 19.8626 24.7858 20.1714 24.6815ZM17.1637 24.6879C17.5442 24.5661 17.7998 24.2091 17.7922 23.8097C17.787 23.5312 17.6537 23.2706 17.4308 23.1034C17.208 22.9362 16.9205 22.8811 16.6516 22.954C16.3352 23.0398 16.09 23.2902 16.0108 23.6083C15.9317 23.9265 16.0309 24.2626 16.2702 24.4867C16.5096 24.7107 16.8514 24.7878 17.1637 24.6879ZM23.1816 24.6711C23.6398 24.5052 23.8826 24.0046 23.7292 23.5421C23.5759 23.0796 23.0822 22.8232 22.6156 22.9638C22.3023 23.0582 22.0649 23.3154 21.9958 23.6354C21.9268 23.9553 22.0369 24.2875 22.2834 24.5028C22.5299 24.7181 22.8739 24.7826 23.1816 24.6711Z" fill="url(#paint1_linear_1027_3446)"/>
<path d="M11.7078 1.60661C14.6429 1.45742 17.1453 3.71129 17.3028 6.6459C17.4603 9.58047 15.2135 12.0892 12.2794 12.2551C9.33344 12.4215 6.81245 10.1638 6.65428 7.21737C6.49617 4.27103 8.76104 1.75642 11.7078 1.60661Z" fill="url(#paint2_linear_1027_3446)"/>
<path d="M21.7503 15.2674C22.452 15.2367 23.1544 15.2509 23.8539 15.2455C25.4088 15.2335 26.5928 15.1944 27.9864 16.0053C29.2388 16.7189 30.1546 17.903 30.5305 19.2947C30.8005 20.3261 30.7303 21.3318 30.7395 22.3841C30.7478 23.3425 30.5258 24.1142 29.4931 24.3781C28.8202 24.4322 28.0894 24.415 27.4127 24.4046C27.7782 21.9536 26.0939 19.3283 23.7774 18.5349C23.1116 18.3068 22.5587 18.2708 21.868 18.2276C21.4251 17.0397 21.182 16.5262 20.4062 15.5023C20.7849 15.4628 21.3636 15.338 21.7503 15.2674Z" fill="url(#paint3_linear_1027_3446)"/>
<path d="M23.2157 6.33714C25.345 6.06596 27.289 7.57742 27.551 9.70784C27.813 11.8382 26.2932 13.7757 24.1617 14.0286C22.0431 14.2799 20.1199 12.7713 19.8594 10.6538C19.599 8.53631 21.0994 6.60665 23.2157 6.33714Z" fill="url(#paint4_linear_1027_3446)"/>
<defs>
<linearGradient id="paint0_linear_1027_3446" x1="11.5912" y1="13.6685" x2="11.5912" y2="26.5342" gradientUnits="userSpaceOnUse">
<stop stop-color="#21B1F1"/>
<stop offset="1" stop-color="#3890C0"/>
</linearGradient>
<linearGradient id="paint1_linear_1027_3446" x1="19.8783" y1="19.3101" x2="19.8783" y2="30.4006" gradientUnits="userSpaceOnUse">
<stop stop-color="#21B1F1"/>
<stop offset="1" stop-color="#3890C0"/>
</linearGradient>
<linearGradient id="paint2_linear_1027_3446" x1="11.9785" y1="1.59961" x2="11.9785" y2="12.2637" gradientUnits="userSpaceOnUse">
<stop stop-color="#21B1F1"/>
<stop offset="1" stop-color="#3890C0"/>
</linearGradient>
<linearGradient id="paint3_linear_1027_3446" x1="25.5738" y1="15.2412" x2="25.5738" y2="24.4157" gradientUnits="userSpaceOnUse">
<stop stop-color="#21B1F1"/>
<stop offset="1" stop-color="#3890C0"/>
</linearGradient>
<linearGradient id="paint4_linear_1027_3446" x1="23.7052" y1="6.30566" x2="23.7052" y2="14.0559" gradientUnits="userSpaceOnUse">
<stop stop-color="#21B1F1"/>
<stop offset="1" stop-color="#3890C0"/>
</linearGradient>
</defs>
</svg>
