<svg width="40" height="40" viewBox="0 0 40 40" fill="none" xmlns="http://www.w3.org/2000/svg">
<path fill-rule="evenodd" clip-rule="evenodd" d="M31.4738 21.8609C34.1175 21.8609 36.2606 24.004 36.2606 26.6477C36.2606 29.2913 34.1175 31.4344 31.4738 31.4344C29.1766 31.4344 27.2575 29.8163 26.7939 27.6576C26.7918 27.6469 26.7874 27.6367 26.7809 27.6279C26.7745 27.619 26.7662 27.6116 26.7567 27.6063L22.1172 24.9229L22.1126 24.9204C22.0142 24.872 21.9313 24.797 21.8733 24.7039C21.8154 24.6108 21.7847 24.5033 21.7847 24.3937V21.9723C21.7847 21.8166 21.8466 21.6673 21.9567 21.5573C22.0667 21.4472 22.216 21.3854 22.3717 21.3854C22.5273 21.3854 22.6766 21.4472 22.7867 21.5573C22.8968 21.6673 22.9586 21.8166 22.9586 21.9723V24.0116C22.9586 24.0403 22.9729 24.065 22.9976 24.0793L26.601 26.1635C26.6122 26.1702 26.6249 26.1739 26.6379 26.1742C26.6509 26.1746 26.6638 26.1716 26.6753 26.1656C26.6871 26.1599 26.6972 26.1513 26.7046 26.1406C26.712 26.1299 26.7166 26.1174 26.7178 26.1045C26.9876 23.7166 29.0138 21.8609 31.4738 21.8609ZM8.52507 21.8719C10.9815 21.8719 13.0054 23.7223 13.2798 26.1052C13.2829 26.1322 13.2981 26.154 13.3224 26.1662C13.3466 26.1784 13.3732 26.1776 13.3966 26.164L17.0012 24.0793C17.0132 24.0726 17.0232 24.0628 17.0301 24.0508C17.0369 24.0389 17.0405 24.0254 17.0403 24.0116V21.9723C17.0403 21.8166 17.1021 21.6673 17.2122 21.5573C17.3222 21.4472 17.4715 21.3854 17.6272 21.3854C17.7829 21.3854 17.9321 21.4472 18.0422 21.5573C18.1523 21.6673 18.2141 21.8166 18.2141 21.9723V24.3937C18.2141 24.5033 18.1834 24.6108 18.1255 24.7039C18.0676 24.797 17.9847 24.872 17.8863 24.9204L17.8817 24.9229L13.2451 27.6043C13.2355 27.6097 13.2272 27.6171 13.2208 27.626C13.2144 27.6349 13.21 27.6451 13.2079 27.6559C12.7491 29.8209 10.8269 31.4455 8.52507 31.4455C5.8814 31.4455 3.73828 29.3024 3.73828 26.6587C3.73828 24.0151 5.8814 21.8719 8.52507 21.8719ZM8.52498 25.9035C9.24599 25.9035 9.83053 25.319 9.83053 24.5979C9.83053 23.8768 9.24599 23.2924 8.52498 23.2924C7.80397 23.2924 7.21943 23.8769 7.21943 24.5979C7.21943 25.3189 7.80397 25.9035 8.52498 25.9035ZM5.93901 29.1463C5.93837 29.1571 5.94006 29.1679 5.94397 29.178C5.94788 29.1881 5.95391 29.1973 5.96166 29.2049C7.37421 30.6274 9.67583 30.6275 11.0884 29.2049C11.0961 29.1973 11.1021 29.1881 11.1061 29.178C11.11 29.1679 11.1117 29.1571 11.111 29.1463C11.0518 27.774 9.91115 26.6698 8.52507 26.6698C7.13889 26.6699 5.99822 27.774 5.93901 29.1463ZM11.7706 6.12745C11.9358 6.19635 12.067 6.32783 12.1355 6.49317C12.204 6.65851 12.2043 6.84425 12.1363 7.00979C12.0682 7.17533 11.9374 7.30719 11.7724 7.37656C11.6074 7.44594 11.4217 7.44717 11.2558 7.37999L10.1525 6.92368C9.98731 6.85479 9.85612 6.7233 9.78761 6.55796C9.7191 6.39262 9.71883 6.20688 9.78686 6.04134C9.8549 5.87581 9.98571 5.74394 10.1507 5.67457C10.3157 5.6052 10.5014 5.60397 10.6673 5.67114L11.7706 6.12745ZM28.7501 7.37025C28.5846 7.4365 28.3996 7.43486 28.2352 7.36569C28.0708 7.29651 27.9403 7.16538 27.8719 7.00068C27.8035 6.83598 27.8027 6.65097 27.8698 6.48571C27.9368 6.32045 28.0662 6.18824 28.23 6.11772L29.3288 5.66185C29.4944 5.59561 29.6794 5.59725 29.8438 5.66642C30.0082 5.73559 30.1387 5.86673 30.2071 6.03143C30.2755 6.19613 30.2762 6.38114 30.2092 6.5464C30.1422 6.71166 30.0127 6.84386 29.849 6.91439L28.7501 7.37025ZM24.1411 2.03176C24.0722 2.19694 23.9407 2.32813 23.7753 2.39664C23.61 2.46516 23.4243 2.46542 23.2587 2.39739C23.0932 2.32935 22.9613 2.19854 22.8919 2.03356C22.8226 1.86858 22.8213 1.68284 22.8885 1.51696L23.3436 0.416461C23.4125 0.25128 23.544 0.120093 23.7093 0.0515794C23.8746 -0.0169343 24.0604 -0.0172019 24.2259 0.0508349C24.3915 0.118872 24.5233 0.249679 24.5927 0.41466C24.6621 0.579642 24.6633 0.765378 24.5961 0.931265L24.1411 2.03176ZM17.109 1.51837C17.1753 1.68395 17.1736 1.86895 17.1045 2.03333C17.0353 2.1977 16.9042 2.32822 16.7395 2.39661C16.5748 2.465 16.3897 2.46576 16.2245 2.39874C16.0592 2.33171 15.927 2.20228 15.8565 2.03849L15.3994 0.936841C15.3331 0.771265 15.3348 0.58626 15.404 0.421886C15.4731 0.257512 15.6043 0.126998 15.769 0.0586071C15.9337 -0.00978424 16.1187 -0.010549 16.2839 0.0564782C16.4492 0.123505 16.5814 0.25293 16.6519 0.416727L17.109 1.51837ZM22.6506 18.768V20.3666C22.6506 20.3873 22.6423 20.4072 22.6277 20.4218C22.613 20.4365 22.5931 20.4447 22.5724 20.4448H17.4128C17.3921 20.4447 17.3722 20.4365 17.3576 20.4218C17.3429 20.4072 17.3347 20.3873 17.3346 20.3666V18.768C17.3346 18.7249 17.3697 18.6898 17.4128 18.6898H22.5724C22.6155 18.6898 22.6506 18.7249 22.6506 18.768ZM22.9814 17.6247C23.9891 14.0531 26.0806 12.589 26.0806 9.79303C26.0806 6.43552 23.3588 3.71379 20.0014 3.71379C16.6439 3.71379 13.9221 6.43552 13.9221 9.79303C13.9221 12.589 16.0137 14.0531 17.0213 17.6247C17.0258 17.6411 17.0356 17.6557 17.0492 17.666C17.0628 17.6763 17.0795 17.6819 17.0966 17.6817H22.9062C22.9233 17.6819 22.9399 17.6763 22.9536 17.666C22.9672 17.6557 22.977 17.6411 22.9814 17.6247ZM16.9149 10.8229C16.7873 10.6889 16.718 10.5097 16.7221 10.3247C16.7261 10.1397 16.8033 9.96379 16.9367 9.83549C17.0701 9.70718 17.2488 9.6369 17.4339 9.64001C17.6189 9.64312 17.7952 9.71935 17.9242 9.85206L19.1858 11.165C19.2019 11.1818 19.2222 11.19 19.2454 11.189C19.2686 11.1881 19.2883 11.1782 19.3029 11.1602L21.7263 8.17746C21.8448 8.03783 22.0133 7.95019 22.1956 7.93331C22.378 7.91644 22.5597 7.97169 22.7017 8.08722C22.8438 8.20274 22.935 8.36934 22.9557 8.55128C22.9764 8.73323 22.9249 8.91604 22.8124 9.06051L19.7793 12.7857C19.7773 12.7883 19.775 12.7907 19.7725 12.793C19.6384 12.9202 19.4594 12.9891 19.2746 12.9849C19.0899 12.9806 18.9143 12.9035 18.7861 12.7703L16.9149 10.8229ZM19.4125 21.9723V30.3936C19.4126 30.4125 19.4057 30.4308 19.3933 30.4451C19.3808 30.4593 19.3636 30.4685 19.3449 30.471C17.011 30.7903 15.2127 32.7916 15.2127 35.2132C15.2127 37.8569 17.3558 40 19.9994 40C22.6431 40 24.7862 37.8569 24.7862 35.2132C24.7862 32.7916 22.9879 30.7903 20.654 30.471C20.6352 30.4686 20.618 30.4594 20.6055 30.4451C20.5931 30.4308 20.5863 30.4125 20.5864 30.3936V21.9723C20.5864 21.8166 20.5245 21.6673 20.4145 21.5573C20.3044 21.4472 20.1551 21.3854 19.9994 21.3854C19.8438 21.3854 19.6945 21.4472 19.5844 21.5573C19.4743 21.6673 19.4125 21.8166 19.4125 21.9723ZM19.9994 34.458C19.2784 34.458 18.6939 33.8736 18.6939 33.1525C18.6939 32.4314 19.2783 31.8469 19.9994 31.8469C20.7204 31.8469 21.305 32.4315 21.305 33.1525C21.305 33.8735 20.7204 34.458 19.9994 34.458ZM17.4135 37.7008C17.4727 36.3286 18.6134 35.2244 19.9994 35.2244C21.3856 35.2244 22.5263 36.3286 22.5854 37.7009C22.586 37.7117 22.5844 37.7225 22.5804 37.7326C22.5765 37.7427 22.5705 37.7519 22.5627 37.7594C21.1502 39.182 18.8485 39.1819 17.436 37.7594C17.4283 37.7518 17.4223 37.7427 17.4184 37.7325C17.4145 37.7224 17.4128 37.7116 17.4135 37.7008ZM31.4738 25.8924C32.1948 25.8924 32.7794 25.308 32.7794 24.5869C32.7794 23.8658 32.1948 23.2813 31.4738 23.2813C30.7528 23.2813 30.1683 23.8658 30.1683 24.5869C30.1683 25.3079 30.7528 25.8924 31.4738 25.8924ZM28.8878 29.1351C28.8872 29.1459 28.8889 29.1568 28.8928 29.1669C28.8967 29.177 28.9027 29.1861 28.9105 29.1937C30.323 30.6163 32.6247 30.6164 34.0372 29.1938C34.045 29.1862 34.051 29.1771 34.0549 29.167C34.0588 29.1569 34.0605 29.146 34.0599 29.1352C34.0007 27.7629 32.86 26.6587 31.4739 26.6587C30.0876 26.6587 28.947 27.7629 28.8878 29.1351Z" fill="#0D90C9"/>
</svg>
