<svg width="24" height="24" viewBox="0 0 24 24" fill="none" xmlns="http://www.w3.org/2000/svg">
<path fill-rule="evenodd" clip-rule="evenodd" d="M3.28256 19.6417H20.7174C20.8731 19.6417 21 19.7686 21 19.9242V20.5863C21 20.7419 20.8731 20.8688 20.7174 20.8688H3.28256C3.12694 20.8688 3 20.7419 3 20.5863V19.9242C3 19.7686 3.12694 19.6417 3.28256 19.6417ZM19.5608 7.8232L13.8357 9.54655C13.8125 9.55331 13.7921 9.5675 13.7776 9.58694C13.7631 9.60638 13.7554 9.63002 13.7557 9.65425V19.1167H19.7057V7.93093C19.7058 7.91336 19.7017 7.89602 19.6939 7.88031C19.686 7.8646 19.6746 7.85095 19.6605 7.84047C19.6464 7.82999 19.63 7.82296 19.6127 7.81996C19.5954 7.81696 19.5776 7.81807 19.5608 7.8232ZM6.75563 4.87817H4.29431V19.1167H6.75563V4.87817ZM13.0857 7.8232L7.36069 9.54655C7.33742 9.55331 7.31701 9.5675 7.30255 9.58694C7.2881 9.60638 7.2804 9.63002 7.28062 9.65425V19.1167H13.2307V7.93093C13.2307 7.91336 13.2267 7.89602 13.2188 7.88031C13.211 7.8646 13.1995 7.85095 13.1854 7.84047C13.1713 7.82999 13.1549 7.82296 13.1376 7.81996C13.1203 7.81696 13.1025 7.81807 13.0857 7.8232ZM10.9772 11.0587H12.1779C12.2079 11.0587 12.2366 11.0706 12.2578 11.0918C12.279 11.113 12.2909 11.1417 12.291 11.1717V12.3724C12.2909 12.4024 12.279 12.4311 12.2578 12.4523C12.2366 12.4735 12.2079 12.4854 12.1779 12.4855H10.9772C10.9472 12.4854 10.9185 12.4735 10.8973 12.4523C10.8761 12.4311 10.8642 12.4024 10.8642 12.3724V11.1717C10.8642 11.1417 10.8761 11.113 10.8973 11.0918C10.9185 11.0706 10.9472 11.0587 10.9772 11.0587ZM10.9772 15.1744H12.1779C12.2079 15.1744 12.2366 15.1863 12.2578 15.2075C12.279 15.2287 12.2909 15.2574 12.291 15.2874V16.4882C12.2909 16.5181 12.279 16.5468 12.2578 16.568C12.2366 16.5892 12.2079 16.6011 12.1779 16.6012H10.9772C10.9472 16.6011 10.9185 16.5892 10.8973 16.568C10.8761 16.5468 10.8642 16.5181 10.8642 16.4882V15.2874C10.8642 15.2574 10.8761 15.2287 10.8973 15.2075C10.9185 15.1863 10.9472 15.1744 10.9772 15.1744ZM9.6471 11.1837V12.3845C9.64704 12.4144 9.63511 12.4431 9.61393 12.4643C9.59275 12.4855 9.56403 12.4974 9.53408 12.4975H8.33333C8.30337 12.4974 8.27465 12.4855 8.25347 12.4643C8.23229 12.4431 8.22036 12.4144 8.2203 12.3845V11.1837C8.22036 11.1537 8.23229 11.125 8.25347 11.1038C8.27465 11.0826 8.30337 11.0707 8.33333 11.0707H9.53408C9.56403 11.0707 9.59275 11.0826 9.61393 11.1038C9.63511 11.125 9.64704 11.1537 9.6471 11.1837ZM8.33329 15.1864H9.53404C9.564 15.1864 9.59271 15.1983 9.61389 15.2195C9.63508 15.2407 9.647 15.2694 9.64706 15.2994V16.5001C9.647 16.5301 9.63508 16.5588 9.61389 16.58C9.59271 16.6012 9.564 16.6131 9.53404 16.6132H8.33329C8.30333 16.6131 8.27462 16.6012 8.25343 16.58C8.23225 16.5588 8.22032 16.5301 8.22026 16.5001V15.2994C8.22032 15.2694 8.23225 15.2407 8.25343 15.2195C8.27462 15.1983 8.30333 15.1864 8.33329 15.1864ZM17.4522 11.0587H18.653C18.683 11.0587 18.7117 11.0706 18.7329 11.0918C18.7541 11.113 18.766 11.1417 18.7661 11.1717V12.3724C18.766 12.4024 18.7541 12.4311 18.7329 12.4523C18.7117 12.4735 18.683 12.4854 18.653 12.4855H17.4522C17.4223 12.4854 17.3936 12.4735 17.3724 12.4523C17.3512 12.4311 17.3393 12.4024 17.3392 12.3724V11.1717C17.3393 11.1417 17.3512 11.113 17.3724 11.0918C17.3936 11.0706 17.4223 11.0587 17.4522 11.0587ZM17.4522 15.1744H18.653C18.683 15.1744 18.7117 15.1863 18.7329 15.2075C18.7541 15.2287 18.766 15.2574 18.7661 15.2874V16.4882C18.766 16.5181 18.7541 16.5468 18.7329 16.568C18.7117 16.5892 18.683 16.6011 18.653 16.6012H17.4522C17.4223 16.6011 17.3936 16.5892 17.3724 16.568C17.3512 16.5468 17.3393 16.5181 17.3392 16.4882V15.2874C17.3393 15.2574 17.3512 15.2287 17.3724 15.2075C17.3936 15.1863 17.4223 15.1744 17.4522 15.1744ZM14.8083 15.1864H16.0091C16.039 15.1864 16.0678 15.1983 16.0889 15.2195C16.1101 15.2407 16.1221 15.2694 16.1221 15.2994V16.5001C16.1221 16.5301 16.1101 16.5588 16.0889 16.58C16.0678 16.6012 16.039 16.6131 16.0091 16.6132H14.8083C14.7784 16.6131 14.7497 16.6012 14.7285 16.58C14.7073 16.5588 14.6954 16.5301 14.6953 16.5001V15.2994C14.6954 15.2694 14.7073 15.2407 14.7285 15.2195C14.7497 15.1983 14.7784 15.1864 14.8083 15.1864ZM14.8083 11.0707H16.0091C16.039 11.0707 16.0678 11.0826 16.0889 11.1038C16.1101 11.125 16.1221 11.1537 16.1221 11.1837V12.3845C16.1221 12.4144 16.1101 12.4431 16.0889 12.4643C16.0678 12.4855 16.039 12.4974 16.0091 12.4975H14.8083C14.7784 12.4974 14.7497 12.4855 14.7285 12.4643C14.7073 12.4431 14.6954 12.4144 14.6953 12.3845V11.1837C14.6954 11.1537 14.7073 11.125 14.7285 11.1038C14.7497 11.0826 14.7784 11.0707 14.8083 11.0707ZM6.75563 4.35321V3.15141C6.7555 3.14613 6.75335 3.1411 6.74961 3.13736C6.74588 3.13363 6.74084 3.13147 6.73556 3.13135H4.31438C4.30909 3.13147 4.30406 3.13363 4.30033 3.13736C4.29659 3.1411 4.29444 3.14613 4.29431 3.15141V4.35317L6.75563 4.35321Z" fill="url(#paint0_linear_1027_3225)"/>
<defs>
<linearGradient id="paint0_linear_1027_3225" x1="12" y1="3.13135" x2="12" y2="20.8688" gradientUnits="userSpaceOnUse">
<stop stop-color="#3890C0"/>
<stop offset="1" stop-color="#0A8EC8"/>
</linearGradient>
</defs>
</svg>
