<svg width="40" height="40" viewBox="0 0 40 40" fill="none" xmlns="http://www.w3.org/2000/svg">
<path d="M25.428 33.8281H6.17188C4.06102 33.8281 2.34375 32.1109 2.34375 30C2.34375 27.8891 4.06102 26.1719 6.17188 26.1719H13.6719C17.0751 26.1719 19.8438 23.4032 19.8438 20C19.8438 16.5968 17.0751 13.8281 13.6719 13.8281H9.57203C9.64727 14.2073 9.6875 14.599 9.6875 15C9.6875 15.401 9.64727 15.7927 9.57203 16.1719H13.6719C15.7827 16.1719 17.5 17.8891 17.5 20C17.5 22.1109 15.7827 23.8281 13.6719 23.8281H6.17188C2.76867 23.8281 0 26.5968 0 30C0 33.4032 2.76867 36.1719 6.17188 36.1719H25.428C25.3527 35.7927 25.3125 35.401 25.3125 35C25.3125 34.599 25.3527 34.2073 25.428 33.8281ZM31.3281 31.3281C29.3034 31.3281 27.6562 32.9753 27.6562 35C27.6562 37.0247 29.3034 38.6719 31.3281 38.6719C33.3528 38.6719 35 37.0247 35 35C35 32.9753 33.3528 31.3281 31.3281 31.3281ZM11.1719 1.32812H3.67188C3.02469 1.32812 2.5 1.85281 2.5 2.5V11.521C1.04844 12.0113 0 13.3851 0 15C0 17.0247 1.64719 18.6719 3.67188 18.6719C5.69656 18.6719 7.34375 17.0247 7.34375 15C7.34375 13.3851 6.29531 12.0113 4.84375 11.521V8.67188H11.1719C11.8191 8.67188 12.3438 8.14719 12.3438 7.5V2.5C12.3438 1.85281 11.8191 1.32812 11.1719 1.32812ZM31.3281 3.82812C26.5464 3.82812 22.6562 7.71828 22.6562 12.5C22.6562 15.0821 23.7812 17.4878 25.752 19.1418L30.2841 28.0322C30.7181 28.8837 31.9382 28.8836 32.3722 28.0322L36.9042 19.1418C38.8751 17.4878 40 15.0821 40 12.5C40 7.71828 36.1098 3.82812 31.3281 3.82812ZM31.3281 16.1719C29.3034 16.1719 27.6562 14.5247 27.6562 12.5C27.6562 10.4753 29.3034 8.82812 31.3281 8.82812C33.3528 8.82812 35 10.4753 35 12.5C35 14.5247 33.3528 16.1719 31.3281 16.1719Z" fill="#0D90C9"/>
</svg>
