<svg width="24" height="24" viewBox="0 0 24 24" fill="none" xmlns="http://www.w3.org/2000/svg">
<path d="M7.61614 7.38462C7.61614 4.96708 9.58321 3 12.0008 3C14.4183 3 16.3854 4.96708 16.3854 7.38462C16.3854 9.80215 14.4183 11.7692 12.0008 11.7692C9.58321 11.7692 7.61614 9.80215 7.61614 7.38462ZM14.77 13.1538H9.23152C6.30537 13.1538 3.92383 15.5354 3.92383 18.4615C3.92432 19.1346 4.19192 19.78 4.66787 20.256C5.14381 20.7319 5.7892 20.9995 6.46229 21H17.5392C18.2123 20.9995 18.8577 20.7319 19.3336 20.256C19.8096 19.78 20.0772 19.1346 20.0777 18.4615C20.0777 15.5354 17.6961 13.1538 14.77 13.1538Z" fill="url(#paint0_linear_1027_3112)"/>
<defs>
<linearGradient id="paint0_linear_1027_3112" x1="12.0008" y1="3" x2="12.0008" y2="21" gradientUnits="userSpaceOnUse">
<stop stop-color="#3890C0"/>
<stop offset="1" stop-color="#0A8EC8"/>
</linearGradient>
</defs>
</svg>
