<svg width="40" height="40" viewBox="0 0 40 40" fill="none" xmlns="http://www.w3.org/2000/svg">
<g clip-path="url(#clip0_1027_3076)">
<path d="M38.7192 15.5553H29.3172C28.6092 15.5553 28.0351 16.1294 28.0351 16.8374V18.7178H19.5756C18.9473 13.895 14.8235 10.1705 9.82939 10.1705C4.40074 10.1705 0 14.5713 0 19.9999C0 25.4286 4.40074 29.8293 9.82939 29.8293C14.8235 29.8293 18.9473 26.1048 19.5756 21.282H28.0351V23.1624C28.0351 23.8705 28.6092 24.4445 29.3172 24.4445H38.7192C39.4273 24.4445 40.0013 23.8705 40.0013 23.1624V16.8374C40.0013 16.1294 39.4273 15.5553 38.7192 15.5553ZM8.89807 24.2029C8.63516 24.5013 7.90026 24.8687 7.23904 24.2592L5.1843 22.4035C4.69481 21.9615 4.65636 21.2063 5.09841 20.7168C5.54047 20.2273 6.29565 20.1889 6.78514 20.6309L7.98317 21.7129L12.8718 16.6557C13.3301 16.1814 14.0862 16.1686 14.5604 16.627C15.0346 17.0854 15.0474 17.8414 14.589 18.3156L8.89807 24.2029ZM26.1547 11.6236H35.5567C36.2648 11.6236 36.8388 11.0495 36.8388 10.3415V4.01647C36.8388 3.30841 36.2648 2.73438 35.5567 2.73438H26.1547C25.4467 2.73438 24.8726 3.30841 24.8726 4.01647V10.3415C24.8726 11.0495 25.4467 11.6236 26.1547 11.6236ZM20.3426 6.89687C20.3426 6.34459 20.7903 5.89687 21.3426 5.89687H21.8213C22.3736 5.89687 22.8213 6.34459 22.8213 6.89687V7.46106C22.8213 8.01335 22.3736 8.46106 21.8213 8.46106H21.3426C20.7903 8.46106 20.3426 8.01335 20.3426 7.46106V6.89687ZM11.1115 8.46106H17.2057C17.758 8.46106 18.2057 8.01335 18.2057 7.46106V6.89687C18.2057 6.34459 17.758 5.89687 17.2057 5.89687H9.85785C9.14979 5.89687 8.54729 6.47091 8.54729 7.17897V9.23032H11.1115V8.46106ZM35.5567 28.3763H26.1547C25.4467 28.3763 24.8726 28.9503 24.8726 29.6584V35.9833C24.8726 36.6914 25.4467 37.2654 26.1547 37.2654H35.5567C36.2648 37.2654 36.8388 36.6914 36.8388 35.9833V29.6584C36.8388 28.9503 36.2648 28.3763 35.5567 28.3763ZM20.3426 32.6242C20.3426 32.0719 20.7903 31.6242 21.3426 31.6242H21.8213C22.3736 31.6242 22.8213 32.0719 22.8213 32.6242V33.1884C22.8213 33.7407 22.3736 34.1884 21.8213 34.1884H21.3426C20.7903 34.1884 20.3426 33.7407 20.3426 33.1884V32.6242ZM11.1115 30.7695H8.54729V32.9063C8.54729 33.6144 9.14979 34.1884 9.85785 34.1884H17.2057C17.758 34.1884 18.2057 33.7407 18.2057 33.1884V32.6242C18.2057 32.0719 17.758 31.6242 17.2057 31.6242H11.1115V30.7695Z" fill="#0E90CA"/>
</g>
<defs>
<clipPath id="clip0_1027_3076">
<rect width="40.0013" height="40" fill="white"/>
</clipPath>
</defs>
</svg>
