<svg width="24" height="24" viewBox="0 0 24 24" fill="none" xmlns="http://www.w3.org/2000/svg">
<path d="M18.5084 15.5283C17.421 14.5982 16.3175 14.0349 15.2434 14.9635L14.6021 15.5248C14.1329 15.9322 13.2604 17.8358 9.88726 13.9555C6.51481 10.0801 8.5217 9.47668 8.99164 9.07277L9.63649 8.51081C10.7049 7.58006 10.3017 6.40838 9.53112 5.20228L9.0661 4.47173C8.292 3.26844 7.44906 2.47818 6.37783 3.40752L5.79901 3.91328C5.32556 4.25819 4.00215 5.37929 3.68113 7.50912C3.29478 10.0646 4.51353 12.991 7.30576 16.2019C10.0945 19.4142 12.8249 21.0277 15.4113 20.9996C17.5608 20.9765 18.8589 19.823 19.2649 19.4037L19.8459 18.8972C20.9143 17.9686 20.2505 17.0231 19.1624 16.0909L18.5084 15.5283Z" fill="url(#paint0_linear_1027_3176)"/>
<defs>
<linearGradient id="paint0_linear_1027_3176" x1="11.9993" y1="3" x2="11.9993" y2="21" gradientUnits="userSpaceOnUse">
<stop stop-color="#3890C0"/>
<stop offset="1" stop-color="#0A8EC8"/>
</linearGradient>
</defs>
</svg>
