<svg width="40" height="40" viewBox="0 0 40 40" fill="none" xmlns="http://www.w3.org/2000/svg">
<g clip-path="url(#clip0_1027_3091)">
<path d="M10.9657 8.94571L8.15286 6.13286L8.14 6.12429C8.40857 5.56571 8.57143 4.94714 8.57143 4.28571C8.57143 1.92286 6.64857 0 4.28571 0C1.92286 0 0 1.92286 0 4.28571C0 6.64857 1.92286 8.57143 4.28571 8.57143C4.94571 8.57143 5.56571 8.40857 6.12429 8.14L6.13286 8.15286L8.94571 10.9657C9.55 10.2271 10.2271 9.55 10.9657 8.94571ZM35.7143 31.4286C35.0529 31.4286 34.4343 31.5914 33.8757 31.86L33.8671 31.8471L31.0543 29.0343C30.45 29.7729 29.7729 30.45 29.0343 31.0543L31.8471 33.8671L31.86 33.8757C31.5797 34.4483 31.4322 35.0768 31.4286 35.7143C31.4286 38.0771 33.3514 40 35.7143 40C38.0771 40 40 38.0771 40 35.7143C40 33.3514 38.0771 31.4286 35.7143 31.4286ZM32.8571 20C32.8571 12.9114 27.09 7.14286 20 7.14286C12.91 7.14286 7.14286 12.9114 7.14286 20C7.14286 27.0886 12.91 32.8571 20 32.8571C27.09 32.8571 32.8571 27.0886 32.8571 20ZM22.58 28.2614L20.9229 29.6614C20.6653 29.8805 20.3382 30.0009 20 30.0009C19.6618 30.0009 19.3347 29.8805 19.0771 29.6614L17.4214 28.2614C13.5 24.9429 11.4286 20.6043 11.4286 15.7143C11.4286 15.13 11.7843 14.6057 12.3271 14.3871L19.47 11.53C19.81 11.3957 20.19 11.3957 20.53 11.53L27.6729 14.3871C28.2157 14.6057 28.5714 15.13 28.5714 15.7143C28.5714 20.6043 26.5 24.9429 22.58 28.2614Z" fill="#0D90C9"/>
<path d="M22.7497 16.75L19.8647 20.5975L18.3835 19.1163C18.2682 18.9969 18.1302 18.9016 17.9777 18.8361C17.8252 18.7706 17.6612 18.7361 17.4952 18.7347C17.3293 18.7332 17.1647 18.7649 17.011 18.8277C16.8574 18.8906 16.7179 18.9834 16.6005 19.1008C16.4831 19.2181 16.3903 19.3577 16.3275 19.5113C16.2646 19.6649 16.233 19.8295 16.2344 19.9955C16.2359 20.1615 16.2703 20.3255 16.3359 20.478C16.4014 20.6305 16.4966 20.7684 16.616 20.8838L19.116 23.3838C19.2425 23.5106 19.3948 23.6087 19.5626 23.6714C19.7304 23.7341 19.9097 23.7601 20.0884 23.7474C20.2671 23.7347 20.441 23.6837 20.5982 23.5979C20.7555 23.5121 20.8924 23.3934 20.9997 23.25L24.7497 18.25C24.9486 17.9848 25.0341 17.6514 24.9872 17.3232C24.9403 16.995 24.765 16.6989 24.4997 16.5C24.3684 16.4015 24.219 16.3298 24.06 16.2891C23.9009 16.2484 23.7355 16.2393 23.573 16.2626C23.2448 16.3094 22.9486 16.4848 22.7497 16.75Z" fill="#0D90C9"/>
</g>
<defs>
<clipPath id="clip0_1027_3091">
<rect width="40" height="40" fill="white"/>
</clipPath>
</defs>
</svg>
