<svg width="32" height="32" viewBox="0 0 32 32" fill="none" xmlns="http://www.w3.org/2000/svg">
<path d="M5.12559 6.04405C5.14806 6.04189 5.17058 6.04003 5.1931 6.03846C6.28693 5.96683 7.85945 6.01462 8.97869 6.01484L15.9528 6.01534L21.6822 6.01395C22.6564 6.01395 23.6366 6.00385 24.6043 6.03612C25.1155 6.05317 25.807 6.54165 25.875 7.03442C25.974 7.75215 25.9294 8.63119 25.9292 9.36381L25.9269 13.5353C25.9254 14.2632 25.8938 15.1741 25.9327 15.8875C24.3096 15.1445 22.7392 15.02 21.0665 15.7351C19.4167 16.5191 18.1781 18.126 17.9192 19.9443C13.312 19.9189 8.56192 19.8962 3.95898 19.9437C3.99482 18.98 3.9673 17.8263 3.9678 16.8499L3.96764 10.9923C3.96636 9.94071 3.96212 8.88962 3.97086 7.83806C3.97815 6.965 4.20482 6.30333 5.12559 6.04405ZM15.9451 14.7578C16.3981 14.4915 17.9182 13.725 18.0271 13.272C18.0685 13.0994 18.0181 12.8989 17.9161 12.7561C17.7288 12.4937 13.434 9.83121 13.12 9.79097C13.0404 9.78079 12.9572 9.78779 12.8776 9.7947C12.7436 9.88333 12.5335 10.0181 12.5229 10.1926C12.4155 11.9536 12.4962 13.7409 12.4809 15.5071C12.4789 15.7431 12.5292 16.026 12.603 16.2397C13.0843 16.7529 14.2338 15.8305 14.6858 15.5552C15.079 15.3157 15.5734 15.0223 15.9451 14.7578Z" fill="url(#paint0_linear_1027_3517)"/>
<path d="M23.0516 16.1559C25.5949 16.0077 27.7776 17.9478 27.9287 20.491C28.0799 23.0342 26.1423 25.2191 23.5993 25.3732C21.0521 25.5276 18.8628 23.5861 18.7114 21.0388C18.56 18.4914 20.504 16.3043 23.0516 16.1559ZM22.7098 21.387C22.4229 21.167 20.8754 19.4183 20.7288 21.1031C20.7122 21.2945 21.2207 21.7297 21.4002 21.8991C21.7902 22.2366 22.2976 22.8446 22.8092 22.8222C22.8969 22.8183 22.9845 22.8036 23.053 22.7404C23.9295 21.8994 24.7554 21 25.5973 20.124C25.6758 20.0424 25.8447 19.8367 25.8848 19.7403C26.1007 19.2223 25.7601 18.8968 25.25 18.8781C24.7925 19.0803 23.1849 20.8987 22.7098 21.387Z" fill="url(#paint1_linear_1027_3517)"/>
<path d="M4.39789 20.8076L17.8749 20.8062C17.896 21.1582 17.9142 21.4871 17.9768 21.8347C18.0166 22.0558 18.2139 22.5326 18.1237 22.7227C17.9418 22.8871 17.1393 22.8239 16.858 22.8197C16.9624 23.1707 17.1558 24.1622 17.2101 24.5328C17.5609 24.5338 19.0052 24.4641 19.2362 24.7475C19.7717 25.4044 19.1049 25.9791 18.3753 25.8539C18.3374 25.8474 17.9281 25.8528 17.8383 25.8521C16.1032 25.8275 14.3749 25.8919 12.6198 25.8591C11.9781 25.8471 10.4922 25.9644 9.87673 25.7129C9.64112 25.6166 9.55389 25.0001 9.77877 24.8061C10.2528 24.3971 11.3638 24.551 12.008 24.5255C12.1476 24.0483 12.254 23.3426 12.3819 22.8178C10.9796 22.8689 9.49202 22.7945 8.07819 22.823C7.3965 22.8367 5.29174 22.9014 4.78901 22.6569C4.43394 22.486 4.16385 22.1777 4.04104 21.8033C3.94635 21.5109 3.87506 21.1696 4.02009 20.8911C4.17759 20.7805 4.17132 20.8164 4.39789 20.8076Z" fill="url(#paint2_linear_1027_3517)"/>
<defs>
<linearGradient id="paint0_linear_1027_3517" x1="14.9492" y1="5.99902" x2="14.9492" y2="19.9443" gradientUnits="userSpaceOnUse">
<stop stop-color="#21B1F1"/>
<stop offset="1" stop-color="#3890C0"/>
</linearGradient>
<linearGradient id="paint1_linear_1027_3517" x1="23.3201" y1="16.1479" x2="23.3201" y2="25.3818" gradientUnits="userSpaceOnUse">
<stop stop-color="#21B1F1"/>
<stop offset="1" stop-color="#3890C0"/>
</linearGradient>
<linearGradient id="paint2_linear_1027_3517" x1="11.6839" y1="20.8062" x2="11.6839" y2="25.8762" gradientUnits="userSpaceOnUse">
<stop stop-color="#21B1F1"/>
<stop offset="1" stop-color="#3890C0"/>
</linearGradient>
</defs>
</svg>
