<svg width="33" height="32" viewBox="0 0 33 32" fill="none" xmlns="http://www.w3.org/2000/svg">
<path d="M19.1668 2.671C20.0931 2.6623 22.7216 2.57418 23.4949 2.78623C23.944 2.90871 24.3542 3.14556 24.6853 3.47276C25.4704 4.24467 25.4496 4.99457 25.4461 6.00694C25.4436 6.7204 25.4461 7.4413 25.4451 8.15537L25.4431 14.9581C23.837 14.4752 21.7735 14.566 20.2254 15.2208C19.8305 15.3879 19.2619 15.7624 18.8748 15.7735C17.9045 15.8015 16.9126 15.7898 15.9422 15.7892L10.5847 15.7833C10.062 15.7822 8.14896 15.7423 7.72439 15.8409C7.57813 16.019 7.63446 16.8125 7.6404 17.088C10.8651 17.1428 14.2653 17.0891 17.5017 17.0919C16.9139 17.7984 16.5739 18.2571 16.1912 19.0851C15.9833 19.5404 15.7881 19.9979 15.6824 20.4884L10.5506 20.4864C9.73269 20.4864 8.42153 20.4491 7.65212 20.5235C7.62533 20.9288 7.63025 21.3358 7.66677 21.7403C10.1425 21.8146 12.924 21.7542 15.4246 21.756C15.3734 24.7694 16.2997 26.9161 18.6697 28.8185C15.7451 28.8511 12.7848 28.8239 9.8572 28.8263L7.23025 28.8331C6.60304 28.8349 5.9342 28.8526 5.31423 28.7706C4.43863 28.6545 3.44933 27.6556 3.38259 26.7823C3.30074 25.7065 3.33413 24.5694 3.33474 23.4855V17.2403L3.33181 9.2794C3.33145 7.94139 3.30315 6.59457 3.35818 5.25889C3.42191 3.71169 4.64763 2.87701 6.06228 2.69444C6.81428 2.61846 8.94865 2.67672 9.83864 2.67783C9.59761 3.48254 9.4516 5.48759 10.0584 6.14854C10.2029 6.22291 10.5039 6.25588 10.6717 6.25791C12.9727 6.28609 15.2778 6.26616 17.5789 6.27061C17.8686 6.27116 18.9377 6.28474 19.075 6.03428C19.5215 5.2157 19.324 3.54636 19.1668 2.671ZM20.7781 11.3116C20.6218 11.1099 19.1207 11.1758 18.7801 11.1759L15.5398 11.1788L10.5496 11.1798C9.64845 11.1795 8.56034 11.1522 7.67068 11.1974C7.58688 11.4607 7.63942 12.1045 7.66091 12.3946C8.33608 12.4553 9.22757 12.4289 9.92556 12.4288L13.6951 12.4269L17.9607 12.4278C18.858 12.4277 19.876 12.4483 20.7625 12.3829C20.8348 12.0569 20.8493 11.6388 20.7781 11.3116Z" fill="url(#paint0_linear_1027_3376)"/>
<path d="M22.4795 15.9505C24.1555 15.6495 26.143 16.3358 27.4248 17.4163C29.4224 19.1158 30.2296 21.834 29.4824 24.348C29.3053 24.9577 29.0452 25.5182 28.7139 26.0589C28.6753 26.1218 28.6555 26.1426 28.6914 26.2122C28.8408 26.5016 29.203 26.7872 29.4356 27.0228C29.878 27.471 32.3078 29.7622 32.2998 30.1858C32.2944 30.4538 31.8709 30.8349 31.6914 31.014C31.4973 31.2078 30.9365 31.8634 30.666 31.848C30.1827 31.8193 28.9424 30.3419 28.5596 29.9437C27.9225 29.3056 27.2931 28.6597 26.6719 28.0062C25.6751 28.5481 25.0051 28.8341 23.8799 28.9788C20.2473 29.446 17.0426 26.7164 16.6563 23.1009C16.2827 19.6032 18.9294 16.2845 22.4795 15.9505ZM23.0625 18.305C20.7633 18.391 18.9702 20.3272 19.0615 22.6263C19.153 24.9255 21.0945 26.7136 23.3936 26.6165C25.6845 26.5198 27.4649 24.5873 27.374 22.2962C27.2829 20.0049 25.3541 18.2195 23.0625 18.305Z" fill="url(#paint1_linear_1027_3376)"/>
<path d="M14.2433 0.0609695C16.3897 -0.266924 18.5204 1.82548 18.5325 3.90535C18.5344 4.23213 18.6029 5.01134 18.4165 5.27358C18.1324 5.41461 15.3757 5.35644 14.8502 5.35467C13.9295 5.35715 11.3933 5.42098 10.5696 5.29725C10.5596 5.25147 10.5507 5.20554 10.5431 5.15936C10.1237 2.63151 11.7267 0.461048 14.2433 0.0609695Z" fill="url(#paint2_linear_1027_3376)"/>
<defs>
<linearGradient id="paint0_linear_1027_3376" x1="14.3855" y1="2.64551" x2="14.3855" y2="28.8359" gradientUnits="userSpaceOnUse">
<stop stop-color="#21B1F1"/>
<stop offset="1" stop-color="#3890C0"/>
</linearGradient>
<linearGradient id="paint1_linear_1027_3376" x1="24.4605" y1="15.8794" x2="24.4605" y2="31.8482" gradientUnits="userSpaceOnUse">
<stop stop-color="#21B1F1"/>
<stop offset="1" stop-color="#3890C0"/>
</linearGradient>
<linearGradient id="paint2_linear_1027_3376" x1="14.5115" y1="0.0268555" x2="14.5115" y2="5.37332" gradientUnits="userSpaceOnUse">
<stop stop-color="#21B1F1"/>
<stop offset="1" stop-color="#3890C0"/>
</linearGradient>
</defs>
</svg>
