<svg width="20" height="20" viewBox="0 0 20 20" fill="none" xmlns="http://www.w3.org/2000/svg">
<path fill-rule="evenodd" clip-rule="evenodd" d="M4.24321 0C3.11812 -8.2961e-08 2.03909 0.446827 1.24338 1.24223C0.447673 2.03763 0.000432061 3.11649 0 4.24158V15.5568C0 16.6822 0.447051 17.7614 1.24281 18.5572C2.03856 19.3529 3.11784 19.8 4.24321 19.8H15.5584C16.6835 19.7996 17.7624 19.3523 18.5578 18.5566C19.3532 17.7609 19.8 16.6819 19.8 15.5568V4.24158C19.7996 3.11677 19.3525 2.03816 18.5572 1.24281C17.7618 0.44745 16.6832 0.000431869 15.5584 0H4.24321ZM16.7789 4.2481C16.7789 4.57222 16.6502 4.88307 16.421 5.11227C16.1918 5.34146 15.8809 5.47022 15.5568 5.47022C15.2327 5.47022 14.9218 5.34146 14.6926 5.11227C14.4634 4.88307 14.3347 4.57222 14.3347 4.2481C14.3347 3.92397 14.4634 3.61312 14.6926 3.38392C14.9218 3.15473 15.2327 3.02597 15.5568 3.02597C15.8809 3.02597 16.1918 3.15473 16.421 3.38392C16.6502 3.61312 16.7789 3.92397 16.7789 4.2481ZM9.90244 6.50983C9.00353 6.50983 8.14144 6.86693 7.50581 7.50255C6.87019 8.13818 6.51309 9.00027 6.51309 9.89919C6.51309 10.7981 6.87019 11.6602 7.50581 12.2958C8.14144 12.9314 9.00353 13.2885 9.90244 13.2885C10.8014 13.2885 11.6635 12.9314 12.2991 12.2958C12.9347 11.6602 13.2918 10.7981 13.2918 9.89919C13.2918 9.00027 12.9347 8.13818 12.2991 7.50255C11.6635 6.86693 10.8014 6.50983 9.90244 6.50983ZM4.88197 9.89919C4.88197 8.5681 5.41074 7.29154 6.35195 6.35033C7.29317 5.40911 8.56973 4.88034 9.90082 4.88034C11.2319 4.88034 12.5085 5.40911 13.4497 6.35033C14.3909 7.29154 14.9197 8.5681 14.9197 9.89919C14.9197 11.2303 14.3909 12.5068 13.4497 13.448C12.5085 14.3893 11.2319 14.918 9.90082 14.918C8.56973 14.918 7.29317 14.3893 6.35195 13.448C5.41074 12.5068 4.88197 11.2303 4.88197 9.89919Z" fill="url(#paint0_linear_307_855)"/>
<defs>
<linearGradient id="paint0_linear_307_855" x1="9.98609" y1="-4.09655" x2="9.98607" y2="30.0414" gradientUnits="userSpaceOnUse">
<stop stop-color="#21B1F1"/>
<stop offset="1" stop-color="#C5EB4C"/>
</linearGradient>
</defs>
</svg>
