<svg preserveAspectRatio="none" width="100%" height="100%" overflow="visible" style="display: block;" viewBox="0 0 706 520" fill="none" xmlns="http://www.w3.org/2000/svg">
<path id="Abstract Grid" d="M41.9706 0.5H0.5V43.75M41.9706 0.5V43.75M41.9706 0.5H83.4412M41.9706 43.75H0.5M41.9706 43.75H83.4412M41.9706 43.75V87M0.5 43.75V87M83.4412 0.5V43.75M83.4412 0.5H124.912M83.4412 43.75H124.912M83.4412 43.75V87M124.912 0.5V43.75M124.912 0.5H166.382M124.912 43.75H166.382M124.912 43.75V87M166.382 0.5V43.75M166.382 0.5H207.853M166.382 43.75H207.853M166.382 43.75V87M207.853 0.5V43.75M207.853 0.5H249.324M207.853 43.75H249.324M207.853 43.75V87M249.324 0.5V43.75M249.324 0.5H290.794M249.324 43.75H290.794M249.324 43.75V87M290.794 0.5V43.75M290.794 0.5H332.265M290.794 43.75H332.265M290.794 43.75V87M332.265 0.5V43.75M332.265 0.5H373.735M332.265 43.75H373.735M332.265 43.75V87M373.735 0.5V43.75M373.735 0.5H415.206M373.735 43.75H415.206M373.735 43.75V87M415.206 0.5V43.75M415.206 0.5H456.676M415.206 43.75H456.676M415.206 43.75V87M456.676 0.5V43.75M456.676 0.5H498.147M456.676 43.75H498.147M456.676 43.75V87M498.147 0.5V43.75M498.147 0.5H539.618M498.147 43.75H539.618M498.147 43.75V87M539.618 0.5V43.75M539.618 0.5H581.088M539.618 43.75H581.088M539.618 43.75V87M581.088 0.5V43.75M581.088 0.5H622.559M581.088 43.75H622.559M581.088 43.75V87M622.559 0.5V43.75M622.559 0.5H664.029M622.559 43.75H664.029M622.559 43.75V87M664.029 0.5V43.75M664.029 0.5H705.5V43.75M664.029 43.75H705.5M664.029 43.75V87M705.5 43.75V87M41.9706 87H0.5M41.9706 87H83.4412M41.9706 87V130.25M0.5 87V130.25M83.4412 87H124.912M83.4412 87V130.25M124.912 87H166.382M124.912 87V130.25M166.382 87H207.853M166.382 87V130.25M207.853 87H249.324M207.853 87V130.25M249.324 87H290.794M249.324 87V130.25M290.794 87H332.265M290.794 87V130.25M332.265 87H373.735M332.265 87V130.25M373.735 87H415.206M373.735 87V130.25M415.206 87H456.676M415.206 87V130.25M456.676 87H498.147M456.676 87V130.25M498.147 87H539.618M498.147 87V130.25M539.618 87H581.088M539.618 87V130.25M581.088 87H622.559M581.088 87V130.25M622.559 87H664.029M622.559 87V130.25M664.029 87H705.5M664.029 87V130.25M705.5 87V130.25M41.9706 130.25H0.5M41.9706 130.25H83.4412M41.9706 130.25V173.5M0.5 130.25V173.5M83.4412 130.25H124.912M83.4412 130.25V173.5M124.912 130.25H166.382M124.912 130.25V173.5M166.382 130.25H207.853M166.382 130.25V173.5M207.853 130.25H249.324M207.853 130.25V173.5M249.324 130.25H290.794M249.324 130.25V173.5M290.794 130.25H332.265M290.794 130.25V173.5M332.265 130.25H373.735M332.265 130.25V173.5M373.735 130.25H415.206M373.735 130.25V173.5M415.206 130.25H456.676M415.206 130.25V173.5M456.676 130.25H498.147M456.676 130.25V173.5M498.147 130.25H539.618M498.147 130.25V173.5M539.618 130.25H581.088M539.618 130.25V173.5M581.088 130.25H622.559M581.088 130.25V173.5M622.559 130.25H664.029M622.559 130.25V173.5M664.029 130.25H705.5M664.029 130.25V173.5M705.5 130.25V173.5M41.9706 173.5H0.5M41.9706 173.5H83.4412M41.9706 173.5V216.75M0.5 173.5V216.75M83.4412 173.5H124.912M83.4412 173.5V216.75M124.912 173.5H166.382M124.912 173.5V216.75M166.382 173.5H207.853M166.382 173.5V216.75M207.853 173.5H249.324M207.853 173.5V216.75M249.324 173.5H290.794M249.324 173.5V216.75M290.794 173.5H332.265M290.794 173.5V216.75M332.265 173.5H373.735M332.265 173.5V216.75M373.735 173.5H415.206M373.735 173.5V216.75M415.206 173.5H456.676M415.206 173.5V216.75M456.676 173.5H498.147M456.676 173.5V216.75M498.147 173.5H539.618M498.147 173.5V216.75M539.618 173.5H581.088M539.618 173.5V216.75M581.088 173.5H622.559M581.088 173.5V216.75M622.559 173.5H664.029M622.559 173.5V216.75M664.029 173.5H705.5M664.029 173.5V216.75M705.5 173.5V216.75M41.9706 216.75H0.5M41.9706 216.75H83.4412M41.9706 216.75V260M0.5 216.75V260M83.4412 216.75H124.912M83.4412 216.75V260M124.912 216.75H166.382M124.912 216.75V260M166.382 216.75H207.853M166.382 216.75V260M207.853 216.75H249.324M207.853 216.75V260M249.324 216.75H290.794M249.324 216.75V260M290.794 216.75H332.265M290.794 216.75V260M332.265 216.75H373.735M332.265 216.75V260M373.735 216.75H415.206M373.735 216.75V260M415.206 216.75H456.676M415.206 216.75V260M456.676 216.75H498.147M456.676 216.75V260M498.147 216.75H539.618M498.147 216.75V260M539.618 216.75H581.088M539.618 216.75V260M581.088 216.75H622.559M581.088 216.75V260M622.559 216.75H664.029M622.559 216.75V260M664.029 216.75H705.5M664.029 216.75V260M705.5 216.75V260M41.9706 260H0.5M41.9706 260H83.4412M41.9706 260V303.25M0.5 260V303.25M83.4412 260H124.912M83.4412 260V303.25M124.912 260H166.382M124.912 260V303.25M166.382 260H207.853M166.382 260V303.25M207.853 260H249.324M207.853 260V303.25M249.324 260H290.794M249.324 260V303.25M290.794 260H332.265M290.794 260V303.25M332.265 260H373.735M332.265 260V303.25M373.735 260H415.206M373.735 260V303.25M415.206 260H456.676M415.206 260V303.25M456.676 260H498.147M456.676 260V303.25M498.147 260H539.618M498.147 260V303.25M539.618 260H581.088M539.618 260V303.25M581.088 260H622.559M581.088 260V303.25M622.559 260H664.029M622.559 260V303.25M664.029 260H705.5M664.029 260V303.25M705.5 260V303.25M41.9706 303.25H0.5M41.9706 303.25H83.4412M41.9706 303.25V346.5M0.5 303.25V346.5M83.4412 303.25H124.912M83.4412 303.25V346.5M124.912 303.25H166.382M124.912 303.25V346.5M166.382 303.25H207.853M166.382 303.25V346.5M207.853 303.25H249.324M207.853 303.25V346.5M249.324 303.25H290.794M249.324 303.25V346.5M290.794 303.25H332.265M290.794 303.25V346.5M332.265 303.25H373.735M332.265 303.25V346.5M373.735 303.25H415.206M373.735 303.25V346.5M415.206 303.25H456.676M415.206 303.25V346.5M456.676 303.25H498.147M456.676 303.25V346.5M498.147 303.25H539.618M498.147 303.25V346.5M539.618 303.25H581.088M539.618 303.25V346.5M581.088 303.25H622.559M581.088 303.25V346.5M622.559 303.25H664.029M622.559 303.25V346.5M664.029 303.25H705.5M664.029 303.25V346.5M705.5 303.25V346.5M41.9706 346.5H0.5M41.9706 346.5H83.4412M41.9706 346.5V389.75M0.5 346.5V389.75M83.4412 346.5H124.912M83.4412 346.5V389.75M124.912 346.5H166.382M124.912 346.5V389.75M166.382 346.5H207.853M166.382 346.5V389.75M207.853 346.5H249.324M207.853 346.5V389.75M249.324 346.5H290.794M249.324 346.5V389.75M290.794 346.5H332.265M290.794 346.5V389.75M332.265 346.5H373.735M332.265 346.5V389.75M373.735 346.5H415.206M373.735 346.5V389.75M415.206 346.5H456.676M415.206 346.5V389.75M456.676 346.5H498.147M456.676 346.5V389.75M498.147 346.5H539.618M498.147 346.5V389.75M539.618 346.5H581.088M539.618 346.5V389.75M581.088 346.5H622.559M581.088 346.5V389.75M622.559 346.5H664.029M622.559 346.5V389.75M664.029 346.5H705.5M664.029 346.5V389.75M705.5 346.5V389.75M41.9706 389.75H0.5M41.9706 389.75H83.4412M41.9706 389.75V433M0.5 389.75V433M83.4412 389.75H124.912M83.4412 389.75V433M124.912 389.75H166.382M124.912 389.75V433M166.382 389.75H207.853M166.382 389.75V433M207.853 389.75H249.324M207.853 389.75V433M249.324 389.75H290.794M249.324 389.75V433M290.794 389.75H332.265M290.794 389.75V433M332.265 389.75H373.735M332.265 389.75V433M373.735 389.75H415.206M373.735 389.75V433M415.206 389.75H456.676M415.206 389.75V433M456.676 389.75H498.147M456.676 389.75V433M498.147 389.75H539.618M498.147 389.75V433M539.618 389.75H581.088M539.618 389.75V433M581.088 389.75H622.559M581.088 389.75V433M622.559 389.75H664.029M622.559 389.75V433M664.029 389.75H705.5M664.029 389.75V433M705.5 389.75V433M41.9706 433H0.5M41.9706 433H83.4412M41.9706 433V476.25M0.5 433V476.25M83.4412 433H124.912M83.4412 433V476.25M124.912 433H166.382M124.912 433V476.25M166.382 433H207.853M166.382 433V476.25M207.853 433H249.324M207.853 433V476.25M249.324 433H290.794M249.324 433V476.25M290.794 433H332.265M290.794 433V476.25M332.265 433H373.735M332.265 433V476.25M373.735 433H415.206M373.735 433V476.25M415.206 433H456.676M415.206 433V476.25M456.676 433H498.147M456.676 433V476.25M498.147 433H539.618M498.147 433V476.25M539.618 433H581.088M539.618 433V476.25M581.088 433H622.559M581.088 433V476.25M622.559 433H664.029M622.559 433V476.25M664.029 433H705.5M664.029 433V476.25M705.5 433V476.25M41.9706 476.25H0.5M41.9706 476.25H83.4412M41.9706 476.25V519.5M0.5 476.25V519.5H41.9706M83.4412 476.25H124.912M83.4412 476.25V519.5M124.912 476.25H166.382M124.912 476.25V519.5M166.382 476.25H207.853M166.382 476.25V519.5M207.853 476.25H249.324M207.853 476.25V519.5M249.324 476.25H290.794M249.324 476.25V519.5M290.794 476.25H332.265M290.794 476.25V519.5M332.265 476.25H373.735M332.265 476.25V519.5M373.735 476.25H415.206M373.735 476.25V519.5M415.206 476.25H456.676M415.206 476.25V519.5M456.676 476.25H498.147M456.676 476.25V519.5M498.147 476.25H539.618M498.147 476.25V519.5M539.618 476.25H581.088M539.618 476.25V519.5M581.088 476.25H622.559M581.088 476.25V519.5M622.559 476.25H664.029M622.559 476.25V519.5M664.029 476.25H705.5M664.029 476.25V519.5M705.5 476.25V519.5H664.029M41.9706 519.5H83.4412M83.4412 519.5H124.912M124.912 519.5H166.382M166.382 519.5H207.853M207.853 519.5H249.324M249.324 519.5H290.794M290.794 519.5H332.265M332.265 519.5H373.735M373.735 519.5H415.206M415.206 519.5H456.676M456.676 519.5H498.147M498.147 519.5H539.618M539.618 519.5H581.088M581.088 519.5H622.559M622.559 519.5H664.029" stroke="url(#paint0_radial_0_190)"/>
<defs>
<radialGradient id="paint0_radial_0_190" cx="0" cy="0" r="1" gradientTransform="matrix(26.974 267.534 -385.423 39.2503 326.026 251.411)" gradientUnits="userSpaceOnUse">
<stop stop-color="#B5D3FD"/>
<stop offset="0.883515" stop-color="#B5D3FD" stop-opacity="0"/>
</radialGradient>
</defs>
</svg>
