<svg preserveAspectRatio="none" width="100%" height="100%" overflow="visible" style="display: block;" viewBox="0 0 35.3613 36" fill="none" xmlns="http://www.w3.org/2000/svg">
<g id="Group 1321317049">
<path id="Vector" d="M15.3008 0.0292268L15.3361 0.0271394C15.9418 -0.00524069 19.9476 -0.0313034 20.2672 0.0890503C21.2958 0.476342 20.6725 2.81273 21.4174 3.44809C21.691 3.68155 22.8282 3.94217 23.2536 4.12117C23.6228 4.27765 23.9866 4.44658 24.3443 4.62768C24.6376 4.77796 24.9296 4.94311 25.2235 5.09133C26.3345 5.65005 27.7544 2.79417 28.864 3.99427C29.7634 4.96725 31.2203 6.29125 32.0075 7.31069C32.6455 8.13698 30.4807 9.62548 30.5603 10.4565C30.6034 10.9088 31.161 11.6872 31.2992 12.1584C31.5531 12.6933 31.6885 13.5302 31.9875 14.015C32.6111 15.0292 35.3651 14.0491 35.3439 15.6045C35.3256 16.9332 35.417 19.0578 35.3025 20.3417C35.2275 21.1842 33.0257 20.9439 32.4811 21.2948C32.2111 21.4688 32.1731 21.4838 31.928 21.7754C30.8065 21.1978 30.1298 20.9998 28.9043 20.7893C29.5104 18.1623 29.4992 15.9455 28.4979 13.3939C27.3561 10.5462 25.1318 8.26734 22.3126 7.0567C19.5172 5.8502 16.3539 5.81788 13.5343 6.96695C10.6101 8.14891 8.27673 10.4463 7.04955 13.3518C5.8254 16.2135 5.78986 19.4445 6.95081 22.3325C8.11243 25.3561 10.6566 27.8523 13.6658 29.0113C15.6252 29.7658 17.5267 29.9223 19.5877 29.6321C19.731 31.2421 20.0136 31.9382 20.7348 33.3558C20.7788 33.4424 20.8338 33.5397 20.8465 33.6367C20.8758 33.8604 20.7407 34.7091 20.6612 34.9373C20.587 35.1508 20.4533 35.3285 20.2463 35.4272C20.125 35.4851 19.9905 35.5119 19.8573 35.5226C19.2094 35.5742 18.5246 35.5282 17.8719 35.5279C17.0804 35.5279 16.2757 35.5663 15.4862 35.5274C15.3526 35.5206 15.2115 35.5059 15.0854 35.4602C14.8918 35.3897 14.7428 35.2504 14.651 35.0671C14.3535 34.473 14.4607 33.3569 14.1638 32.7246C14.067 32.5184 13.9072 32.3379 13.7078 32.2262C13.2308 31.9588 12.541 31.8237 12.0142 31.5975C11.6879 31.4576 11.3609 31.3118 11.0462 31.1467C10.7713 31.0029 10.4973 30.8207 10.2051 30.7158C10.0816 30.6715 9.96842 30.6461 9.83822 30.6726C9.22416 30.7973 8.41257 31.7213 7.77924 32.0019C7.54304 32.1066 7.28767 32.1173 7.04696 32.0203C6.92139 31.9698 6.81209 31.8948 6.71004 31.8068C6.22809 31.391 5.78966 30.8901 5.34004 30.4377C4.80957 29.9043 4.23615 29.3828 3.7408 28.8175C3.64073 28.7033 3.53868 28.5716 3.48131 28.4308C3.14389 27.6016 4.44482 26.6068 4.74806 25.8743C4.81744 25.7064 4.8254 25.5462 4.77654 25.3716C4.65785 24.9477 4.22371 24.253 4.02545 23.7952C3.7894 23.25 3.64256 22.6732 3.41745 22.1257C2.93722 20.9577 1.4188 21.4465 0.523549 21.0486C0.321935 20.9589 0.157609 20.7964 0.0833714 20.586C-0.0217794 20.2884 -0.0189589 16.02 0.0447014 15.4452C0.0565195 15.345 0.0857692 15.2477 0.131067 15.1575C0.215431 14.9919 0.379334 14.8482 0.550655 14.7845C1.13028 14.5692 2.36118 14.5852 2.89587 14.4018C3.11847 14.3237 3.30632 14.1695 3.42631 13.9664C3.48802 13.8615 3.65963 13.2624 3.71014 13.1026C3.81377 12.7785 3.92735 12.4577 4.05067 12.1406C4.24309 11.6443 4.54277 11.1237 4.75231 10.6872C5.20518 9.74397 2.78875 8.2034 3.42481 7.21572C3.90366 6.61889 4.62054 5.85175 5.1915 5.35327C6.08641 4.57198 6.87214 2.97336 8.13866 4.11327C8.51961 4.45614 9.09241 4.81175 9.51341 5.09122C9.94591 5.37827 10.4217 4.99258 10.7981 4.78736C11.0416 4.65758 11.2889 4.53503 11.5396 4.41984C12.321 4.05807 12.8337 3.91622 13.6135 3.63795C13.8592 3.55262 14.0634 3.37721 14.1847 3.14714C14.3864 2.76205 14.427 1.68047 14.513 1.19835C14.6211 0.592381 14.607 0.240346 15.3008 0.0292268Z" fill="url(#paint0_linear_0_3397)"/>
<path id="Vector_2" d="M17.3824 8.23591C17.6747 8.20824 18.0321 8.20457 18.3209 8.25655C18.9544 8.36562 19.5177 8.7237 19.8855 9.25086C20.2807 9.82434 20.396 10.6345 20.0728 11.2687C19.9566 11.5063 19.727 11.7536 19.6886 12.0208C19.6421 12.3444 19.8869 12.476 20.1709 12.4994C20.5142 12.5278 20.8544 12.5168 21.1962 12.5163L23.1232 12.5136C23.7373 12.5127 24.4929 12.4534 24.8649 13.0673C24.9679 13.2381 25.0353 13.4278 25.0632 13.6252C25.1114 13.9838 25.1281 17.1139 25.0429 17.4134C25.0065 17.5412 24.9408 17.6672 24.8178 17.7294C24.428 17.9264 23.9406 17.4649 23.5841 17.3382C23.1368 17.1791 22.644 17.2108 22.2206 17.4257C21.7572 17.6555 21.3655 18.114 21.203 18.6034C21.0194 19.145 21.0645 19.7378 21.3274 20.2455C21.5677 20.7228 21.9902 21.083 22.4993 21.2446C23.1926 21.4609 23.6749 21.2364 24.2489 20.868C24.5135 20.6478 25.1571 20.8841 25.0463 21.2505C25.0407 21.27 24.0879 21.7111 23.9841 21.7653C23.7533 21.8849 23.5297 22.0174 23.3139 22.1621C21.8362 23.1547 21.0103 24.3224 20.255 25.8853C19.474 25.9016 18.638 25.887 17.8524 25.8853L13.5914 25.885C13.1157 25.885 11.9678 25.9177 11.5624 25.876C11.3594 25.8559 11.1631 25.7925 10.9868 25.6898C10.2947 25.2839 10.4664 24.3766 10.4511 23.6917C10.4543 22.9132 10.4449 22.1348 10.4609 21.3563C10.467 21.0604 10.6175 20.8082 10.9334 20.7817C11.253 20.747 11.4479 21.0209 11.6912 21.1636C12.6212 21.7094 13.7474 21.3286 14.3089 20.4768C14.6266 19.9909 14.7354 19.3971 14.6108 18.8299C14.4841 18.2661 14.1416 17.7741 13.6566 17.4596C13.1146 17.1132 12.3754 17.0542 11.7922 17.3559C11.572 17.4755 11.3392 17.7417 11.0894 17.7834C10.7502 17.84 10.4966 17.6297 10.471 17.2877C10.4328 16.778 10.4542 16.2606 10.4565 15.7485C10.4886 15.0499 10.3959 14.3052 10.4803 13.6115C10.6163 12.4926 11.6254 12.5091 12.4416 12.5103L14.4119 12.5181C14.7423 12.5196 15.1138 12.5331 15.441 12.5037C15.5871 12.4905 15.807 12.4026 15.8875 12.2693C16.0801 11.95 15.7654 11.7153 15.6355 11.4613C15.5307 11.2564 15.4487 11.0216 15.4095 10.8014C15.3086 10.2468 15.4365 9.67513 15.7639 9.21642C16.1504 8.66531 16.7291 8.35251 17.3824 8.23591Z" fill="url(#paint1_linear_0_3397)"/>
<path id="Vector_3" d="M27.2754 22.3223C31.0496 21.9638 34.3979 24.7373 34.7482 28.5123C35.0985 32.2871 32.3177 35.6295 28.5421 35.9716C24.7781 36.3126 21.4481 33.5422 21.0989 29.7788C20.7497 26.0156 23.5128 22.6797 27.2754 22.3223ZM26.7085 30.0289C26.3663 29.6958 26.0287 29.3585 25.6953 29.0169C25.3969 28.716 25.0638 28.2743 24.6077 28.2782C24.3849 28.281 24.1722 28.3724 24.0171 28.5323C23.862 28.6903 23.7776 28.9044 23.783 29.1255C23.796 29.642 24.3646 30.0405 24.7197 30.4128C24.9417 30.6373 25.1696 30.8819 25.4011 31.1005C25.7503 31.4305 26.181 32.029 26.6997 32.0338C27.149 32.038 27.4965 31.5836 27.7919 31.2858L28.9587 30.1059L30.7667 28.2839C31.1055 27.944 31.449 27.6047 31.779 27.256C31.9544 27.0707 32.0613 26.884 32.0489 26.6163C32.0365 26.3932 31.9344 26.1842 31.766 26.037C31.563 25.857 31.3508 25.7992 31.086 25.8319C30.9926 25.8632 30.8279 25.9163 30.7577 25.9811C29.3595 27.2724 28.0685 28.6957 26.7085 30.0289Z" fill="url(#paint2_linear_0_3397)"/>
</g>
<defs>
<linearGradient id="paint0_linear_0_3397" x1="17.6806" y1="0" x2="17.6806" y2="35.5471" gradientUnits="userSpaceOnUse">
<stop stop-color="#0A4B6E"/>
<stop offset="1" stop-color="#1391D4"/>
</linearGradient>
<linearGradient id="paint1_linear_0_3397" x1="17.7729" y1="8.21602" x2="17.7729" y2="25.8972" gradientUnits="userSpaceOnUse">
<stop stop-color="#0A4B6E"/>
<stop offset="1" stop-color="#1391D4"/>
</linearGradient>
<linearGradient id="paint2_linear_0_3397" x1="27.9236" y1="22.2911" x2="27.9236" y2="36" gradientUnits="userSpaceOnUse">
<stop stop-color="#0A4B6E"/>
<stop offset="1" stop-color="#1391D4"/>
</linearGradient>
</defs>
</svg>
