<svg preserveAspectRatio="none" width="100%" height="100%" overflow="visible" style="display: block;" viewBox="0 0 36 36" fill="none" xmlns="http://www.w3.org/2000/svg">
<g id="Group">
<path id="Vector" d="M14.9238 18.2812C14.9238 19.0579 15.5534 19.6875 16.3301 19.6875H19.6699C20.4466 19.6875 21.0762 19.0579 21.0762 18.2812V17.5781H14.9238V18.2812ZM29.25 5.97656C28.6675 5.97656 28.1953 6.44878 28.1953 7.03125C28.1953 7.61372 28.6675 8.08594 29.25 8.08594H31.3594C31.9418 8.08594 32.4141 7.61372 32.4141 7.03125C32.4141 6.44878 31.9418 5.97656 31.3594 5.97656H29.25ZM27.6335 2.98828C27.9248 3.4927 28.5698 3.66553 29.0742 3.3743L30.901 2.31961C31.4054 2.02838 31.5783 1.38333 31.287 0.878906C30.9958 0.374484 30.3507 0.201656 29.8463 0.492891L28.0195 1.54758C27.5151 1.83881 27.3423 2.48386 27.6335 2.98828ZM28.0195 12.5149L29.8463 13.5696C30.3507 13.8608 30.9958 13.688 31.287 13.1836C31.5783 12.6792 31.4054 12.0341 30.901 11.7429L29.0742 10.6882C28.5698 10.397 27.9248 10.5698 27.6335 11.0742C27.3423 11.5786 27.5151 12.2237 28.0195 12.5149ZM4.64062 8.08594H6.75C7.33247 8.08594 7.80469 7.61372 7.80469 7.03125C7.80469 6.44878 7.33247 5.97656 6.75 5.97656H4.64062C4.05816 5.97656 3.58594 6.44878 3.58594 7.03125C3.58594 7.61372 4.05816 8.08594 4.64062 8.08594ZM5.09899 2.31961L6.92578 3.3743C7.4302 3.66553 8.07525 3.4927 8.36648 2.98828C8.65772 2.48386 8.48489 1.83881 7.98047 1.54758L6.15368 0.492891C5.64926 0.201656 5.00421 0.374484 4.71298 0.878906C4.42174 1.38333 4.59457 2.02838 5.09899 2.31961ZM6.92578 10.6882L5.09899 11.7429C4.59457 12.0341 4.42174 12.6792 4.71298 13.1836C5.00421 13.688 5.64926 13.8608 6.15368 13.5696L7.98047 12.5149C8.48489 12.2237 8.65772 11.5786 8.36648 11.0742C8.07525 10.5698 7.4302 10.397 6.92578 10.6882ZM13.528 12.4512C14.3807 13.1543 14.9238 14.1621 14.9238 15.2672V15.4688H16.9453V8.87435L15.1449 7.07393C14.733 6.66204 14.733 5.99428 15.1449 5.58239C15.5567 5.1705 16.2245 5.1705 16.6364 5.58239L18 6.94596L19.3636 5.58239C19.7755 5.1705 20.4433 5.1705 20.8552 5.58239C21.2671 5.99428 21.2671 6.66204 20.8552 7.07393L19.0547 8.87435V15.4688H21.0762V15.2672C21.0762 14.162 21.6193 13.1542 22.472 12.4511C24.0345 11.163 25.0312 9.2148 25.0312 7.03125C25.0312 3.14803 21.8832 0 18 0C14.1168 0 10.9688 3.14803 10.9688 7.03125C10.9688 9.2148 11.9655 11.163 13.528 12.4512Z" fill="url(#paint0_linear_0_1698)"/>
<path id="Vector_2" d="M29.3203 26.0156C31.0678 26.0156 32.4844 24.599 32.4844 22.8516C32.4844 21.1041 31.0678 19.6875 29.3203 19.6875C27.5728 19.6875 26.1562 21.1041 26.1562 22.8516C26.1562 24.599 27.5728 26.0156 29.3203 26.0156Z" fill="url(#paint1_linear_0_1698)"/>
<path id="Vector_3" d="M6.67969 26.0156C8.42715 26.0156 9.84375 24.599 9.84375 22.8516C9.84375 21.1041 8.42715 19.6875 6.67969 19.6875C4.93222 19.6875 3.51562 21.1041 3.51562 22.8516C3.51562 24.599 4.93222 26.0156 6.67969 26.0156Z" fill="url(#paint2_linear_0_1698)"/>
<path id="Vector_4" d="M32.1843 27.276C31.3589 27.8122 30.3757 28.125 29.3203 28.125C28.1358 28.125 27.0413 27.7322 26.1599 27.0703H23.7656C23.6351 27.0703 23.5099 27.0185 23.4176 26.9262C23.3253 26.8339 23.2734 26.7087 23.2734 26.5781V24.2578C23.2734 22.8987 22.1716 21.7969 20.8125 21.7969H19.0547V26.6484C19.0547 29.2114 21.1324 31.2891 23.6953 31.2891V34.9453C23.6953 35.5278 24.1675 36 24.75 36H34.9453C35.5278 36 36 35.5278 36 34.9453V32.3438C36 29.9372 34.3874 27.9086 32.1843 27.276ZM12.7266 24.2578V26.5781C12.7266 26.7087 12.6747 26.8339 12.5824 26.9262C12.4901 27.0185 12.3649 27.0703 12.2344 27.0703H9.84009C8.95873 27.7322 7.86431 28.125 6.67969 28.125C5.6243 28.125 4.64112 27.8122 3.81572 27.276C1.61262 27.9086 0 29.9372 0 32.3438V34.9453C0 35.5278 0.472219 36 1.05469 36H11.25C11.8325 36 12.3047 35.5278 12.3047 34.9453V31.2891C14.8676 31.2891 16.9453 29.2114 16.9453 26.6484V21.7969H15.1875C13.8284 21.7969 12.7266 22.8987 12.7266 24.2578Z" fill="url(#paint3_linear_0_1698)"/>
</g>
<defs>
<linearGradient id="paint0_linear_0_1698" x1="18" y1="0" x2="18" y2="19.6875" gradientUnits="userSpaceOnUse">
<stop stop-color="#0A4B6E"/>
<stop offset="1" stop-color="#1391D4"/>
</linearGradient>
<linearGradient id="paint1_linear_0_1698" x1="29.3203" y1="19.6875" x2="29.3203" y2="26.0156" gradientUnits="userSpaceOnUse">
<stop stop-color="#0A4B6E"/>
<stop offset="1" stop-color="#1391D4"/>
</linearGradient>
<linearGradient id="paint2_linear_0_1698" x1="6.67969" y1="19.6875" x2="6.67969" y2="26.0156" gradientUnits="userSpaceOnUse">
<stop stop-color="#0A4B6E"/>
<stop offset="1" stop-color="#1391D4"/>
</linearGradient>
<linearGradient id="paint3_linear_0_1698" x1="18" y1="21.7969" x2="18" y2="36" gradientUnits="userSpaceOnUse">
<stop stop-color="#0A4B6E"/>
<stop offset="1" stop-color="#1391D4"/>
</linearGradient>
</defs>
</svg>
