<svg preserveAspectRatio="none" width="100%" height="100%" overflow="visible" style="display: block;" viewBox="0 0 28.0358 27.9949" fill="none" xmlns="http://www.w3.org/2000/svg">
<g id="Group">
<path id="Vector" d="M28.0358 13.9974C27.9307 17.3067 23.1346 17.3017 23.0294 13.9974C23.0322 13.4714 23.2006 12.9595 23.5106 12.5345C23.8206 12.1094 24.2566 11.7928 24.7566 11.6294C24.5955 10.8391 24.34 10.0709 23.9957 9.34149C23.968 9.28167 23.9525 9.21699 23.9499 9.15114C23.9473 9.0853 23.9576 9.01959 23.9804 8.95776C24.0032 8.89593 24.0379 8.83919 24.0826 8.79079C24.1273 8.74238 24.1811 8.70326 24.241 8.67564C24.3008 8.64803 24.3655 8.63247 24.4313 8.62986C24.4972 8.62724 24.5629 8.63762 24.6247 8.6604C24.6865 8.68318 24.7433 8.71791 24.7917 8.76262C24.8401 8.80732 24.8792 8.86113 24.9068 8.92096C25.2955 9.74906 25.5814 10.6217 25.7579 11.5193C26.3782 11.5741 26.9556 11.8586 27.377 12.317C27.7984 12.7754 28.0334 13.3748 28.0358 13.9974ZM7.64477 7.6243C7.2725 7.9982 6.79061 8.24353 6.26925 8.32457C5.74788 8.40561 5.21426 8.31813 4.74606 8.07488C4.30899 8.74627 3.94957 9.46512 3.67469 10.2176C3.653 10.2794 3.61934 10.3363 3.57565 10.3851C3.53195 10.4339 3.47908 10.4736 3.42004 10.502C3.361 10.5303 3.29695 10.5468 3.23155 10.5504C3.16615 10.554 3.10068 10.5447 3.03888 10.523C2.97708 10.5013 2.92016 10.4677 2.87137 10.424C2.82257 10.3803 2.78286 10.3274 2.75451 10.2683C2.69723 10.1491 2.68968 10.012 2.73349 9.88719C3.04185 9.0277 3.45374 8.20897 3.96006 7.44908C3.65047 7.07621 3.456 6.62136 3.40033 6.13994C3.34466 5.65851 3.4302 5.17128 3.64651 4.7376C3.86283 4.30393 4.2006 3.94251 4.61868 3.69739C5.03675 3.45227 5.51709 3.33402 6.00117 3.35704C6.48526 3.38006 6.95221 3.54336 7.34513 3.82705C7.73806 4.11074 8.04001 4.50257 8.2142 4.95482C8.38839 5.40707 8.4273 5.90021 8.3262 6.37418C8.22509 6.84815 7.98834 7.2825 7.64477 7.6243ZM25.3023 18.1077C24.994 18.9672 24.5821 19.7859 24.0758 20.5458C24.3853 20.9187 24.5798 21.3735 24.6355 21.8549C24.6912 22.3364 24.6056 22.8236 24.3893 23.2573C24.173 23.691 23.8352 24.0524 23.4171 24.2975C22.9991 24.5426 22.5187 24.6609 22.0346 24.6378C21.5506 24.6148 21.0836 24.4515 20.6907 24.1678C20.2978 23.8841 19.9958 23.4923 19.8216 23.0401C19.6474 22.5878 19.6085 22.0947 19.7096 21.6207C19.8107 21.1467 20.0475 20.7124 20.3911 20.3706C20.7633 19.9967 21.2452 19.7514 21.7666 19.6703C22.2879 19.5893 22.8216 19.6768 23.2898 19.92C23.7268 19.2486 24.0863 18.5298 24.3611 17.7773C24.4049 17.6525 24.4965 17.5502 24.6158 17.4929C24.735 17.4356 24.8721 17.4281 24.9969 17.4719C25.1217 17.5157 25.224 17.6073 25.2813 17.7265C25.3386 17.8458 25.3461 17.9829 25.3023 18.1077ZM10.5435 24.9765C10.5225 25.0388 10.4892 25.0962 10.4457 25.1455C10.4021 25.1947 10.3492 25.2347 10.2899 25.2632C10.2307 25.2916 10.1663 25.308 10.1007 25.3112C10.035 25.3144 9.9694 25.3044 9.90766 25.2819C9.04861 24.9725 8.22999 24.5607 7.46954 24.0553C6.99306 24.4539 6.38554 24.6614 5.76476 24.6377C5.14397 24.6139 4.55412 24.3605 4.10954 23.9265C3.66496 23.4926 3.39731 22.9091 3.35847 22.289C3.31963 21.669 3.51237 21.0566 3.89932 20.5706C4.28628 20.0846 4.83989 19.7596 5.45285 19.6585C6.06582 19.5574 6.69448 19.6875 7.21699 20.0236C7.7395 20.3596 8.11864 20.8777 8.28092 21.4774C8.4432 22.077 8.37707 22.7156 8.09534 23.2693C8.76673 23.7064 9.48558 24.0658 10.2381 24.3407C10.3002 24.3619 10.3575 24.3953 10.4066 24.4389C10.4557 24.4825 10.4956 24.5354 10.524 24.5946C10.5524 24.6537 10.5688 24.718 10.5721 24.7836C10.5755 24.8491 10.5657 24.9147 10.5435 24.9765ZM3.27919 16.3655C3.44029 17.1558 3.69578 17.924 4.04016 18.6534C4.09593 18.7742 4.10141 18.9123 4.05541 19.0371C4.03263 19.099 3.99789 19.1557 3.95319 19.2041C3.90848 19.2525 3.85468 19.2916 3.79485 19.3192C3.67402 19.375 3.53599 19.3805 3.41112 19.3345C3.28625 19.2885 3.18476 19.1948 3.129 19.0739C2.74027 18.2458 2.45445 17.3732 2.27791 16.4756C1.65764 16.4208 1.0802 16.1363 0.658803 15.6779C0.237409 15.2194 0.00245272 14.6201 0 13.9974C0.105134 10.6882 4.90126 10.6932 5.0064 13.9974C5.0036 14.5235 4.83526 15.0354 4.52524 15.4604C4.21522 15.8854 3.77927 16.2021 3.27919 16.3655ZM19.0944 24.8864C18.2663 25.2751 17.3937 25.5609 16.4961 25.7374C16.1356 28.8815 11.6048 28.6812 11.5147 25.5122C11.5129 24.9168 11.7238 24.3405 12.1095 23.887C12.4952 23.4336 13.0303 23.1329 13.6182 23.0392C14.2061 22.9456 14.8081 23.0651 15.3156 23.3763C15.8231 23.6875 16.2027 24.1697 16.3859 24.7362C17.1763 24.5751 17.9444 24.3196 18.6739 23.9752C18.7947 23.9194 18.9327 23.9139 19.0576 23.9599C19.1825 24.0059 19.2839 24.0997 19.3397 24.2205C19.3955 24.3413 19.401 24.4794 19.355 24.6042C19.3089 24.7291 19.2152 24.8306 19.0944 24.8864ZM16.5211 2.48273C16.523 3.07804 16.312 3.65441 15.9263 4.10786C15.5406 4.56131 15.0055 4.86199 14.4176 4.95564C13.8297 5.04929 13.2277 4.92976 12.7202 4.6186C12.2127 4.30744 11.8331 3.82514 11.6499 3.25872C10.7979 3.46367 9.96278 3.73312 9.15169 4.06475C9.05584 4.06542 8.96184 4.03837 8.88102 3.98685C8.80019 3.93534 8.73597 3.86155 8.69611 3.77438C8.6414 3.65341 8.63646 3.51578 8.68235 3.3912C8.72825 3.26662 8.82131 3.16509 8.94142 3.10853C9.76953 2.71981 10.6421 2.43398 11.5397 2.25744C11.9002 -0.886574 16.431 -0.686318 16.5211 2.48273ZM24.6615 5.85704C24.6628 6.23536 24.5782 6.60903 24.414 6.94987C24.2498 7.29071 24.0104 7.58981 23.7137 7.82459C23.4171 8.05938 23.071 8.22373 22.7016 8.30524C22.3321 8.38675 21.949 8.38329 21.5811 8.29512C21.2132 8.20694 20.8701 8.03637 20.5778 7.79625C20.2854 7.55614 20.0514 7.25276 19.8934 6.90902C19.7354 6.56527 19.6576 6.19012 19.6657 5.81189C19.6739 5.43366 19.7678 5.06222 19.9405 4.7256C19.2691 4.28852 18.5502 3.92909 17.7977 3.65423C17.6729 3.61041 17.5706 3.51881 17.5134 3.39957C17.4561 3.28033 17.4485 3.14323 17.4923 3.01842C17.5362 2.8936 17.6278 2.79131 17.747 2.73404C17.8662 2.67677 18.0033 2.66921 18.1282 2.71303C18.9872 3.02241 19.8058 3.43424 20.5663 3.93959C20.9319 3.63953 21.375 3.44908 21.8443 3.39026C22.3136 3.33145 22.79 3.40668 23.2184 3.60724C23.6468 3.80781 24.0096 4.12553 24.265 4.52365C24.5204 4.92178 24.6578 5.38406 24.6615 5.85704ZM20.8466 10.7683L14.5185 14.5682V21.6222L20.8466 17.8273V10.7683ZM7.18919 17.8273L13.5173 21.6222V14.5682L7.18919 10.7683V17.8273ZM20.376 9.88218L14.0179 6.07232L7.65979 9.88218L14.0179 13.6971L20.376 9.88218Z" fill="#0A8EC8"/>
</g>
</svg>
