<svg preserveAspectRatio="none" width="100%" height="100%" overflow="visible" style="display: block;" viewBox="0 0 27.2497 32.0001" fill="none" xmlns="http://www.w3.org/2000/svg">
<g id="Group">
<path id="Vector" d="M13.6248 9.90368C10.2627 9.90368 7.5276 12.6388 7.5276 16.0006C7.5276 19.3627 10.2627 22.0977 13.6248 22.0977C16.9867 22.0977 19.7217 19.3627 19.7217 16.0006C19.7217 12.6387 16.9867 9.90368 13.6248 9.90368ZM17.2447 14.8524L12.8767 19.2203C12.7896 19.3077 12.6861 19.3769 12.5721 19.4242C12.4582 19.4714 12.336 19.4956 12.2127 19.4955C12.0893 19.4957 11.9672 19.4714 11.8533 19.4242C11.7394 19.377 11.6359 19.3077 11.5489 19.2203L9.87966 17.5511C9.51297 17.1847 9.51297 16.5902 9.87966 16.2235C10.2461 15.8568 10.8406 15.8568 11.2073 16.2235L12.2127 17.2289L15.917 13.5248C16.2835 13.1581 16.878 13.1581 17.2447 13.5248C17.6114 13.8912 17.6114 14.4857 17.2447 14.8524Z" fill="#0A8EC8"/>
<path id="Vector_2" d="M27.218 8.68252L27.217 8.65764C27.2025 8.32635 27.1929 7.99485 27.1882 7.66327C27.1621 5.89883 25.7595 4.43933 23.9948 4.34077C20.3157 4.1354 17.4695 2.93571 15.0376 0.56534L15.0168 0.54559C14.2236 -0.181721 13.0271 -0.181721 12.2336 0.54559L12.2129 0.56534C9.78098 2.93571 6.9348 4.1354 3.25561 4.34096C1.49124 4.43933 0.0883674 5.8989 0.0622424 7.66346C0.0576569 7.99498 0.0480725 8.32641 0.0334924 8.65764L0.0319925 8.71545C-0.0395699 12.4672 -0.128445 17.1364 1.43355 21.3744C2.29249 23.705 3.59324 25.7308 5.29955 27.3961C7.24292 29.2926 9.78829 30.7982 12.865 31.871C12.9663 31.9062 13.0698 31.9344 13.175 31.9554C13.3244 31.9852 13.4748 32.0001 13.6252 32.0001C13.7756 32.0001 13.9262 31.9852 14.0754 31.9554C14.181 31.9343 14.285 31.9059 14.3867 31.8704C17.4597 30.7957 20.0024 29.2894 21.944 27.3932C23.6496 25.7274 24.9504 23.7011 25.81 21.37C27.3779 17.1193 27.2893 12.4413 27.218 8.68252ZM13.6247 23.9754C9.22723 23.9754 5.64986 20.3981 5.64986 16.0006C5.64986 11.6031 9.22729 8.02577 13.6247 8.02577C18.022 8.02577 21.5996 11.6031 21.5996 16.0006C21.5996 20.3981 18.022 23.9754 13.6247 23.9754Z" fill="#0A8EC8"/>
</g>
</svg>
