<svg preserveAspectRatio="none" width="100%" height="100%" overflow="visible" style="display: block;" viewBox="0 0 31.9986 32.0001" fill="none" xmlns="http://www.w3.org/2000/svg">
<g id="Layer 9">
<path id="Vector" d="M16.2145 31.9968C14.9815 32.0274 12.5591 31.8356 11.7672 31.6475C11.2102 31.5197 10.709 31.2165 10.3373 30.7825C9.95986 30.3564 9.72268 29.8244 9.65796 29.2588V29.2419C9.61648 28.834 9.60374 28.4236 9.61984 28.0139C9.60371 27.6743 9.61647 27.3339 9.65796 26.9964V26.9796C9.71549 26.441 9.95645 25.9385 10.3404 25.5565C10.7266 25.1716 11.2321 24.9292 11.7741 24.869C12.5684 24.7853 14.9858 24.739 16.2114 24.7397C17.437 24.7403 19.4119 24.7853 20.2062 24.869C20.7489 24.9301 21.2546 25.1738 21.6405 25.5603C22.0242 25.9425 22.2651 26.4448 22.323 26.9833V27.0002C22.3626 27.3375 22.3824 27.6768 22.3823 28.0164C22.3845 28.4271 22.3649 28.8377 22.3236 29.2463V29.2632C22.2585 29.829 22.0211 30.3611 21.6436 30.7875C21.2722 31.2215 20.7711 31.5247 20.2143 31.6525C19.4237 31.8256 17.4476 32.0018 16.2145 31.9968Z" fill="#0A8EC8"/>
<path id="Vector_2" d="M15.9968 23.8073C18.1178 23.8073 19.8372 22.0879 19.8372 19.9669C19.8372 17.8459 18.1178 16.1265 15.9968 16.1265C13.8758 16.1265 12.1564 17.8459 12.1564 19.9669C12.1564 22.0879 13.8758 23.8073 15.9968 23.8073Z" fill="#0A8EC8"/>
<path id="Vector_3" d="M25.9656 23.3786C27.9682 23.3786 29.5917 21.7552 29.5917 19.7525C29.5917 17.7499 27.9682 16.1265 25.9656 16.1265C23.963 16.1265 22.3396 17.7499 22.3396 19.7525C22.3396 21.7552 23.963 23.3786 25.9656 23.3786Z" fill="#0A8EC8"/>
<path id="Vector_4" d="M6.0326 23.3786C8.03523 23.3786 9.65867 21.7552 9.65867 19.7525C9.65867 17.7499 8.03523 16.1265 6.0326 16.1265C4.02998 16.1265 2.40653 17.7499 2.40653 19.7525C2.40653 21.7552 4.02998 23.3786 6.0326 23.3786Z" fill="#0A8EC8"/>
<path id="Vector_5" d="M21.5083 4.23159C21.0788 4.16412 20.6915 3.93463 20.4259 3.59031C20.1604 3.24598 20.037 2.81301 20.0809 2.38044C20.0943 2.26128 20.1214 2.14407 20.1615 2.03108C20.2093 1.87824 20.2102 1.71458 20.1639 1.56126C20.1177 1.40794 20.0265 1.27204 19.9022 1.17112C19.3595 0.70278 18.7442 0.325987 18.0804 0.0555504C17.9357 -0.00551278 17.7747 -0.016541 17.623 0.024213C17.4713 0.0649669 17.3376 0.155173 17.2429 0.280539C17.117 0.446652 16.959 0.585876 16.7784 0.690011C16.5978 0.794146 16.3982 0.861085 16.1913 0.886886C15.9845 0.912686 15.7745 0.896826 15.5739 0.84024C15.3732 0.783654 15.1859 0.687486 15.023 0.557401C14.9225 0.476854 14.8326 0.383817 14.7555 0.280539C14.6609 0.155173 14.5272 0.0649669 14.3755 0.024213C14.2238 -0.016541 14.0628 -0.00551278 13.9181 0.0555504C13.3058 0.304524 12.7345 0.644137 12.2232 1.063C12.0928 1.1653 11.9968 1.30502 11.9481 1.46342C11.8994 1.62182 11.9003 1.79133 11.9507 1.94921C12.2563 2.76167 11.8438 3.711 11.0051 4.05723C10.8556 4.11961 10.698 4.16023 10.537 4.17785C10.3733 4.19729 10.2196 4.26661 10.0966 4.37639C9.9736 4.48617 9.88736 4.63111 9.84954 4.79157C9.69596 5.47337 9.68235 6.17925 9.80954 6.86646C9.8423 7.032 9.92677 7.18285 10.0508 7.2973C10.1748 7.41175 10.3319 7.48389 10.4995 7.50331C10.93 7.54882 11.3265 7.75804 11.6071 8.0877C11.8877 8.41736 12.0308 8.84224 12.0069 9.27447C11.9962 9.45206 11.955 9.62648 11.8851 9.79007C11.7519 10.0969 11.8551 10.4688 12.1294 10.695C12.6693 11.1554 13.2795 11.5261 13.9368 11.7931C14.0183 11.8246 14.1045 11.8424 14.1918 11.8456C14.3098 11.8482 14.4265 11.8209 14.5311 11.7663C14.6356 11.7116 14.7247 11.6314 14.7899 11.5331C14.9309 11.319 15.123 11.1434 15.3488 11.0221C15.5747 10.9009 15.8273 10.8379 16.0836 10.8388C16.3317 10.8384 16.5763 10.8972 16.7971 11.0104C17.0178 11.1235 17.2084 11.2877 17.3529 11.4894C17.4471 11.6234 17.5851 11.7203 17.7432 11.7633C17.9013 11.8064 18.0694 11.7928 18.2185 11.725C18.8183 11.4584 19.376 11.1057 19.874 10.6782C20.0006 10.5756 20.0929 10.4369 20.1385 10.2806C20.1842 10.1243 20.1811 9.95772 20.1297 9.80319C19.8172 8.99698 20.2159 8.04266 21.0509 7.68767C21.192 7.62602 21.3408 7.58396 21.4933 7.56268C21.655 7.53916 21.8057 7.46664 21.9249 7.3549C22.0441 7.24316 22.1262 7.09755 22.1602 6.93771C22.2321 6.60254 22.271 6.26114 22.2764 5.91839C22.2762 5.55691 22.2383 5.19643 22.1633 4.84281C22.1291 4.68642 22.0482 4.54409 21.9314 4.43462C21.8145 4.32516 21.6673 4.25371 21.509 4.22972L21.5083 4.23159ZM18.0916 5.91901C18.0919 6.3329 17.9694 6.73757 17.7396 7.08182C17.5098 7.42608 17.1831 7.69446 16.8008 7.85302C16.4185 8.01158 15.9978 8.0532 15.5918 7.97261C15.1858 7.89201 14.8129 7.69283 14.5201 7.40025C14.2274 7.10767 14.028 6.73485 13.9471 6.32893C13.8663 5.92301 13.9077 5.50223 14.066 5.11982C14.2243 4.73742 14.4925 4.41055 14.8366 4.18058C15.1808 3.95061 15.5853 3.82786 15.9992 3.82786C16.5533 3.83066 17.0839 4.052 17.4757 4.4438C17.8675 4.83559 18.0888 5.36618 18.0916 5.92026V5.91901ZM31.9984 27.3498C31.9985 27.029 31.9799 26.7085 31.9428 26.3899V26.3743C31.8884 25.8657 31.661 25.3913 31.2985 25.0306C30.9345 24.6655 30.4571 24.4354 29.9448 24.3781C29.1948 24.2987 27.3324 24.2531 26.1725 24.2531C25.0125 24.2531 22.7433 24.2962 21.9852 24.375C22.147 24.49 22.299 24.6184 22.4395 24.7587C23.0049 25.3239 23.3598 26.0656 23.4451 26.8605V26.8824C23.4883 27.2662 23.5092 27.6523 23.5076 28.0385C23.5098 28.4804 23.4889 28.922 23.4451 29.3616V29.3772C23.3855 29.9271 23.2075 30.4576 22.9233 30.9322C23.9313 31.0478 25.3388 31.1346 26.1731 31.114C27.3374 31.1221 29.203 30.9553 29.9517 30.7859C30.4774 30.6655 30.9505 30.3791 31.301 29.9691C31.6574 29.5671 31.8814 29.0653 31.9428 28.5316V28.516C31.982 28.1285 32.0006 27.7393 31.9984 27.3498ZM8.53898 29.3741V29.3566C8.4945 28.9135 8.47947 28.468 8.49398 28.0229C8.48066 27.6417 8.4957 27.2601 8.53898 26.8811V26.863C8.59196 26.3687 8.74962 25.8914 9.00145 25.4629C9.25329 25.0343 9.59354 24.6643 9.99953 24.3775C9.2452 24.2981 7.39154 24.2556 6.23535 24.2556C5.07915 24.2556 2.79302 24.2987 2.04305 24.3806C1.53054 24.4367 1.05243 24.6657 0.687495 25.0299C0.325082 25.3909 0.0978061 25.8656 0.0437763 26.3743V26.3899C0.00417732 26.7082 -0.00836696 27.0294 0.00627819 27.3498C-0.00880875 27.7366 0.00330382 28.124 0.0425264 28.5091V28.5254C0.104059 29.059 0.328124 29.5608 0.68437 29.9628C1.03507 30.3729 1.50835 30.6592 2.0343 30.7797C2.78427 30.9578 5.06978 31.1384 6.2341 31.1096C7.17935 31.1038 8.12352 31.0445 9.06208 30.9322C8.77724 30.4567 8.59878 29.9251 8.53898 29.3741ZM5.96536 15.4373C5.92161 15.4373 5.87849 15.4373 5.83412 15.4304C5.67889 15.4134 5.52855 15.3659 5.3917 15.2907C5.25485 15.2155 5.13418 15.114 5.03659 14.9921C4.93901 14.8702 4.86643 14.7302 4.82301 14.5803C4.77958 14.4303 4.76617 14.2732 4.78354 14.118C5.06665 11.5344 6.85969 9.26322 9.35019 8.33264C9.64523 8.22242 9.97197 8.23391 10.2585 8.36459C10.5451 8.49528 10.768 8.73444 10.8782 9.02948C10.9885 9.32452 10.977 9.65126 10.8463 9.93783C10.7156 10.2244 10.4764 10.4473 10.1814 10.5575C8.52273 11.1769 7.33092 12.6762 7.14405 14.3767C7.11279 14.6677 6.97519 14.9368 6.75766 15.1326C6.54013 15.3283 6.25798 15.4368 5.96536 15.4373ZM26.0331 15.4373C25.7402 15.4368 25.4578 15.328 25.2402 15.1319C25.0227 14.9357 24.8853 14.6661 24.8544 14.3748C24.6669 12.6743 23.4757 11.175 21.8171 10.5557C21.522 10.4454 21.2829 10.2225 21.1522 9.93595C21.0215 9.64939 21.01 9.32265 21.1202 9.02761C21.2305 8.73257 21.4534 8.4934 21.7399 8.36272C22.0265 8.23203 22.3532 8.22054 22.6483 8.33077C25.1388 9.26135 26.9318 11.5325 27.2149 14.1161C27.2323 14.2713 27.2189 14.4284 27.1755 14.5784C27.132 14.7284 27.0595 14.8683 26.9619 14.9902C26.8643 15.1121 26.7436 15.2136 26.6068 15.2888C26.4699 15.364 26.3196 15.4115 26.1644 15.4285C26.1237 15.4317 26.0769 15.4373 26.0331 15.4373Z" fill="#0A8EC8"/>
</g>
</svg>
