<svg preserveAspectRatio="none" width="100%" height="100%" overflow="visible" style="display: block;" viewBox="0 0 31.0202 29.2483" fill="none" xmlns="http://www.w3.org/2000/svg">
<g id="Group">
<path id="Vector" d="M1.55478 10.7586C1.27672 10.4512 1.30055 9.97657 1.60794 9.69858L8.8648 3.13473C9.00251 3.01017 9.18151 2.94108 9.3672 2.94083C9.55289 2.94058 9.73209 3.00917 9.87014 3.13336L13.9909 6.8404L19.3304 1.50098H19.1296C18.7152 1.50098 18.3791 1.16495 18.3791 0.75049C18.3791 0.336032 18.7152 0 19.1296 0H21.1422C21.5567 0 21.8927 0.336032 21.8927 0.75049V2.7613C21.8927 3.17576 21.5567 3.51179 21.1422 3.51179C20.7278 3.51179 20.3918 3.17576 20.3918 2.7613V2.56236L14.5489 8.40517C14.2667 8.68736 13.813 8.69942 13.5163 8.43244L9.36956 4.702L2.61478 10.8117C2.47701 10.9367 2.2976 11.0058 2.11158 11.0056C2.00664 11.0058 1.90285 10.9838 1.80692 10.9413C1.711 10.8987 1.6251 10.8365 1.55478 10.7586ZM28.6701 22.2247H22.7742V16.327C22.7742 16.2275 22.7346 16.1321 22.6643 16.0617C22.5939 15.9913 22.4985 15.9518 22.3989 15.9518C18.7331 15.9518 15.7507 18.9342 15.7507 22.6C15.7507 26.2658 18.7331 29.2482 22.3989 29.2482C26.0648 29.2482 29.0453 26.2658 29.0453 22.6C29.0453 22.5005 29.0058 22.405 28.9354 22.3347C28.8651 22.2643 28.7696 22.2247 28.6701 22.2247ZM24.3739 13.9769C24.2743 13.9769 24.1789 14.0164 24.1085 14.0868C24.0381 14.1571 23.9986 14.2526 23.9986 14.3521V20.6251C23.9986 20.7246 24.0381 20.82 24.1085 20.8904C24.1789 20.9608 24.2743 21.0003 24.3739 21.0003H30.645C30.7445 21.0003 30.84 20.9608 30.9103 20.8904C30.9807 20.82 31.0203 20.7246 31.0203 20.6251C31.0203 16.9593 28.0387 13.9769 24.3739 13.9769ZM18.0039 7.48845C17.9044 7.48845 17.8089 7.52798 17.7385 7.59835C17.6682 7.66873 17.6286 7.76417 17.6286 7.86369V15.9971C18.7461 15.1875 20.0759 14.6543 21.5175 14.4986V7.86369C21.5175 7.76417 21.478 7.66873 21.4076 7.59835C21.3372 7.52798 21.2418 7.48845 21.1422 7.48845H18.0039ZM16.2193 17.2935V12.3251C16.2193 12.2256 16.1798 12.1301 16.1094 12.0598C16.0391 11.9894 15.9436 11.9499 15.8441 11.9499H12.7058C12.6063 11.9499 12.5108 11.9894 12.4405 12.0598C12.3701 12.1301 12.3306 12.2256 12.3306 12.3251V21.8494H10.9213V10.0055C10.9213 9.90601 10.8817 9.81056 10.8114 9.74019C10.741 9.66982 10.6455 9.63028 10.546 9.63028H7.40766C7.30814 9.63028 7.21269 9.66982 7.14232 9.74019C7.07195 9.81056 7.03241 9.90601 7.03241 10.0055V21.8494H5.62312V14.7237C5.62312 14.6241 5.58359 14.5287 5.51321 14.4583C5.44284 14.388 5.3474 14.3484 5.24788 14.3484H2.11139C2.01187 14.3484 1.91643 14.388 1.84605 14.4583C1.77568 14.5287 1.73615 14.6241 1.73615 14.7237V21.8494H0.750504C0.336046 21.8494 1.43811e-05 22.1855 1.43811e-05 22.5999C1.43811e-05 23.0144 0.336046 23.3504 0.750504 23.3504H14.2846C14.2615 23.1009 14.2499 22.8505 14.2497 22.5999C14.2497 20.5749 14.9924 18.7203 16.2193 17.2935H16.2193Z" fill="#0A8EC8"/>
</g>
</svg>
