<svg preserveAspectRatio="none" width="100%" height="100%" overflow="visible" style="display: block;" viewBox="0 0 29.969 29.3777" fill="none" xmlns="http://www.w3.org/2000/svg">
<g id="Group">
<path id="Vector" fill-rule="evenodd" clip-rule="evenodd" d="M15.6249 2.15933C16.7752 2.43334 17.8744 2.88905 18.8812 3.5093L20.9972 2.56953L23.4911 5.06345L22.5516 7.17876C23.1721 8.18576 23.6279 9.28531 23.9018 10.4359L26.0606 11.2668V14.7937L25.3302 15.0749C24.9204 14.6746 24.3606 14.4273 23.7447 14.4273H20.7821C20.8646 13.9662 20.9059 13.4987 20.9057 13.0303C20.9057 8.68083 17.3798 5.15485 13.0303 5.15485C8.68076 5.15485 5.15479 8.68083 5.15479 13.0303C5.15479 17.2767 8.51581 20.7376 12.7226 20.8992V21.479C12.7226 22.183 12.9958 22.7815 13.4467 23.2722V26.0606H11.2668L10.4357 23.9013C9.28539 23.6272 8.18615 23.1715 7.17938 22.5513L5.06338 23.4911L2.56947 20.9972L3.50899 18.8818C2.88856 17.8748 2.43275 16.7753 2.15877 15.6246L0 14.7938V11.2669L2.15914 10.4358C2.43313 9.28541 2.88889 8.18607 3.50924 7.17926L2.56953 5.06351L5.06338 2.56953L7.17938 3.5093C8.18615 2.88905 9.28539 2.43334 10.4357 2.15933L11.2669 0H14.7937L15.6249 2.15933ZM17.6032 17.9712V19.9523C17.6032 20.3725 17.9469 20.7162 18.367 20.7162H25.3236C25.7437 20.7162 26.0874 20.3724 26.0874 19.9523V17.9712H17.6032ZM20.348 24.471C20.348 25.2979 21.0184 25.9683 21.8453 25.9683C22.6723 25.9683 23.3426 25.2979 23.3426 24.471C23.3426 23.6466 22.6749 22.9737 21.8453 22.9737C21.0157 22.9737 20.348 23.6466 20.348 24.471ZM29.2448 22.8442C29.6725 22.493 29.969 22.0546 29.969 21.479V18.5805C29.969 18.2449 29.6953 17.9712 29.3597 17.9712H27.0865V19.9523C27.0865 20.9238 26.2951 21.7151 25.3237 21.7151H18.367C17.3956 21.7151 16.6042 20.9238 16.6042 19.9523V17.9712H14.3309C13.9953 17.9712 13.7217 18.2449 13.7217 18.5805V21.4791C13.7217 22.0545 14.0181 22.493 14.4457 22.8441C15.6073 23.7974 17.9238 24.0631 19.3659 24.181C19.5097 22.9394 20.565 21.9748 21.8453 21.9748C23.1252 21.9748 24.1802 22.9388 24.3246 24.1797C25.764 24.0616 28.0852 23.7959 29.2448 22.8442ZM14.4457 24.0503V28.1887C14.4457 28.8426 14.9808 29.3777 15.6348 29.3777H28.0557C28.7097 29.3777 29.2447 28.8426 29.2447 28.1887V24.0504C28.1768 24.6485 26.3141 25.0289 24.2357 25.1917C23.9263 26.2188 22.973 26.9673 21.8453 26.9673C20.7175 26.9673 19.7642 26.2188 19.4548 25.1917C17.3766 25.029 15.5139 24.6487 14.4457 24.0503ZM25.0171 16.9722V16.6987C25.0171 15.9989 24.4446 15.4263 23.7447 15.4263H19.946C19.2462 15.4263 18.6736 15.9989 18.6736 16.6987V16.9722H19.8001V16.6987C19.8001 16.6207 19.8681 16.5527 19.9461 16.5527H23.7448C23.8228 16.5527 23.8908 16.6207 23.8908 16.6987V16.9722H25.0171ZM8.45718 12.0683C7.91687 12.6086 7.91681 13.4928 8.45718 14.0332L10.6182 16.1942C11.2291 16.805 12.1505 17.085 12.8394 16.3962L17.6036 11.632C18.1439 11.0916 18.1439 10.2074 17.6036 9.66712V9.66705C17.0633 9.12674 16.1791 9.12674 15.6387 9.66705L11.8298 13.476L10.4221 12.0683C9.88165 11.5279 8.9975 11.5279 8.45718 12.0683Z" fill="#0A8EC8"/>
</g>
</svg>
