<svg width="55" height="95" viewBox="0 0 55 95" fill="none" xmlns="http://www.w3.org/2000/svg">
<path d="M27.5 0C42.6878 0 55 12.3122 55 27.5C55 28.6649 54.9267 29.8127 54.7861 30.9395C54.9255 31.6045 55 32.2936 55 33V95H20C8.95431 95 5.1544e-07 86.0457 0 75V33C3.29612e-08 32.2936 0.0735916 31.6044 0.212891 30.9395C0.0723085 29.8127 0 28.6648 0 27.5C0 12.3122 12.3122 0 27.5 0Z" fill="white"/>
<path fill-rule="evenodd" clip-rule="evenodd" d="M22.8397 33.2265C22.7648 33.0499 22.6445 32.8963 22.491 32.7813L22.48 32.7736C21.3356 31.8878 20.4101 30.7509 19.7748 29.4506C19.1396 28.1503 18.8117 26.7214 18.8164 25.2743C18.8164 19.9779 23.116 15.6771 28.4135 15.6771C33.711 15.6771 38.0106 19.9768 38.0106 25.2743C38.0113 26.7199 37.6851 28.1469 37.0563 29.4486C36.4276 30.7504 35.5126 31.893 34.3799 32.7912L34.3558 32.8087C34.2114 32.9176 34.0971 33.0614 34.0235 33.2265H22.8397ZM24.3475 26.872L26.5406 29.0651C26.6498 29.1737 26.7806 29.2583 26.9245 29.3131C27.0685 29.368 27.2223 29.3921 27.3762 29.3837C27.53 29.3753 27.6804 29.3347 27.8175 29.2645C27.9546 29.1943 28.0755 29.0961 28.1723 28.9762L32.5607 23.4923C32.7426 23.2652 32.8268 22.9751 32.7949 22.6859C32.7629 22.3966 32.6173 22.1319 32.3902 21.95C32.163 21.7681 31.873 21.6839 31.5837 21.7159C31.2945 21.7478 31.0298 21.8934 30.8479 22.1205L27.2259 26.6493L25.8991 25.3214C25.6908 25.129 25.4162 25.0247 25.1327 25.0302C24.8492 25.0358 24.5789 25.1508 24.3783 25.3512C24.1778 25.5516 24.0626 25.8219 24.0568 26.1054C24.051 26.3888 24.1552 26.6636 24.3475 26.872ZM33.9029 35.4196C33.8974 36.1489 33.8974 36.9219 33.8974 37.6139C33.8962 38.4862 33.5491 39.3224 32.9322 39.9391C32.3153 40.5558 31.4789 40.9027 30.6066 40.9036H26.2204C25.3478 40.9036 24.5109 40.557 23.8938 39.9401C23.2767 39.3232 22.9299 38.4864 22.9296 37.6139V35.4196H33.9029ZM27.3169 10.1932C27.3169 9.90242 27.4325 9.6235 27.6381 9.41786C27.8438 9.21221 28.1227 9.09668 28.4135 9.09668C28.7043 9.09668 28.9832 9.21221 29.1889 9.41786C29.3945 9.6235 29.5101 9.90242 29.5101 10.1932V12.3864C29.5101 12.6772 29.3945 12.9561 29.1889 13.1618C28.9832 13.3674 28.7043 13.4829 28.4135 13.4829C28.1227 13.4829 27.8438 13.3674 27.6381 13.1618C27.4325 12.9561 27.3169 12.6772 27.3169 12.3864V10.1932ZM40.479 26.6461C40.1879 26.6461 39.9087 26.5304 39.7028 26.3246C39.497 26.1187 39.3813 25.8395 39.3813 25.5484C39.3813 25.2573 39.497 24.9781 39.7028 24.7722C39.9087 24.5664 40.1879 24.4507 40.479 24.4507H42.6732C42.9643 24.4507 43.2435 24.5664 43.4494 24.7722C43.6552 24.9781 43.7709 25.2573 43.7709 25.5484C43.7709 25.8395 43.6552 26.1187 43.4494 26.3246C43.2435 26.5304 42.9643 26.6461 42.6732 26.6461H40.479ZM14.1538 26.6461C13.8627 26.6461 13.5835 26.5304 13.3776 26.3246C13.1718 26.1187 13.0562 25.8395 13.0562 25.5484C13.0562 25.2573 13.1718 24.9781 13.3776 24.7722C13.5835 24.5664 13.8627 24.4507 14.1538 24.4507H16.348C16.6391 24.4507 16.9183 24.5664 17.1242 24.7722C17.33 24.9781 17.4457 25.2573 17.4457 25.5484C17.4457 25.8395 17.33 26.1187 17.1242 26.3246C16.9183 26.5304 16.6391 26.6461 16.348 26.6461H14.1538ZM39.3824 13.029C39.5908 12.8367 39.8655 12.7325 40.149 12.7383C40.4325 12.7441 40.7027 12.8593 40.9031 13.0598C41.1035 13.2604 41.2186 13.5307 41.2241 13.8142C41.2297 14.0977 41.1254 14.3723 40.933 14.5806L39.3824 16.13C39.2807 16.2319 39.1599 16.3128 39.0269 16.3679C38.8939 16.4231 38.7514 16.4516 38.6074 16.4517C38.4634 16.4518 38.3208 16.4235 38.1877 16.3685C38.0547 16.3135 37.9338 16.2329 37.8319 16.1311C37.73 16.0294 37.6491 15.9086 37.594 15.7756C37.5388 15.6426 37.5103 15.5001 37.5102 15.3561C37.5101 15.2121 37.5384 15.0695 37.5934 14.9365C37.6484 14.8034 37.729 14.6825 37.8308 14.5806L39.3824 13.029ZM15.8941 14.5806C15.7017 14.3723 15.5973 14.0977 15.6029 13.8142C15.6084 13.5307 15.7235 13.2604 15.9239 13.0598C16.1243 12.8593 16.3945 12.7441 16.678 12.7383C16.9615 12.7325 17.2362 12.8367 17.4446 13.029L18.9973 14.5806C19.102 14.6818 19.1854 14.8029 19.2428 14.9367C19.3002 15.0705 19.3303 15.2144 19.3315 15.36C19.3326 15.5056 19.3048 15.65 19.2496 15.7847C19.1943 15.9195 19.1128 16.0418 19.0098 16.1447C18.9068 16.2476 18.7843 16.3289 18.6495 16.384C18.5147 16.439 18.3703 16.4667 18.2247 16.4653C18.0791 16.4639 17.9352 16.4336 17.8015 16.376C17.6677 16.3185 17.5468 16.2348 17.4457 16.13L15.8941 14.5806Z" fill="url(#paint0_linear_386_54652)"/>
<path d="M33.1461 75H35.876C36.3395 75.0443 39.376 78.6319 39.9635 79.2293C40.0279 79.2945 40.8677 80.1513 40.9007 80.2028L45.33 75.3959C46.1079 75.4296 46.8532 75.4273 47.6306 75.4258C48.0353 75.425 48.9897 75.4258 48.9897 75.4258H49L43.8198 81.2022C43.8198 81.2022 42.9549 82.2666 42.5149 82.6569C42.2637 82.8808 41.9635 83.0425 41.6381 83.1288C41.2009 83.2481 40.4423 83.2687 40.0263 83.0753C39.283 82.7298 38.783 81.9854 38.2332 81.4028C37.4306 80.5519 36.6315 79.7046 35.8274 78.8555C35.4926 78.5062 34.8125 77.7366 34.4887 77.4673C33.4004 78.7842 30.9126 81.2382 30.9126 81.2382C30.9126 81.2382 29.2283 82.9516 28.4381 83.2041C26.8914 83.3949 26.3212 82.364 25.3769 81.3516L22.7549 78.5701C22.6058 78.4132 21.7065 77.364 21.7065 77.364C21.7077 77.2075 23.616 75.3083 23.616 75.3083C23.7161 75.4403 24.1281 75.8438 24.2926 76.0387C25.1273 77.0268 26.0598 77.9054 26.8754 78.9117C27.0147 79.0838 27.9841 80.1389 28.0684 80.1752L33.1461 75Z" fill="#0686C0"/>
<path d="M20.327 75H23.1829L23.6197 75.3083L23.2791 75.7012L22.9384 76.0941L22.2571 76.8799L21.5539 77.6592L21.2023 78.0489L19.453 79.8942L18.0554 81.3498C17.0516 82.3679 16.7409 83.384 15.0424 83.2396C14.531 83.1922 14.0423 83.0061 13.629 82.7014C13.3135 82.4673 12.878 81.9624 12.6012 81.662L11.3642 80.3285C9.94553 78.7748 8.34798 77.0663 7 75.4657C10.5694 75.8006 12.8243 77.9567 15.3385 80.268L16.5496 78.8955L18.7042 76.5396C18.7042 76.5396 20.033 75.2781 20.327 75Z" fill="#54AC58"/>
<g clip-path="url(#clip0_386_54652)">
<path d="M22.2578 49.9219H24.7188V66.3828H31.2812V49.9219H33.7422L28 45L22.2578 49.9219ZM37.0234 59.8203H38.6641L34.5625 54.8993L32.9219 56.8677V66.3828H37.0234V59.8203ZM23.0781 66.3828V56.8677L21.4375 54.8993L17.3359 59.8203H18.9766V66.3828H23.0781ZM33.0189 68.0234L35.4794 73H42L37.8441 68.0234H33.0189ZM24.8159 68.0234L22.355 73H33.645L31.1844 68.0234H24.8159ZM22.9814 68.0234H18.1559L14 73H20.5207L22.9814 68.0234Z" fill="url(#paint1_linear_386_54652)"/>
</g>
<defs>
<linearGradient id="paint0_linear_386_54652" x1="28.547" y1="2.51595" x2="28.547" y2="57.3554" gradientUnits="userSpaceOnUse">
<stop stop-color="#21B1F1"/>
<stop offset="1" stop-color="#A6C936"/>
</linearGradient>
<linearGradient id="paint1_linear_386_54652" x1="28.1217" y1="39.2069" x2="28" y2="73" gradientUnits="userSpaceOnUse">
<stop stop-color="#21B1F1"/>
<stop offset="0.574317" stop-color="#A6C936"/>
<stop offset="0.975962" stop-color="white"/>
</linearGradient>
<clipPath id="clip0_386_54652">
<rect width="28" height="28" fill="white" transform="translate(14 45)"/>
</clipPath>
</defs>
</svg>
