<svg width="230" height="238" viewBox="0 0 230 238" fill="none" xmlns="http://www.w3.org/2000/svg">
<g opacity="0.2">
<mask id="mask0_270_13060" style="mask-type:alpha" maskUnits="userSpaceOnUse" x="0" y="0" width="230" height="238">
<path fill-rule="evenodd" clip-rule="evenodd" d="M109.142 1.33967C109.997 1.33034 110.852 1.33032 111.707 1.33965C112.076 1.34366 112.377 1.0486 112.381 0.680623C112.385 0.31264 112.09 0.0110792 111.722 0.00706743C110.857 -0.00236455 109.992 -0.00235327 109.127 0.00708609C108.76 0.0111031 108.464 0.312668 108.468 0.68065C108.472 1.04863 108.774 1.34368 109.142 1.33967ZM116.207 0.80584C116.186 1.1733 116.468 1.48744 116.836 1.50751C117.69 1.5541 118.543 1.61003 119.396 1.6753C119.763 1.70337 120.083 1.42867 120.111 1.06174C120.139 0.694809 119.865 0.374596 119.497 0.346523C118.635 0.280513 117.772 0.223952 116.909 0.176824C116.541 0.156764 116.227 0.438384 116.207 0.80584ZM104.642 0.80592C104.622 0.438464 104.308 0.156846 103.941 0.176909C103.077 0.22407 102.214 0.280648 101.351 0.346626C100.985 0.3747 100.71 0.694916 100.738 1.06184C100.766 1.42878 101.086 1.70348 101.453 1.6754C102.306 1.61017 103.159 1.55422 104.013 1.50759C104.381 1.48752 104.662 1.17337 104.642 0.80592ZM123.921 1.43696C123.877 1.80232 124.137 2.13422 124.503 2.17827C125.351 2.28059 126.199 2.39223 127.046 2.51319C127.411 2.56521 127.748 2.31204 127.801 1.94773C127.853 1.58342 127.599 1.24592 127.235 1.19391C126.378 1.07157 125.52 0.958676 124.662 0.855189C124.297 0.811137 123.965 1.07161 123.921 1.43696ZM96.9282 1.43704C96.8842 1.07169 96.5524 0.811217 96.1873 0.855262C95.3284 0.95879 94.4708 1.07169 93.6145 1.19394C93.2501 1.24595 92.9969 1.58345 93.0488 1.94776C93.1015 2.31207 93.4386 2.56523 93.8031 2.51323C94.65 2.39235 95.4976 2.28071 96.3465 2.17834C96.7123 2.1343 96.9729 1.8024 96.9282 1.43704ZM131.577 2.57126C131.509 2.93295 131.747 3.28117 132.109 3.34902C132.529 3.42786 132.949 3.50902 133.368 3.59251C133.788 3.67599 134.207 3.76173 134.626 3.84972C134.986 3.92544 135.34 3.69489 135.415 3.33476C135.491 2.97463 135.26 2.6213 134.9 2.54558C134.477 2.45659 134.053 2.36988 133.629 2.28545C133.205 2.20102 132.779 2.11894 132.354 2.03921C131.993 1.97136 131.645 2.20957 131.577 2.57126ZM89.2721 2.57128C89.2048 2.20958 88.8563 1.97137 88.4945 2.03922C87.6449 2.19866 86.796 2.36741 85.9498 2.54544C85.5893 2.62116 85.3587 2.97449 85.4347 3.33462C85.5106 3.69475 85.8638 3.92531 86.2236 3.84958C87.0612 3.67354 87.9001 3.50668 88.7403 3.34904C89.1022 3.28118 89.34 2.93297 89.2721 2.57128ZM81.7066 4.20379C81.6153 3.84731 81.2528 3.63239 80.8963 3.72375C80.0587 3.93839 79.2231 4.16225 78.3896 4.39532C78.0351 4.49444 77.8285 4.86209 77.9271 5.2165C78.0264 5.5709 78.3942 5.77785 78.7487 5.67874C79.5723 5.44828 80.3985 5.22692 81.2268 5.01469C81.5833 4.92333 81.7985 4.56028 81.7066 4.20379ZM139.143 4.2039C139.052 4.56038 139.266 4.92343 139.623 5.01479C140.452 5.22726 141.278 5.44863 142.101 5.67885C142.456 5.77797 142.823 5.57101 142.922 5.21661C143.022 4.8622 142.814 4.49455 142.46 4.39544C141.628 4.16261 140.792 3.93873 139.954 3.72385C139.597 3.63249 139.234 3.84741 139.143 4.2039ZM74.2643 6.32771C74.1497 5.97797 73.7732 5.78726 73.4234 5.90174C72.6018 6.17067 71.7829 6.44871 70.9666 6.73587C70.6195 6.85794 70.4369 7.23835 70.5589 7.58551C70.6808 7.93266 71.0613 8.11511 71.4084 7.99303C72.216 7.70911 73.0256 7.43418 73.8385 7.16825C74.1877 7.05377 74.3789 6.67743 74.2643 6.32771ZM146.586 6.32781C146.471 6.67756 146.662 7.05391 147.012 7.16838C147.825 7.43452 148.635 7.70944 149.441 7.9931C149.788 8.11517 150.169 7.93273 150.291 7.58557C150.413 7.23841 150.231 6.85801 149.884 6.73587C149.068 6.44907 148.248 6.17103 147.426 5.90183C147.076 5.78735 146.7 5.97806 146.586 6.32781ZM66.9767 8.93383C66.8394 8.59233 66.4516 8.42662 66.1098 8.56375C65.7086 8.72486 65.3082 8.88818 64.9084 9.05383C64.5086 9.21942 64.1101 9.3872 63.7123 9.55698C63.3738 9.70151 63.2166 10.093 63.3611 10.4315C63.5057 10.7699 63.8969 10.9271 64.2354 10.7826C64.6285 10.6146 65.023 10.4488 65.4181 10.285C65.8139 10.1213 66.2097 9.95978 66.6068 9.80046C66.948 9.66333 67.1139 9.27532 66.9767 8.93383ZM153.873 8.93389C153.736 9.27539 153.901 9.66339 154.243 9.80052C155.037 10.1193 155.827 10.4466 156.613 10.7824C156.952 10.927 157.344 10.7698 157.488 10.4313C157.633 10.0929 157.476 9.70137 157.137 9.55685C156.342 9.21722 155.543 8.88618 154.74 8.56381C154.399 8.42668 154.01 8.5924 153.873 8.93389ZM59.8742 12.0111C59.7157 11.6793 59.3172 11.5394 58.9854 11.6985C58.2051 12.0728 57.4295 12.4554 56.6585 12.8462C56.33 13.0125 56.1987 13.4135 56.3653 13.7417C56.5312 14.07 56.9324 14.2012 57.2609 14.0349C58.0232 13.6485 58.7901 13.2702 59.5617 12.9001C59.8936 12.741 60.0335 12.343 59.8742 12.0111ZM160.975 12.0111C160.816 12.343 160.956 12.741 161.288 12.9001C162.059 13.27 162.826 13.6483 163.589 14.0349C163.917 14.2013 164.318 14.07 164.484 13.7418C164.651 13.4135 164.519 13.0126 164.191 12.8462C163.42 12.4552 162.644 12.0726 161.864 11.6986C161.532 11.5394 161.134 11.6794 160.975 12.0111ZM167.86 15.5462C167.68 15.8669 167.793 16.2732 168.114 16.4537C168.859 16.8732 169.6 17.3009 170.336 17.7366C170.652 17.924 171.061 17.8193 171.249 17.5026C171.436 17.1859 171.331 16.7773 171.015 16.5898C170.27 16.1491 169.521 15.7167 168.768 15.2924C168.447 15.1119 168.041 15.2255 167.86 15.5462ZM52.989 15.5462C52.8085 15.2256 52.402 15.1119 52.0815 15.2924C51.3272 15.7169 50.5783 16.1494 49.8346 16.5898C49.5181 16.7773 49.4128 17.186 49.6007 17.5026C49.788 17.8193 50.1965 17.9241 50.5136 17.7366C51.2493 17.3011 51.9895 16.8735 52.7352 16.4538C53.0563 16.2733 53.1696 15.8669 52.989 15.5462ZM174.499 19.524C174.298 19.8322 174.385 20.2451 174.693 20.4462C175.409 20.9134 176.121 21.3886 176.827 21.8716C177.13 22.0794 177.545 22.0016 177.753 21.6979C177.961 21.3941 177.883 20.9795 177.579 20.7717C176.865 20.2832 176.146 19.8026 175.421 19.33C175.113 19.129 174.7 19.2158 174.499 19.524ZM46.3497 19.524C46.1492 19.2158 45.736 19.129 45.4275 19.3301C44.7032 19.8029 43.9842 20.2835 43.2706 20.7717C42.9668 20.9795 42.8888 21.3942 43.0967 21.6979C43.3046 22.0016 43.719 22.0795 44.0229 21.8717C44.7285 21.3889 45.4395 20.9137 46.1558 20.4462C46.4643 20.2451 46.5509 19.8322 46.3497 19.524ZM180.864 23.9274C180.643 24.2218 180.703 24.6395 180.997 24.8603C181.681 25.3733 182.36 25.8939 183.033 26.4222C183.322 26.6494 183.741 26.5989 183.968 26.3094C184.196 26.0199 184.145 25.601 183.856 25.3738C183.175 24.8396 182.489 24.3131 181.797 23.7943C181.503 23.5734 181.085 23.633 180.864 23.9274ZM39.9849 23.9276C39.7644 23.6332 39.3466 23.5736 39.0521 23.7944C38.3604 24.3135 37.6741 24.8401 36.9938 25.3741C36.7039 25.6012 36.6539 26.0201 36.8805 26.3096C37.1077 26.5991 37.5268 26.6496 37.8167 26.4224C38.489 25.8944 39.168 25.3737 39.8517 24.8605C40.1462 24.6396 40.2061 24.222 39.9849 23.9276ZM186.928 28.7378C186.688 29.0172 186.72 29.4378 186.999 29.6774C187.648 30.234 188.291 30.7979 188.928 31.3692C189.202 31.6148 189.624 31.5919 189.869 31.3179C190.115 31.0438 190.092 30.6226 189.818 30.3769C189.174 29.7992 188.523 29.2289 187.867 28.666C187.588 28.4264 187.167 28.4586 186.928 28.7378ZM33.922 28.738C33.6821 28.4586 33.2617 28.4265 32.9825 28.6661C32.3261 29.2292 31.6758 29.7995 31.0314 30.3769C30.7576 30.6226 30.7343 31.0439 30.9801 31.3179C31.2254 31.5919 31.6471 31.6149 31.921 31.3692C32.558 30.7983 33.201 30.2343 33.85 29.6776C34.1292 29.4379 34.1612 29.0173 33.922 28.738ZM192.663 33.9344C192.406 34.1974 192.41 34.6193 192.673 34.8767C192.979 35.1757 193.283 35.4765 193.586 35.7791C193.888 36.0817 194.189 36.3858 194.488 36.6914C194.745 36.9545 195.167 36.9591 195.43 36.7017C195.693 36.4443 195.698 36.0225 195.441 35.7594C195.138 35.4504 194.834 35.1428 194.528 34.8368C194.222 34.5308 193.914 34.2265 193.605 33.9241C193.342 33.6667 192.92 33.6713 192.663 33.9344ZM28.1862 33.9345C27.929 33.6715 27.5072 33.667 27.244 33.9243C26.6257 34.529 26.014 35.1407 25.409 35.7591C25.1517 36.0222 25.1564 36.444 25.4196 36.7014C25.6822 36.9588 26.1039 36.9542 26.3618 36.6911C26.9602 36.0796 27.5645 35.4748 28.1756 34.8769C28.4388 34.6195 28.4434 34.1976 28.1862 33.9345ZM22.8029 39.4951C22.5284 39.2495 22.1073 39.2725 21.8614 39.5465C21.2844 40.1903 20.714 40.8406 20.1509 41.4973C19.9111 41.7767 19.9437 42.1973 20.2229 42.4369C20.5021 42.6765 20.9225 42.6444 21.1624 42.365C21.7195 41.7156 22.2832 41.0726 22.8542 40.4361C23.0995 40.1621 23.0768 39.7407 22.8029 39.4951ZM198.047 39.4953C197.773 39.741 197.75 40.1623 197.996 40.4363C198.567 41.0735 199.131 41.7166 199.687 42.3654C199.927 42.6446 200.348 42.6768 200.627 42.4372C200.906 42.1976 200.938 41.7769 200.699 41.4976C200.136 40.8415 199.566 40.1912 198.988 39.5467C198.742 39.2727 198.321 39.2497 198.047 39.4953ZM17.7941 45.396C17.5049 45.1688 17.0858 45.2193 16.8586 45.5088C16.3249 46.1888 15.7985 46.8752 15.2794 47.5675C15.0582 47.8619 15.1181 48.2796 15.412 48.5004C15.7065 48.7212 16.1243 48.6616 16.3448 48.3672C16.8586 47.6825 17.3797 47.004 17.9074 46.3316C18.134 46.0421 18.084 45.6233 17.7941 45.396ZM203.055 45.3963C202.766 45.6235 202.715 46.0424 202.943 46.3318C203.471 47.005 203.991 47.6835 204.504 48.3673C204.725 48.6617 205.143 48.7214 205.437 48.5005C205.732 48.2797 205.791 47.8621 205.57 47.5677C205.052 46.876 204.525 46.1898 203.991 45.5091C203.764 45.2196 203.345 45.1691 203.055 45.3963ZM13.1824 51.6116C12.8793 51.4039 12.4642 51.4817 12.2569 51.7854C12.0124 52.1423 11.7705 52.5007 11.53 52.8605C11.2894 53.2204 11.0509 53.5814 10.8143 53.9435C10.6138 54.2517 10.7004 54.6646 11.0082 54.8657C11.3167 55.0667 11.7298 54.98 11.9304 54.6718C12.1643 54.3137 12.4002 53.9567 12.6381 53.6009C12.8753 53.2451 13.1152 52.8907 13.3564 52.5378C13.5643 52.2341 13.4863 51.8195 13.1824 51.6116ZM207.667 51.612C207.363 51.8197 207.285 52.2344 207.493 52.5381C207.976 53.2442 208.451 53.9554 208.919 54.6715C209.12 54.9797 209.533 55.0666 209.841 54.8655C210.149 54.6644 210.236 54.2514 210.035 53.9433C209.562 53.219 209.082 52.4998 208.593 51.7857C208.385 51.482 207.971 51.4041 207.667 51.612ZM8.98723 58.1161C8.67073 57.9286 8.2616 58.0333 8.07437 58.35C7.63326 59.0949 7.20081 59.8439 6.77702 60.5972C6.59645 60.9179 6.71037 61.3243 7.03088 61.5048C7.35139 61.6853 7.75786 61.5717 7.93843 61.251C8.35754 60.5061 8.78534 59.7654 9.22113 59.0289C9.40837 58.7122 9.30374 58.3036 8.98723 58.1161ZM211.862 58.1161C211.545 58.3036 211.441 58.7122 211.628 59.029C212.064 59.765 212.492 60.5057 212.911 61.2509C213.092 61.5716 213.498 61.6852 213.819 61.5047C214.139 61.3242 214.253 60.9179 214.072 60.5972C213.648 59.8435 213.216 59.0945 212.775 58.35C212.587 58.0334 212.179 57.9286 211.862 58.1161ZM215.623 64.8806C215.295 65.0469 215.163 65.4479 215.33 65.7761C215.716 66.539 216.095 67.306 216.465 68.077C216.624 68.4088 217.022 68.5488 217.354 68.3902C217.685 68.2309 217.825 67.8325 217.666 67.5006C217.292 66.721 216.909 65.9452 216.519 65.1737C216.352 64.8455 215.951 64.7142 215.623 64.8806ZM5.22646 64.8807C4.89795 64.7144 4.49683 64.8456 4.33092 65.1739C3.93977 65.9458 3.55664 66.7217 3.18283 67.5013C3.02357 67.8331 3.16417 68.2309 3.496 68.3902C3.82718 68.5494 4.22563 68.4095 4.38489 68.0777C4.75403 67.3067 5.13251 66.5396 5.51964 65.7764C5.68556 65.4481 5.55429 65.0471 5.22646 64.8807ZM218.933 71.8764C218.595 72.021 218.438 72.4128 218.582 72.7513C218.918 73.5376 219.245 74.3278 219.564 75.1214C219.701 75.4633 220.089 75.6285 220.431 75.4919C220.772 75.3547 220.938 74.9662 220.801 74.625C220.479 73.8221 220.148 73.0232 219.808 72.2276C219.663 71.8891 219.272 71.7318 218.933 71.8764ZM1.91614 71.8764C1.57764 71.7318 1.18584 71.8891 1.04124 72.2276C0.701416 73.0232 0.370911 73.8228 0.0484009 74.625C-0.0888672 74.9669 0.0770569 75.3547 0.418884 75.4919C0.76004 75.6285 1.14786 75.4633 1.28513 75.1214C1.60364 74.3278 1.9308 73.5376 2.2673 72.7513C2.4119 72.4128 2.25462 72.021 1.91614 71.8764ZM221.779 79.0741C221.432 79.196 221.25 79.5765 221.372 79.9237C221.655 80.7299 221.93 81.5402 222.196 82.3531C222.311 82.7029 222.687 82.8935 223.037 82.7789C223.387 82.665 223.577 82.2885 223.463 81.9387C223.194 81.1164 222.916 80.2975 222.629 79.4819C222.507 79.1341 222.126 78.9522 221.779 79.0741ZM224.148 86.4424C223.794 86.5417 223.587 86.9088 223.686 87.2633C223.916 88.0869 224.137 88.9131 224.35 89.7421C224.441 90.0985 224.804 90.3131 225.161 90.2218C225.517 90.1305 225.732 89.7674 225.641 89.4109C225.426 88.5727 225.202 87.7371 224.969 86.9048C224.87 86.5503 224.503 86.3431 224.148 86.4424ZM226.03 93.9493C225.67 94.0252 225.439 94.3784 225.515 94.7389C225.603 95.1573 225.689 95.5765 225.772 95.9962C225.856 96.416 225.937 96.8358 226.016 97.2556C226.084 97.6174 226.432 97.856 226.793 97.788C227.155 97.72 227.393 97.3722 227.326 97.0104C227.246 96.5853 227.164 96.1601 227.079 95.7357C226.995 95.3112 226.908 94.8875 226.819 94.4643C226.743 94.1045 226.39 93.874 226.03 93.9493ZM227.417 101.565C227.053 101.617 226.8 101.954 226.852 102.318C226.973 103.165 227.084 104.014 227.186 104.862C227.231 105.228 227.562 105.488 227.928 105.444C228.293 105.4 228.554 105.068 228.51 104.703C228.406 103.844 228.293 102.987 228.171 102.13C228.119 101.765 227.781 101.513 227.417 101.565ZM228.303 109.254C227.936 109.282 227.661 109.602 227.689 109.969C227.755 110.822 227.811 111.675 227.857 112.529C227.877 112.896 228.191 113.178 228.559 113.158C228.926 113.138 229.208 112.824 229.188 112.456C229.141 111.593 229.084 110.73 229.018 109.867C228.99 109.5 228.67 109.226 228.303 109.254ZM228.684 116.984C228.316 116.988 228.021 117.289 228.025 117.657C228.034 118.513 228.034 119.368 228.025 120.223C228.021 120.591 228.316 120.892 228.684 120.896C229.052 120.9 229.354 120.606 229.358 120.237C229.367 119.373 229.367 118.508 229.358 117.643C229.354 117.275 229.052 116.98 228.684 116.984ZM228.559 124.722C228.191 124.702 227.877 124.984 227.857 125.351C227.811 126.206 227.755 127.059 227.689 127.911C227.661 128.279 227.936 128.598 228.303 128.627C228.67 128.655 228.99 128.38 229.018 128.013C229.084 127.151 229.141 126.288 229.188 125.424C229.208 125.057 228.926 124.742 228.559 124.722ZM227.928 132.437C227.562 132.393 227.23 132.652 227.186 133.018C227.084 133.867 226.972 134.715 226.852 135.562C226.8 135.926 227.053 136.264 227.417 136.316C227.781 136.368 228.119 136.115 228.171 135.75C228.293 134.894 228.406 134.036 228.509 133.177C228.554 132.812 228.293 132.48 227.928 132.437ZM226.793 140.093C226.432 140.025 226.084 140.263 226.016 140.624C225.858 141.465 225.691 142.304 225.515 143.141C225.439 143.501 225.67 143.854 226.03 143.93C226.39 144.006 226.744 143.775 226.819 143.415C226.997 142.569 227.166 141.72 227.326 140.87C227.393 140.508 227.155 140.16 226.793 140.093ZM225.161 147.658C224.804 147.567 224.441 147.781 224.35 148.138C224.138 148.966 223.916 149.792 223.686 150.616C223.587 150.971 223.794 151.338 224.148 151.438C224.503 151.536 224.87 151.33 224.969 150.975C225.202 150.142 225.426 149.306 225.641 148.469C225.732 148.113 225.517 147.749 225.161 147.658ZM223.037 155.1C222.687 154.986 222.311 155.177 222.196 155.527C221.931 156.339 221.656 157.149 221.372 157.956C221.25 158.303 221.432 158.684 221.779 158.806C222.126 158.928 222.507 158.745 222.629 158.398C222.916 157.582 223.194 156.763 223.463 155.941C223.577 155.592 223.387 155.215 223.037 155.1ZM220.431 162.388C220.089 162.251 219.701 162.417 219.564 162.758C219.405 163.155 219.243 163.551 219.08 163.947C218.916 164.342 218.75 164.736 218.582 165.129C218.438 165.468 218.595 165.859 218.933 166.004C219.272 166.148 219.663 165.991 219.808 165.652C219.978 165.255 220.145 164.856 220.311 164.456C220.476 164.057 220.64 163.656 220.801 163.255C220.938 162.913 220.772 162.525 220.431 162.388ZM217.354 169.49C217.022 169.331 216.624 169.471 216.465 169.803C216.095 170.575 215.716 171.342 215.33 172.104C215.163 172.432 215.295 172.833 215.623 172.999C215.951 173.166 216.352 173.035 216.519 172.706C216.909 171.935 217.292 171.16 217.666 170.379C217.825 170.048 217.685 169.649 217.354 169.49ZM213.818 176.376C213.498 176.195 213.091 176.309 212.911 176.63C212.491 177.375 212.064 178.115 211.628 178.851C211.441 179.168 211.545 179.577 211.862 179.764C212.179 179.952 212.587 179.847 212.775 179.53C213.215 178.786 213.648 178.038 214.072 177.283C214.253 176.963 214.139 176.556 213.818 176.376ZM209.841 183.015C209.533 182.814 209.12 182.9 208.919 183.209C208.451 183.925 207.976 184.636 207.493 185.342C207.285 185.646 207.363 186.06 207.667 186.268C207.971 186.476 208.385 186.398 208.593 186.095C209.081 185.38 209.562 184.662 210.035 183.937C210.236 183.629 210.149 183.216 209.841 183.015ZM205.437 189.38C205.143 189.159 204.725 189.219 204.504 189.513C203.991 190.197 203.47 190.876 202.942 191.549C202.715 191.838 202.766 192.257 203.055 192.484C203.345 192.711 203.763 192.661 203.991 192.371C204.525 191.691 205.051 191.004 205.57 190.313C205.791 190.018 205.731 189.6 205.437 189.38ZM200.627 195.443C200.347 195.204 199.927 195.236 199.687 195.515C199.13 196.164 198.566 196.807 197.996 197.444C197.75 197.718 197.773 198.139 198.047 198.385C198.321 198.63 198.742 198.607 198.988 198.333C199.565 197.69 200.135 197.039 200.699 196.382C200.938 196.103 200.906 195.683 200.627 195.443ZM195.43 201.179C195.167 200.921 194.745 200.926 194.488 201.189C193.89 201.8 193.285 202.405 192.674 203.003C192.411 203.261 192.406 203.683 192.663 203.946C192.921 204.208 193.343 204.213 193.606 203.956C194.224 203.351 194.836 202.739 195.44 202.121C195.698 201.858 195.693 201.436 195.43 201.179ZM189.87 206.562C189.624 206.288 189.203 206.265 188.929 206.51C188.292 207.082 187.649 207.645 187 208.202C186.72 208.442 186.688 208.863 186.928 209.142C187.167 209.421 187.588 209.454 187.867 209.214C188.524 208.651 189.174 208.08 189.818 207.503C190.092 207.257 190.115 206.836 189.87 206.562ZM183.969 211.571C183.741 211.281 183.323 211.231 183.033 211.458C182.361 211.986 181.682 212.506 180.998 213.02C180.703 213.24 180.644 213.658 180.864 213.953C181.085 214.247 181.503 214.307 181.797 214.086C182.49 213.566 183.176 213.04 183.856 212.506C184.145 212.279 184.196 211.86 183.969 211.571ZM177.753 216.182C177.545 215.878 177.131 215.8 176.827 216.008C176.474 216.25 176.12 216.489 175.764 216.727C175.408 216.965 175.051 217.2 174.693 217.434C174.385 217.635 174.298 218.048 174.499 218.357C174.7 218.664 175.113 218.751 175.421 218.55C175.783 218.314 176.144 218.075 176.504 217.835C176.864 217.595 177.222 217.352 177.579 217.108C177.883 216.901 177.961 216.485 177.753 216.182ZM171.249 220.377C171.061 220.061 170.652 219.956 170.336 220.144C169.599 220.579 168.859 221.007 168.114 221.426C167.793 221.607 167.679 222.013 167.86 222.334C168.04 222.655 168.447 222.768 168.767 222.588C169.521 222.164 170.27 221.731 171.015 221.29C171.331 221.103 171.436 220.694 171.249 220.377ZM164.484 224.138C164.318 223.81 163.917 223.679 163.588 223.845C162.825 224.232 162.058 224.611 161.287 224.98C160.955 225.139 160.815 225.538 160.975 225.869C161.134 226.201 161.532 226.341 161.863 226.182C162.643 225.808 163.419 225.426 164.191 225.034C164.519 224.868 164.65 224.467 164.484 224.138ZM157.488 227.449C157.344 227.11 156.952 226.954 156.613 227.097C155.827 227.434 155.037 227.761 154.243 228.08C153.901 228.217 153.736 228.605 153.873 228.946C154.01 229.288 154.398 229.454 154.74 229.316C155.542 228.994 156.342 228.663 157.137 228.323C157.476 228.179 157.633 227.787 157.488 227.449ZM150.291 230.294C150.169 229.947 149.788 229.765 149.441 229.887C148.634 230.171 147.824 230.446 147.012 230.712C146.662 230.826 146.471 231.203 146.585 231.553C146.7 231.902 147.076 232.093 147.426 231.978C148.248 231.709 149.067 231.431 149.883 231.144C150.23 231.022 150.413 230.642 150.291 230.294ZM142.922 232.663C142.823 232.309 142.455 232.102 142.101 232.202C141.278 232.431 140.452 232.653 139.623 232.865C139.266 232.956 139.052 233.32 139.143 233.676C139.234 234.033 139.597 234.248 139.954 234.157C140.791 233.941 141.627 233.717 142.46 233.485C142.814 233.386 143.022 233.018 142.922 232.663ZM135.415 234.546C135.34 234.185 134.986 233.955 134.626 234.031C133.789 234.207 132.95 234.373 132.109 234.531C131.747 234.599 131.509 234.947 131.577 235.309C131.645 235.67 131.993 235.909 132.355 235.841C133.205 235.681 134.053 235.513 134.9 235.335C135.26 235.259 135.491 234.906 135.415 234.546ZM127.801 235.932C127.749 235.568 127.411 235.315 127.047 235.367C126.2 235.488 125.353 235.599 124.503 235.702C124.138 235.746 123.877 236.078 123.921 236.443C123.965 236.809 124.297 237.069 124.662 237.025C125.522 236.921 126.379 236.809 127.235 236.686C127.599 236.634 127.853 236.297 127.801 235.932ZM120.112 236.819C120.084 236.451 119.763 236.177 119.396 236.205C118.544 236.27 117.69 236.326 116.836 236.373C116.468 236.393 116.187 236.707 116.207 237.074C116.227 237.442 116.541 237.723 116.909 237.703C117.773 237.656 118.636 237.599 119.498 237.534C119.865 237.506 120.14 237.185 120.112 236.819ZM112.382 237.2C112.378 236.831 112.076 236.537 111.708 236.541C111.28 236.545 110.853 236.547 110.425 236.547C110.057 236.547 109.758 236.846 109.758 237.214C109.758 237.581 110.057 237.88 110.425 237.88C110.857 237.88 111.29 237.878 111.723 237.873C112.091 237.869 112.386 237.567 112.382 237.2Z" fill="#E6E6E6"/>
</mask>
<g mask="url(#mask0_270_13060)">
<path d="M-7.84669 118.94C-7.84669 95.5475 -0.910189 72.6804 12.0859 53.2304C25.082 33.7804 43.5541 18.6209 65.1658 9.66913C86.7776 0.717261 110.558 -1.62495 133.501 2.93866C156.444 7.50229 177.518 18.7667 194.059 35.3076C210.6 51.8485 221.864 72.923 226.428 95.8654C230.992 118.808 228.649 142.589 219.698 164.201C210.746 185.813 195.586 204.285 176.136 217.281C156.686 230.277 133.819 237.213 110.427 237.213" stroke="#63BDFF" stroke-opacity="0.35" stroke-width="1.33266"/>
<path d="M-7.84669 118.94C-7.84669 95.5475 -0.910189 72.6804 12.0859 53.2304C25.082 33.7804 43.5541 18.6209 65.1658 9.66913C86.7776 0.717261 110.558 -1.62495 133.501 2.93866C156.444 7.50229 177.518 18.7667 194.059 35.3076C210.6 51.8485 221.864 72.923 226.428 95.8654C230.992 118.808 228.649 142.589 219.698 164.201C210.746 185.813 195.586 204.285 176.136 217.281C156.686 230.277 133.819 237.213 110.427 237.213" stroke="#3890C0" stroke-width="1.65266" stroke-linecap="round" stroke-dasharray="66.63 66.63"/>
</g>
</g>
</svg>
