<svg width="172" height="178" viewBox="0 0 172 178" fill="none" xmlns="http://www.w3.org/2000/svg">
<g opacity="0.1">
<mask id="mask0_270_13066" style="mask-type:alpha" maskUnits="userSpaceOnUse" x="0" y="0" width="172" height="178">
<path fill-rule="evenodd" clip-rule="evenodd" d="M81.6132 1.00177C82.2525 0.994788 82.8918 0.994778 83.5315 1.00175C83.8071 1.00475 84.0323 0.784117 84.0353 0.508951C84.0383 0.233784 83.8175 0.00828472 83.5425 0.00528483C82.8957 -0.00176815 82.249 -0.00175971 81.6022 0.00529878C81.3272 0.00830256 81.1065 0.233805 81.1095 0.508971C81.1125 0.784137 81.3377 1.00477 81.6132 1.00177ZM86.8963 0.602585C86.8809 0.877362 87.0916 1.11227 87.3667 1.12727C88.0049 1.16211 88.6427 1.20393 89.281 1.25274C89.555 1.27374 89.7947 1.06832 89.8156 0.793943C89.8366 0.519559 89.6313 0.280112 89.3567 0.25912C88.712 0.20976 88.0662 0.167465 87.421 0.132224C87.1459 0.117223 86.9112 0.327811 86.8963 0.602585ZM78.2484 0.602645C78.2335 0.327871 77.9988 0.117285 77.7238 0.132288C77.078 0.167553 76.4323 0.209861 75.7875 0.259198C75.5135 0.28019 75.3077 0.519639 75.3286 0.794017C75.35 1.0684 75.5892 1.27382 75.8638 1.25282C76.5015 1.20404 77.1393 1.1622 77.7781 1.12733C78.0531 1.11233 78.2634 0.877417 78.2484 0.602645ZM92.6642 1.07452C92.6313 1.34773 92.8261 1.59591 93.0997 1.62885C93.734 1.70536 94.3683 1.78884 95.0016 1.87929C95.2741 1.91819 95.5262 1.72888 95.5656 1.45646C95.6044 1.18404 95.4151 0.931668 95.1426 0.892773C94.5018 0.801292 93.8605 0.716871 93.2188 0.639486C92.9457 0.606546 92.6976 0.801317 92.6642 1.07452ZM72.48 1.07458C72.4472 0.801377 72.199 0.606606 71.926 0.639541C71.2837 0.716956 70.6425 0.801377 70.0022 0.892798C69.7296 0.931688 69.5403 1.18406 69.5792 1.45648C69.6185 1.7289 69.8706 1.91821 70.1432 1.87932C70.7765 1.78893 71.4103 1.70545 72.0451 1.6289C72.3186 1.59597 72.5134 1.34779 72.48 1.07458ZM98.3892 1.92271C98.3384 2.19318 98.5168 2.45357 98.7874 2.50431C99.1013 2.56326 99.4157 2.62395 99.7291 2.68638C100.043 2.7488 100.356 2.81292 100.669 2.87871C100.939 2.93533 101.203 2.76293 101.26 2.49364C101.316 2.22435 101.144 1.96014 100.875 1.90351C100.558 1.83697 100.241 1.77213 99.9239 1.709C99.6065 1.64586 99.2886 1.58449 98.9707 1.52487C98.7007 1.47413 98.4401 1.65225 98.3892 1.92271ZM66.755 1.92273C66.7047 1.65226 66.4441 1.47414 66.1735 1.52488C65.5382 1.64409 64.9035 1.77028 64.2707 1.90341C64.0011 1.96003 63.8287 2.22424 63.8855 2.49353C63.9423 2.76283 64.2064 2.93523 64.4754 2.87861C65.1018 2.74697 65.7291 2.6222 66.3574 2.50432C66.6279 2.45358 66.8058 2.1932 66.755 1.92273ZM61.0977 3.14348C61.0295 2.87691 60.7584 2.7162 60.4918 2.78451C59.8655 2.94502 59.2407 3.11242 58.6174 3.28669C58.3523 3.36082 58.1978 3.63573 58.2716 3.90075C58.3458 4.16576 58.6209 4.32052 58.8859 4.2464C59.5018 4.07407 60.1196 3.90855 60.739 3.74985C61.0055 3.68153 61.1665 3.41005 61.0977 3.14348ZM104.047 3.14356C103.979 3.41012 104.139 3.6816 104.406 3.74992C105.026 3.9088 105.643 4.07433 106.259 4.24648C106.524 4.3206 106.799 4.16584 106.873 3.90083C106.947 3.63582 106.792 3.3609 106.527 3.28678C105.905 3.11268 105.28 2.94527 104.653 2.78459C104.387 2.71627 104.115 2.87699 104.047 3.14356ZM55.5326 4.73169C55.4469 4.47016 55.1654 4.32755 54.9038 4.41316C54.2895 4.61426 53.6771 4.82217 53.0667 5.03689C52.8071 5.12818 52.6706 5.41263 52.7618 5.67223C52.853 5.93182 53.1375 6.06825 53.3971 5.97697C54.001 5.76466 54.6063 5.55907 55.2142 5.36022C55.4753 5.27462 55.6183 4.9932 55.5326 4.73169ZM109.613 4.73176C109.527 4.9933 109.669 5.27472 109.931 5.36032C110.539 5.55932 111.145 5.76491 111.748 5.97702C112.007 6.0683 112.292 5.93187 112.383 5.67228C112.474 5.41268 112.338 5.12823 112.079 5.03689C111.469 4.82244 110.856 4.61452 110.241 4.41322C109.979 4.32762 109.698 4.47023 109.613 4.73176ZM50.0831 6.68047C49.9805 6.42511 49.6905 6.30119 49.4349 6.40373C49.1349 6.52421 48.8355 6.64633 48.5365 6.7702C48.2375 6.89402 47.9396 7.01948 47.6421 7.14644C47.389 7.25451 47.2714 7.54729 47.3795 7.80036C47.4877 8.05343 47.7801 8.17097 48.0333 8.0629C48.3272 7.93733 48.6222 7.81332 48.9177 7.69084C49.2136 7.56842 49.5096 7.44764 49.8066 7.32851C50.0617 7.22596 50.1858 6.93583 50.0831 6.68047ZM115.062 6.68052C114.959 6.93588 115.083 7.22601 115.339 7.32856C115.932 7.56693 116.523 7.81167 117.111 8.0628C117.364 8.17087 117.657 8.05333 117.765 7.80026C117.873 7.54719 117.756 7.25442 117.503 7.14634C116.908 6.89238 116.31 6.64484 115.71 6.40378C115.455 6.30124 115.164 6.42516 115.062 6.68052ZM44.7721 8.9816C44.6535 8.73346 44.3556 8.62883 44.1074 8.74781C43.524 9.02773 42.944 9.31379 42.3675 9.60602C42.1219 9.73038 42.0237 10.0302 42.1483 10.2757C42.2723 10.5212 42.5723 10.6193 42.8179 10.4949C43.3879 10.206 43.9614 9.92311 44.5384 9.64633C44.7866 9.52734 44.8912 9.22973 44.7721 8.9816ZM120.373 8.9816C120.254 9.22973 120.358 9.52734 120.606 9.64633C121.183 9.92296 121.756 10.2058 122.327 10.4949C122.572 10.6193 122.872 10.5212 122.996 10.2757C123.121 10.0302 123.023 9.73043 122.777 9.60602C122.2 9.31369 121.62 9.02759 121.037 8.74786C120.789 8.62882 120.491 8.73351 120.373 8.9816ZM125.521 11.625C125.386 11.8648 125.471 12.1686 125.711 12.3036C126.268 12.6173 126.822 12.9371 127.372 13.2629C127.609 13.4031 127.915 13.3248 128.055 13.088C128.195 12.8512 128.117 12.5456 127.88 12.4054C127.323 12.0759 126.763 11.7525 126.199 11.4352C125.96 11.3003 125.656 11.3852 125.521 11.625ZM39.6236 11.625C39.4885 11.3853 39.1846 11.3003 38.9449 11.4352C38.3809 11.7527 37.8208 12.0761 37.2648 12.4054C37.0281 12.5456 36.9494 12.8512 37.0899 13.088C37.2299 13.3248 37.5354 13.4031 37.7725 13.2629C38.3226 12.9373 38.8762 12.6175 39.4337 12.3037C39.6739 12.1687 39.7586 11.8648 39.6236 11.625ZM130.486 14.5995C130.335 14.83 130.4 15.1387 130.631 15.2891C131.166 15.6384 131.698 15.9938 132.226 16.355C132.453 16.5104 132.763 16.4522 132.918 16.225C133.074 15.9979 133.016 15.6879 132.788 15.5325C132.255 15.1672 131.717 14.8078 131.175 14.4545C130.945 14.3041 130.636 14.369 130.486 14.5995ZM34.6589 14.5995C34.5089 14.3691 34.2 14.3041 33.9693 14.4545C33.4277 14.8081 32.89 15.1674 32.3564 15.5325C32.1292 15.6879 32.0709 15.998 32.2263 16.2251C32.3818 16.4522 32.6917 16.5104 32.9189 16.355C33.4466 15.994 33.9782 15.6387 34.5139 15.2891C34.7446 15.1387 34.8093 14.83 34.6589 14.5995ZM135.245 17.8922C135.08 18.1124 135.125 18.4247 135.345 18.5899C135.856 18.9734 136.363 19.3628 136.867 19.7578C137.083 19.9276 137.396 19.8899 137.566 19.6734C137.736 19.4569 137.698 19.1437 137.482 18.9738C136.973 18.5744 136.46 18.1806 135.943 17.7927C135.722 17.6276 135.41 17.6721 135.245 17.8922ZM29.8995 17.8924C29.7345 17.6723 29.4221 17.6277 29.2019 17.7928C28.6847 18.181 28.1715 18.5747 27.6628 18.974C27.446 19.1439 27.4086 19.4571 27.578 19.6736C27.748 19.8901 28.0614 19.9278 28.2781 19.7579C28.7809 19.3631 29.2886 18.9738 29.7998 18.59C30.02 18.4248 30.0649 18.1125 29.8995 17.8924ZM139.779 21.4894C139.6 21.6982 139.624 22.0128 139.833 22.192C140.318 22.6082 140.799 23.0298 141.275 23.457C141.48 23.6407 141.795 23.6235 141.979 23.4186C142.163 23.2137 142.145 22.8987 141.94 22.715C141.459 22.283 140.972 21.8565 140.482 21.4356C140.273 21.2565 139.958 21.2805 139.779 21.4894ZM25.3658 21.4895C25.1864 21.2806 24.872 21.2565 24.6632 21.4357C24.1724 21.8568 23.6861 22.2832 23.2043 22.715C22.9995 22.8987 22.9821 23.2137 23.1659 23.4186C23.3493 23.6235 23.6647 23.6408 23.8695 23.457C24.3458 23.0301 24.8266 22.6084 25.3119 22.1921C25.5207 22.0129 25.5446 21.6983 25.3658 21.4895ZM144.068 25.3752C143.875 25.5719 143.879 25.8874 144.076 26.0798C144.304 26.3034 144.531 26.5283 144.758 26.7546C144.984 26.9809 145.209 27.2083 145.433 27.4368C145.625 27.6335 145.94 27.637 146.137 27.4445C146.334 27.2521 146.337 26.9366 146.145 26.7399C145.919 26.5088 145.691 26.2788 145.462 26.05C145.234 25.8212 145.004 25.5936 144.772 25.3675C144.576 25.1751 144.26 25.1785 144.068 25.3752ZM21.0767 25.3753C20.8844 25.1786 20.569 25.1752 20.3722 25.3676C19.9098 25.8199 19.4524 26.2772 18.9999 26.7397C18.8076 26.9364 18.8111 27.2518 19.0079 27.4443C19.2042 27.6367 19.5196 27.6333 19.7125 27.4366C20.1599 26.9793 20.6118 26.5271 21.0687 26.08C21.2655 25.8875 21.269 25.572 21.0767 25.3753ZM17.0512 29.5334C16.846 29.3497 16.5311 29.3668 16.3472 29.5718C15.9157 30.0532 15.4892 30.5395 15.0681 31.0305C14.8888 31.2394 14.9132 31.554 15.122 31.7331C15.3307 31.9123 15.6451 31.8883 15.8245 31.6794C16.2411 31.1938 16.6626 30.713 17.0896 30.237C17.273 30.0321 17.256 29.717 17.0512 29.5334ZM148.094 29.5335C147.889 29.7172 147.872 30.0322 148.055 30.2371C148.483 30.7136 148.904 31.1945 149.32 31.6796C149.5 31.8885 149.814 31.9125 150.023 31.7333C150.232 31.5542 150.256 31.2396 150.077 31.0307C149.656 30.5402 149.229 30.0538 148.797 29.5719C148.614 29.367 148.299 29.3498 148.094 29.5335ZM13.3058 33.9459C13.0896 33.776 12.7761 33.8137 12.6062 34.0302C12.2071 34.5387 11.8135 35.0519 11.4253 35.5696C11.2599 35.7898 11.3048 36.1021 11.5245 36.2672C11.7447 36.4324 12.0571 36.3878 12.2221 36.1676C12.6062 35.6557 12.9959 35.1483 13.3905 34.6454C13.5599 34.429 13.5225 34.1158 13.3058 33.9459ZM151.839 33.9461C151.622 34.1159 151.585 34.4292 151.755 34.6456C152.15 35.149 152.539 35.6564 152.923 36.1677C153.088 36.3879 153.4 36.4325 153.62 36.2673C153.84 36.1022 153.885 35.7899 153.72 35.5698C153.332 35.0526 152.938 34.5395 152.539 34.0304C152.369 33.8139 152.055 33.7762 151.839 33.9461ZM9.85732 38.5937C9.6306 38.4384 9.32019 38.4966 9.16524 38.7237C8.98238 38.9906 8.8015 39.2586 8.62163 39.5276C8.44176 39.7967 8.26337 40.0667 8.08649 40.3375C7.93651 40.5679 8.00128 40.8766 8.23148 41.027C8.46217 41.1774 8.7711 41.1125 8.92107 40.882C9.09596 40.6142 9.27235 40.3473 9.45024 40.0812C9.62761 39.8152 9.80699 39.5502 9.98737 39.2863C10.1428 39.0592 10.0845 38.7491 9.85732 38.5937ZM155.287 38.594C155.06 38.7493 155.002 39.0594 155.157 39.2865C155.519 39.8145 155.874 40.3463 156.223 40.8818C156.374 41.1123 156.682 41.1772 156.913 41.0269C157.143 40.8765 157.208 40.5677 157.058 40.3373C156.705 39.7957 156.345 39.2579 155.98 38.7239C155.825 38.4968 155.514 38.4386 155.287 38.594ZM6.72025 43.4576C6.48357 43.3174 6.17764 43.3957 6.03763 43.6325C5.70778 44.1895 5.38441 44.7496 5.06752 45.3129C4.93248 45.5527 5.01768 45.8566 5.25734 45.9916C5.49701 46.1265 5.80095 46.0416 5.93597 45.8018C6.24939 45.2448 6.56927 44.6909 6.89514 44.1402C7.03516 43.9034 6.95692 43.5978 6.72025 43.4576ZM158.424 43.4576C158.188 43.5978 158.109 43.9034 158.249 44.1402C158.575 44.6906 158.895 45.2445 159.209 45.8017C159.344 46.0415 159.648 46.1265 159.887 45.9915C160.127 45.8565 160.212 45.5527 160.077 45.3129C159.76 44.7493 159.437 44.1892 159.107 43.6325C158.967 43.3957 158.661 43.3174 158.424 43.4576ZM161.237 48.5159C160.991 48.6403 160.893 48.9401 161.017 49.1856C161.307 49.756 161.589 50.3296 161.866 50.9061C161.985 51.1542 162.283 51.2588 162.531 51.1403C162.779 51.0212 162.884 50.7232 162.765 50.4751C162.485 49.8921 162.199 49.312 161.906 48.7351C161.782 48.4896 161.482 48.3915 161.237 48.5159ZM3.90805 48.516C3.6624 48.3916 3.36244 48.4897 3.23839 48.7352C2.94591 49.3124 2.65941 49.8926 2.37988 50.4756C2.26079 50.7237 2.36592 51.0212 2.61406 51.1403C2.86169 51.2593 3.15965 51.1547 3.27873 50.9066C3.55478 50.3301 3.83778 49.7564 4.12727 49.1857C4.25134 48.9402 4.15318 48.6404 3.90805 48.516ZM163.712 53.7472C163.459 53.8553 163.342 54.1483 163.45 54.4014C163.701 54.9893 163.945 55.5803 164.184 56.1737C164.286 56.4293 164.576 56.5529 164.832 56.4507C165.087 56.3481 165.211 56.0576 165.109 55.8025C164.868 55.2021 164.62 54.6047 164.366 54.0098C164.258 53.7566 163.965 53.639 163.712 53.7472ZM1.43268 53.7472C1.17957 53.639 0.886581 53.7566 0.778458 54.0098C0.524353 54.6047 0.277206 55.2026 0.0360413 55.8025C-0.0666046 56.0581 0.0574646 56.3481 0.31308 56.4507C0.568192 56.5529 0.858185 56.4293 0.960831 56.1737C1.19899 55.5803 1.44365 54.9893 1.69527 54.4014C1.80339 54.1483 1.68579 53.8553 1.43268 53.7472ZM165.84 59.1294C165.581 59.2206 165.444 59.5051 165.535 59.7647C165.747 60.3676 165.953 60.9735 166.152 61.5814C166.238 61.843 166.519 61.9855 166.781 61.8998C167.042 61.8145 167.185 61.533 167.099 61.2714C166.898 60.6566 166.69 60.0442 166.475 59.4343C166.384 59.1743 166.1 59.0382 165.84 59.1294ZM167.612 64.6392C167.347 64.7134 167.192 64.988 167.266 65.2531C167.438 65.8689 167.604 66.4868 167.762 67.1066C167.831 67.3732 168.102 67.5336 168.369 67.4654C168.635 67.3971 168.796 67.1255 168.728 66.859C168.567 66.2322 168.4 65.6073 168.226 64.985C168.151 64.7199 167.877 64.565 167.612 64.6392ZM169.019 70.2526C168.749 70.3094 168.577 70.5735 168.634 70.8431C168.699 71.156 168.764 71.4694 168.826 71.7833C168.888 72.0972 168.949 72.4111 169.008 72.725C169.059 72.9956 169.319 73.174 169.59 73.1231C169.86 73.0723 170.038 72.8122 169.988 72.5417C169.928 72.2238 169.867 71.9059 169.803 71.5885C169.74 71.2711 169.675 70.9542 169.609 70.6378C169.552 70.3687 169.288 70.1963 169.019 70.2526ZM170.056 75.9473C169.783 75.9862 169.594 76.2383 169.633 76.5108C169.724 77.1441 169.807 77.7784 169.884 78.4132C169.916 78.6862 170.165 78.8811 170.438 78.8482C170.711 78.8153 170.906 78.5667 170.873 78.2936C170.796 77.6518 170.711 77.0106 170.62 76.3698C170.581 76.0973 170.328 75.9084 170.056 75.9473ZM170.718 81.6967C170.444 81.7177 170.239 81.9573 170.26 82.2314C170.308 82.8697 170.35 83.5074 170.385 84.1462C170.4 84.4208 170.635 84.6315 170.91 84.6166C171.185 84.6011 171.395 84.3664 171.38 84.0914C171.345 83.4462 171.303 82.8009 171.253 82.1557C171.232 81.8811 170.993 81.6758 170.718 81.6967ZM171.003 87.4771C170.728 87.4801 170.508 87.7058 170.511 87.9808C170.518 88.6206 170.518 89.2599 170.511 89.8992C170.508 90.1747 170.728 90.3999 171.003 90.4029C171.279 90.4059 171.504 90.1857 171.507 89.9101C171.514 89.2639 171.514 88.6166 171.507 87.9699C171.504 87.6948 171.279 87.4741 171.003 87.4771ZM170.91 93.2639C170.635 93.249 170.4 93.4597 170.385 93.7343C170.35 94.3731 170.308 95.0113 170.26 95.6486C170.239 95.9232 170.444 96.1623 170.718 96.1838C170.993 96.2047 171.232 95.9989 171.253 95.7249C171.303 95.0801 171.345 94.4344 171.38 93.7886C171.395 93.5141 171.185 93.2789 170.91 93.2639ZM170.438 99.0323C170.165 98.9994 169.916 99.1938 169.883 99.4673C169.807 100.102 169.723 100.736 169.633 101.369C169.594 101.642 169.783 101.894 170.056 101.933C170.328 101.972 170.581 101.783 170.62 101.51C170.711 100.87 170.795 100.229 170.873 99.5864C170.906 99.3134 170.711 99.0652 170.438 99.0323ZM169.59 104.757C169.319 104.707 169.059 104.884 169.008 105.155C168.89 105.783 168.765 106.411 168.634 107.037C168.577 107.306 168.75 107.57 169.019 107.627C169.288 107.684 169.552 107.511 169.609 107.242C169.742 106.609 169.868 105.974 169.987 105.339C170.038 105.068 169.86 104.808 169.59 104.757ZM168.369 110.415C168.102 110.346 167.831 110.507 167.763 110.773C167.604 111.393 167.438 112.011 167.266 112.626C167.192 112.892 167.347 113.167 167.612 113.241C167.877 113.315 168.152 113.16 168.226 112.895C168.4 112.272 168.567 111.647 168.728 111.021C168.796 110.754 168.635 110.483 168.369 110.415ZM166.781 115.98C166.519 115.894 166.238 116.037 166.152 116.299C165.953 116.906 165.748 117.511 165.535 118.115C165.444 118.375 165.581 118.659 165.84 118.751C166.1 118.842 166.384 118.705 166.475 118.446C166.69 117.835 166.898 117.223 167.099 116.609C167.185 116.347 167.042 116.065 166.781 115.98ZM164.832 121.429C164.577 121.327 164.286 121.451 164.184 121.706C164.065 122.003 163.944 122.299 163.821 122.595C163.699 122.89 163.575 123.185 163.449 123.479C163.341 123.732 163.459 124.025 163.712 124.133C163.965 124.241 164.258 124.123 164.366 123.87C164.493 123.573 164.618 123.275 164.742 122.976C164.866 122.677 164.988 122.377 165.109 122.078C165.211 121.822 165.087 121.532 164.832 121.429ZM162.531 126.74C162.283 126.621 161.985 126.726 161.866 126.974C161.589 127.551 161.306 128.124 161.017 128.694C160.893 128.94 160.991 129.24 161.237 129.364C161.482 129.489 161.782 129.391 161.906 129.145C162.199 128.568 162.485 127.988 162.765 127.405C162.884 127.157 162.779 126.859 162.531 126.74ZM159.887 131.889C159.648 131.754 159.344 131.839 159.209 132.079C158.895 132.636 158.575 133.19 158.249 133.74C158.109 133.977 158.188 134.282 158.424 134.422C158.661 134.563 158.967 134.485 159.107 134.248C159.436 133.692 159.76 133.131 160.077 132.567C160.212 132.328 160.127 132.024 159.887 131.889ZM156.913 136.854C156.682 136.703 156.374 136.768 156.223 136.998C155.874 137.534 155.518 138.066 155.157 138.593C155.002 138.821 155.06 139.131 155.287 139.286C155.514 139.441 155.824 139.383 155.98 139.156C156.345 138.622 156.704 138.085 157.058 137.543C157.208 137.312 157.143 137.003 156.913 136.854ZM153.62 141.613C153.4 141.447 153.087 141.492 152.922 141.713C152.539 142.224 152.149 142.732 151.754 143.235C151.585 143.451 151.622 143.764 151.839 143.934C152.055 144.104 152.368 144.066 152.538 143.85C152.938 143.341 153.331 142.828 153.72 142.31C153.885 142.09 153.84 141.778 153.62 141.613ZM150.023 146.147C149.814 145.968 149.5 145.992 149.32 146.2C148.904 146.686 148.482 147.167 148.055 147.643C147.872 147.848 147.889 148.163 148.094 148.346C148.299 148.53 148.614 148.513 148.797 148.308C149.229 147.827 149.656 147.34 150.077 146.849C150.256 146.64 150.232 146.326 150.023 146.147ZM146.137 150.436C145.94 150.243 145.625 150.247 145.432 150.444C144.985 150.901 144.533 151.353 144.076 151.8C143.879 151.993 143.876 152.308 144.068 152.505C144.261 152.701 144.576 152.705 144.773 152.512C145.235 152.06 145.693 151.603 146.145 151.14C146.337 150.944 146.334 150.628 146.137 150.436ZM141.979 154.462C141.795 154.256 141.48 154.239 141.275 154.423C140.799 154.85 140.319 155.271 139.833 155.688C139.624 155.867 139.6 156.182 139.779 156.39C139.958 156.599 140.273 156.624 140.482 156.444C140.973 156.023 141.459 155.597 141.941 155.165C142.145 154.981 142.163 154.666 141.979 154.462ZM137.566 158.207C137.397 157.99 137.083 157.952 136.867 158.122C136.364 158.517 135.857 158.906 135.345 159.29C135.125 159.455 135.08 159.768 135.245 159.988C135.41 160.208 135.723 160.252 135.943 160.088C136.46 159.699 136.974 159.305 137.482 158.906C137.699 158.736 137.736 158.423 137.566 158.207ZM132.919 161.655C132.763 161.428 132.453 161.37 132.226 161.525C131.962 161.705 131.697 161.885 131.431 162.062C131.165 162.24 130.898 162.416 130.63 162.591C130.4 162.741 130.335 163.05 130.485 163.281C130.636 163.511 130.944 163.576 131.175 163.426C131.446 163.249 131.716 163.071 131.985 162.891C132.254 162.711 132.522 162.53 132.789 162.348C133.016 162.192 133.074 161.882 132.919 161.655ZM128.055 164.792C127.915 164.555 127.609 164.477 127.372 164.617C126.821 164.943 126.268 165.263 125.711 165.576C125.471 165.711 125.386 166.015 125.521 166.255C125.656 166.495 125.96 166.58 126.199 166.445C126.763 166.128 127.323 165.805 127.88 165.475C128.117 165.335 128.195 165.029 128.055 164.792ZM122.996 167.604C122.872 167.359 122.572 167.261 122.327 167.385C121.756 167.675 121.182 167.958 120.606 168.234C120.358 168.353 120.253 168.651 120.372 168.899C120.491 169.147 120.789 169.252 121.037 169.132C121.62 168.853 122.2 168.567 122.777 168.274C123.023 168.15 123.121 167.85 122.996 167.604ZM117.765 170.08C117.657 169.827 117.364 169.709 117.111 169.817C116.523 170.069 115.932 170.313 115.339 170.552C115.083 170.654 114.959 170.944 115.062 171.2C115.164 171.455 115.454 171.579 115.71 171.476C116.31 171.235 116.908 170.988 117.503 170.734C117.756 170.626 117.873 170.333 117.765 170.08ZM112.383 172.208C112.292 171.948 112.007 171.812 111.748 171.903C111.144 172.115 110.538 172.321 109.931 172.52C109.669 172.605 109.526 172.887 109.612 173.148C109.698 173.41 109.979 173.553 110.241 173.467C110.855 173.266 111.468 173.058 112.078 172.843C112.338 172.752 112.474 172.467 112.383 172.208ZM106.873 173.979C106.799 173.714 106.524 173.56 106.259 173.634C105.643 173.806 105.026 173.971 104.406 174.13C104.139 174.198 103.979 174.47 104.047 174.736C104.115 175.003 104.387 175.164 104.653 175.096C105.28 174.935 105.905 174.767 106.527 174.593C106.792 174.519 106.947 174.244 106.873 173.979ZM101.259 175.387C101.203 175.117 100.938 174.945 100.669 175.002C100.043 175.133 99.4162 175.258 98.7874 175.376C98.5168 175.427 98.3389 175.687 98.3897 175.957C98.4406 176.228 98.7007 176.406 98.9712 176.355C99.607 176.236 100.241 176.11 100.874 175.977C101.144 175.92 101.316 175.656 101.259 175.387ZM95.5656 176.424C95.5267 176.151 95.2741 175.962 95.002 176.001C94.3688 176.091 93.735 176.174 93.0997 176.251C92.8266 176.284 92.6318 176.532 92.6647 176.806C92.6976 177.079 92.9457 177.274 93.2188 177.241C93.8615 177.163 94.5028 177.079 95.1426 176.987C95.4151 176.948 95.6044 176.696 95.5656 176.424ZM89.8161 177.086C89.7952 176.812 89.5555 176.606 89.281 176.627C88.6437 176.676 88.0054 176.718 87.3667 176.753C87.0916 176.768 86.8813 177.003 86.8963 177.278C86.9112 177.552 87.1459 177.763 87.421 177.748C88.0672 177.713 88.7125 177.67 89.3572 177.621C89.6318 177.6 89.837 177.36 89.8161 177.086ZM84.0358 177.371C84.0328 177.096 83.8071 176.876 83.532 176.878C83.2121 176.882 82.8923 176.883 82.5724 176.883C82.2973 176.883 82.0741 177.107 82.0741 177.382C82.0741 177.657 82.2973 177.88 82.5724 177.88C82.8957 177.88 83.2196 177.879 83.543 177.875C83.818 177.872 84.0388 177.646 84.0358 177.371Z" fill="#E6E6E6"/>
</mask>
<g mask="url(#mask0_270_13066)">
<path d="M-5.86331 88.9398C-5.86331 71.4478 -0.676393 54.3484 9.04173 39.8042C18.7599 25.2601 32.5727 13.9242 48.7334 7.23032C64.8941 0.536367 82.6766 -1.21507 99.8328 2.19747C116.988 5.61002 132.747 14.0333 145.116 26.402C157.485 38.7709 165.908 54.5298 169.321 71.6855C172.733 88.8417 170.982 106.624 164.288 122.785C157.594 138.946 146.258 152.758 131.714 162.477C117.17 172.195 100.07 177.382 82.5784 177.382" stroke="#63BDFF" stroke-opacity="0.35" stroke-width="0.996527"/>
<path d="M-5.86331 88.9398C-5.86331 71.4478 -0.676393 54.3484 9.04173 39.8042C18.7599 25.2601 32.5727 13.9242 48.7334 7.23032C64.8941 0.536367 82.6766 -1.21507 99.8328 2.19747C116.988 5.61002 132.747 14.0333 145.116 26.402C157.485 38.7709 165.908 54.5298 169.321 71.6855C172.733 88.8417 170.982 106.624 164.288 122.785C157.594 138.946 146.258 152.758 131.714 162.477C117.17 172.195 100.07 177.382 82.5784 177.382" stroke="#3890C0" stroke-width="1.23581" stroke-linecap="round" stroke-dasharray="49.83 49.83"/>
</g>
</g>
</svg>
