<svg width="28" height="28" viewBox="0 0 28 28" fill="none" xmlns="http://www.w3.org/2000/svg">
<path d="M8.25781 4.92188H10.7188V21.3828H17.2812V4.92188H19.7422L14 0L8.25781 4.92188ZM23.0234 14.8203H24.6641L20.5625 9.89926L18.9219 11.8677V21.3828H23.0234V14.8203ZM9.07812 21.3828V11.8677L7.4375 9.89926L3.33594 14.8203H4.97656V21.3828H9.07812ZM19.0189 23.0234L21.4794 28H28L23.8441 23.0234H19.0189ZM10.8159 23.0234L8.35505 28H19.645L17.1844 23.0234H10.8159ZM8.98138 23.0234H4.15587L0 28H6.52066L8.98138 23.0234Z" fill="url(#paint0_linear_270_12963)"/>
<defs>
<linearGradient id="paint0_linear_270_12963" x1="14.1217" y1="-5.7931" x2="14" y2="28" gradientUnits="userSpaceOnUse">
<stop stop-color="#21B1F1"/>
<stop offset="0.574317" stop-color="#A6C936"/>
<stop offset="0.975962" stop-color="white"/>
</linearGradient>
</defs>
</svg>
