<svg width="42" height="9" viewBox="0 0 42 9" fill="none" xmlns="http://www.w3.org/2000/svg">
<path d="M26.1461 0H28.876C29.3395 0.0443235 32.376 3.63186 32.9635 4.22934C33.0279 4.29455 33.8677 5.15131 33.9007 5.20279L38.33 0.3959C39.1079 0.4296 39.8532 0.42732 40.6306 0.42577C41.0353 0.424962 41.9897 0.42577 41.9897 0.42577H42L36.8198 6.20219C36.8198 6.20219 35.9549 7.26655 35.5149 7.65688C35.2637 7.88084 34.9635 8.04249 34.6381 8.12881C34.2009 8.24809 33.4423 8.26865 33.0263 8.07533C32.283 7.72982 31.783 6.98542 31.2332 6.40276C30.4306 5.55188 29.6315 4.70457 28.8274 3.85546C28.4926 3.50623 27.8125 2.73661 27.4887 2.46729C26.4004 3.78423 23.9126 6.2382 23.9126 6.2382C23.9126 6.2382 22.2283 7.95162 21.4381 8.20415C19.8914 8.39491 19.3212 7.36398 18.3769 6.35156L15.7549 3.57008C15.6058 3.41322 14.7065 2.364 14.7065 2.364C14.7077 2.20748 16.616 0.308282 16.616 0.308282C16.7161 0.440343 17.1281 0.843776 17.2926 1.03871C18.1273 2.02676 19.0598 2.90543 19.8754 3.91167C20.0147 4.08381 20.9841 5.13892 21.0684 5.17517L26.1461 0Z" fill="#0686C0"/>
<path d="M13.327 0H16.1829L16.6197 0.308282L16.2791 0.701174L15.9384 1.09407L15.2571 1.87985L14.5539 2.6592L14.2023 3.04887L12.453 4.89417L11.0554 6.34979C10.0516 7.3679 9.74087 8.38397 8.04242 8.23958C7.53104 8.19218 7.04231 8.00608 6.62897 7.70141C6.31351 7.46733 5.878 6.96243 5.60115 6.662L4.36416 5.32855C2.94553 3.77479 1.34798 2.06625 0 0.465686C3.56939 0.800569 5.82431 2.95666 8.33849 5.26796L9.54958 3.89547L11.7042 1.53959C11.7042 1.53959 13.033 0.278056 13.327 0Z" fill="#54AC58"/>
</svg>
