<svg width="139" height="132" viewBox="0 0 139 132" fill="none" xmlns="http://www.w3.org/2000/svg">
<g filter="url(#filter0_d_270_13268)">
<path d="M62.7631 26.1853C74.133 25.2798 84.7246 29.9732 92.6528 37.9272C99.9752 45.2736 103.697 55.102 103.912 65.3974C104.182 78.3092 98.0164 90.4106 87.7775 98.1878C82.1503 102.441 74.0718 105.494 66.9531 105.553L66.6507 105.582C65.2867 105.723 63.4526 105.597 62.0644 105.514C53.6487 105.063 45.622 101.828 39.248 96.3194C26.1911 85.1684 22.3973 65.6734 28.9831 50.0561C35.0622 35.6405 47.284 27.3454 62.7631 26.1853Z" fill="#FEFEFE"/>
</g>
<path d="M64.4497 61.2344L64.6442 61.4125C64.3455 61.9297 64.0157 62.5441 63.5053 62.8764L63.4297 62.8185C63.7908 62.2327 64.1285 61.92 64.4497 61.2344Z" fill="#7ECFFA"/>
<path d="M88.6174 57.5859L79.2221 77.1914C78.5793 78.5335 77.7408 79.743 76.7501 80.7938L76.7468 80.797C74.1485 80.797 71.663 80.0843 69.5156 78.8087L72.6574 72.2504L75.8255 65.6422C78.1848 60.718 83.1594 57.5859 88.6174 57.5859Z" fill="url(#paint0_linear_270_13268)"/>
<path d="M76.7561 80.7984C76.7528 80.7984 76.7528 80.7984 76.7496 80.7984C74.1513 80.7984 71.6658 80.0858 69.5184 78.8101C69.4092 78.7472 69.2996 78.6811 69.1937 78.6145C66.9732 77.2159 65.1408 75.2012 63.961 72.7421L62.8209 70.3593L60.9552 66.4655L58.4267 61.193C56.6372 57.4583 59.3577 53.1367 63.5003 53.1367L66.261 58.8963L72.6601 72.2515L74.6253 76.3575L76.7528 80.7948L76.7561 80.7984Z" fill="url(#paint1_linear_270_13268)"/>
<path d="M76.7512 80.7967C76.748 80.7967 76.748 80.7967 76.7447 80.7967C74.1464 80.7967 71.6609 80.084 69.5135 78.8084C69.4044 78.7455 69.2948 78.6793 69.1888 78.6128C66.9684 77.2142 65.1359 75.1995 63.9561 72.7404L62.816 70.3576L60.9503 66.4638C59.9397 62.8979 62.465 59.1762 66.2561 58.8945L72.6553 72.2497L74.6205 76.3558L76.748 80.7931L76.7512 80.7967Z" fill="url(#paint2_linear_270_13268)"/>
<path d="M63.4247 53.1367L55.1298 70.449L54.0295 72.7425C52.8497 75.2016 51.0172 77.2163 48.7935 78.6149C46.573 80.0135 43.965 80.7988 41.2344 80.7988L43.3586 76.3648L50.6296 61.1934C52.9889 56.2687 57.9635 53.1367 63.4247 53.1367Z" fill="url(#paint3_linear_270_13268)"/>
<path d="M63.4333 53.1367L55.1383 70.449C54.0445 71.9008 52.6991 73.1236 51.1881 74.0778C48.8881 75.5259 46.1907 76.3445 43.3672 76.3644L50.6382 61.193C52.9974 56.2687 57.972 53.1367 63.4333 53.1367Z" fill="url(#paint4_linear_270_13268)"/>
<path d="M83.4801 57.5853C85.3547 57.5853 86.8743 56.0656 86.8743 54.1911C86.8743 52.3165 85.3547 50.7969 83.4801 50.7969C81.6056 50.7969 80.0859 52.3165 80.0859 54.1911C80.0859 56.0656 81.6056 57.5853 83.4801 57.5853Z" fill="url(#paint5_linear_270_13268)"/>
<path d="M58.7145 77.2806C60.5891 77.2806 62.1087 75.761 62.1087 73.8864C62.1087 72.0118 60.5891 70.4922 58.7145 70.4922C56.8399 70.4922 55.3203 72.0118 55.3203 73.8864C55.3203 75.761 56.8399 77.2806 58.7145 77.2806Z" fill="url(#paint6_linear_270_13268)"/>
<path d="M62.5393 22.1065C69.3186 21.8317 74.6768 22.715 80.9974 25.3991C86.1395 27.5971 90.8539 30.6832 94.9243 34.5158C95.3758 34.9485 96.3841 35.8549 96.5936 36.3722C95.4987 35.4735 94.3377 34.1718 93.1917 33.2011C90.65 31.048 88.0523 29.2516 85.1676 27.5951C84.496 27.2096 83.8501 27.0063 83.2362 26.6805C74.0995 21.8306 63.3271 21.0493 53.3556 23.766C42.8308 26.6336 33.3196 34.3244 27.8339 43.7406C21.8979 53.8786 20.1979 65.9448 23.1022 77.3261C26.0784 88.541 32.5648 97.8897 42.6708 103.75C52.6987 109.573 64.6237 111.202 75.8478 108.28C85.8694 105.647 94.6245 99.5346 100.545 91.0373C101.735 89.3298 102.273 88.1618 103.266 86.4537C105.865 80.6636 107.795 74.9294 108.041 68.5442C108.194 64.5762 108.106 59.9132 107.19 56.0699C106.804 54.4025 106.307 52.7627 105.703 51.1614C105.173 49.7869 104.839 49.4749 104.478 48.0127C104.567 48.2625 104.823 48.6278 104.95 48.9454C105.341 49.9342 105.786 50.9361 106.142 51.9376C107.664 56.2106 108.216 60.3551 108.42 64.8731C108.537 67.4397 108.262 69.6089 107.919 72.1295C106.996 78.931 104.367 85.8889 100.429 91.5405C99.5049 92.8672 97.6121 95.0914 96.4633 96.3315C88.8336 104.564 77.1564 109.628 65.9886 110.049C63.4945 110.143 60.3789 109.746 57.9607 109.361C49.6799 108.044 41.7727 104.492 35.5475 98.8481C29.7016 93.549 25.5318 86.4755 23.3307 78.9337C22.4571 75.9403 21.6494 72.9227 21.5331 69.7561C21.4371 67.1408 21.3677 64.2401 21.6154 61.6323C21.917 58.4599 22.7581 55.4908 23.7349 52.495C25.8529 45.999 28.5864 41.2975 33.1062 36.2752C39.2833 29.4115 47.298 24.6245 56.4151 22.9148C58.6345 22.4986 60.2272 22.2055 62.5393 22.1065Z" fill="#7ECFFA"/>
<path d="M64.7036 16.0003C65.1071 15.9909 65.9247 16.1996 66.081 16.6056C66.3878 17.4029 65.4716 17.7844 64.921 18.0572C64.4501 18.09 63.7984 17.4091 63.2891 17.042C63.808 16.5369 64.077 16.3725 64.7036 16.0003Z" fill="#7ECFFA"/>
<path d="M113.06 64.9961C113.536 65.117 114.045 65.5991 113.997 66.1341C113.934 66.8619 113.609 67.082 113.094 67.5445C112.376 67.2122 112.221 66.8704 111.758 66.2421C112.215 65.4693 112.245 65.33 113.06 64.9961Z" fill="#7ECFFA"/>
<path d="M64.5912 114.145C65.2109 114.159 65.6626 114.636 66.1219 115.035C65.6127 115.515 65.4313 115.636 64.8298 116C64.6534 115.96 63.9696 115.33 63.3203 115.131C63.6749 114.81 64.1993 114.439 64.5912 114.145Z" fill="#7ECFFA"/>
<path d="M32.4375 102.535C33.2252 102.853 34.3504 102.973 34.7198 103.886C34.8185 104.129 34.6169 104.414 34.5074 104.642L34.4151 104.748C33.5236 104.916 32.6301 103.304 32.4375 102.535Z" fill="#7ECFFA"/>
<path d="M34.1759 27.7852C34.3812 27.839 34.2864 27.7916 34.4512 27.9627L34.4399 28.218C34.1226 28.8614 32.6479 29.9989 32.0217 30.5704L31.8107 30.5592C31.3999 29.5875 33.4957 28.2495 34.1759 27.7852Z" fill="#7ECFFA"/>
<path d="M95.7578 29.0235C96.7728 29.0132 98.3537 30.3304 98.2087 31.3698C97.5637 31.2546 95.7662 29.6533 95.7578 29.0235Z" fill="#7ECFFA"/>
<path d="M98.472 100.477L98.5696 100.632C97.9515 101.798 95.8965 103.391 94.8063 104.131C94.771 104.056 94.784 104.039 94.7821 103.944C95.8166 102.879 97.352 101.417 98.472 100.477Z" fill="#7ECFFA"/>
<path d="M104.256 93.707L104.327 93.8544C104.091 94.7963 102.134 97.1447 101.366 97.8764L101.29 97.77C101.248 97.364 103.821 94.2675 104.256 93.707Z" fill="#7ECFFA"/>
<path d="M28.6514 33.4531C28.675 33.5152 28.6816 33.6243 28.6905 33.6963C28.1327 34.4234 27.3737 35.228 26.7785 35.9918C26.2765 36.6362 25.0903 38.4445 24.6093 38.8825C24.6043 38.8584 24.5957 38.8347 24.5942 38.81C24.5505 38.113 27.9565 34.1729 28.6514 33.4531Z" fill="#7ECFFA"/>
<path d="M107.782 44.4336C108.272 44.8082 110.299 49.4832 110.296 50.1506C109.994 49.9044 109.261 47.828 109.031 47.2723C108.741 46.575 107.888 45.0835 107.782 44.4336Z" fill="#7ECFFA"/>
<path d="M108.597 86.0625C108.69 86.1526 108.649 86.1097 108.688 86.265C108.306 87.2483 107.977 88.1447 107.319 88.9804L107.206 88.8394C107.14 88.329 108.249 86.5285 108.597 86.0625Z" fill="#7ECFFA"/>
<path d="M17.0078 75.0938C17.2997 75.3216 18.325 79.6684 18.4206 80.2744C18.0352 79.9684 17.1028 75.8102 17.0078 75.0938Z" fill="#7ECFFA"/>
<path d="M20.8549 45.7344C20.8819 46.194 19.3913 49.5685 19.105 50.2493C18.9504 49.5137 20.4305 46.4141 20.8549 45.7344Z" fill="#7ECFFA"/>
<path d="M38.0205 25.1172L38.0937 25.2108C37.8998 25.5213 35.6899 27.1201 35.2486 27.4501L35.1797 27.3527C35.3364 26.771 37.4067 25.5184 38.0205 25.1172Z" fill="#7ECFFA"/>
<path d="M112.116 74.7109C112.166 74.7406 112.242 74.8223 112.289 74.8668C112.114 75.8778 111.875 76.9832 111.575 77.9627L111.489 77.9795C111.354 77.5903 111.959 75.1995 112.116 74.7109Z" fill="#7ECFFA"/>
<path d="M75.7969 18.2695C76.6203 18.4035 79.5734 19.2243 80.2145 19.63C79.6948 19.6394 76.191 18.5759 75.7969 18.2695Z" fill="#7ECFFA"/>
<path d="M69.5312 17.2789C69.7715 17.142 73.4432 17.6017 73.6758 17.8059C73.6172 17.8166 73.5887 17.8264 73.5357 17.8169C72.8986 17.7026 69.8046 17.5861 69.5312 17.2789Z" fill="#7ECFFA"/>
<path d="M18.3555 52.8828C18.4348 53.2896 17.6777 55.8711 17.4783 56.3238C17.2497 55.8132 18.0419 53.434 18.3555 52.8828Z" fill="#7ECFFA"/>
<path d="M89.3932 107.945L89.3793 108.024C89.0502 108.487 86.8111 109.572 86.2074 109.811C86.194 109.72 86.2136 109.71 86.2446 109.609C87.2863 109.097 88.3717 108.404 89.3932 107.945Z" fill="#7ECFFA"/>
<path d="M16.2952 65.043L16.4809 65.1995C16.5089 65.6889 16.5078 66.6965 16.3108 67.1454C15.7414 66.6583 16.0894 65.6558 16.2952 65.043Z" fill="#7ECFFA"/>
<path d="M82.5938 20.5612L82.7091 20.5078C83.203 20.5534 85.1976 21.5915 85.5488 21.9489C85.4581 21.9273 85.3681 21.9025 85.2791 21.8745C84.725 21.702 83.3029 20.9173 82.6718 20.7155C82.6458 20.6641 82.6198 20.6127 82.5938 20.5612Z" fill="#7ECFFA"/>
<path d="M49.9138 19.1523L50.0786 19.1788C49.9268 19.5031 47.9905 20.1963 47.5199 20.3856L47.3677 20.3676L47.3672 20.2403C47.7522 19.9471 49.3739 19.3626 49.9138 19.1523Z" fill="#7ECFFA"/>
<path d="M59.1705 17.2596C59.5086 17.1914 59.9899 17.1928 60.3314 17.2451L60.3222 17.3361C59.798 17.5084 58.2992 17.532 57.6899 17.5464C57.2258 17.66 56.9257 17.7727 56.4609 17.6659C57.2107 17.5036 58.4194 17.306 59.1705 17.2596Z" fill="#7ECFFA"/>
<path d="M84.9336 110.258L84.9352 110.39C84.6376 110.766 82.4304 111.601 81.837 111.838L81.8203 111.732C82.0362 111.49 84.456 110.474 84.9336 110.258Z" fill="#7ECFFA"/>
<path d="M23.3409 40.8867L23.4174 40.9691C23.4351 41.2268 22.2444 43.1756 22.0225 43.5612L21.9297 43.5098C21.9589 42.9201 22.9721 41.4071 23.3409 40.8867Z" fill="#7ECFFA"/>
<path d="M100.954 34.1914L101.169 34.2452C101.666 34.6584 102.816 36.0502 102.985 36.6597C102.675 36.5116 101.192 34.5649 100.954 34.1914Z" fill="#7ECFFA"/>
<path d="M27.0859 97.0273C27.5668 97.1205 28.814 98.7617 29.0667 99.2376C28.5513 99.087 27.365 97.5107 27.0859 97.0273Z" fill="#7ECFFA"/>
<path d="M52.3203 113.438C52.9193 113.451 55.3452 113.955 55.6796 114.329C55.0292 114.24 52.8458 113.811 52.3203 113.438Z" fill="#7ECFFA"/>
<path d="M110.913 80.207C111.016 80.6529 110.051 82.907 109.769 83.3236C109.644 82.8659 110.654 80.714 110.913 80.207Z" fill="#7ECFFA"/>
<path d="M112.703 69.5C112.977 69.9881 112.788 72.0794 112.419 72.5667C112.315 72.324 112.643 69.8919 112.703 69.5Z" fill="#7ECFFA"/>
<path d="M79.5476 112.418L79.5326 112.515C79.134 112.876 77.1947 113.402 76.5396 113.616L76.5312 113.55C76.6911 113.247 79.039 112.582 79.5476 112.418Z" fill="#7ECFFA"/>
<path d="M16.8403 58.7422C17.0748 59.2021 16.6437 61.3129 16.482 61.8512L16.3828 61.6951C16.4496 60.8357 16.6327 59.5789 16.8403 58.7422Z" fill="#7ECFFA"/>
<path d="M112.227 57.2227C112.644 57.4387 112.824 59.6873 112.811 60.1854C112.495 59.8439 112.304 57.8243 112.227 57.2227Z" fill="#7ECFFA"/>
<path d="M20.9609 87.3438L21.1776 87.4311C21.4419 87.8374 22.3015 89.539 22.4674 89.9835C21.9875 89.7947 21.1748 87.8818 20.9609 87.3438Z" fill="#7ECFFA"/>
<path d="M44.5794 21.4062L44.7012 21.4291C44.5191 21.7527 42.6573 22.593 42.2468 22.7908L42.1562 22.7294C42.3356 22.3802 44.0968 21.6304 44.5794 21.4062Z" fill="#7ECFFA"/>
<path d="M18.8438 81.8789C19.1965 82.1186 19.8696 84.443 19.9042 84.9118C19.5518 84.6432 18.9775 82.4242 18.8438 81.8789Z" fill="#7ECFFA"/>
<path d="M38.5938 107.27C39.3069 107.365 40.5348 108.401 41.1791 108.883C40.5574 108.711 39.0197 107.791 38.5938 107.27Z" fill="#7ECFFA"/>
<path d="M54.4277 17.9961L54.4688 18.0441L54.412 18.1521C53.7927 18.4296 52.7562 18.6847 52.0722 18.8734L51.9922 18.7728C52.3096 18.4265 53.9139 18.1192 54.4277 17.9961Z" fill="#7ECFFA"/>
<path d="M16.3478 70.7148C16.6582 71.0176 16.6878 72.7476 16.7247 73.2914C16.2563 72.8671 16.3371 71.3489 16.3478 70.7148Z" fill="#7ECFFA"/>
<path d="M105.133 39.6992C105.658 39.9132 106.566 41.701 106.683 42.2804C106.403 41.9061 105.204 40.0689 105.133 39.6992Z" fill="#7ECFFA"/>
<path d="M111.158 52.4258C111.434 52.6496 111.807 54.6089 111.868 55.0469L111.661 54.9149C111.498 54.3435 111.136 52.9889 111.158 52.4258Z" fill="#7ECFFA"/>
<path d="M92.3359 105.867L92.4372 105.968C92.2671 106.39 91.109 107.011 90.6722 107.276L90.6016 107.204C90.7094 106.943 92.0171 106.09 92.3359 105.867Z" fill="#7ECFFA"/>
<path d="M90.1646 24.5547C90.7659 24.6582 91.884 25.6318 92.3311 26.0808C91.9119 26.0239 90.4155 24.9117 90.1646 24.5547Z" fill="#7ECFFA"/>
<path d="M47.7422 112.036C48.3555 111.912 49.7776 112.516 50.3085 112.854C49.8664 112.88 48.2009 112.241 47.7422 112.036Z" fill="#7ECFFA"/>
<path d="M57.8125 114.664C58.3891 114.56 60.0287 114.731 60.5771 114.964C60.1015 115.028 58.2235 114.91 57.8125 114.664Z" fill="#7ECFFA"/>
<path d="M24.375 93.4062C24.8255 93.5913 25.5941 94.8671 25.8004 95.3302C25.3401 95.1233 24.5617 93.891 24.375 93.4062Z" fill="#7ECFFA"/>
<path d="M35.7422 105.234C36.1905 105.329 37.4658 106.238 37.5698 106.708C37.1779 106.449 35.8533 105.587 35.7422 105.234Z" fill="#7ECFFA"/>
<path d="M43.9688 110.254C44.5042 110.251 45.9598 111.074 46.3731 111.462C45.7684 111.298 44.4784 110.633 43.9688 110.254Z" fill="#7ECFFA"/>
<path d="M87.1953 22.7656C87.7569 22.8536 88.9942 23.5864 89.4162 23.9965C88.8149 23.8235 87.6731 23.1701 87.1953 22.7656Z" fill="#7ECFFA"/>
<path d="M70.5976 114.669L70.7779 114.625L70.8385 114.708C70.4239 114.879 69.71 115.018 69.2526 115.122L69.0636 115.148L69.0078 115.044C69.4058 114.763 70.1244 114.697 70.5976 114.669Z" fill="#7ECFFA"/>
<path d="M74.5421 113.91L74.6768 113.912L74.6355 114.018C74.0369 114.229 73.5803 114.319 72.9655 114.449L72.8047 114.375C72.9958 114.175 74.2151 113.968 74.5421 113.91Z" fill="#7ECFFA"/>
<path d="M25.7812 95.4336C26.2773 95.5465 26.6654 96.28 26.8856 96.7046C26.4744 96.5272 26.0375 95.8178 25.7812 95.4336Z" fill="#7ECFFA"/>
<path d="M23.3594 91.8984C23.8787 92.0804 24.0073 92.5532 24.2718 93.0812C23.9554 92.9323 23.5533 92.2167 23.3594 91.8984Z" fill="#7ECFFA"/>
<defs>
<filter id="filter0_d_270_13268" x="-9.1875" y="-8.92578" width="148.107" height="149.571" filterUnits="userSpaceOnUse" color-interpolation-filters="sRGB">
<feFlood flood-opacity="0" result="BackgroundImageFix"/>
<feColorMatrix in="SourceAlpha" type="matrix" values="0 0 0 0 0 0 0 0 0 0 0 0 0 0 0 0 0 0 127 0" result="hardAlpha"/>
<feOffset/>
<feGaussianBlur stdDeviation="17.5"/>
<feComposite in2="hardAlpha" operator="out"/>
<feColorMatrix type="matrix" values="0 0 0 0 0.219608 0 0 0 0 0.564706 0 0 0 0 0.752941 0 0 0 0.3 0"/>
<feBlend mode="normal" in2="BackgroundImageFix" result="effect1_dropShadow_270_13268"/>
<feBlend mode="normal" in="SourceGraphic" in2="effect1_dropShadow_270_13268" result="shape"/>
</filter>
<linearGradient id="paint0_linear_270_13268" x1="79.1496" y1="92.8027" x2="79.1496" y2="52.7836" gradientUnits="userSpaceOnUse">
<stop stop-color="#21B1F1"/>
<stop offset="1" stop-color="#A6C936"/>
</linearGradient>
<linearGradient id="paint1_linear_270_13268" x1="67.3938" y1="47.4136" x2="67.3937" y2="95.1062" gradientUnits="userSpaceOnUse">
<stop stop-color="#A6C936"/>
<stop offset="1" stop-color="#21B1F1"/>
</linearGradient>
<linearGradient id="paint2_linear_270_13268" x1="68.8086" y1="54.363" x2="68.8085" y2="92.1254" gradientUnits="userSpaceOnUse">
<stop stop-color="#21B1F1"/>
<stop offset="1" stop-color="#A6C936"/>
</linearGradient>
<linearGradient id="paint3_linear_270_13268" x1="52.426" y1="47.4135" x2="52.426" y2="95.1068" gradientUnits="userSpaceOnUse">
<stop stop-color="#21B1F1"/>
<stop offset="1" stop-color="#A6C936"/>
</linearGradient>
<linearGradient id="paint4_linear_270_13268" x1="53.4875" y1="48.331" x2="53.4874" y2="88.3788" gradientUnits="userSpaceOnUse">
<stop stop-color="#A6C936"/>
<stop offset="1" stop-color="#21B1F1"/>
</linearGradient>
<linearGradient id="paint5_linear_270_13268" x1="83.5097" y1="49.3924" x2="83.5096" y2="61.0965" gradientUnits="userSpaceOnUse">
<stop stop-color="#21B1F1"/>
<stop offset="1" stop-color="#A6C936"/>
</linearGradient>
<linearGradient id="paint6_linear_270_13268" x1="58.744" y1="69.0877" x2="58.744" y2="80.7918" gradientUnits="userSpaceOnUse">
<stop stop-color="#21B1F1"/>
<stop offset="1" stop-color="#A6C936"/>
</linearGradient>
</defs>
</svg>
