<svg width="55" height="95" viewBox="0 0 55 95" fill="none" xmlns="http://www.w3.org/2000/svg">
<path d="M27.5 0C42.6878 0 55 12.3122 55 27.5C55 28.6649 54.9267 29.8127 54.7861 30.9395C54.9255 31.6045 55 32.2936 55 33V95H20C8.95431 95 5.1544e-07 86.0457 0 75V33C3.29612e-08 32.2936 0.0735916 31.6044 0.212891 30.9395C0.0723085 29.8127 0 28.6648 0 27.5C0 12.3122 12.3122 0 27.5 0Z" fill="white"/>
<path fill-rule="evenodd" clip-rule="evenodd" d="M22.8396 33.2265C22.7647 33.0499 22.6444 32.8963 22.4909 32.7813L22.4799 32.7736C21.3355 31.8878 20.41 30.7508 19.7747 29.4505C19.1395 28.1502 18.8116 26.7214 18.8163 25.2742C18.8163 19.9778 23.1159 15.6771 28.4134 15.6771C33.7109 15.6771 38.0105 19.9767 38.0105 25.2742C38.0112 26.7198 37.685 28.1469 37.0563 29.4486C36.4275 30.7503 35.5125 31.893 34.3798 32.7911L34.3557 32.8087C34.2113 32.9175 34.097 33.0613 34.0234 33.2265H22.8396ZM24.3474 26.8719L26.5405 29.065C26.6497 29.1737 26.7805 29.2582 26.9244 29.3131C27.0684 29.368 27.2223 29.392 27.3761 29.3836C27.5299 29.3753 27.6803 29.3347 27.8174 29.2645C27.9545 29.1943 28.0754 29.0961 28.1722 28.9762L32.5606 23.4923C32.7425 23.2651 32.8268 22.9751 32.7948 22.6858C32.7628 22.3966 32.6172 22.1319 32.3901 21.95C32.163 21.7681 31.8729 21.6838 31.5836 21.7158C31.2944 21.7478 31.0297 21.8933 30.8478 22.1205L27.2258 26.6493L25.899 25.3213C25.6907 25.1289 25.4161 25.0246 25.1326 25.0302C24.8491 25.0357 24.5788 25.1507 24.3783 25.3512C24.1777 25.5516 24.0625 25.8218 24.0567 26.1053C24.0509 26.3888 24.1551 26.6635 24.3474 26.8719ZM33.9028 35.4196C33.8973 36.1488 33.8973 36.9219 33.8973 37.6138C33.8962 38.4861 33.549 39.3224 32.9321 39.9391C32.3152 40.5558 31.4788 40.9026 30.6065 40.9035H26.2203C25.3477 40.9035 24.5108 40.5569 23.8937 39.94C23.2766 39.3231 22.9298 38.4864 22.9295 37.6138V35.4196H33.9028ZM27.3168 10.1932C27.3168 9.90235 27.4324 9.62344 27.638 9.41779C27.8437 9.21215 28.1226 9.09662 28.4134 9.09662C28.7042 9.09662 28.9832 9.21215 29.1888 9.41779C29.3944 9.62344 29.51 9.90235 29.51 10.1932V12.3863C29.51 12.6771 29.3944 12.956 29.1888 13.1617C28.9832 13.3673 28.7042 13.4829 28.4134 13.4829C28.1226 13.4829 27.8437 13.3673 27.638 13.1617C27.4324 12.956 27.3168 12.6771 27.3168 12.3863V10.1932ZM40.4789 26.646C40.1878 26.646 39.9086 26.5303 39.7027 26.3245C39.4969 26.1186 39.3812 25.8395 39.3812 25.5483C39.3812 25.2572 39.4969 24.978 39.7027 24.7722C39.9086 24.5663 40.1878 24.4507 40.4789 24.4507H42.6731C42.9642 24.4507 43.2434 24.5663 43.4493 24.7722C43.6551 24.978 43.7708 25.2572 43.7708 25.5483C43.7708 25.8395 43.6551 26.1186 43.4493 26.3245C43.2434 26.5303 42.9642 26.646 42.6731 26.646H40.4789ZM14.1537 26.646C13.8626 26.646 13.5834 26.5303 13.3776 26.3245C13.1717 26.1186 13.0561 25.8395 13.0561 25.5483C13.0561 25.2572 13.1717 24.978 13.3776 24.7722C13.5834 24.5663 13.8626 24.4507 14.1537 24.4507H16.3479C16.6391 24.4507 16.9183 24.5663 17.1241 24.7722C17.33 24.978 17.4456 25.2572 17.4456 25.5483C17.4456 25.8395 17.33 26.1186 17.1241 26.3245C16.9183 26.5303 16.6391 26.646 16.3479 26.646H14.1537ZM39.3823 13.0289C39.5907 12.8366 39.8654 12.7325 40.1489 12.7382C40.4324 12.744 40.7026 12.8592 40.903 13.0598C41.1035 13.2603 41.2185 13.5307 41.2241 13.8142C41.2296 14.0976 41.1253 14.3723 40.9329 14.5805L39.3823 16.13C39.2806 16.2318 39.1598 16.3127 39.0268 16.3679C38.8938 16.4231 38.7513 16.4515 38.6073 16.4516C38.4633 16.4517 38.3207 16.4235 38.1876 16.3685C38.0546 16.3135 37.9337 16.2328 37.8318 16.1311C37.7299 16.0293 37.6491 15.9085 37.5939 15.7755C37.5387 15.6426 37.5102 15.5 37.5101 15.356C37.51 15.212 37.5383 15.0694 37.5933 14.9364C37.6483 14.8033 37.7289 14.6824 37.8307 14.5805L39.3823 13.0289ZM15.894 14.5805C15.7016 14.3723 15.5972 14.0976 15.6028 13.8142C15.6083 13.5307 15.7234 13.2603 15.9238 13.0598C16.1242 12.8592 16.3944 12.744 16.6779 12.7382C16.9614 12.7325 17.2361 12.8366 17.4445 13.0289L18.9972 14.5805C19.1019 14.6818 19.1853 14.8028 19.2427 14.9366C19.3001 15.0705 19.3302 15.2144 19.3314 15.36C19.3326 15.5056 19.3047 15.6499 19.2495 15.7847C19.1942 15.9194 19.1127 16.0418 19.0097 16.1447C18.9067 16.2475 18.7842 16.3289 18.6494 16.3839C18.5146 16.439 18.3702 16.4666 18.2246 16.4652C18.079 16.4639 17.9351 16.4335 17.8014 16.376C17.6676 16.3184 17.5467 16.2348 17.4456 16.13L15.894 14.5805Z" fill="url(#paint0_linear_1020_7)"/>
<path d="M33.1461 75H35.8761C36.3396 75.0443 39.376 78.6319 39.9635 79.2293C40.0279 79.2945 40.8678 80.1513 40.9007 80.2028L45.3301 75.3959C46.1079 75.4296 46.8532 75.4273 47.6307 75.4258C48.0353 75.425 48.9897 75.4258 48.9897 75.4258H49L43.8199 81.2022C43.8199 81.2022 42.9549 82.2666 42.5149 82.6569C42.2638 82.8808 41.9635 83.0425 41.6382 83.1288C41.201 83.2481 40.4424 83.2687 40.0263 83.0753C39.283 82.7298 38.783 81.9854 38.2332 81.4028C37.4306 80.5519 36.6316 79.7046 35.8274 78.8555C35.4926 78.5062 34.8125 77.7366 34.4887 77.4673C33.4004 78.7842 30.9126 81.2382 30.9126 81.2382C30.9126 81.2382 29.2284 82.9516 28.4382 83.2041C26.8915 83.3949 26.3212 82.364 25.377 81.3516L22.755 78.5701C22.6058 78.4132 21.7066 77.364 21.7066 77.364C21.7078 77.2075 23.616 75.3083 23.616 75.3083C23.7161 75.4403 24.1282 75.8438 24.2926 76.0387C25.1274 77.0268 26.0599 77.9054 26.8754 78.9117C27.0147 79.0838 27.9841 80.1389 28.0685 80.1752L33.1461 75Z" fill="#0686C0"/>
<path d="M20.327 75H23.1829L23.6197 75.3083L23.2791 75.7012L22.9384 76.0941L22.2571 76.8799L21.5539 77.6592L21.2023 78.0489L19.453 79.8942L18.0554 81.3498C17.0516 82.3679 16.7409 83.384 15.0424 83.2396C14.531 83.1922 14.0423 83.0061 13.629 82.7014C13.3135 82.4673 12.878 81.9624 12.6012 81.662L11.3642 80.3285C9.94553 78.7748 8.34798 77.0663 7 75.4657C10.5694 75.8006 12.8243 77.9567 15.3385 80.268L16.5496 78.8955L18.7041 76.5396C18.7041 76.5396 20.033 75.2781 20.327 75Z" fill="#54AC58"/>
<g clip-path="url(#clip0_1020_7)">
<path d="M22.2578 49.9219H24.7188V66.3828H31.2812V49.9219H33.7422L28 45L22.2578 49.9219ZM37.0234 59.8203H38.6641L34.5625 54.8993L32.9219 56.8677V66.3828H37.0234V59.8203ZM23.0781 66.3828V56.8677L21.4375 54.8993L17.3359 59.8203H18.9766V66.3828H23.0781ZM33.0189 68.0234L35.4794 73H42L37.8441 68.0234H33.0189ZM24.8159 68.0234L22.355 73H33.645L31.1844 68.0234H24.8159ZM22.9814 68.0234H18.1559L14 73H20.5207L22.9814 68.0234Z" fill="url(#paint1_linear_1020_7)"/>
</g>
<defs>
<linearGradient id="paint0_linear_1020_7" x1="28.547" y1="2.51589" x2="28.5469" y2="57.3553" gradientUnits="userSpaceOnUse">
<stop stop-color="#21B1F1"/>
<stop offset="1" stop-color="#A6C936"/>
</linearGradient>
<linearGradient id="paint1_linear_1020_7" x1="28.1217" y1="39.2069" x2="28" y2="73" gradientUnits="userSpaceOnUse">
<stop stop-color="#21B1F1"/>
<stop offset="0.574317" stop-color="#A6C936"/>
<stop offset="0.975962" stop-color="white"/>
</linearGradient>
<clipPath id="clip0_1020_7">
<rect width="28" height="28" fill="white" transform="translate(14 45)"/>
</clipPath>
</defs>
</svg>
