<svg width="274" height="132" viewBox="0 0 274 132" fill="none" xmlns="http://www.w3.org/2000/svg">
<g filter="url(#filter0_di_270_13336)">
<path d="M24 10.2324C24 6.60487 27.194 3.80702 30.7899 4.2846L145.053 19.4602C149.03 19.9883 152 23.3794 152 27.3906V160.367C152 164.592 148.715 168.088 144.499 168.352L32.499 175.352C27.8934 175.639 24 171.982 24 167.367V10.2324Z" fill="white"/>
<path d="M24.5 10.2324C24.5 6.90737 27.4276 4.34279 30.7236 4.78027L144.987 19.9561C148.715 20.4511 151.5 23.6301 151.5 27.3906V160.367C151.5 164.328 148.421 167.605 144.468 167.853L32.4678 174.853C28.1501 175.122 24.5 171.693 24.5 167.367V10.2324Z" stroke="white"/>
</g>
<g filter="url(#filter1_d_270_13336)">
<path d="M108.924 99.3408C108.87 103.005 109.311 121.938 108.454 123.826C107.825 125.21 106.811 126.219 105.364 126.72C103.539 127.35 94.516 127.019 91.8137 127.038L72.9786 127.229C65.6636 127.321 58.3484 127.375 51.033 127.393C47.8585 127.41 44.6792 127.487 41.5101 127.469C39.9735 127.434 38.8951 127.233 37.702 126.265C35.1256 124.173 35.5893 121.193 35.579 118.209C35.5718 116.095 35.602 113.902 35.6032 111.749L35.5837 90.2873L35.5714 73.8156C35.5802 67.7851 34.0422 60.3697 42.5758 61.0964C45.4419 61.3404 48.5195 61.4844 51.3976 61.648L73.1206 62.8891L93.6251 64.0568C96.9886 64.2464 100.397 64.3846 103.757 64.6262C104.566 64.6843 105.655 65.0011 106.34 65.4412C107.825 66.3943 108.421 67.6157 108.833 69.2553C108.906 70.8194 108.946 72.3848 108.951 73.9505C108.873 80.9942 108.755 89.1844 108.952 96.1888L108.929 96.5452L108.924 99.3408Z" fill="#F9FAFC"/>
</g>
<path d="M36.5577 76.5237C36.5144 73.0151 35.0412 61.9495 40.3055 62.0872C45.7694 62.2452 51.4329 62.3563 56.844 63.052C56.9962 63.0716 58.0719 64.2676 58.2152 64.4985C60.4988 68.1777 63.9312 69.6497 66.9814 72.4379C65.344 74.6257 63.0409 77.4784 61.6274 79.7004C60.8265 79.0189 59.2483 77.9711 58.3512 77.3338L52.7432 73.3032L52.0681 74.9041C54.9077 76.7046 57.7373 79.2374 60.6189 81.0349C61.1379 81.2723 61.5262 81.4366 61.9001 81.9059C64.013 83.4931 66.3262 85.1075 68.5037 86.6187C66.3849 89.2729 64.3488 91.9921 62.3982 94.7723C60.3634 93.3267 57.5298 91.4296 55.6203 89.9144L54.4301 89.1731C53.4763 88.3934 52.3193 87.6063 51.3116 86.8849C46.4316 83.3904 41.5712 79.8206 36.5577 76.5237Z" fill="#D8DFE7"/>
<path d="M61.897 81.9062C64.0099 83.4934 66.3231 85.1078 68.5006 86.619C66.3818 89.2733 64.3457 91.9924 62.395 94.7726C60.3603 93.327 57.5267 91.43 55.6172 89.9147C55.8099 89.4856 61.3321 82.5774 61.897 81.9062Z" fill="#D8DFE7"/>
<path d="M60.6185 81.0352C61.1374 81.2725 61.5258 81.4368 61.8997 81.9061C61.3348 82.5773 55.8126 89.4855 55.6199 89.9146L54.4297 89.1733C54.6816 88.9286 55.0693 88.3652 55.2811 88.0711C56.9983 85.6866 58.9059 83.4175 60.6185 81.0352Z" fill="#EBEDF0"/>
<path d="M45.2135 65.818C48.4878 65.3542 51.523 67.6201 52.0096 70.8917C52.4964 74.1635 50.2525 77.2152 46.9849 77.725C43.6849 78.2398 40.597 75.968 40.1054 72.6637C39.6138 69.3593 41.9066 66.2866 45.2135 65.818Z" fill="#F9FAFC"/>
<path d="M45.5726 68.7692C47.2314 68.4911 48.8041 69.6029 49.0955 71.2599C49.3868 72.9169 48.2876 74.4989 46.6334 74.8035C44.9604 75.1115 43.3571 73.9969 43.0624 72.3212C42.7678 70.6454 43.8948 69.0505 45.5726 68.7692Z" fill="#39A464"/>
<path d="M74.3138 109.135C77.204 104.733 80.3711 100.183 83.1834 95.7969C87.6041 98.6654 91.8815 101.856 96.1954 104.888C96.6387 105.199 97.1378 105.546 97.551 105.889C95.3192 109.166 92.0593 114.528 89.7484 117.401C89.983 118.511 90.1136 119.265 89.436 120.297C89.299 120.504 89.1562 120.706 89.0078 120.904L88.9808 120.993C88.1445 121.463 87.7746 121.673 86.806 121.809C86.6331 122.317 84.5844 125.378 84.0758 126.273C78.6422 126.313 73.2084 126.321 67.7748 126.296C66.7032 125.413 65.6395 124.743 64.5156 123.768C65.1503 122.564 73.1505 110.371 73.7092 109.926C73.8651 109.657 74.1131 109.378 74.3138 109.135Z" fill="#D8DFE7"/>
<path d="M64.5156 123.769C65.1503 122.565 73.1505 110.371 73.7092 109.926C74.2449 110.431 74.9743 111.029 75.6861 111.247C75.9973 111.688 76.5507 111.963 77.026 112.259C77.7812 112.923 78.0703 113.099 78.9489 113.608C79.3681 114.142 79.4724 114.204 80.0176 114.569L80.2116 114.529C80.7674 114.909 81.4184 115.332 81.9461 115.735C82.317 115.982 82.9842 116.519 83.3733 116.492C83.4246 116.552 83.9499 117.166 83.95 117.167C84.3598 119.556 83.755 120.886 86.806 121.809C86.6331 122.317 84.5844 125.379 84.0758 126.273C78.6422 126.314 73.2084 126.321 67.7748 126.296C66.7032 125.413 65.6395 124.743 64.5156 123.769Z" fill="#D8DFE7"/>
<path d="M84.0865 115.752C84.3307 115.914 84.5975 116.188 84.8752 116.071C87.1888 115.092 88.3571 114.965 89.7423 117.4C89.9769 118.509 90.1075 119.264 89.4299 120.296C89.2929 120.502 89.1501 120.705 89.0017 120.903L88.9746 120.991C88.1384 121.461 87.7685 121.672 86.7999 121.808C83.7489 120.884 84.3537 119.555 83.9439 117.165C83.9438 117.165 83.4185 116.55 83.3672 116.49L84.0865 115.752Z" fill="#326AAC"/>
<path d="M86.4583 117.234C87.162 116.962 87.954 117.302 88.2422 117.999C88.5304 118.696 88.2095 119.496 87.5191 119.801C87.0582 120.004 86.5233 119.942 86.1215 119.638C85.7196 119.334 85.5138 118.836 85.5838 118.337C85.6537 117.838 85.9885 117.416 86.4583 117.234Z" fill="#F9FAFC"/>
<path d="M74.3156 109.133C75.0002 109.493 75.7707 109.927 76.2129 110.587L75.6879 111.244C74.976 111.026 74.2467 110.428 73.7109 109.923C73.8669 109.654 74.1149 109.376 74.3156 109.133Z" fill="#326AAC"/>
<path d="M77.7344 111.445C78.2958 111.816 79.0657 112.26 79.4538 112.781L78.9541 113.607C78.0756 113.098 77.7864 112.921 77.0312 112.258L77.7344 111.445Z" fill="#326AAC"/>
<path d="M79.4528 112.779C79.8859 112.645 80.9629 113.312 81.1402 113.702C80.7606 113.997 80.5294 114.152 80.2158 114.526L80.0219 114.565C79.4767 114.201 79.3724 114.138 78.9531 113.605L79.4528 112.779Z" fill="#F9FAFC"/>
<path d="M81.1353 113.703C81.6166 114.05 82.3007 114.494 82.6556 114.939L81.9454 115.733C81.4178 115.33 80.7668 114.907 80.2109 114.527C80.5245 114.154 80.7557 113.998 81.1353 113.703Z" fill="#326AAC"/>
<path d="M82.6555 114.937L82.7979 114.789C83.2564 114.951 83.8614 115.311 84.0919 115.749L83.3725 116.487C82.9835 116.515 82.3162 115.977 81.9453 115.73L82.6555 114.937Z" fill="#F9FAFC"/>
<path d="M76.2126 110.59L76.3456 110.445C76.7825 110.661 77.4442 111.045 77.7305 111.447L77.0274 112.26C76.5521 111.964 75.9987 111.689 75.6875 111.248L76.2126 110.59Z" fill="#F9FAFC"/>
<path d="M84.4291 106.446C84.5844 106.17 84.9067 106.035 85.212 106.118C85.5172 106.2 85.7275 106.479 85.723 106.796C85.7184 107.112 85.5001 107.385 85.1927 107.458C84.1197 108.437 83.6084 109.642 82.1875 110.759C82.4433 110.288 84.3633 106.523 84.4291 106.446Z" fill="#EBEDF0"/>
<path d="M84.4329 106.446C84.5883 106.17 84.9106 106.035 85.2159 106.118C85.5211 106.2 85.7314 106.479 85.7269 106.796C85.7222 107.112 85.504 107.385 85.1966 107.458C84.9289 107.523 84.6488 107.422 84.4831 107.202C84.3175 106.982 84.2978 106.685 84.4329 106.446Z" fill="#F9FAFC"/>
<path d="M74.9709 63.9375C76.0096 64.1064 77.3725 64.1336 78.4461 64.1864C83.4672 68.2935 89.6035 72.7359 94.8202 76.7501C93.8595 78.3981 91.0717 82.0732 89.8388 83.7427C87.2004 81.8853 84.2105 79.6976 81.9754 77.4097C82.5015 76.6944 84.487 74.246 84.4352 73.6163C84.0377 73.1327 84.2338 73.2533 83.7017 73.0741C82.6392 73.8073 79.3697 78.6621 78.4809 79.9691L79.1583 80.9455C80.5917 84.4724 79.5653 86.7315 77.4679 89.7173L76.5212 91.2666C76.1791 91.7642 75.0156 93.3469 74.9066 93.8153C74.3825 94.1173 74.2456 93.9755 73.7976 93.7116C73.5976 93.2114 70.6054 88.5852 70.0134 87.5732C69.4615 86.4605 69.2405 85.9318 68.8871 84.7448C68.3155 84.5799 63.825 81.1686 62.875 80.5419C65.4537 77.183 68.015 73.7426 70.4409 70.2748C71.7716 68.3725 73.8743 65.8744 74.9709 63.9375Z" fill="#D8DFE7"/>
<path d="M68.8852 84.7441C68.8601 84.4528 68.8439 84.161 68.8368 83.8689C68.8099 82.3131 69.3979 80.6796 70.4888 79.5567C71.4633 78.5468 72.8031 77.9716 74.2065 77.961C76.0432 77.9559 77.23 78.7501 78.4789 79.9684L79.1563 80.9448C80.5897 84.4717 79.5633 86.7308 77.466 89.7166L76.5192 91.2659C76.1771 91.7635 75.0136 93.3462 74.9047 93.8146C74.3805 94.1166 74.2436 93.9748 73.7957 93.7109C73.5956 93.2107 70.6034 88.5845 70.0114 87.5725C69.4595 86.4598 69.2385 85.9311 68.8852 84.7441Z" fill="#DF383C"/>
<path d="M73.7979 81.3901C74.5309 81.2228 75.3002 81.3985 75.8882 81.8671C76.4762 82.3358 76.8189 83.0468 76.8195 83.7988C76.8204 84.9496 76.0275 85.9489 74.9068 86.2093C73.5752 86.5186 72.2452 85.688 71.9385 84.3554C71.6319 83.0227 72.465 81.6941 73.7979 81.3901Z" fill="#F9FAFC"/>
<path d="M96.1168 77.8555C96.8618 78.2151 99.3467 80.1225 100.155 80.7252C102.752 82.6826 105.376 84.6033 108.027 86.4864L108.041 90.7399C105.116 94.4548 101.143 100.519 98.4479 104.545L97.4322 103.749C96.7746 103.325 96.0957 102.837 95.4615 102.372C91.7778 99.6701 87.9008 97.1683 84.2422 94.4432C88.2246 88.9539 92.0729 83.2955 96.1168 77.8555Z" fill="#BFD7CC"/>
<path d="M96.5863 86.0078C98.5749 86.4177 99.2312 89.0532 99.6242 90.7081C99.1091 92.2487 99.0844 92.8664 98.9006 94.4673C98.8388 95.0069 97.7343 95.5387 97.2028 95.7666C95.2495 95.2428 93.6174 92.7879 93.7585 90.7588C93.9286 88.3155 94.9459 87.5331 96.5863 86.0078Z" fill="#97CCE8"/>
<path d="M36.5182 92.7656C38.9067 94.165 41.488 96.3355 43.815 97.9143C44.5461 98.4105 45.6888 99.4177 46.4293 99.78C47.2125 100.061 47.8569 100.544 48.3811 101.191C50.3381 102.638 52.3429 104.029 54.3125 105.462C52.9324 107.237 50.8003 109.818 49.6067 111.604C48.4803 112.97 47.3869 114.364 46.3273 115.783C44.1186 118.397 40.8283 123.04 38.9292 125.928C37.9905 125.207 36.8774 124.296 36.6983 123.061C36.3978 120.99 36.5149 118.604 36.5135 116.514C36.5005 112.476 36.509 108.438 36.5394 104.4L36.5415 97.7625L36.5182 92.7656Z" fill="#97CCE8"/>
<path d="M36.5394 104.398C39.1215 105.193 42.6735 109.708 43.9265 112.074C44.3178 112.813 45.8227 115.24 46.3273 115.781C44.1186 118.395 40.8283 123.038 38.9292 125.926C37.9905 125.205 36.8774 124.294 36.6983 123.059C36.3978 120.988 36.5149 118.602 36.5135 116.512C36.5005 112.474 36.509 108.436 36.5394 104.398Z" fill="#BFD7CC"/>
<path d="M46.4337 99.7812C47.217 100.062 47.8614 100.545 48.3856 101.192C50.3425 102.639 52.3474 104.03 54.317 105.463C52.9369 107.239 50.8047 109.819 49.6112 111.605C47.5966 108.744 47.1775 107.217 44.5209 104.329L43.6641 103.503C44.1199 102.643 45.7264 100.383 46.4337 99.7812Z" fill="#D8DFE7"/>
<path d="M46.4337 99.7812C47.217 100.062 47.8614 100.545 48.3856 101.192C48.0394 100.983 47.5804 100.727 47.2728 100.482C46.431 101.817 45.5122 103.101 44.5209 104.329L43.6641 103.503C44.1199 102.643 45.7264 100.383 46.4337 99.7812Z" fill="#EBEDF0"/>
<path d="M36.5234 92.7617C38.912 94.1611 41.4932 96.3316 43.8202 97.9103C44.5514 98.4066 45.694 99.4137 46.4345 99.776C45.7272 100.378 44.1207 102.638 43.6649 103.498C41.8619 101.818 38.5206 99.031 36.5467 97.7585L36.5234 92.7617Z" fill="#D8DFE7"/>
<path d="M70.0081 87.5703C70.6001 88.5823 73.5923 93.2086 73.7924 93.7087C74.2403 93.9727 74.3772 94.1144 74.9014 93.8125C75.0103 93.344 76.1738 91.7613 76.5159 91.2637C77.464 91.8277 81.0665 94.1955 81.9074 94.8986L75.0294 105.263C74.8251 105.569 73.0801 107.931 73.0157 108.066C72.7932 108.604 72.7668 108.727 72.3033 109.065C71.6011 108.708 71.4799 108.607 70.8882 108.08L69.9097 107.499C69.3152 107.124 69.0194 106.871 68.4851 106.421C67.9752 106.127 67.4099 105.907 67.2047 105.402C66.7955 105.473 66.3971 105.23 66.2724 104.834C66.1867 104.561 66.2473 104.263 66.4331 104.046C64.597 102.637 62.5054 101.207 60.6172 99.8282C61.9611 98.0374 68.9869 88.3281 70.0081 87.5703Z" fill="#D8DFE7"/>
<path d="M73.7876 93.7109C74.2355 93.9749 74.3724 94.1166 74.8966 93.8147C75.3154 94.1422 75.4176 94.4443 75.3901 94.9541C74.9122 95.7142 74.374 95.8365 73.5058 95.5642C73.1031 95.2004 73.2123 95.3908 73.1094 94.8378C73.2715 94.2609 73.3988 94.1525 73.7876 93.7109Z" fill="#326AAC"/>
<path d="M66.4255 104.049C66.6343 103.804 66.9653 103.702 67.2751 103.787C67.5851 103.872 67.8181 104.128 67.8733 104.445C67.9521 104.897 67.6492 105.327 67.1971 105.405C66.7879 105.476 66.3895 105.233 66.2648 104.837C66.179 104.564 66.2397 104.266 66.4255 104.049Z" fill="#326AAC"/>
<path d="M67.8794 104.445C68.135 104.669 68.9415 105.393 69.185 105.528L68.4836 106.424C67.9736 106.13 67.4083 105.91 67.2031 105.406C67.6553 105.328 67.9582 104.897 67.8794 104.445Z" fill="#F9FAFC"/>
<path d="M71.8542 107.273C72.2006 107.54 72.6209 107.901 73.0103 108.07C72.7878 108.608 72.7614 108.73 72.2979 109.068C71.5957 108.711 71.4745 108.61 70.8828 108.083C71.248 107.655 71.3785 107.584 71.8542 107.273Z" fill="#326AAC"/>
<path d="M69.1858 105.527C69.6324 105.835 70.0806 106.171 70.5671 106.402C70.3576 106.796 70.1902 107.156 69.9089 107.502C69.3145 107.127 69.0186 106.873 68.4844 106.423L69.1858 105.527Z" fill="#326AAC"/>
<path d="M70.5645 106.398C71.1136 106.607 71.5198 106.743 71.8562 107.269C71.3805 107.579 71.25 107.65 70.8848 108.078L69.9062 107.498C70.1876 107.152 70.3549 106.792 70.5645 106.398Z" fill="#F9FAFC"/>
<path d="M69.0752 100.531C69.5676 100.561 69.7099 100.722 69.8565 101.137C69.7163 101.788 69.0998 102.488 68.6816 103.041C68.1936 102.923 68.1042 102.788 67.9844 102.348C68.1196 101.708 68.6719 101.074 69.0752 100.531Z" fill="#326AAC"/>
<path d="M71.1613 97.8438C71.6481 98.0433 71.7035 98.1109 71.8321 98.5802C71.6772 99.1818 71.3221 99.5075 70.9156 99.9901C70.4706 99.8293 70.3241 99.6206 70.2344 99.1957C70.384 98.6362 70.7701 98.2912 71.1613 97.8438Z" fill="#326AAC"/>
<path d="M72.0167 96.6171C72.2068 96.4749 72.4639 96.4611 72.6681 96.5819C72.8723 96.7029 72.9837 96.9351 72.9503 97.1702C72.9169 97.4053 72.7454 97.5972 72.5155 97.6565C72.2438 97.7266 71.9606 97.5948 71.8392 97.3418C71.7177 97.0888 71.7922 96.7852 72.0167 96.6171Z" fill="#326AAC"/>
<path d="M59.8261 100.781C60.7199 101.366 65.609 104.599 66.2743 104.836C66.3991 105.232 66.7975 105.475 67.2067 105.404C67.4119 105.909 67.9772 106.128 68.4871 106.422C69.0213 106.873 69.3172 107.126 69.9116 107.501L70.8902 108.081C71.4819 108.608 71.603 108.71 72.3052 109.067C71.525 110.565 69.9699 112.745 68.995 114.202C67.0768 117.042 65.1871 119.902 63.326 122.781C59.5669 119.724 55.8663 113.172 54.125 108.596C55.9638 105.917 58.0524 103.492 59.8261 100.781Z" fill="#D8DFE7"/>
<path d="M53.2516 109.617C56.4702 116.064 56.8653 118.911 62.5334 123.939L60.869 126.379L58.7714 126.407L52.8268 126.449L40.5391 126.521C41.7507 124.493 45.6809 119.534 47.2723 117.423C48.3938 115.956 49.4989 114.476 50.5876 112.985C51.4092 111.879 52.5371 110.638 53.2516 109.617Z" fill="#97CCE8"/>
<path d="M53.2499 109.617C56.4685 116.064 56.8636 118.911 62.5317 123.939L60.8673 126.379L58.7697 126.407C58.6511 125.881 58.0177 124.957 57.6766 124.496C54.9774 120.854 53.0353 116.766 50.5859 112.985C51.4075 111.879 52.5354 110.638 53.2499 109.617Z" fill="#D8DFE7"/>
<path d="M40.5391 126.519C41.7507 124.492 45.6809 119.533 47.2723 117.422C49.1052 120.315 51.1029 123.486 52.8268 126.448L40.5391 126.519Z" fill="#BFD7CC"/>
<path d="M36.5726 78.6406C37.9752 79.4615 40.2671 81.1258 41.6865 82.1127L53.5221 90.5144C51.8365 92.3908 49.031 96.3008 47.4032 98.4332C46.2773 97.5996 44.8802 96.7264 43.6922 95.8906C42.2718 94.7531 39.449 92.9134 37.8511 91.7948C38.9671 90.5887 42.5208 85.326 42.9528 83.8241L42.8311 83.7023C41.999 84.1625 37.5872 89.9333 36.5624 91.2129C36.4968 87.0225 36.5002 82.831 36.5726 78.6406Z" fill="#D8DFE7"/>
<path d="M98.8754 106.711C99.5185 106.958 104.593 110.75 105.09 111.365C102.452 115.756 99.7204 119.901 97.0474 124.34C94.8517 122.877 92.5332 121.18 90.2734 119.663C93.0977 115.705 96.1541 110.822 98.8754 106.711Z" fill="#D8DFE7"/>
<path d="M104.672 65.7188C108.86 66.1756 108.061 72.602 108.102 75.4668C107.116 74.7853 106.873 74.2102 105.648 74.0017L105.476 74.2321C105.906 75.2085 107.118 75.818 108.06 76.1648C108.104 78.9628 108.104 81.7612 108.061 84.5591C107.439 84.1105 106.822 83.6551 106.21 83.1929C103.294 81.1379 100.056 78.5649 97.1562 76.4002C99.3484 72.9591 102.269 69.0892 104.672 65.7188Z" fill="#D8DFE7"/>
<path d="M81.5938 64.4051C83.9886 64.2892 88.1631 64.6564 90.6565 64.8085C94.5227 65.0442 99.049 65.1226 102.854 65.525C101.794 67.217 100.127 69.4379 98.934 71.116C97.8955 72.5393 96.8698 73.972 95.8571 75.4137C95.1789 74.9269 94.4686 74.4116 93.8211 73.8849C89.8554 70.6579 85.5096 67.6766 81.5938 64.4051Z" fill="#D8DFE7"/>
<path d="M79.1513 80.9445C79.9445 80.2669 80.3804 79.3 81.1682 78.7344C81.9153 78.9036 88.2709 83.8656 89.2252 84.6334C87.3978 87.2153 84.7525 91.2057 82.8267 93.5833C81.0623 92.2607 79.177 91.0244 77.4609 89.7163C79.5583 86.7305 80.5847 84.4714 79.1513 80.9445Z" fill="#D8DFE7"/>
<path d="M106.085 111.961C106.777 112.308 107.459 112.782 108.11 113.211L108.113 115.745C108.117 117.204 108.085 118.836 108.117 120.276C108.252 126.232 104.78 126.177 100.024 126.12C99.162 126.125 98.5404 125.369 97.8672 124.765C99.4598 122.558 100.82 120.125 102.271 117.822C103.514 115.848 104.823 113.924 106.085 111.961Z" fill="#D8DFE7"/>
<path d="M54.2716 91.1641C55.6568 91.9085 60.0394 95.0902 61.3207 96.0924C59.3033 98.6659 57.2929 101.48 55.3445 104.122L55.1789 104.18C52.958 102.618 50.6417 100.835 48.4688 99.1932C49.7279 97.4223 53.489 92.7754 54.2716 91.1641Z" fill="#D8DFE7"/>
<path d="M107.89 93.6523C108.205 94.3247 108.126 109.416 107.99 110.895L107.813 111.019C106.955 110.651 104.203 108.622 103.309 107.993C102.414 107.212 100.754 106.391 100 105.463C100.099 104.576 106.867 94.9928 107.89 93.6523Z" fill="#D8DFE7"/>
<path d="M58.2109 62.918C59.8934 63.1381 62.3118 63.2183 64.0378 63.3216C67.1485 63.5175 70.2604 63.6954 73.3732 63.8556C72.2737 65.1701 71.2354 66.5515 70.1932 67.9131C69.5713 68.9323 68.3868 70.4383 67.6212 71.3578C65.4152 69.8752 62.9997 67.9118 60.9006 66.2628C60.0097 65.5629 59.1398 63.902 58.2109 62.918Z" fill="#D8DFE7"/>
<path d="M88.9763 120.991L89.0033 120.902C90.0964 121.007 95.781 125.201 96.8308 126.135C93.1821 126.22 89.5324 126.256 85.8828 126.243C86.4826 125.354 89.0716 121.869 88.9763 120.991Z" fill="#D8DFE7"/>
<path d="M63.5879 124.914C64.048 125.235 64.9561 125.809 65.1397 126.27L64.8284 126.338L62.7344 126.329L63.5879 124.914Z" fill="#D8DFE7"/>
<g filter="url(#filter2_d_270_13336)">
<path d="M123.364 60.1121C96.2216 58.6864 69.0578 56.527 41.9133 55.0112C39.7382 54.8898 38.2212 54.5845 36.7898 53.0217C34.7443 50.7885 35.1802 48.2174 35.1784 45.4664L35.1789 36.6339L35.1875 26.2884C35.1875 24.2772 35.1392 22.2229 35.2977 20.2218C35.4565 18.2154 37.7107 15.9543 39.9695 16.0007C43.681 16.0769 47.5504 16.6577 51.2608 17.0691L52.359 17.1771L53.9503 17.3732L61.4196 18.1418L63.9402 18.3952L118.014 24.2566L131.854 25.742C134.244 25.9923 136.788 26.1975 139.126 26.6014C140.937 26.914 142.895 29.2275 143 30.8742C143.201 34.0458 143.087 37.3239 143.105 40.505C143.144 44.1584 143.151 47.8119 143.126 51.4654C143.1 57.2699 143.841 61.7472 135.649 60.8958C133.488 60.6713 130.763 60.554 128.577 60.4347C127.214 60.466 124.856 60.1976 123.364 60.1121ZM67.1643 47.7387C66.8947 45.8806 66.4584 44.2983 65.2366 42.7596C63.7288 40.8679 61.4635 39.6088 58.9436 39.2619C53.1237 38.4459 49.2643 41.2091 48.4894 46.5313C51.6714 49.2362 55.1921 50.536 59.5897 50.4464C62.1486 50.3942 65.35 49.4957 67.1643 47.7387Z" fill="#F9FAFC"/>
</g>
<path d="M47.6381 46.209C42.4403 40.5161 41.3413 32.0356 47.4938 26.589C49.7899 24.5809 52.7919 23.5721 55.8344 23.786C66.8117 24.5218 73.3536 39.8372 64.8153 47.415C64.5673 45.559 64.1661 43.9785 63.0422 42.4414C61.6553 40.5519 59.5717 39.2942 57.2539 38.9477C51.9007 38.1326 48.3508 40.8927 47.6381 46.209Z" fill="#D8DFE7"/>
<path d="M55.6205 28.2668C56.6191 28.2517 57.4074 28.3825 58.2901 28.8842C59.4991 29.5844 60.3768 30.7405 60.7264 32.0935C61.5076 35.002 60.0538 37.2804 57.1691 37.9681C51.5668 38.2486 49.4681 29.5802 55.6205 28.2668Z" fill="#135091"/>
<path d="M47.6406 46.2069C48.3533 40.8906 51.9033 38.1305 57.2564 38.9456C59.5743 39.2922 61.6579 40.5498 63.0448 42.4393C64.1686 43.9764 64.5699 45.557 64.8178 47.4129C63.1491 49.168 60.2044 50.0655 57.8507 50.1176C53.8057 50.2071 50.5674 48.9088 47.6406 46.2069Z" fill="#0F5397" fill-opacity="0.913725"/>
<path d="M75.7657 39.0586C79.5352 39.2105 118.479 42.9235 118.82 43.157C119.109 43.3553 119.351 43.6918 119.398 44.043C119.477 44.6335 119.209 45.0323 118.846 45.4633C116.705 45.4102 113.524 45.0554 111.33 44.8719L97.2236 43.6795L83.5416 42.4885C81.1478 42.2749 78.744 42.0849 76.3583 41.8014C74.755 41.6109 74.796 40.0514 75.7657 39.0586Z" fill="#A5BACF"/>
<path d="M75.8303 31.2483C77.5759 31.2161 79.7792 31.5478 81.544 31.7337L91.0619 32.7403L101.376 33.8318C103.233 34.0288 105.083 34.2082 106.934 34.4599C108.805 34.7144 108.98 36.5868 107.694 37.7368C105.988 37.7428 103.561 37.4436 101.811 37.2722L91.9429 36.2672C86.8365 35.7357 81.7232 35.3002 76.6149 34.7743C75.6634 34.6764 75.0404 34.0175 75.0239 33.014C75.0107 32.2167 75.2812 31.7933 75.8303 31.2483Z" fill="#A5BACF"/>
<path d="M75.589 46.2617C77.2546 46.1812 92.7419 47.3753 93.2943 47.7384C93.5591 47.9124 93.8524 48.2244 93.9045 48.548C93.9958 49.114 93.6849 49.5731 93.3948 50.0219C91.8306 50.0725 76.2968 48.8666 75.5204 48.4522C74.843 47.7385 75.0293 47.0001 75.589 46.2617Z" fill="#D8DFE7"/>
<path d="M233.893 64.7578C233.865 65.9232 234.121 70.3695 234.53 71.2887L234.832 71.405C237.728 71.5872 239.55 71.7493 242.338 72.5957C242.828 72.7221 243.291 72.8368 243.773 72.9984C246.919 74.192 250.777 75.8097 253.093 78.3832L253.399 79.1097C255.51 79.5677 257.002 80.1138 258.875 81.2733C265.291 85.2432 269.483 94.6594 266.2 101.845L266.942 102.275C265.489 108.837 258.723 112.488 252.374 111.118C250.651 110.754 249.058 109.93 247.766 108.734C248.031 109.706 248.298 110.798 248.663 111.727C248.921 112.463 250.037 115.528 250.118 116.109C249.795 116.29 249.888 116.292 249.732 116.77C248.364 121.976 246.599 125.437 242.192 128.568C241.838 128.754 241.465 128.941 241.123 129.142C240.353 129.525 239.409 130.028 238.613 130.305C238.24 130.449 237.846 130.608 237.47 130.737C234.499 131.526 231.32 131.926 228.266 131.343L227.24 131.196C222.369 130.195 215.57 126.922 210.169 125.393C208.35 124.953 204.174 123.965 203.428 126.518C203 127.977 204.666 128.754 204.671 129.699C204.396 129.6 204.129 129.481 203.872 129.343C199.68 127.111 198.083 119.785 196.718 115.337C196.419 115.464 196.415 115.438 196.248 115.712C195.636 114.324 194.653 108.345 194.587 106.803C191.392 105.657 189.842 104.418 188.013 101.606L188.422 101.042L188.353 100.867C187.471 98.5746 187.922 96.5126 188.943 94.3295C191.275 89.3352 194.98 85.1535 200.186 83.1658L201.017 83.3164C203.899 79.9956 205.975 78.7584 209.97 76.9289C210.105 77.5307 210.144 77.9583 210.205 78.5691C211.691 78.0454 212.496 78.1341 212.254 76.4029C212.349 76.0175 212.191 73.7643 212.164 73.2397L211.93 73.0551C213.503 72.5787 215.387 72.2577 217.028 71.761C221.055 70.5411 226.22 68.7847 229.891 66.7612C230.518 66.4963 230.841 66.3492 231.431 66.0066C232.256 65.5995 233.077 65.1832 233.893 64.7578Z" fill="#F9FAFC"/>
<path d="M243.032 112.427C229.704 109.672 230.21 91.2536 238.343 83.2866C243.385 78.3474 246.551 78.4606 253.091 78.3828L253.397 79.1094C255.508 79.5673 257 80.1134 258.873 81.273C265.289 85.2428 269.481 94.659 266.199 101.845L266.94 102.275C265.487 108.837 258.722 112.488 252.372 111.118C250.649 110.754 249.056 109.93 247.764 108.734C248.029 109.705 248.297 110.798 248.661 111.727L248.028 112.122C247.072 112.417 246.084 112.611 245.078 112.605C244.604 112.51 243.559 112.464 243.032 112.427Z" fill="#F9FAFC"/>
<path d="M243.032 112.427C229.704 109.672 230.21 91.2536 238.343 83.2866C243.385 78.3474 246.551 78.4606 253.091 78.3828L253.397 79.1094C249.837 78.892 247.301 79.5874 244.493 81.8588C238.086 87.4866 237.298 97.823 242.956 104.252C244.14 105.589 245.55 106.709 247.121 107.56C254.516 110.67 261.8 108.601 266.199 101.845L266.94 102.275C265.487 108.837 258.722 112.488 252.372 111.118C250.649 110.754 249.056 109.93 247.764 108.734C248.029 109.705 248.297 110.798 248.661 111.727L248.028 112.122C247.072 112.417 246.084 112.611 245.078 112.605C244.604 112.51 243.559 112.464 243.032 112.427Z" fill="#03244B"/>
<path d="M247.284 110.313C246.691 110.37 246.095 110.402 245.499 110.408C242.936 110.397 240.485 109.353 238.702 107.512C232.546 101.266 234.445 89.6312 240.344 83.8889C241.518 82.7463 242.812 81.8163 244.493 81.8609C238.086 87.4887 237.298 97.8251 242.956 104.254C244.14 105.591 245.55 106.711 247.121 107.562L246.925 107.766C246.899 108.498 247.144 109.566 247.284 110.313Z" fill="#0C315C"/>
<path d="M233.893 64.7578C233.865 65.9232 234.121 70.3695 234.53 71.2887L234.832 71.405C237.728 71.5872 239.55 71.7493 242.338 72.5957C241.692 72.8847 239.224 73.3141 238.372 73.4934L238.303 73.4596L237.975 74.0814C236.71 75.1519 234.352 76.2607 232.794 77.1319C225.647 81.1281 217.378 85.4537 208.974 85.3387C207.772 85.3221 205.282 84.5325 205.684 82.9724C206.155 81.1465 208.718 79.6079 210.205 78.5691C211.691 78.0454 212.496 78.1341 212.254 76.4029C212.349 76.0175 212.191 73.7643 212.164 73.2397L211.93 73.0551C213.503 72.5787 215.387 72.2577 217.028 71.761C221.055 70.5411 226.22 68.7847 229.891 66.7612C230.518 66.4963 230.841 66.3492 231.431 66.0066C232.256 65.5995 233.077 65.1832 233.893 64.7578Z" fill="#03244B"/>
<path d="M238.307 73.4608C237.437 72.0439 235.86 72.5579 234.619 71.8903L234.586 71.5906L234.837 71.4062C237.732 71.5884 239.555 71.7505 242.342 72.5969C241.697 72.8859 239.229 73.3153 238.376 73.4946L238.307 73.4608Z" fill="#F9FAFC"/>
<path d="M233.226 68.3008C233.601 68.4817 233.942 73.9212 233.998 74.6794C230.014 78.5209 219.218 83.3241 213.683 81.9048C212.786 81.1888 212.963 76.8202 212.954 75.5348C219.146 77.4587 228.555 72.1846 233.226 68.3008Z" fill="#0C315C"/>
<path d="M248.662 111.727C248.921 112.463 250.036 115.527 250.117 116.108C249.794 116.29 249.887 116.292 249.731 116.769C248.364 121.975 246.598 125.437 242.191 128.568C241.837 128.753 241.465 128.94 241.122 129.142C240.352 129.524 239.408 130.028 238.613 130.304C238.239 130.448 237.846 130.607 237.469 130.736C238.953 127.355 243.572 115.729 243.033 112.427C243.56 112.464 244.605 112.51 245.079 112.605C246.085 112.611 247.073 112.417 248.029 112.122L248.662 111.727Z" fill="#F9FAFC"/>
<path d="M243.033 112.43C243.56 112.466 244.605 112.513 245.079 112.608C244.812 112.623 244.068 112.601 244.01 112.744C243.38 114.32 242.939 117.667 242.467 119.249C241.351 123.002 239.998 126.432 238.542 129.982L238.613 130.307C238.239 130.451 237.846 130.61 237.469 130.739C238.953 127.358 243.572 115.732 243.033 112.43Z" fill="#D8DFE7"/>
<path d="M248.665 111.727C248.923 112.463 250.038 115.527 250.119 116.108C249.797 116.29 249.89 116.292 249.733 116.769L248.031 112.122L248.665 111.727Z" fill="#0C315C"/>
<path d="M200.186 83.168C195.505 88.4411 193.911 93.7338 194.043 100.787C191.993 102.46 190.547 103.141 188.422 101.045L188.353 100.869C187.471 98.5768 187.922 96.5148 188.943 94.3317C191.275 89.3374 194.98 85.1557 200.186 83.168Z" fill="#F9FAFC"/>
<path d="M200.18 83.168L201.012 83.3186C195.615 90.8123 194.102 100.203 195.588 109.198C195.732 110.073 196.74 114.927 196.713 115.339C196.414 115.467 196.409 115.44 196.243 115.714C195.63 114.326 194.647 108.347 194.581 106.805C191.387 105.659 189.836 104.42 188.008 101.608L188.416 101.045C190.542 103.141 191.987 102.46 194.038 100.787C193.906 93.7338 195.5 88.4411 200.18 83.168Z" fill="#03244B"/>
<path d="M227.244 131.196C227.265 131.138 227.286 131.079 227.306 131.02C226.969 127.822 226.157 124.618 225.919 121.37C225.237 112.076 225.639 102.372 229.051 93.5964C229.497 92.4526 230.661 88.9612 231.821 88.5859C231.75 89.0434 230.57 91.4133 230.279 92.11C229.599 93.7407 229.02 95.4109 228.541 97.1113C225.949 106.441 225.716 116.782 227.256 126.295C227.397 127.162 227.921 130.595 228.271 131.343L227.244 131.196Z" fill="#D8DFE7"/>
<path d="M242.331 72.5938C242.822 72.7202 243.284 72.8349 243.766 72.9964C243.185 73.3532 238.962 73.9156 237.969 74.0794L238.296 73.4577L238.365 73.4915C239.218 73.3122 241.685 72.8828 242.331 72.5938Z" fill="#D8DFE7"/>
<path d="M211.931 73.056C211.298 73.1785 210.66 73.2896 210.022 73.3895C194.078 75.7957 184.591 69.3076 182.222 53.0442C180.733 42.8264 182.797 34.3211 188.848 25.9462C199.313 11.4578 223.265 5.71215 238.022 16.8588C238.565 17.2793 239.05 17.6257 239.508 18.1397C241.212 19.1446 243.223 21.607 244.385 23.1539C254.172 36.1816 251.529 54.4514 237.114 62.7748C236.097 63.3614 234.891 64.1216 233.894 64.7587C233.079 65.184 232.258 65.6004 231.432 66.0074C230.842 66.3501 230.519 66.4972 229.892 66.7621C226.222 68.7856 221.057 70.542 217.029 71.7619C215.388 72.2586 213.505 72.5796 211.931 73.056Z" fill="#F9FAFC"/>
<path d="M211.042 33.3524C218.094 36.6669 219.464 45.8696 217.762 52.7519C216.258 58.8361 212.263 63.0906 207.005 66.2175C200.36 70.1698 191.217 72.6107 186.748 64.21C183.307 57.9157 181.847 49.719 183.422 42.6482C184.029 39.9141 185.933 37.8243 188.335 36.5469C193.914 33.5454 204.218 31.4304 210.321 33.1272L211.042 33.3524Z" fill="#03244B"/>
<path d="M200.289 43.8684C206.139 43.7285 207.688 55.3993 201.672 57.2408C195.893 57.4659 194.061 45.8163 200.289 43.8684Z" fill="#03B6FB"/>
<path d="M185.431 48.1406C187.594 49.353 188.786 57.6622 187.109 59.5149C184.839 57.6784 183.475 50.4111 185.431 48.1406Z" fill="#03B6FB"/>
<path d="M234.685 58.0921C227.981 56.9348 224.529 50.5611 224.539 44.1825C224.55 37.3622 229.418 29.768 236.86 29.8285C244.077 29.8872 249.074 37.2553 248.833 44.0163C248.537 51.4261 243.294 58.4486 235.329 58.1744C234.271 61.4494 233.283 62.9598 231.383 65.7516L231.434 66.0102C230.844 66.3528 230.521 66.4999 229.893 66.7648C232.124 62.9112 232.987 62.8538 234.685 58.0921Z" fill="#A5BACF"/>
<path d="M236.12 30.5406C242.234 30.0066 246.911 35.3852 247.926 41.0149C248.618 44.9229 247.737 48.9463 245.475 52.2067C243.586 54.9113 241.007 56.7636 237.736 57.3528C222.931 59.5526 220.246 32.814 236.12 30.5406Z" fill="#F9FAFC"/>
<path d="M236.945 35.3204C246.513 34.317 248.601 49.6959 239.069 52.7602C234.892 53.2488 232.068 50.8121 231.013 46.8449C230.289 44.2045 230.653 41.3848 232.019 39.0128C233.195 37.008 234.721 35.8891 236.945 35.3204Z" fill="#03244B"/>
<path d="M237.02 37.2822C238.095 37.2186 238.995 37.1695 239.992 37.642C243.465 39.2885 244.281 44.2003 242.71 47.4322C241.837 49.2312 240.848 50.0338 239.018 50.703C231.753 51.7142 230.244 39.7506 237.02 37.2822Z" fill="#0C315C"/>
<path d="M210.32 33.126C212.806 25.8504 217.066 20.1925 224.444 17.3896C229.258 15.5613 233.077 15.7415 238.021 16.8587C238.565 17.2792 239.05 17.6256 239.507 18.1396C237.106 17.3862 235.316 16.7757 232.777 16.6665C222.437 16.2219 214.057 23.5118 211.116 33.103L211.041 33.3512L210.32 33.126Z" fill="#A5BACF"/>
<path d="M204.673 129.703C204.668 128.758 203.002 127.981 203.43 126.521C204.176 123.968 208.352 124.956 210.171 125.397C215.572 126.926 222.37 130.199 227.241 131.2L228.268 131.346C231.321 131.93 234.501 131.53 237.471 130.74C237.848 130.611 238.241 130.452 238.615 130.309C239.411 130.032 240.355 129.529 241.125 129.146C241.467 128.944 241.839 128.758 242.194 128.572C242.007 130.156 240.655 135.528 241.188 136.468C245.753 133.218 250.266 130.294 255.661 128.679L256.664 128.481C259.906 128.237 262.47 128.734 265.051 130.925C267.394 132.953 268.836 135.828 269.065 138.919C269.14 139.975 269.062 140.864 268.926 141.907C266.384 149.275 255.601 156.034 248.953 159.357C246.985 160.34 243.549 161.834 241.445 160.579L240.682 159.806C238.99 161.165 236.021 163.189 233.855 161.624L232.51 161.515C232.444 162.39 230.407 164.624 229.679 165.088C229.538 165.369 229.421 165.555 229.37 165.867C228.921 167.103 226.859 170.019 225.647 170.245C220.64 171.178 223.867 165.196 224.655 163.72C223.727 163.205 223.547 163.024 222.526 163.172C221.858 164.162 218.02 170.122 215.877 166.899C215.056 165.665 216.45 162.528 217.017 161.138L216.231 160.837C214.937 162.258 213.442 164.213 211.388 164.384C209.916 164.505 209.703 162.831 209.826 161.734L209.254 161.375C206.501 158.361 204.165 149.549 204.192 145.431C204.209 142.948 204.323 140.93 206.097 139.059C206.402 138.831 206.777 138.593 207.098 138.378C207.116 137.63 205.078 130.267 204.673 129.703Z" fill="#03244B"/>
<path d="M256.666 128.479C259.908 128.234 262.472 128.731 265.052 130.922C267.395 132.951 268.838 135.825 269.066 138.916C269.141 139.972 269.063 140.861 268.928 141.904C266.385 149.272 255.603 156.031 248.955 159.354C246.987 160.338 243.551 161.831 241.446 160.576C244.559 159.129 244.984 156.297 244.312 153.128C243.531 149.452 240.373 145.216 236.554 144.359C235.71 144.17 233.962 144.703 233.274 144.271C233.195 142.214 239.481 137.791 241.189 136.465C245.754 133.215 250.268 130.291 255.663 128.677L256.666 128.479Z" fill="#F9FAFC"/>
<path d="M210.176 125.398C215.577 126.928 222.375 130.201 227.246 131.201L228.273 131.348C231.326 131.932 234.506 131.532 237.476 130.742C237.853 130.613 238.246 130.454 238.62 130.31C239.416 130.034 240.36 129.53 241.13 129.148C241.699 129.999 241.324 130.638 241.122 131.581C240.671 133.697 238.267 134.109 236.479 134.757C228.524 137.637 219.055 138.144 210.881 135.893C209.573 135.533 206.587 134.662 206.461 133.087C206.429 132.473 206.147 131.391 205.868 130.816C205.544 129.999 205.263 128.055 205.619 127.253C206.363 125.578 208.591 126.161 210.176 125.398Z" fill="#0C315C"/>
<path d="M116.908 66.7106C118.508 66.1074 120.219 66.4892 122.015 66.5501C126.033 66.8046 130.052 67.0354 134.073 67.2426C136.204 67.3599 138.412 67.3958 140.513 67.751C141.794 67.9714 142.708 69.5611 142.792 70.7688C143.032 74.1811 142.794 77.6595 142.847 81.0828C142.866 82.3103 142.475 84.0048 143.499 84.7299L143.579 85.2552C141.385 84.6757 139.368 84.3749 137.078 84.6848C135.674 84.8748 134.507 85.4686 135.248 87.0981C136.088 88.9471 138.136 88.9913 139.842 89.5271C141.015 89.8956 142.596 90.8366 143.797 90.9032L144.257 90.8887L143.918 91.142C143.995 94.324 143.528 99.0153 139.002 97.6523C140.466 97.6694 141.137 97.6252 142.354 96.6765C143.671 95.6495 144.178 92.621 143.079 91.3697C142.929 91.5963 142.983 91.917 142.992 92.1886C143.151 97.1592 140.768 96.9409 136.747 96.8775C130.353 96.5714 123.843 96.8181 117.476 96.2601C116.464 96.1714 115.723 94.7837 115.313 94.0031C114.812 92.3659 115.142 72.3935 115.192 69.2618C115.209 68.2246 116.081 67.3403 116.908 66.7106Z" fill="#012D62" fill-opacity="0.917647"/>
<path d="M128.705 91.3283C127.233 91.363 125.742 91.3006 124.27 91.286C122.576 91.231 122.117 90.2751 122.247 88.6883C122.794 82.0064 130.287 79.4565 134.832 84.2927C135.048 84.5227 135.025 84.6466 134.98 84.9296L134.656 85.1646C134.427 85.9934 134.306 86.5428 134.566 87.408L134.67 87.5484C135.568 88.7395 136.587 88.9164 136.453 90.1212C136.41 90.509 136.137 90.8608 135.832 91.0615C134.797 91.7417 129.884 91.4851 128.705 91.3283Z" fill="#F9FAFC"/>
<path d="M128.453 71.9596C130.473 71.7979 132.016 72.5123 132.885 74.4264C133.427 75.6166 133.47 76.9737 133.006 78.1961C132.486 79.528 131.697 80.1555 130.442 80.7053C125.291 81.5276 123.488 73.9994 128.453 71.9596Z" fill="#F9FAFC"/>
<path d="M145.708 86.4688C146.228 86.4965 146.387 86.4685 146.84 86.6884C147.486 86.8797 147.977 87.2804 148.529 87.669C150.592 89.4069 153.738 92.7267 154.745 95.2116C154.933 95.7659 154.882 95.9747 155.291 96.1842L155.908 96.0681C156.907 95.6348 158.124 95.2006 159.137 95.7344C164.323 98.4671 175.589 109.421 177.608 114.096C177.754 114.424 177.872 114.762 177.965 115.107C178.527 119.657 178.293 122.662 175.439 126.686C174.409 128.14 172.54 129.343 170.772 129.701C164.016 130.524 153.646 118.242 150.378 113.139C149.392 111.527 149.071 110.914 148.85 109.048C148.666 108.49 148.32 108.164 147.935 107.712L147.384 107.368L147.387 107.246C146.268 106.59 145.671 106.165 144.64 105.386L144.275 104.961C144.34 104.371 145.82 103.301 146.078 102.757C146.397 102.081 146.189 100.983 146.822 100.463L147.651 100.871C147.6 100.967 148.428 98.7954 148.41 98.8479C148.25 98.5443 148.083 98.2428 147.915 97.9434L148.022 97.67C147.663 96.9094 146.198 94.7575 145.702 94.0035L145.386 93.9991C144.788 93.1986 144.075 92.195 144.4 91.1545L144.249 90.8848L143.789 90.8994C145.501 89.8251 146.413 88.5597 145.708 86.4688Z" fill="#F9FAFC"/>
<path d="M145.708 86.4688C146.228 86.4965 146.387 86.4685 146.84 86.6884C147.486 86.8797 147.977 87.2804 148.529 87.669C150.592 89.4069 153.738 92.7267 154.745 95.2116C154.933 95.7659 154.882 95.9747 155.291 96.1842L155.908 96.0681C161.659 96.8538 155.508 111.3 150.608 110.478C149.679 110.322 149.538 109.231 148.85 109.048C148.666 108.49 148.32 108.164 147.935 107.712L147.384 107.368L147.387 107.246C146.268 106.59 145.671 106.165 144.64 105.386L144.275 104.961C144.34 104.371 145.82 103.301 146.078 102.757C146.397 102.081 146.189 100.983 146.822 100.463L147.651 100.871C147.6 100.967 148.428 98.7954 148.41 98.8479C148.25 98.5443 148.083 98.2428 147.915 97.9434L148.022 97.67C147.663 96.9094 146.198 94.7575 145.702 94.0035L145.386 93.9991C144.788 93.1986 144.075 92.195 144.4 91.1545L144.249 90.8848L143.789 90.8994C145.501 89.8251 146.413 88.5597 145.708 86.4688Z" fill="#03244B"/>
<g filter="url(#filter3_d_270_13336)">
<path d="M145.708 86.4688C146.228 86.4965 146.387 86.4685 146.84 86.6884C147.486 86.8797 147.977 87.2804 148.529 87.669C150.592 89.4069 153.738 92.7267 154.745 95.2116C154.753 96.2094 154.898 97.5116 154.289 98.2783C152.746 98.8797 151.825 96.8007 148.838 98.8098C148.598 98.4727 148.271 97.979 148.022 97.67C147.663 96.9094 146.198 94.7575 145.702 94.0035L145.386 93.9991C144.788 93.1986 144.075 92.195 144.4 91.1545L144.249 90.8848L143.789 90.8994C145.501 89.8251 146.413 88.5597 145.708 86.4688Z" fill="#F9FAFC"/>
</g>
<path d="M145.708 86.4688C146.228 86.4965 146.387 86.4685 146.84 86.6884C147.753 89.1265 146.587 90.8082 144.4 91.8252C144.652 92.2397 145.546 93.6421 145.702 94.0035L145.386 93.9991C144.788 93.1986 144.075 92.195 144.4 91.1545L144.249 90.8848L143.789 90.8994C145.501 89.8251 146.413 88.5597 145.708 86.4688Z" fill="#03244B"/>
<g filter="url(#filter4_d_270_13336)">
<path d="M144.646 105.384L144.281 104.959C144.346 104.369 145.826 103.299 146.084 102.755C146.404 102.079 146.195 100.981 146.829 100.461L147.657 100.869C150.833 102.696 151.152 106.088 147.393 107.244C146.275 106.588 145.677 106.163 144.646 105.384Z" fill="#F9FAFC"/>
</g>
<path d="M150.876 98.8405C157.113 98.4087 156.337 106.699 150.956 108.852C150.19 108.729 149.332 108.507 148.721 108.012C148.704 107.918 148.686 107.824 148.67 107.73C150.756 106.196 152.115 103.996 149.968 101.732C149.477 101.214 149.284 100.975 148.43 100.534C149.36 99.5514 149.608 99.2229 150.876 98.8405Z" fill="#0C315C"/>
<path d="M155.496 96.9375C156.481 97.8047 156.748 100.282 155.981 101.252C155.592 100.471 155.377 100.164 154.859 99.4533C155.209 98.4247 155.331 98.0061 155.496 96.9375Z" fill="#0C315C"/>
<path d="M116.596 129.403C115.564 128.394 115.079 127.457 115.086 125.982C115.119 119.459 114.938 112.806 115.157 106.298C115.293 102.268 120.907 103.144 123.792 103.189L133.911 103.351C136.582 103.877 139.234 102.853 141.478 103.825C143.702 106.227 142.862 107.905 143.012 110.893C143.196 114.561 142.698 118.808 143.028 122.416C143.031 123.17 143 125.571 143.111 126.188C142.223 130.068 140.154 129.857 136.71 129.8C135.595 129.781 134.402 129.77 133.286 129.77C132.386 129.673 130.779 129.735 129.826 129.743C125.905 129.604 121.883 130.023 117.96 129.864C117.601 129.849 116.933 129.552 116.596 129.403Z" fill="#022E62" fill-opacity="0.972549"/>
<path d="M118.141 113C118.141 111.895 119.036 111 120.141 111H124.141C125.245 111 126.141 111.895 126.141 113V125.438C126.141 126.74 124.918 127.694 123.656 127.379L119.656 126.379C118.765 126.156 118.141 125.356 118.141 124.438V113Z" fill="#1D6C97"/>
<rect x="123.141" y="107" width="9" height="21" rx="2" fill="white"/>
<path d="M124.143 118.533C124.08 117.512 125.836 116.904 125.957 117.92C125.964 117.972 125.966 118.025 125.964 118.08C125.936 119.113 124.207 119.565 124.143 118.533Z" fill="#135091"/>
<rect x="133.141" y="112" width="7" height="15" rx="1" fill="#1D6C97"/>
<g style="mix-blend-mode:multiply" opacity="0.4">
<path d="M136.85 119.76C137.533 119.077 137.533 117.97 136.85 117.287C136.167 116.604 135.06 116.604 134.377 117.287C133.694 117.97 133.694 119.077 134.377 119.76C135.06 120.443 136.167 120.443 136.85 119.76Z" fill="white"/>
<path d="M136.882 119.725C137.564 119.042 137.564 117.935 136.882 117.252C136.199 116.569 135.091 116.569 134.408 117.252C133.725 117.935 133.725 119.042 134.408 119.725C135.091 120.408 136.199 120.408 136.882 119.725Z" fill="#F9FDF7"/>
<path d="M136.921 119.694C137.603 119.011 137.603 117.903 136.921 117.22C136.238 116.538 135.13 116.538 134.447 117.22C133.765 117.903 133.765 119.011 134.447 119.694C135.13 120.376 136.238 120.376 136.921 119.694Z" fill="#F3FBEF"/>
<path d="M136.952 119.658C137.635 118.975 137.635 117.868 136.952 117.185C136.269 116.502 135.162 116.502 134.479 117.185C133.796 117.868 133.796 118.975 134.479 119.658C135.162 120.341 136.269 120.341 136.952 119.658Z" fill="#ECFAE6"/>
<path d="M136.983 119.623C137.666 118.94 137.666 117.833 136.983 117.15C136.3 116.467 135.193 116.467 134.51 117.15C133.827 117.833 133.827 118.94 134.51 119.623C135.193 120.306 136.3 120.306 136.983 119.623Z" fill="#E6F8DE"/>
<path d="M137.022 119.588C137.705 118.905 137.705 117.798 137.022 117.115C136.339 116.432 135.232 116.432 134.549 117.115C133.866 117.798 133.866 118.905 134.549 119.588C135.232 120.271 136.339 120.271 137.022 119.588Z" fill="#E0F6D6"/>
<path d="M137.053 119.557C137.736 118.874 137.736 117.767 137.053 117.084C136.37 116.401 135.263 116.401 134.58 117.084C133.897 117.767 133.897 118.874 134.58 119.557C135.263 120.24 136.37 120.24 137.053 119.557Z" fill="#DAF4CE"/>
<path d="M137.085 119.522C137.768 118.839 137.768 117.732 137.085 117.049C136.402 116.366 135.294 116.366 134.612 117.049C133.929 117.732 133.929 118.839 134.612 119.522C135.294 120.205 136.402 120.205 137.085 119.522Z" fill="#D4F2C5"/>
<path d="M137.124 119.487C137.807 118.804 137.807 117.696 137.124 117.013C136.441 116.331 135.334 116.331 134.651 117.013C133.968 117.696 133.968 118.804 134.651 119.487C135.334 120.169 136.441 120.169 137.124 119.487Z" fill="#CDF1BD"/>
<path d="M137.155 119.455C137.838 118.772 137.838 117.665 137.155 116.982C136.472 116.299 135.365 116.299 134.682 116.982C133.999 117.665 133.999 118.772 134.682 119.455C135.365 120.138 136.472 120.138 137.155 119.455Z" fill="#C7EFB5"/>
<path d="M137.186 119.42C137.869 118.737 137.869 117.63 137.186 116.947C136.503 116.264 135.396 116.264 134.713 116.947C134.03 117.63 134.03 118.737 134.713 119.42C135.396 120.103 136.503 120.103 137.186 119.42Z" fill="#C1EDAD"/>
<path d="M135.983 119.9C136.949 119.9 137.732 119.117 137.732 118.151C137.732 117.185 136.949 116.402 135.983 116.402C135.017 116.402 134.234 117.185 134.234 118.151C134.234 119.117 135.017 119.9 135.983 119.9Z" fill="#BBEBA5"/>
<path d="M136.022 119.865C136.988 119.865 137.771 119.082 137.771 118.116C137.771 117.15 136.988 116.367 136.022 116.367C135.056 116.367 134.273 117.15 134.273 118.116C134.273 119.082 135.056 119.865 136.022 119.865Z" fill="#B5E99C"/>
<path d="M137.288 119.319C137.971 118.636 137.971 117.528 137.288 116.845C136.605 116.163 135.498 116.163 134.815 116.845C134.132 117.528 134.132 118.636 134.815 119.319C135.498 120.001 136.605 120.001 137.288 119.319Z" fill="#AEE894"/>
<path d="M137.327 119.283C138.01 118.6 138.01 117.493 137.327 116.81C136.644 116.127 135.537 116.127 134.854 116.81C134.171 117.493 134.171 118.6 134.854 119.283C135.537 119.966 136.644 119.966 137.327 119.283Z" fill="#A8E68C"/>
<path d="M136.124 119.763C137.09 119.763 137.873 118.98 137.873 118.014C137.873 117.049 137.09 116.266 136.124 116.266C135.158 116.266 134.375 117.049 134.375 118.014C134.375 118.98 135.158 119.763 136.124 119.763Z" fill="#A2E484"/>
<path d="M136.155 119.728C137.121 119.728 137.904 118.945 137.904 117.979C137.904 117.013 137.121 116.23 136.155 116.23C135.189 116.23 134.406 117.013 134.406 117.979C134.406 118.945 135.189 119.728 136.155 119.728Z" fill="#9CE27B"/>
<path d="M136.194 119.693C137.16 119.693 137.943 118.91 137.943 117.944C137.943 116.978 137.16 116.195 136.194 116.195C135.228 116.195 134.445 116.978 134.445 117.944C134.445 118.91 135.228 119.693 136.194 119.693Z" fill="#96E073"/>
<path d="M136.225 119.662C137.191 119.662 137.974 118.879 137.974 117.913C137.974 116.947 137.191 116.164 136.225 116.164C135.26 116.164 134.477 116.947 134.477 117.913C134.477 118.879 135.26 119.662 136.225 119.662Z" fill="#90DE6B"/>
<path d="M137.499 119.115C138.182 118.433 138.182 117.325 137.499 116.642C136.816 115.959 135.709 115.959 135.026 116.642C134.343 117.325 134.343 118.433 135.026 119.115C135.709 119.798 136.816 119.798 137.499 119.115Z" fill="#89DD63"/>
<path d="M137.53 119.08C138.213 118.397 138.213 117.29 137.53 116.607C136.847 115.924 135.74 115.924 135.057 116.607C134.374 117.29 134.374 118.397 135.057 119.08C135.74 119.763 136.847 119.763 137.53 119.08Z" fill="#83DB5A"/>
<path d="M137.561 119.045C138.244 118.362 138.244 117.255 137.561 116.572C136.878 115.889 135.771 115.889 135.088 116.572C134.405 117.255 134.405 118.362 135.088 119.045C135.771 119.728 136.878 119.728 137.561 119.045Z" fill="#7DD952"/>
<path d="M137.6 119.014C138.283 118.331 138.283 117.224 137.6 116.541C136.917 115.858 135.81 115.858 135.127 116.541C134.444 117.224 134.444 118.331 135.127 119.014C135.81 119.697 136.917 119.697 137.6 119.014Z" fill="#77D74A"/>
<path d="M137.632 118.979C138.314 118.296 138.314 117.189 137.632 116.506C136.949 115.823 135.841 115.823 135.158 116.506C134.475 117.189 134.475 118.296 135.158 118.979C135.841 119.662 136.949 119.662 137.632 118.979Z" fill="#71D542"/>
<path d="M137.663 118.944C138.346 118.261 138.346 117.153 137.663 116.47C136.98 115.788 135.873 115.788 135.19 116.47C134.507 117.153 134.507 118.261 135.19 118.944C135.873 119.626 136.98 119.626 137.663 118.944Z" fill="#6AD43A"/>
<path d="M137.702 118.908C138.385 118.225 138.385 117.118 137.702 116.435C137.019 115.752 135.912 115.752 135.229 116.435C134.546 117.118 134.546 118.225 135.229 118.908C135.912 119.591 137.019 119.591 137.702 118.908Z" fill="#64D231"/>
<path d="M137.733 118.877C138.416 118.194 138.416 117.087 137.733 116.404C137.05 115.721 135.943 115.721 135.26 116.404C134.577 117.087 134.577 118.194 135.26 118.877C135.943 119.56 137.05 119.56 137.733 118.877Z" fill="#5ED029"/>
<path d="M137.772 118.842C138.455 118.159 138.455 117.052 137.772 116.369C137.089 115.686 135.982 115.686 135.299 116.369C134.616 117.052 134.616 118.159 135.299 118.842C135.982 119.525 137.089 119.525 137.772 118.842Z" fill="#58CE21"/>
<path d="M137.803 118.807C138.486 118.124 138.486 117.017 137.803 116.334C137.12 115.651 136.013 115.651 135.33 116.334C134.647 117.017 134.647 118.124 135.33 118.807C136.013 119.49 137.12 119.49 137.803 118.807Z" fill="#52CC19"/>
<path d="M137.835 118.776C138.518 118.093 138.518 116.985 137.835 116.303C137.152 115.62 136.044 115.62 135.362 116.303C134.679 116.985 134.679 118.093 135.362 118.776C136.044 119.459 137.152 119.459 137.835 118.776Z" fill="#4BCB10"/>
<path d="M137.866 118.74C138.549 118.058 138.549 116.95 137.866 116.267C137.183 115.584 136.076 115.584 135.393 116.267C134.71 116.95 134.71 118.058 135.393 118.74C136.076 119.423 137.183 119.423 137.866 118.74Z" fill="#45C908"/>
<path d="M137.905 118.705C138.588 118.022 138.588 116.915 137.905 116.232C137.222 115.549 136.115 115.549 135.432 116.232C134.749 116.915 134.749 118.022 135.432 118.705C136.115 119.388 137.222 119.388 137.905 118.705Z" fill="#3FC700"/>
</g>
<path d="M137.905 118.705C138.588 118.022 138.588 116.915 137.905 116.232C137.222 115.549 136.115 115.549 135.432 116.232C134.749 116.915 134.749 118.022 135.432 118.705C136.115 119.388 137.222 119.388 137.905 118.705Z" fill="#3FC700"/>
<path d="M138.69 116.939C138.596 116.581 138.408 116.254 138.146 115.991C137.75 115.596 137.225 115.378 136.666 115.378C136.107 115.378 135.581 115.596 135.186 115.991C134.924 116.254 134.735 116.581 134.642 116.939L134.57 116.921C134.667 116.55 134.862 116.211 135.134 115.939C135.543 115.53 136.087 115.305 136.666 115.305C137.245 115.305 137.789 115.53 138.198 115.939C138.469 116.211 138.664 116.55 138.761 116.921L138.69 116.939Z" fill="#3FC700"/>
<path d="M138.859 116.892C138.877 116.966 138.831 117.041 138.756 117.058C138.682 117.076 138.607 117.03 138.59 116.955C138.572 116.881 138.618 116.806 138.692 116.789C138.767 116.771 138.841 116.817 138.859 116.892Z" fill="#3FC700"/>
<path d="M134.472 116.892C134.455 116.966 134.501 117.041 134.575 117.058C134.65 117.076 134.724 117.03 134.742 116.955C134.759 116.881 134.713 116.806 134.639 116.789C134.565 116.771 134.49 116.817 134.472 116.892Z" fill="#3FC700"/>
<path d="M136.667 119.638C136.089 119.638 135.544 119.413 135.135 119.004C134.87 118.738 134.677 118.408 134.578 118.047L134.649 118.027C134.745 118.376 134.931 118.695 135.187 118.952C135.583 119.347 136.108 119.565 136.667 119.565C137.226 119.565 137.752 119.347 138.147 118.952C138.404 118.695 138.59 118.376 138.685 118.027L138.756 118.047C138.657 118.408 138.465 118.738 138.199 119.004C137.79 119.413 137.246 119.638 136.667 119.638Z" fill="#3FC700"/>
<path d="M134.481 118.078C134.462 118.004 134.507 117.929 134.582 117.91C134.656 117.892 134.731 117.937 134.749 118.011C134.768 118.086 134.722 118.161 134.648 118.179C134.574 118.197 134.499 118.152 134.481 118.078Z" fill="#3FC700"/>
<path d="M138.851 118.078C138.869 118.004 138.824 117.929 138.75 117.91C138.676 117.892 138.601 117.937 138.582 118.011C138.564 118.086 138.609 118.161 138.683 118.179C138.757 118.197 138.832 118.152 138.851 118.078Z" fill="#3FC700"/>
<path d="M137.547 116.797C137.467 116.717 137.337 116.717 137.257 116.797L136.361 117.693C136.354 117.7 136.342 117.7 136.335 117.693L136.076 117.434C135.996 117.354 135.866 117.354 135.786 117.434C135.706 117.514 135.706 117.644 135.786 117.724L136.163 118.101C136.265 118.203 136.431 118.203 136.533 118.101L137.547 117.087C137.627 117.007 137.627 116.877 137.547 116.797Z" fill="white"/>
<path d="M266.95 102.273C268.996 107.084 275.069 126.012 273.757 130.532C273.853 135.142 273.705 138.186 269.722 141.259L268.933 141.902C269.068 140.858 269.146 139.969 269.071 138.914C268.843 135.823 267.4 132.948 265.057 130.919C262.477 128.729 259.913 128.232 256.67 128.476L255.668 128.674L254.982 128.189C254.329 127.323 250.767 117.761 250.126 116.107C250.045 115.526 248.929 112.462 248.671 111.725C248.306 110.796 248.039 109.704 247.773 108.732C249.066 109.928 250.659 110.752 252.382 111.116C258.731 112.486 265.497 108.836 266.95 102.273Z" fill="#F9FAFC"/>
<path d="M256.29 127.871C260.532 121.456 272.278 122.412 273.722 130.364L273.752 130.534C273.848 135.144 273.7 138.189 269.717 141.262L268.928 141.904C269.063 140.861 269.141 139.972 269.066 138.916C268.838 135.825 267.395 132.951 265.052 130.922C262.471 128.731 259.908 128.234 256.665 128.478L255.663 128.677L254.977 128.191L256.287 127.876L256.29 127.871Z" fill="#0C315C"/>
<path d="M256.29 127.871C260.532 121.456 272.278 122.412 273.722 130.364L273.752 130.534C273.848 135.144 273.7 138.189 269.717 141.262L269.62 140.972C269.87 139.774 273.285 137.581 273.161 133.557C272.96 127.032 266.58 124.075 260.888 126.043C259.501 126.522 257.997 128.188 256.644 128.161L256.665 128.478L255.663 128.677L254.977 128.191L256.287 127.876L256.29 127.871Z" fill="#03244B"/>
<path d="M188.02 101.609C189.848 104.421 191.399 105.66 194.593 106.806C194.659 108.348 195.642 114.327 196.255 115.715C196.436 116.595 196.385 116.924 195.816 117.672C192.787 121.652 186.307 130.408 180.864 130.359C180.079 130.475 178.459 131.363 177.394 131.632C175.727 132.137 173.812 131.991 172.375 130.943C171.838 130.551 171.416 130.019 170.781 129.703C172.55 129.345 174.418 128.142 175.448 126.689C178.302 122.665 178.536 119.659 177.974 115.11L178.338 114.824C178.578 112.839 186.333 103.554 188.02 101.609Z" fill="#F9FAFC"/>
<path d="M178.338 114.82C179.456 115.289 180.39 115.582 181.281 116.424C185.277 120.192 186.229 127.368 180.864 130.355C180.079 130.471 178.459 131.359 177.394 131.629C175.727 132.133 173.812 131.987 172.375 130.94C171.838 130.547 171.416 130.015 170.781 129.699C172.55 129.342 174.418 128.138 175.448 126.685C178.302 122.661 178.536 119.655 177.974 115.106L178.338 114.82Z" fill="#03244B"/>
<path d="M179.024 116.449C183.953 118.347 184.656 130.134 175.947 131.314C174.297 131.234 173.665 130.813 172.273 129.983C176.832 128.332 179.177 123.805 179.112 119.146C179.1 118.215 178.995 117.398 179.024 116.449Z" fill="#0C315C"/>
<g filter="url(#filter5_d_270_13336)">
<path d="M141.315 98.5234C145.545 98.5898 147.065 100.6 144.006 104.046L143.675 104.215C142.306 103.97 138.212 100.456 141.315 98.5234Z" fill="#F9FAFC"/>
</g>
<g filter="url(#filter6_d_270_13336)">
<path d="M143.795 90.901C142.594 90.8344 141.013 89.8934 139.84 89.525C138.134 88.9891 136.086 88.9449 135.245 87.0959C134.505 85.4664 135.672 84.8726 137.076 84.6826C139.366 84.3727 141.383 84.6735 143.577 85.253C144.489 85.5931 145.109 85.7173 145.714 86.4704C146.418 88.5613 145.507 89.8267 143.795 90.901Z" fill="#F9FAFC"/>
</g>
<path d="M123.829 65.9142C128.211 65.9019 132.826 66.5387 137.162 66.6111C143.704 66.7204 143.52 68.9925 143.587 74.5659L143.57 81.0202C143.569 81.9849 143.619 83.8296 143.494 84.7265C142.47 84.0015 142.861 82.3069 142.842 81.0795C142.789 77.6562 143.027 74.1778 142.788 70.7654C142.703 69.5578 141.789 67.9681 140.508 67.7477C138.407 67.3924 136.199 67.3565 134.068 67.2393C130.048 67.0321 126.028 66.8013 122.01 66.5468C121.805 66.4659 121.601 66.3819 121.398 66.2952L121.554 66.0803C122.283 65.8901 123.071 65.9204 123.829 65.9142Z" fill="#03B6FB" fill-opacity="0.952941"/>
<path d="M116.933 65.9141L117.169 66.1669L116.91 66.7047C116.083 67.3344 115.21 68.2186 115.194 69.2558C115.143 72.3876 114.813 92.36 115.315 93.9972C115.125 94.0353 114.856 94.1034 114.672 94.105L114.523 93.8259C114.299 92.1557 114.369 89.3315 114.368 87.5862L114.369 77.4138C114.451 74.6854 114.033 70.3504 114.805 68.0014C115.506 66.9274 115.751 66.4746 116.933 65.9141Z" fill="#02B5F0" fill-opacity="0.94902"/>
<path d="M115.307 94C115.717 94.7806 116.458 96.1683 117.469 96.257C123.836 96.8149 130.346 96.5682 136.741 96.8744L137.495 97.114L137.387 97.1014L137.287 97.2789C135.53 97.6674 132.555 97.2179 130.816 97.4849C128.411 97.549 125.623 97.3254 123.107 97.3326C121.513 97.2582 119.851 97.2634 118.25 97.2469C116.471 97.0229 115.653 96.1065 114.76 94.6486L114.664 94.1078C114.848 94.1062 115.117 94.0381 115.307 94Z" fill="#01B1EF" fill-opacity="0.898039"/>
<path d="M136.738 96.875C140.758 96.9383 143.141 97.1566 142.982 92.1861C142.973 91.9145 142.92 91.5938 143.069 91.3672C144.168 92.6185 143.661 95.6469 142.344 96.6739C141.127 97.6227 140.456 97.6668 138.992 97.6497C137.172 97.4204 133.137 97.6839 130.812 97.4855C132.551 97.2185 135.527 97.668 137.284 97.2795L137.383 97.102L137.491 97.1146L136.738 96.875Z" fill="#019DE2" fill-opacity="0.988235"/>
<path d="M117.744 65.543C118.99 65.5931 122.781 65.6981 123.824 65.9144C123.067 65.9206 122.279 65.8903 121.549 66.0805L121.394 66.2953C121.596 66.3821 121.8 66.4661 122.005 66.547C120.209 66.486 118.499 66.1042 116.898 66.7075L117.157 66.1697L116.922 65.9168L116.942 65.8213L117.744 65.543Z" fill="#019DE2" fill-opacity="0.831373"/>
<path d="M209.969 76.9322C210.878 76.6429 211.312 76.4779 212.253 76.4062C212.495 78.1374 211.69 78.0487 210.204 78.5724C210.143 77.9616 210.104 77.534 209.969 76.9322Z" fill="#0C315C" fill-opacity="0.988235"/>
<path d="M121.814 102.457C126.317 102.528 130.99 102.678 135.517 102.707L137.448 102.711C138.496 102.721 139.622 102.71 140.663 102.761L141.756 103.696L141.662 103.737L141.759 103.695C142.148 103.984 142.791 104.429 143.126 104.744C143.23 105.017 143.601 105.92 143.624 106.15L143.748 106.849L143.725 108.087H143.723V116.126L143.725 117.811C143.721 120.113 143.778 122.751 143.7 125.025C143.454 124.052 143.524 121.813 143.517 120.708C143.514 120.723 143.511 120.738 143.508 120.753C143.512 121.872 143.449 124.068 143.691 125.028C143.786 130.106 141.101 130.489 136.845 130.478L134.452 130.458C133.947 130.416 132.708 130.47 132.048 130.275C132.706 130.473 133.952 130.418 134.459 130.46C132.449 130.511 130.439 130.527 128.43 130.508L128.529 130.243C128.868 129.867 129.293 129.853 129.814 129.746C130.759 129.737 132.347 129.677 133.252 129.771C133.257 129.771 133.262 129.771 133.267 129.771C134.383 129.771 135.576 129.781 136.69 129.8C140.134 129.857 142.204 130.068 143.092 126.188C143.094 126.181 143.094 126.172 143.097 126.164C142.99 125.514 143.021 123.159 143.017 122.414C143.018 122.409 143.017 122.404 143.017 122.399C142.69 118.794 143.187 114.554 143.003 110.892C142.853 107.904 143.693 106.225 141.469 103.823L141.466 103.825C139.222 102.853 136.57 103.877 133.898 103.351V103.35L123.78 103.188C120.896 103.143 115.282 102.267 115.145 106.298C114.926 112.805 115.108 119.459 115.075 125.982C115.068 127.457 115.553 128.394 116.585 129.402L116.583 129.403C116.921 129.553 117.586 129.849 117.943 129.863C121.867 130.022 125.889 129.604 129.809 129.743C129.289 129.85 128.864 129.864 128.525 130.24L128.426 130.505C125.457 130.75 120.64 130.74 117.605 130.54C117.254 130.517 116.576 130.138 116.25 129.953L116.251 129.95C114.059 128.049 114.325 125.573 114.344 122.841C114.381 117.156 114.096 111.348 114.6 105.697C114.711 104.447 115.943 103.409 116.901 102.773C117.376 102.645 117.878 102.535 118.359 102.422L121.814 102.457ZM135.773 103.399C135.964 103.405 136.151 103.409 136.33 103.405C136.151 103.409 135.964 103.405 135.773 103.399Z" fill="white" fill-opacity="0.94902"/>
<defs>
<filter id="filter0_di_270_13336" x="0" y="-15.7686" width="176" height="219.136" filterUnits="userSpaceOnUse" color-interpolation-filters="sRGB">
<feFlood flood-opacity="0" result="BackgroundImageFix"/>
<feColorMatrix in="SourceAlpha" type="matrix" values="0 0 0 0 0 0 0 0 0 0 0 0 0 0 0 0 0 0 127 0" result="hardAlpha"/>
<feOffset dy="4"/>
<feGaussianBlur stdDeviation="12"/>
<feComposite in2="hardAlpha" operator="out"/>
<feColorMatrix type="matrix" values="0 0 0 0 0.129412 0 0 0 0 0.694118 0 0 0 0 0.945098 0 0 0 0.4 0"/>
<feBlend mode="normal" in2="BackgroundImageFix" result="effect1_dropShadow_270_13336"/>
<feBlend mode="normal" in="SourceGraphic" in2="effect1_dropShadow_270_13336" result="shape"/>
<feColorMatrix in="SourceAlpha" type="matrix" values="0 0 0 0 0 0 0 0 0 0 0 0 0 0 0 0 0 0 127 0" result="hardAlpha"/>
<feOffset dy="4"/>
<feGaussianBlur stdDeviation="7"/>
<feComposite in2="hardAlpha" operator="arithmetic" k2="-1" k3="1"/>
<feColorMatrix type="matrix" values="0 0 0 0 0.611765 0 0 0 0 0.862745 0 0 0 0 1 0 0 0 0.1 0"/>
<feBlend mode="normal" in2="shape" result="effect2_innerShadow_270_13336"/>
</filter>
<filter id="filter1_d_270_13336" x="33.4688" y="61.0469" width="77.521" height="72.4248" filterUnits="userSpaceOnUse" color-interpolation-filters="sRGB">
<feFlood flood-opacity="0" result="BackgroundImageFix"/>
<feColorMatrix in="SourceAlpha" type="matrix" values="0 0 0 0 0 0 0 0 0 0 0 0 0 0 0 0 0 0 127 0" result="hardAlpha"/>
<feOffset dy="4"/>
<feGaussianBlur stdDeviation="1"/>
<feComposite in2="hardAlpha" operator="out"/>
<feColorMatrix type="matrix" values="0 0 0 0 0 0 0 0 0 0.321569 0 0 0 0 0.462745 0 0 0 0.1 0"/>
<feBlend mode="normal" in2="BackgroundImageFix" result="effect1_dropShadow_270_13336"/>
<feBlend mode="normal" in="SourceGraphic" in2="effect1_dropShadow_270_13336" result="shape"/>
</filter>
<filter id="filter2_d_270_13336" x="31.1406" y="16" width="116" height="53" filterUnits="userSpaceOnUse" color-interpolation-filters="sRGB">
<feFlood flood-opacity="0" result="BackgroundImageFix"/>
<feColorMatrix in="SourceAlpha" type="matrix" values="0 0 0 0 0 0 0 0 0 0 0 0 0 0 0 0 0 0 127 0" result="hardAlpha"/>
<feOffset dy="4"/>
<feGaussianBlur stdDeviation="2"/>
<feComposite in2="hardAlpha" operator="out"/>
<feColorMatrix type="matrix" values="0 0 0 0 0.0392157 0 0 0 0 0.556863 0 0 0 0 0.784314 0 0 0 0.1 0"/>
<feBlend mode="normal" in2="BackgroundImageFix" result="effect1_dropShadow_270_13336"/>
<feBlend mode="normal" in="SourceGraphic" in2="effect1_dropShadow_270_13336" result="shape"/>
</filter>
<filter id="filter3_d_270_13336" x="139.789" y="86.4688" width="18.9766" height="20.3408" filterUnits="userSpaceOnUse" color-interpolation-filters="sRGB">
<feFlood flood-opacity="0" result="BackgroundImageFix"/>
<feColorMatrix in="SourceAlpha" type="matrix" values="0 0 0 0 0 0 0 0 0 0 0 0 0 0 0 0 0 0 127 0" result="hardAlpha"/>
<feOffset dy="4"/>
<feGaussianBlur stdDeviation="2"/>
<feComposite in2="hardAlpha" operator="out"/>
<feColorMatrix type="matrix" values="0 0 0 0 0.360784 0 0 0 0 0.717647 0 0 0 0 0.909804 0 0 0 0.2 0"/>
<feBlend mode="normal" in2="BackgroundImageFix" result="effect1_dropShadow_270_13336"/>
<feBlend mode="normal" in="SourceGraphic" in2="effect1_dropShadow_270_13336" result="shape"/>
</filter>
<filter id="filter4_d_270_13336" x="140.281" y="100.461" width="13.8447" height="14.7832" filterUnits="userSpaceOnUse" color-interpolation-filters="sRGB">
<feFlood flood-opacity="0" result="BackgroundImageFix"/>
<feColorMatrix in="SourceAlpha" type="matrix" values="0 0 0 0 0 0 0 0 0 0 0 0 0 0 0 0 0 0 127 0" result="hardAlpha"/>
<feOffset dy="4"/>
<feGaussianBlur stdDeviation="2"/>
<feComposite in2="hardAlpha" operator="out"/>
<feColorMatrix type="matrix" values="0 0 0 0 0.360784 0 0 0 0 0.717647 0 0 0 0 0.909804 0 0 0 0.2 0"/>
<feBlend mode="normal" in2="BackgroundImageFix" result="effect1_dropShadow_270_13336"/>
<feBlend mode="normal" in="SourceGraphic" in2="effect1_dropShadow_270_13336" result="shape"/>
</filter>
<filter id="filter5_d_270_13336" x="136.18" y="98.5234" width="13.437" height="13.6924" filterUnits="userSpaceOnUse" color-interpolation-filters="sRGB">
<feFlood flood-opacity="0" result="BackgroundImageFix"/>
<feColorMatrix in="SourceAlpha" type="matrix" values="0 0 0 0 0 0 0 0 0 0 0 0 0 0 0 0 0 0 127 0" result="hardAlpha"/>
<feOffset dy="4"/>
<feGaussianBlur stdDeviation="2"/>
<feComposite in2="hardAlpha" operator="out"/>
<feColorMatrix type="matrix" values="0 0 0 0 0.360784 0 0 0 0 0.717647 0 0 0 0 0.909804 0 0 0 0.2 0"/>
<feBlend mode="normal" in2="BackgroundImageFix" result="effect1_dropShadow_270_13336"/>
<feBlend mode="normal" in="SourceGraphic" in2="effect1_dropShadow_270_13336" result="shape"/>
</filter>
<filter id="filter6_d_270_13336" x="131.016" y="84.5586" width="18.938" height="14.3428" filterUnits="userSpaceOnUse" color-interpolation-filters="sRGB">
<feFlood flood-opacity="0" result="BackgroundImageFix"/>
<feColorMatrix in="SourceAlpha" type="matrix" values="0 0 0 0 0 0 0 0 0 0 0 0 0 0 0 0 0 0 127 0" result="hardAlpha"/>
<feOffset dy="4"/>
<feGaussianBlur stdDeviation="2"/>
<feComposite in2="hardAlpha" operator="out"/>
<feColorMatrix type="matrix" values="0 0 0 0 0.360784 0 0 0 0 0.717647 0 0 0 0 0.909804 0 0 0 0.2 0"/>
<feBlend mode="normal" in2="BackgroundImageFix" result="effect1_dropShadow_270_13336"/>
<feBlend mode="normal" in="SourceGraphic" in2="effect1_dropShadow_270_13336" result="shape"/>
</filter>
</defs>
</svg>
