<svg width="48" height="48" viewBox="0 0 48 48" fill="none" xmlns="http://www.w3.org/2000/svg">
<path d="M0 23.9988C0 10.7446 10.7446 0 23.9988 0C37.2529 0 47.9976 10.7446 47.9976 23.9988C47.9976 37.2529 37.2529 47.9976 23.9988 47.9976C10.7446 47.9976 0 37.2529 0 23.9988Z" fill="#EFF6FF" fill-opacity="0.1"/>
<path d="M23.999 0.5C36.9769 0.500128 47.498 11.0211 47.498 23.999C47.4979 36.9769 36.9769 47.4979 23.999 47.498C11.0211 47.498 0.500128 36.9769 0.5 23.999C0.5 11.021 11.021 0.5 23.999 0.5Z" stroke="url(#paint0_linear_270_13595)" stroke-opacity="0.2"/>
<path fill-rule="evenodd" clip-rule="evenodd" d="M27.7593 22.2414C27.9094 22.3962 27.9934 22.6034 27.9934 22.8191C27.9934 23.0348 27.9094 23.242 27.7593 23.3969L23.4978 27.7542C23.4244 27.8298 23.3367 27.8899 23.2397 27.9309C23.1426 27.972 23.0384 27.9931 22.933 27.9931C22.8277 27.9931 22.7234 27.972 22.6264 27.9309C22.5294 27.8899 22.4416 27.8298 22.3683 27.7542L20.2371 25.575C20.0869 25.4202 20.0029 25.213 20.0029 24.9973C20.0029 24.7816 20.0869 24.5744 20.2371 24.4195C20.3104 24.3437 20.3982 24.2833 20.4953 24.2421C20.5924 24.2009 20.6968 24.1797 20.8023 24.1797C20.9078 24.1797 21.0122 24.2009 21.1093 24.2421C21.2065 24.2833 21.2943 24.3437 21.3676 24.4195L22.9325 26.0215L26.6287 22.2414C26.7021 22.1656 26.7899 22.1054 26.8871 22.0643C26.9842 22.0231 27.0885 22.002 27.194 22.002C27.2994 22.002 27.4038 22.0231 27.5009 22.0643C27.598 22.1054 27.6859 22.1656 27.7593 22.2414Z" fill="#82B3FF"/>
<path fill-rule="evenodd" clip-rule="evenodd" d="M20.9703 14.8776C21.128 14.6153 21.3504 14.3979 21.6162 14.2463C21.882 14.0946 22.1823 14.0139 22.4884 14.0117H25.5084C26.1426 14.0117 26.7059 14.3553 27.0264 14.8776L27.5917 15.7974C28.151 15.8413 28.6803 15.8873 29.1427 15.9312C29.791 15.9902 30.3977 16.2764 30.8555 16.7393C31.3133 17.2022 31.5927 17.812 31.6444 18.4609C31.7862 20.2566 31.988 23.1768 31.988 25.342C31.988 27.3843 31.8082 29.7033 31.6684 31.2053C31.608 31.8427 31.3265 32.4389 30.8727 32.8906C30.4189 33.3422 29.8213 33.6208 29.1836 33.6781C27.7485 33.8139 25.6163 33.9857 23.9984 33.9857C22.3805 33.9857 20.2483 33.8139 18.8131 33.6781C18.1753 33.621 17.5775 33.3425 17.1235 32.8909C16.6694 32.4392 16.3878 31.8429 16.3274 31.2053C16.1886 29.7033 16.0088 27.3843 16.0088 25.341C16.0088 23.1768 16.2095 20.2566 16.3523 18.4609C16.4041 17.812 16.6835 17.2022 17.1413 16.7393C17.5991 16.2764 18.2057 15.9902 18.8541 15.9312C19.3165 15.8883 19.8458 15.8413 20.4051 15.7974L20.9703 14.8776ZM20.0276 17.3693C19.662 17.3993 19.3155 17.4313 18.9989 17.4612C18.7119 17.4871 18.4433 17.6138 18.2409 17.819C18.0385 18.0241 17.9153 18.2944 17.8933 18.5818C17.7515 20.3764 17.5548 23.2437 17.5548 25.341C17.5548 27.3124 17.7285 29.5755 17.8674 31.0635C17.8932 31.3437 18.0167 31.6059 18.2162 31.8043C18.4157 32.0028 18.6786 32.1248 18.9589 32.1491C20.3911 32.2839 22.4604 32.4487 23.9984 32.4487C25.5364 32.4487 27.6057 32.2839 29.0378 32.1491C29.3182 32.1248 29.581 32.0028 29.7805 31.8043C29.9801 31.6059 30.1035 31.3437 30.1294 31.0635C30.2682 29.5755 30.442 27.3114 30.442 25.341C30.442 23.2437 30.2453 20.3764 30.1024 18.5818C30.0804 18.2944 29.9573 18.0241 29.7549 17.819C29.5525 17.6138 29.2839 17.4871 28.9969 17.4612C28.6542 17.4288 28.3113 17.3982 27.9682 17.3693C27.9286 17.5847 27.8534 17.792 27.7455 17.9825C27.4539 18.4949 26.9036 18.9024 26.1955 18.9024H21.8012C21.0922 18.9024 20.5429 18.4949 20.2513 17.9835C20.1429 17.7927 20.0673 17.5851 20.0276 17.3693ZM22.4884 15.5477C22.4334 15.5477 22.3525 15.5777 22.2906 15.6775L21.6035 16.7961C21.5647 16.8608 21.5437 16.9346 21.5427 17.01C21.5416 17.0854 21.5605 17.1598 21.5975 17.2255C21.6584 17.3354 21.7353 17.3654 21.8012 17.3654H26.1955C26.2614 17.3654 26.3383 17.3354 26.3993 17.2265C26.4362 17.1608 26.4552 17.0864 26.4541 17.011C26.4531 16.9356 26.4321 16.8618 26.3933 16.7971L25.7062 15.6785C25.6442 15.5787 25.5633 15.5487 25.5084 15.5487L22.4884 15.5477Z" fill="#82B3FF"/>
<defs>
<linearGradient id="paint0_linear_270_13595" x1="23.9988" y1="0" x2="23.9988" y2="47.9976" gradientUnits="userSpaceOnUse">
<stop stop-color="white" stop-opacity="0.8"/>
<stop offset="0.418269" stop-color="white" stop-opacity="0.2"/>
<stop offset="0.596154" stop-color="white" stop-opacity="0.6"/>
<stop offset="1" stop-color="white" stop-opacity="0.4"/>
</linearGradient>
</defs>
</svg>
