<svg width="48" height="48" viewBox="0 0 48 48" fill="none" xmlns="http://www.w3.org/2000/svg">
<path d="M0 23.9988C0 10.7446 10.7446 0 23.9988 0C37.2529 0 47.9976 10.7446 47.9976 23.9988C47.9976 37.2529 37.2529 47.9976 23.9988 47.9976C10.7446 47.9976 0 37.2529 0 23.9988Z" fill="#ECFEFF" fill-opacity="0.1"/>
<path d="M23.999 0.5C36.9769 0.500128 47.498 11.0211 47.498 23.999C47.4979 36.9769 36.9769 47.4979 23.999 47.498C11.0211 47.498 0.500128 36.9769 0.5 23.999C0.5 11.021 11.021 0.5 23.999 0.5Z" stroke="url(#paint0_linear_270_13608)" stroke-opacity="0.2"/>
<path d="M23.9986 25.7146H21.4274C21.2001 25.7146 20.9821 25.6243 20.8213 25.4636C20.6606 25.3029 20.5703 25.0849 20.5703 24.8576C20.5703 24.6303 20.6606 24.4123 20.8213 24.2515C20.9821 24.0908 21.2001 24.0005 21.4274 24.0005H23.57L25.8841 20.9151C26.0205 20.7332 26.2235 20.613 26.4485 20.5809C26.56 20.565 26.6734 20.5711 26.7825 20.5991C26.8915 20.627 26.9939 20.6761 27.084 20.7437C27.174 20.8112 27.2499 20.8958 27.3072 20.9927C27.3646 21.0895 27.4023 21.1967 27.4182 21.3081C27.4341 21.4195 27.4279 21.533 27.4 21.642C27.3721 21.7511 27.3229 21.8535 27.2554 21.9436L24.6842 25.3718C24.6044 25.4783 24.5009 25.5647 24.3819 25.6243C24.2629 25.6838 24.1316 25.7147 23.9986 25.7146Z" fill="#96EEFF"/>
<path d="M23.9983 35.1406C17.8548 35.1406 12.8564 30.1422 12.8564 23.9988C12.8564 20.8037 14.2106 17.7594 16.5701 15.6467C16.6537 15.5704 16.7517 15.5114 16.8583 15.4732C16.9648 15.435 17.0779 15.4182 17.191 15.4239C17.3041 15.4297 17.4149 15.4577 17.517 15.5065C17.6192 15.5553 17.7107 15.6239 17.7862 15.7082C17.8617 15.7926 17.9198 15.8911 17.957 15.998C17.9943 16.1049 18.01 16.2181 18.0032 16.3312C17.9964 16.4442 17.9673 16.5547 17.9176 16.6564C17.8679 16.7581 17.7985 16.849 17.7134 16.9237C16.722 17.8162 15.9298 18.9074 15.3883 20.1264C14.8468 21.3455 14.5682 22.6649 14.5706 23.9988C14.5706 29.1969 18.8002 33.4265 23.9983 33.4265C24.2256 33.4265 24.4436 33.5168 24.6043 33.6775C24.765 33.8382 24.8553 34.0562 24.8553 34.2835C24.8553 34.5108 24.765 34.7288 24.6043 34.8896C24.4436 35.0503 24.2256 35.1406 23.9983 35.1406Z" fill="#96EEFF"/>
<path d="M23.1429 35.9991C22.9496 35.9995 22.7618 35.9345 22.6101 35.8147C22.4584 35.6949 22.3516 35.5273 22.3072 35.3392C22.2627 35.1511 22.2831 34.9535 22.3651 34.7784C22.4471 34.6034 22.5859 34.4612 22.7589 34.375L22.9389 34.285L22.7589 34.195C22.5555 34.0934 22.4008 33.9151 22.3287 33.6994C22.2567 33.4837 22.2734 33.2482 22.375 33.0448C22.4766 32.8414 22.6548 32.6866 22.8705 32.6146C23.0862 32.5426 23.3217 32.5592 23.5252 32.6608L25.2393 33.5179C25.3819 33.589 25.5019 33.6984 25.5857 33.8339C25.6696 33.9694 25.714 34.1256 25.714 34.285C25.714 34.4443 25.6696 34.6005 25.5857 34.736C25.5019 34.8715 25.3819 34.981 25.2393 35.052L23.5252 35.9091C23.4065 35.9685 23.2756 35.9993 23.1429 35.9991ZM30.8556 32.5708C30.6821 32.5708 30.5126 32.5181 30.3697 32.4197C30.2268 32.3214 30.1171 32.1819 30.0551 32.0198C29.9931 31.8577 29.9818 31.6806 30.0227 31.512C30.0636 31.3433 30.1547 31.191 30.284 31.0753C31.2753 30.1828 32.0676 29.0916 32.6091 27.8726C33.1506 26.6535 33.4292 25.3341 33.4268 24.0002C33.4268 18.8021 29.1972 14.5725 23.9991 14.5725C23.7718 14.5725 23.5538 14.4822 23.3931 14.3215C23.2323 14.1608 23.142 13.9428 23.142 13.7155C23.142 13.4882 23.2323 13.2702 23.3931 13.1094C23.5538 12.9487 23.7718 12.8584 23.9991 12.8584C30.1425 12.8584 35.1409 17.8568 35.1409 24.0002C35.1409 27.1962 33.7868 30.2396 31.4273 32.3523C31.2703 32.4933 31.0666 32.5712 30.8556 32.5708Z" fill="#96EEFF"/>
<path d="M24.8553 15.4276C24.7226 15.4278 24.5917 15.397 24.4731 15.3376L22.7589 14.4806C22.6163 14.4095 22.4963 14.3001 22.4125 14.1646C22.3286 14.0291 22.2842 13.8729 22.2842 13.7135C22.2842 13.5542 22.3286 13.398 22.4125 13.2625C22.4963 13.127 22.6163 13.0175 22.7589 12.9464L24.4731 12.0894C24.5738 12.0391 24.6835 12.0091 24.7958 12.0012C24.9081 11.9932 25.0209 12.0075 25.1277 12.0431C25.2345 12.0788 25.3332 12.1351 25.4182 12.209C25.5033 12.2828 25.5729 12.3726 25.6232 12.4733C25.6736 12.5741 25.7035 12.6837 25.7115 12.796C25.7194 12.9084 25.7051 13.0211 25.6695 13.1279C25.6338 13.2348 25.5775 13.3335 25.5037 13.4185C25.4298 13.5035 25.34 13.5732 25.2393 13.6235L25.0593 13.7135L25.2393 13.8035C25.4122 13.8897 25.551 14.0318 25.633 14.2068C25.715 14.3817 25.7355 14.5793 25.6911 14.7673C25.6468 14.9554 25.5402 15.123 25.3886 15.2428C25.237 15.3627 25.0485 15.4278 24.8553 15.4276Z" fill="#96EEFF"/>
<path d="M29.9978 34.2847C30.9445 34.2847 31.7119 33.5173 31.7119 32.5706C31.7119 31.6239 30.9445 30.8564 29.9978 30.8564C29.0511 30.8564 28.2837 31.6239 28.2837 32.5706C28.2837 33.5173 29.0511 34.2847 29.9978 34.2847Z" fill="#96EEFF"/>
<path d="M17.9988 17.1431C18.9455 17.1431 19.7129 16.3757 19.7129 15.429C19.7129 14.4823 18.9455 13.7148 17.9988 13.7148C17.0521 13.7148 16.2847 14.4823 16.2847 15.429C16.2847 16.3757 17.0521 17.1431 17.9988 17.1431Z" fill="#96EEFF"/>
<defs>
<linearGradient id="paint0_linear_270_13608" x1="23.9988" y1="0" x2="23.9988" y2="47.9976" gradientUnits="userSpaceOnUse">
<stop stop-color="white" stop-opacity="0.8"/>
<stop offset="0.418269" stop-color="white" stop-opacity="0.2"/>
<stop offset="0.596154" stop-color="white" stop-opacity="0.6"/>
<stop offset="1" stop-color="white" stop-opacity="0.4"/>
</linearGradient>
</defs>
</svg>
