<svg width="48" height="48" viewBox="0 0 48 48" fill="none" xmlns="http://www.w3.org/2000/svg">
<path d="M0 23.9988C0 10.7446 10.7446 0 23.9988 0C37.2529 0 47.9976 10.7446 47.9976 23.9988C47.9976 37.2529 37.2529 47.9976 23.9988 47.9976C10.7446 47.9976 0 37.2529 0 23.9988Z" fill="#F5F3FF" fill-opacity="0.1"/>
<path d="M23.999 0.5C36.9769 0.500128 47.498 11.0211 47.498 23.999C47.4979 36.9769 36.9769 47.4979 23.999 47.498C11.0211 47.498 0.500128 36.9769 0.5 23.999C0.5 11.021 11.021 0.5 23.999 0.5Z" stroke="url(#paint0_linear_270_13623)" stroke-opacity="0.2"/>
<g clip-path="url(#clip0_270_13623)">
<path d="M33.8611 16.1433C30.559 15.2385 27.2374 13.8297 24.2556 12.0692C24.1779 12.0232 24.0892 11.999 23.999 11.999C23.9087 11.999 23.82 12.0232 23.7423 12.0692C20.6744 13.8803 17.5324 15.2129 14.1366 16.1433C14.0298 16.1725 13.9357 16.236 13.8686 16.324C13.8015 16.412 13.7651 16.5196 13.7651 16.6302V21.7886C13.7651 27.1006 16.2157 30.6168 18.2715 32.6311C20.4848 34.7997 23.0629 35.999 23.999 35.999C24.9349 35.999 27.513 34.7997 29.7263 32.6311C31.7821 30.6168 34.2325 27.1007 34.2325 21.7886V16.6302C34.2325 16.4027 34.0804 16.2033 33.8611 16.1433ZM33.2228 21.7886C33.2228 26.75 30.9371 30.031 29.0196 31.9098C26.8431 34.0424 24.5161 34.9892 23.999 34.9892C23.4818 34.9892 21.1546 34.0424 18.9781 31.9098C17.0606 30.0309 14.7749 26.75 14.7749 21.7886V17.0134C18.0223 16.0914 21.0465 14.8046 23.9991 13.0889C26.8778 14.7591 30.053 16.1099 33.2228 17.0132V21.7886Z" fill="#D6C0FF"/>
<path d="M19.524 16.9571C19.4219 16.6977 19.1288 16.5702 18.8693 16.6724C17.9639 17.029 17.0463 17.3533 16.1179 17.6447C16.0154 17.6768 15.9257 17.7409 15.8621 17.8275C15.7985 17.9142 15.7642 18.0189 15.7642 18.1264V20.0759C15.7642 20.3547 15.9902 20.5808 16.269 20.5808C16.5478 20.5808 16.7738 20.3547 16.7738 20.0759V18.4953C17.6047 18.2265 18.4269 17.9318 19.2394 17.6118C19.4988 17.5097 19.6263 17.2166 19.524 16.9571ZM20.4831 17.0529C20.5508 17.0529 20.6196 17.0392 20.6855 17.0105L20.6948 17.0064C20.9502 16.8945 21.0653 16.5972 20.9533 16.3418C20.8413 16.0864 20.5423 15.9709 20.2871 16.0827L20.279 16.0862C20.0234 16.1978 19.908 16.4949 20.0196 16.7504C20.1024 16.94 20.2883 17.0529 20.4831 17.0529ZM30.0139 28.2781C29.7806 28.1256 29.4678 28.1912 29.3151 28.4246C28.8991 29.0613 28.411 29.6711 27.8643 30.2367C27.4146 30.7019 26.9305 31.1325 26.4162 31.5251C26.1945 31.6941 26.1518 32.0109 26.3208 32.2326C26.3679 32.2945 26.4287 32.3447 26.4984 32.3791C26.5681 32.4136 26.6449 32.4315 26.7226 32.4314C26.8294 32.4314 26.937 32.3977 27.0284 32.328C27.5831 31.9046 28.1051 31.4402 28.5901 30.9385C29.1813 30.3271 29.7096 29.6671 30.1604 28.9768C30.313 28.7434 30.2473 28.4306 30.0139 28.2781ZM25.2437 32.3168L25.2148 32.3339C24.9735 32.4736 24.891 32.7824 25.0307 33.0237C25.0639 33.0811 25.1081 33.1314 25.1607 33.1717C25.2134 33.212 25.2734 33.2416 25.3375 33.2586C25.4016 33.2757 25.4684 33.28 25.5341 33.2713C25.5998 33.2625 25.6632 33.2409 25.7205 33.2076L25.754 33.188C25.9946 33.0471 26.0754 32.7379 25.9345 32.4972C25.7935 32.2567 25.4842 32.1761 25.2437 32.3168ZM20.5577 22.9688C20.2477 22.6588 19.8354 22.4882 19.397 22.4882C18.9585 22.4882 18.5462 22.6588 18.2361 22.9688C17.5961 23.6089 17.5961 24.6505 18.2361 25.2906L21.2171 28.2716C21.5272 28.5815 21.9394 28.7522 22.3779 28.7522C22.8165 28.7522 23.2287 28.5815 23.5388 28.2715L29.762 22.0482C30.4019 21.408 30.4019 20.3666 29.7619 19.7267C29.4518 19.4166 29.0396 19.246 28.601 19.246C28.1625 19.246 27.7502 19.4167 27.4402 19.7267L22.3779 24.7889L20.5577 22.9688ZM28.1542 20.4407C28.2127 20.3818 28.2824 20.3352 28.3591 20.3034C28.4358 20.2717 28.518 20.2555 28.6011 20.2557C28.77 20.2557 28.9286 20.3214 29.048 20.4407C29.2943 20.687 29.2943 21.088 29.0479 21.3344L22.8248 27.5575C22.7055 27.6768 22.5468 27.7425 22.3779 27.7425C22.2091 27.7425 22.0503 27.6768 21.931 27.5575L18.95 24.5766C18.7036 24.3302 18.7036 23.9292 18.9499 23.6829C19.0693 23.5636 19.228 23.4979 19.3969 23.4979C19.5658 23.4979 19.7245 23.5635 19.8438 23.6828L22.0209 25.86C22.1156 25.9546 22.244 26.0078 22.3779 26.0078C22.5118 26.0078 22.6402 25.9547 22.7348 25.86L28.1542 20.4407Z" fill="#D6C0FF"/>
</g>
<defs>
<linearGradient id="paint0_linear_270_13623" x1="23.9988" y1="0" x2="23.9988" y2="47.9976" gradientUnits="userSpaceOnUse">
<stop stop-color="white" stop-opacity="0.8"/>
<stop offset="0.418269" stop-color="white" stop-opacity="0.2"/>
<stop offset="0.596154" stop-color="white" stop-opacity="0.6"/>
<stop offset="1" stop-color="white" stop-opacity="0.4"/>
</linearGradient>
<clipPath id="clip0_270_13623">
<rect width="24.0299" height="24" fill="white" transform="translate(11.9839 11.999)"/>
</clipPath>
</defs>
</svg>
