<svg width="54" height="54" viewBox="0 0 54 54" fill="none" xmlns="http://www.w3.org/2000/svg">
<rect x="0.5" y="0.5" width="53" height="53" rx="13.9" fill="#FEFFFF"/>
<rect x="0.5" y="0.5" width="53" height="53" rx="13.9" stroke="url(#paint0_linear_2196_3738)"/>
<path d="M41.125 41.125H38.6217V43H43V38.6217H41.125V41.125ZM12.875 12.875H15.3782V11H11V15.3782H12.875V12.875ZM12.875 38.6217H11V43H15.3782V41.125H12.875V38.6217ZM38.6217 11V12.875H41.125V15.3782H43V11H38.6217ZM32.5854 21.639V19.7921C32.5854 16.6934 30.0644 14.1723 26.9656 14.1723C23.8668 14.1723 21.3457 16.6934 21.3457 19.7921V21.639C21.3457 24.7378 23.8668 27.2588 26.9656 27.2588C30.0644 27.2588 32.5854 24.7378 32.5854 21.639ZM26.3066 23.8455L23.9478 21.4867L25.2736 20.1609L26.3066 21.1939L28.9724 18.5281L30.2983 19.8539L26.3066 23.8455ZM15.0835 38.6291H38.8476V35.8134C38.8476 33.9103 37.6269 32.2511 35.8099 31.6848L30.4263 30.0068V28.2852C29.3904 28.8267 28.2133 29.1336 26.9656 29.1336C25.7179 29.1336 24.5407 28.8267 23.5048 28.2852V30.0068L18.1212 31.6848C16.3043 32.2511 15.0835 33.9102 15.0835 35.8134V38.6291Z" fill="url(#paint1_linear_2196_3738)"/>
<defs>
<linearGradient id="paint0_linear_2196_3738" x1="27" y1="0" x2="27" y2="54" gradientUnits="userSpaceOnUse">
<stop stop-color="#5CB7E8" stop-opacity="0.1"/>
<stop offset="1" stop-color="#B8E6FF"/>
</linearGradient>
<linearGradient id="paint1_linear_2196_3738" x1="27" y1="11" x2="27" y2="43" gradientUnits="userSpaceOnUse">
<stop stop-color="#5CB7E8"/>
<stop offset="1" stop-color="#21B1F1"/>
</linearGradient>
</defs>
</svg>
