<svg width="20" height="20" viewBox="0 0 20 20" fill="none" xmlns="http://www.w3.org/2000/svg">
<path d="M13.2292 8.99504C14.852 8.91505 15.1453 8.62604 15.2218 10.3231C15.5477 10.4506 15.8831 10.6026 16.2055 10.7428C17.5826 9.65282 17.5534 10.0963 18.6878 11.222C18.465 11.603 18.0955 12.1175 17.8417 12.495L18.3023 13.3373C18.6738 13.3735 19.1158 13.3891 19.4471 13.5419C19.5684 13.7259 19.5986 13.8917 19.6087 14.1078C19.6756 15.5362 19.6034 15.5265 18.2883 15.6341C18.1554 15.9238 17.9889 16.2209 17.8383 16.5037C18.1416 16.8896 18.4013 17.2545 18.6834 17.6543C18.2199 18.1794 17.8448 18.5338 17.3327 19.0119C16.9665 18.7871 16.5611 18.4851 16.2056 18.2337L15.2094 18.6125C15.1799 19.1607 15.168 19.3992 15.0443 19.9276C13.5646 19.9953 13.0594 20.3345 12.9466 18.6265L12.0738 18.1992C11.6906 18.4646 11.3022 18.7224 10.9089 18.9723C10.4108 18.5953 9.9637 18.1553 9.57869 17.6632C9.7854 17.3102 10.1166 16.873 10.3601 16.5313C10.2357 16.239 10.114 15.9098 9.99636 15.6115C9.56405 15.5856 9.09536 15.5053 8.66377 15.4414C8.61943 13.9396 8.22751 13.4583 9.92411 13.3856L10.3825 12.4052C9.27503 11.0694 9.71604 10.9719 10.8814 9.93369C11.2368 10.1528 11.7012 10.5166 12.0472 10.7715C12.3315 10.6228 12.6851 10.4694 12.9806 10.3327C13.0039 9.89715 13.0179 9.37161 13.2292 8.99504ZM14.2022 16.6077C15.3902 16.5502 16.3036 15.5351 16.2361 14.3473C16.1687 13.1595 15.1464 12.2544 13.9594 12.3316C12.7864 12.408 11.8943 13.4161 11.9609 14.5901C12.0275 15.764 13.028 16.6647 14.2022 16.6077Z" fill="#6DA7F3"/>
<path d="M1.4786 0.0894835C1.60878 0.0847351 1.73897 0.0811152 1.86915 0.0786203C4.38373 0.0398285 6.9568 0.0411165 9.46735 0.0623635C10.8054 0.0737113 14.4938 -0.456981 14.6202 1.38796C14.7618 3.45632 14.6931 5.64403 14.6889 7.72559C14.1516 7.71593 13.6917 7.68744 13.1606 7.79182C13.1589 5.84821 13.23 3.82291 13.0652 1.90441C12.9718 1.59432 11.8941 1.64429 11.6399 1.66635C10.3529 1.77789 2.41532 1.40768 1.82064 1.87149C1.45502 2.57022 1.60267 6.88641 1.60597 7.98474L1.6112 13.6907C1.61208 14.4325 1.56759 16.064 1.69222 16.7279C1.79103 16.8373 1.84976 16.9254 2.01004 16.9344C3.99864 17.047 6.01516 16.8746 8.00504 16.9925C8.02669 16.9938 8.24957 17.0552 8.24973 17.0742C8.25496 17.7354 8.52732 18.0749 8.88666 18.594C7.43119 18.5966 1.82699 18.8355 0.845608 18.3198C0.496969 18.1366 0.24947 17.7434 0.145354 17.3708C-0.0945011 16.5127 0.0576517 11.2655 0.0578931 9.96955C0.0585368 7.3223 -0.0854895 4.42467 0.0784099 1.81314C0.101261 1.44953 0.135698 1.15771 0.333472 0.839244C0.605994 0.400382 1.00355 0.215919 1.4786 0.0894835Z" fill="#6DA7F3"/>
<path d="M3.77885 4.40805C3.96359 4.39863 4.70407 4.3736 4.85759 4.39179C5.93223 4.51919 10.6069 4.06955 11.2976 4.65521C11.5735 5.09986 11.3692 5.47515 10.9922 5.76673L6.43753 5.79127C5.74894 5.79441 3.9458 5.92391 3.4743 5.53124C3.19414 5.08956 3.43536 4.7138 3.77885 4.40805Z" fill="#6DA7F3"/>
<path d="M3.8867 7.95538C4.75568 7.94524 5.63762 7.92367 6.50563 7.92826C7.21353 7.93196 8.61597 7.74758 8.99422 8.47931C9.06052 9.01113 8.86709 9.21072 8.3774 9.37071C7.21788 9.35454 4.21764 9.58544 3.44521 9.02175C3.1475 8.49452 3.46243 8.26048 3.8867 7.95538Z" fill="#6DA7F3"/>
<path d="M3.79227 11.5783C4.51232 11.5623 9.21721 11.1009 7.22813 12.9446C6.56231 12.9691 1.70117 13.3662 3.79227 11.5783Z" fill="#6DA7F3"/>
</svg>
