<svg width="36" height="36" viewBox="0 0 36 36" fill="none" xmlns="http://www.w3.org/2000/svg">
<path d="M26.98 14.1209C27.4396 14.1048 27.9927 14.1186 28.4576 14.1185L31.3536 14.1181L32.8882 14.1182C33.1514 14.1183 34.0365 14.0392 34.1573 14.2986C34.4352 14.8697 34.5997 15.5062 34.8374 16.0952C35.1469 16.8616 35.3442 17.7229 34.4684 18.2073C34.4576 19.3639 34.4576 20.5207 34.4681 21.6773C34.6122 21.6802 34.9437 21.6652 35.0255 21.7731C35.172 21.9668 35.0733 22.2283 34.8119 22.2397C34.4987 22.2535 34.2069 22.2454 33.9023 22.2432L28.603 22.2445L26.9038 22.2443C26.6277 22.2445 26.1474 22.2957 25.897 22.176C25.7555 22.1085 25.714 21.9113 25.8487 21.7957C26.0178 21.6507 26.2 21.6751 26.4091 21.6769C26.4348 21.2786 26.424 20.7804 26.4229 20.3759L26.4181 18.206L26.3996 18.1972C25.8318 17.9208 25.6965 17.3736 25.8111 16.7998C25.9207 16.2511 26.2525 15.6283 26.4113 15.0804C26.4827 14.8344 26.585 14.576 26.6857 14.3426C26.7443 14.2063 26.8456 14.1624 26.98 14.1209ZM27.6775 21.6815L28.1962 21.6806C28.6797 21.6843 29.2475 21.701 29.7244 21.6756L29.7299 20.042C29.7308 19.7543 29.7365 19.4669 29.7225 19.1796C29.7099 18.9274 29.4938 18.9529 29.2996 18.9593L29.277 18.9601C29.0724 18.9641 27.8649 18.9377 27.7643 18.999C27.6276 19.2062 27.6713 19.809 27.672 20.0721L27.6775 21.6815ZM26.8045 15.5739C26.6632 15.7474 26.3832 16.6137 26.3304 16.8546C26.2079 17.4157 26.4546 18.0153 27.1367 17.7499C27.5349 17.4773 27.4042 17.2252 27.4477 16.7941C27.471 16.565 27.7405 15.7418 27.6891 15.5961C27.5466 15.5401 26.9831 15.5702 26.8045 15.5739ZM33.223 15.574C33.1995 15.5982 33.1745 15.6095 33.1786 15.6434C33.2252 16.0056 33.3467 16.3704 33.415 16.7286C33.4704 17.0188 33.3524 17.4504 33.5965 17.6648C33.826 17.8666 34.1448 17.8596 34.3805 17.6822C34.8477 17.2123 34.3322 16.0931 34.0984 15.5773C33.8067 15.5655 33.5152 15.5713 33.223 15.574ZM28.925 15.5721C28.7902 15.7253 28.6544 16.9638 28.6737 17.229C28.7098 17.7219 29.0597 17.9353 29.5274 17.7469C29.6416 17.6594 29.7921 17.526 29.791 17.3781C29.7888 17.0854 29.8936 15.7502 29.8407 15.607C29.6816 15.5424 29.1289 15.5695 28.925 15.5721ZM31.1978 18.9597C31.0858 18.9628 30.8323 18.9533 30.8358 19.1141C30.8437 19.492 30.7545 20.4915 30.8692 20.8032C31.0491 20.9016 32.6349 20.8621 32.9576 20.8614C33.0486 20.8608 33.1228 20.8667 33.1887 20.7931C33.2841 20.6868 33.2568 19.4241 33.2318 19.2248C33.2221 19.1497 33.2103 19.0618 33.1613 19.0017C32.9572 18.9322 31.5104 18.9502 31.1978 18.9597ZM31.0768 15.5727C31.0282 15.6196 31.0089 15.6457 31.0135 15.7185C31.0465 16.2536 31.0146 16.8362 31.0759 17.3654C31.1302 17.8323 31.6482 17.9226 32.0001 17.6915C32.2184 17.4621 32.1914 17.365 32.1897 17.05C32.1886 16.8207 32.0743 15.7654 31.9658 15.6096C31.8127 15.5412 31.2705 15.5701 31.0768 15.5727Z" fill="black"/>
<path d="M26.98 14.1209C27.4396 14.1048 27.9927 14.1186 28.4576 14.1185L31.3536 14.1181L32.8882 14.1182C33.1514 14.1183 34.0365 14.0392 34.1573 14.2986C34.4352 14.8697 34.5997 15.5062 34.8374 16.0952C35.1469 16.8616 35.3442 17.7229 34.4684 18.2073C34.4576 19.3639 34.4576 20.5207 34.4681 21.6773C34.6122 21.6802 34.9437 21.6652 35.0255 21.7731C35.172 21.9668 35.0733 22.2283 34.8119 22.2397C34.4987 22.2535 34.2069 22.2454 33.9023 22.2432L28.603 22.2445L26.9038 22.2443C26.6277 22.2445 26.1474 22.2957 25.897 22.176C25.7555 22.1085 25.714 21.9113 25.8487 21.7957C26.0178 21.6507 26.2 21.6751 26.4091 21.6769C26.4348 21.2786 26.424 20.7804 26.4229 20.3759L26.4181 18.206L26.3996 18.1972C25.8318 17.9208 25.6965 17.3736 25.8111 16.7998C25.9207 16.2511 26.2525 15.6283 26.4113 15.0804C26.4827 14.8344 26.585 14.576 26.6857 14.3426C26.7443 14.2063 26.8456 14.1624 26.98 14.1209ZM27.6775 21.6815L28.1962 21.6806C28.6797 21.6843 29.2475 21.701 29.7244 21.6756L29.7299 20.042C29.7308 19.7543 29.7365 19.4669 29.7225 19.1796C29.7099 18.9274 29.4938 18.9529 29.2996 18.9593L29.277 18.9601C29.0724 18.9641 27.8649 18.9377 27.7643 18.999C27.6276 19.2062 27.6713 19.809 27.672 20.0721L27.6775 21.6815ZM26.8045 15.5739C26.6632 15.7474 26.3832 16.6137 26.3304 16.8546C26.2079 17.4157 26.4546 18.0153 27.1367 17.7499C27.5349 17.4773 27.4042 17.2252 27.4477 16.7941C27.471 16.565 27.7405 15.7418 27.6891 15.5961C27.5466 15.5401 26.9831 15.5702 26.8045 15.5739ZM33.223 15.574C33.1995 15.5982 33.1745 15.6095 33.1786 15.6434C33.2252 16.0056 33.3467 16.3704 33.415 16.7286C33.4704 17.0188 33.3524 17.4504 33.5965 17.6648C33.826 17.8666 34.1448 17.8596 34.3805 17.6822C34.8477 17.2123 34.3322 16.0931 34.0984 15.5773C33.8067 15.5655 33.5152 15.5713 33.223 15.574ZM28.925 15.5721C28.7902 15.7253 28.6544 16.9638 28.6737 17.229C28.7098 17.7219 29.0597 17.9353 29.5274 17.7469C29.6416 17.6594 29.7921 17.526 29.791 17.3781C29.7888 17.0854 29.8936 15.7502 29.8407 15.607C29.6816 15.5424 29.1289 15.5695 28.925 15.5721ZM31.1978 18.9597C31.0858 18.9628 30.8323 18.9533 30.8358 19.1141C30.8437 19.492 30.7545 20.4915 30.8692 20.8032C31.0491 20.9016 32.6349 20.8621 32.9576 20.8614C33.0486 20.8608 33.1228 20.8667 33.1887 20.7931C33.2841 20.6868 33.2568 19.4241 33.2318 19.2248C33.2221 19.1497 33.2103 19.0618 33.1613 19.0017C32.9572 18.9322 31.5104 18.9502 31.1978 18.9597ZM31.0768 15.5727C31.0282 15.6196 31.0089 15.6457 31.0135 15.7185C31.0465 16.2536 31.0146 16.8362 31.0759 17.3654C31.1302 17.8323 31.6482 17.9226 32.0001 17.6915C32.2184 17.4621 32.1914 17.365 32.1897 17.05C32.1886 16.8207 32.0743 15.7654 31.9658 15.6096C31.8127 15.5412 31.2705 15.5701 31.0768 15.5727Z" fill="url(#paint0_linear_386_57847)"/>
<path d="M5.62085 13.6588C5.81045 13.6335 5.93703 13.6565 6.10189 13.7623C7.38604 14.5863 8.71374 15.3604 9.98292 16.2026C10.113 16.2889 10.0675 17.8686 10.0673 18.1142C10.0602 19.302 10.063 20.4898 10.0757 21.6774C10.2386 21.6752 10.4247 21.6556 10.5461 21.7786C10.7632 21.9985 10.5938 22.2314 10.3162 22.2399C9.83666 22.2547 9.36286 22.2446 8.88564 22.2443L5.92035 22.245L2.75244 22.2459C2.46864 22.2463 1.12901 22.2918 0.994699 22.1749C0.940241 22.1279 0.906587 22.0611 0.901095 21.9893C0.871724 21.6486 1.23404 21.6767 1.45888 21.6747C1.49029 21.0076 1.39471 16.5037 1.50101 16.2778C1.5402 16.1945 1.67049 16.1119 1.74678 16.0596C2.34912 15.6472 2.99903 15.2839 3.6183 14.8957C4.27524 14.4838 4.93748 14.0229 5.62085 13.6588ZM3.58053 21.6734C3.58042 21.3922 3.55108 20.1315 3.62276 19.9654C3.71454 19.8773 3.88883 19.8593 3.99944 19.8723C4.30035 19.9076 5.19962 19.8235 5.4274 19.9182C5.57272 20.1032 5.51314 21.372 5.51305 21.6782L6.02209 21.673C6.0254 21.4034 5.98202 20.0654 6.10455 19.9329C6.27419 19.854 6.59496 19.8782 6.79304 19.8802C7.01019 19.8775 7.72309 19.8395 7.88037 19.9279C8.0166 20.1198 7.97398 21.3685 7.96609 21.678C8.20198 21.6778 8.46502 21.6824 8.69869 21.6741C8.70546 21.1372 8.756 17.422 8.66662 17.1481C8.5655 17.1165 8.44488 17.1008 8.33884 17.1006C7.22734 17.0978 6.11084 17.0998 4.99965 17.0995L3.67407 17.0991C3.46369 17.099 3.13404 17.0873 2.93427 17.1071C2.89303 17.1588 2.86166 17.1958 2.85837 17.2641C2.83445 17.7579 2.8453 18.2779 2.84659 18.7728L2.85138 21.6806C3.09446 21.6846 3.33759 21.6822 3.58053 21.6734Z" fill="black"/>
<path d="M5.62085 13.6588C5.81045 13.6335 5.93703 13.6565 6.10189 13.7623C7.38604 14.5863 8.71374 15.3604 9.98292 16.2026C10.113 16.2889 10.0675 17.8686 10.0673 18.1142C10.0602 19.302 10.063 20.4898 10.0757 21.6774C10.2386 21.6752 10.4247 21.6556 10.5461 21.7786C10.7632 21.9985 10.5938 22.2314 10.3162 22.2399C9.83666 22.2547 9.36286 22.2446 8.88564 22.2443L5.92035 22.245L2.75244 22.2459C2.46864 22.2463 1.12901 22.2918 0.994699 22.1749C0.940241 22.1279 0.906587 22.0611 0.901095 21.9893C0.871724 21.6486 1.23404 21.6767 1.45888 21.6747C1.49029 21.0076 1.39471 16.5037 1.50101 16.2778C1.5402 16.1945 1.67049 16.1119 1.74678 16.0596C2.34912 15.6472 2.99903 15.2839 3.6183 14.8957C4.27524 14.4838 4.93748 14.0229 5.62085 13.6588ZM3.58053 21.6734C3.58042 21.3922 3.55108 20.1315 3.62276 19.9654C3.71454 19.8773 3.88883 19.8593 3.99944 19.8723C4.30035 19.9076 5.19962 19.8235 5.4274 19.9182C5.57272 20.1032 5.51314 21.372 5.51305 21.6782L6.02209 21.673C6.0254 21.4034 5.98202 20.0654 6.10455 19.9329C6.27419 19.854 6.59496 19.8782 6.79304 19.8802C7.01019 19.8775 7.72309 19.8395 7.88037 19.9279C8.0166 20.1198 7.97398 21.3685 7.96609 21.678C8.20198 21.6778 8.46502 21.6824 8.69869 21.6741C8.70546 21.1372 8.756 17.422 8.66662 17.1481C8.5655 17.1165 8.44488 17.1008 8.33884 17.1006C7.22734 17.0978 6.11084 17.0998 4.99965 17.0995L3.67407 17.0991C3.46369 17.099 3.13404 17.0873 2.93427 17.1071C2.89303 17.1588 2.86166 17.1958 2.85837 17.2641C2.83445 17.7579 2.8453 18.2779 2.84659 18.7728L2.85138 21.6806C3.09446 21.6846 3.33759 21.6822 3.58053 21.6734Z" fill="url(#paint1_linear_386_57847)"/>
<path d="M4.97391 17.7911C5.2198 17.7757 6.48957 17.7414 6.63897 17.8601C6.72287 18.0793 6.67568 18.4758 6.67942 18.7207C6.6824 18.9149 6.73651 19.2842 6.5832 19.4127C6.55945 19.4136 6.53568 19.4143 6.51194 19.4149C6.25647 19.4204 5.03259 19.4731 4.89439 19.342C4.81513 19.1254 4.87381 18.7223 4.86526 18.4784C4.85788 18.2678 4.80142 17.9295 4.97391 17.7911Z" fill="black"/>
<path d="M4.97391 17.7911C5.2198 17.7757 6.48957 17.7414 6.63897 17.8601C6.72287 18.0793 6.67568 18.4758 6.67942 18.7207C6.6824 18.9149 6.73651 19.2842 6.5832 19.4127C6.55945 19.4136 6.53568 19.4143 6.51194 19.4149C6.25647 19.4204 5.03259 19.4731 4.89439 19.342C4.81513 19.1254 4.87381 18.7223 4.86526 18.4784C4.85788 18.2678 4.80142 17.9295 4.97391 17.7911Z" fill="url(#paint2_linear_386_57847)"/>
<path d="M14.7311 2.01896C14.925 1.99528 15.2346 2.00819 15.4377 2.00848H16.5905C17.0158 2.00883 19.7488 1.96916 19.9647 2.0585C20.0359 2.13804 20.0493 2.15564 20.055 2.26282C20.0715 2.57399 20.0644 2.89553 20.0638 3.20747L20.0592 4.95751L20.0601 10.3665C20.2571 10.3759 20.3841 10.3769 20.5807 10.3657C20.6211 8.67516 20.5567 6.96173 20.5822 5.26874C20.5842 5.14001 20.5857 4.98055 20.642 4.86425C20.8891 4.71514 22.0556 4.83003 22.3998 4.80246C22.7443 4.77487 22.6503 5.62736 22.65 5.84836L22.6476 7.36169L22.6489 10.366C22.8623 10.3788 23.078 10.3574 23.2884 10.3827C23.5255 10.4112 23.6718 10.632 23.489 10.8268C23.4117 10.9093 23.2689 10.9629 23.1579 10.9596C22.7056 10.9462 22.2529 10.9508 21.8006 10.9508L18.5847 10.9509L15.6514 10.9516C15.2853 10.9519 14.0266 10.9918 13.7493 10.8929C13.6852 10.8275 13.6393 10.7743 13.6341 10.6777C13.6303 10.5984 13.6613 10.5213 13.719 10.4667C13.8657 10.3259 14.3288 10.3735 14.5598 10.3733C14.5765 9.71293 14.5632 8.99734 14.5632 8.33213L14.5635 4.52162L14.5616 3.11003C14.5608 2.82972 14.5556 2.54157 14.5703 2.26161C14.577 2.13532 14.6382 2.09468 14.7311 2.01896ZM18.0959 10.3733L18.1418 10.3593C18.1845 10.2451 18.1656 9.76946 18.1592 9.61676C18.1497 9.39071 18.2038 8.91461 18.1236 8.72232C17.9604 8.59445 16.8334 8.64016 16.5712 8.65047C16.5435 8.67859 16.4923 8.72768 16.4889 8.76545C16.4485 9.22321 16.4703 9.91791 16.4737 10.3702C17.0144 10.3777 17.5553 10.3787 18.0959 10.3733ZM17.7781 3.30857C17.7245 3.44567 17.7275 4.10197 17.7567 4.23719C17.847 4.34175 18.5614 4.30368 18.7187 4.29125C18.7749 4.1393 18.7754 3.50382 18.7323 3.35947C18.6203 3.26305 17.9591 3.30541 17.7781 3.30857ZM17.8321 6.85637C17.7967 6.87412 17.7647 6.88012 17.7583 6.9291C17.7343 7.11453 17.7146 7.67212 17.7851 7.82202C17.9512 7.8896 18.4687 7.85392 18.6805 7.85471C18.7998 7.73775 18.7883 7.0061 18.7053 6.88075C18.5515 6.82625 18.0269 6.85527 17.8321 6.85637ZM17.9764 5.07646C17.9015 5.07872 17.8319 5.06965 17.7743 5.11139C17.728 5.26584 17.7161 5.91259 17.7855 6.05134C17.9516 6.1054 18.3894 6.0728 18.5902 6.07487C18.6348 6.06863 18.6992 6.07498 18.7242 6.01494C18.7776 5.88676 18.8046 5.15326 18.6864 5.09865C18.5869 5.05267 18.13 5.07341 17.9764 5.07646ZM15.9046 3.30899C15.8531 3.41399 15.8025 4.26634 15.9533 4.28266C16.2288 4.31247 16.5657 4.29909 16.8441 4.29457C16.9122 4.14751 16.9058 3.51269 16.8723 3.36909C16.7844 3.25965 16.0695 3.30646 15.9046 3.30899ZM16.4141 5.07657C16.2929 5.07617 16.0101 5.06374 15.9084 5.09898C15.8625 5.19926 15.8137 5.97604 15.9219 6.05457C15.972 6.09095 16.3059 6.07755 16.3962 6.07555C16.5276 6.07698 16.7692 6.09932 16.8631 6.03034C16.9056 5.84739 16.9015 5.33135 16.871 5.14137C16.8012 5.04617 16.5357 5.0738 16.4141 5.07657ZM15.9506 6.8561C15.9109 6.87974 15.8699 6.89762 15.8683 6.95419C15.8638 7.11192 15.8359 7.72714 15.9046 7.83015C16.0788 7.87677 16.6149 7.85739 16.8163 7.85541C16.9362 7.73483 16.9222 7.0034 16.8392 6.88066C16.6761 6.82159 16.1469 6.85202 15.9506 6.8561Z" fill="black"/>
<path d="M14.7311 2.01896C14.925 1.99528 15.2346 2.00819 15.4377 2.00848H16.5905C17.0158 2.00883 19.7488 1.96916 19.9647 2.0585C20.0359 2.13804 20.0493 2.15564 20.055 2.26282C20.0715 2.57399 20.0644 2.89553 20.0638 3.20747L20.0592 4.95751L20.0601 10.3665C20.2571 10.3759 20.3841 10.3769 20.5807 10.3657C20.6211 8.67516 20.5567 6.96173 20.5822 5.26874C20.5842 5.14001 20.5857 4.98055 20.642 4.86425C20.8891 4.71514 22.0556 4.83003 22.3998 4.80246C22.7443 4.77487 22.6503 5.62736 22.65 5.84836L22.6476 7.36169L22.6489 10.366C22.8623 10.3788 23.078 10.3574 23.2884 10.3827C23.5255 10.4112 23.6718 10.632 23.489 10.8268C23.4117 10.9093 23.2689 10.9629 23.1579 10.9596C22.7056 10.9462 22.2529 10.9508 21.8006 10.9508L18.5847 10.9509L15.6514 10.9516C15.2853 10.9519 14.0266 10.9918 13.7493 10.8929C13.6852 10.8275 13.6393 10.7743 13.6341 10.6777C13.6303 10.5984 13.6613 10.5213 13.719 10.4667C13.8657 10.3259 14.3288 10.3735 14.5598 10.3733C14.5765 9.71293 14.5632 8.99734 14.5632 8.33213L14.5635 4.52162L14.5616 3.11003C14.5608 2.82972 14.5556 2.54157 14.5703 2.26161C14.577 2.13532 14.6382 2.09468 14.7311 2.01896ZM18.0959 10.3733L18.1418 10.3593C18.1845 10.2451 18.1656 9.76946 18.1592 9.61676C18.1497 9.39071 18.2038 8.91461 18.1236 8.72232C17.9604 8.59445 16.8334 8.64016 16.5712 8.65047C16.5435 8.67859 16.4923 8.72768 16.4889 8.76545C16.4485 9.22321 16.4703 9.91791 16.4737 10.3702C17.0144 10.3777 17.5553 10.3787 18.0959 10.3733ZM17.7781 3.30857C17.7245 3.44567 17.7275 4.10197 17.7567 4.23719C17.847 4.34175 18.5614 4.30368 18.7187 4.29125C18.7749 4.1393 18.7754 3.50382 18.7323 3.35947C18.6203 3.26305 17.9591 3.30541 17.7781 3.30857ZM17.8321 6.85637C17.7967 6.87412 17.7647 6.88012 17.7583 6.9291C17.7343 7.11453 17.7146 7.67212 17.7851 7.82202C17.9512 7.8896 18.4687 7.85392 18.6805 7.85471C18.7998 7.73775 18.7883 7.0061 18.7053 6.88075C18.5515 6.82625 18.0269 6.85527 17.8321 6.85637ZM17.9764 5.07646C17.9015 5.07872 17.8319 5.06965 17.7743 5.11139C17.728 5.26584 17.7161 5.91259 17.7855 6.05134C17.9516 6.1054 18.3894 6.0728 18.5902 6.07487C18.6348 6.06863 18.6992 6.07498 18.7242 6.01494C18.7776 5.88676 18.8046 5.15326 18.6864 5.09865C18.5869 5.05267 18.13 5.07341 17.9764 5.07646ZM15.9046 3.30899C15.8531 3.41399 15.8025 4.26634 15.9533 4.28266C16.2288 4.31247 16.5657 4.29909 16.8441 4.29457C16.9122 4.14751 16.9058 3.51269 16.8723 3.36909C16.7844 3.25965 16.0695 3.30646 15.9046 3.30899ZM16.4141 5.07657C16.2929 5.07617 16.0101 5.06374 15.9084 5.09898C15.8625 5.19926 15.8137 5.97604 15.9219 6.05457C15.972 6.09095 16.3059 6.07755 16.3962 6.07555C16.5276 6.07698 16.7692 6.09932 16.8631 6.03034C16.9056 5.84739 16.9015 5.33135 16.871 5.14137C16.8012 5.04617 16.5357 5.0738 16.4141 5.07657ZM15.9506 6.8561C15.9109 6.87974 15.8699 6.89762 15.8683 6.95419C15.8638 7.11192 15.8359 7.72714 15.9046 7.83015C16.0788 7.87677 16.6149 7.85739 16.8163 7.85541C16.9362 7.73483 16.9222 7.0034 16.8392 6.88066C16.6761 6.82159 16.1469 6.85202 15.9506 6.8561Z" fill="url(#paint3_linear_386_57847)"/>
<path d="M17.7097 13.4896C17.919 13.495 18.7633 13.447 18.8788 13.5287C19.5071 13.9729 18.6016 14.5607 19.729 14.8453C20.1971 14.9635 20.1789 15.1529 20.6426 14.628C20.7775 14.4754 20.984 14.3736 21.1676 14.4803C21.4886 14.6821 21.9769 15.1416 22.1564 15.4709C22.2998 15.7343 21.7355 16.0615 21.6538 16.2642C21.538 16.4855 21.8893 17.0786 21.9714 17.2897C22.0711 17.5458 22.8932 17.2761 23.0472 17.5511C23.24 17.8957 23.128 18.5079 23.1282 18.9038C23.0913 19.4853 22.273 19.074 22.0057 19.3392C21.8914 19.4523 21.6713 20.0393 21.6357 20.2177C21.569 20.5525 22.2392 20.8286 22.1794 21.092C22.0968 21.4575 21.496 21.8683 21.2419 22.1478C20.893 22.4997 20.4627 21.6796 20.21 21.6719C19.9776 21.6647 19.4142 21.9145 19.2167 22.0579C19.0684 22.1796 19.1229 22.6552 19.1092 22.8922C18.9818 23.0954 18.912 23.1284 18.6782 23.1403C18.3841 23.1431 18.0849 23.153 17.7912 23.1512C17.5326 23.1497 17.4349 23.1339 17.2621 22.959C17.209 22.7033 17.2463 22.4689 17.2273 22.2253C17.2064 21.9584 16.5049 21.7548 16.2847 21.684C15.9107 21.5641 15.7409 22.1522 15.4222 22.2051C15.1066 22.2561 14.8076 21.8782 14.606 21.6702C14.439 21.4977 14.0497 21.201 14.2083 20.9437C14.318 20.7658 14.4953 20.6307 14.6301 20.476C14.8842 20.2186 14.6057 19.9697 14.563 19.7959C14.3389 18.8825 13.9167 19.4264 13.3595 19.1788C13.1486 19.0852 13.2016 18.4871 13.2002 18.2762C13.199 18.0947 13.1474 17.6903 13.2941 17.5347C13.5691 17.2411 14.1546 17.6049 14.4003 17.245C14.468 17.1631 14.5329 16.8876 14.5813 16.8101C14.9975 16.1439 14.3686 16.1182 14.1702 15.6075C14.1083 15.3797 14.4836 15.0943 14.586 14.993C15.1428 14.4422 15.3066 14.1286 15.9088 14.8427C16.1359 15.112 16.4566 14.881 16.6893 14.8003C17.1452 14.6422 17.2884 14.5976 17.2357 14.0382C17.2086 13.6401 17.3153 13.5141 17.7097 13.4896ZM18.245 20.3082C19.3362 20.2664 20.1879 19.3495 20.149 18.2582C20.1103 17.1669 19.1958 16.3127 18.1042 16.3485C17.0086 16.3844 16.1504 17.3033 16.1893 18.399C16.2283 19.4945 17.1496 20.3501 18.245 20.3082Z" fill="black"/>
<path d="M17.7097 13.4896C17.919 13.495 18.7633 13.447 18.8788 13.5287C19.5071 13.9729 18.6016 14.5607 19.729 14.8453C20.1971 14.9635 20.1789 15.1529 20.6426 14.628C20.7775 14.4754 20.984 14.3736 21.1676 14.4803C21.4886 14.6821 21.9769 15.1416 22.1564 15.4709C22.2998 15.7343 21.7355 16.0615 21.6538 16.2642C21.538 16.4855 21.8893 17.0786 21.9714 17.2897C22.0711 17.5458 22.8932 17.2761 23.0472 17.5511C23.24 17.8957 23.128 18.5079 23.1282 18.9038C23.0913 19.4853 22.273 19.074 22.0057 19.3392C21.8914 19.4523 21.6713 20.0393 21.6357 20.2177C21.569 20.5525 22.2392 20.8286 22.1794 21.092C22.0968 21.4575 21.496 21.8683 21.2419 22.1478C20.893 22.4997 20.4627 21.6796 20.21 21.6719C19.9776 21.6647 19.4142 21.9145 19.2167 22.0579C19.0684 22.1796 19.1229 22.6552 19.1092 22.8922C18.9818 23.0954 18.912 23.1284 18.6782 23.1403C18.3841 23.1431 18.0849 23.153 17.7912 23.1512C17.5326 23.1497 17.4349 23.1339 17.2621 22.959C17.209 22.7033 17.2463 22.4689 17.2273 22.2253C17.2064 21.9584 16.5049 21.7548 16.2847 21.684C15.9107 21.5641 15.7409 22.1522 15.4222 22.2051C15.1066 22.2561 14.8076 21.8782 14.606 21.6702C14.439 21.4977 14.0497 21.201 14.2083 20.9437C14.318 20.7658 14.4953 20.6307 14.6301 20.476C14.8842 20.2186 14.6057 19.9697 14.563 19.7959C14.3389 18.8825 13.9167 19.4264 13.3595 19.1788C13.1486 19.0852 13.2016 18.4871 13.2002 18.2762C13.199 18.0947 13.1474 17.6903 13.2941 17.5347C13.5691 17.2411 14.1546 17.6049 14.4003 17.245C14.468 17.1631 14.5329 16.8876 14.5813 16.8101C14.9975 16.1439 14.3686 16.1182 14.1702 15.6075C14.1083 15.3797 14.4836 15.0943 14.586 14.993C15.1428 14.4422 15.3066 14.1286 15.9088 14.8427C16.1359 15.112 16.4566 14.881 16.6893 14.8003C17.1452 14.6422 17.2884 14.5976 17.2357 14.0382C17.2086 13.6401 17.3153 13.5141 17.7097 13.4896ZM18.245 20.3082C19.3362 20.2664 20.1879 19.3495 20.149 18.2582C20.1103 17.1669 19.1958 16.3127 18.1042 16.3485C17.0086 16.3844 16.1504 17.3033 16.1893 18.399C16.2283 19.4945 17.1496 20.3501 18.245 20.3082Z" fill="url(#paint4_linear_386_57847)"/>
<path d="M15.324 31.4128C16.4828 31.3745 17.81 31.4068 18.9815 31.406L20.2023 31.4055C21.0094 31.4051 21.7433 31.3677 22.0471 32.3308C22.1455 32.6643 22.104 33.0711 22.1216 33.4044C22.1545 34.0291 21.9116 34.0201 21.3923 33.9887C21.2552 33.9806 21.0408 33.9856 20.8975 33.9854L16.5858 33.9858C16.1924 33.9858 14.3533 34.0333 14.1384 33.9147C14.0161 33.722 14.0694 33.4092 14.0591 33.1897C14.015 32.2574 14.2952 31.5582 15.324 31.4128Z" fill="black"/>
<path d="M15.324 31.4128C16.4828 31.3745 17.81 31.4068 18.9815 31.406L20.2023 31.4055C21.0094 31.4051 21.7433 31.3677 22.0471 32.3308C22.1455 32.6643 22.104 33.0711 22.1216 33.4044C22.1545 34.0291 21.9116 34.0201 21.3923 33.9887C21.2552 33.9806 21.0408 33.9856 20.8975 33.9854L16.5858 33.9858C16.1924 33.9858 14.3533 34.0333 14.1384 33.9147C14.0161 33.722 14.0694 33.4092 14.0591 33.1897C14.015 32.2574 14.2952 31.5582 15.324 31.4128Z" fill="url(#paint5_linear_386_57847)"/>
<path d="M17.6899 27.8297C18.8727 27.7363 19.9223 28.0015 19.859 29.4805C19.8516 29.6576 19.8922 29.9126 19.7927 30.0614C19.6604 30.1481 18.8813 30.1134 18.6616 30.1119C18.3422 30.1117 16.6897 30.1677 16.5259 30.0695C16.4915 30.0488 16.4695 29.993 16.4605 29.955C16.4343 29.8441 16.4501 29.7178 16.4498 29.6044C16.4489 29.1866 16.4347 28.8017 16.676 28.4399C16.9149 28.0816 17.2784 27.9099 17.6899 27.8297Z" fill="black"/>
<path d="M17.6899 27.8297C18.8727 27.7363 19.9223 28.0015 19.859 29.4805C19.8516 29.6576 19.8922 29.9126 19.7927 30.0614C19.6604 30.1481 18.8813 30.1134 18.6616 30.1119C18.3422 30.1117 16.6897 30.1677 16.5259 30.0695C16.4915 30.0488 16.4695 29.993 16.4605 29.955C16.4343 29.8441 16.4501 29.7178 16.4498 29.6044C16.4489 29.1866 16.4347 28.8017 16.676 28.4399C16.9149 28.0816 17.2784 27.9099 17.6899 27.8297Z" fill="url(#paint6_linear_386_57847)"/>
<path d="M12.4044 7.02394C12.5965 7.02243 12.7715 7.11893 12.826 7.31556C12.9072 7.60863 12.5635 7.77932 12.3508 7.8934C10.5501 8.85952 9.00216 10.331 7.96248 12.0918C7.84122 12.2971 7.76178 12.4542 7.52143 12.5095C6.87433 12.4551 7.13658 11.9318 7.35154 11.5819C8.35508 9.93657 9.73654 8.55428 11.3813 7.54974C11.6303 7.39662 12.139 7.08743 12.4044 7.02394Z" fill="black"/>
<path d="M12.4044 7.02394C12.5965 7.02243 12.7715 7.11893 12.826 7.31556C12.9072 7.60863 12.5635 7.77932 12.3508 7.8934C10.5501 8.85952 9.00216 10.331 7.96248 12.0918C7.84122 12.2971 7.76178 12.4542 7.52143 12.5095C6.87433 12.4551 7.13658 11.9318 7.35154 11.5819C8.35508 9.93657 9.73654 8.55428 11.3813 7.54974C11.6303 7.39662 12.139 7.08743 12.4044 7.02394Z" fill="url(#paint7_linear_386_57847)"/>
<path d="M24.0094 7.24476C24.3679 7.20351 24.5784 7.4019 24.8677 7.58166C26.6201 8.67044 28.0537 10.1994 29.0431 12.0084C29.1951 12.2865 29.1619 12.4988 28.875 12.6519C28.7637 12.6713 28.5897 12.6767 28.5148 12.5816C28.2501 12.2448 28.0438 11.8142 27.8037 11.4559C27.0763 10.3913 26.1726 9.4584 25.1317 8.69742C24.9439 8.55874 24.7524 8.42519 24.5573 8.29699C24.3455 8.15982 23.9962 7.99559 23.8361 7.81702C23.6513 7.6114 23.8181 7.36321 24.0094 7.24476Z" fill="black"/>
<path d="M24.0094 7.24476C24.3679 7.20351 24.5784 7.4019 24.8677 7.58166C26.6201 8.67044 28.0537 10.1994 29.0431 12.0084C29.1951 12.2865 29.1619 12.4988 28.875 12.6519C28.7637 12.6713 28.5897 12.6767 28.5148 12.5816C28.2501 12.2448 28.0438 11.8142 27.8037 11.4559C27.0763 10.3913 26.1726 9.4584 25.1317 8.69742C24.9439 8.55874 24.7524 8.42519 24.5573 8.29699C24.3455 8.15982 23.9962 7.99559 23.8361 7.81702C23.6513 7.6114 23.8181 7.36321 24.0094 7.24476Z" fill="url(#paint8_linear_386_57847)"/>
<path d="M7.54036 23.7197C7.71614 23.7228 7.82704 23.7474 7.92776 23.9021C8.05847 24.1026 8.1799 24.3087 8.30883 24.5106C8.49973 24.8062 8.70587 25.092 8.92647 25.3664C9.51176 26.0946 10.1825 26.7499 10.9241 27.318C11.2753 27.59 11.6439 27.8264 12.0172 28.066C12.115 28.1423 12.2855 28.2117 12.3273 28.3332C12.4141 28.586 12.2838 28.7743 12.0465 28.8582C11.9302 28.8597 11.8526 28.8547 11.7482 28.7949C9.8717 27.7205 8.2882 26.1252 7.24727 24.2296C7.12245 24.0022 7.32464 23.7885 7.54036 23.7197Z" fill="black"/>
<path d="M7.54036 23.7197C7.71614 23.7228 7.82704 23.7474 7.92776 23.9021C8.05847 24.1026 8.1799 24.3087 8.30883 24.5106C8.49973 24.8062 8.70587 25.092 8.92647 25.3664C9.51176 26.0946 10.1825 26.7499 10.9241 27.318C11.2753 27.59 11.6439 27.8264 12.0172 28.066C12.115 28.1423 12.2855 28.2117 12.3273 28.3332C12.4141 28.586 12.2838 28.7743 12.0465 28.8582C11.9302 28.8597 11.8526 28.8547 11.7482 28.7949C9.8717 27.7205 8.2882 26.1252 7.24727 24.2296C7.12245 24.0022 7.32464 23.7885 7.54036 23.7197Z" fill="url(#paint9_linear_386_57847)"/>
<path d="M28.5132 23.6314C28.8686 23.6068 29.0819 23.808 28.9525 24.1723C28.8713 24.4007 28.6887 24.6694 28.5569 24.8781C27.7186 26.1887 26.6323 27.3231 25.3591 28.2174C25.1497 28.3641 24.7846 28.6126 24.5616 28.7211C24.2251 28.747 23.9916 28.5377 24.1001 28.202C24.1454 28.0623 24.5447 27.8321 24.6792 27.7405C24.9428 27.5599 25.2007 27.3712 25.4527 27.1746C25.9924 26.7458 26.6352 26.1087 27.0741 25.5797C27.3709 25.2155 27.6479 24.8359 27.9043 24.4425C28.0589 24.2006 28.2674 23.7439 28.5132 23.6314Z" fill="black"/>
<path d="M28.5132 23.6314C28.8686 23.6068 29.0819 23.808 28.9525 24.1723C28.8713 24.4007 28.6887 24.6694 28.5569 24.8781C27.7186 26.1887 26.6323 27.3231 25.3591 28.2174C25.1497 28.3641 24.7846 28.6126 24.5616 28.7211C24.2251 28.747 23.9916 28.5377 24.1001 28.202C24.1454 28.0623 24.5447 27.8321 24.6792 27.7405C24.9428 27.5599 25.2007 27.3712 25.4527 27.1746C25.9924 26.7458 26.6352 26.1087 27.0741 25.5797C27.3709 25.2155 27.6479 24.8359 27.9043 24.4425C28.0589 24.2006 28.2674 23.7439 28.5132 23.6314Z" fill="url(#paint10_linear_386_57847)"/>
<path d="M21.1789 29.8096C21.6059 29.7552 22.2195 29.7921 22.5975 30.0295C22.9042 30.2187 23.1204 30.5247 23.1964 30.8766C23.2834 31.2898 23.1907 31.9355 23.2258 32.3744C23.2535 32.719 22.8317 32.6474 22.6145 32.6364C22.589 32.4506 22.563 32.3216 22.5136 32.1428C22.4431 31.9161 22.2858 31.6378 22.1246 31.4636C21.4664 30.7538 20.7518 30.9557 19.9131 30.9111C20.0605 30.245 20.5209 29.8892 21.1789 29.8096Z" fill="black"/>
<path d="M21.1789 29.8096C21.6059 29.7552 22.2195 29.7921 22.5975 30.0295C22.9042 30.2187 23.1204 30.5247 23.1964 30.8766C23.2834 31.2898 23.1907 31.9355 23.2258 32.3744C23.2535 32.719 22.8317 32.6474 22.6145 32.6364C22.589 32.4506 22.563 32.3216 22.5136 32.1428C22.4431 31.9161 22.2858 31.6378 22.1246 31.4636C21.4664 30.7538 20.7518 30.9557 19.9131 30.9111C20.0605 30.245 20.5209 29.8892 21.1789 29.8096Z" fill="url(#paint11_linear_386_57847)"/>
<path d="M14.3375 29.8092C14.4268 29.7949 14.547 29.8055 14.6412 29.7998C15.4645 29.7501 16.1512 30.0414 16.3636 30.9087C15.3429 30.9381 14.7752 30.7549 14.0097 31.5642C13.7204 31.9313 13.653 32.196 13.5601 32.6411C13.3583 32.654 13.059 32.6953 13.0508 32.4018C13.0425 32.015 13.0509 31.6213 13.047 31.234C13.0387 30.4133 13.5521 29.9052 14.3375 29.8092Z" fill="black"/>
<path d="M14.3375 29.8092C14.4268 29.7949 14.547 29.8055 14.6412 29.7998C15.4645 29.7501 16.1512 30.0414 16.3636 30.9087C15.3429 30.9381 14.7752 30.7549 14.0097 31.5642C13.7204 31.9313 13.653 32.196 13.5601 32.6411C13.3583 32.654 13.059 32.6953 13.0508 32.4018C13.0425 32.015 13.0509 31.6213 13.047 31.234C13.0387 30.4133 13.5521 29.9052 14.3375 29.8092Z" fill="url(#paint12_linear_386_57847)"/>
<path d="M14.6503 27.4742C15.2223 27.439 15.7158 27.8716 15.7559 28.4432C15.7961 29.015 15.3679 29.5121 14.7965 29.5574C14.218 29.6031 13.7132 29.1683 13.6725 28.5895C13.6319 28.0106 14.071 27.5095 14.6503 27.4742Z" fill="black"/>
<path d="M14.6503 27.4742C15.2223 27.439 15.7158 27.8716 15.7559 28.4432C15.7961 29.015 15.3679 29.5121 14.7965 29.5574C14.218 29.6031 13.7132 29.1683 13.6725 28.5895C13.6319 28.0106 14.071 27.5095 14.6503 27.4742Z" fill="url(#paint13_linear_386_57847)"/>
<path d="M21.5041 27.4728C22.079 27.446 22.5673 27.8898 22.5954 28.4647C22.6236 29.0398 22.1809 29.529 21.606 29.5582C21.0294 29.5877 20.5382 29.1435 20.5101 28.5666C20.4819 27.99 20.9272 27.4999 21.5041 27.4728Z" fill="black"/>
<path d="M21.5041 27.4728C22.079 27.446 22.5673 27.8898 22.5954 28.4647C22.6236 29.0398 22.1809 29.529 21.606 29.5582C21.0294 29.5877 20.5382 29.1435 20.5101 28.5666C20.4819 27.99 20.9272 27.4999 21.5041 27.4728Z" fill="url(#paint14_linear_386_57847)"/>
<path d="M17.9332 25.5214C18.4925 25.3999 19.0448 25.7541 19.1674 26.3131C19.2902 26.8724 18.9371 27.4254 18.3783 27.5493C17.8177 27.6736 17.2627 27.319 17.1396 26.7582C17.0165 26.1976 17.3722 25.6433 17.9332 25.5214Z" fill="black"/>
<path d="M17.9332 25.5214C18.4925 25.3999 19.0448 25.7541 19.1674 26.3131C19.2902 26.8724 18.9371 27.4254 18.3783 27.5493C17.8177 27.6736 17.2627 27.319 17.1396 26.7582C17.0165 26.1976 17.3722 25.6433 17.9332 25.5214Z" fill="url(#paint15_linear_386_57847)"/>
<defs>
<linearGradient id="paint0_linear_386_57847" x1="31.1203" y1="18.7268" x2="23.3809" y2="23.037" gradientUnits="userSpaceOnUse">
<stop stop-color="#FFA78F"/>
<stop offset="1" stop-color="#F23E2C"/>
</linearGradient>
<linearGradient id="paint1_linear_386_57847" x1="6.48963" y1="18.5284" x2="-1.63481" y2="23.002" gradientUnits="userSpaceOnUse">
<stop stop-color="#FFA78F"/>
<stop offset="1" stop-color="#F23E2C"/>
</linearGradient>
<linearGradient id="paint2_linear_386_57847" x1="5.90633" y1="18.7131" x2="4.3589" y2="19.5495" gradientUnits="userSpaceOnUse">
<stop stop-color="#FFA78F"/>
<stop offset="1" stop-color="#F23E2C"/>
</linearGradient>
<linearGradient id="paint3_linear_386_57847" x1="19.3341" y1="7.07988" x2="10.9702" y2="11.5903" gradientUnits="userSpaceOnUse">
<stop stop-color="#FFA78F"/>
<stop offset="1" stop-color="#F23E2C"/>
</linearGradient>
<linearGradient id="paint4_linear_386_57847" x1="18.9094" y1="18.9636" x2="10.2528" y2="23.3027" gradientUnits="userSpaceOnUse">
<stop stop-color="#FFA78F"/>
<stop offset="1" stop-color="#F23E2C"/>
</linearGradient>
<linearGradient id="paint5_linear_386_57847" x1="18.6837" y1="32.8715" x2="16.0002" y2="36.912" gradientUnits="userSpaceOnUse">
<stop stop-color="#FFA78F"/>
<stop offset="1" stop-color="#F23E2C"/>
</linearGradient>
<linearGradient id="paint6_linear_386_57847" x1="18.4051" y1="29.1253" x2="15.9552" y2="30.8835" gradientUnits="userSpaceOnUse">
<stop stop-color="#FFA78F"/>
<stop offset="1" stop-color="#F23E2C"/>
</linearGradient>
<linearGradient id="paint7_linear_386_57847" x1="10.3968" y1="10.134" x2="5.45021" y2="12.6445" gradientUnits="userSpaceOnUse">
<stop stop-color="#FFA78F"/>
<stop offset="1" stop-color="#F23E2C"/>
</linearGradient>
<linearGradient id="paint8_linear_386_57847" x1="26.84" y1="10.3146" x2="22.0998" y2="12.5991" gradientUnits="userSpaceOnUse">
<stop stop-color="#FFA78F"/>
<stop offset="1" stop-color="#F23E2C"/>
</linearGradient>
<linearGradient id="paint9_linear_386_57847" x1="10.1604" y1="26.6332" x2="5.64154" y2="28.8332" gradientUnits="userSpaceOnUse">
<stop stop-color="#FFA78F"/>
<stop offset="1" stop-color="#F23E2C"/>
</linearGradient>
<linearGradient id="paint10_linear_386_57847" x1="26.894" y1="26.5174" x2="22.5161" y2="28.5723" gradientUnits="userSpaceOnUse">
<stop stop-color="#FFA78F"/>
<stop offset="1" stop-color="#F23E2C"/>
</linearGradient>
<linearGradient id="paint11_linear_386_57847" x1="21.8185" y1="31.4105" x2="19.0812" y2="32.955" gradientUnits="userSpaceOnUse">
<stop stop-color="#FFA78F"/>
<stop offset="1" stop-color="#F23E2C"/>
</linearGradient>
<linearGradient id="paint12_linear_386_57847" x1="14.9494" y1="31.4138" x2="12.2171" y2="32.9565" gradientUnits="userSpaceOnUse">
<stop stop-color="#FFA78F"/>
<stop offset="1" stop-color="#F23E2C"/>
</linearGradient>
<linearGradient id="paint13_linear_386_57847" x1="14.868" y1="28.6563" x2="13.0328" y2="29.5486" gradientUnits="userSpaceOnUse">
<stop stop-color="#FFA78F"/>
<stop offset="1" stop-color="#F23E2C"/>
</linearGradient>
<linearGradient id="paint14_linear_386_57847" x1="21.7065" y1="28.6555" x2="19.8718" y2="29.5475" gradientUnits="userSpaceOnUse">
<stop stop-color="#FFA78F"/>
<stop offset="1" stop-color="#F23E2C"/>
</linearGradient>
<linearGradient id="paint15_linear_386_57847" x1="18.3064" y1="26.6749" x2="16.4817" y2="27.562" gradientUnits="userSpaceOnUse">
<stop stop-color="#FFA78F"/>
<stop offset="1" stop-color="#F23E2C"/>
</linearGradient>
</defs>
</svg>
