<svg width="36" height="36" viewBox="0 0 36 36" fill="none" xmlns="http://www.w3.org/2000/svg">
<path d="M24.6342 20.671C24.7362 20.662 24.8566 20.657 24.9477 20.7031C25.2676 20.8648 25.5887 21.0937 25.8969 21.2841C26.5081 21.6618 27.0948 21.961 27.7684 22.2149C28.0717 22.3307 28.3819 22.428 28.6969 22.5064C28.9737 22.5776 29.3186 22.627 29.5724 22.732C29.6363 22.7584 29.6947 22.8351 29.7026 22.9012C29.7556 23.346 29.7332 23.9499 29.7268 24.3974C29.6998 26.2838 29.9429 27.6763 28.9247 29.403C28.1407 30.7327 27.0926 31.5824 25.7509 32.3163C25.5613 32.42 25.08 32.6737 24.8985 32.7229C24.536 32.7497 23.9467 32.3653 23.6204 32.1845C21.7907 31.1711 20.1717 29.4131 19.8618 27.2811C19.8317 27.075 19.8128 26.8674 19.8047 26.6594C19.7818 25.9839 19.8055 25.293 19.8047 24.6052C19.8038 24.0841 19.7563 23.3548 19.8438 22.8509C19.8738 22.678 20.5816 22.5666 20.7855 22.5141C21.8088 22.2501 22.7641 21.7784 23.6734 21.2468C23.9471 21.0882 24.3752 20.7899 24.6342 20.671ZM24.0332 27.5219C23.8256 27.3162 22.9399 26.3633 22.7934 26.2642C22.6916 26.1944 22.5708 26.1572 22.4474 26.1583C22.274 26.1594 22.1086 26.231 21.9891 26.3567C21.8826 26.4696 21.8266 26.621 21.8338 26.7758C21.8507 27.1381 22.2338 27.4109 22.4739 27.6759C22.689 27.9004 22.9058 28.1268 23.122 28.3509C23.5095 28.7525 23.9478 29.3414 24.5057 28.7749C25.2188 28.0508 25.931 27.322 26.6419 26.5939L27.309 25.9114C27.5245 25.6926 27.7917 25.4975 27.804 25.1726C27.8112 25.0162 27.7554 24.8633 27.6493 24.7482C27.4971 24.5832 27.318 24.5338 27.1012 24.5406C26.7429 24.6456 26.3396 25.1529 26.0703 25.4334C25.614 25.9105 25.1542 26.3844 24.6914 26.8554C24.5139 27.0366 24.216 27.36 24.0332 27.5219Z" fill="black"/>
<path d="M24.6342 20.671C24.7362 20.662 24.8566 20.657 24.9477 20.7031C25.2676 20.8648 25.5887 21.0937 25.8969 21.2841C26.5081 21.6618 27.0948 21.961 27.7684 22.2149C28.0717 22.3307 28.3819 22.428 28.6969 22.5064C28.9737 22.5776 29.3186 22.627 29.5724 22.732C29.6363 22.7584 29.6947 22.8351 29.7026 22.9012C29.7556 23.346 29.7332 23.9499 29.7268 24.3974C29.6998 26.2838 29.9429 27.6763 28.9247 29.403C28.1407 30.7327 27.0926 31.5824 25.7509 32.3163C25.5613 32.42 25.08 32.6737 24.8985 32.7229C24.536 32.7497 23.9467 32.3653 23.6204 32.1845C21.7907 31.1711 20.1717 29.4131 19.8618 27.2811C19.8317 27.075 19.8128 26.8674 19.8047 26.6594C19.7818 25.9839 19.8055 25.293 19.8047 24.6052C19.8038 24.0841 19.7563 23.3548 19.8438 22.8509C19.8738 22.678 20.5816 22.5666 20.7855 22.5141C21.8088 22.2501 22.7641 21.7784 23.6734 21.2468C23.9471 21.0882 24.3752 20.7899 24.6342 20.671ZM24.0332 27.5219C23.8256 27.3162 22.9399 26.3633 22.7934 26.2642C22.6916 26.1944 22.5708 26.1572 22.4474 26.1583C22.274 26.1594 22.1086 26.231 21.9891 26.3567C21.8826 26.4696 21.8266 26.621 21.8338 26.7758C21.8507 27.1381 22.2338 27.4109 22.4739 27.6759C22.689 27.9004 22.9058 28.1268 23.122 28.3509C23.5095 28.7525 23.9478 29.3414 24.5057 28.7749C25.2188 28.0508 25.931 27.322 26.6419 26.5939L27.309 25.9114C27.5245 25.6926 27.7917 25.4975 27.804 25.1726C27.8112 25.0162 27.7554 24.8633 27.6493 24.7482C27.4971 24.5832 27.318 24.5338 27.1012 24.5406C26.7429 24.6456 26.3396 25.1529 26.0703 25.4334C25.614 25.9105 25.1542 26.3844 24.6914 26.8554C24.5139 27.0366 24.216 27.36 24.0332 27.5219Z" fill="url(#paint0_linear_386_57869)"/>
<path d="M7.4603 6.39674C8.46133 6.37728 9.55044 6.38365 10.5534 6.39525C10.5555 6.89462 10.5674 7.43199 10.548 7.9282C10.101 7.9294 9.65402 7.92828 9.20702 7.92486C8.83919 7.92341 8.3612 7.86851 8.06584 8.11824C7.72853 8.40342 7.83017 9.19138 7.83004 9.6228L7.83 11.5109L7.83037 17.4474L7.8298 25.0246L7.82839 27.5217C7.82824 27.9384 7.82664 28.3551 7.83048 28.7718C7.83345 29.0919 8.10635 29.4166 8.43277 29.4375C8.76648 29.4588 9.11168 29.4478 9.44691 29.446L11.3171 29.4403L16.6791 29.4414C17.5974 29.4414 18.801 29.4115 19.7065 29.4577C19.8581 29.6642 19.9905 29.9451 20.1702 30.1916C20.3739 30.495 20.5977 30.7845 20.8403 31.058C19.9541 31.0956 18.8733 31.0699 17.9772 31.0699L12.7242 31.0688L9.19619 31.0679C8.74056 31.0679 7.8457 31.0969 7.42461 31.0598C7.1977 31.0413 6.98009 30.9616 6.79506 30.8289C6.19141 30.3985 6.26575 29.8153 6.26737 29.1668L6.27071 27.61L6.27517 22.1159L6.27427 12.2844L6.27051 9.30274C6.26858 8.76194 6.26137 8.2178 6.26985 7.67831C6.28057 7.30192 6.4146 6.95622 6.70536 6.70879C6.94281 6.50678 7.16069 6.43773 7.4603 6.39674Z" fill="black"/>
<path d="M7.4603 6.39674C8.46133 6.37728 9.55044 6.38365 10.5534 6.39525C10.5555 6.89462 10.5674 7.43199 10.548 7.9282C10.101 7.9294 9.65402 7.92828 9.20702 7.92486C8.83919 7.92341 8.3612 7.86851 8.06584 8.11824C7.72853 8.40342 7.83017 9.19138 7.83004 9.6228L7.83 11.5109L7.83037 17.4474L7.8298 25.0246L7.82839 27.5217C7.82824 27.9384 7.82664 28.3551 7.83048 28.7718C7.83345 29.0919 8.10635 29.4166 8.43277 29.4375C8.76648 29.4588 9.11168 29.4478 9.44691 29.446L11.3171 29.4403L16.6791 29.4414C17.5974 29.4414 18.801 29.4115 19.7065 29.4577C19.8581 29.6642 19.9905 29.9451 20.1702 30.1916C20.3739 30.495 20.5977 30.7845 20.8403 31.058C19.9541 31.0956 18.8733 31.0699 17.9772 31.0699L12.7242 31.0688L9.19619 31.0679C8.74056 31.0679 7.8457 31.0969 7.42461 31.0598C7.1977 31.0413 6.98009 30.9616 6.79506 30.8289C6.19141 30.3985 6.26575 29.8153 6.26737 29.1668L6.27071 27.61L6.27517 22.1159L6.27427 12.2844L6.27051 9.30274C6.26858 8.76194 6.26137 8.2178 6.26985 7.67831C6.28057 7.30192 6.4146 6.95622 6.70536 6.70879C6.94281 6.50678 7.16069 6.43773 7.4603 6.39674Z" fill="url(#paint1_linear_386_57869)"/>
<path d="M15.9519 3.27919C16.1082 3.2668 16.3564 3.29066 16.5105 3.32579C17.7406 3.60614 18.3654 4.52977 18.4121 5.72777C18.9286 5.7359 19.4567 5.7211 19.9738 5.72496C20.6155 5.71378 20.8919 6.00788 20.8708 6.65446C20.8475 7.36241 20.9307 8.18725 20.8218 8.89417C20.7989 9.04293 20.5303 9.3042 20.3811 9.32313C19.9325 9.38007 19.4479 9.358 18.991 9.35795L16.2751 9.35674L13.3088 9.35742C12.8464 9.35756 12.3527 9.37702 11.8981 9.33517C11.5226 9.26083 11.333 8.96504 11.3283 8.59838C11.3141 7.92059 11.3271 7.25444 11.3245 6.57566C11.2912 6.17925 11.5187 5.74634 11.9656 5.72281C12.5336 5.69291 13.1566 5.71332 13.7347 5.70857C13.7867 4.34671 14.5765 3.42051 15.9519 3.27919ZM16.0993 6.45851C16.6293 6.39276 17.0045 5.90802 16.9353 5.37842C16.8659 4.84885 16.3786 4.47696 15.8496 4.54978C15.3254 4.62192 14.9578 5.10358 15.0264 5.62819C15.0951 6.1528 15.5743 6.52366 16.0993 6.45851Z" fill="black"/>
<path d="M15.9519 3.27919C16.1082 3.2668 16.3564 3.29066 16.5105 3.32579C17.7406 3.60614 18.3654 4.52977 18.4121 5.72777C18.9286 5.7359 19.4567 5.7211 19.9738 5.72496C20.6155 5.71378 20.8919 6.00788 20.8708 6.65446C20.8475 7.36241 20.9307 8.18725 20.8218 8.89417C20.7989 9.04293 20.5303 9.3042 20.3811 9.32313C19.9325 9.38007 19.4479 9.358 18.991 9.35795L16.2751 9.35674L13.3088 9.35742C12.8464 9.35756 12.3527 9.37702 11.8981 9.33517C11.5226 9.26083 11.333 8.96504 11.3283 8.59838C11.3141 7.92059 11.3271 7.25444 11.3245 6.57566C11.2912 6.17925 11.5187 5.74634 11.9656 5.72281C12.5336 5.69291 13.1566 5.71332 13.7347 5.70857C13.7867 4.34671 14.5765 3.42051 15.9519 3.27919ZM16.0993 6.45851C16.6293 6.39276 17.0045 5.90802 16.9353 5.37842C16.8659 4.84885 16.3786 4.47696 15.8496 4.54978C15.3254 4.62192 14.9578 5.10358 15.0264 5.62819C15.0951 6.1528 15.5743 6.52366 16.0993 6.45851Z" fill="url(#paint2_linear_386_57869)"/>
<path d="M21.6542 6.41163C22.5654 6.36646 23.5219 6.42762 24.4375 6.40552C24.5651 6.40242 24.8278 6.41908 24.9491 6.46018C26.0205 6.82401 25.8577 7.83931 25.8557 8.74255L25.854 10.6092L25.8548 16.5701V19.1422C25.8551 19.3342 25.8748 20.1123 25.8397 20.2593L25.8085 20.2562C25.229 19.8907 24.9509 19.7356 24.2591 19.9515C24.2382 19.638 24.2527 19.2277 24.2536 18.9052L24.2538 17.1832L24.2558 11.3353L24.2589 9.54224C24.2591 9.30668 24.2725 8.75694 24.2411 8.54469C24.2176 8.3887 24.1453 8.24415 24.0348 8.13152C23.7782 7.86725 23.2312 7.92529 22.8844 7.92709C22.4725 7.93021 22.0604 7.93063 21.6485 7.9283C21.6445 7.42273 21.6465 6.91715 21.6542 6.41163Z" fill="black"/>
<path d="M21.6542 6.41163C22.5654 6.36646 23.5219 6.42762 24.4375 6.40552C24.5651 6.40242 24.8278 6.41908 24.9491 6.46018C26.0205 6.82401 25.8577 7.83931 25.8557 8.74255L25.854 10.6092L25.8548 16.5701V19.1422C25.8551 19.3342 25.8748 20.1123 25.8397 20.2593L25.8085 20.2562C25.229 19.8907 24.9509 19.7356 24.2591 19.9515C24.2382 19.638 24.2527 19.2277 24.2536 18.9052L24.2538 17.1832L24.2558 11.3353L24.2589 9.54224C24.2591 9.30668 24.2725 8.75694 24.2411 8.54469C24.2176 8.3887 24.1453 8.24415 24.0348 8.13152C23.7782 7.86725 23.2312 7.92529 22.8844 7.92709C22.4725 7.93021 22.0604 7.93063 21.6485 7.9283C21.6445 7.42273 21.6465 6.91715 21.6542 6.41163Z" fill="url(#paint3_linear_386_57869)"/>
<path d="M9.96712 22.302C10.8889 22.2765 11.8374 22.3055 12.761 22.3044C13.0215 22.304 13.345 22.4626 13.376 22.753C13.4214 23.1801 13.3775 23.6442 13.3922 24.075C13.3937 24.6253 13.4077 25.1701 13.379 25.7173C13.3579 26.0396 13.1446 26.1947 12.8466 26.2459C12.2209 26.2518 11.5952 26.2531 10.9695 26.2496C10.5335 26.2503 9.4741 26.3961 9.41369 25.7777C9.37219 25.3529 9.39308 24.8364 9.39205 24.4034C9.39078 23.8637 9.37876 23.311 9.41369 22.7739C9.43456 22.4934 9.71566 22.3376 9.96712 22.302ZM11.1003 24.5098C10.9491 24.3433 10.7016 24.0045 10.5051 23.9085C10.2922 23.8046 10.01 24.0443 10.0321 24.2699C10.0339 24.4755 10.2963 24.6892 10.4156 24.8314C10.5727 25.0168 10.8296 25.3858 11.079 25.4344C11.1534 25.4443 11.2589 25.4076 11.3086 25.3535C11.5239 25.1104 11.7486 24.854 11.9476 24.5976C12.1998 24.2725 12.5314 23.9535 12.7521 23.6102C12.9306 23.3323 12.6816 23.0994 12.4017 23.0656C12.3622 23.0773 12.2709 23.1058 12.2435 23.132C11.8402 23.5177 11.4653 24.0922 11.1003 24.5098Z" fill="black"/>
<path d="M9.96712 22.302C10.8889 22.2765 11.8374 22.3055 12.761 22.3044C13.0215 22.304 13.345 22.4626 13.376 22.753C13.4214 23.1801 13.3775 23.6442 13.3922 24.075C13.3937 24.6253 13.4077 25.1701 13.379 25.7173C13.3579 26.0396 13.1446 26.1947 12.8466 26.2459C12.2209 26.2518 11.5952 26.2531 10.9695 26.2496C10.5335 26.2503 9.4741 26.3961 9.41369 25.7777C9.37219 25.3529 9.39308 24.8364 9.39205 24.4034C9.39078 23.8637 9.37876 23.311 9.41369 22.7739C9.43456 22.4934 9.71566 22.3376 9.96712 22.302ZM11.1003 24.5098C10.9491 24.3433 10.7016 24.0045 10.5051 23.9085C10.2922 23.8046 10.01 24.0443 10.0321 24.2699C10.0339 24.4755 10.2963 24.6892 10.4156 24.8314C10.5727 25.0168 10.8296 25.3858 11.079 25.4344C11.1534 25.4443 11.2589 25.4076 11.3086 25.3535C11.5239 25.1104 11.7486 24.854 11.9476 24.5976C12.1998 24.2725 12.5314 23.9535 12.7521 23.6102C12.9306 23.3323 12.6816 23.0994 12.4017 23.0656C12.3622 23.0773 12.2709 23.1058 12.2435 23.132C11.8402 23.5177 11.4653 24.0922 11.1003 24.5098Z" fill="url(#paint4_linear_386_57869)"/>
<path d="M10.0122 11.3646C10.9568 11.3788 11.9052 11.3427 12.8486 11.3775C13.1121 11.3872 13.3792 11.6037 13.3855 11.8692C13.4061 12.7391 13.386 13.6154 13.3957 14.4857C13.4001 14.8839 13.3342 15.2393 12.8601 15.2902C12.2203 15.3027 11.5804 15.3072 10.9405 15.3036C10.5031 15.3038 9.42505 15.445 9.41108 14.7948C9.38979 13.8049 9.37162 12.7913 9.42235 11.8033C9.43643 11.5291 9.77251 11.3822 10.0122 11.3646ZM11.1018 13.5764C10.8846 13.3321 10.4932 12.7007 10.1331 13.0712C10.063 13.1437 10.0271 13.2426 10.0344 13.3432C10.0479 13.5578 10.2672 13.7198 10.4031 13.8883C10.898 14.4596 11.0515 14.82 11.6054 14.0878C11.9605 13.6183 12.4145 13.1632 12.7565 12.6773C12.9035 12.4759 12.7383 12.1879 12.4805 12.1542C12.2716 12.1622 12.2477 12.185 12.0976 12.3498C11.7604 12.7203 11.4354 13.2149 11.1018 13.5764Z" fill="black"/>
<path d="M10.0122 11.3646C10.9568 11.3788 11.9052 11.3427 12.8486 11.3775C13.1121 11.3872 13.3792 11.6037 13.3855 11.8692C13.4061 12.7391 13.386 13.6154 13.3957 14.4857C13.4001 14.8839 13.3342 15.2393 12.8601 15.2902C12.2203 15.3027 11.5804 15.3072 10.9405 15.3036C10.5031 15.3038 9.42505 15.445 9.41108 14.7948C9.38979 13.8049 9.37162 12.7913 9.42235 11.8033C9.43643 11.5291 9.77251 11.3822 10.0122 11.3646ZM11.1018 13.5764C10.8846 13.3321 10.4932 12.7007 10.1331 13.0712C10.063 13.1437 10.0271 13.2426 10.0344 13.3432C10.0479 13.5578 10.2672 13.7198 10.4031 13.8883C10.898 14.4596 11.0515 14.82 11.6054 14.0878C11.9605 13.6183 12.4145 13.1632 12.7565 12.6773C12.9035 12.4759 12.7383 12.1879 12.4805 12.1542C12.2716 12.1622 12.2477 12.185 12.0976 12.3498C11.7604 12.7203 11.4354 13.2149 11.1018 13.5764Z" fill="url(#paint5_linear_386_57869)"/>
<path d="M9.91927 16.8319C10.8408 16.7914 11.8224 16.8502 12.7483 16.8348C12.9877 16.8308 13.3315 16.9696 13.3678 17.2436C13.43 17.7126 13.3744 18.2304 13.3936 18.7054C13.4002 19.223 13.4042 19.7217 13.3823 20.2353C13.3632 20.5347 13.1493 20.695 12.8796 20.7579C11.9436 20.7954 10.967 20.7458 10.0279 20.7601C9.77637 20.764 9.45542 20.5766 9.42111 20.3064C9.36658 19.877 9.41019 19.4073 9.39558 18.9734C9.39037 18.4482 9.38794 17.936 9.40338 17.4135C9.41792 17.0752 9.60263 16.9065 9.91927 16.8319ZM11.0958 19.0295C10.8807 18.7913 10.4967 18.1697 10.1449 18.5202C10.0727 18.591 10.0321 18.6876 10.0324 18.7887C10.0349 19.0005 10.3237 19.2507 10.4723 19.4242C10.6071 19.583 10.8511 19.9224 11.0557 19.9486C11.1296 19.958 11.2507 19.9352 11.3051 19.8783C11.5655 19.6054 11.8033 19.3032 12.0441 19.0119C12.275 18.7204 12.5351 18.4436 12.7485 18.1395C12.7993 18.0672 12.8187 17.9211 12.7853 17.8404C12.6949 17.6228 12.5023 17.6003 12.3065 17.6179C12.0586 17.7667 11.3581 18.7476 11.0958 19.0295Z" fill="black"/>
<path d="M9.91927 16.8319C10.8408 16.7914 11.8224 16.8502 12.7483 16.8348C12.9877 16.8308 13.3315 16.9696 13.3678 17.2436C13.43 17.7126 13.3744 18.2304 13.3936 18.7054C13.4002 19.223 13.4042 19.7217 13.3823 20.2353C13.3632 20.5347 13.1493 20.695 12.8796 20.7579C11.9436 20.7954 10.967 20.7458 10.0279 20.7601C9.77637 20.764 9.45542 20.5766 9.42111 20.3064C9.36658 19.877 9.41019 19.4073 9.39558 18.9734C9.39037 18.4482 9.38794 17.936 9.40338 17.4135C9.41792 17.0752 9.60263 16.9065 9.91927 16.8319ZM11.0958 19.0295C10.8807 18.7913 10.4967 18.1697 10.1449 18.5202C10.0727 18.591 10.0321 18.6876 10.0324 18.7887C10.0349 19.0005 10.3237 19.2507 10.4723 19.4242C10.6071 19.583 10.8511 19.9224 11.0557 19.9486C11.1296 19.958 11.2507 19.9352 11.3051 19.8783C11.5655 19.6054 11.8033 19.3032 12.0441 19.0119C12.275 18.7204 12.5351 18.4436 12.7485 18.1395C12.7993 18.0672 12.8187 17.9211 12.7853 17.8404C12.6949 17.6228 12.5023 17.6003 12.3065 17.6179C12.0586 17.7667 11.3581 18.7476 11.0958 19.0295Z" fill="url(#paint6_linear_386_57869)"/>
<path d="M14.8343 12.879C15.1064 12.8546 15.5687 12.8687 15.8523 12.8691L17.6515 12.869L20.6162 12.8686C21.1948 12.8684 21.9213 12.8323 22.4773 12.9127C22.7482 12.9518 22.9066 13.5318 22.4143 13.73C22.0617 13.755 21.6136 13.7444 21.2546 13.7446L19.366 13.7442C17.9217 13.7435 16.4801 13.7463 15.0334 13.7426C14.6625 13.7417 14.3766 13.5485 14.5274 13.1124C14.5696 12.9904 14.7149 12.9184 14.8343 12.879Z" fill="black"/>
<path d="M14.8343 12.879C15.1064 12.8546 15.5687 12.8687 15.8523 12.8691L17.6515 12.869L20.6162 12.8686C21.1948 12.8684 21.9213 12.8323 22.4773 12.9127C22.7482 12.9518 22.9066 13.5318 22.4143 13.73C22.0617 13.755 21.6136 13.7444 21.2546 13.7446L19.366 13.7442C17.9217 13.7435 16.4801 13.7463 15.0334 13.7426C14.6625 13.7417 14.3766 13.5485 14.5274 13.1124C14.5696 12.9904 14.7149 12.9184 14.8343 12.879Z" fill="url(#paint7_linear_386_57869)"/>
<path d="M14.7893 18.3454C15.237 18.3094 16.0127 18.3349 16.4932 18.3348L19.8196 18.3337L21.5996 18.3338C21.7841 18.3338 22.2391 18.3109 22.3968 18.3514C22.8526 18.4687 22.8438 18.9764 22.4425 19.184C21.9157 19.2369 14.8707 19.2094 14.7954 19.1831C14.6776 19.142 14.5719 19.064 14.5193 18.9485C14.4714 18.8435 14.4715 18.7132 14.512 18.6058C14.5618 18.4733 14.6674 18.4048 14.7893 18.3454Z" fill="black"/>
<path d="M14.7893 18.3454C15.237 18.3094 16.0127 18.3349 16.4932 18.3348L19.8196 18.3337L21.5996 18.3338C21.7841 18.3338 22.2391 18.3109 22.3968 18.3514C22.8526 18.4687 22.8438 18.9764 22.4425 19.184C21.9157 19.2369 14.8707 19.2094 14.7954 19.1831C14.6776 19.142 14.5719 19.064 14.5193 18.9485C14.4714 18.8435 14.4715 18.7132 14.512 18.6058C14.5618 18.4733 14.6674 18.4048 14.7893 18.3454Z" fill="url(#paint8_linear_386_57869)"/>
<path d="M14.9523 23.8205C16.1467 23.7849 17.5492 23.8133 18.7532 23.8159C18.7589 24.1059 18.7561 24.3961 18.7442 24.6858L18.2893 24.6896H16.0305C15.6593 24.6894 15.2881 24.6966 14.916 24.6788C14.7004 24.6762 14.4984 24.5321 14.4872 24.3018C14.4713 23.9747 14.6646 23.8458 14.9523 23.8205Z" fill="black"/>
<path d="M14.9523 23.8205C16.1467 23.7849 17.5492 23.8133 18.7532 23.8159C18.7589 24.1059 18.7561 24.3961 18.7442 24.6858L18.2893 24.6896H16.0305C15.6593 24.6894 15.2881 24.6966 14.916 24.6788C14.7004 24.6762 14.4984 24.5321 14.4872 24.3018C14.4713 23.9747 14.6646 23.8458 14.9523 23.8205Z" fill="url(#paint9_linear_386_57869)"/>
<defs>
<linearGradient id="paint0_linear_386_57869" x1="25.4962" y1="27.5022" x2="16.1877" y2="31.2351" gradientUnits="userSpaceOnUse">
<stop stop-color="#FFA78F"/>
<stop offset="1" stop-color="#F23E2C"/>
</linearGradient>
<linearGradient id="paint1_linear_386_57869" x1="14.6251" y1="20.3851" x2="-0.00603559" y2="24.5843" gradientUnits="userSpaceOnUse">
<stop stop-color="#FFA78F"/>
<stop offset="1" stop-color="#F23E2C"/>
</linearGradient>
<linearGradient id="paint2_linear_386_57869" x1="16.8041" y1="6.7266" x2="10.2445" y2="11.7354" gradientUnits="userSpaceOnUse">
<stop stop-color="#FFA78F"/>
<stop offset="1" stop-color="#F23E2C"/>
</linearGradient>
<linearGradient id="paint3_linear_386_57869" x1="24.0667" y1="14.2553" x2="19.5811" y2="14.919" gradientUnits="userSpaceOnUse">
<stop stop-color="#FFA78F"/>
<stop offset="1" stop-color="#F23E2C"/>
</linearGradient>
<linearGradient id="paint4_linear_386_57869" x1="11.6876" y1="24.5444" x2="8.17672" y2="26.2669" gradientUnits="userSpaceOnUse">
<stop stop-color="#FFA78F"/>
<stop offset="1" stop-color="#F23E2C"/>
</linearGradient>
<linearGradient id="paint5_linear_386_57869" x1="11.6877" y1="13.6041" x2="8.18498" y2="15.3293" gradientUnits="userSpaceOnUse">
<stop stop-color="#FFA78F"/>
<stop offset="1" stop-color="#F23E2C"/>
</linearGradient>
<linearGradient id="paint6_linear_386_57869" x1="11.6902" y1="19.0596" x2="8.18698" y2="20.7856" gradientUnits="userSpaceOnUse">
<stop stop-color="#FFA78F"/>
<stop offset="1" stop-color="#F23E2C"/>
</linearGradient>
<linearGradient id="paint7_linear_386_57869" x1="19.2168" y1="13.3628" x2="18.7995" y2="15.2509" gradientUnits="userSpaceOnUse">
<stop stop-color="#FFA78F"/>
<stop offset="1" stop-color="#F23E2C"/>
</linearGradient>
<linearGradient id="paint8_linear_386_57869" x1="19.2198" y1="18.8296" x2="18.8015" y2="20.7212" gradientUnits="userSpaceOnUse">
<stop stop-color="#FFA78F"/>
<stop offset="1" stop-color="#F23E2C"/>
</linearGradient>
<linearGradient id="paint9_linear_386_57869" x1="16.9355" y1="24.3063" x2="16.2179" y2="25.9837" gradientUnits="userSpaceOnUse">
<stop stop-color="#FFA78F"/>
<stop offset="1" stop-color="#F23E2C"/>
</linearGradient>
</defs>
</svg>
