<svg width="36" height="36" viewBox="0 0 36 36" fill="none" xmlns="http://www.w3.org/2000/svg">
<path d="M20.1211 26.1806C20.2495 25.9717 20.4138 26.0607 20.6162 26.1054C22.1091 26.4333 23.3394 27.8169 23.4297 29.3524C23.4659 29.9664 23.4216 30.602 23.4453 31.2186C23.4534 31.4336 23.4561 31.6644 23.4229 31.8759C23.3435 32.3172 22.9727 32.6212 22.5264 32.621C21.8928 32.6315 21.2628 32.6253 20.6309 32.6249L17.1836 32.6288L14.9912 32.6249C14.5486 32.6269 14.0767 32.6509 13.6396 32.6151C13.0469 32.5668 12.8023 32.1186 12.7988 31.5819L12.8018 30.3124C12.8007 29.9837 12.7897 29.6188 12.8193 29.2938C12.8948 28.4672 13.3073 27.66 13.8916 27.0741C14.3505 26.608 14.9294 26.2776 15.5645 26.121C15.9235 26.0329 16.0341 25.9624 16.1855 26.3319C16.2028 26.398 16.4419 26.8562 16.4902 26.9511L17.3467 28.6307C17.4981 28.9285 17.6837 29.2603 17.7939 29.5731C17.8117 29.6239 17.8062 29.8008 17.8047 29.8632C17.6235 29.8608 17.3979 29.8348 17.2236 29.8866C17.1463 29.9097 17.0905 29.9536 17.0557 30.0282C17.0073 30.1334 17.0144 31.3136 17.0771 31.4247C17.1034 31.4714 17.121 31.4951 17.1729 31.5116C17.3852 31.5778 18.9557 31.583 19.124 31.4931C19.2724 31.2895 19.264 30.1396 19.1338 29.9306C18.988 29.825 18.6301 29.8576 18.4336 29.8602C18.4323 29.7807 18.4255 29.633 18.4512 29.5634C18.5672 29.2506 18.7491 28.9199 18.9004 28.621C19.2175 28.0069 19.5298 27.3902 19.8359 26.7704C19.9108 26.6175 20.084 26.3258 20.1211 26.1806Z" fill="black"/>
<path d="M20.1211 26.1806C20.2495 25.9717 20.4138 26.0607 20.6162 26.1054C22.1091 26.4333 23.3394 27.8169 23.4297 29.3524C23.4659 29.9664 23.4216 30.602 23.4453 31.2186C23.4534 31.4336 23.4561 31.6644 23.4229 31.8759C23.3435 32.3172 22.9727 32.6212 22.5264 32.621C21.8928 32.6315 21.2628 32.6253 20.6309 32.6249L17.1836 32.6288L14.9912 32.6249C14.5486 32.6269 14.0767 32.6509 13.6396 32.6151C13.0469 32.5668 12.8023 32.1186 12.7988 31.5819L12.8018 30.3124C12.8007 29.9837 12.7897 29.6188 12.8193 29.2938C12.8948 28.4672 13.3073 27.66 13.8916 27.0741C14.3505 26.608 14.9294 26.2776 15.5645 26.121C15.9235 26.0329 16.0341 25.9624 16.1855 26.3319C16.2028 26.398 16.4419 26.8562 16.4902 26.9511L17.3467 28.6307C17.4981 28.9285 17.6837 29.2603 17.7939 29.5731C17.8117 29.6239 17.8062 29.8008 17.8047 29.8632C17.6235 29.8608 17.3979 29.8348 17.2236 29.8866C17.1463 29.9097 17.0905 29.9536 17.0557 30.0282C17.0073 30.1334 17.0144 31.3136 17.0771 31.4247C17.1034 31.4714 17.121 31.4951 17.1729 31.5116C17.3852 31.5778 18.9557 31.583 19.124 31.4931C19.2724 31.2895 19.264 30.1396 19.1338 29.9306C18.988 29.825 18.6301 29.8576 18.4336 29.8602C18.4323 29.7807 18.4255 29.633 18.4512 29.5634C18.5672 29.2506 18.7491 28.9199 18.9004 28.621C19.2175 28.0069 19.5298 27.3902 19.8359 26.7704C19.9108 26.6175 20.084 26.3258 20.1211 26.1806Z" fill="url(#paint0_linear_386_57754)"/>
<path d="M16.75 26.3223C17.6574 26.6063 18.6011 26.6709 19.5033 26.3135C19.0857 27.1704 18.5849 28.2295 18.1253 29.0579C17.7576 28.3925 17.4368 27.6884 17.0858 27.0136C16.9689 26.7889 16.8533 26.5531 16.75 26.3223Z" fill="black"/>
<path d="M16.75 26.3223C17.6574 26.6063 18.6011 26.6709 19.5033 26.3135C19.0857 27.1704 18.5849 28.2295 18.1253 29.0579C17.7576 28.3925 17.4368 27.6884 17.0858 27.0136C16.9689 26.7889 16.8533 26.5531 16.75 26.3223Z" fill="url(#paint1_linear_386_57754)"/>
<path d="M16.018 9.66309C16.1299 9.9082 16.3178 10.5073 16.4194 10.7891C16.7333 11.6501 17.0397 12.5144 17.3383 13.3809C17.4738 12.6563 17.6042 11.9306 17.729 11.2041C17.2074 10.1662 17.1169 10.0029 18.3208 10.0449C18.5738 10.0538 18.7955 9.9771 18.8999 10.2734C18.9086 10.5181 18.6473 10.9715 18.5278 11.208C18.5465 11.3233 18.5893 11.6252 18.6333 11.7158V11.7168C18.7143 12.2788 18.8477 12.8313 18.9292 13.3779C19.0524 13.0116 19.1779 12.6455 19.3071 12.2812C19.3592 12.133 19.4564 11.884 19.4946 11.7383L19.5717 11.5107C19.6244 11.4462 19.8628 10.7809 19.8569 10.7051C19.9109 10.5011 20.1521 9.89712 20.2358 9.66895C21.6492 9.92129 23.365 11.0717 23.5122 12.6494C23.5602 13.1646 23.5122 13.7257 23.5297 14.2461C23.5348 14.3977 23.5358 14.6381 23.5131 14.7852C23.4949 14.9092 23.4549 15.0295 23.395 15.1396C23.1128 15.6544 22.3568 15.5427 21.853 15.543H15.7583C15.056 15.5434 14.3392 15.5725 13.6381 15.5371C13.4478 15.5275 13.3091 15.5089 13.1411 15.4072C12.9523 15.2928 12.8266 15.1174 12.7739 14.9033C12.6908 14.5648 12.7225 12.7542 12.7973 12.4023C12.8643 12.0874 12.9893 11.7947 13.1587 11.5215C13.7877 10.5071 14.8878 9.93128 16.018 9.66309ZM19.3169 11.7129H19.3178H19.3169ZM19.0971 10.3281H19.0981H19.0971Z" fill="black"/>
<path d="M16.018 9.66309C16.1299 9.9082 16.3178 10.5073 16.4194 10.7891C16.7333 11.6501 17.0397 12.5144 17.3383 13.3809C17.4738 12.6563 17.6042 11.9306 17.729 11.2041C17.2074 10.1662 17.1169 10.0029 18.3208 10.0449C18.5738 10.0538 18.7955 9.9771 18.8999 10.2734C18.9086 10.5181 18.6473 10.9715 18.5278 11.208C18.5465 11.3233 18.5893 11.6252 18.6333 11.7158V11.7168C18.7143 12.2788 18.8477 12.8313 18.9292 13.3779C19.0524 13.0116 19.1779 12.6455 19.3071 12.2812C19.3592 12.133 19.4564 11.884 19.4946 11.7383L19.5717 11.5107C19.6244 11.4462 19.8628 10.7809 19.8569 10.7051C19.9109 10.5011 20.1521 9.89712 20.2358 9.66895C21.6492 9.92129 23.365 11.0717 23.5122 12.6494C23.5602 13.1646 23.5122 13.7257 23.5297 14.2461C23.5348 14.3977 23.5358 14.6381 23.5131 14.7852C23.4949 14.9092 23.4549 15.0295 23.395 15.1396C23.1128 15.6544 22.3568 15.5427 21.853 15.543H15.7583C15.056 15.5434 14.3392 15.5725 13.6381 15.5371C13.4478 15.5275 13.3091 15.5089 13.1411 15.4072C12.9523 15.2928 12.8266 15.1174 12.7739 14.9033C12.6908 14.5648 12.7225 12.7542 12.7973 12.4023C12.8643 12.0874 12.9893 11.7947 13.1587 11.5215C13.7877 10.5071 14.8878 9.93128 16.018 9.66309ZM19.3169 11.7129H19.3178H19.3169ZM19.0971 10.3281H19.0981H19.0971Z" fill="url(#paint2_linear_386_57754)"/>
<path d="M8.64047 18.7559C9.20097 18.7909 9.94875 19.2585 10.3504 19.6269C11.0596 20.2791 11.5776 21.3039 11.5971 22.2777C11.605 22.674 11.644 23.4027 11.5653 23.7774C11.4151 24.4923 10.6238 24.4039 10.0544 24.4037L8.67783 24.4035L3.89411 24.4028C3.37054 24.4026 2.76361 24.4371 2.26514 24.3793C1.74818 24.3191 1.52672 23.7313 1.59087 23.2823C1.60209 23.2036 1.59709 22.9629 1.59232 22.8836C1.53041 21.8509 1.77331 20.8726 2.43377 20.0568C2.92037 19.4452 3.7234 18.8498 4.53998 18.7576C4.957 18.9711 4.99955 19.0913 5.54105 19.2666C6.35368 19.5317 7.23687 19.4764 8.01004 19.1119C8.22879 19.0089 8.41242 18.8719 8.6221 18.7651L8.64047 18.7559Z" fill="black"/>
<path d="M8.64047 18.7559C9.20097 18.7909 9.94875 19.2585 10.3504 19.6269C11.0596 20.2791 11.5776 21.3039 11.5971 22.2777C11.605 22.674 11.644 23.4027 11.5653 23.7774C11.4151 24.4923 10.6238 24.4039 10.0544 24.4037L8.67783 24.4035L3.89411 24.4028C3.37054 24.4026 2.76361 24.4371 2.26514 24.3793C1.74818 24.3191 1.52672 23.7313 1.59087 23.2823C1.60209 23.2036 1.59709 22.9629 1.59232 22.8836C1.53041 21.8509 1.77331 20.8726 2.43377 20.0568C2.92037 19.4452 3.7234 18.8498 4.53998 18.7576C4.957 18.9711 4.99955 19.0913 5.54105 19.2666C6.35368 19.5317 7.23687 19.4764 8.01004 19.1119C8.22879 19.0089 8.41242 18.8719 8.6221 18.7651L8.64047 18.7559Z" fill="url(#paint3_linear_386_57754)"/>
<path d="M31.3164 19.3296C32.9277 19.4045 34.412 21.2287 34.4131 22.7787C34.4134 23.0535 34.4028 23.3789 34.416 23.6456C34.4766 24.8534 33.7198 24.7642 32.8396 24.7642L31.5117 24.7637L27.0048 24.7635L25.9567 24.7653C25.4029 24.7677 24.4991 24.8375 24.4589 23.9973C24.4374 23.5487 24.4275 22.9226 24.4785 22.4824C24.6534 20.9726 25.9483 19.4836 27.5017 19.3302C27.5689 19.3577 27.6618 19.4087 27.726 19.4451C28.6794 19.9886 29.8999 20.0429 30.8801 19.5378C31.0097 19.4711 31.1764 19.3678 31.3164 19.3296Z" fill="black"/>
<path d="M31.3164 19.3296C32.9277 19.4045 34.412 21.2287 34.4131 22.7787C34.4134 23.0535 34.4028 23.3789 34.416 23.6456C34.4766 24.8534 33.7198 24.7642 32.8396 24.7642L31.5117 24.7637L27.0048 24.7635L25.9567 24.7653C25.4029 24.7677 24.4991 24.8375 24.4589 23.9973C24.4374 23.5487 24.4275 22.9226 24.4785 22.4824C24.6534 20.9726 25.9483 19.4836 27.5017 19.3302C27.5689 19.3577 27.6618 19.4087 27.726 19.4451C28.6794 19.9886 29.8999 20.0429 30.8801 19.5378C31.0097 19.4711 31.1764 19.3678 31.3164 19.3296Z" fill="url(#paint4_linear_386_57754)"/>
<path d="M26.3451 15.3934C26.5096 15.4147 26.9477 15.3222 27.181 15.3365C28.046 15.3894 28.8257 15.6731 29.5442 16.1559C29.8079 16.3306 30.0269 16.521 30.2784 16.7024C30.6672 16.7185 31.0536 16.7052 31.4418 16.7071C31.6088 16.7079 31.9207 16.6955 32.0754 16.7282C32.0628 17.3368 31.786 17.9107 31.3627 18.3349C29.5412 20.1596 26.5883 18.8711 26.5733 16.3237C26.2719 16.3888 25.3412 16.6206 25.1336 16.4796C24.4352 16.0051 26.1157 15.4298 26.3451 15.3934Z" fill="black"/>
<path d="M26.3451 15.3934C26.5096 15.4147 26.9477 15.3222 27.181 15.3365C28.046 15.3894 28.8257 15.6731 29.5442 16.1559C29.8079 16.3306 30.0269 16.521 30.2784 16.7024C30.6672 16.7185 31.0536 16.7052 31.4418 16.7071C31.6088 16.7079 31.9207 16.6955 32.0754 16.7282C32.0628 17.3368 31.786 17.9107 31.3627 18.3349C29.5412 20.1596 26.5883 18.8711 26.5733 16.3237C26.2719 16.3888 25.3412 16.6206 25.1336 16.4796C24.4352 16.0051 26.1157 15.4298 26.3451 15.3934Z" fill="url(#paint5_linear_386_57754)"/>
<path d="M27.1834 15.3358C28.0484 15.3887 28.8282 15.6724 29.5467 16.1552C29.8103 16.3299 30.0295 16.5206 30.2811 16.7021C30.6698 16.7181 31.0561 16.7051 31.4441 16.7069C31.6111 16.7078 31.9233 16.6947 32.0779 16.7274C32.0654 17.336 31.7884 17.9107 31.365 18.3349C29.5435 20.1592 26.5909 18.8705 26.576 16.3232C26.2747 16.3883 25.3447 16.62 25.1365 16.4794C24.4384 16.0051 26.1173 15.4301 26.3475 15.3935C26.512 15.4148 26.9501 15.3216 27.1834 15.3358ZM29.0301 12.7812C29.1331 12.7062 29.3742 12.6708 29.4822 12.7265C29.7657 12.8723 30.081 12.9026 30.3729 13.0048C31.1272 13.2654 31.7492 13.813 32.1033 14.5282C32.257 14.8395 32.638 16.0687 32.3543 16.3144H30.4217C30.0487 16.025 29.7798 15.8071 29.3563 15.5644C28.5481 15.101 27.32 14.7548 26.3963 15.0087C26.4236 14.5699 26.9342 13.8943 27.2654 13.6005C27.6278 13.2792 28.0623 13.0495 28.532 12.9315C28.693 12.8897 28.905 12.8722 29.0301 12.7812Z" fill="black"/>
<path d="M27.1834 15.3358C28.0484 15.3887 28.8282 15.6724 29.5467 16.1552C29.8103 16.3299 30.0295 16.5206 30.2811 16.7021C30.6698 16.7181 31.0561 16.7051 31.4441 16.7069C31.6111 16.7078 31.9233 16.6947 32.0779 16.7274C32.0654 17.336 31.7884 17.9107 31.365 18.3349C29.5435 20.1592 26.5909 18.8705 26.576 16.3232C26.2747 16.3883 25.3447 16.62 25.1365 16.4794C24.4384 16.0051 26.1173 15.4301 26.3475 15.3935C26.512 15.4148 26.9501 15.3216 27.1834 15.3358ZM29.0301 12.7812C29.1331 12.7062 29.3742 12.6708 29.4822 12.7265C29.7657 12.8723 30.081 12.9026 30.3729 13.0048C31.1272 13.2654 31.7492 13.813 32.1033 14.5282C32.257 14.8395 32.638 16.0687 32.3543 16.3144H30.4217C30.0487 16.025 29.7798 15.8071 29.3563 15.5644C28.5481 15.101 27.32 14.7548 26.3963 15.0087C26.4236 14.5699 26.9342 13.8943 27.2654 13.6005C27.6278 13.2792 28.0623 13.0495 28.532 12.9315C28.693 12.8897 28.905 12.8722 29.0301 12.7812Z" fill="url(#paint6_linear_386_57754)"/>
<path d="M17.9017 3.37665C19.5152 3.23797 20.935 4.43514 21.0707 6.04891C21.2065 7.66265 20.0068 9.08029 18.3929 9.21322C16.7829 9.34579 15.3696 8.14976 15.2341 6.54008C15.0987 4.93038 16.2922 3.51498 17.9017 3.37665Z" fill="black"/>
<path d="M17.9017 3.37665C19.5152 3.23797 20.935 4.43514 21.0707 6.04891C21.2065 7.66265 20.0068 9.08029 18.3929 9.21322C16.7829 9.34579 15.3696 8.14976 15.2341 6.54008C15.0987 4.93038 16.2922 3.51498 17.9017 3.37665Z" fill="url(#paint7_linear_386_57754)"/>
<path d="M18.1242 19.8648C19.7373 19.8538 21.0547 21.1512 21.0683 22.7643C21.0819 24.3774 19.7867 25.6968 18.1736 25.7133C16.5568 25.7295 15.2335 24.4308 15.2198 22.8138C15.2061 21.1969 16.5073 19.8758 18.1242 19.8648Z" fill="black"/>
<path d="M18.1242 19.8648C19.7373 19.8538 21.0547 21.1512 21.0683 22.7643C21.0819 24.3774 19.7867 25.6968 18.1736 25.7133C16.5568 25.7295 15.2335 24.4308 15.2198 22.8138C15.2061 21.1969 16.5073 19.8758 18.1242 19.8648Z" fill="url(#paint8_linear_386_57754)"/>
<path d="M6.2385 12.8431C7.80545 12.6565 9.22742 13.7744 9.4159 15.3411C9.60436 16.9078 8.4881 18.3311 6.92159 18.5214C5.35248 18.7121 3.92634 17.5935 3.73755 16.0242C3.54878 14.4549 4.66896 13.03 6.2385 12.8431Z" fill="black"/>
<path d="M6.2385 12.8431C7.80545 12.6565 9.22742 13.7744 9.4159 15.3411C9.60436 16.9078 8.4881 18.3311 6.92159 18.5214C5.35248 18.7121 3.92634 17.5935 3.73755 16.0242C3.54878 14.4549 4.66896 13.03 6.2385 12.8431Z" fill="url(#paint9_linear_386_57754)"/>
<path d="M13.3377 8.64981C13.393 8.6455 13.4485 8.64537 13.5037 8.64948C13.6318 8.65941 13.8334 8.74367 13.903 8.84888C14.2285 9.34148 13.352 9.5536 13.0734 9.6641C11.9428 10.1022 10.9078 10.7552 10.0256 11.587C9.80825 11.7932 9.38811 12.3051 9.24559 12.4134C9.21586 12.4264 9.18579 12.4385 9.15541 12.4499C9.05812 12.4853 8.94988 12.4918 8.85861 12.4402C8.25531 12.0973 9.04777 11.3319 9.33743 11.0425C10.3859 9.99515 11.8952 9.02264 13.3377 8.64981Z" fill="black"/>
<path d="M13.3377 8.64981C13.393 8.6455 13.4485 8.64537 13.5037 8.64948C13.6318 8.65941 13.8334 8.74367 13.903 8.84888C14.2285 9.34148 13.352 9.5536 13.0734 9.6641C11.9428 10.1022 10.9078 10.7552 10.0256 11.587C9.80825 11.7932 9.38811 12.3051 9.24559 12.4134C9.21586 12.4264 9.18579 12.4385 9.15541 12.4499C9.05812 12.4853 8.94988 12.4918 8.85861 12.4402C8.25531 12.0973 9.04777 11.3319 9.33743 11.0425C10.3859 9.99515 11.8952 9.02264 13.3377 8.64981Z" fill="url(#paint10_linear_386_57754)"/>
<path d="M22.7231 8.65144C23.1458 8.62067 24.0884 9.05857 24.4884 9.26278C25.4543 9.75297 26.3317 10.4008 27.0846 11.1796C27.3767 11.4836 28.1135 12.3136 27.2805 12.487C26.9095 12.4041 26.7726 12.1013 26.5127 11.8387C26.2955 11.6191 26.1017 11.432 25.8654 11.2331C25.1806 10.657 24.4164 10.1822 23.5965 9.82326C23.3079 9.69772 23.0201 9.59684 22.7284 9.48358C22.5722 9.42286 22.4147 9.3311 22.3584 9.16691C22.3297 9.0832 22.3264 8.98931 22.3694 8.91038C22.4604 8.74322 22.5555 8.70395 22.7231 8.65144Z" fill="black"/>
<path d="M22.7231 8.65144C23.1458 8.62067 24.0884 9.05857 24.4884 9.26278C25.4543 9.75297 26.3317 10.4008 27.0846 11.1796C27.3767 11.4836 28.1135 12.3136 27.2805 12.487C26.9095 12.4041 26.7726 12.1013 26.5127 11.8387C26.2955 11.6191 26.1017 11.432 25.8654 11.2331C25.1806 10.657 24.4164 10.1822 23.5965 9.82326C23.3079 9.69772 23.0201 9.59684 22.7284 9.48358C22.5722 9.42286 22.4147 9.3311 22.3584 9.16691C22.3297 9.0832 22.3264 8.98931 22.3694 8.91038C22.4604 8.74322 22.5555 8.70395 22.7231 8.65144Z" fill="url(#paint11_linear_386_57754)"/>
<path d="M7.66766 25.2799C7.89151 25.2634 8.04527 25.3447 8.16347 25.5352C8.73375 26.4541 9.39061 27.2625 10.241 27.9518C10.5449 28.1959 10.8623 28.4228 11.1917 28.6315C11.4748 28.8084 12.1886 29.1073 12.0744 29.4975C12.0311 29.6453 11.9392 29.7062 11.8104 29.7734C11.4182 29.8632 10.9925 29.5493 10.6676 29.3413C9.40249 28.5313 8.2765 27.4224 7.52773 26.1149C7.35489 25.8131 7.3052 25.4493 7.66766 25.2799Z" fill="black"/>
<path d="M7.66766 25.2799C7.89151 25.2634 8.04527 25.3447 8.16347 25.5352C8.73375 26.4541 9.39061 27.2625 10.241 27.9518C10.5449 28.1959 10.8623 28.4228 11.1917 28.6315C11.4748 28.8084 12.1886 29.1073 12.0744 29.4975C12.0311 29.6453 11.9392 29.7062 11.8104 29.7734C11.4182 29.8632 10.9925 29.5493 10.6676 29.3413C9.40249 28.5313 8.2765 27.4224 7.52773 26.1149C7.35489 25.8131 7.3052 25.4493 7.66766 25.2799Z" fill="url(#paint12_linear_386_57754)"/>
<path d="M28.4069 25.3671C28.584 25.3603 28.8157 25.4337 28.8447 25.6318C28.9019 26.0224 28.5526 26.4774 28.3373 26.7781C27.5669 27.8457 26.5904 28.7484 25.4655 29.4327C25.2058 29.5891 24.9341 29.7622 24.6351 29.8118C24.3561 29.7872 24.0806 29.604 24.1975 29.2912C24.2788 29.0805 24.5819 28.9257 24.768 28.8209C26.1405 28.0463 27.2622 26.9084 28.1027 25.5824C28.1765 25.466 28.2795 25.4199 28.4069 25.3671Z" fill="black"/>
<path d="M28.4069 25.3671C28.584 25.3603 28.8157 25.4337 28.8447 25.6318C28.9019 26.0224 28.5526 26.4774 28.3373 26.7781C27.5669 27.8457 26.5904 28.7484 25.4655 29.4327C25.2058 29.5891 24.9341 29.7622 24.6351 29.8118C24.3561 29.7872 24.0806 29.604 24.1975 29.2912C24.2788 29.0805 24.5819 28.9257 24.768 28.8209C26.1405 28.0463 27.2622 26.9084 28.1027 25.5824C28.1765 25.466 28.2795 25.4199 28.4069 25.3671Z" fill="url(#paint13_linear_386_57754)"/>
<defs>
<linearGradient id="paint0_linear_386_57754" x1="18.9089" y1="29.7823" x2="11.7578" y2="35.4051" gradientUnits="userSpaceOnUse">
<stop stop-color="#FFA78F"/>
<stop offset="1" stop-color="#F23E2C"/>
</linearGradient>
<linearGradient id="paint1_linear_386_57754" x1="18.3294" y1="27.8695" x2="15.913" y2="29.0482" gradientUnits="userSpaceOnUse">
<stop stop-color="#FFA78F"/>
<stop offset="1" stop-color="#F23E2C"/>
</linearGradient>
<linearGradient id="paint2_linear_386_57754" x1="18.9252" y1="13.0034" x2="12.3858" y2="18.8372" gradientUnits="userSpaceOnUse">
<stop stop-color="#FFA78F"/>
<stop offset="1" stop-color="#F23E2C"/>
</linearGradient>
<linearGradient id="paint3_linear_386_57754" x1="7.33559" y1="21.9632" x2="1.08417" y2="27.3544" gradientUnits="userSpaceOnUse">
<stop stop-color="#FFA78F"/>
<stop offset="1" stop-color="#F23E2C"/>
</linearGradient>
<linearGradient id="paint4_linear_386_57754" x1="30.165" y1="22.4128" x2="24.1289" y2="27.7978" gradientUnits="userSpaceOnUse">
<stop stop-color="#FFA78F"/>
<stop offset="1" stop-color="#F23E2C"/>
</linearGradient>
<linearGradient id="paint5_linear_386_57754" x1="29.0436" y1="17.5213" x2="24.761" y2="21.3609" gradientUnits="userSpaceOnUse">
<stop stop-color="#FFA78F"/>
<stop offset="1" stop-color="#F23E2C"/>
</linearGradient>
<linearGradient id="paint6_linear_386_57754" x1="29.2636" y1="16.3797" x2="23.0747" y2="19.8512" gradientUnits="userSpaceOnUse">
<stop stop-color="#FFA78F"/>
<stop offset="1" stop-color="#F23E2C"/>
</linearGradient>
<linearGradient id="paint7_linear_386_57754" x1="18.5836" y1="6.68673" x2="13.4367" y2="9.18932" gradientUnits="userSpaceOnUse">
<stop stop-color="#FFA78F"/>
<stop offset="1" stop-color="#F23E2C"/>
</linearGradient>
<linearGradient id="paint8_linear_386_57754" x1="18.5747" y1="23.1807" x2="13.4355" y2="25.6795" gradientUnits="userSpaceOnUse">
<stop stop-color="#FFA78F"/>
<stop offset="1" stop-color="#F23E2C"/>
</linearGradient>
<linearGradient id="paint9_linear_386_57754" x1="6.99782" y1="16.0657" x2="1.97184" y2="18.5094" gradientUnits="userSpaceOnUse">
<stop stop-color="#FFA78F"/>
<stop offset="1" stop-color="#F23E2C"/>
</linearGradient>
<linearGradient id="paint10_linear_386_57754" x1="11.6989" y1="10.8186" x2="7.72428" y2="13.5106" gradientUnits="userSpaceOnUse">
<stop stop-color="#FFA78F"/>
<stop offset="1" stop-color="#F23E2C"/>
</linearGradient>
<linearGradient id="paint11_linear_386_57754" x1="25.3932" y1="10.8254" x2="21.4171" y2="13.5098" gradientUnits="userSpaceOnUse">
<stop stop-color="#FFA78F"/>
<stop offset="1" stop-color="#F23E2C"/>
</linearGradient>
<linearGradient id="paint12_linear_386_57754" x1="10.0864" y1="27.8356" x2="6.02748" y2="29.8878" gradientUnits="userSpaceOnUse">
<stop stop-color="#FFA78F"/>
<stop offset="1" stop-color="#F23E2C"/>
</linearGradient>
<linearGradient id="paint13_linear_386_57754" x1="26.8551" y1="27.8869" x2="22.8258" y2="29.95" gradientUnits="userSpaceOnUse">
<stop stop-color="#FFA78F"/>
<stop offset="1" stop-color="#F23E2C"/>
</linearGradient>
</defs>
</svg>
