<svg width="36" height="36" viewBox="0 0 36 36" fill="none" xmlns="http://www.w3.org/2000/svg">
<path d="M22.9573 15.1612C23.0162 15.1555 23.1216 15.1494 23.1687 15.189C23.61 15.5601 24.1095 16.1118 24.4922 16.5331C24.7044 16.7665 25.1954 17.5186 25.394 17.639C25.6194 17.6315 26.1402 16.7043 26.3388 16.4963C26.7593 16.0504 27.2201 15.5932 27.6742 15.1865C27.839 15.0389 28.0723 15.3239 28.063 15.4372C28.0325 15.8042 27.7439 17.0576 27.5938 17.3271C27.3906 17.3639 26.9236 16.8296 26.6789 17.0879C26.6308 17.1384 26.593 17.3318 26.6156 17.3884C26.7015 17.5538 26.9332 17.6636 27.0798 17.7539C27.5644 18.0529 27.9398 18.4173 28.1481 17.6111C28.2816 17.118 28.4117 16.6238 28.5389 16.1292C28.5826 15.9598 28.6215 15.6883 28.7056 15.5438C28.8211 15.4906 29.0316 15.5656 29.1518 15.6041C30.0566 15.8938 31.0076 16.1331 31.6914 16.8363C32.7072 17.8804 32.6984 19.3391 32.6866 20.6938C32.6769 21.8085 32.6932 22.9163 32.6916 24.0303C32.7015 24.3717 32.6167 24.699 32.2009 24.6682C32.0627 24.6768 32.0768 24.398 32.086 24.308C32.1648 23.5358 31.6998 22.8598 30.9006 22.7887C30.4213 22.7458 29.9037 22.8102 29.4171 22.7702C29.3262 22.6883 29.3721 22.2781 29.3279 22.0697C29.2954 21.9106 29.2341 21.7586 29.1469 21.6215C28.4864 20.5717 27.0881 21.0152 26.0431 20.9304C24.9412 20.841 23.7666 20.9252 23.5854 22.2507C23.5641 22.4069 23.5786 22.5681 23.55 22.7289C23.4595 22.8335 22.293 22.7406 22.0309 22.7955C21.5349 22.8996 21.3752 23.0275 21.0815 23.4244C20.5833 23.1505 20.4728 23.2823 19.9811 23.1887L19.9502 23.1828C19.8695 23.0178 19.7263 22.643 19.6626 22.4763C19.5798 22.2599 19.9713 21.926 20.0848 21.7323C20.3509 21.2771 20.1692 20.8116 19.814 20.47C19.499 20.1631 19.1947 19.8263 18.8562 19.5467C18.751 19.4597 18.4649 19.3988 18.3437 19.3246C18.3301 19.1785 18.4742 18.9621 18.5348 18.8211C18.7997 18.2036 19.0855 17.5105 19.5029 16.9817C20.0099 16.3392 20.7278 16.0229 21.4677 15.7342C21.645 15.665 21.9033 15.5403 22.0865 15.5215C22.101 15.5299 22.1195 15.5337 22.1302 15.5466C22.2069 15.6379 22.2372 15.9236 22.2658 16.0427C22.3506 16.3961 22.6656 17.804 22.8609 18.021C22.9064 18.0716 22.956 18.0926 23.025 18.0924C23.2449 18.0913 24.0061 17.6296 24.1565 17.4655C24.2025 17.4153 24.2141 17.3452 24.2077 17.28C24.1989 17.1914 24.1302 17.0978 24.0561 17.0517C23.8048 16.895 23.5302 17.2924 23.291 17.3195C23.2642 17.3225 23.2324 17.3276 23.2121 17.3059C23.1377 17.2257 22.7528 15.679 22.7579 15.5073C22.7618 15.3649 22.8615 15.2552 22.9573 15.1612ZM29.8802 20.1403C30.1579 19.9889 30.0814 19.8465 30.0973 19.5618C30.1071 19.3854 30.0694 19.1616 29.8444 19.148C29.3282 19.117 28.8056 19.1392 28.288 19.1344C28.0773 19.1324 27.8396 19.1284 27.6309 19.1412C27.3618 19.3123 27.4398 19.4395 27.4209 19.7262C27.4062 19.9467 27.493 20.1392 27.7397 20.1407C28.4391 20.1455 29.1825 20.1677 29.8802 20.1403Z" fill="black"/>
<path d="M22.9573 15.1612C23.0162 15.1555 23.1216 15.1494 23.1687 15.189C23.61 15.5601 24.1095 16.1118 24.4922 16.5331C24.7044 16.7665 25.1954 17.5186 25.394 17.639C25.6194 17.6315 26.1402 16.7043 26.3388 16.4963C26.7593 16.0504 27.2201 15.5932 27.6742 15.1865C27.839 15.0389 28.0723 15.3239 28.063 15.4372C28.0325 15.8042 27.7439 17.0576 27.5938 17.3271C27.3906 17.3639 26.9236 16.8296 26.6789 17.0879C26.6308 17.1384 26.593 17.3318 26.6156 17.3884C26.7015 17.5538 26.9332 17.6636 27.0798 17.7539C27.5644 18.0529 27.9398 18.4173 28.1481 17.6111C28.2816 17.118 28.4117 16.6238 28.5389 16.1292C28.5826 15.9598 28.6215 15.6883 28.7056 15.5438C28.8211 15.4906 29.0316 15.5656 29.1518 15.6041C30.0566 15.8938 31.0076 16.1331 31.6914 16.8363C32.7072 17.8804 32.6984 19.3391 32.6866 20.6938C32.6769 21.8085 32.6932 22.9163 32.6916 24.0303C32.7015 24.3717 32.6167 24.699 32.2009 24.6682C32.0627 24.6768 32.0768 24.398 32.086 24.308C32.1648 23.5358 31.6998 22.8598 30.9006 22.7887C30.4213 22.7458 29.9037 22.8102 29.4171 22.7702C29.3262 22.6883 29.3721 22.2781 29.3279 22.0697C29.2954 21.9106 29.2341 21.7586 29.1469 21.6215C28.4864 20.5717 27.0881 21.0152 26.0431 20.9304C24.9412 20.841 23.7666 20.9252 23.5854 22.2507C23.5641 22.4069 23.5786 22.5681 23.55 22.7289C23.4595 22.8335 22.293 22.7406 22.0309 22.7955C21.5349 22.8996 21.3752 23.0275 21.0815 23.4244C20.5833 23.1505 20.4728 23.2823 19.9811 23.1887L19.9502 23.1828C19.8695 23.0178 19.7263 22.643 19.6626 22.4763C19.5798 22.2599 19.9713 21.926 20.0848 21.7323C20.3509 21.2771 20.1692 20.8116 19.814 20.47C19.499 20.1631 19.1947 19.8263 18.8562 19.5467C18.751 19.4597 18.4649 19.3988 18.3437 19.3246C18.3301 19.1785 18.4742 18.9621 18.5348 18.8211C18.7997 18.2036 19.0855 17.5105 19.5029 16.9817C20.0099 16.3392 20.7278 16.0229 21.4677 15.7342C21.645 15.665 21.9033 15.5403 22.0865 15.5215C22.101 15.5299 22.1195 15.5337 22.1302 15.5466C22.2069 15.6379 22.2372 15.9236 22.2658 16.0427C22.3506 16.3961 22.6656 17.804 22.8609 18.021C22.9064 18.0716 22.956 18.0926 23.025 18.0924C23.2449 18.0913 24.0061 17.6296 24.1565 17.4655C24.2025 17.4153 24.2141 17.3452 24.2077 17.28C24.1989 17.1914 24.1302 17.0978 24.0561 17.0517C23.8048 16.895 23.5302 17.2924 23.291 17.3195C23.2642 17.3225 23.2324 17.3276 23.2121 17.3059C23.1377 17.2257 22.7528 15.679 22.7579 15.5073C22.7618 15.3649 22.8615 15.2552 22.9573 15.1612ZM29.8802 20.1403C30.1579 19.9889 30.0814 19.8465 30.0973 19.5618C30.1071 19.3854 30.0694 19.1616 29.8444 19.148C29.3282 19.117 28.8056 19.1392 28.288 19.1344C28.0773 19.1324 27.8396 19.1284 27.6309 19.1412C27.3618 19.3123 27.4398 19.4395 27.4209 19.7262C27.4062 19.9467 27.493 20.1392 27.7397 20.1407C28.4391 20.1455 29.1825 20.1677 29.8802 20.1403Z" fill="url(#paint0_linear_386_57824)"/>
<path d="M13.8595 18.7669C14.1605 18.737 15.0904 18.7113 15.3428 18.7904C15.8587 18.9521 15.5519 19.5832 15.7524 19.949C15.7821 20.0032 15.8156 20.0454 15.8694 20.0771C16.0773 20.1988 16.3293 20.2563 16.5519 20.3488C16.7331 20.4241 16.9477 20.556 17.1365 20.5999C17.4505 20.6728 17.7959 20.1799 18.0527 20.0342C18.1568 19.9751 18.2709 19.9529 18.3868 19.9892C18.5683 20.0456 19.4841 20.9388 19.5768 21.1429C19.7379 21.497 19.0922 21.8854 18.9879 22.2024C18.9677 22.2639 18.9655 22.3191 18.9822 22.3817C19.0382 22.5917 19.1647 22.798 19.2467 23.0007C19.3229 23.189 19.3745 23.4247 19.4771 23.5974C19.6408 23.8731 20.2794 23.7681 20.563 23.8375C20.6704 23.8638 20.7712 23.9179 20.8257 24.0183C20.9188 24.1898 20.9259 25.4084 20.8569 25.6028C20.6992 26.0474 19.9639 25.8089 19.6205 25.9789C19.5593 26.0094 19.4975 26.0595 19.4641 26.1204C19.3703 26.2908 19.3227 26.514 19.248 26.6983C19.1704 26.889 19.0667 27.07 18.9982 27.264C18.8545 27.6702 19.411 27.9013 19.5549 28.2119C19.6034 28.3167 19.6017 28.4261 19.5573 28.532C19.4806 28.715 18.5841 29.6108 18.4042 29.6837C18.0329 29.834 17.6511 29.2152 17.3291 29.0968C17.2717 29.0757 17.2285 29.0702 17.1683 29.0864C16.9332 29.1501 16.7091 29.2824 16.4834 29.3746C16.2987 29.4502 16.0932 29.4966 15.9148 29.584C15.5867 29.7446 15.7212 30.3658 15.6009 30.6663C15.558 30.7736 15.4785 30.8553 15.3711 30.8981C15.2086 30.9631 13.9497 30.9508 13.7996 30.886C13.4192 30.7215 13.6287 30.0682 13.4823 29.754C13.4087 29.5961 13.2618 29.5629 13.111 29.5117C13.0006 29.4744 12.8274 29.4381 12.7731 29.3287C12.8326 29.1802 13.9148 28.0744 14.0803 27.9476C14.9476 27.9839 15.4156 28.0168 16.2155 27.53C16.6103 27.2923 16.9736 26.9165 17.2144 26.5261C17.62 25.8596 17.7467 25.0604 17.5675 24.3012C17.3759 23.5198 16.8772 22.8485 16.1843 22.4397C15.4763 22.0221 14.6325 21.8991 13.8347 22.097C12.109 22.5271 11.1043 24.3043 11.69 25.9233C11.7117 26.0171 11.7945 26.183 11.7243 26.2675C11.4699 26.5747 11.1453 26.8466 10.867 27.1329C10.7279 27.2761 10.5014 27.5841 10.3174 27.6199C10.1777 27.5551 10.2495 27.3534 10.1687 27.2179C10.0782 27.0665 10.0037 26.8706 9.93105 26.7126C9.85412 26.5452 9.7925 26.2511 9.69705 26.1092C9.41861 25.683 8.51381 26.1335 8.3201 25.6489C8.22171 25.4029 8.23188 24.3036 8.29655 24.062C8.40004 23.6756 9.27712 23.8718 9.56044 23.7173C9.72122 23.6299 9.78754 23.3217 9.86201 23.1578C9.9394 22.8463 10.3308 22.3982 10.1302 22.1038C9.72201 21.5045 9.21677 21.3518 9.9356 20.7383C10.1859 20.5245 10.4727 20.1474 10.7818 19.9861C11.1936 19.8181 11.6076 20.7031 12.0342 20.601C12.398 20.4268 12.907 20.2671 13.2575 20.1159C13.7694 19.8949 13.2169 19.0646 13.8595 18.7669Z" fill="black"/>
<path d="M13.8595 18.7669C14.1605 18.737 15.0904 18.7113 15.3428 18.7904C15.8587 18.9521 15.5519 19.5832 15.7524 19.949C15.7821 20.0032 15.8156 20.0454 15.8694 20.0771C16.0773 20.1988 16.3293 20.2563 16.5519 20.3488C16.7331 20.4241 16.9477 20.556 17.1365 20.5999C17.4505 20.6728 17.7959 20.1799 18.0527 20.0342C18.1568 19.9751 18.2709 19.9529 18.3868 19.9892C18.5683 20.0456 19.4841 20.9388 19.5768 21.1429C19.7379 21.497 19.0922 21.8854 18.9879 22.2024C18.9677 22.2639 18.9655 22.3191 18.9822 22.3817C19.0382 22.5917 19.1647 22.798 19.2467 23.0007C19.3229 23.189 19.3745 23.4247 19.4771 23.5974C19.6408 23.8731 20.2794 23.7681 20.563 23.8375C20.6704 23.8638 20.7712 23.9179 20.8257 24.0183C20.9188 24.1898 20.9259 25.4084 20.8569 25.6028C20.6992 26.0474 19.9639 25.8089 19.6205 25.9789C19.5593 26.0094 19.4975 26.0595 19.4641 26.1204C19.3703 26.2908 19.3227 26.514 19.248 26.6983C19.1704 26.889 19.0667 27.07 18.9982 27.264C18.8545 27.6702 19.411 27.9013 19.5549 28.2119C19.6034 28.3167 19.6017 28.4261 19.5573 28.532C19.4806 28.715 18.5841 29.6108 18.4042 29.6837C18.0329 29.834 17.6511 29.2152 17.3291 29.0968C17.2717 29.0757 17.2285 29.0702 17.1683 29.0864C16.9332 29.1501 16.7091 29.2824 16.4834 29.3746C16.2987 29.4502 16.0932 29.4966 15.9148 29.584C15.5867 29.7446 15.7212 30.3658 15.6009 30.6663C15.558 30.7736 15.4785 30.8553 15.3711 30.8981C15.2086 30.9631 13.9497 30.9508 13.7996 30.886C13.4192 30.7215 13.6287 30.0682 13.4823 29.754C13.4087 29.5961 13.2618 29.5629 13.111 29.5117C13.0006 29.4744 12.8274 29.4381 12.7731 29.3287C12.8326 29.1802 13.9148 28.0744 14.0803 27.9476C14.9476 27.9839 15.4156 28.0168 16.2155 27.53C16.6103 27.2923 16.9736 26.9165 17.2144 26.5261C17.62 25.8596 17.7467 25.0604 17.5675 24.3012C17.3759 23.5198 16.8772 22.8485 16.1843 22.4397C15.4763 22.0221 14.6325 21.8991 13.8347 22.097C12.109 22.5271 11.1043 24.3043 11.69 25.9233C11.7117 26.0171 11.7945 26.183 11.7243 26.2675C11.4699 26.5747 11.1453 26.8466 10.867 27.1329C10.7279 27.2761 10.5014 27.5841 10.3174 27.6199C10.1777 27.5551 10.2495 27.3534 10.1687 27.2179C10.0782 27.0665 10.0037 26.8706 9.93105 26.7126C9.85412 26.5452 9.7925 26.2511 9.69705 26.1092C9.41861 25.683 8.51381 26.1335 8.3201 25.6489C8.22171 25.4029 8.23188 24.3036 8.29655 24.062C8.40004 23.6756 9.27712 23.8718 9.56044 23.7173C9.72122 23.6299 9.78754 23.3217 9.86201 23.1578C9.9394 22.8463 10.3308 22.3982 10.1302 22.1038C9.72201 21.5045 9.21677 21.3518 9.9356 20.7383C10.1859 20.5245 10.4727 20.1474 10.7818 19.9861C11.1936 19.8181 11.6076 20.7031 12.0342 20.601C12.398 20.4268 12.907 20.2671 13.2575 20.1159C13.7694 19.8949 13.2169 19.0646 13.8595 18.7669Z" fill="url(#paint1_linear_386_57824)"/>
<path d="M21.6954 26.6376C22.3568 26.6194 23.0905 26.6459 23.759 26.6325C24.0325 26.6273 25.1056 26.6119 25.3209 26.6664C25.4898 26.812 25.3132 27.229 25.4911 27.4921C25.6998 27.8502 26.1513 27.7333 26.479 27.7498C27.3645 27.7944 27.5605 27.6655 27.5508 26.7483C27.55 26.6477 27.7608 26.6314 27.8384 26.6319C28.9706 26.6369 30.1033 26.6332 31.2353 26.6334C31.3121 26.6334 31.386 26.647 31.4569 26.6745C31.5505 26.8461 31.512 27.6894 31.5105 27.9117L31.5085 29.6645C31.5094 29.8548 31.5057 30.0215 31.4334 30.2012C31.4013 30.3156 31.188 30.5522 31.0628 30.5705C30.4793 30.6564 29.6257 30.6223 29.0514 30.6225L25.9817 30.623L23.5231 30.6225C23.087 30.6225 22.6452 30.6258 22.2094 30.617C22.1068 30.6144 22.008 30.5861 21.9148 30.5459C21.6332 30.4239 21.5113 30.1575 21.5045 29.8558C21.4827 28.8798 21.531 27.8963 21.4895 26.921C21.4869 26.8597 21.5045 26.7556 21.5346 26.6995C21.566 26.6435 21.6365 26.647 21.6954 26.6376Z" fill="black"/>
<path d="M21.6954 26.6376C22.3568 26.6194 23.0905 26.6459 23.759 26.6325C24.0325 26.6273 25.1056 26.6119 25.3209 26.6664C25.4898 26.812 25.3132 27.229 25.4911 27.4921C25.6998 27.8502 26.1513 27.7333 26.479 27.7498C27.3645 27.7944 27.5605 27.6655 27.5508 26.7483C27.55 26.6477 27.7608 26.6314 27.8384 26.6319C28.9706 26.6369 30.1033 26.6332 31.2353 26.6334C31.3121 26.6334 31.386 26.647 31.4569 26.6745C31.5505 26.8461 31.512 27.6894 31.5105 27.9117L31.5085 29.6645C31.5094 29.8548 31.5057 30.0215 31.4334 30.2012C31.4013 30.3156 31.188 30.5522 31.0628 30.5705C30.4793 30.6564 29.6257 30.6223 29.0514 30.6225L25.9817 30.623L23.5231 30.6225C23.087 30.6225 22.6452 30.6258 22.2094 30.617C22.1068 30.6144 22.008 30.5861 21.9148 30.5459C21.6332 30.4239 21.5113 30.1575 21.5045 29.8558C21.4827 28.8798 21.531 27.8963 21.4895 26.921C21.4869 26.8597 21.5045 26.7556 21.5346 26.6995C21.566 26.6435 21.6365 26.647 21.6954 26.6376Z" fill="url(#paint2_linear_386_57824)"/>
<path d="M24.9488 21.5143C25.5668 21.5071 26.185 21.5047 26.8029 21.5071C27.5902 21.5067 28.7046 21.3087 28.7776 22.3935C28.7965 22.6756 28.7369 23.0081 28.8125 23.2724C28.8562 23.4253 29.358 23.3456 29.454 23.3568C30.0271 23.4229 31.0495 23.1437 31.4032 23.7124C31.5846 24.134 31.4983 25.4586 31.486 25.9637C31.4829 26.0959 30.7909 26.0504 30.6549 26.0482C29.7154 26.034 28.7699 26.0445 27.8299 26.0548C27.545 26.0575 27.5459 26.0307 27.5371 25.7646C27.5142 25.505 27.3811 25.2477 27.0848 25.2155C26.7238 25.1761 26.3245 25.199 25.9594 25.2018C25.3067 25.2071 25.4589 25.8712 25.3449 26.0107C25.1731 26.1225 22.7488 26.0012 22.3938 26.0458C22.2677 26.0616 21.6877 26.0373 21.5428 26.0164C21.4705 25.9 21.5052 24.3146 21.5151 23.9943C21.5454 22.9901 23.4419 23.478 24.0051 23.3473C24.4691 23.2397 23.6358 21.7694 24.9488 21.5143ZM27.5509 23.3557C28.0113 23.3631 27.9685 23.3267 27.9813 22.8713C27.9837 22.7858 27.9839 22.4583 27.9151 22.4161C27.7027 22.2863 27.172 22.3298 26.9336 22.3309C26.4607 22.334 25.9875 22.3346 25.5143 22.3329C25.1597 22.3296 24.9431 22.2975 24.9655 22.761C24.9719 22.8908 24.9346 23.232 25.0165 23.3183C25.2379 23.3858 27.1933 23.3548 27.5509 23.3557Z" fill="black"/>
<path d="M24.9488 21.5143C25.5668 21.5071 26.185 21.5047 26.8029 21.5071C27.5902 21.5067 28.7046 21.3087 28.7776 22.3935C28.7965 22.6756 28.7369 23.0081 28.8125 23.2724C28.8562 23.4253 29.358 23.3456 29.454 23.3568C30.0271 23.4229 31.0495 23.1437 31.4032 23.7124C31.5846 24.134 31.4983 25.4586 31.486 25.9637C31.4829 26.0959 30.7909 26.0504 30.6549 26.0482C29.7154 26.034 28.7699 26.0445 27.8299 26.0548C27.545 26.0575 27.5459 26.0307 27.5371 25.7646C27.5142 25.505 27.3811 25.2477 27.0848 25.2155C26.7238 25.1761 26.3245 25.199 25.9594 25.2018C25.3067 25.2071 25.4589 25.8712 25.3449 26.0107C25.1731 26.1225 22.7488 26.0012 22.3938 26.0458C22.2677 26.0616 21.6877 26.0373 21.5428 26.0164C21.4705 25.9 21.5052 24.3146 21.5151 23.9943C21.5454 22.9901 23.4419 23.478 24.0051 23.3473C24.4691 23.2397 23.6358 21.7694 24.9488 21.5143ZM27.5509 23.3557C28.0113 23.3631 27.9685 23.3267 27.9813 22.8713C27.9837 22.7858 27.9839 22.4583 27.9151 22.4161C27.7027 22.2863 27.172 22.3298 26.9336 22.3309C26.4607 22.334 25.9875 22.3346 25.5143 22.3329C25.1597 22.3296 24.9431 22.2975 24.9655 22.761C24.9719 22.8908 24.9346 23.232 25.0165 23.3183C25.2379 23.3858 27.1933 23.3548 27.5509 23.3557Z" fill="url(#paint3_linear_386_57824)"/>
<path d="M10.8987 5.06457C10.9338 5.06126 10.9681 5.0591 11.0034 5.05908C11.3071 5.05897 12.129 5.07674 12.3276 5.29273C12.3899 5.36055 12.4062 5.4674 12.4092 5.55597C12.4177 5.81211 12.3624 6.08471 12.3298 6.33927C12.2417 7.02684 12.1052 7.75394 12.0587 8.44162C12.0504 8.56378 12.0452 8.68427 12.1352 8.77827C12.1885 8.83398 12.282 8.861 12.3572 8.85674C12.4583 8.85101 12.521 8.80986 12.5692 8.72109C12.7942 8.30645 12.8859 5.83105 13.043 5.6729C13.0687 5.647 13.0659 5.65702 13.1078 5.66102C13.1708 5.72005 13.1761 5.75935 13.2042 5.84071C14.3657 6.70413 14.8939 7.66405 14.9151 9.11781C15.0909 9.16607 15.2879 9.13927 15.4335 9.27088C15.6692 9.48383 15.5364 9.93265 15.206 9.94572C14.7607 9.96334 14.3115 9.95565 13.8654 9.95559L11.1025 9.95475L8.2341 9.95563C7.77432 9.95598 7.31238 9.96275 6.85405 9.95099C6.65603 9.94807 6.48759 9.81455 6.47034 9.61041C6.43473 9.18828 6.77604 9.16146 7.08976 9.12881C7.16261 7.56278 7.66646 6.68113 8.91339 5.76499C8.97261 5.72147 9.08408 5.5936 9.14912 5.59485C9.37517 5.84915 9.37133 8.52459 9.6725 8.79763C9.72681 8.84688 9.81968 8.87746 9.89393 8.86456C10.0301 8.8409 10.0883 8.72461 10.1091 8.60009C10.2021 8.04297 9.63215 5.60452 9.88205 5.29436C10.063 5.06976 10.6287 5.08338 10.8987 5.06457Z" fill="black"/>
<path d="M10.8987 5.06457C10.9338 5.06126 10.9681 5.0591 11.0034 5.05908C11.3071 5.05897 12.129 5.07674 12.3276 5.29273C12.3899 5.36055 12.4062 5.4674 12.4092 5.55597C12.4177 5.81211 12.3624 6.08471 12.3298 6.33927C12.2417 7.02684 12.1052 7.75394 12.0587 8.44162C12.0504 8.56378 12.0452 8.68427 12.1352 8.77827C12.1885 8.83398 12.282 8.861 12.3572 8.85674C12.4583 8.85101 12.521 8.80986 12.5692 8.72109C12.7942 8.30645 12.8859 5.83105 13.043 5.6729C13.0687 5.647 13.0659 5.65702 13.1078 5.66102C13.1708 5.72005 13.1761 5.75935 13.2042 5.84071C14.3657 6.70413 14.8939 7.66405 14.9151 9.11781C15.0909 9.16607 15.2879 9.13927 15.4335 9.27088C15.6692 9.48383 15.5364 9.93265 15.206 9.94572C14.7607 9.96334 14.3115 9.95565 13.8654 9.95559L11.1025 9.95475L8.2341 9.95563C7.77432 9.95598 7.31238 9.96275 6.85405 9.95099C6.65603 9.94807 6.48759 9.81455 6.47034 9.61041C6.43473 9.18828 6.77604 9.16146 7.08976 9.12881C7.16261 7.56278 7.66646 6.68113 8.91339 5.76499C8.97261 5.72147 9.08408 5.5936 9.14912 5.59485C9.37517 5.84915 9.37133 8.52459 9.6725 8.79763C9.72681 8.84688 9.81968 8.87746 9.89393 8.86456C10.0301 8.8409 10.0883 8.72461 10.1091 8.60009C10.2021 8.04297 9.63215 5.60452 9.88205 5.29436C10.063 5.06976 10.6287 5.08338 10.8987 5.06457Z" fill="url(#paint4_linear_386_57824)"/>
<path d="M6.98981 15.5156C7.00778 15.5196 7.0507 15.5383 7.06968 15.5459C7.13589 15.6535 7.13126 18.8917 7.07195 19.1448C7.01391 19.2054 6.78195 19.2612 6.68732 19.301C6.26444 19.4778 6.36832 20.2746 6.36892 20.6687L6.37329 23.1891C6.37348 23.4916 6.40916 24.372 6.31982 24.6047C6.18893 24.7474 4.82553 24.6444 4.54784 24.6813C4.26248 24.7191 3.88765 24.6846 3.63511 24.5295C3.50027 24.4171 3.34056 24.2097 3.33101 24.0223C3.28591 23.1392 3.32558 22.2455 3.31552 21.3596C3.31073 20.9369 3.29995 20.4675 3.32176 20.0492C3.33709 19.743 3.37277 19.4383 3.42854 19.1367C3.53548 18.5534 3.75536 17.9966 4.07584 17.4977C4.71704 16.503 5.84044 15.7649 6.98981 15.5156Z" fill="black"/>
<path d="M6.98981 15.5156C7.00778 15.5196 7.0507 15.5383 7.06968 15.5459C7.13589 15.6535 7.13126 18.8917 7.07195 19.1448C7.01391 19.2054 6.78195 19.2612 6.68732 19.301C6.26444 19.4778 6.36832 20.2746 6.36892 20.6687L6.37329 23.1891C6.37348 23.4916 6.40916 24.372 6.31982 24.6047C6.18893 24.7474 4.82553 24.6444 4.54784 24.6813C4.26248 24.7191 3.88765 24.6846 3.63511 24.5295C3.50027 24.4171 3.34056 24.2097 3.33101 24.0223C3.28591 23.1392 3.32558 22.2455 3.31552 21.3596C3.31073 20.9369 3.29995 20.4675 3.32176 20.0492C3.33709 19.743 3.37277 19.4383 3.42854 19.1367C3.53548 18.5534 3.75536 17.9966 4.07584 17.4977C4.71704 16.503 5.84044 15.7649 6.98981 15.5156Z" fill="url(#paint5_linear_386_57824)"/>
<path d="M7.55891 10.5537C7.85519 10.5224 8.44733 10.5392 8.76221 10.5391L11.0019 10.5385L13.238 10.5385C13.587 10.5386 14.1862 10.5218 14.5144 10.5649C14.5983 10.6471 14.5761 10.7658 14.5871 10.8756C14.7065 12.0682 14.3525 13.1143 13.5065 13.9792C13.1007 14.354 12.7283 14.6039 12.2016 14.792C11.3313 15.1036 10.3728 15.0565 9.53728 14.6611C8.65567 14.2404 7.98131 13.4815 7.6671 12.5566C7.50856 12.1038 7.35699 10.9698 7.55891 10.5537Z" fill="black"/>
<path d="M7.55891 10.5537C7.85519 10.5224 8.44733 10.5392 8.76221 10.5391L11.0019 10.5385L13.238 10.5385C13.587 10.5386 14.1862 10.5218 14.5144 10.5649C14.5983 10.6471 14.5761 10.7658 14.5871 10.8756C14.7065 12.0682 14.3525 13.1143 13.5065 13.9792C13.1007 14.354 12.7283 14.6039 12.2016 14.792C11.3313 15.1036 10.3728 15.0565 9.53728 14.6611C8.65567 14.2404 7.98131 13.4815 7.6671 12.5566C7.50856 12.1038 7.35699 10.9698 7.55891 10.5537Z" fill="url(#paint6_linear_386_57824)"/>
<path d="M22.5119 10.3584C23.6891 10.3885 24.3058 11.0405 25.3569 11.2214C25.9412 11.322 27.0388 10.8704 27.6683 10.8509C27.977 10.8414 28.73 10.9138 29.033 11.0318C29.0859 11.0674 29.0855 11.3284 29.0839 11.417C29.0668 12.5384 28.658 13.4661 27.8474 14.2387C27.3173 14.7281 26.6523 15.0469 25.9388 15.1539C25.0168 15.2906 24.0784 15.0518 23.3337 14.4909C22.2061 13.6508 21.7013 12.2833 21.837 10.9076C21.8869 10.4007 22.0372 10.4014 22.5119 10.3584Z" fill="black"/>
<path d="M22.5119 10.3584C23.6891 10.3885 24.3058 11.0405 25.3569 11.2214C25.9412 11.322 27.0388 10.8704 27.6683 10.8509C27.977 10.8414 28.73 10.9138 29.033 11.0318C29.0859 11.0674 29.0855 11.3284 29.0839 11.417C29.0668 12.5384 28.658 13.4661 27.8474 14.2387C27.3173 14.7281 26.6523 15.0469 25.9388 15.1539C25.0168 15.2906 24.0784 15.0518 23.3337 14.4909C22.2061 13.6508 21.7013 12.2833 21.837 10.9076C21.8869 10.4007 22.0372 10.4014 22.5119 10.3584Z" fill="url(#paint7_linear_386_57824)"/>
<path d="M25.4921 5.89935C26.8991 5.85548 28.487 6.41614 29.0884 7.77697C29.432 8.55441 29.4498 9.4638 29.2666 10.2855C29.2598 10.3161 29.2119 10.378 29.1741 10.3757C28.9162 10.363 28.3084 10.3286 28.0832 10.2577C27.9048 10.2015 27.5599 9.89832 27.3985 9.79068C27.168 9.63717 26.9268 9.50073 26.6768 9.38248C25.484 8.8321 24.308 8.61089 22.9939 8.77698C22.7905 8.80271 22.155 8.95026 22.0157 8.92419C21.9843 8.88177 21.9643 8.86492 21.9696 8.80435C22.1374 6.908 23.7334 5.99871 25.4921 5.89935Z" fill="black"/>
<path d="M25.4921 5.89935C26.8991 5.85548 28.487 6.41614 29.0884 7.77697C29.432 8.55441 29.4498 9.4638 29.2666 10.2855C29.2598 10.3161 29.2119 10.378 29.1741 10.3757C28.9162 10.363 28.3084 10.3286 28.0832 10.2577C27.9048 10.2015 27.5599 9.89832 27.3985 9.79068C27.168 9.63717 26.9268 9.50073 26.6768 9.38248C25.484 8.8321 24.308 8.61089 22.9939 8.77698C22.7905 8.80271 22.155 8.95026 22.0157 8.92419C21.9843 8.88177 21.9643 8.86492 21.9696 8.80435C22.1374 6.908 23.7334 5.99871 25.4921 5.89935Z" fill="url(#paint8_linear_386_57824)"/>
<path d="M8.34275 15.2044C8.39262 15.1993 8.52776 15.1917 8.55911 15.2229C8.86455 15.5264 9.01318 15.7977 9.3795 16.0651C10.3655 16.7814 11.703 16.7727 12.6795 16.0435C12.8059 15.9485 12.9301 15.8418 13.0365 15.7246C13.1657 15.5823 13.363 15.2257 13.5666 15.2025C13.622 15.1962 13.7183 15.2096 13.7567 15.256C13.8723 15.3956 13.8154 17.6291 13.815 17.9718C13.8127 18.0247 13.8072 18.0526 13.7991 18.1045C13.7371 18.206 13.4887 18.2837 13.367 18.3602C13.002 18.5895 13.0168 18.8312 12.922 19.198C12.3687 19.2235 8.57409 19.2556 8.25945 19.1561C8.22909 19.1018 8.222 19.0229 8.22222 18.9614C8.22639 17.7945 8.21833 16.6271 8.21877 15.4604C8.21881 15.3208 8.247 15.2869 8.34275 15.2044Z" fill="black"/>
<path d="M8.34275 15.2044C8.39262 15.1993 8.52776 15.1917 8.55911 15.2229C8.86455 15.5264 9.01318 15.7977 9.3795 16.0651C10.3655 16.7814 11.703 16.7727 12.6795 16.0435C12.8059 15.9485 12.9301 15.8418 13.0365 15.7246C13.1657 15.5823 13.363 15.2257 13.5666 15.2025C13.622 15.1962 13.7183 15.2096 13.7567 15.256C13.8723 15.3956 13.8154 17.6291 13.815 17.9718C13.8127 18.0247 13.8072 18.0526 13.7991 18.1045C13.7371 18.206 13.4887 18.2837 13.367 18.3602C13.002 18.5895 13.0168 18.8312 12.922 19.198C12.3687 19.2235 8.57409 19.2556 8.25945 19.1561C8.22909 19.1018 8.222 19.0229 8.22222 18.9614C8.22639 17.7945 8.21833 16.6271 8.21877 15.4604C8.21881 15.3208 8.247 15.2869 8.34275 15.2044Z" fill="url(#paint9_linear_386_57824)"/>
<path d="M14.4084 23.3609C14.578 23.3328 15.0961 23.2981 15.1743 23.4738C15.1673 23.7515 14.5026 24.2139 14.3418 24.4738C14.2444 24.6313 14.3695 24.9749 14.4172 25.1568L14.7508 25.4672C14.9475 25.5089 15.1256 25.5496 15.3264 25.5711C15.6825 25.3598 15.9577 24.8161 16.3522 24.7025C16.4944 24.6614 16.5296 24.9586 16.5333 25.0436C16.5751 26.006 15.8754 26.9298 14.8962 27.0304C14.6708 27.0537 14.2873 26.9504 14.0796 27.0811C13.8111 27.307 13.557 27.6051 13.3164 27.8643L12.0617 29.2039C11.7212 29.5707 11.3656 29.9747 11.0033 30.3192C10.7314 30.5777 10.2547 30.5911 9.9383 30.3813C9.74075 30.252 9.60584 30.0461 9.56593 29.8135C9.52854 29.5936 9.57122 29.3675 9.68627 29.1764C9.77359 29.0332 10.1377 28.6907 10.2773 28.5492L12.1822 26.6392C12.387 26.4327 12.746 26.1275 12.8916 25.8995C13.016 25.7047 12.6545 24.8222 13.2052 24.0645C13.4941 23.6667 13.9277 23.4352 14.4084 23.3609Z" fill="black"/>
<path d="M14.4084 23.3609C14.578 23.3328 15.0961 23.2981 15.1743 23.4738C15.1673 23.7515 14.5026 24.2139 14.3418 24.4738C14.2444 24.6313 14.3695 24.9749 14.4172 25.1568L14.7508 25.4672C14.9475 25.5089 15.1256 25.5496 15.3264 25.5711C15.6825 25.3598 15.9577 24.8161 16.3522 24.7025C16.4944 24.6614 16.5296 24.9586 16.5333 25.0436C16.5751 26.006 15.8754 26.9298 14.8962 27.0304C14.6708 27.0537 14.2873 26.9504 14.0796 27.0811C13.8111 27.307 13.557 27.6051 13.3164 27.8643L12.0617 29.2039C11.7212 29.5707 11.3656 29.9747 11.0033 30.3192C10.7314 30.5777 10.2547 30.5911 9.9383 30.3813C9.74075 30.252 9.60584 30.0461 9.56593 29.8135C9.52854 29.5936 9.57122 29.3675 9.68627 29.1764C9.77359 29.0332 10.1377 28.6907 10.2773 28.5492L12.1822 26.6392C12.387 26.4327 12.746 26.1275 12.8916 25.8995C13.016 25.7047 12.6545 24.8222 13.2052 24.0645C13.4941 23.6667 13.9277 23.4352 14.4084 23.3609Z" fill="url(#paint10_linear_386_57824)"/>
<path d="M15.0097 15.5156C16.1904 15.6616 17.8514 16.9196 18.2072 18.0788C18.1692 18.2027 18.0682 18.4153 18.0124 18.541C17.8632 18.8766 17.7453 19.1558 17.655 19.5155C17.5796 19.6758 17.3242 19.8579 17.1771 19.9781C17.0806 19.948 16.3703 19.6429 16.2819 19.5981C16.2184 19.2125 16.2493 18.7534 15.9628 18.4619C15.6806 18.1745 15.3079 18.1765 14.9401 18.1618C14.8876 17.3651 14.9513 16.4673 14.9363 15.6621C14.935 15.587 14.9561 15.5595 15.0097 15.5156Z" fill="black"/>
<path d="M15.0097 15.5156C16.1904 15.6616 17.8514 16.9196 18.2072 18.0788C18.1692 18.2027 18.0682 18.4153 18.0124 18.541C17.8632 18.8766 17.7453 19.1558 17.655 19.5155C17.5796 19.6758 17.3242 19.8579 17.1771 19.9781C17.0806 19.948 16.3703 19.6429 16.2819 19.5981C16.2184 19.2125 16.2493 18.7534 15.9628 18.4619C15.6806 18.1745 15.3079 18.1765 14.9401 18.1618C14.8876 17.3651 14.9513 16.4673 14.9363 15.6621C14.935 15.587 14.9561 15.5595 15.0097 15.5156Z" fill="url(#paint11_linear_386_57824)"/>
<path d="M22.6106 8.97487C23.8006 8.879 25.5738 9.39796 26.5999 9.98202C26.7179 10.0491 27.0617 10.2155 27.0942 10.327C27.0608 10.3986 27.0861 10.3782 27.0305 10.4137C26.884 10.3865 26.5808 10.4572 26.4341 10.4947C25.2043 10.8089 25.1138 10.547 24.0293 10.1016C22.8951 9.65496 22.0649 9.63077 20.9896 10.2551C20.7807 10.3597 20.5757 10.5811 20.3457 10.6292C20.1019 10.6803 19.8233 10.5631 19.8067 10.2903C19.7864 9.95774 20.0808 9.77939 20.3253 9.63045C21.0281 9.20199 21.7943 9.00375 22.6106 8.97487Z" fill="black"/>
<path d="M22.6106 8.97487C23.8006 8.879 25.5738 9.39796 26.5999 9.98202C26.7179 10.0491 27.0617 10.2155 27.0942 10.327C27.0608 10.3986 27.0861 10.3782 27.0305 10.4137C26.884 10.3865 26.5808 10.4572 26.4341 10.4947C25.2043 10.8089 25.1138 10.547 24.0293 10.1016C22.8951 9.65496 22.0649 9.63077 20.9896 10.2551C20.7807 10.3597 20.5757 10.5811 20.3457 10.6292C20.1019 10.6803 19.8233 10.5631 19.8067 10.2903C19.7864 9.95774 20.0808 9.77939 20.3253 9.63045C21.0281 9.20199 21.7943 9.00375 22.6106 8.97487Z" fill="url(#paint12_linear_386_57824)"/>
<path d="M26.0547 25.7737C26.1824 25.7697 26.8849 25.7161 26.9255 25.8358C27.0224 26.1216 26.9728 26.6851 26.9651 26.9997C26.9631 27.0777 26.9218 27.1124 26.8697 27.1486C26.7087 27.1607 26.5475 27.1686 26.3862 27.1728C26.2652 27.1756 26.08 27.1824 25.991 27.0976C25.9148 26.8821 25.9625 26.318 25.9572 26.0612C25.9546 25.9237 25.9605 25.8611 26.0547 25.7737Z" fill="black"/>
<path d="M26.0547 25.7737C26.1824 25.7697 26.8849 25.7161 26.9255 25.8358C27.0224 26.1216 26.9728 26.6851 26.9651 26.9997C26.9631 27.0777 26.9218 27.1124 26.8697 27.1486C26.7087 27.1607 26.5475 27.1686 26.3862 27.1728C26.2652 27.1756 26.08 27.1824 25.991 27.0976C25.9148 26.8821 25.9625 26.318 25.9572 26.0612C25.9546 25.9237 25.9605 25.8611 26.0547 25.7737Z" fill="url(#paint13_linear_386_57824)"/>
<defs>
<linearGradient id="paint0_linear_386_57824" x1="26.574" y1="20.5455" x2="16.428" y2="27.9773" gradientUnits="userSpaceOnUse">
<stop stop-color="#FFA78F"/>
<stop offset="1" stop-color="#F23E2C"/>
</linearGradient>
<linearGradient id="paint1_linear_386_57824" x1="15.5067" y1="25.6567" x2="4.54446" y2="31.1844" gradientUnits="userSpaceOnUse">
<stop stop-color="#FFA78F"/>
<stop offset="1" stop-color="#F23E2C"/>
</linearGradient>
<linearGradient id="paint2_linear_386_57824" x1="27.2429" y1="28.8958" x2="22.8571" y2="34.2397" gradientUnits="userSpaceOnUse">
<stop stop-color="#FFA78F"/>
<stop offset="1" stop-color="#F23E2C"/>
</linearGradient>
<linearGradient id="paint3_linear_386_57824" x1="27.2452" y1="24.0819" x2="22.1537" y2="29.5132" gradientUnits="userSpaceOnUse">
<stop stop-color="#FFA78F"/>
<stop offset="1" stop-color="#F23E2C"/>
</linearGradient>
<linearGradient id="paint4_linear_386_57824" x1="11.6792" y1="7.83653" x2="6.23535" y2="12.7454" gradientUnits="userSpaceOnUse">
<stop stop-color="#FFA78F"/>
<stop offset="1" stop-color="#F23E2C"/>
</linearGradient>
<linearGradient id="paint5_linear_386_57824" x1="5.49368" y1="20.7202" x2="1.51706" y2="21.5226" gradientUnits="userSpaceOnUse">
<stop stop-color="#FFA78F"/>
<stop offset="1" stop-color="#F23E2C"/>
</linearGradient>
<linearGradient id="paint6_linear_386_57824" x1="11.562" y1="13.064" x2="6.72939" y2="16.8287" gradientUnits="userSpaceOnUse">
<stop stop-color="#FFA78F"/>
<stop offset="1" stop-color="#F23E2C"/>
</linearGradient>
<linearGradient id="paint7_linear_386_57824" x1="25.985" y1="13.0986" x2="20.8395" y2="16.8614" gradientUnits="userSpaceOnUse">
<stop stop-color="#FFA78F"/>
<stop offset="1" stop-color="#F23E2C"/>
</linearGradient>
<linearGradient id="paint8_linear_386_57824" x1="26.2211" y1="8.43626" x2="21.3332" y2="12.3701" gradientUnits="userSpaceOnUse">
<stop stop-color="#FFA78F"/>
<stop offset="1" stop-color="#F23E2C"/>
</linearGradient>
<linearGradient id="paint9_linear_386_57824" x1="11.4371" y1="17.4813" x2="7.26075" y2="20.3124" gradientUnits="userSpaceOnUse">
<stop stop-color="#FFA78F"/>
<stop offset="1" stop-color="#F23E2C"/>
</linearGradient>
<linearGradient id="paint10_linear_386_57824" x1="13.5579" y1="27.4139" x2="7.35538" y2="30.3429" gradientUnits="userSpaceOnUse">
<stop stop-color="#FFA78F"/>
<stop offset="1" stop-color="#F23E2C"/>
</linearGradient>
<linearGradient id="paint11_linear_386_57824" x1="16.8052" y1="18.0457" x2="13.6391" y2="19.18" gradientUnits="userSpaceOnUse">
<stop stop-color="#FFA78F"/>
<stop offset="1" stop-color="#F23E2C"/>
</linearGradient>
<linearGradient id="paint12_linear_386_57824" x1="23.9865" y1="9.91449" x2="22.537" y2="12.9767" gradientUnits="userSpaceOnUse">
<stop stop-color="#FFA78F"/>
<stop offset="1" stop-color="#F23E2C"/>
</linearGradient>
<linearGradient id="paint13_linear_386_57824" x1="26.5423" y1="26.5611" x2="25.5422" y2="26.9173" gradientUnits="userSpaceOnUse">
<stop stop-color="#FFA78F"/>
<stop offset="1" stop-color="#F23E2C"/>
</linearGradient>
</defs>
</svg>
