<svg width="1160" height="350" viewBox="0 0 1160 350" fill="none" xmlns="http://www.w3.org/2000/svg">
<g clip-path="url(#clip0_1121_2985)">
<rect width="1160" height="350" rx="32" fill="url(#paint0_linear_1121_2985)" fill-opacity="0.4"/>
<rect width="1160" height="350" rx="32" fill="url(#paint1_radial_1121_2985)" fill-opacity="0.8"/>
<rect width="1160" height="350" rx="32" fill="#004870"/>
<g opacity="0.2" transform="translate(0 -300)">
<path d="M-168.989 523.795C-111.387 468.689 -51.1893 418.184 13.2625 381.008C34.1585 368.954 55.6258 358.265 77.9261 353.433C123.399 343.578 169.43 358.498 215.365 360.34C273.705 362.683 332.444 343.076 384.214 304.869C423.167 276.119 467.024 234.468 511.016 223.883C550.98 214.267 593.768 265.541 629.065 285.472C665.218 305.884 705.715 310.1 744.003 299.371C764.061 293.749 783.585 284.03 801.602 270.341C818.831 257.247 833.883 232.948 854.195 251.917C860.909 258.187 865.532 267.871 871.294 275.78C891.317 303.263 926.485 305.277 948.323 280.187" stroke="white" stroke-opacity="0.8" stroke-width="0.737047" stroke-miterlimit="10"/>
<path d="M-166.441 522.047C-110.141 466.236 -50.5578 415.23 13.5411 378.208C34.8843 365.86 56.8051 355.496 79.4982 350.114C106.881 343.672 134.52 345.908 162.245 349.135C181.17 351.337 200.136 354.003 219.089 354.694C256.53 356.054 294.13 349.365 330.002 335.452C350.977 327.316 371.357 316.702 390.789 303.719C404.441 294.643 418.639 284.136 433.199 273.903C453.677 259.552 474.879 245.755 496.404 236.888C504.132 233.693 511.899 231.132 519.672 229.44C551.803 222.47 585.721 251.302 616.245 272.491C624.428 278.198 632.366 283.356 639.968 287.129C671.214 302.78 705.333 306.601 738.392 299.598C744.084 298.393 749.747 296.868 755.364 295.025C775.393 288.457 794.903 277.898 813.08 263.742C823.845 255.355 833.845 242.898 844.814 238.93C851.568 236.486 858.657 237.306 866.523 244.176C873.395 250.179 878.283 259.479 884.261 267.112C905.011 293.65 940.461 295.855 962.925 271.096" stroke="white" stroke-opacity="0.8" stroke-width="0.737047" stroke-miterlimit="10"/>
<path d="M-163.912 520.309C-108.915 463.785 -49.9458 412.278 13.8025 375.407C35.5957 362.759 57.967 352.719 81.0527 346.796C108.79 339.77 136.844 341.345 165.008 344.105C184.24 345.987 203.525 348.423 222.797 349.05C260.864 350.299 299.089 344.179 335.553 331.508C356.872 324.101 377.581 314.435 397.348 302.563C411.266 294.287 425.697 284.674 440.468 275.353C461.263 262.299 482.751 249.839 504.659 241.779C512.511 238.867 520.404 236.524 528.315 234.974C561.077 228.613 595.661 256.034 626.748 275.497C635.063 280.752 643.135 285.412 650.856 288.765C682.535 302.523 716.74 304.674 749.761 296.054C755.443 294.576 761.096 292.772 766.706 290.667C786.707 283.153 806.205 271.753 824.539 257.126C835.401 248.456 845.571 235.94 856.746 231.78C863.633 229.216 870.841 229.907 878.83 236.419C885.867 242.156 891.014 251.067 897.209 258.43C918.682 284.025 954.421 286.422 977.504 261.995" stroke="white" stroke-opacity="0.8" stroke-width="0.737047" stroke-miterlimit="10"/>
<path d="M-161.364 518.571C-107.668 461.309 -49.315 409.268 14.0753 372.533C36.3177 359.584 59.1391 349.862 82.6167 343.387C110.707 335.77 139.176 336.689 167.778 338.983C187.315 340.543 206.917 342.749 226.51 343.321C265.2 344.455 304.051 338.905 341.103 327.473C362.768 320.788 383.785 311.991 403.908 301.3C418.077 293.77 432.757 285.099 447.732 276.683C468.847 264.919 490.615 253.788 512.905 246.535C520.878 243.905 528.904 241.778 536.947 240.367C570.34 234.611 605.621 260.518 637.239 278.386C645.693 283.165 653.887 287.376 661.73 290.295C693.819 302.24 728.135 302.649 761.112 292.406C766.786 290.648 772.429 288.574 778.028 286.201C798 277.737 817.483 265.492 835.973 250.386C846.934 241.428 857.27 228.848 868.653 224.493C875.673 221.804 883.001 222.364 891.116 228.531C898.317 234 903.722 242.536 910.134 249.632C932.332 274.298 968.352 276.891 992.06 252.777" stroke="white" stroke-opacity="0.8" stroke-width="0.737047" stroke-miterlimit="10"/>
<path d="M-158.839 516.825C-106.448 458.826 -48.7101 406.254 14.325 369.648C37.0167 356.394 60.2772 346.928 84.1576 339.97C112.59 331.689 141.481 332.026 170.526 333.85C190.365 335.091 210.286 337.063 230.197 337.576C269.513 338.595 308.987 333.612 346.63 323.419C368.639 317.459 389.984 309.582 410.441 300.019C424.876 293.269 439.788 285.507 454.973 277.991C476.405 267.518 498.459 257.717 521.131 251.271C529.227 248.923 537.382 247.012 545.558 245.743C579.58 240.592 615.533 265.067 647.71 281.257C656.298 285.58 664.615 289.322 672.581 291.807C705.074 301.94 739.504 300.605 772.441 288.743C778.109 286.71 783.741 284.36 789.33 281.719C809.272 272.306 828.743 259.216 847.39 243.634C858.449 234.388 868.951 221.748 880.542 217.194C887.695 214.381 895.145 214.808 903.38 220.627C910.748 225.829 916.409 233.986 923.038 240.814C945.962 264.551 982.266 267.337 1006.59 243.542" stroke="white" stroke-opacity="0.8" stroke-width="0.737047" stroke-miterlimit="10"/>
<path d="M-156.317 515.089C-105.23 456.348 -48.1089 403.247 14.5739 366.777C37.7148 353.221 61.4224 344.059 85.6975 336.568C114.481 327.683 143.789 327.376 173.272 328.733C193.417 329.652 213.654 331.395 233.886 331.852C273.825 332.757 313.923 328.343 352.156 319.386C374.511 314.149 396.183 307.199 416.973 298.761C431.672 292.796 446.808 285.883 462.214 279.326C483.948 270.071 506.308 261.751 529.354 256.035C537.576 253.995 545.855 252.273 554.168 251.148C588.822 246.601 625.441 269.647 658.179 284.152C666.899 288.018 675.345 291.291 683.434 293.343C716.329 301.674 750.876 298.584 783.773 285.097C789.43 282.785 795.053 280.164 800.637 277.256C820.548 266.889 840.009 252.953 858.812 236.896C869.969 227.362 880.64 214.658 892.436 209.909C899.723 206.971 907.295 207.266 915.65 212.736C923.185 217.671 929.102 225.448 935.947 232.009C959.594 254.816 996.182 257.795 1021.13 234.317" stroke="white" stroke-opacity="0.8" stroke-width="0.737047" stroke-miterlimit="10"/>
<path d="M-153.784 513.352C-104.002 453.875 -47.496 400.243 14.8315 363.906C38.4189 350.045 62.5766 341.194 87.2464 333.161C116.38 323.674 146.106 322.726 176.027 323.613C196.478 324.213 217.033 325.722 237.581 326.12C278.146 326.91 318.867 323.063 357.691 315.35C380.389 310.839 402.393 304.813 423.514 297.5C438.478 292.319 453.847 286.304 469.46 280.659C491.514 272.684 514.157 265.717 537.584 260.797C545.927 259.043 554.339 257.53 562.784 256.551C598.067 252.609 635.352 274.226 668.655 287.049C677.506 290.457 686.075 293.266 694.293 294.876C727.587 301.405 762.252 296.559 795.111 281.452C800.761 278.865 806.373 275.968 811.947 272.797C831.828 261.48 851.275 246.697 870.237 230.162C881.491 220.34 892.329 207.572 904.333 202.627C911.75 199.565 919.453 199.724 927.925 204.849C935.63 209.513 941.8 216.918 948.859 223.211C973.231 245.088 1010.1 248.264 1035.67 225.098" stroke="white" stroke-opacity="0.8" stroke-width="0.737047" stroke-miterlimit="10"/>
<path d="M-151.22 511.611C-102.74 451.396 -46.8527 397.233 15.1224 361.03C39.1591 346.867 63.764 338.327 88.8284 329.754C118.313 319.667 148.455 318.07 178.816 318.491C199.571 318.768 220.443 320.048 241.312 320.39C282.5 321.066 323.847 317.789 363.259 311.312C386.301 307.524 408.636 302.425 430.091 296.237C445.324 291.841 460.925 286.723 476.745 281.988C499.119 275.296 522.042 269.68 545.852 265.556C554.315 264.088 562.859 262.787 571.439 261.951C607.353 258.615 645.299 278.805 679.166 289.942C688.15 292.897 696.844 295.237 705.188 296.408C738.878 301.143 773.668 294.533 806.485 277.801C812.127 274.939 817.729 271.763 823.293 268.328C843.144 256.061 862.579 240.432 881.698 223.422C893.05 213.312 904.056 200.48 916.266 195.34C923.817 192.156 931.647 192.171 940.234 196.96C948.111 201.353 954.531 208.381 961.808 214.407C986.902 235.358 1024.06 238.723 1050.25 215.877" stroke="white" stroke-opacity="0.8" stroke-width="0.737047" stroke-miterlimit="10"/>
<path d="M-148.703 509.869C-101.527 448.913 -46.2554 394.22 15.3646 358.15C39.8505 343.681 64.9025 335.456 90.3617 326.338C120.197 315.657 150.756 313.407 181.555 313.357C202.614 313.315 223.804 314.361 244.995 314.644C286.808 315.205 328.778 312.499 368.781 307.259C392.169 304.197 414.836 300.03 436.62 294.96C452.121 291.353 467.951 287.128 483.979 283.306C506.671 277.895 529.875 273.629 554.07 270.305C562.657 269.123 571.327 268.035 580.043 267.341C616.585 264.61 655.191 283.378 689.629 292.825C698.744 295.326 707.562 297.197 716.032 297.93C750.117 300.877 785.029 292.496 817.804 274.14C823.436 270.998 829.028 267.551 834.587 263.848C854.408 250.63 873.832 234.155 893.108 216.666C904.557 206.268 915.73 193.375 928.148 188.037C935.831 184.728 943.792 184.599 952.491 189.051C960.54 193.168 967.211 199.829 974.704 205.583C1000.52 225.603 1037.96 229.161 1064.78 206.632" stroke="white" stroke-opacity="0.8" stroke-width="0.737047" stroke-miterlimit="10"/>
<path d="M-146.169 508.134C-100.297 446.441 -45.6411 391.219 15.6265 355.282C40.5617 340.512 66.061 332.598 91.9176 322.939C122.103 311.662 153.08 308.759 184.318 308.242C205.681 307.878 227.191 308.698 248.697 308.922C291.133 309.367 333.73 307.228 374.32 303.233C398.052 300.894 421.05 297.659 443.165 293.707C458.935 290.889 474.997 287.558 491.232 284.649C514.244 280.523 537.729 277.604 562.308 275.079C571.016 274.184 579.818 273.308 588.669 272.757C625.843 270.632 665.109 287.981 700.114 295.729C709.358 297.777 718.305 299.182 726.901 299.473C761.377 300.637 796.416 290.48 829.152 270.501C834.776 267.084 840.358 263.362 845.907 259.391C865.697 245.223 885.108 227.898 904.543 209.934C916.087 199.247 927.431 186.291 940.055 180.757C947.872 177.324 955.963 177.051 964.776 181.165C973.001 185.007 979.919 191.295 987.629 196.786C1014.17 215.875 1051.9 219.63 1079.33 197.418" stroke="white" stroke-opacity="0.8" stroke-width="0.737047" stroke-miterlimit="10"/>
<path d="M-143.625 506.394C-99.0575 443.964 -45.018 388.208 15.8946 352.408C41.279 337.332 67.2254 329.734 93.4767 319.529C124.015 307.657 155.404 304.102 187.086 303.118C208.755 302.434 230.581 303.021 252.408 303.185C295.469 303.516 338.69 301.947 379.871 299.189C403.949 297.578 427.279 295.279 449.722 292.441C465.76 290.416 482.054 287.975 498.497 285.975C521.831 283.138 545.593 281.562 570.554 279.835C579.383 279.226 588.317 278.562 597.3 278.154C635.104 276.634 675.028 292.568 710.605 298.617C719.98 300.211 729.05 301.151 737.775 301C772.642 300.387 807.809 288.446 840.505 266.842C846.122 263.146 851.694 259.151 857.232 254.913C876.993 239.794 896.392 221.623 915.981 203.183C927.623 192.209 939.133 179.188 951.965 173.46C959.915 169.901 968.137 169.481 977.062 173.262C985.462 176.824 992.636 182.725 1000.55 187.967C1027.85 206.044 1065.83 210.072 1093.89 188.177" stroke="white" stroke-opacity="0.8" stroke-width="0.737047" stroke-miterlimit="10"/>
<path d="M-141.08 504.656C-97.8135 441.485 -44.3898 385.203 16.1649 349.537C41.9986 334.159 68.395 326.876 95.0382 316.126C125.927 303.662 157.733 299.45 189.854 297.999C211.828 296.993 233.97 297.349 256.118 297.458C299.803 297.674 343.649 296.676 385.419 295.156C409.84 294.267 433.507 292.909 456.276 291.186C472.582 289.954 489.109 288.407 505.756 287.317C529.41 285.769 553.452 285.532 578.798 284.609C587.75 284.282 596.811 283.835 605.932 283.57C644.367 282.656 684.948 297.178 721.096 301.524C730.6 302.668 739.796 303.143 748.65 302.541C783.906 300.16 819.204 286.426 851.858 263.201C857.465 259.229 863.026 254.955 868.558 250.453C888.288 234.383 907.676 215.365 927.421 196.447C939.161 185.184 950.84 172.103 963.877 166.175C971.958 162.492 980.316 161.92 989.35 165.375C997.928 168.655 1005.35 174.19 1013.48 179.169C1041.5 196.314 1079.77 200.536 1108.45 178.958" stroke="white" stroke-opacity="0.8" stroke-width="0.737047" stroke-miterlimit="10"/>
<path d="M-138.554 502.91C-96.5925 439.002 -43.7844 382.186 16.4179 346.653C42.698 330.97 69.5443 324.006 96.5821 312.708C127.822 299.652 160.045 294.786 192.604 292.865C214.881 291.539 237.342 291.662 259.808 291.711C304.119 291.812 348.588 291.382 390.949 291.103C415.716 290.942 439.714 290.52 462.814 289.911C479.39 289.473 496.148 288.82 513.002 288.64C536.978 288.381 561.299 289.485 587.026 289.366C596.099 289.326 605.292 289.091 614.545 288.965C653.609 288.657 694.848 301.77 731.566 304.405C741.199 305.099 750.521 305.108 759.501 304.061C795.148 299.914 830.572 284.384 863.188 259.532C868.788 255.281 874.338 250.735 879.862 245.965C899.562 228.94 918.936 209.08 938.841 189.682C950.678 178.131 962.524 164.987 975.769 158.864C983.983 155.059 992.477 154.331 1001.62 157.457C1010.37 160.449 1018.04 165.624 1026.39 170.335C1055.13 186.545 1093.68 190.967 1122.99 169.706" stroke="white" stroke-opacity="0.8" stroke-width="0.737047" stroke-miterlimit="10"/>
<path d="M-136.028 501.174C-95.3702 436.529 -43.1288 379.349 16.6692 343.784C43.4205 327.873 70.695 321.154 98.1248 309.307C129.718 295.663 162.355 290.136 195.353 287.744C217.936 286.095 240.715 285.988 263.5 285.982C308.433 285.968 353.526 286.108 396.477 287.072C421.588 287.634 445.921 288.16 469.349 288.659C486.193 289.018 503.184 289.26 520.243 289.982C544.541 291.012 569.136 293.456 595.251 294.142C604.445 294.384 613.77 294.366 623.159 294.383C662.854 294.681 704.748 306.389 742.039 307.313C751.8 307.557 761.248 307.1 770.357 305.606C806.394 299.697 841.946 282.367 874.52 255.893C880.112 251.366 885.653 246.545 891.167 241.507C910.836 223.531 930.2 202.824 950.26 182.951C962.196 171.111 974.21 157.903 987.661 151.585C996.008 147.656 1004.64 146.772 1013.89 149.572C1022.82 152.277 1030.73 157.091 1039.3 161.533C1068.76 176.808 1107.6 181.427 1137.52 160.484" stroke="white" stroke-opacity="0.8" stroke-width="0.737047" stroke-miterlimit="10"/>
<path d="M-133.489 499.44C-94.1358 434.054 -42.5101 376.348 16.9355 340.917C44.136 324.704 71.8576 318.305 99.6821 305.908C131.628 291.677 164.68 285.489 198.116 282.629C221.005 280.661 244.1 280.32 267.206 280.254C312.765 280.129 358.482 280.833 402.023 283.039C427.48 284.328 452.148 285.799 475.901 287.405C493.016 288.565 510.237 289.694 527.503 291.327C552.123 293.651 576.996 297.427 603.496 298.922C612.813 299.446 622.265 299.641 631.788 299.804C672.112 300.708 714.664 311.012 752.527 310.224C762.42 310.018 771.992 309.095 781.229 307.155C817.659 299.492 853.336 280.353 885.871 252.252C891.453 247.45 896.983 242.353 902.49 237.047C922.129 218.12 941.481 196.562 961.698 176.214C973.731 164.09 985.912 150.818 999.571 144.3C1008.05 140.246 1016.81 139.203 1026.17 141.681C1035.28 144.095 1043.44 148.555 1052.22 152.73C1082.41 167.072 1121.53 171.885 1152.07 151.263" stroke="white" stroke-opacity="0.8" stroke-width="0.737047" stroke-miterlimit="10"/>
<path d="M-130.951 497.7C-92.8988 431.576 -41.8917 373.337 17.1988 338.044C44.8486 321.53 73.02 315.45 101.236 302.5C133.536 287.68 167.002 280.831 200.877 277.504C224.071 275.212 247.483 274.641 270.907 274.52C317.088 274.28 363.431 275.556 407.563 278.999C433.364 281.013 458.365 283.432 482.447 286.146C499.831 288.104 517.284 290.127 534.757 292.666C559.697 296.288 584.85 301.394 611.732 303.697C621.17 304.504 630.753 304.916 640.409 305.222C681.365 306.732 724.571 315.638 763.008 313.131C773.029 312.478 782.727 311.09 792.093 308.695C828.914 299.281 864.721 278.329 897.214 248.602C902.788 243.52 908.309 238.148 913.804 232.578C933.414 212.699 952.752 190.294 973.128 169.466C985.259 157.054 997.606 143.718 1011.47 137.006C1020.09 132.826 1028.99 131.62 1038.45 133.78C1047.74 135.902 1056.14 140.005 1065.14 143.912C1096.05 157.322 1135.46 162.332 1166.62 142.023" stroke="white" stroke-opacity="0.8" stroke-width="0.737047" stroke-miterlimit="10"/>
<path d="M-128.41 495.954C-91.6623 429.094 -41.3203 370.158 17.4672 335.166C45.5443 318.268 74.1876 312.589 102.796 299.09C135.449 283.682 169.326 276.171 203.643 272.377C227.139 269.766 250.87 268.965 274.615 268.78C321.423 268.425 368.388 270.272 413.109 274.959C439.255 277.699 464.589 281.068 489.002 284.886C506.654 287.649 524.339 290.56 542.016 294.001C567.278 298.917 592.709 305.356 619.975 308.468C629.535 309.558 639.25 310.186 649.041 310.635C690.626 312.752 734.489 320.26 773.499 316.028C783.649 314.925 793.475 313.075 802.965 310.23C840.178 299.069 876.111 276.3 908.564 244.95C914.129 239.592 919.642 233.944 925.13 228.106C944.709 207.276 964.036 184.024 984.569 162.721C996.798 150.02 1009.31 136.62 1023.38 129.713C1032.13 125.413 1041.17 124.039 1050.74 125.884C1060.21 127.711 1068.84 131.488 1078.07 135.1C1109.68 147.667 1149.39 152.78 1181.18 132.793" stroke="white" stroke-opacity="0.8" stroke-width="0.737047" stroke-miterlimit="10"/>
<path d="M-125.88 494.22C-90.4359 426.618 -40.7094 367.153 17.723 332.295C46.2465 315.095 75.3396 309.736 104.343 295.683C137.349 279.691 171.641 271.519 206.396 267.249C230.197 264.315 254.247 263.284 278.311 263.044C325.741 262.574 373.333 264.988 418.644 270.917C445.134 274.382 470.802 278.703 495.543 283.626C513.464 287.191 531.378 290.996 549.265 295.341C574.847 301.555 600.558 309.323 628.206 313.245C637.886 314.617 647.731 315.462 657.657 316.054C699.873 318.777 744.395 324.895 783.972 318.935C794.253 317.385 804.203 315.073 813.821 311.773C851.431 298.869 887.485 274.279 919.899 241.302C925.456 235.665 930.956 229.745 936.437 223.642C955.986 201.861 975.299 177.761 995.991 155.979C1008.32 142.99 1021 129.53 1035.28 122.423C1044.15 117.998 1053.33 116.457 1063.01 117.988C1072.65 119.516 1081.53 122.947 1090.97 126.29C1123.31 137.925 1163.31 143.232 1195.72 123.562" stroke="white" stroke-opacity="0.8" stroke-width="0.737047" stroke-miterlimit="10"/>
<path d="M-123.359 492.478C-89.2194 424.139 -40.1089 364.144 17.9685 329.42C46.9413 311.915 76.4844 306.883 105.879 292.277C139.239 275.7 173.945 266.863 209.139 262.126C233.246 258.872 257.612 257.607 281.994 257.307C330.049 256.722 378.265 259.709 424.164 266.877C451 271.069 476.996 276.343 502.069 282.366C520.258 286.737 538.404 291.43 556.496 296.682C582.4 304.198 608.389 313.288 636.422 318.018C646.225 319.674 656.2 320.735 666.261 321.47C709.108 324.8 754.287 329.527 794.434 321.839C804.845 319.847 814.923 317.068 824.667 313.314C862.672 298.673 898.849 272.255 931.222 237.654C936.771 231.741 942.261 225.545 947.732 219.175C967.25 196.441 986.552 171.491 1007.4 149.237C1019.82 135.959 1032.67 122.436 1047.16 115.133C1056.17 110.583 1065.47 108.871 1075.27 110.092C1085.09 111.316 1094.21 114.401 1103.87 117.477C1136.93 128.182 1177.21 133.682 1210.24 114.327" stroke="white" stroke-opacity="0.8" stroke-width="0.737047" stroke-miterlimit="10"/>
<path d="M-120.813 490.742C-87.9774 421.666 -39.4825 361.141 18.2426 326.552C47.6645 308.745 77.6602 304.036 107.447 288.873C141.16 271.712 176.28 262.208 211.913 257.004C236.325 253.427 261.007 251.931 285.71 251.576C334.389 250.876 383.23 254.43 429.72 262.845C456.899 267.762 483.23 273.993 508.631 281.116C527.086 286.293 545.467 291.878 563.767 298.029C589.989 306.843 616.259 317.259 644.674 322.803C654.598 324.741 664.704 326.019 674.898 326.897C718.374 330.834 764.213 334.171 804.93 324.75C815.472 322.31 825.674 319.07 835.547 314.861C873.951 298.484 910.249 270.236 942.58 234.008C948.12 227.815 953.602 221.343 959.062 214.709C978.551 191.02 997.842 165.226 1018.84 142.492C1031.37 128.926 1044.38 115.339 1059.07 107.837C1068.22 103.162 1077.66 101.278 1087.56 102.189C1097.56 103.11 1106.93 105.853 1116.8 108.656C1150.59 118.429 1191.15 124.122 1224.81 105.088" stroke="white" stroke-opacity="0.8" stroke-width="0.737047" stroke-miterlimit="10"/>
<path d="M-118.274 489C-86.74 419.183 -38.8608 358.128 18.5065 323.677C48.3776 305.564 78.8232 301.183 109.002 285.466C143.07 267.721 178.603 257.552 214.674 251.88C239.392 247.983 264.39 246.254 289.411 245.839C338.716 245.024 388.18 249.15 435.258 258.804C462.783 264.449 489.443 271.634 515.175 279.857C533.898 285.84 552.509 292.316 571.018 299.371C597.56 309.488 624.111 321.226 652.91 327.584C662.958 329.8 673.191 331.299 683.522 332.32C727.63 336.863 774.13 338.813 815.414 327.659C826.085 324.777 836.415 321.07 846.411 316.403C885.216 298.289 921.631 268.212 953.923 230.36C959.455 223.891 964.924 217.144 970.38 210.241C989.841 185.6 1009.12 158.958 1030.28 135.746C1042.89 121.891 1056.08 108.244 1070.98 100.543C1080.26 95.7429 1089.84 93.6836 1099.84 94.2911C1110.02 94.9056 1119.63 97.3066 1129.72 99.8453C1164.23 108.685 1205.08 114.572 1239.36 95.8555" stroke="white" stroke-opacity="0.8" stroke-width="0.737047" stroke-miterlimit="10"/>
<path d="M-115.744 487.26C-85.5133 416.706 -38.2499 355.121 18.7651 320.801C49.0854 302.386 79.9809 298.333 110.552 282.054C144.973 263.728 180.92 252.889 217.43 246.746C242.45 242.526 267.77 240.566 293.11 240.096C343.037 239.166 393.128 243.863 440.796 254.757C468.665 261.127 495.656 269.272 521.722 278.593C540.711 285.382 559.554 292.75 578.27 300.708C605.129 312.128 631.966 325.188 661.147 332.359C671.315 334.859 681.68 336.574 692.144 337.739C736.88 342.888 784.043 343.455 825.895 330.564C836.697 327.235 847.156 323.066 857.275 317.944C896.482 298.101 933.013 266.186 965.266 226.706C970.791 219.958 976.25 212.938 981.695 205.768C1001.13 180.174 1020.39 152.685 1041.71 128.996C1054.42 114.853 1067.78 101.142 1082.88 93.2463C1092.29 88.325 1102.01 86.0866 1112.12 86.3873C1122.48 86.6947 1132.34 88.7574 1142.64 91.0239C1177.88 98.9308 1219.01 105.01 1253.9 86.616" stroke="white" stroke-opacity="0.8" stroke-width="0.737047" stroke-miterlimit="10"/>
<path d="M-113.221 485.525C-84.2948 414.233 -37.6469 352.114 19.0129 317.932C49.7797 299.211 81.1278 295.485 112.09 278.652C146.868 259.745 183.224 248.237 220.175 241.625C245.5 237.085 271.136 234.895 296.797 234.361C347.35 233.316 398.061 238.582 446.32 250.724C474.535 257.822 501.855 266.925 528.252 277.343C547.506 284.942 566.584 293.198 585.508 302.056C612.686 314.779 639.803 329.159 669.366 337.147C679.658 339.926 690.152 341.858 700.751 343.166C746.119 348.922 793.942 348.109 836.358 333.477C847.292 329.705 857.877 325.073 868.122 319.493C907.732 297.92 944.378 264.167 976.589 223.058C982.103 216.033 987.555 208.738 992.99 201.299C1012.39 174.753 1031.64 146.416 1053.12 122.247C1065.93 107.815 1079.45 94.0402 1094.76 85.9487C1104.3 80.9023 1114.15 78.4846 1124.38 78.4823C1134.91 78.4787 1145.02 80.2031 1155.54 82.2051C1191.49 89.1788 1232.91 95.4556 1268.43 77.3752" stroke="white" stroke-opacity="0.8" stroke-width="0.737047" stroke-miterlimit="10"/>
<path d="M-110.659 483.786C-83.0371 411.75 -37.0053 349.102 19.3021 315.053C50.5179 296.03 82.3404 292.716 113.67 275.241C148.828 255.844 185.571 243.577 222.961 236.493C248.591 231.63 274.543 229.209 300.523 228.62C351.698 227.459 403.035 233.297 451.884 246.68C480.442 254.502 508.091 264.567 534.822 276.083C554.342 284.493 573.652 293.638 592.783 303.399C620.277 317.426 647.692 333.044 677.625 341.932C688.043 344.967 698.661 347.143 709.395 348.594C755.392 354.957 803.88 352.76 846.861 336.386C857.926 332.171 868.637 327.073 879.008 321.037C919.023 297.734 955.784 262.141 987.953 219.406C993.46 212.105 998.899 204.53 1004.33 196.826C1023.7 169.327 1042.94 140.137 1064.57 115.491C1077.48 100.771 1091.17 86.9349 1106.69 78.6437C1116.36 73.472 1126.35 70.8752 1136.68 70.5698C1147.39 70.2551 1157.74 71.6412 1168.48 73.3749C1205.16 79.4153 1246.86 85.8856 1283 68.1227" stroke="white" stroke-opacity="0.8" stroke-width="0.737047" stroke-miterlimit="10"/>
<path d="M-108.134 482.044C-81.8135 409.268 -36.4002 346.089 19.5521 312.173C51.217 292.843 83.4891 289.85 115.211 271.823C150.722 251.838 187.879 238.907 225.707 231.356C251.643 226.172 277.911 223.517 304.211 222.868C356.012 221.593 407.972 227.999 457.409 242.626C486.314 251.178 514.288 262.201 541.353 274.815C561.138 284.036 580.666 294.119 600.021 304.735C627.813 320.135 655.533 337.014 685.845 346.709C696.384 350.027 707.134 352.42 718.003 354.014C764.631 360.985 813.782 357.408 857.327 339.291C868.524 334.632 879.364 329.071 889.855 322.573C930.276 297.543 967.149 260.107 999.279 215.741C1004.78 208.16 1010.21 200.312 1015.63 192.34C1034.97 163.887 1054.19 133.848 1075.98 108.726C1088.99 93.7161 1102.85 79.8163 1118.58 71.3294C1128.38 66.0324 1138.5 63.2562 1148.94 62.6516C1159.83 62.0218 1170.43 63.0773 1181.38 64.5387C1218.79 69.6457 1260.77 76.3133 1297.53 58.868" stroke="white" stroke-opacity="0.8" stroke-width="0.737047" stroke-miterlimit="10"/>
<path d="M-105.602 480.306C-80.5853 406.791 -35.7878 343.075 19.8092 309.293C51.9233 289.661 84.6453 286.987 116.759 268.41C152.623 247.831 190.194 234.242 228.461 226.218C254.7 220.711 281.289 217.826 307.908 217.121C360.334 215.73 412.917 222.709 462.945 238.577C492.192 247.854 520.496 259.843 547.897 273.551C567.945 283.583 587.708 294.551 607.273 306.071C635.384 322.772 663.384 340.983 694.081 351.488C704.743 355.089 715.623 357.699 726.624 359.436C773.88 367.015 823.7 362.06 867.807 342.197C879.135 337.095 890.104 331.071 900.718 324.114C941.549 297.356 978.53 258.077 1010.62 212.084C1016.11 204.227 1021.53 196.103 1026.94 187.862C1046.25 158.456 1065.47 127.568 1087.41 101.965C1100.52 86.666 1114.54 72.7019 1130.47 64.0192C1140.41 58.597 1150.66 55.6377 1161.22 54.7337C1172.28 53.785 1183.12 54.5097 1194.29 55.7065C1232.42 59.8797 1274.69 66.741 1312.07 49.6134" stroke="white" stroke-opacity="0.8" stroke-width="0.737047" stroke-miterlimit="10"/>
<path d="M-103.055 478.571C-79.3426 404.312 -35.1609 340.068 20.0838 306.42C52.6469 286.481 85.8188 284.131 118.324 265C154.542 243.831 192.527 229.579 231.232 221.087C257.776 215.256 284.682 212.14 311.618 211.375C364.667 209.869 417.876 217.421 468.491 234.534C498.085 244.54 526.714 257.487 554.449 272.294C574.763 283.137 594.758 294.986 614.53 307.418C642.957 325.416 671.244 344.963 702.319 356.274C713.103 360.158 724.114 362.986 735.25 364.866C783.138 373.052 833.623 366.717 878.289 345.111C889.751 339.565 900.846 333.079 911.584 325.662C952.824 297.181 989.913 256.053 1021.96 208.43C1027.45 200.293 1032.85 191.896 1038.26 183.387C1057.54 153.023 1076.74 121.29 1098.84 95.2064C1112.05 79.6181 1126.24 65.5937 1142.38 56.7114C1152.45 51.1678 1162.83 48.0173 1173.49 46.8179C1184.74 45.554 1195.82 45.9479 1207.21 46.8723C1246.07 50.1116 1288.62 57.1666 1326.62 40.3607" stroke="white" stroke-opacity="0.8" stroke-width="0.737047" stroke-miterlimit="10"/>
<path d="M-100.529 476.831C-78.1201 401.833 -34.5541 337.054 20.3355 303.543C53.3477 283.301 86.9692 281.272 119.866 261.59C156.437 239.831 194.837 224.916 233.983 215.956C260.832 209.805 288.054 206.454 315.312 205.63C368.986 204.013 422.818 212.129 474.024 230.487C503.961 241.219 532.899 255.195 560.987 271.03C581.55 282.731 601.794 295.419 621.776 308.759C650.523 328.054 679.089 348.94 710.55 361.059C721.457 365.226 732.594 368.271 743.865 370.294C792.382 379.088 843.566 371.488 888.763 348.018C900.365 342.06 911.58 335.079 922.441 327.203C964.094 296.995 1001.29 254.023 1033.3 204.773C1038.77 196.36 1044.17 187.683 1049.57 178.909C1068.82 147.591 1088.01 115.008 1110.27 88.4485C1123.57 72.5749 1137.93 58.4824 1154.27 49.4043C1164.48 43.7354 1174.99 40.4018 1185.77 38.9029C1197.18 37.3161 1208.52 37.383 1220.12 38.0387C1259.7 40.3439 1302.54 47.5963 1341.16 31.1046" stroke="white" stroke-opacity="0.8" stroke-width="0.737047" stroke-miterlimit="10"/>
<path d="M-98.0005 475.087C-76.8931 399.349 -33.9428 334.039 20.5916 300.662C54.0501 280.114 88.1242 278.405 121.413 258.172C158.337 235.824 197.151 220.25 236.736 210.817C263.89 204.342 291.428 200.761 319.007 199.881C373.303 198.149 427.762 206.838 479.558 226.437C509.838 237.898 539.105 252.821 567.527 269.767C588.355 282.271 608.832 295.852 629.021 310.097C658.083 330.689 686.936 352.911 718.778 365.841C729.806 370.295 741.075 373.553 752.479 375.72C801.627 385.121 853.473 376.12 899.235 350.927C910.969 344.517 922.323 337.108 933.294 328.746C975.405 296.929 1012.66 251.993 1044.63 201.112C1050.09 192.418 1055.48 183.469 1060.87 174.43C1080.09 142.159 1099.27 108.723 1121.68 81.6863C1135.08 65.5236 1149.61 51.367 1166.16 42.0931C1176.5 36.2989 1187.14 32.7781 1198.03 30.9875C1209.62 29.0815 1221.21 28.8214 1233.03 29.2085C1273.33 30.5795 1316.45 38.0254 1355.7 21.8518" stroke="white" stroke-opacity="0.8" stroke-width="0.737047" stroke-miterlimit="10"/>
<path d="M-95.4491 473.351C-75.6457 396.87 -33.3112 331.032 20.8681 297.79C54.7757 276.939 89.2997 275.55 122.983 254.766C160.26 231.825 199.485 215.592 239.511 205.69C266.968 198.895 294.828 195.083 322.722 194.14C377.644 192.292 432.726 201.554 485.109 222.399C515.736 234.585 545.331 250.46 574.084 268.516C595.178 281.82 615.889 296.294 636.286 311.452C665.668 333.341 694.801 356.9 727.024 370.64C738.175 375.378 749.574 378.853 761.113 381.163C810.889 391.172 863.402 380.766 909.728 353.852C921.593 346.995 933.076 339.119 944.17 330.301C986.683 296.722 1024.06 249.979 1055.98 197.467C1061.44 188.497 1066.82 179.272 1072.2 169.964C1091.39 136.739 1110.55 102.453 1133.13 74.9363C1146.62 58.4845 1161.32 44.2677 1178.08 34.7942C1188.55 28.8747 1199.32 25.1666 1210.32 23.0804C1222.08 20.8513 1233.92 20.264 1245.96 20.3825C1286.98 20.8228 1330.39 28.4585 1370.25 12.6069" stroke="white" stroke-opacity="0.8" stroke-width="0.737047" stroke-miterlimit="10"/>
<path d="M-92.9043 471.612C-74.4048 394.391 -32.6859 328.018 21.1411 294.91C55.4978 273.753 90.4713 272.688 124.546 251.353C162.177 227.822 201.816 210.926 242.281 200.552C270.043 193.433 298.219 189.39 326.434 188.391C381.978 186.428 437.683 196.259 490.66 218.35C521.63 231.266 551.557 248.087 580.643 267.254C602.003 281.362 622.946 296.729 643.552 312.796C673.251 335.982 702.67 360.881 735.275 375.429C746.547 380.45 758.076 384.138 769.749 386.596C820.157 397.212 873.332 385.402 920.223 356.763C932.219 349.455 943.829 341.112 955.048 331.846C997.965 296.503 1035.45 247.951 1067.34 193.808C1072.79 184.561 1078.16 175.059 1083.53 165.483C1102.68 131.303 1121.84 96.1689 1144.57 68.175C1158.16 51.434 1173.03 37.1531 1189.99 27.4838C1200.59 21.439 1211.49 17.5128 1222.62 15.1619C1234.55 12.5786 1246.64 11.699 1258.89 11.5448C1300.64 11.0505 1344.33 18.8799 1384.82 3.34667" stroke="white" stroke-opacity="0.8" stroke-width="0.737047" stroke-miterlimit="10"/>
<path d="M-90.3839 469.876C-73.1883 391.916 -32.0851 325.012 21.3867 292.038C56.1925 270.578 91.6131 269.834 126.083 247.944C164.066 223.824 204.12 206.264 245.023 195.422C328.339 173.335 415.404 179.119 496.181 214.308C550.516 237.979 601.653 274.076 650.784 314.149C680.801 338.633 710.501 364.868 743.488 380.227C804.132 408.462 872.244 397.068 930.679 359.687C989.114 322.306 1038.47 260.54 1078.66 190.16C1115.13 126.295 1147.94 51.1649 1201.87 20.1814C1263.54 -15.2518 1334.95 17.9329 1399.33 -5.89816" stroke="white" stroke-opacity="0.8" stroke-width="0.737047" stroke-miterlimit="10"/>
<path d="M-171.203 -70.1937C-168.486 24.0254 -141.471 117.164 -96.3129 187.996C-83.4649 208.148 -68.565 227.083 -50.3326 235.379C2.35004 259.346 55.5609 199.695 97.9074 165.303C149.01 123.803 199.453 80.4457 252.938 44.9783C282.965 25.066 318.448 7.73492 348.907 28.0313C379.751 48.5865 393.007 98.9726 407.018 142.744C423.344 193.75 445.062 242.625 475.664 278.542C506.266 314.459 546.679 336.224 585.651 328.483C616.171 322.42 643.351 299.289 668.014 273.756C732.815 206.663 786.78 119.212 824.962 19.4203" stroke="white" stroke-opacity="0.8" stroke-width="0.737047" stroke-miterlimit="10"/>
<path d="M-172.754 -66.0344C-170.354 17.2188 -146.647 97.7792 -107.275 166.051C-103.619 172.392 -99.8663 178.621 -95.9667 184.669C-83.147 204.534 -68.3769 223.222 -50.3947 231.597C1.61312 255.851 54.089 199.243 96.4183 166.028C133.946 136.579 171.147 105.589 209.805 77.3223C223.216 67.4783 236.757 57.9709 250.493 48.9609C280.288 29.4199 315.353 12.3225 345.556 31.6171C376.137 51.1558 389.695 99.5461 403.988 141.559C420.644 190.511 442.524 237.434 473.02 271.911C483.638 283.915 495.41 294.269 507.878 302.351C531.206 317.482 556.973 324.666 582.148 319.809C612.389 313.975 639.399 291.746 663.939 267.339C713.624 217.96 756.926 157.458 791.94 88.4049C802.39 67.8007 812.099 46.4399 821.012 24.3805" stroke="white" stroke-opacity="0.8" stroke-width="0.737047" stroke-miterlimit="10"/>
<path d="M-174.292 -61.8736C-171.974 18.5852 -147.319 94.567 -106.89 163.026C-103.22 169.238 -99.4912 175.385 -95.6081 181.339C-82.8141 200.914 -68.1764 219.357 -50.4415 227.816C0.894225 252.361 52.627 198.791 94.9417 166.748C132.113 138.6 169.008 108.408 207.667 80.7093C220.986 71.0909 234.431 61.7794 248.06 52.9398C277.625 33.7664 312.274 16.9065 342.217 35.1996C372.536 53.7257 386.396 100.12 400.967 140.37C417.953 187.27 439.999 232.241 470.386 265.275C480.968 276.775 492.67 286.695 505.043 294.429C528.189 308.916 553.71 315.797 578.653 311.13C608.614 305.521 635.451 284.196 659.872 260.92C709.334 213.837 752.455 156.578 787.69 90.6372C798.205 70.961 808.016 50.5193 817.069 29.3367" stroke="white" stroke-opacity="0.8" stroke-width="0.737047" stroke-miterlimit="10"/>
<path d="M-175.856 -57.6973C-173.616 19.9672 -148.03 91.3719 -106.531 160.016C-102.849 166.107 -99.1439 172.168 -95.2773 178.024C-82.5116 197.313 -68.0013 215.504 -50.5192 224.046C0.141651 248.877 51.1262 198.346 93.437 167.482C130.244 140.632 166.885 111.369 205.498 84.1063C218.742 74.7537 232.075 65.598 245.599 56.9286C274.932 38.1268 309.166 21.5007 338.847 38.7926C368.904 56.3063 383.065 100.702 397.918 139.193C415.235 184.04 437.442 227.059 467.721 258.654C478.27 269.651 489.898 279.136 502.178 286.526C525.143 300.371 550.414 306.948 575.129 302.466C604.811 297.082 631.476 276.663 655.777 254.516C705.019 209.726 747.956 155.713 783.412 92.8795C793.992 74.1312 803.902 54.6087 813.095 34.2991" stroke="white" stroke-opacity="0.8" stroke-width="0.737047" stroke-miterlimit="10"/>
<path d="M-177.443 -53.5502C-175.284 21.3201 -148.777 88.1569 -106.192 156.977C-102.498 162.943 -98.8146 168.921 -94.9646 174.68C-82.2246 193.679 -67.8467 211.625 -50.6146 220.249C-0.628837 245.366 49.6016 197.866 91.914 168.184C128.351 142.624 164.715 114.21 203.314 87.4752C216.471 78.3592 229.7 69.3888 243.12 60.8896C272.222 42.4557 306.037 26.0636 335.462 42.3581C365.256 58.8559 379.719 101.256 394.853 137.989C412.502 180.784 434.87 221.854 465.043 252.007C475.556 262.504 487.111 271.551 499.299 278.597C522.081 291.796 547.104 298.069 571.592 293.78C600.998 288.625 627.49 269.107 651.668 248.09C700.687 205.596 743.444 154.824 779.123 95.101C789.771 77.2802 799.78 58.6767 809.113 39.2437" stroke="white" stroke-opacity="0.8" stroke-width="0.737047" stroke-miterlimit="10"/>
<path d="M-178.949 -49.3898C-176.872 22.6865 -149.453 84.9607 -105.774 153.951C-102.072 159.796 -98.4073 165.684 -94.5764 171.349C-81.8647 190.061 -67.614 207.758 -50.6322 216.461C-1.32142 241.863 48.147 197.389 90.4691 168.893C126.53 144.613 162.617 117.054 201.204 90.8475C214.276 81.9681 227.403 73.1829 240.717 64.8542C269.587 46.792 302.986 30.6341 332.151 45.9277C361.683 61.4136 376.446 101.815 391.863 136.79C409.842 177.536 432.373 216.652 462.441 245.362C472.917 255.356 484.401 263.968 496.497 270.671C519.095 283.226 543.873 289.196 568.128 285.093C597.255 280.163 623.574 261.545 647.632 241.658C696.429 201.456 739.004 153.928 774.904 97.3114C785.617 80.4181 795.728 62.7334 805.201 44.1769" stroke="white" stroke-opacity="0.8" stroke-width="0.737047" stroke-miterlimit="10"/>
<path d="M-180.545 -45.231C-178.549 24.0514 -150.235 81.7764 -105.446 150.927C-101.737 156.652 -98.0913 162.453 -94.2743 168.02C-81.591 186.441 -67.4702 203.893 -50.7385 212.678C-2.10021 238.365 46.5953 196.913 88.9351 169.609C124.612 146.6 160.433 119.905 199.009 94.2304C211.994 85.5876 225.021 76.9876 238.227 68.8331C266.865 51.1391 299.846 35.2194 328.755 49.5123C358.024 63.9865 373.089 102.39 388.788 135.607C407.098 174.301 429.791 211.466 459.753 238.737C470.193 248.228 481.604 256.406 493.608 262.761C516.025 274.674 540.553 280.341 564.58 276.426C593.429 271.721 619.577 254.008 643.513 235.25C692.087 197.344 734.481 153.054 770.601 99.5472C781.382 83.5811 791.593 66.815 801.203 49.1349" stroke="white" stroke-opacity="0.8" stroke-width="0.737047" stroke-miterlimit="10"/>
<path d="M-182.088 -41.064C-180.171 25.4246 -150.974 78.6059 -105.063 147.908C-101.347 153.515 -97.7177 159.225 -93.9199 164.695C-81.2622 182.828 -67.2714 200.032 -50.79 208.895C-2.8267 234.868 45.0927 196.423 87.4533 170.319C122.741 148.575 158.295 122.746 196.865 97.6034C209.764 89.1936 222.69 80.7863 235.789 72.7987C264.196 55.4768 296.761 39.7916 325.41 53.0842C354.418 66.5433 369.784 102.956 385.762 134.412C404.401 171.055 427.258 206.269 457.111 232.098C467.515 241.09 478.856 248.83 490.766 254.842C513 266.112 537.28 271.471 561.08 267.746C589.649 263.27 615.625 246.457 639.443 228.828C687.794 193.212 730.007 152.164 766.351 101.762C777.197 86.7232 787.51 70.8754 797.26 54.0714" stroke="white" stroke-opacity="0.8" stroke-width="0.737047" stroke-miterlimit="10"/>
<path d="M-183.679 -36.9175C-181.842 26.7777 -151.775 75.4288 -104.729 144.868C-101.009 150.357 -97.3965 155.974 -93.6125 161.349C-80.9832 179.191 -67.1224 196.145 -50.8911 205.09C-3.60313 231.346 43.5296 195.906 85.9244 171.009C120.814 150.518 156.113 125.566 194.672 100.96C207.482 92.7871 220.309 84.5651 233.304 76.748C261.479 59.7947 293.626 44.3481 322.019 56.6369C350.764 69.085 366.432 103.501 382.691 133.199C401.662 167.791 424.683 201.055 454.428 225.446C464.796 233.935 476.063 241.241 487.882 246.909C509.933 257.533 533.965 262.593 557.537 259.053C585.828 254.801 611.631 238.893 635.329 222.388C683.457 189.066 725.488 151.255 762.053 103.961C772.967 89.8487 783.38 74.9228 793.269 58.9874" stroke="white" stroke-opacity="0.8" stroke-width="0.737047" stroke-miterlimit="10"/>
<path d="M-185.245 -32.7577C-183.49 28.1442 -152.563 72.2786 -104.371 141.841C-100.648 147.213 -97.0485 152.739 -93.2836 158.016C-80.68 175.57 -66.9491 192.274 -50.9707 201.3C-4.35539 227.838 41.9848 195.392 84.4166 171.708C118.903 152.459 153.949 128.388 192.503 104.322C205.226 96.3789 217.952 88.3499 230.84 80.7036C258.784 64.1226 290.515 48.911 318.648 60.2002C347.131 71.6376 363.101 104.056 379.642 131.997C398.945 164.539 422.126 195.853 451.766 218.803C462.098 226.789 473.294 233.661 485.02 238.985C506.89 248.967 530.674 253.72 554.013 250.373C582.025 246.35 607.658 231.342 631.233 215.966C679.138 184.933 720.988 150.361 757.774 106.17C768.753 92.984 779.267 78.9759 789.295 63.9164" stroke="white" stroke-opacity="0.8" stroke-width="0.737047" stroke-miterlimit="10"/>
<path d="M-186.812 -28.5882C-185.138 29.5207 -153.364 69.1486 -104.011 138.827C-100.286 144.085 -96.7009 149.517 -92.9499 154.7C-80.3747 171.962 -66.7736 188.42 -51.043 197.523C-5.10308 224.341 40.4363 194.88 82.9162 172.42C116.993 154.402 151.789 131.223 190.34 107.701C202.975 99.9907 215.602 92.151 228.383 84.6755C256.096 68.4635 287.408 53.491 315.285 63.7809C343.505 74.208 359.778 104.63 376.6 130.815C396.232 161.307 419.578 190.672 449.111 212.185C459.407 219.671 470.533 226.109 482.165 231.086C503.851 240.426 527.388 244.876 550.5 241.714C578.235 237.916 603.692 223.811 627.148 209.563C674.83 180.822 716.499 149.487 753.507 108.398C764.552 96.1388 775.168 83.0483 785.335 68.8644" stroke="white" stroke-opacity="0.8" stroke-width="0.737047" stroke-miterlimit="10"/>
<path d="M-188.359 -24.4253C-186.766 30.8908 -154.156 66.0299 -103.632 135.803C-99.9063 140.948 -96.3321 146.281 -92.6002 151.37C-80.0507 168.343 -66.5795 184.55 -51.1018 193.733C-5.83738 220.831 38.8952 194.339 81.4288 173.113C115.088 156.315 149.643 134.039 188.189 111.057C200.734 103.577 213.263 95.9299 225.937 88.6254C253.418 72.7863 284.314 58.0458 311.929 67.3407C339.887 76.7544 356.46 105.188 373.565 129.61C393.53 158.056 417.037 185.469 446.462 205.544C456.722 212.528 467.775 218.533 479.315 223.163C500.818 231.861 524.107 236.008 546.991 233.035C574.448 229.461 599.734 216.259 623.067 203.135C670.526 176.681 712.014 148.582 749.243 110.598C760.356 99.2641 771.071 87.0909 781.376 73.7823" stroke="white" stroke-opacity="0.8" stroke-width="0.737047" stroke-miterlimit="10"/>
<path d="M-189.912 -20.2857C-188.398 32.2378 -154.969 62.9063 -103.261 132.755C-99.5362 137.786 -95.9781 143.036 -92.2552 148.015C-79.7568 164.73 -66.3932 180.651 -51.1657 189.915C-6.57676 217.294 37.3433 193.758 79.9335 173.774C113.172 158.18 147.489 136.814 186.031 114.384C198.488 107.134 210.916 99.6837 223.488 92.5501C250.737 77.0805 281.215 62.5798 308.574 70.8764C336.269 79.2808 353.144 105.719 370.529 128.386C390.825 154.784 414.494 180.248 443.813 198.884C454.037 205.365 465.019 210.936 476.466 215.223C497.788 223.276 520.829 227.119 543.48 224.335C570.658 220.989 595.771 208.687 618.984 196.689C666.221 172.526 707.526 147.657 744.976 112.772C756.154 102.364 766.971 91.1074 777.416 78.6702" stroke="white" stroke-opacity="0.8" stroke-width="0.737047" stroke-miterlimit="10"/>
<path d="M-191.469 -16.1169C-190.036 33.6146 -155.797 59.8309 -102.89 129.737C-99.1668 134.658 -95.6202 139.804 -91.9138 144.689C-79.4437 161.114 -66.2074 176.784 -51.2303 186.127C-7.31439 213.782 35.7818 193.186 78.4401 174.465C111.249 160.064 145.336 139.619 183.873 117.738C196.238 110.717 208.571 103.46 221.035 96.4981C248.054 81.402 278.115 67.1377 305.215 74.4368C332.648 81.8325 349.825 106.276 367.491 127.188C388.117 151.539 411.95 175.056 441.163 192.256C451.354 198.239 462.26 203.372 473.618 207.316C494.758 214.727 517.551 218.268 539.974 215.672C566.873 212.551 591.814 201.152 614.906 190.28C661.919 168.401 703.043 146.764 740.717 114.98C751.963 105.497 762.879 95.1568 773.464 83.5942" stroke="white" stroke-opacity="0.8" stroke-width="0.737047" stroke-miterlimit="10"/>
<path d="M-191.591 -10.5058C-190.239 36.4341 -155.203 58.217 -101.087 128.16C-97.3641 132.971 -93.826 138.019 -90.1361 142.805C-77.6944 158.939 -64.5883 174.356 -49.8617 183.775C-6.62161 211.704 35.6477 194.035 78.3795 176.583C110.756 163.36 144.61 143.847 183.151 122.523C195.426 115.732 207.661 108.669 220.018 101.878C246.805 87.1518 276.448 73.1283 303.291 79.4303C330.462 85.8144 347.941 108.268 365.889 127.426C386.848 149.73 410.844 171.3 439.949 187.062C450.104 192.543 460.94 197.243 472.204 200.844C493.16 207.614 515.705 210.851 537.901 208.441C564.521 205.544 589.291 195.047 612.263 185.297C659.053 165.704 699.995 147.293 737.889 118.606C749.2 110.046 760.219 100.622 770.941 89.9338" stroke="white" stroke-opacity="0.8" stroke-width="0.737047" stroke-miterlimit="10"/>
<path d="M-194.59 -7.80102C-193.32 36.3477 -157.498 53.7205 -102.16 123.681C-98.4417 128.381 -94.9125 133.33 -91.2393 138.017C-78.8259 153.86 -65.8472 169.025 -51.371 178.521C-8.80682 206.722 32.6267 191.959 75.4407 175.798C107.379 163.741 141.009 145.167 179.55 124.4C191.737 117.836 203.872 110.97 216.123 104.35C242.678 89.9988 271.906 76.2127 298.489 81.5186C325.398 86.8956 343.179 107.361 361.409 124.762C382.697 145.021 406.858 164.645 435.855 178.972C445.974 183.951 456.736 188.218 467.909 191.473C488.684 197.602 510.982 200.533 532.945 198.312C559.285 195.642 583.882 186.043 606.734 177.417C653.301 160.107 694.062 144.922 732.176 119.331C743.555 111.699 754.673 103.191 765.535 93.3725" stroke="white" stroke-opacity="0.8" stroke-width="0.737047" stroke-miterlimit="10"/>
<path d="M-196.134 -3.63258C-194.942 37.7255 -158.351 50.7121 -101.776 120.661C-98.0611 125.254 -94.538 130.1 -90.8814 134.688C-78.494 150.236 -65.6335 165.109 -51.4224 174.72C-9.4934 203.074 31.0602 191.312 73.9596 176.455C105.456 165.545 138.863 147.926 177.404 127.724C189.499 121.386 201.539 114.717 213.683 108.27C240.007 94.2894 268.816 80.7452 295.143 85.0559C321.792 89.4266 339.873 107.9 358.382 123.55C380.003 141.765 404.324 159.445 433.216 172.334C443.299 176.816 453.991 180.646 465.07 183.558C485.662 189.044 507.711 191.676 529.446 189.642C555.511 187.197 579.935 178.499 602.664 170.997C649.008 155.97 689.586 144.003 727.924 121.504C739.368 114.795 750.587 107.2 761.589 98.252" stroke="white" stroke-opacity="0.8" stroke-width="0.737047" stroke-miterlimit="10"/>
<path d="M-197.736 0.503926C-196.625 39.072 -159.27 47.6968 -101.452 117.61C-97.7402 122.095 -94.2234 126.833 -90.5859 131.326C-78.2269 146.581 -65.4967 161.199 -51.5362 170.883C-10.2833 199.506 29.4278 190.607 72.4131 177.069C103.462 167.29 136.651 150.636 175.196 131C187.198 124.885 199.143 118.418 211.183 112.143C237.275 98.5376 265.668 85.2324 291.735 88.5454C318.122 91.9073 336.503 108.395 355.297 122.294C377.25 138.466 401.734 154.203 430.52 165.66C440.567 169.64 451.188 173.038 462.173 175.608C482.582 180.453 504.384 182.779 525.891 180.934C551.676 178.716 575.927 170.911 598.536 164.531C644.656 151.781 685.055 143.033 723.611 123.626C735.123 117.838 746.439 111.158 757.58 103.082" stroke="white" stroke-opacity="0.8" stroke-width="0.737047" stroke-miterlimit="10"/>
<path d="M-199.291 4.67235C-198.261 40.4551 -160.158 44.7401 -101.078 114.589C-97.3732 118.968 -93.8626 123.602 -90.2391 127.995C-77.9061 142.952 -65.306 157.318 -51.596 167.076C-11.0168 195.962 27.8428 189.899 70.923 177.708C101.522 169.045 134.495 153.367 173.041 134.305C184.952 128.413 196.801 122.152 208.733 116.045C234.594 102.812 262.568 89.7471 288.38 92.0709C314.504 94.4292 333.188 108.928 352.264 121.079C374.547 135.213 399.195 149.009 427.875 159.031C437.886 162.511 448.434 165.476 459.329 167.704C479.557 171.91 501.111 173.934 522.388 172.277C547.894 170.282 571.971 163.376 594.46 158.118C640.357 147.646 680.573 142.111 719.349 125.784C730.926 120.918 742.344 115.151 753.626 107.947" stroke="white" stroke-opacity="0.8" stroke-width="0.737047" stroke-miterlimit="10"/>
<path d="M-200.846 8.84018C-199.897 41.8379 -161.055 41.8212 -100.707 111.582C-97.0082 115.856 -93.5015 120.379 -89.8971 124.676C-77.5926 139.339 -65.1228 153.449 -51.6636 163.278C-11.7609 192.429 26.246 189.175 69.424 178.342C99.5713 170.779 132.327 156.083 170.879 137.598C182.698 131.93 194.452 125.87 206.277 119.939C231.907 107.082 259.465 94.257 285.017 95.59C310.879 96.9464 329.866 109.464 349.224 119.865C371.839 131.961 396.649 143.819 425.221 152.408C435.196 155.392 445.674 157.923 456.474 159.806C476.519 163.373 497.825 165.095 518.871 163.622C544.098 161.851 568.005 155.843 590.371 151.703C636.044 143.501 676.078 141.174 715.076 127.93C726.718 123.983 738.238 119.127 749.66 112.794" stroke="white" stroke-opacity="0.8" stroke-width="0.737047" stroke-miterlimit="10"/>
<path d="M-202.387 12.99C-201.516 43.2244 -161.953 38.9358 -100.322 108.62C-96.6291 112.794 -93.1261 117.211 -89.5383 121.411C-77.2598 135.785 -64.9202 149.651 -51.7144 159.561C-12.4859 188.992 24.6609 188.517 67.9392 179.065C97.6311 172.582 130.172 158.873 168.729 140.96C180.455 135.511 192.111 129.65 203.831 123.888C229.228 111.397 256.369 98.8081 281.659 99.1529C307.258 99.5065 326.548 110.053 346.188 118.716C369.136 128.785 394.11 138.714 422.573 145.882C432.512 148.368 442.916 150.47 453.626 152.013C473.486 154.942 494.544 156.364 515.362 155.081C540.309 153.536 564.042 148.418 586.286 145.391C631.735 139.456 671.584 140.328 710.802 130.156C722.511 127.124 734.129 123.176 745.688 117.709" stroke="white" stroke-opacity="0.8" stroke-width="0.737047" stroke-miterlimit="10"/>
<path d="M-203.898 17.1451C-203.107 44.6191 -162.831 36.0846 -99.9034 105.671C-96.2195 109.747 -92.7204 114.056 -89.1492 118.16C-76.8968 132.244 -64.7044 145.901 -51.7323 155.853C-13.222 185.67 23.1077 187.84 66.487 179.791C95.7227 174.368 128.046 161.661 166.608 144.318C178.242 139.085 189.802 133.425 201.414 127.833C226.579 115.71 253.3 103.354 278.333 102.712C303.67 102.067 323.262 110.64 343.181 117.568C366.459 125.61 391.597 133.613 419.955 139.356C429.858 141.346 440.191 143.019 450.806 144.223C470.486 146.517 491.293 147.64 511.882 146.54C536.552 145.217 560.111 140.992 582.234 139.079C627.457 135.406 667.123 139.477 706.559 132.371C718.333 130.255 730.053 127.217 741.751 122.608" stroke="white" stroke-opacity="0.8" stroke-width="0.737047" stroke-miterlimit="10"/>
<path d="M-205.441 21.3092C-204.729 46.0255 -163.752 33.2748 -99.5187 102.738C-95.841 106.714 -92.3457 110.914 -88.7911 114.924C-76.5646 128.721 -64.5025 142.134 -51.7839 152.166C-13.9504 182.264 21.5197 187.157 64.9982 180.534C93.777 176.152 125.883 164.457 164.453 147.695C175.994 142.678 187.458 137.219 198.966 131.795C223.898 120.037 250.203 107.917 274.976 106.288C300.05 104.646 319.944 111.248 340.146 116.441C363.756 122.459 389.056 128.538 417.308 132.862C427.177 134.359 437.435 135.603 447.959 136.464C467.455 138.125 488.015 138.948 508.371 138.032C532.761 136.931 556.146 133.598 578.148 132.799C623.146 131.389 662.628 138.653 702.285 134.613C714.126 133.412 725.944 131.28 737.779 127.535" stroke="white" stroke-opacity="0.8" stroke-width="0.737047" stroke-miterlimit="10"/>
<path d="M-206.986 25.4535C-206.354 47.4146 -164.685 30.481 -99.1371 99.7961C-95.4681 103.675 -91.9739 107.767 -88.4386 111.68C-76.2381 125.189 -64.3088 138.359 -51.8385 148.467C-14.6822 178.843 19.9301 186.431 63.5089 181.267C91.8329 177.91 123.719 167.24 162.297 151.054C173.746 146.253 185.114 140.999 196.514 135.74C221.214 124.349 247.099 112.462 271.615 109.847C296.426 107.205 316.621 111.844 337.107 115.301C361.05 119.297 386.511 123.452 414.655 126.355C424.488 127.356 434.675 128.172 445.104 128.691C464.419 129.718 484.729 130.239 504.857 129.513C528.967 128.637 552.177 126.193 574.058 126.506C618.83 127.354 658.128 137.813 698.003 136.833C709.909 136.545 721.829 135.318 733.803 132.437" stroke="white" stroke-opacity="0.8" stroke-width="0.737047" stroke-miterlimit="10"/>
<path d="M-208.528 29.6192C-207.977 48.8278 -165.63 27.7406 -98.7496 96.8784C-95.0891 100.664 -91.5914 104.633 -88.0775 108.461C-75.8856 121.652 -64.104 134.61 -51.8873 144.795C-15.4056 175.448 18.345 185.7 62.0249 182.018C89.8934 179.672 121.56 170.03 160.144 154.434C171.497 149.845 182.773 144.795 194.065 139.705C218.532 128.677 244 117.026 268.256 113.426C292.805 109.788 313.302 112.459 334.071 114.184C358.344 116.163 383.969 118.393 412.007 119.879C421.804 120.385 431.92 120.773 442.256 120.954C461.387 121.345 481.448 121.57 501.347 121.027C525.177 120.373 548.216 118.819 569.973 120.241C614.52 123.348 653.633 136.995 693.727 139.077C705.699 139.702 717.718 139.38 729.832 137.362" stroke="white" stroke-opacity="0.8" stroke-width="0.737047" stroke-miterlimit="10"/>
<path d="M-210.062 33.7868C-209.588 50.245 -166.576 25.037 -98.3562 93.9694C-94.7045 97.658 -91.2108 101.515 -87.7133 105.255C-75.55 118.158 -63.8986 130.871 -51.9327 141.14C-16.1282 172.072 16.77 184.951 60.5443 182.788C87.962 181.432 119.405 172.837 157.997 157.827C169.257 153.449 180.437 148.604 191.622 143.685C215.856 133.024 240.904 121.601 264.903 117.02C289.189 112.387 309.99 113.092 331.04 113.087C355.646 113.047 381.433 113.356 409.365 113.427C419.126 113.441 429.168 113.399 439.413 113.241C458.36 112.999 478.176 112.923 497.844 112.569C521.394 112.137 544.258 111.473 565.894 114.006C610.215 119.368 649.144 136.205 689.458 141.342C701.496 142.88 713.615 143.461 725.865 142.302" stroke="white" stroke-opacity="0.8" stroke-width="0.737047" stroke-miterlimit="10"/>
<path d="M-211.58 37.9504C-211.185 51.6607 -167.516 22.3644 -97.9466 91.0623C-94.3035 94.6581 -90.811 98.4036 -87.3301 102.047C-75.1927 114.668 -63.6717 127.135 -51.9567 137.48C-16.8295 168.691 15.2204 184.167 59.0847 183.548C86.0562 183.167 117.27 175.624 155.868 161.21C167.035 157.04 178.119 152.402 189.199 147.651C213.201 137.354 237.831 126.165 261.571 120.597C285.594 114.97 306.697 113.709 328.027 111.976C352.963 109.918 378.915 108.309 406.741 106.961C416.466 106.481 426.438 106.011 436.588 105.516C455.355 104.642 474.919 104.267 494.355 104.097C517.625 103.889 540.318 104.111 561.83 107.754C605.925 115.373 644.67 135.398 685.202 143.589C697.304 146.038 709.525 147.522 721.914 147.225" stroke="white" stroke-opacity="0.8" stroke-width="0.737047" stroke-miterlimit="10"/>
<path d="M-213.061 42.1101C-212.746 53.0745 -168.432 19.726 -97.4969 88.1567C-93.865 91.6598 -90.3711 95.2937 -86.9095 98.8409C-74.8007 111.175 -63.4098 123.401 -51.9457 133.827C-17.4956 165.32 13.7125 183.354 57.6574 184.311C84.1874 184.89 115.164 178.41 153.773 164.592C164.845 160.629 175.836 156.199 186.808 151.616C210.577 141.684 234.788 130.726 258.271 124.176C282.031 117.551 303.438 114.334 325.049 110.869C350.318 106.795 376.434 103.269 404.152 100.508C413.841 99.5324 423.739 98.6364 433.801 97.8031C452.384 96.2983 471.7 95.6254 490.908 95.6405C513.9 95.6545 536.416 96.7655 557.806 101.514C601.676 111.384 640.235 134.595 680.986 145.841C693.155 149.201 705.474 151.588 718.003 152.151" stroke="white" stroke-opacity="0.8" stroke-width="0.737047" stroke-miterlimit="10"/>
<path d="M-214.657 46.2193C-214.422 54.4418 -169.472 17.0685 -97.1657 85.22C-93.5422 88.635 -90.0527 92.1512 -86.6049 95.6067C-74.5219 107.662 -63.2614 119.646 -52.051 130.152C-18.2755 161.931 12.0977 182.497 56.1162 185.067C82.2093 186.59 112.944 181.179 151.564 167.964C162.543 164.208 173.436 159.988 184.303 155.568C207.839 145.996 231.632 135.27 254.852 127.736C278.349 120.117 300.059 114.936 321.953 109.744C347.554 103.654 373.832 98.2104 401.44 94.0325C411.093 92.5666 420.921 91.2402 430.889 90.0657C449.287 87.926 468.357 86.9551 487.334 87.1564C510.046 87.3954 532.388 89.3917 553.659 95.2509C597.302 107.374 635.677 133.775 676.648 148.074C688.881 152.346 701.302 155.64 713.967 157.06" stroke="white" stroke-opacity="0.8" stroke-width="0.737047" stroke-miterlimit="10"/>
<path d="M-216.144 50.3128C-215.985 55.7979 -170.416 14.4048 -96.7268 82.2926C-93.1143 85.622 -89.6235 89.0266 -86.195 92.3897C-74.1405 104.171 -63.01 115.922 -52.0476 126.523C-18.9492 158.614 10.6008 181.696 54.6827 185.913C80.3458 188.367 110.833 184.031 149.458 171.414C160.34 167.858 171.14 163.846 181.899 159.59C205.201 150.375 228.574 139.871 251.536 131.347C274.769 122.727 296.781 115.579 318.957 108.655C344.887 100.544 371.329 93.1794 398.83 87.585C408.447 85.6237 418.201 83.8697 428.077 82.3567C446.294 79.5843 465.112 78.3153 483.858 78.7C506.289 79.1613 528.458 82.0491 549.605 89.0245C593.022 103.416 631.212 133.027 672.4 150.396C684.7 155.583 697.219 159.783 710.023 162.062" stroke="white" stroke-opacity="0.8" stroke-width="0.737047" stroke-miterlimit="10"/>
<path d="M-217.699 54.3708C-217.619 57.1153 -171.439 11.7318 -96.353 79.3223C-92.749 82.5663 -89.2622 85.8557 -85.8475 89.13C-73.8214 100.642 -62.8185 112.161 -52.1098 122.85C-19.6884 155.254 9.05344 180.824 53.1841 186.728C78.4274 190.104 108.644 186.784 147.289 174.84C158.074 171.466 168.781 167.68 179.433 163.587C202.501 154.726 225.455 144.446 248.157 134.931C271.127 125.306 293.438 116.19 315.897 107.532C342.16 97.3969 368.762 88.1079 396.156 81.0913C405.737 78.6338 415.42 76.4515 425.202 74.5997C443.234 71.1936 461.803 69.6259 480.319 70.1977C502.47 70.8817 524.465 74.6588 545.489 82.7522C588.68 99.4122 626.685 132.242 668.091 152.683C680.455 158.788 693.075 163.895 706.016 167.039" stroke="white" stroke-opacity="0.8" stroke-width="0.737047" stroke-miterlimit="10"/>
<path d="M-219.218 58.458C-219.218 58.458 -172.438 9.11289 -95.9477 76.3711C-19.4574 143.629 8.72274 218.536 145.149 178.287C239.423 150.473 327.079 88.4285 422.351 66.8547C461.55 57.9788 503.022 59.581 541.399 76.4938C584.363 95.429 622.184 131.478 663.81 154.999C676.241 162.021 688.957 168.038 702.039 172.047" stroke="white" stroke-opacity="0.8" stroke-width="0.737047" stroke-miterlimit="10"/>
</g>
<rect x="0.5" y="0.5" width="1159" height="349" rx="31.5" stroke="url(#paint111_radial_1121_2985)"/>
<defs>
<filter id="filter0_i_1121_2985" x="36" y="36" width="494" height="68" filterUnits="userSpaceOnUse" color-interpolation-filters="sRGB">
<feFlood flood-opacity="0" result="BackgroundImageFix"/>
<feBlend mode="normal" in="SourceGraphic" in2="BackgroundImageFix" result="shape"/>
<feColorMatrix in="SourceAlpha" type="matrix" values="0 0 0 0 0 0 0 0 0 0 0 0 0 0 0 0 0 0 127 0" result="hardAlpha"/>
<feOffset dx="-4" dy="-4"/>
<feGaussianBlur stdDeviation="3"/>
<feComposite in2="hardAlpha" operator="arithmetic" k2="-1" k3="1"/>
<feColorMatrix type="matrix" values="0 0 0 0 1 0 0 0 0 1 0 0 0 0 1 0 0 0 0.1 0"/>
<feBlend mode="normal" in2="shape" result="effect1_innerShadow_1121_2985"/>
</filter>
<filter id="filter2_i_1121_2985" x="36" y="120" width="494" height="68" filterUnits="userSpaceOnUse" color-interpolation-filters="sRGB">
<feFlood flood-opacity="0" result="BackgroundImageFix"/>
<feBlend mode="normal" in="SourceGraphic" in2="BackgroundImageFix" result="shape"/>
<feColorMatrix in="SourceAlpha" type="matrix" values="0 0 0 0 0 0 0 0 0 0 0 0 0 0 0 0 0 0 127 0" result="hardAlpha"/>
<feOffset dx="-4" dy="-4"/>
<feGaussianBlur stdDeviation="3"/>
<feComposite in2="hardAlpha" operator="arithmetic" k2="-1" k3="1"/>
<feColorMatrix type="matrix" values="0 0 0 0 1 0 0 0 0 1 0 0 0 0 1 0 0 0 0.1 0"/>
<feBlend mode="normal" in2="shape" result="effect1_innerShadow_1121_2985"/>
</filter>
<filter id="filter4_i_1121_2985" x="36" y="204" width="494" height="110" filterUnits="userSpaceOnUse" color-interpolation-filters="sRGB">
<feFlood flood-opacity="0" result="BackgroundImageFix"/>
<feBlend mode="normal" in="SourceGraphic" in2="BackgroundImageFix" result="shape"/>
<feColorMatrix in="SourceAlpha" type="matrix" values="0 0 0 0 0 0 0 0 0 0 0 0 0 0 0 0 0 0 127 0" result="hardAlpha"/>
<feOffset dx="-4" dy="-4"/>
<feGaussianBlur stdDeviation="3"/>
<feComposite in2="hardAlpha" operator="arithmetic" k2="-1" k3="1"/>
<feColorMatrix type="matrix" values="0 0 0 0 1 0 0 0 0 1 0 0 0 0 1 0 0 0 0.1 0"/>
<feBlend mode="normal" in2="shape" result="effect1_innerShadow_1121_2985"/>
</filter>
<linearGradient id="paint0_linear_1121_2985" x1="318.079" y1="99.2077" x2="979.227" y2="505.384" gradientUnits="userSpaceOnUse">
<stop offset="0.03" stop-color="#0EB2FA"/>
<stop offset="1" stop-color="#87DAFE"/>
</linearGradient>
<radialGradient id="paint1_radial_1121_2985" cx="0" cy="0" r="1" gradientTransform="matrix(367.655 328.004 -444.871 271.072 212.345 21.9963)" gradientUnits="userSpaceOnUse">
<stop stop-color="#8BD6FF"/>
<stop offset="1" stop-color="#219ADD"/>
</radialGradient>
<linearGradient id="paint2_linear_1121_2985" x1="312" y1="341.965" x2="312" y2="342.226" gradientUnits="userSpaceOnUse">
<stop stop-color="#BFBFBF"/>
<stop offset="1" stop-color="#4B4B4B"/>
</linearGradient>
<linearGradient id="paint3_linear_1121_2985" x1="312" y1="332.668" x2="312" y2="332.929" gradientUnits="userSpaceOnUse">
<stop stop-color="#BFBFBF"/>
<stop offset="1" stop-color="#4B4B4B"/>
</linearGradient>
<linearGradient id="paint4_linear_1121_2985" x1="312" y1="323.35" x2="312" y2="323.611" gradientUnits="userSpaceOnUse">
<stop stop-color="#BFBFBF"/>
<stop offset="1" stop-color="#4B4B4B"/>
</linearGradient>
<linearGradient id="paint5_linear_1121_2985" x1="312" y1="314.209" x2="312" y2="314.47" gradientUnits="userSpaceOnUse">
<stop stop-color="#BFBFBF"/>
<stop offset="1" stop-color="#4B4B4B"/>
</linearGradient>
<linearGradient id="paint6_linear_1121_2985" x1="312" y1="304.889" x2="312" y2="305.15" gradientUnits="userSpaceOnUse">
<stop stop-color="#BFBFBF"/>
<stop offset="1" stop-color="#4B4B4B"/>
</linearGradient>
<linearGradient id="paint7_linear_1121_2985" x1="312" y1="295.59" x2="312" y2="295.851" gradientUnits="userSpaceOnUse">
<stop stop-color="#BFBFBF"/>
<stop offset="1" stop-color="#4B4B4B"/>
</linearGradient>
<linearGradient id="paint8_linear_1121_2985" x1="312" y1="286.426" x2="312" y2="286.687" gradientUnits="userSpaceOnUse">
<stop stop-color="#BFBFBF"/>
<stop offset="1" stop-color="#4B4B4B"/>
</linearGradient>
<linearGradient id="paint9_linear_1121_2985" x1="312" y1="277.127" x2="312" y2="277.388" gradientUnits="userSpaceOnUse">
<stop stop-color="#BFBFBF"/>
<stop offset="1" stop-color="#4B4B4B"/>
</linearGradient>
<linearGradient id="paint10_linear_1121_2985" x1="312" y1="267.807" x2="312" y2="268.068" gradientUnits="userSpaceOnUse">
<stop stop-color="#BFBFBF"/>
<stop offset="1" stop-color="#4B4B4B"/>
</linearGradient>
<linearGradient id="paint11_linear_1121_2985" x1="312" y1="258.666" x2="312" y2="258.927" gradientUnits="userSpaceOnUse">
<stop stop-color="#BFBFBF"/>
<stop offset="1" stop-color="#4B4B4B"/>
</linearGradient>
<linearGradient id="paint12_linear_1121_2985" x1="312" y1="249.344" x2="312" y2="249.605" gradientUnits="userSpaceOnUse">
<stop stop-color="#BFBFBF"/>
<stop offset="1" stop-color="#4B4B4B"/>
</linearGradient>
<linearGradient id="paint13_linear_1121_2985" x1="312" y1="240.045" x2="312" y2="240.306" gradientUnits="userSpaceOnUse">
<stop stop-color="#BFBFBF"/>
<stop offset="1" stop-color="#4B4B4B"/>
</linearGradient>
<linearGradient id="paint14_linear_1121_2985" x1="312" y1="230.885" x2="312" y2="231.146" gradientUnits="userSpaceOnUse">
<stop stop-color="#BFBFBF"/>
<stop offset="1" stop-color="#4B4B4B"/>
</linearGradient>
<linearGradient id="paint15_linear_1121_2985" x1="312" y1="221.584" x2="312" y2="221.845" gradientUnits="userSpaceOnUse">
<stop stop-color="#BFBFBF"/>
<stop offset="1" stop-color="#4B4B4B"/>
</linearGradient>
<linearGradient id="paint16_linear_1121_2985" x1="312" y1="212.262" x2="312" y2="212.523" gradientUnits="userSpaceOnUse">
<stop stop-color="#BFBFBF"/>
<stop offset="1" stop-color="#4B4B4B"/>
</linearGradient>
<linearGradient id="paint17_linear_1121_2985" x1="312" y1="202.961" x2="312" y2="203.222" gradientUnits="userSpaceOnUse">
<stop stop-color="#BFBFBF"/>
<stop offset="1" stop-color="#4B4B4B"/>
</linearGradient>
<linearGradient id="paint18_linear_1121_2985" x1="312" y1="193.801" x2="312" y2="194.062" gradientUnits="userSpaceOnUse">
<stop stop-color="#BFBFBF"/>
<stop offset="1" stop-color="#4B4B4B"/>
</linearGradient>
<linearGradient id="paint19_linear_1121_2985" x1="312" y1="184.502" x2="312" y2="184.763" gradientUnits="userSpaceOnUse">
<stop stop-color="#BFBFBF"/>
<stop offset="1" stop-color="#4B4B4B"/>
</linearGradient>
<linearGradient id="paint20_linear_1121_2985" x1="312" y1="175.182" x2="312" y2="175.443" gradientUnits="userSpaceOnUse">
<stop stop-color="#BFBFBF"/>
<stop offset="1" stop-color="#4B4B4B"/>
</linearGradient>
<linearGradient id="paint21_linear_1121_2985" x1="312" y1="166.041" x2="312" y2="166.302" gradientUnits="userSpaceOnUse">
<stop stop-color="#BFBFBF"/>
<stop offset="1" stop-color="#4B4B4B"/>
</linearGradient>
<linearGradient id="paint22_linear_1121_2985" x1="312" y1="156.717" x2="312" y2="156.978" gradientUnits="userSpaceOnUse">
<stop stop-color="#BFBFBF"/>
<stop offset="1" stop-color="#4B4B4B"/>
</linearGradient>
<linearGradient id="paint23_linear_1121_2985" x1="312" y1="147.426" x2="312" y2="147.687" gradientUnits="userSpaceOnUse">
<stop stop-color="#BFBFBF"/>
<stop offset="1" stop-color="#4B4B4B"/>
</linearGradient>
<linearGradient id="paint24_linear_1121_2985" x1="312" y1="138.264" x2="312" y2="138.525" gradientUnits="userSpaceOnUse">
<stop stop-color="#BFBFBF"/>
<stop offset="1" stop-color="#4B4B4B"/>
</linearGradient>
<linearGradient id="paint25_linear_1121_2985" x1="312" y1="128.963" x2="312" y2="129.224" gradientUnits="userSpaceOnUse">
<stop stop-color="#BFBFBF"/>
<stop offset="1" stop-color="#4B4B4B"/>
</linearGradient>
<linearGradient id="paint26_linear_1121_2985" x1="312" y1="119.641" x2="312" y2="119.902" gradientUnits="userSpaceOnUse">
<stop stop-color="#BFBFBF"/>
<stop offset="1" stop-color="#4B4B4B"/>
</linearGradient>
<linearGradient id="paint27_linear_1121_2985" x1="312" y1="110.504" x2="312" y2="110.765" gradientUnits="userSpaceOnUse">
<stop stop-color="#BFBFBF"/>
<stop offset="1" stop-color="#4B4B4B"/>
</linearGradient>
<linearGradient id="paint28_linear_1121_2985" x1="312" y1="101.18" x2="312" y2="101.441" gradientUnits="userSpaceOnUse">
<stop stop-color="#BFBFBF"/>
<stop offset="1" stop-color="#4B4B4B"/>
</linearGradient>
<linearGradient id="paint29_linear_1121_2985" x1="312" y1="91.8812" x2="312" y2="92.1418" gradientUnits="userSpaceOnUse">
<stop stop-color="#BFBFBF"/>
<stop offset="1" stop-color="#4B4B4B"/>
</linearGradient>
<linearGradient id="paint30_linear_1121_2985" x1="312" y1="82.5804" x2="312" y2="82.841" gradientUnits="userSpaceOnUse">
<stop stop-color="#BFBFBF"/>
<stop offset="1" stop-color="#4B4B4B"/>
</linearGradient>
<linearGradient id="paint31_linear_1121_2985" x1="312" y1="73.4203" x2="312" y2="73.6809" gradientUnits="userSpaceOnUse">
<stop stop-color="#BFBFBF"/>
<stop offset="1" stop-color="#4B4B4B"/>
</linearGradient>
<linearGradient id="paint32_linear_1121_2985" x1="312" y1="64.1214" x2="312" y2="64.382" gradientUnits="userSpaceOnUse">
<stop stop-color="#BFBFBF"/>
<stop offset="1" stop-color="#4B4B4B"/>
</linearGradient>
<linearGradient id="paint33_linear_1121_2985" x1="312" y1="54.8011" x2="312" y2="55.0617" gradientUnits="userSpaceOnUse">
<stop stop-color="#BFBFBF"/>
<stop offset="1" stop-color="#4B4B4B"/>
</linearGradient>
<linearGradient id="paint34_linear_1121_2985" x1="312" y1="45.6605" x2="312" y2="45.9211" gradientUnits="userSpaceOnUse">
<stop stop-color="#BFBFBF"/>
<stop offset="1" stop-color="#4B4B4B"/>
</linearGradient>
<linearGradient id="paint35_linear_1121_2985" x1="312" y1="36.3402" x2="312" y2="36.6008" gradientUnits="userSpaceOnUse">
<stop stop-color="#BFBFBF"/>
<stop offset="1" stop-color="#4B4B4B"/>
</linearGradient>
<linearGradient id="paint36_linear_1121_2985" x1="312" y1="27.0394" x2="312" y2="27.3" gradientUnits="userSpaceOnUse">
<stop stop-color="#BFBFBF"/>
<stop offset="1" stop-color="#4B4B4B"/>
</linearGradient>
<linearGradient id="paint37_linear_1121_2985" x1="312" y1="17.8773" x2="312" y2="18.1379" gradientUnits="userSpaceOnUse">
<stop stop-color="#BFBFBF"/>
<stop offset="1" stop-color="#4B4B4B"/>
</linearGradient>
<linearGradient id="paint38_linear_1121_2985" x1="312" y1="8.57846" x2="312" y2="8.83905" gradientUnits="userSpaceOnUse">
<stop stop-color="#BFBFBF"/>
<stop offset="1" stop-color="#4B4B4B"/>
</linearGradient>
<linearGradient id="paint39_linear_1121_2985" x1="646.825" y1="200" x2="646.481" y2="200" gradientUnits="userSpaceOnUse">
<stop stop-color="#BFBFBF"/>
<stop offset="1" stop-color="#4B4B4B"/>
</linearGradient>
<linearGradient id="paint40_linear_1121_2985" x1="635.731" y1="200" x2="635.388" y2="200" gradientUnits="userSpaceOnUse">
<stop stop-color="#BFBFBF"/>
<stop offset="1" stop-color="#4B4B4B"/>
</linearGradient>
<linearGradient id="paint41_linear_1121_2985" x1="624.848" y1="200" x2="624.505" y2="200" gradientUnits="userSpaceOnUse">
<stop stop-color="#BFBFBF"/>
<stop offset="1" stop-color="#4B4B4B"/>
</linearGradient>
<linearGradient id="paint42_linear_1121_2985" x1="613.926" y1="200" x2="613.583" y2="200" gradientUnits="userSpaceOnUse">
<stop stop-color="#BFBFBF"/>
<stop offset="1" stop-color="#4B4B4B"/>
</linearGradient>
<linearGradient id="paint43_linear_1121_2985" x1="603.004" y1="200" x2="602.661" y2="200" gradientUnits="userSpaceOnUse">
<stop stop-color="#BFBFBF"/>
<stop offset="1" stop-color="#4B4B4B"/>
</linearGradient>
<linearGradient id="paint44_linear_1121_2985" x1="591.918" y1="200" x2="591.575" y2="200" gradientUnits="userSpaceOnUse">
<stop stop-color="#BFBFBF"/>
<stop offset="1" stop-color="#4B4B4B"/>
</linearGradient>
<linearGradient id="paint45_linear_1121_2985" x1="581.028" y1="200" x2="580.684" y2="200" gradientUnits="userSpaceOnUse">
<stop stop-color="#BFBFBF"/>
<stop offset="1" stop-color="#4B4B4B"/>
</linearGradient>
<linearGradient id="paint46_linear_1121_2985" x1="570.098" y1="200" x2="569.755" y2="200" gradientUnits="userSpaceOnUse">
<stop stop-color="#BFBFBF"/>
<stop offset="1" stop-color="#4B4B4B"/>
</linearGradient>
<linearGradient id="paint47_linear_1121_2985" x1="559.176" y1="200" x2="558.833" y2="200" gradientUnits="userSpaceOnUse">
<stop stop-color="#BFBFBF"/>
<stop offset="1" stop-color="#4B4B4B"/>
</linearGradient>
<linearGradient id="paint48_linear_1121_2985" x1="559.176" y1="200" x2="558.833" y2="200" gradientUnits="userSpaceOnUse">
<stop stop-color="#BFBFBF"/>
<stop offset="1" stop-color="#4B4B4B"/>
</linearGradient>
<linearGradient id="paint49_linear_1121_2985" x1="559.176" y1="200" x2="558.833" y2="200" gradientUnits="userSpaceOnUse">
<stop stop-color="#BFBFBF"/>
<stop offset="1" stop-color="#4B4B4B"/>
</linearGradient>
<linearGradient id="paint50_linear_1121_2985" x1="559.176" y1="200" x2="558.833" y2="200" gradientUnits="userSpaceOnUse">
<stop stop-color="#BFBFBF"/>
<stop offset="1" stop-color="#4B4B4B"/>
</linearGradient>
<linearGradient id="paint51_linear_1121_2985" x1="559.176" y1="200" x2="558.833" y2="200" gradientUnits="userSpaceOnUse">
<stop stop-color="#BFBFBF"/>
<stop offset="1" stop-color="#4B4B4B"/>
</linearGradient>
<linearGradient id="paint52_linear_1121_2985" x1="548.098" y1="200" x2="547.755" y2="200" gradientUnits="userSpaceOnUse">
<stop stop-color="#BFBFBF"/>
<stop offset="1" stop-color="#4B4B4B"/>
</linearGradient>
<linearGradient id="paint53_linear_1121_2985" x1="537.207" y1="200" x2="536.864" y2="200" gradientUnits="userSpaceOnUse">
<stop stop-color="#BFBFBF"/>
<stop offset="1" stop-color="#4B4B4B"/>
</linearGradient>
<linearGradient id="paint54_linear_1121_2985" x1="526.285" y1="200" x2="525.942" y2="200" gradientUnits="userSpaceOnUse">
<stop stop-color="#BFBFBF"/>
<stop offset="1" stop-color="#4B4B4B"/>
</linearGradient>
<linearGradient id="paint55_linear_1121_2985" x1="515.364" y1="200" x2="515.02" y2="200" gradientUnits="userSpaceOnUse">
<stop stop-color="#BFBFBF"/>
<stop offset="1" stop-color="#4B4B4B"/>
</linearGradient>
<linearGradient id="paint56_linear_1121_2985" x1="504.278" y1="200" x2="503.934" y2="200" gradientUnits="userSpaceOnUse">
<stop stop-color="#BFBFBF"/>
<stop offset="1" stop-color="#4B4B4B"/>
</linearGradient>
<linearGradient id="paint57_linear_1121_2985" x1="493.356" y1="200" x2="493.013" y2="200" gradientUnits="userSpaceOnUse">
<stop stop-color="#BFBFBF"/>
<stop offset="1" stop-color="#4B4B4B"/>
</linearGradient>
<linearGradient id="paint58_linear_1121_2985" x1="482.457" y1="200" x2="482.114" y2="200" gradientUnits="userSpaceOnUse">
<stop stop-color="#BFBFBF"/>
<stop offset="1" stop-color="#4B4B4B"/>
</linearGradient>
<linearGradient id="paint59_linear_1121_2985" x1="471.371" y1="200" x2="471.028" y2="200" gradientUnits="userSpaceOnUse">
<stop stop-color="#BFBFBF"/>
<stop offset="1" stop-color="#4B4B4B"/>
</linearGradient>
<linearGradient id="paint60_linear_1121_2985" x1="460.45" y1="200" x2="460.106" y2="200" gradientUnits="userSpaceOnUse">
<stop stop-color="#BFBFBF"/>
<stop offset="1" stop-color="#4B4B4B"/>
</linearGradient>
<linearGradient id="paint61_linear_1121_2985" x1="449.551" y1="200" x2="449.208" y2="200" gradientUnits="userSpaceOnUse">
<stop stop-color="#BFBFBF"/>
<stop offset="1" stop-color="#4B4B4B"/>
</linearGradient>
<linearGradient id="paint62_linear_1121_2985" x1="438.637" y1="200" x2="438.294" y2="200" gradientUnits="userSpaceOnUse">
<stop stop-color="#BFBFBF"/>
<stop offset="1" stop-color="#4B4B4B"/>
</linearGradient>
<linearGradient id="paint63_linear_1121_2985" x1="427.559" y1="200" x2="427.216" y2="200" gradientUnits="userSpaceOnUse">
<stop stop-color="#BFBFBF"/>
<stop offset="1" stop-color="#4B4B4B"/>
</linearGradient>
<linearGradient id="paint64_linear_1121_2985" x1="416.637" y1="200" x2="416.294" y2="200" gradientUnits="userSpaceOnUse">
<stop stop-color="#BFBFBF"/>
<stop offset="1" stop-color="#4B4B4B"/>
</linearGradient>
<linearGradient id="paint65_linear_1121_2985" x1="405.715" y1="200" x2="405.372" y2="200" gradientUnits="userSpaceOnUse">
<stop stop-color="#BFBFBF"/>
<stop offset="1" stop-color="#4B4B4B"/>
</linearGradient>
<linearGradient id="paint66_linear_1121_2985" x1="394.817" y1="200" x2="394.473" y2="200" gradientUnits="userSpaceOnUse">
<stop stop-color="#BFBFBF"/>
<stop offset="1" stop-color="#4B4B4B"/>
</linearGradient>
<linearGradient id="paint67_linear_1121_2985" x1="383.739" y1="200" x2="383.395" y2="200" gradientUnits="userSpaceOnUse">
<stop stop-color="#BFBFBF"/>
<stop offset="1" stop-color="#4B4B4B"/>
</linearGradient>
<linearGradient id="paint68_linear_1121_2985" x1="372.809" y1="200" x2="372.466" y2="200" gradientUnits="userSpaceOnUse">
<stop stop-color="#BFBFBF"/>
<stop offset="1" stop-color="#4B4B4B"/>
</linearGradient>
<linearGradient id="paint69_linear_1121_2985" x1="361.887" y1="200" x2="361.544" y2="200" gradientUnits="userSpaceOnUse">
<stop stop-color="#BFBFBF"/>
<stop offset="1" stop-color="#4B4B4B"/>
</linearGradient>
<linearGradient id="paint70_linear_1121_2985" x1="351.004" y1="200" x2="350.661" y2="200" gradientUnits="userSpaceOnUse">
<stop stop-color="#BFBFBF"/>
<stop offset="1" stop-color="#4B4B4B"/>
</linearGradient>
<linearGradient id="paint71_linear_1121_2985" x1="339.91" y1="200" x2="339.567" y2="200" gradientUnits="userSpaceOnUse">
<stop stop-color="#BFBFBF"/>
<stop offset="1" stop-color="#4B4B4B"/>
</linearGradient>
<linearGradient id="paint72_linear_1121_2985" x1="328.989" y1="200" x2="328.645" y2="200" gradientUnits="userSpaceOnUse">
<stop stop-color="#BFBFBF"/>
<stop offset="1" stop-color="#4B4B4B"/>
</linearGradient>
<linearGradient id="paint73_linear_1121_2985" x1="318.075" y1="200" x2="317.731" y2="200" gradientUnits="userSpaceOnUse">
<stop stop-color="#BFBFBF"/>
<stop offset="1" stop-color="#4B4B4B"/>
</linearGradient>
<linearGradient id="paint74_linear_1121_2985" x1="307.028" y1="200" x2="306.684" y2="200" gradientUnits="userSpaceOnUse">
<stop stop-color="#BFBFBF"/>
<stop offset="1" stop-color="#4B4B4B"/>
</linearGradient>
<linearGradient id="paint75_linear_1121_2985" x1="296.106" y1="200" x2="295.763" y2="200" gradientUnits="userSpaceOnUse">
<stop stop-color="#BFBFBF"/>
<stop offset="1" stop-color="#4B4B4B"/>
</linearGradient>
<linearGradient id="paint76_linear_1121_2985" x1="285.168" y1="200" x2="284.825" y2="200" gradientUnits="userSpaceOnUse">
<stop stop-color="#BFBFBF"/>
<stop offset="1" stop-color="#4B4B4B"/>
</linearGradient>
<linearGradient id="paint77_linear_1121_2985" x1="274.246" y1="200" x2="273.903" y2="200" gradientUnits="userSpaceOnUse">
<stop stop-color="#BFBFBF"/>
<stop offset="1" stop-color="#4B4B4B"/>
</linearGradient>
<linearGradient id="paint78_linear_1121_2985" x1="263.16" y1="200" x2="262.817" y2="200" gradientUnits="userSpaceOnUse">
<stop stop-color="#BFBFBF"/>
<stop offset="1" stop-color="#4B4B4B"/>
</linearGradient>
<linearGradient id="paint79_linear_1121_2985" x1="252.278" y1="200" x2="251.934" y2="200" gradientUnits="userSpaceOnUse">
<stop stop-color="#BFBFBF"/>
<stop offset="1" stop-color="#4B4B4B"/>
</linearGradient>
<linearGradient id="paint80_linear_1121_2985" x1="241.356" y1="200" x2="241.013" y2="200" gradientUnits="userSpaceOnUse">
<stop stop-color="#BFBFBF"/>
<stop offset="1" stop-color="#4B4B4B"/>
</linearGradient>
<linearGradient id="paint81_linear_1121_2985" x1="230.434" y1="200" x2="230.091" y2="200" gradientUnits="userSpaceOnUse">
<stop stop-color="#BFBFBF"/>
<stop offset="1" stop-color="#4B4B4B"/>
</linearGradient>
<linearGradient id="paint82_linear_1121_2985" x1="219.34" y1="200" x2="218.997" y2="200" gradientUnits="userSpaceOnUse">
<stop stop-color="#BFBFBF"/>
<stop offset="1" stop-color="#4B4B4B"/>
</linearGradient>
<linearGradient id="paint83_linear_1121_2985" x1="208.457" y1="200" x2="208.114" y2="200" gradientUnits="userSpaceOnUse">
<stop stop-color="#BFBFBF"/>
<stop offset="1" stop-color="#4B4B4B"/>
</linearGradient>
<linearGradient id="paint84_linear_1121_2985" x1="197.528" y1="200" x2="197.184" y2="200" gradientUnits="userSpaceOnUse">
<stop stop-color="#BFBFBF"/>
<stop offset="1" stop-color="#4B4B4B"/>
</linearGradient>
<linearGradient id="paint85_linear_1121_2985" x1="186.606" y1="200" x2="186.263" y2="200" gradientUnits="userSpaceOnUse">
<stop stop-color="#BFBFBF"/>
<stop offset="1" stop-color="#4B4B4B"/>
</linearGradient>
<linearGradient id="paint86_linear_1121_2985" x1="175.528" y1="200" x2="175.184" y2="200" gradientUnits="userSpaceOnUse">
<stop stop-color="#BFBFBF"/>
<stop offset="1" stop-color="#4B4B4B"/>
</linearGradient>
<linearGradient id="paint87_linear_1121_2985" x1="164.637" y1="200" x2="164.294" y2="200" gradientUnits="userSpaceOnUse">
<stop stop-color="#BFBFBF"/>
<stop offset="1" stop-color="#4B4B4B"/>
</linearGradient>
<linearGradient id="paint88_linear_1121_2985" x1="153.715" y1="200" x2="153.372" y2="200" gradientUnits="userSpaceOnUse">
<stop stop-color="#BFBFBF"/>
<stop offset="1" stop-color="#4B4B4B"/>
</linearGradient>
<linearGradient id="paint89_linear_1121_2985" x1="142.629" y1="200" x2="142.286" y2="200" gradientUnits="userSpaceOnUse">
<stop stop-color="#BFBFBF"/>
<stop offset="1" stop-color="#4B4B4B"/>
</linearGradient>
<linearGradient id="paint90_linear_1121_2985" x1="131.707" y1="200" x2="131.364" y2="200" gradientUnits="userSpaceOnUse">
<stop stop-color="#BFBFBF"/>
<stop offset="1" stop-color="#4B4B4B"/>
</linearGradient>
<linearGradient id="paint91_linear_1121_2985" x1="120.817" y1="200" x2="120.473" y2="200" gradientUnits="userSpaceOnUse">
<stop stop-color="#BFBFBF"/>
<stop offset="1" stop-color="#4B4B4B"/>
</linearGradient>
<linearGradient id="paint92_linear_1121_2985" x1="109.887" y1="200" x2="109.544" y2="200" gradientUnits="userSpaceOnUse">
<stop stop-color="#BFBFBF"/>
<stop offset="1" stop-color="#4B4B4B"/>
</linearGradient>
<linearGradient id="paint93_linear_1121_2985" x1="98.8089" y1="200" x2="98.4657" y2="200" gradientUnits="userSpaceOnUse">
<stop stop-color="#BFBFBF"/>
<stop offset="1" stop-color="#4B4B4B"/>
</linearGradient>
<linearGradient id="paint94_linear_1121_2985" x1="87.8792" y1="200" x2="87.536" y2="200" gradientUnits="userSpaceOnUse">
<stop stop-color="#BFBFBF"/>
<stop offset="1" stop-color="#4B4B4B"/>
</linearGradient>
<linearGradient id="paint95_linear_1121_2985" x1="76.9573" y1="200" x2="76.6141" y2="200" gradientUnits="userSpaceOnUse">
<stop stop-color="#BFBFBF"/>
<stop offset="1" stop-color="#4B4B4B"/>
</linearGradient>
<linearGradient id="paint96_linear_1121_2985" x1="66.0745" y1="200" x2="65.7313" y2="200" gradientUnits="userSpaceOnUse">
<stop stop-color="#BFBFBF"/>
<stop offset="1" stop-color="#4B4B4B"/>
</linearGradient>
<linearGradient id="paint97_linear_1121_2985" x1="54.9886" y1="200" x2="54.6454" y2="200" gradientUnits="userSpaceOnUse">
<stop stop-color="#BFBFBF"/>
<stop offset="1" stop-color="#4B4B4B"/>
</linearGradient>
<linearGradient id="paint98_linear_1121_2985" x1="44.0667" y1="200" x2="43.7235" y2="200" gradientUnits="userSpaceOnUse">
<stop stop-color="#BFBFBF"/>
<stop offset="1" stop-color="#4B4B4B"/>
</linearGradient>
<linearGradient id="paint99_linear_1121_2985" x1="33.1448" y1="200" x2="32.8016" y2="200" gradientUnits="userSpaceOnUse">
<stop stop-color="#BFBFBF"/>
<stop offset="1" stop-color="#4B4B4B"/>
</linearGradient>
<linearGradient id="paint100_linear_1121_2985" x1="22.2464" y1="200" x2="21.9032" y2="200" gradientUnits="userSpaceOnUse">
<stop stop-color="#BFBFBF"/>
<stop offset="1" stop-color="#4B4B4B"/>
</linearGradient>
<linearGradient id="paint101_linear_1121_2985" x1="11.1683" y1="200" x2="10.825" y2="200" gradientUnits="userSpaceOnUse">
<stop stop-color="#BFBFBF"/>
<stop offset="1" stop-color="#4B4B4B"/>
</linearGradient>
<radialGradient id="paint102_radial_1121_2985" cx="0" cy="0" r="1" gradientUnits="userSpaceOnUse" gradientTransform="translate(-37 -51.9961) rotate(42.8679) scale(408.637 478.333)">
<stop stop-color="#21A8DA"/>
<stop offset="0.11" stop-color="#197AAB"/>
<stop offset="0.23" stop-color="#135484"/>
<stop offset="0.34" stop-color="#0F3765"/>
<stop offset="0.44" stop-color="#0B2250"/>
<stop offset="0.55" stop-color="#091643"/>
<stop offset="0.64" stop-color="#09123F"/>
<stop offset="1"/>
</radialGradient>
<radialGradient id="paint103_radial_1121_2985" cx="0" cy="0" r="1" gradientUnits="userSpaceOnUse" gradientTransform="translate(-28 -28.4961) rotate(41.1996) scale(197.363 233.307)">
<stop stop-color="#21A8DA"/>
<stop offset="0.11" stop-color="#197AAB"/>
<stop offset="0.23" stop-color="#135484"/>
<stop offset="0.34" stop-color="#0F3765"/>
<stop offset="0.44" stop-color="#0B2250"/>
<stop offset="0.55" stop-color="#091643"/>
<stop offset="0.64" stop-color="#09123F"/>
<stop offset="1"/>
</radialGradient>
<radialGradient id="paint104_radial_1121_2985" cx="0" cy="0" r="1" gradientUnits="userSpaceOnUse" gradientTransform="translate(643 398.5) rotate(175.766) scale(826.255 833.239)">
<stop stop-color="#21A8DA"/>
<stop offset="0.11" stop-color="#197AAB"/>
<stop offset="0.23" stop-color="#135484"/>
<stop offset="0.34" stop-color="#0F3765"/>
<stop offset="0.44" stop-color="#0B2250"/>
<stop offset="0.55" stop-color="#091643"/>
<stop offset="0.64" stop-color="#09123F"/>
<stop offset="1"/>
</radialGradient>
<linearGradient id="paint105_linear_1121_2985" x1="70.8278" y1="40" x2="456.19" y2="178.467" gradientUnits="userSpaceOnUse">
<stop stop-color="white" stop-opacity="0.15"/>
<stop offset="1" stop-color="white" stop-opacity="0.35"/>
</linearGradient>
<linearGradient id="paint106_linear_1121_2985" x1="40" y1="72" x2="530" y2="72" gradientUnits="userSpaceOnUse">
<stop stop-color="white" stop-opacity="0.2"/>
<stop offset="1" stop-color="white" stop-opacity="0.6"/>
</linearGradient>
<linearGradient id="paint107_linear_1121_2985" x1="70.8278" y1="124" x2="456.19" y2="262.467" gradientUnits="userSpaceOnUse">
<stop stop-color="white" stop-opacity="0.15"/>
<stop offset="1" stop-color="white" stop-opacity="0.35"/>
</linearGradient>
<linearGradient id="paint108_linear_1121_2985" x1="40" y1="156" x2="530" y2="156" gradientUnits="userSpaceOnUse">
<stop stop-color="white" stop-opacity="0.2"/>
<stop offset="1" stop-color="white" stop-opacity="0.6"/>
</linearGradient>
<linearGradient id="paint109_linear_1121_2985" x1="70.8278" y1="208" x2="486.385" y2="298.154" gradientUnits="userSpaceOnUse">
<stop stop-color="white" stop-opacity="0.15"/>
<stop offset="1" stop-color="white" stop-opacity="0.35"/>
</linearGradient>
<linearGradient id="paint110_linear_1121_2985" x1="40" y1="261" x2="530" y2="261" gradientUnits="userSpaceOnUse">
<stop stop-color="white" stop-opacity="0.2"/>
<stop offset="1" stop-color="white" stop-opacity="0.6"/>
</linearGradient>
<radialGradient id="paint111_radial_1121_2985" cx="0" cy="0" r="1" gradientUnits="userSpaceOnUse" gradientTransform="translate(580) rotate(90) scale(350 702.844)">
<stop stop-color="white"/>
<stop offset="1" stop-color="white" stop-opacity="0"/>
</radialGradient>
<clipPath id="clip0_1121_2985">
<rect width="1160" height="350" rx="32" fill="white"/>
</clipPath>
<clipPath id="clip1_1121_2985">
<rect width="647" height="561" fill="white" transform="translate(0 -64)"/>
</clipPath>
<clipPath id="clip2_1121_2985">
<rect x="497" y="48" width="25" height="25" rx="12.5" fill="white"/>
</clipPath>
<clipPath id="clip3_1121_2985">
<rect width="10" height="10.69" fill="white" transform="translate(504.5 55.1602)"/>
</clipPath>
<clipPath id="clip4_1121_2985">
<rect width="10" height="10.69" fill="white" transform="translate(489.5 71.1899)"/>
</clipPath>
<clipPath id="clip5_1121_2985">
<rect width="25.9622" height="26" fill="white" transform="translate(59.0195 143)"/>
</clipPath>
<clipPath id="clip6_1121_2985">
<rect x="497" y="132" width="25" height="25" rx="12.5" fill="white"/>
</clipPath>
<clipPath id="clip7_1121_2985">
<rect width="10" height="10.69" fill="white" transform="translate(504.5 139.16)"/>
</clipPath>
<clipPath id="clip8_1121_2985">
<rect width="10" height="10.69" fill="white" transform="translate(489.5 155.19)"/>
</clipPath>
<clipPath id="clip9_1121_2985">
<rect x="497" y="216" width="25" height="25" rx="12.5" fill="white"/>
</clipPath>
<clipPath id="clip10_1121_2985">
<rect width="10" height="10.69" fill="white" transform="translate(504.5 223.16)"/>
</clipPath>
<clipPath id="clip11_1121_2985">
<rect width="10" height="10.69" fill="white" transform="translate(489.5 239.19)"/>
</clipPath>
</defs>
</svg>
