<svg width="77" height="109" viewBox="0 0 77 109" fill="none" xmlns="http://www.w3.org/2000/svg">
<path d="M21.1423 97.3889C20.4392 98.2896 19.8914 99.3302 19.2948 100.304C18.761 101.176 18.183 102.041 17.7558 102.97C17.6844 103.125 17.9222 103.275 18.0349 103.149C18.7945 102.3 19.4131 101.317 20.0651 100.385C20.656 99.5392 21.3012 98.7145 21.7936 97.8072C21.9801 97.4635 21.3863 97.0763 21.1423 97.3889Z" fill="#FFA78F"/>
<path d="M48.0794 39.2832C47.4874 39.9024 46.6606 40.3355 45.7879 40.5122C45.228 40.3268 44.6455 40.2062 44.0616 40.1612C44.426 40.3575 44.8021 40.4954 45.1844 40.5921C44.5672 40.6297 43.9499 40.5308 43.3928 40.2719C43.4157 40.223 43.4446 40.1779 43.4811 40.1409C43.3717 40.1414 43.2624 40.1433 43.1536 40.1488C43.1468 40.1448 43.1401 40.1406 43.1332 40.1366C43.8993 39.5479 44.7678 39.1227 45.7682 38.9456C46.2278 38.8642 45.9493 38.1427 45.5444 38.1817C41.8299 38.5394 39.9194 42.9315 38.4306 45.8116C36.1661 50.1927 34.2497 54.815 32.9586 59.5801C32.9102 59.7588 33.1957 59.9231 33.2626 59.7275C34.67 55.609 36.2238 51.5722 38.1865 47.6817C39.3471 45.3809 40.6286 42.353 42.6888 40.5079C42.911 40.5177 43.1259 40.5363 43.3376 40.5593C43.3361 40.5452 43.3372 40.5314 43.3372 40.5176C45.0331 41.5624 47.243 41.3769 48.5145 39.642C48.7072 39.379 48.3034 39.0488 48.0794 39.2832Z" fill="#FFA78F"/>
<path d="M35.0526 65.9375C35.0423 65.9477 35.032 65.9578 35.0216 65.968C34.986 65.3535 34.8611 64.7656 34.6203 64.2277C34.3637 63.3245 33.8919 62.6272 33.0825 62.4726C32.9437 62.3837 32.7935 62.301 32.6378 62.2213C32.6342 62.2378 32.6307 62.2543 32.6272 62.2709C32.6117 61.7946 32.6607 61.3124 32.7931 60.8287C32.8245 60.714 32.6558 60.6129 32.598 60.7342C32.1245 61.7287 32.0133 62.8153 32.3195 63.8221C32.4859 64.5593 32.9159 65.2818 33.3606 65.7811C33.6737 66.1326 34.0543 66.4428 34.472 66.6902C34.4522 67.3436 34.3462 67.9851 34.1837 68.6336C33.9852 69.4259 33.7077 70.2001 33.4046 70.9633C33.2321 71.351 33.0522 71.734 32.868 72.1059C29.2849 72.0507 25.7689 70.1028 24.2665 66.7414C24.2014 66.5958 23.9804 66.6466 24.0315 66.8129C24.9891 69.9214 27.7412 71.9719 30.843 72.6763C31.3823 72.7988 31.9231 72.8697 32.4631 72.9032C32.0149 73.766 31.5789 74.5535 31.2478 75.2041C28.9948 79.6314 26.4415 84.0169 24.4779 88.5788C24.3459 88.8853 24.8246 89.1207 24.9951 88.8295C26.531 86.2079 27.7739 83.3741 29.1387 80.6592C29.4821 79.976 29.8253 79.2926 30.169 78.6096C30.9535 77.4214 31.638 76.1623 32.2741 74.8944C33.2059 73.0367 34.1807 71.1482 34.6315 69.1045C34.6593 68.978 34.6872 68.8291 34.714 68.6658C34.8564 68.0992 34.9628 67.5271 35.0079 66.9648C35.0103 66.9657 35.0127 66.9665 35.0151 66.9676C35.0273 66.871 35.0395 66.7746 35.0524 66.6784C35.0699 66.4314 35.0627 66.1855 35.0526 65.9375ZM33.752 65.2382C33.1543 64.5876 32.9591 63.8865 32.787 63.1089C33.1658 63.3795 33.5446 63.6501 33.9234 63.9206C33.9645 63.9795 34.0036 64.0391 34.0408 64.0995C34.1193 64.3354 34.198 64.5712 34.2766 64.8071C34.3524 65.1082 34.4027 65.4201 34.4367 65.7286C34.4404 65.7619 34.4417 65.7949 34.4449 65.8281C34.1994 65.6654 33.9671 65.4721 33.752 65.2382Z" fill="#FFA78F"/>
<path d="M44.9356 47.7712C44.8784 47.7566 44.8262 47.7283 44.7798 47.6914C44.4069 48.9052 43.8906 50.0555 43.3669 51.228C43.3102 51.355 43.5154 51.4988 43.6037 51.38C44.3619 50.3613 44.9941 49.152 45.4643 47.865C45.2881 47.8438 45.1122 47.8165 44.9356 47.7712Z" fill="#FFA78F"/>
<path d="M50.5819 35.3989C49.696 35.0377 48.7984 34.6775 47.8886 34.3813C47.7055 34.3217 47.6826 34.5836 47.82 34.6585C48.6499 35.1101 49.5179 35.5103 50.3778 35.9014C50.7375 36.0649 50.9276 35.5399 50.5819 35.3989Z" fill="#FFA78F"/>
<path d="M25.6462 54.1152C23.615 57.197 22.6626 61.44 23.4424 65.0781C23.4704 65.2089 23.7311 65.2813 23.7257 65.1045C23.6058 61.1872 24.2335 57.8771 26.0818 54.3949C26.2024 54.1679 25.794 53.891 25.6462 54.1152Z" fill="#FFA78F"/>
<path d="M56.0025 23.3192C54.6792 26.6827 53.4512 30.0033 51.7368 33.2005C50.4676 35.5674 47.4441 42.5082 43.7618 40.3047C43.6503 40.238 43.5634 40.4005 43.6596 40.4765C46.4551 42.685 48.9445 39.2618 50.4241 36.8921C50.895 35.8985 51.4518 34.95 52.1082 34.0685C53.9832 30.7784 55.6527 27.238 56.6377 23.6271C56.7391 23.2557 56.1623 22.913 56.0025 23.3192Z" fill="#FFA78F"/>
<path d="M56.4484 19.5104C55.7953 18.8913 54.9108 18.5648 54.0222 18.5508C54.1184 18.69 54.2209 18.8283 54.3264 18.964C54.9851 19.0671 55.6118 19.3468 56.201 19.8105C56.4232 19.9855 56.6501 19.7017 56.4484 19.5104Z" fill="#FFA78F"/>
<path d="M46.2484 18.1797C46.2283 18.0032 46.1876 17.8312 46.1542 17.6577C45.7712 18.1759 45.412 18.6951 45.0801 19.1965C42.2489 23.4722 40.0363 28.1748 38.7154 33.1356C38.6842 33.2528 38.8714 33.361 38.915 33.2324C40.3905 28.8778 42.2281 24.6688 44.6584 20.7563C45.1613 19.9466 45.701 19.1108 46.2823 18.298C46.2658 18.2619 46.2533 18.223 46.2484 18.1797Z" fill="#FFA78F"/>
<path d="M55.6875 12.4821C55.1358 12.3521 54.601 12.2986 54.082 12.3058C54.0431 12.5082 53.9984 12.7078 53.947 12.9042C54.4871 12.8632 55.0493 12.8774 55.6379 12.9616C55.9782 13.0103 55.9896 12.5532 55.6875 12.4821Z" fill="#FFA78F"/>
<path d="M51.3665 24.0144C51.2371 23.9916 51.1454 23.925 51.0881 23.8384C51.0626 23.8966 51.0372 23.9537 51.0118 24.0089C49.6629 26.9455 48.2956 29.8765 47.0324 32.8514C46.9527 33.0392 47.2577 33.1984 47.3545 33.0075C48.5663 30.6206 49.7035 28.1957 50.8472 25.7756C51.0914 25.2589 51.3308 24.6607 51.5882 24.0404C51.5148 24.0331 51.4417 24.0277 51.3665 24.0144Z" fill="#FFA78F"/>
<path d="M56.8454 20.1977C56.8105 20.0372 56.5447 20.0169 56.568 20.2066C56.7542 21.7223 56.367 22.988 55.649 24.3041C55.5346 24.5138 55.9061 24.7614 56.0508 24.5621C56.9544 23.3181 57.1662 21.6736 56.8454 20.1977Z" fill="#FFA78F"/>
<path d="M27.96 71.2137C26.7688 73.667 25.7199 76.2072 24.676 78.7406C24.872 78.7601 25.0611 78.7927 25.238 78.8393C26.4449 76.4398 27.6509 74.0315 28.7041 71.5745C28.8892 71.1426 28.1765 70.7677 27.96 71.2137Z" fill="#FFA78F"/>
<path d="M22.7585 64.4199C20.9147 67.8404 19.1618 71.3145 17.4243 74.7936C16.4295 76.3386 15.3525 77.8655 14.6005 79.5253C14.4343 79.892 15.0585 80.3354 15.2942 79.9707C15.6506 79.4191 15.9676 78.8415 16.2659 78.2519C18.7204 73.7868 21.1956 69.3225 23.5072 64.7828C23.7218 64.3614 22.9939 63.983 22.7585 64.4199Z" fill="#FFA78F"/>
<path d="M54.55 25.0435C52.1524 24.1723 49.5939 23.4126 47.8177 21.4612C45.8132 19.2591 46.0097 16.46 46.9151 13.8029C48.5342 9.05188 50.9266 4.36763 53.6814 0.179748C53.7514 0.0734433 53.5813 -0.0687213 53.5089 0.0375831C51.8487 2.4762 50.2853 4.93745 48.9338 7.56315C47.6174 10.1204 46.1826 12.8754 45.6239 15.7192C44.4887 21.4983 49.6107 24.3754 54.3443 25.8748C54.8643 26.0397 55.0249 25.216 54.55 25.0435Z" fill="#FFA78F"/>
<path d="M59.4436 1.92066C59.5235 1.80635 59.3373 1.65154 59.2555 1.7655C56.9946 4.91494 55.1513 8.26957 53.9456 11.967C53.0967 14.5702 52.5996 18.0697 55.3989 19.6898C55.7943 19.9186 56.1312 19.3313 55.7649 19.0749C52.7914 16.9954 54.237 12.9572 55.2365 10.1604C56.2746 7.2555 57.6766 4.45073 59.4436 1.92066Z" fill="#FFA78F"/>
<path d="M71.0446 6.77965C70.3062 10.3539 69.6529 13.7948 68.207 17.1785C66.8264 20.4093 64.8353 23.1876 63.0727 26.1966C62.9978 26.3244 63.2081 26.4312 63.3011 26.3432C65.8404 23.9374 67.6234 20.4724 68.9689 17.2848C70.3203 14.083 71.5227 10.4188 71.7004 6.9224C71.7199 6.53815 71.132 6.35699 71.0446 6.77965Z" fill="#FFA78F"/>
<path d="M65.6015 4.72696C64.0427 7.53823 62.831 10.7467 61.6909 13.751C61.6367 13.8939 61.8558 14.0082 61.9314 13.8675C63.4505 11.0385 65.0742 8.02194 66.1732 5.00398C66.298 4.66186 65.7855 4.39528 65.6015 4.72696Z" fill="#FFA78F"/>
<path d="M28.7817 79.3902C23.7972 76.5788 17.5784 77.2923 13.2372 80.9535C8.53441 84.9199 6.47191 91.0031 4.72706 96.6945C4.67449 96.866 4.95127 97.0195 5.01742 96.8353C6.87648 91.6504 8.71963 86.2554 12.815 82.3651C17.1148 78.2807 23.2163 77.3378 28.4603 80.1815C29.0108 80.48 29.2875 79.6754 28.7817 79.3902Z" fill="#FFA78F"/>
<path d="M25.4193 86.8365C22.0861 85.1681 19.3521 88.3012 17.7229 90.8327C15.7122 93.957 14.2097 97.4438 13.4726 101.092C13.4293 101.306 13.8195 101.47 13.889 101.237C14.7548 98.3376 15.8455 95.5616 17.3873 92.95C18.8926 90.4002 21.5207 86.0676 25.0791 87.6741C25.6804 87.9453 25.9746 87.1145 25.4193 86.8365Z" fill="#FFA78F"/>
<path d="M31.8857 93.2463C30.0402 95.408 27.3438 96.7746 24.476 96.7804C21.5348 96.7864 19.0627 95.3921 16.9874 93.4104C16.8583 93.287 16.6888 93.451 16.7819 93.5939C20.3969 99.1394 28.5932 98.5781 32.4582 93.7184C32.7237 93.3843 32.1631 92.9212 31.8857 93.2463Z" fill="#FFA78F"/>
<path d="M36.2094 86.5448C36.1228 86.4095 35.8967 86.4982 35.9628 86.6593C37.5048 90.4213 35.0766 94.3598 33.373 97.6478C31.5606 101.146 29.4291 104.402 27.3827 107.758C27.1355 108.164 27.7396 108.705 28.0416 108.301C30.6553 104.805 32.7909 100.772 34.6678 96.843C36.104 93.8369 38.264 89.7562 36.2094 86.5448Z" fill="#FFA78F"/>
<path d="M42.7923 61.3343C42.1656 59.9498 40.7679 58.8019 39.3288 58.3519C39.2056 58.3133 39.1633 58.4816 39.2475 58.5493C39.7915 58.9868 40.3297 59.4186 40.8216 59.9161C41.3389 60.4393 41.7614 61.0309 42.2292 61.5956C42.448 61.8599 42.9664 61.7191 42.7923 61.3343Z" fill="#FFA78F"/>
<path d="M28.0267 71.9057C26.9433 73.7892 25.9578 75.8509 25.1029 77.8486C25.0062 78.0745 25.3875 78.3513 25.5301 78.1229C26.6962 76.2551 27.8327 74.2581 28.771 72.2664C28.9742 71.8348 28.2695 71.4836 28.0267 71.9057Z" fill="#FFA78F"/>
<path d="M32.589 72.536C31.3444 72.0005 29.8755 71.5753 28.5408 71.3477C28.3305 71.3118 28.3089 71.5649 28.4647 71.6556C29.6554 72.3488 31.0608 72.9792 32.38 73.3806C32.9187 73.5445 33.0523 72.7352 32.589 72.536Z" fill="#FFA78F"/>
<path d="M50.8924 35.6157C50.9628 35.6245 51.0305 35.6203 51.0965 35.6106C51.2903 35.2754 51.497 34.9482 51.7143 34.6276C51.701 34.5922 51.685 34.5569 51.6649 34.5222C51.7956 34.2238 51.7153 33.8212 51.3047 33.6495C50.3629 33.2559 49.3861 32.9548 48.3932 32.7428C47.2475 32.4155 46.0491 32.3039 44.8526 32.3885C42.7827 32.4209 40.7285 32.881 38.8339 33.8074C35.6416 35.0243 33.1508 38.3371 31.3771 41.1713C30.4545 42.6456 29.5914 44.1693 28.7952 45.7306C27.11 48.4255 25.6658 51.281 24.5502 54.2421C23.0423 58.2443 22.1681 62.8807 23.8115 66.9843C25.1627 70.3583 28.7229 73.8886 32.669 73.0907C32.9044 73.0431 32.8612 72.7861 32.7271 72.6454C32.8051 72.5244 32.6979 72.3153 32.5102 72.3069C32.0086 72.2842 31.5292 72.2199 31.0716 72.1191C27.3224 70.7395 24.8581 67.459 24.5875 63.2732C24.2661 58.304 26.5788 53.2749 28.9114 49.0189C31.2204 44.8057 34.1891 40.6294 37.8136 37.4395C39.3818 36.0592 41.3525 34.8681 43.4151 34.2896C43.435 34.2951 43.4545 34.2986 43.4746 34.3043C43.6272 34.3478 43.7274 34.299 43.779 34.2124C46.0223 33.976 48.2693 34.4738 50.0595 36.1226C50.5068 36.5347 51.0242 36.0698 50.8924 35.6157Z" fill="#FFA78F"/>
<path d="M45.7868 40.6185C44.2723 39.0858 42.0469 39.7803 40.7602 41.2517C39.9302 42.2009 39.4287 43.4139 38.8883 44.5383C38.1529 46.0686 37.4173 47.5988 36.6819 49.129C34.3518 53.9769 30.3958 60.0785 33.0244 65.5593C33.4557 66.4588 34.9764 66.1343 34.525 65.1031C32.5043 60.4876 35.4869 55.6871 37.3575 51.5419C38.3504 49.342 39.3416 47.1414 40.3359 44.9422C41.1847 43.0648 42.8407 39.4777 45.5256 41.0577C45.8311 41.2374 45.9913 40.8256 45.7868 40.6185Z" fill="#FFA78F"/>
<path d="M45.0621 47.6963C44.9846 47.7419 44.9128 47.8076 44.8511 47.8988C43.7352 49.5491 42.9339 51.488 42.0676 53.2799C41.222 55.029 40.2357 56.8755 39.9092 58.8034C39.8713 59.0271 40.1761 59.1531 40.3245 59.0067C41.6505 57.6978 42.5432 55.875 43.4435 54.2568C44.4191 52.5033 45.5584 50.6833 46.2611 48.804C46.3813 48.4823 46.2296 48.1302 45.978 47.8936C45.6652 47.8632 45.3575 47.7978 45.0621 47.6963Z" fill="#FFA78F"/>
<path d="M65.51 16.0705C64.0227 13.7813 61.1988 12.6908 58.5535 13.1195C58.421 13.141 58.4634 13.3329 58.5854 13.3179C60.9666 13.0258 63.4289 14.0541 64.7068 16.1312C65.9634 18.1738 65.856 20.579 64.7966 22.6294C61.2869 28.4898 60.5462 35.6196 56.7344 41.3474C56.2139 42.1296 55.6333 42.8721 55.0032 43.5649C54.8677 43.5758 54.7357 43.6477 54.6434 43.8049C54.5825 43.9084 54.5263 44.0149 54.4723 44.1228C54.2938 44.3013 54.1165 44.4812 53.9297 44.6501C53.9545 44.5653 53.9786 44.4797 54.0025 44.3937C53.9354 44.4467 53.8684 44.4996 53.8013 44.5509C53.5547 44.8276 53.2957 45.056 52.9852 45.2327C52.9554 45.3212 52.927 45.4098 52.8968 45.4981C51.7983 46.3161 50.5777 46.9642 49.2267 47.366C46.09 48.2988 42.6474 47.8853 40.1666 45.6484C40.0562 45.5488 39.876 45.6936 39.9844 45.8111C43.4044 49.5237 48.599 48.9556 52.5341 46.5202C51.9645 48.0687 51.3295 49.5996 50.749 51.1318C50.0544 52.965 49.3955 54.8356 48.6809 56.6839C47.3823 59.487 45.8154 62.1679 44.4895 64.9509C44.1936 63.0838 43.3791 61.3519 41.967 59.901C41.7362 59.6638 41.4855 59.4313 41.2189 59.2069C41.8253 57.8515 42.2649 56.455 42.5078 55.1168C42.5654 54.7995 41.9848 54.5537 41.8902 54.9025C41.5378 56.2009 41.1043 57.4733 40.5603 58.6964C38.8024 57.4285 36.5412 56.57 34.4796 56.9696C34.0115 57.0604 34.3631 57.6435 34.6857 57.6732C36.6419 57.8534 38.4042 58.2558 39.9278 59.1898C40.051 59.1114 40.2136 59.0854 40.3495 59.1289C40.4604 59.1048 40.5797 59.1299 40.6829 59.2345C40.7107 59.2627 40.733 59.2894 40.7589 59.3169L40.7603 59.3155C40.7625 59.3186 40.7643 59.3221 40.7666 59.3251C41.0017 59.5766 41.1609 59.8095 41.2637 60.1625C41.2687 60.1795 41.2667 60.1954 41.2698 60.2123C41.4847 60.415 41.6927 60.6353 41.8947 60.8706C43.0639 63.2217 43.7296 65.578 43.4805 68.2379C43.4612 68.4428 43.6232 68.5938 43.7959 68.6356C43.764 68.7846 43.7293 68.9335 43.6897 69.0817C43.6146 69.3628 43.5273 69.6421 43.427 69.9169C43.3054 70.4063 43.1654 70.8931 43.0112 71.3743C40.9754 77.7308 37.9034 83.8129 34.1992 89.3535C34.0661 89.5526 34.3824 89.8201 34.5246 89.6218C36.7856 86.4684 38.7926 83.1473 40.4768 79.6502C42.1786 76.1166 43.9129 72.2435 44.4909 68.3357C44.5749 67.7678 44.6142 67.2051 44.6163 66.6494C47.0512 63.8553 48.8419 60.2056 50.3988 56.8699C51.7706 53.931 53.2603 50.7033 54.0668 47.4906C54.2093 47.1981 54.3463 46.9024 54.488 46.6102C54.8612 45.8403 55.3162 45.069 55.5511 44.2446C55.5762 44.1567 55.576 44.0729 55.5601 43.9951C55.5964 43.9544 55.6343 43.9146 55.67 43.8734C60.556 38.2339 61.6398 30.4001 64.9364 23.8442C64.954 23.83 64.9712 23.8143 64.9875 23.7952C66.7746 21.6992 67.0219 18.3979 65.51 16.0705Z" fill="#FFA78F"/>
<path d="M31.5586 47.6152C30.7956 47.3729 29.9627 47.077 29.1581 47.0394C28.8939 47.027 28.9358 47.38 29.1127 47.4701C29.8354 47.8375 30.714 48.0024 31.5005 48.1761C31.9027 48.2649 31.8924 47.7212 31.5586 47.6152Z" fill="#FFA78F"/>
<path d="M35.8421 50.015C34.9349 49.5511 34.0589 49.035 33.142 48.587C32.9706 48.5034 32.8281 48.7374 32.9869 48.8479C33.8241 49.4303 34.7004 49.9447 35.5468 50.5113C35.943 50.7766 36.2582 50.2278 35.8421 50.015Z" fill="#FFA78F"/>
<path d="M44.7615 53.8405C44.1765 53.7758 43.5913 53.7538 43.0035 53.7263C42.8152 53.7175 42.8493 54.0067 43.0128 54.0296C43.5996 54.112 44.183 54.1996 44.7739 54.245C45.0216 54.2641 44.9829 53.865 44.7615 53.8405Z" fill="#FFA78F"/>
<path d="M29.9507 51.5025C28.1213 54.6248 27.156 58.0347 27.0889 61.6521C27.0846 61.886 27.483 62.001 27.4906 61.7395C27.5941 58.1878 28.5483 54.7624 30.306 51.6747C30.4165 51.4807 30.0694 51.2999 29.9507 51.5025Z" fill="#FFA78F"/>
<path d="M33.6157 69.616C31.0528 68.6774 29.058 67.2396 28.3144 64.4718C28.2645 64.286 27.9348 64.2659 27.9876 64.4823C28.6151 67.0545 30.7345 69.738 33.4597 70.2465C33.859 70.3211 33.9848 69.7512 33.6157 69.616Z" fill="#FFA78F"/>
<path d="M40.9552 37.2654C38.3714 38.5121 36.3399 40.6819 35.1071 43.2533C35.0129 43.4499 35.3359 43.6109 35.4472 43.4182C36.8619 40.9697 38.8642 39.126 41.3181 37.7495C41.6401 37.5689 41.2541 37.1213 40.9552 37.2654Z" fill="#FFA78F"/>
<path d="M49.315 37.294C47.8827 35.9404 45.7365 35.62 43.8967 36.1651C43.69 36.2263 43.848 36.5006 44.0267 36.4671C45.8689 36.1224 47.4418 36.7012 48.8741 37.8288C49.2701 38.1405 49.6751 37.6343 49.315 37.294Z" fill="#FFA78F"/>
<path d="M48.4572 49.1471C47.8575 50.1719 47.2483 51.1869 46.7045 52.2427C46.5897 52.4654 46.9682 52.6561 47.0976 52.4332C47.6934 51.4078 48.2199 50.3494 48.7597 49.2935C48.8475 49.1218 48.5573 48.9764 48.4572 49.1471Z" fill="#FFA78F"/>
<path d="M45.1622 56.9137C44.3826 58.3422 43.3583 59.709 42.6717 61.1722C42.4893 61.5611 43.1412 61.8744 43.3652 61.4948C43.7799 60.7922 44.0423 59.9978 44.3742 59.2557C44.7081 58.5091 45.0967 57.786 45.4694 57.0567C45.5549 56.8895 45.2568 56.7405 45.1622 56.9137Z" fill="#FFA78F"/>
<path d="M49.287 56.6573C48.7134 55.5963 47.6022 54.8603 46.4295 54.6458C46.3275 54.6271 46.33 54.7611 46.4149 54.7872C47.5491 55.1365 48.3505 55.8198 49.013 56.7845C49.1106 56.9265 49.3812 56.8317 49.287 56.6573Z" fill="#FFA78F"/>
<path d="M28.0441 52.0754C25.5813 55.5365 24.6046 60.0911 25.5943 64.2467C25.6587 64.5169 26.1244 64.5511 26.0663 64.2315C25.296 59.9953 25.9747 55.9236 28.2479 52.2434C28.3256 52.1176 28.1337 51.9493 28.0441 52.0754Z" fill="#FFA78F"/>
<path d="M33.2978 71.1561C30.2415 70.5182 27.8464 68.153 27.3575 65.0446C27.3349 64.9003 27.095 64.889 27.1152 65.0524C27.5221 68.3321 29.9702 71.1015 33.2379 71.7339C33.6442 71.8126 33.6642 71.2325 33.2978 71.1561Z" fill="#FFA78F"/>
<path d="M32.356 72.1027C29.3649 71.2033 26.999 69.3243 26.3317 66.1346C26.3014 65.9895 26.0533 65.9754 26.083 66.1426C26.6246 69.1913 29.0814 72.2564 32.2956 72.6867C32.7174 72.7432 32.7117 72.2096 32.356 72.1027Z" fill="#FFA78F"/>
<path d="M34.406 68.8378C32.8213 67.8458 31.3726 66.9016 30.4755 65.1826C29.4647 63.2457 29.4819 60.9914 30.166 58.9568C30.2211 58.7927 29.9541 58.6472 29.8878 58.822C28.4299 62.6661 30.0011 68.1187 34.2435 69.4946C34.6945 69.641 34.7043 69.0245 34.406 68.8378Z" fill="#FFA78F"/>
<path d="M34.7367 67.5668C31.7573 66.0196 30.3068 62.7985 31.3318 59.5453C31.3801 59.392 31.1338 59.2548 31.0717 59.4193C29.7779 62.8478 31.1199 66.6074 34.4555 68.259C34.9452 68.5015 35.1907 67.8025 34.7367 67.5668Z" fill="#FFA78F"/>
<path d="M33.2606 50.8519C32.4028 52.922 31.4257 54.9237 30.6241 57.0189C30.5683 57.1647 30.7996 57.2882 30.8721 57.1391C31.8529 55.123 32.6451 53.0418 33.569 51.0015C33.6491 50.8245 33.3394 50.6616 33.2606 50.8519Z" fill="#FFA78F"/>
<path d="M34.3512 51.5181C33.6097 52.9557 33.1656 54.5561 32.5707 56.0572C32.5132 56.2022 32.7494 56.3281 32.8187 56.1774C33.4917 54.7139 34.3388 53.2924 34.8654 51.7674C34.9709 51.4617 34.5094 51.2115 34.3512 51.5181Z" fill="#FFA78F"/>
<path d="M42.6866 37.3612C38.6838 39.6816 35.928 43.8749 34.6833 48.2627C34.6434 48.4035 34.8741 48.5275 34.9191 48.377C36.2715 43.8572 39.1977 40.4655 43.0051 37.786C43.2683 37.6008 42.9447 37.2115 42.6866 37.3612Z" fill="#FFA78F"/>
<path d="M44.4946 37.9656C42.5741 38.164 41.2667 39.6812 40.214 41.1702C38.6963 43.3168 37.4422 45.661 36.3772 48.06C36.3009 48.2318 36.5833 48.3782 36.6736 48.2037C37.745 46.1327 38.924 44.1268 40.2347 42.198C41.3716 40.5249 42.5289 38.8764 44.6573 38.5209C44.9905 38.4655 44.7902 37.9351 44.4946 37.9656Z" fill="#FFA78F"/>
<path d="M41.1587 35.3792C37.3952 37.5568 34.6052 40.6337 32.6102 44.4868C32.5381 44.626 32.7792 44.7508 32.8582 44.607C34.8552 40.9747 37.9576 37.9565 41.5378 35.8849C41.8646 35.6957 41.4683 35.2 41.1587 35.3792Z" fill="#FFA78F"/>
<path d="M50.2737 36.4156C48.782 34.5372 45.5298 33.7446 43.3122 34.5897C43.1521 34.6507 43.2385 34.8856 43.3953 34.8735C44.5773 34.7821 45.7032 34.7343 46.8527 35.0912C48.0053 35.4492 48.8333 36.1487 49.783 36.8537C50.0961 37.0861 50.5503 36.7641 50.2737 36.4156Z" fill="#FFA78F"/>
<path d="M49.1106 38.4786C48.038 37.2 46.1968 36.8779 44.6334 37.1121C44.4429 37.1406 44.5035 37.4053 44.6791 37.3955C46.2748 37.306 47.4362 37.9901 48.6996 38.8456C48.9597 39.0216 49.3574 38.7729 49.1106 38.4786Z" fill="#FFA78F"/>
<path d="M48.1468 39.194C47.6057 38.3517 46.2147 38.1375 45.3168 38.3434C45.1112 38.3905 45.2487 38.6694 45.4125 38.6704C45.8853 38.6733 46.3588 38.7404 46.7942 38.932C47.1767 39.1001 47.4632 39.3919 47.825 39.5844C48.096 39.7286 48.2926 39.4209 48.1468 39.194Z" fill="#FFA78F"/>
<path d="M47.2827 39.6064C46.5889 39.2243 45.7031 39.0848 44.9437 38.8784C44.7679 38.8305 44.7209 39.092 44.8755 39.154C45.6049 39.4463 46.4044 39.8786 47.1883 39.9876C47.443 40.023 47.4848 39.7178 47.2827 39.6064Z" fill="#FFA78F"/>
<path d="M46.633 40.3536C46.0193 39.8436 45.1869 39.5708 44.5018 39.1676C44.325 39.0636 44.2418 39.325 44.3975 39.4243C45.0539 39.8428 45.6697 40.4585 46.3876 40.766C46.6681 40.8862 46.8681 40.5491 46.633 40.3536Z" fill="#FFA78F"/>
<path d="M47.4357 47.8458C46.504 49.2863 45.8513 50.8808 45.0719 52.4036C44.9963 52.5512 45.2463 52.677 45.332 52.5296C46.1822 51.0651 47.1638 49.6682 47.8642 48.121C47.9668 47.8944 47.5814 47.6206 47.4357 47.8458Z" fill="#FFA78F"/>
<path d="M49.9911 47.6851C49.2371 49.3196 48.5923 51.0132 47.9078 52.6778C47.8412 52.8398 48.108 52.9814 48.186 52.8127C48.94 51.1808 49.7419 49.5585 50.4265 47.8962C50.5311 47.6426 50.1129 47.421 49.9911 47.6851Z" fill="#FFA78F"/>
<path d="M52.1484 46.4113C50.8591 49.0651 49.5989 51.736 48.2707 54.3702C48.202 54.5064 48.438 54.63 48.5125 54.4875C49.882 51.8712 51.3209 49.2889 52.7291 46.6929C52.9014 46.3752 52.3192 46.0597 52.1484 46.4113Z" fill="#FFA78F"/>
<path d="M46.1437 58.8624C45.3349 60.3882 44.1564 61.8666 43.5956 63.5057C43.5087 63.7599 43.892 64.0675 44.0749 63.8135C45.1045 62.3837 45.624 60.5605 46.4098 58.9915C46.4851 58.8412 46.2265 58.7065 46.1437 58.8624Z" fill="#FFA78F"/>
<path d="M45.2445 58.5898C44.5715 59.8372 43.7075 61.0746 43.21 62.4031C43.1211 62.6407 43.5044 62.9375 43.6611 62.6928C44.4383 61.479 44.9196 60.031 45.5227 58.7246C45.597 58.564 45.3318 58.4282 45.2445 58.5898Z" fill="#FFA78F"/>
<path d="M44.4209 55.947C43.6524 57.3905 42.7356 58.7694 42.0727 60.2671C41.983 60.4697 42.3305 60.7181 42.4562 60.5132C43.3219 59.102 43.9451 57.5526 44.7053 56.0848C44.7874 55.9258 44.5097 55.7803 44.4209 55.947Z" fill="#FFA78F"/>
<path d="M43.0622 56.0487C42.3502 57.2791 41.5535 58.5382 41.0366 59.8661C40.9579 60.0684 41.2888 60.3195 41.42 60.1122C42.1937 58.8902 42.7404 57.4946 43.3162 56.1718C43.3813 56.0219 43.1453 55.9051 43.0622 56.0487Z" fill="#FFA78F"/>
<path d="M47.0426 58.4818C45.783 60.5411 44.4359 62.8782 43.6487 65.1611C43.538 65.482 44.0532 65.897 44.2633 65.5558C45.5419 63.4807 46.5074 60.949 47.3075 58.6519C47.3557 58.5136 47.1325 58.3348 47.0426 58.4818Z" fill="#FFA78F"/>
<path d="M30.6827 53.1188C30.483 53.6135 30.2851 54.1065 30.1066 54.6094C30.0524 54.7623 30.2983 54.8965 30.3667 54.7354C30.5749 54.2443 30.762 53.7473 30.9488 53.2478C31.0072 53.0915 30.7494 52.9535 30.6827 53.1188Z" fill="#FFA78F"/>
<path d="M32.734 49.011C32.1889 49.8264 31.6343 50.638 31.1678 51.5019C31.0555 51.7098 31.4322 51.9644 31.5681 51.7589C32.1105 50.9391 32.5647 50.0656 33.027 49.1992C33.1086 49.0466 32.8344 48.8609 32.734 49.011Z" fill="#FFA78F"/>
<path d="M30.5252 48.4101C29.9984 49.3462 29.4716 50.2823 28.9448 51.2185C28.8669 51.3569 29.1164 51.4894 29.1988 51.3416C29.7217 50.4036 30.2444 49.4655 30.7672 48.5274C30.841 48.3949 30.604 48.2702 30.5252 48.4101Z" fill="#FFA78F"/>
<path d="M29.8508 48.0288C29.2628 49.1276 28.667 50.2223 28.1039 51.3342C28.011 51.5176 28.3308 51.6857 28.4304 51.4925C29.0019 50.3857 29.5404 49.2625 30.0866 48.1431C30.1522 48.0089 29.9245 47.8912 29.8508 48.0288Z" fill="#FFA78F"/>
<path d="M31.6264 44.9126C31.1837 45.6535 30.7192 46.385 30.3242 47.1528C30.2408 47.3151 30.5362 47.5154 30.6343 47.3519C31.08 46.6098 31.4599 45.8297 31.8575 45.061C31.92 44.9401 31.6992 44.7905 31.6264 44.9126Z" fill="#FFA78F"/>
<path d="M32.6708 45.8462C32.4502 46.2598 32.2296 46.6736 32.009 47.0872C31.934 47.2278 32.1834 47.3596 32.263 47.2103C32.4837 46.7967 32.7043 46.3831 32.9249 45.9694C32.9999 45.8287 32.7505 45.6969 32.6708 45.8462Z" fill="#FFA78F"/>
<path d="M34.0585 45.8295C33.8048 46.351 33.5484 46.8708 33.3079 47.3985C33.2271 47.5757 33.5257 47.7322 33.6164 47.5481C33.8724 47.0277 34.1121 46.5 34.3548 45.9733C34.4332 45.8035 34.145 45.652 34.0585 45.8295Z" fill="#FFA78F"/>
<path d="M33.6997 69.3073C29.0847 67.1616 27.1663 62.1028 29.3402 57.4504C29.375 57.3759 29.2497 57.3107 29.2102 57.3874C26.8754 61.917 28.8239 67.6612 33.5456 69.6869C33.819 69.8043 33.9563 69.4266 33.6997 69.3073Z" fill="#FFA78F"/>
<path d="M33.7608 70.6677C30.9652 69.9262 28.8609 67.9109 27.9498 65.1678C27.9255 65.0945 27.7866 65.104 27.8085 65.1908C28.5351 68.0603 30.8481 70.3335 33.7214 71.0488C33.9871 71.115 33.9971 70.7304 33.7608 70.6677Z" fill="#FFA78F"/>
<path d="M33.4637 71.8774C29.8655 71.3884 27.5145 69.1629 26.979 65.5353C26.9688 65.4664 26.8376 65.4367 26.8381 65.5222C26.8656 69.0533 29.9185 72.1832 33.474 72.2196C33.6868 72.2219 33.6492 71.9025 33.4637 71.8774Z" fill="#FFA78F"/>
<path d="M28.9472 51.9914C27.0413 55.0827 26.2167 58.7442 26.4362 62.3501C26.4412 62.4317 26.5731 62.4354 26.5701 62.3458C26.4452 58.6803 27.3894 55.32 29.2123 52.1616C29.2906 52.0258 29.0324 51.853 28.9472 51.9914Z" fill="#FFA78F"/>
<path d="M27.0827 52.4152C24.484 56.2214 23.9196 61.2958 25.3814 65.6274C25.4045 65.6959 25.5351 65.6867 25.5135 65.6059C24.3039 61.0583 25.0298 56.6405 27.3703 52.6C27.4557 52.4525 27.1823 52.2695 27.0827 52.4152Z" fill="#FFA78F"/>
<path d="M29.9268 55.5125C29.761 55.8834 29.5865 56.2723 29.4709 56.6619C29.4411 56.7623 29.5818 56.8399 29.6372 56.7425C29.8375 56.3903 29.9959 55.995 30.1475 55.6196C30.1996 55.4908 29.987 55.3778 29.9268 55.5125Z" fill="#FFA78F"/>
<path d="M31.9083 48.283C31.2355 48.9334 30.7865 49.8328 30.5281 50.7214C30.5043 50.803 30.6321 50.8772 30.6672 50.7888C31.0177 49.9079 31.5383 49.1946 32.1463 48.479C32.2632 48.3414 32.0332 48.1623 31.9083 48.283Z" fill="#FFA78F"/>
<path d="M33.5336 49.2457C33.0079 50.1714 32.4902 51.1001 31.9769 52.0329C31.939 52.1014 32.0675 52.1876 32.1093 52.1179C32.6616 51.1983 33.2083 50.2767 33.7483 49.3498C33.8156 49.2342 33.6043 49.1212 33.5336 49.2457Z" fill="#FFA78F"/>
<path d="M34.5796 49.755C33.9486 51.1665 33.2961 52.5681 32.6728 53.983C32.6396 54.0584 32.7638 54.1231 32.8028 54.0461C33.5019 52.6676 34.1723 51.2751 34.8639 49.8928C34.9436 49.7335 34.6574 49.5809 34.5796 49.755Z" fill="#FFA78F"/>
<path d="M32.3534 54.8271C31.7599 55.8001 31.3391 56.8641 31.1536 57.9908C31.1353 58.102 31.3182 58.1524 31.3433 58.0321C31.5737 56.9244 31.9281 55.8965 32.469 54.9014C32.5016 54.8414 32.3903 54.7665 32.3534 54.8271Z" fill="#FFA78F"/>
<path d="M34.6122 66.6181C31.992 63.9105 31.2544 60.8931 32.5451 57.3026C32.5696 57.2347 32.4584 57.1474 32.4155 57.2194C30.5778 60.2992 31.4037 64.7974 34.396 66.8804C34.5997 67.0222 34.7812 66.7928 34.6122 66.6181Z" fill="#FFA78F"/>
<path d="M42.0152 37.5381C38.9942 39.1094 36.7106 41.7547 35.1817 44.7527C35.1478 44.8191 35.2625 44.8787 35.2996 44.81C36.9203 41.8062 39.3543 39.5936 42.2431 37.842C42.4408 37.722 42.2017 37.4411 42.0152 37.5381Z" fill="#FFA78F"/>
<path d="M43.6403 35.4304C39.8079 36.3219 36.5497 38.9882 34.7964 42.4917C34.7561 42.5721 34.8937 42.6433 34.9385 42.5607C36.8273 39.077 39.9485 36.7249 43.7664 35.7234C43.9638 35.6716 43.817 35.3892 43.6403 35.4304Z" fill="#FFA78F"/>
<path d="M49.4743 37.1891C48.3652 35.7683 46.0859 34.7544 44.3093 35.3989C44.2224 35.4305 44.2785 35.5364 44.3509 35.5408C46.3153 35.6585 47.7558 36.0239 49.1981 37.4357C49.3632 37.5974 49.6203 37.3762 49.4743 37.1891Z" fill="#FFA78F"/>
<path d="M49.1091 38.1854C47.5586 36.6863 45.1802 36.2041 43.2079 37.1017C43.1229 37.1403 43.1831 37.2623 43.2663 37.2376C45.3143 36.629 47.3065 36.9991 48.9214 38.4131C49.0835 38.555 49.2598 38.331 49.1091 38.1854Z" fill="#FFA78F"/>
<path d="M48.7581 38.9973C47.7486 38.1789 46.5018 37.6632 45.1875 37.7418C45.0949 37.7473 45.107 37.8851 45.1922 37.8943C46.4508 38.0295 47.5643 38.4356 48.4946 39.3171C48.7101 39.5213 48.992 39.1869 48.7581 38.9973Z" fill="#FFA78F"/>
<path d="M30.5522 29.9686C28.7663 24.8254 26.3377 19.5875 23.5462 14.9121C22.4691 13.108 19.1796 14.369 20.2689 16.4337C21.5721 18.9038 23.1243 21.2548 24.6899 23.5644C26.2684 25.8928 27.8108 28.2332 29.5907 30.415C29.9816 30.8942 30.7812 30.6282 30.5522 29.9686Z" fill="#FFA78F"/>
<path d="M23.1329 38.8758C20.2957 37.0546 17.437 35.2691 14.5787 33.4813C13.2317 32.6388 11.8829 31.8047 10.5115 31.0022C9.10475 30.179 7.52016 28.8665 5.88985 28.6448C4.49745 28.4555 3.24976 29.993 4.34762 31.2063C5.47078 32.4476 7.02438 33.0011 8.50963 33.7267C10.087 34.4973 11.671 35.2436 13.2712 35.966C16.3819 37.3705 19.49 38.7784 22.6173 40.1456C23.564 40.5595 23.8963 39.3659 23.1329 38.8758Z" fill="#FFA78F"/>
<path d="M18.4512 50.6408C15.3995 50.5145 12.3625 50.2832 9.30568 50.2954C7.84132 50.3013 6.37325 50.3209 4.90959 50.3646C3.45487 50.4078 1.92077 50.3122 0.623992 51.0365C-0.499052 51.6638 0.0421031 53.4552 1.07753 53.8508C2.45229 54.3763 3.79352 54.2341 5.24313 54.1431C6.7842 54.0463 8.32817 53.9128 9.8654 53.7682C12.8509 53.4874 15.7916 52.9644 18.7582 52.545C20.0721 52.3593 19.6011 50.6883 18.4512 50.6408Z" fill="#FFA78F"/>
<path d="M62.0531 78.122C60.6823 75.6968 58.7827 73.5239 57.0924 71.3137C55.4116 69.1162 53.6061 67.1688 51.6145 65.2579C51.1489 64.8112 50.3788 65.2941 50.6379 65.9016C51.6693 68.3198 52.8111 70.583 54.2175 72.8119C55.6518 75.085 56.9685 77.6218 58.7023 79.6777C59.3252 80.4162 60.3308 80.8567 61.2593 80.4175C62.0608 80.0386 62.5217 78.951 62.0531 78.122Z" fill="#FFA78F"/>
<path d="M69.4135 60.1447C67.2464 58.9537 64.7852 58.1755 62.4807 57.2881C60.2592 56.4326 58.0397 55.5479 55.6618 55.3157C54.9669 55.2479 54.6158 56.0143 55.1826 56.4788C57.1249 58.071 59.389 59.0877 61.666 60.1245C63.9568 61.1676 66.2709 62.3621 68.686 63.0849C70.6515 63.6729 70.8687 60.9444 69.4135 60.1447Z" fill="#FFA78F"/>
<path d="M74.4452 41.3259C71.523 41.6805 68.6084 42.469 65.7523 43.168C64.3316 43.5157 62.9219 43.8212 61.4803 44.069C60.1186 44.303 58.5773 44.3924 57.3627 45.0804C56.8078 45.3946 57.2183 46.2248 57.727 46.3164C59.0574 46.5562 60.4482 46.2343 61.7759 46.0507C63.337 45.8347 64.8818 45.6754 66.4543 45.5648C69.4311 45.3554 72.486 45.2143 75.4206 44.6561C77.4098 44.2774 76.22 41.1105 74.4452 41.3259Z" fill="#FFA78F"/>
</svg>
