<svg preserveAspectRatio="none" width="100%" height="100%" overflow="visible" style="display: block;" viewBox="0 0 26.2502 26.25" fill="none" xmlns="http://www.w3.org/2000/svg">
<g id="Group">
<path id="Vector" d="M0.9375 4.6875C1.18614 4.6875 1.4246 4.58873 1.60041 4.41291C1.77623 4.2371 1.875 3.99864 1.875 3.75V3.20063L4.02469 5.35031C4.11155 5.43767 4.21483 5.507 4.32858 5.55431C4.44233 5.60162 4.5643 5.62597 4.6875 5.62597C4.8107 5.62597 4.93267 5.60162 5.04642 5.55431C5.16017 5.507 5.26345 5.43767 5.35031 5.35031C5.52607 5.17451 5.6248 4.93609 5.6248 4.6875C5.6248 4.43891 5.52607 4.20049 5.35031 4.02469L3.20063 1.875H3.75C3.99864 1.875 4.2371 1.77623 4.41291 1.60041C4.58873 1.4246 4.6875 1.18614 4.6875 0.9375C4.6875 0.68886 4.58873 0.450403 4.41291 0.274587C4.2371 0.098772 3.99864 0 3.75 0H0.9375C0.68886 0 0.450403 0.098772 0.274587 0.274587C0.098772 0.450403 0 0.68886 0 0.9375V3.75C0 3.99864 0.098772 4.2371 0.274587 4.41291C0.450403 4.58873 0.68886 4.6875 0.9375 4.6875ZM4.02469 20.8997L1.875 23.0494V22.5C1.875 22.2514 1.77623 22.0129 1.60041 21.8371C1.4246 21.6613 1.18614 21.5625 0.9375 21.5625C0.68886 21.5625 0.450403 21.6613 0.274587 21.8371C0.098772 22.0129 0 22.2514 0 22.5V25.3125C0 25.5611 0.098772 25.7996 0.274587 25.9754C0.450403 26.1512 0.68886 26.25 0.9375 26.25H3.75C3.99864 26.25 4.2371 26.1512 4.41291 25.9754C4.58873 25.7996 4.6875 25.5611 4.6875 25.3125C4.6875 25.0639 4.58873 24.8254 4.41291 24.6496C4.2371 24.4738 3.99864 24.375 3.75 24.375H3.20063L5.35031 22.2253C5.43985 22.1388 5.51127 22.0354 5.56041 21.921C5.60954 21.8066 5.6354 21.6836 5.63649 21.5591C5.63757 21.4346 5.61385 21.3112 5.56671 21.196C5.51957 21.0808 5.44996 20.9761 5.36193 20.8881C5.27391 20.8 5.16923 20.7304 5.05402 20.6833C4.9388 20.6362 4.81535 20.6124 4.69087 20.6135C4.56639 20.6146 4.44337 20.6405 4.329 20.6896C4.21462 20.7387 4.11117 20.8101 4.02469 20.8997ZM25.3125 21.5625C25.0639 21.5625 24.8254 21.6613 24.6496 21.8371C24.4738 22.0129 24.375 22.2514 24.375 22.5V23.0494L22.2253 20.8997C22.1388 20.8101 22.0354 20.7387 21.921 20.6896C21.8066 20.6405 21.6836 20.6146 21.5591 20.6135C21.4346 20.6124 21.3112 20.6362 21.196 20.6833C21.0808 20.7304 20.9761 20.8 20.8881 20.8881C20.8 20.9761 20.7304 21.0808 20.6833 21.196C20.6362 21.3112 20.6124 21.4346 20.6135 21.5591C20.6146 21.6836 20.6405 21.8066 20.6896 21.921C20.7387 22.0354 20.8101 22.1388 20.8997 22.2253L23.0494 24.375H22.5C22.2514 24.375 22.0129 24.4738 21.8371 24.6496C21.6613 24.8254 21.5625 25.0639 21.5625 25.3125C21.5625 25.5611 21.6613 25.7996 21.8371 25.9754C22.0129 26.1512 22.2514 26.25 22.5 26.25H25.3125C25.5611 26.25 25.7996 26.1512 25.9754 25.9754C26.1512 25.7996 26.25 25.5611 26.25 25.3125V22.5C26.25 22.2514 26.1512 22.0129 25.9754 21.8371C25.7996 21.6613 25.5611 21.5625 25.3125 21.5625ZM21.5625 5.625C21.6856 5.62513 21.8076 5.60093 21.9213 5.55379C22.0351 5.50665 22.1384 5.4375 22.2253 5.35031L24.375 3.20063V3.75C24.375 3.99864 24.4738 4.2371 24.6496 4.41291C24.8254 4.58873 25.0639 4.6875 25.3125 4.6875C25.5611 4.6875 25.7996 4.58873 25.9754 4.41291C26.1512 4.2371 26.25 3.99864 26.25 3.75V0.9375C26.25 0.68886 26.1512 0.450403 25.9754 0.274587C25.7996 0.098772 25.5611 0 25.3125 0H22.5C22.2514 0 22.0129 0.098772 21.8371 0.274587C21.6613 0.450403 21.5625 0.68886 21.5625 0.9375C21.5625 1.18614 21.6613 1.4246 21.8371 1.60041C22.0129 1.77623 22.2514 1.875 22.5 1.875H23.0494L20.8997 4.02469C20.7686 4.1558 20.6794 4.32283 20.6432 4.50466C20.607 4.68649 20.6256 4.87496 20.6966 5.04624C20.7675 5.21752 20.8876 5.36392 21.0418 5.46694C21.1959 5.56996 21.3771 5.62496 21.5625 5.625ZM14.04 7.6125C14.7835 7.80126 15.4515 8.21307 15.9541 8.7926C16.4567 9.37213 16.7699 10.0916 16.8516 10.8544L18.4453 9.4875C18.53 9.41452 18.6382 9.37437 18.75 9.37437C18.8618 9.37437 18.97 9.41452 19.0547 9.4875L20.625 10.8206C20.4169 7.13719 17.535 4.12406 13.8984 3.75L12.3375 5.625L14.04 7.6125Z" fill="var(--fill-0, #0A4B6E)"/>
<path id="Vector_2" d="M7.49999 12.0384L9.48656 10.3369C9.48656 10.3331 9.48656 10.3294 9.48843 10.3256C9.67556 9.58253 10.0866 8.91491 10.6658 8.41318C11.245 7.91145 11.9644 7.59987 12.7266 7.52063L11.3634 5.92969C11.2904 5.84495 11.2503 5.73683 11.2503 5.625C11.2503 5.51317 11.2904 5.40505 11.3634 5.32031L12.6937 3.75C12.3553 3.76875 12.0131 3.82219 11.6681 3.88687C8.83218 4.42031 6.51468 6.63563 5.84062 9.44156C5.75812 9.78844 5.65874 10.1316 5.62406 10.4709L7.49999 12.0384Z" fill="var(--fill-0, #0A4B6E)"/>
<path id="Vector_3" d="M7.80469 13.0125C7.71995 13.0855 7.61183 13.1256 7.5 13.1256C7.38817 13.1256 7.28005 13.0855 7.19531 13.0125L5.64187 11.6812C5.69062 12.5184 5.87437 13.32 6.17531 14.0625H10.6706C9.95849 13.4438 9.50643 12.5788 9.405 11.6409L7.80469 13.0125ZM24.1022 18.5878L26.0438 17.265C26.1074 17.2218 26.1594 17.1636 26.1954 17.0956C26.2314 17.0277 26.2502 16.9519 26.2502 16.875C26.2502 16.7981 26.2314 16.7223 26.1954 16.6544C26.1594 16.5864 26.1074 16.5282 26.0438 16.485L24.1022 15.1631C23.9466 15.057 23.7627 15.0001 23.5744 15H20.6719C19.868 16.6109 18.5723 17.9243 16.9725 18.75H23.5744C23.7626 18.7501 23.9465 18.6936 24.1022 18.5878ZM11.37 15H0.9375C0.68886 15 0.450403 15.0988 0.274587 15.2746C0.098772 15.4504 0 15.6889 0 15.9375V17.8125C0 18.0611 0.098772 18.2996 0.274587 18.4754C0.450403 18.6512 0.68886 18.75 0.9375 18.75H11.3691L12.9759 16.875L11.37 15Z" fill="var(--fill-0, #0A4B6E)"/>
<path id="Vector_4" d="M20.5753 12.0253L18.75 10.4606L16.7466 12.1781C16.3031 13.8206 14.7216 15 12.9469 15H12.6028L13.9481 16.5703C14.0211 16.6551 14.0612 16.7632 14.0612 16.875C14.0612 16.9868 14.0211 17.095 13.9481 17.1797L12.6037 18.75H12.8606C16.7662 18.75 20.1722 15.8653 20.5753 12.0253Z" fill="var(--fill-0, #0A4B6E)"/>
</g>
</svg>
