<svg preserveAspectRatio="none" width="100%" height="100%" overflow="visible" style="display: block;" viewBox="0 0 29.5298 29.5298" fill="none" xmlns="http://www.w3.org/2000/svg">
<g id="Group">
<path id="Vector" d="M17.0533 4.20067C17.0533 4.70224 17.4922 5.14111 17.9938 5.14111H20.5016L15.4233 10.2195L11.6615 6.45772L4.20068 14.0439L5.5173 15.3605L11.7869 9.09095L15.5486 12.8527L21.9436 6.45772V8.96556C21.9436 9.46713 22.3825 9.906 22.8841 9.906C23.3856 9.906 23.8245 9.46713 23.8245 8.96556V3.26023H18.0565C17.4922 3.26023 17.0533 3.6991 17.0533 4.20067Z" fill="var(--fill-0, #0A4B6E)"/>
<path id="Vector_2" d="M8.15051 13.9812H10.0314V16.1129H8.15051V13.9812ZM11.5361 12.2257H13.417V16.1129H11.5361V12.2257ZM14.9844 13.9812H16.8652V16.1129H14.9844V13.9812ZM18.4326 12.2257H20.3135V16.1129H18.4326V12.2257ZM21.8809 10.8464H23.7618V16.1129H21.8809V10.8464Z" fill="var(--fill-0, #0A4B6E)"/>
<path id="Vector_3" d="M27.0846 0H2.38245C1.06583 0 0 1.06583 0 2.38245V21.9436C0 23.2602 1.06583 24.326 2.38245 24.326H7.7116L5.70533 27.6489H3.44828V29.5298H26.0188V27.6489H23.8245L21.8182 24.326H27.1473C28.464 24.326 29.5298 23.2602 29.5298 21.9436V2.38245C29.4671 1.06583 28.4013 0 27.0846 0ZM7.89969 27.5862L9.90596 24.2633H19.6238L21.6301 27.5862H7.89969ZM13.5423 20.9404C13.5423 20.2508 14.1066 19.7492 14.7335 19.7492C15.3605 19.7492 15.9248 20.3135 15.9248 20.9404C15.9248 21.6301 15.3605 22.1317 14.7335 22.1317C14.1066 22.1317 13.5423 21.5674 13.5423 20.9404ZM27.5862 17.5549H1.88088V2.38245C1.88088 2.13166 2.06897 1.88088 2.38245 1.88088H27.1473C27.3981 1.88088 27.6489 2.06897 27.6489 2.38245V17.5549H27.5862Z" fill="var(--fill-0, #0A4B6E)"/>
</g>
</svg>
