<svg preserveAspectRatio="none" width="100%" height="100%" overflow="visible" style="display: block;" viewBox="0 0 26.25 26.25" fill="none" xmlns="http://www.w3.org/2000/svg">
<g id="Group">
<path id="Vector" d="M19.6875 20.625C19.6875 21.6591 18.8466 22.5 17.8125 22.5H16.875V24.375H17.8125C19.8806 24.375 21.5625 22.6931 21.5625 20.625V12.1875H19.6875V20.625ZM8.4375 8.4375C8.4375 7.40344 9.27844 6.5625 10.3125 6.5625H10.8619L10.5872 6.83719C10.4976 6.92367 10.4262 7.02712 10.3771 7.1415C10.328 7.25587 10.3021 7.37889 10.301 7.50337C10.2999 7.62785 10.3237 7.7513 10.3708 7.86652C10.4179 7.98173 10.4875 8.08641 10.5756 8.17443C10.6636 8.26246 10.7683 8.33207 10.8835 8.37921C10.9987 8.42635 11.1221 8.45007 11.2466 8.44899C11.3711 8.4479 11.4941 8.42204 11.6085 8.37291C11.7229 8.32377 11.8263 8.25235 11.9128 8.16281L13.7878 6.28781C13.9636 6.11201 14.0623 5.87359 14.0623 5.625C14.0623 5.37641 13.9636 5.13799 13.7878 4.96219L11.9128 3.08719C11.8263 2.99765 11.7229 2.92623 11.6085 2.87709C11.4941 2.82796 11.3711 2.8021 11.2466 2.80102C11.1221 2.79993 10.9987 2.82365 10.8835 2.87079C10.7683 2.91793 10.6636 2.98754 10.5756 3.07557C10.4875 3.16359 10.4179 3.26827 10.3708 3.38348C10.3237 3.4987 10.2999 3.62215 10.301 3.74663C10.3021 3.87111 10.328 3.99413 10.3771 4.1085C10.4262 4.22288 10.4976 4.32633 10.5872 4.41281L10.8619 4.6875H10.3125C8.24437 4.6875 6.5625 6.36937 6.5625 8.4375V13.125H8.4375V8.4375ZM14.0625 20.625H1.875C1.37772 20.625 0.900805 20.8225 0.549175 21.1742C0.197544 21.5258 0 22.0027 0 22.5V24.375C0 24.8723 0.197544 25.3492 0.549175 25.7008C0.900805 26.0525 1.37772 26.25 1.875 26.25H14.0625C14.5598 26.25 15.0367 26.0525 15.3883 25.7008C15.74 25.3492 15.9375 24.8723 15.9375 24.375V22.5C15.9375 22.0027 15.74 21.5258 15.3883 21.1742C15.0367 20.8225 14.5598 20.625 14.0625 20.625ZM6.09375 23.9062H2.34375C2.21943 23.9062 2.1002 23.8569 2.01229 23.769C1.92439 23.681 1.875 23.5618 1.875 23.4375C1.875 23.3132 1.92439 23.194 2.01229 23.106C2.1002 23.0181 2.21943 22.9688 2.34375 22.9688H6.09375C6.21807 22.9688 6.3373 23.0181 6.42521 23.106C6.51311 23.194 6.5625 23.3132 6.5625 23.4375C6.5625 23.5618 6.51311 23.681 6.42521 23.769C6.3373 23.8569 6.21807 23.9062 6.09375 23.9062ZM10.3125 24.375C10.0639 24.375 9.8254 24.2762 9.64959 24.1004C9.47377 23.9246 9.375 23.6861 9.375 23.4375C9.375 23.1889 9.47377 22.9504 9.64959 22.7746C9.8254 22.5988 10.0639 22.5 10.3125 22.5C10.5611 22.5 10.7996 22.5988 10.9754 22.7746C11.1512 22.9504 11.25 23.1889 11.25 23.4375C11.25 23.6861 11.1512 23.9246 10.9754 24.1004C10.7996 24.2762 10.5611 24.375 10.3125 24.375ZM13.125 24.375C12.8764 24.375 12.6379 24.2762 12.4621 24.1004C12.2863 23.9246 12.1875 23.6861 12.1875 23.4375C12.1875 23.1889 12.2863 22.9504 12.4621 22.7746C12.6379 22.5988 12.8764 22.5 13.125 22.5C13.3736 22.5 13.6121 22.5988 13.7879 22.7746C13.9637 22.9504 14.0625 23.1889 14.0625 23.4375C14.0625 23.6861 13.9637 23.9246 13.7879 24.1004C13.6121 24.2762 13.3736 24.375 13.125 24.375ZM14.0625 14.0625H1.875C1.37772 14.0625 0.900805 14.26 0.549175 14.6117C0.197544 14.9633 0 15.4402 0 15.9375V17.8125C0 18.3098 0.197544 18.7867 0.549175 19.1383C0.900805 19.49 1.37772 19.6875 1.875 19.6875H14.0625C14.5598 19.6875 15.0367 19.49 15.3883 19.1383C15.74 18.7867 15.9375 18.3098 15.9375 17.8125V15.9375C15.9375 15.4402 15.74 14.9633 15.3883 14.6117C15.0367 14.26 14.5598 14.0625 14.0625 14.0625ZM6.09375 17.3438H2.34375C2.21943 17.3438 2.1002 17.2944 2.01229 17.2065C1.92439 17.1185 1.875 16.9993 1.875 16.875C1.875 16.7507 1.92439 16.6315 2.01229 16.5435C2.1002 16.4556 2.21943 16.4062 2.34375 16.4062H6.09375C6.21807 16.4062 6.3373 16.4556 6.42521 16.5435C6.51311 16.6315 6.5625 16.7507 6.5625 16.875C6.5625 16.9993 6.51311 17.1185 6.42521 17.2065C6.3373 17.2944 6.21807 17.3438 6.09375 17.3438ZM10.3125 17.8125C10.0639 17.8125 9.8254 17.7137 9.64959 17.5379C9.47377 17.3621 9.375 17.1236 9.375 16.875C9.375 16.6264 9.47377 16.3879 9.64959 16.2121C9.8254 16.0363 10.0639 15.9375 10.3125 15.9375C10.5611 15.9375 10.7996 16.0363 10.9754 16.2121C11.1512 16.3879 11.25 16.6264 11.25 16.875C11.25 17.1236 11.1512 17.3621 10.9754 17.5379C10.7996 17.7137 10.5611 17.8125 10.3125 17.8125ZM13.125 17.8125C12.8764 17.8125 12.6379 17.7137 12.4621 17.5379C12.2863 17.3621 12.1875 17.1236 12.1875 16.875C12.1875 16.6264 12.2863 16.3879 12.4621 16.2121C12.6379 16.0363 12.8764 15.9375 13.125 15.9375C13.3736 15.9375 13.6121 16.0363 13.7879 16.2121C13.9637 16.3879 14.0625 16.6264 14.0625 16.875C14.0625 17.1236 13.9637 17.3621 13.7879 17.5379C13.6121 17.7137 13.3736 17.8125 13.125 17.8125ZM25.3125 5.625C25.3125 5.50068 25.3619 5.38145 25.4498 5.29354C25.5377 5.20564 25.6569 5.15625 25.7812 5.15625H26.25C26.0231 2.42812 23.8219 0.226875 21.0938 0V0.46875C21.0938 0.59307 21.0444 0.712299 20.9565 0.800206C20.8685 0.888114 20.7493 0.9375 20.625 0.9375C20.5007 0.9375 20.3815 0.888114 20.2935 0.800206C20.2056 0.712299 20.1562 0.59307 20.1562 0.46875V0C17.4281 0.226875 15.2269 2.42812 15 5.15625H15.4688C15.5931 5.15625 15.7123 5.20564 15.8002 5.29354C15.8881 5.38145 15.9375 5.50068 15.9375 5.625C15.9375 5.74932 15.8881 5.86855 15.8002 5.95646C15.7123 6.04436 15.5931 6.09375 15.4688 6.09375H15C15.2269 8.82188 17.4281 11.0231 20.1562 11.25V10.7812C20.1562 10.6569 20.2056 10.5377 20.2935 10.4498C20.3815 10.3619 20.5007 10.3125 20.625 10.3125C20.7493 10.3125 20.8685 10.3619 20.9565 10.4498C21.0444 10.5377 21.0938 10.6569 21.0938 10.7812V11.25C23.8219 11.0231 26.0231 8.82188 26.25 6.09375H25.7812C25.6569 6.09375 25.5377 6.04436 25.4498 5.95646C25.3619 5.86855 25.3125 5.74932 25.3125 5.625ZM23.3503 2.61656L21.0066 5.89781C20.9631 5.95848 20.9059 6.00791 20.8395 6.04198C20.7731 6.07606 20.6996 6.09381 20.625 6.09375H18.2812C18.1569 6.09375 18.0377 6.04436 17.9498 5.95646C17.8619 5.86855 17.8125 5.74932 17.8125 5.625C17.8125 5.50068 17.8619 5.38145 17.9498 5.29354C18.0377 5.20564 18.1569 5.15625 18.2812 5.15625H20.3841L22.5872 2.07094C22.6605 1.97228 22.7696 1.90634 22.891 1.88732C23.0124 1.86831 23.1364 1.89774 23.2364 1.96928C23.3363 2.04081 23.4041 2.14874 23.4253 2.2698C23.4464 2.39087 23.4201 2.51539 23.3503 2.61656Z" fill="var(--fill-0, #0A4B6E)"/>
</g>
</svg>
