<svg width="36" height="36" viewBox="0 0 36 36" fill="none" xmlns="http://www.w3.org/2000/svg">
<path d="M11.1954 8.84942C11.5874 8.84801 12.2353 8.79416 12.5958 8.85919C13.1679 8.96252 12.7427 9.85302 12.9992 10.1824C13.062 10.263 13.8296 10.5834 13.9523 10.6004C14.1991 10.6343 14.5442 10.175 14.7404 10.0291C14.8324 9.96073 14.9389 9.90522 15.0568 9.92852C15.1281 9.94272 15.1877 9.98293 15.2433 10.0281C15.3543 10.1185 16.155 10.9228 16.2111 11.0174C16.4507 11.4243 15.6686 11.791 15.5841 12.1482C15.5472 12.3045 15.7945 12.8917 15.8868 13.0399C16.1176 13.4095 16.6435 13.2094 16.9972 13.2996C17.0828 13.3216 17.1527 13.3767 17.1954 13.4539C17.2317 13.5195 17.248 13.5898 17.255 13.6639C17.2707 13.8301 17.2744 14.9383 17.2296 15.0691C17.0809 15.494 16.331 15.2071 16.0177 15.3875C15.8962 15.4578 15.6146 16.1424 15.5792 16.2986C15.5078 16.6143 16.0764 16.9705 16.216 17.2391C16.2596 17.3232 16.2717 17.4156 16.2355 17.5047C16.1849 17.6286 15.2255 18.5704 15.1027 18.617C14.7628 18.7452 14.3712 18.0925 14.0743 17.9725C14.0208 17.9509 13.9664 17.9471 13.9103 17.9598C13.7758 17.9901 13.647 18.0899 13.5226 18.1492C13.3941 18.2102 13.2475 18.2319 13.1202 18.2977C12.7783 18.4754 12.9796 19.1379 12.8722 19.4568C12.8287 19.5858 12.7499 19.6387 12.6329 19.699C12.3656 19.7122 11.2945 19.7519 11.0968 19.6688C10.7034 19.5026 10.9616 18.7682 10.8136 18.4471C10.7956 18.4079 10.7653 18.364 10.7296 18.3397C10.6167 18.2632 10.0377 18.0126 9.89173 17.9676C9.58564 17.8735 9.18992 18.4773 8.92201 18.6033C8.85198 18.6363 8.7679 18.6506 8.69447 18.619C8.54532 18.5538 7.61592 17.6395 7.56458 17.5008C7.44171 17.167 8.07453 16.7683 8.20521 16.4813C8.30244 16.2672 8.09389 15.981 8.01771 15.783C7.98743 15.7042 7.97295 15.6171 7.93763 15.5408C7.77796 15.1966 7.08762 15.38 6.78138 15.2684C6.70091 15.239 6.63718 15.1883 6.60169 15.1092C6.53405 14.9581 6.5382 13.6274 6.61243 13.4705C6.77221 13.1342 7.46846 13.3367 7.76478 13.2147C7.94551 13.1401 8.04997 12.7232 8.12318 12.5447C8.16407 12.4452 8.24108 12.3 8.23353 12.1912C8.21346 11.9032 7.68564 11.5831 7.5724 11.2879C7.54212 11.2088 7.54212 11.1243 7.58021 11.0477C7.65505 10.8973 8.59477 9.95562 8.72865 9.92364C9.01873 9.85433 9.39945 10.3924 9.63197 10.5408C9.71455 10.5934 9.78971 10.6167 9.88587 10.5906C10.04 10.5486 10.198 10.4563 10.3449 10.3914C10.4499 10.345 10.686 10.2848 10.7579 10.2078C10.998 9.95072 10.7483 9.31466 10.9503 8.99786C11.0086 8.90653 11.0939 8.87188 11.1954 8.84942ZM11.6261 12.1443C10.4451 12.2892 9.60431 13.3636 9.74818 14.5447C9.89217 15.7258 10.9664 16.5665 12.1476 16.4236C13.3301 16.2805 14.1724 15.2057 14.0285 14.0232C13.8844 12.8407 12.8085 11.9993 11.6261 12.1443Z" fill="url(#paint0_linear_386_61043)"/>
<path d="M23.1227 17.5719L26.926 17.5726L28.0564 17.5709C28.217 17.5708 28.6191 17.5569 28.7607 17.585C29.4113 17.714 29.3691 18.5748 28.5812 18.5824C27.2594 18.5603 25.868 18.581 24.5402 18.5819L23.4621 18.5822C23.1909 18.5819 22.8017 18.633 22.5921 18.449C22.4873 18.3569 22.4244 18.226 22.4184 18.0864C22.4124 17.9463 22.4717 17.824 22.5656 17.7217C22.7137 17.5606 22.9195 17.5754 23.1227 17.5719Z" fill="url(#paint1_linear_386_61043)"/>
<path d="M22.7739 14.1749C23.1087 14.1498 23.591 14.1643 23.9405 14.1646L25.9648 14.1644L27.8435 14.1637C28.0531 14.1637 28.2605 14.1634 28.4722 14.1645C28.7222 14.1677 29.0282 14.1445 29.1437 14.4292C29.2846 14.7764 29.1539 15.0219 28.8294 15.1536C28.6423 15.1818 28.1553 15.1703 27.9394 15.1701L26.3236 15.1694L23.8948 15.1703C23.5324 15.1703 23.1245 15.1873 22.7755 15.1467C22.5391 15.1192 22.3642 14.766 22.4331 14.5475C22.5043 14.3212 22.5712 14.273 22.7739 14.1749Z" fill="url(#paint2_linear_386_61043)"/>
<path d="M22.8494 10.7634C23.7515 10.7252 24.8855 10.7588 25.8083 10.7585L27.6179 10.7581C27.8929 10.7581 28.7782 10.7181 28.956 10.8278C29.3407 11.0653 29.2831 11.6123 28.7885 11.7613C26.8755 11.8186 24.9131 11.7231 22.9963 11.762C22.3228 11.7756 22.191 10.9401 22.8494 10.7634Z" fill="url(#paint3_linear_386_61043)"/>
<path d="M19.6934 13.6197C20.0553 13.606 20.6544 13.5761 20.9985 13.6186C21.1245 13.6341 21.2741 13.681 21.3526 13.7879C21.467 13.9439 21.4365 15.2064 21.409 15.4553C21.3105 15.6072 21.2705 15.6431 21.1075 15.7198C20.6691 15.7526 20.021 15.7536 19.5917 15.685C19.3778 15.6068 19.3343 15.1457 19.3604 14.9864C19.436 14.5263 19.1488 13.8162 19.6934 13.6197Z" fill="url(#paint4_linear_386_61043)"/>
<path d="M19.7245 17.032C20.0097 17.0168 20.3121 17.0227 20.5991 17.0205C20.953 17.0177 21.2088 16.9703 21.4158 17.3C21.439 17.588 21.4426 18.5968 21.4138 18.8758C21.3023 19.0353 21.2771 19.0651 21.0933 19.1363C19.4031 19.1907 19.2914 19.3626 19.3679 17.647C19.3826 17.3167 19.367 17.1394 19.7245 17.032Z" fill="url(#paint5_linear_386_61043)"/>
<path d="M19.7639 10.2105C20.0797 10.2077 20.8558 10.1774 21.1796 10.2528C21.5791 10.3458 21.414 11.7965 21.3648 12.1076C21.3503 12.1983 21.1698 12.2892 21.059 12.3205C19.594 12.3288 19.2483 12.6232 19.3603 11.0074C19.3868 10.6227 19.2798 10.3042 19.7639 10.2105Z" fill="url(#paint6_linear_386_61043)"/>
<path d="M6.5663 5.00373L8.62294 5.00471H15.2782L25.3749 5.00373H28.7323C29.3231 5.00369 29.9163 4.99777 30.5058 5.00959C31.427 5.02808 32.2119 5.80059 32.2489 6.72053C32.2627 7.06271 32.277 7.41581 32.2597 7.75862C32.1421 8.11575 32.2049 9.21666 32.2099 9.6385L32.2274 12.4305C32.2127 14.4005 32.2122 16.3708 32.2265 18.3406C32.2275 18.7547 32.1518 20.0364 32.2548 20.3582C32.265 20.6787 32.2489 21.1219 32.2489 21.452V23.7869C32.2453 24.4368 32.1917 24.8224 31.7108 25.3153C31.4911 25.5402 31.0835 25.7765 30.7684 25.7977C29.8024 25.8628 28.8043 25.8113 27.8309 25.8104L21.9647 25.8113L8.38368 25.8065C7.50152 25.8018 6.65252 25.8391 5.77431 25.8387C5.1358 25.842 4.69744 25.744 4.24501 25.2811C3.69209 24.7155 3.75298 24.1606 3.75282 23.4305L3.7538 22.0555L3.73427 17.9988C3.72189 14.8393 3.72648 11.6798 3.74892 8.52033C3.75155 8.33123 3.75167 8.1421 3.75185 7.95295C3.75267 7.04335 3.58159 6.16797 4.32704 5.47932C4.60704 5.21719 4.9665 5.05572 5.34853 5.02131C5.689 4.98813 6.20796 5.00355 6.5663 5.00373ZM17.8817 23.286C17.6716 23.3193 17.5093 23.4302 17.3876 23.6004L17.3817 23.6053C17.1733 23.9215 17.2132 24.2641 17.4267 24.5008C17.449 24.5257 17.4738 24.5487 17.4999 24.5711C17.536 24.6019 17.5742 24.6317 17.6171 24.6571C17.6689 24.6879 17.7259 24.7137 17.787 24.7352C17.7875 24.736 17.7884 24.7372 17.789 24.7381V24.7362C17.7906 24.7367 17.7922 24.7375 17.7938 24.7381C17.9174 24.7571 17.9845 24.7737 18.1102 24.7547C18.557 24.6895 18.8352 24.2875 18.7304 23.8465C18.73 23.8451 18.7288 23.844 18.7284 23.8426C18.7297 23.8439 18.731 23.8452 18.7323 23.8465C18.6845 23.6685 18.597 23.534 18.4472 23.4246C18.3486 23.352 18.234 23.3084 18.1151 23.2899C18.0385 23.2775 17.9599 23.2741 17.8817 23.286ZM25.119 6.61408L15.787 6.61506H9.13075L6.86024 6.61408C6.48256 6.61415 6.03158 6.60339 5.65907 6.61701C5.45991 6.66375 5.33737 6.77127 5.33485 6.99104C5.33176 7.29518 5.33778 7.60151 5.33778 7.90608L5.33681 10.0155V18.9002L5.33583 20.8612C5.33469 21.1922 5.31871 21.5593 5.35341 21.8895C5.36138 21.9648 5.46164 22.0682 5.52626 22.1004C5.60468 22.1409 5.66745 22.1471 5.75771 22.1473C7.1109 22.1504 8.46703 22.1485 9.82021 22.1483H26.1581C27.5287 22.1485 28.9764 22.1725 30.3417 22.1473C30.6126 22.0768 30.6726 21.935 30.6708 21.6668C30.6634 20.6072 30.6667 19.547 30.6669 18.4871V8.74592C30.6674 8.13328 30.7057 7.39824 30.6132 6.7928C30.5912 6.65497 30.3766 6.6168 30.2558 6.61506C28.5435 6.60059 26.8313 6.60075 25.119 6.61408Z" fill="url(#paint7_linear_386_61043)"/>
<path d="M14.9257 26.5956C15.7183 26.5646 16.6394 26.5842 17.4398 26.5849C18.664 26.5858 19.9082 26.5735 21.1298 26.5927C21.166 26.71 21.1912 26.8295 21.2175 26.9495C21.3941 27.7497 21.5335 28.5588 21.7226 29.3563C22.428 29.4446 23.2396 29.3168 23.9517 29.385C24.2599 29.4145 24.3609 29.5695 24.3859 29.8458C24.5088 31.2028 24.0971 30.9874 22.998 30.9867L21.0676 30.9852L15.2211 30.9863C14.2277 30.9863 13.2332 30.9876 12.2398 30.985C12.072 30.9756 11.8698 31.0044 11.7484 30.8576C11.5533 30.6217 11.6063 30.1883 11.6175 29.9004C11.6272 29.6509 11.697 29.542 11.8789 29.3929C12.4775 29.2758 13.618 29.4439 14.2293 29.3581C14.462 29.2196 14.6605 26.9283 14.9257 26.5956Z" fill="url(#paint8_linear_386_61043)"/>
<path d="M32.2583 7.75977C32.2853 8.64054 32.2641 9.63383 32.2641 10.5213L32.2639 15.6812L32.2643 18.7722C32.2645 19.1743 32.29 19.9816 32.2536 20.3596C32.1504 20.0384 32.2266 18.7552 32.2255 18.3413C32.2112 16.3713 32.2115 14.4011 32.2262 12.4311L32.2088 9.63905C32.2039 9.21722 32.1408 8.1169 32.2583 7.75977Z" fill="url(#paint9_linear_386_61043)"/>
<defs>
<linearGradient id="paint0_linear_386_61043" x1="11.9097" y1="8.82715" x2="11.9097" y2="19.7201" gradientUnits="userSpaceOnUse">
<stop stop-color="#0A4B6E"/>
<stop offset="1" stop-color="#1391D4"/>
</linearGradient>
<linearGradient id="paint1_linear_386_61043" x1="25.8158" y1="17.5674" x2="25.8158" y2="18.5885" gradientUnits="userSpaceOnUse">
<stop stop-color="#0A4B6E"/>
<stop offset="1" stop-color="#1391D4"/>
</linearGradient>
<linearGradient id="paint2_linear_386_61043" x1="25.809" y1="14.1602" x2="25.809" y2="15.1738" gradientUnits="userSpaceOnUse">
<stop stop-color="#0A4B6E"/>
<stop offset="1" stop-color="#1391D4"/>
</linearGradient>
<linearGradient id="paint3_linear_386_61043" x1="25.8127" y1="10.7451" x2="25.8127" y2="11.7801" gradientUnits="userSpaceOnUse">
<stop stop-color="#0A4B6E"/>
<stop offset="1" stop-color="#1391D4"/>
</linearGradient>
<linearGradient id="paint4_linear_386_61043" x1="20.3925" y1="13.5967" x2="20.3925" y2="15.7415" gradientUnits="userSpaceOnUse">
<stop stop-color="#0A4B6E"/>
<stop offset="1" stop-color="#1391D4"/>
</linearGradient>
<linearGradient id="paint5_linear_386_61043" x1="20.3924" y1="17.0166" x2="20.3924" y2="19.1681" gradientUnits="userSpaceOnUse">
<stop stop-color="#0A4B6E"/>
<stop offset="1" stop-color="#1391D4"/>
</linearGradient>
<linearGradient id="paint6_linear_386_61043" x1="20.3907" y1="10.2021" x2="20.3907" y2="12.3466" gradientUnits="userSpaceOnUse">
<stop stop-color="#0A4B6E"/>
<stop offset="1" stop-color="#1391D4"/>
</linearGradient>
<linearGradient id="paint7_linear_386_61043" x1="17.9976" y1="5" x2="17.9976" y2="25.8388" gradientUnits="userSpaceOnUse">
<stop stop-color="#0A4B6E"/>
<stop offset="1" stop-color="#1391D4"/>
</linearGradient>
<linearGradient id="paint8_linear_386_61043" x1="18.0047" y1="26.5781" x2="18.0047" y2="30.9996" gradientUnits="userSpaceOnUse">
<stop stop-color="#0A4B6E"/>
<stop offset="1" stop-color="#1391D4"/>
</linearGradient>
<linearGradient id="paint9_linear_386_61043" x1="32.2303" y1="7.75977" x2="32.2303" y2="20.3596" gradientUnits="userSpaceOnUse">
<stop stop-color="#0A4B6E"/>
<stop offset="1" stop-color="#1391D4"/>
</linearGradient>
</defs>
</svg>
