<svg width="28" height="30" viewBox="0 0 28 30" fill="none" xmlns="http://www.w3.org/2000/svg">
<path d="M25.9208 0.00610297C26.5107 0.00652255 27.0235 -0.0806278 27.4169 0.458251C27.6012 0.710876 27.6192 0.933227 27.6259 1.23169C27.6412 1.9235 27.6133 2.61423 27.6092 3.30493L27.6102 6.94653V20.761L27.6112 26.6399L27.6122 28.2327C27.6119 28.4176 27.6207 28.9302 27.5917 29.092C27.5383 29.3835 27.3676 29.6411 27.12 29.804C26.7605 30.0403 26.3442 29.9925 25.9344 29.9924C25.417 29.9922 24.8992 29.9895 24.3817 29.9895L19.9012 29.9905L17.5018 29.9885C17.1874 29.9899 16.2479 30.0428 16.0116 29.9094C15.9907 29.8972 15.9703 29.8837 15.951 29.8694C15.8303 29.7804 15.81 29.6553 15.8046 29.51C15.7911 29.132 15.7985 28.7432 15.7987 28.3655L15.7997 26.178C15.7999 24.2527 15.7355 23.1868 14.6278 21.4827C14.4673 21.2498 14.3177 21.0679 14.1385 20.8499L14.1405 10.9924L14.1385 8.08813C14.1379 7.57864 14.1338 7.06245 14.1415 6.55298C14.1434 6.42413 14.1759 6.29156 14.2352 6.17993C14.2965 6.06456 14.4787 5.89337 14.6014 5.85278C14.9588 5.73498 15.3684 5.63913 15.7333 5.54321L18.0712 4.92602L26.0604 2.80493C26.0562 2.62126 26.0662 2.43145 26.0634 2.24829C26.0558 1.75995 26.0925 1.59971 25.5565 1.59985H11.0331C10.1925 1.59945 9.34645 1.59778 8.50573 1.60083C8.43095 1.60293 8.14622 1.62282 8.11023 1.67798C7.96344 1.90353 8.01966 2.55813 8.02038 2.8186L8.02331 4.42993L8.01745 10.0666C7.46828 9.97805 6.96132 10.0388 6.41784 10.1028V4.07446L6.41882 2.10376C6.41989 1.21248 6.23976 0.328059 7.32214 0.0168452C7.73849 -0.0119974 8.33791 0.00489038 8.76843 0.00512641H11.288L19.2714 0.00707954L24.4149 0.00610297H25.9208ZM20.4999 10.5725C19.777 10.6525 19.1166 11.0219 18.6698 11.5959C17.9258 12.5472 18.0712 13.5281 18.0731 14.677C17.6757 14.6725 17.3482 14.6799 17.035 14.9817C16.9006 15.1112 16.7916 15.2941 16.7684 15.4797C16.6964 16.0582 16.7288 16.7446 16.7255 17.3333C16.7196 18.3788 16.7291 19.4161 16.7294 20.4612C16.7296 20.8714 16.7661 21.1316 17.08 21.4358C17.218 21.5696 17.427 21.6713 17.619 21.6907C17.9834 21.7277 18.4159 21.7134 18.785 21.7131L21.0995 21.7112L22.8524 21.7131C23.9116 21.7143 24.8415 21.8443 24.8426 20.4153C24.8438 18.873 24.8476 17.3272 24.8436 15.7844C24.8432 15.4606 24.7547 15.2007 24.5184 14.967C24.2286 14.6836 23.8731 14.6722 23.496 14.678C23.4997 13.4067 23.6599 12.3319 22.6766 11.344C22.1756 10.8408 21.5125 10.5518 20.7987 10.5579C20.6991 10.5596 20.5992 10.5642 20.4999 10.5725Z" fill="url(#paint0_linear_386_61028)"/>
<path d="M20.6967 11.7516C21.4763 11.6891 22.1943 12.2805 22.323 13.045C22.3612 13.2712 22.3487 13.531 22.3484 13.7614L22.3454 14.6768L20.9184 14.6732L19.2277 14.6754L19.2251 13.7987C19.2244 13.2404 19.2017 12.8058 19.5699 12.3411C19.8716 11.9605 20.2251 11.8056 20.6967 11.7516Z" fill="url(#paint1_linear_386_61028)"/>
<path d="M20.6317 16.3516C21.0644 16.3126 21.4252 16.4045 21.7151 16.7498C21.9115 16.9823 22.0052 17.2844 21.9745 17.5872C21.9386 17.9372 21.7746 18.1756 21.5128 18.392C21.5102 18.7166 21.5225 19.0442 21.5211 19.3692C21.5196 19.7202 21.5475 20.0742 21.1184 20.1445C20.7242 20.1375 20.411 20.2552 20.1712 19.8771C20.146 19.4228 20.1611 18.8587 20.1613 18.3965C19.9697 18.2292 19.8361 18.0654 19.7565 17.8161C19.664 17.5256 19.6926 17.21 19.8356 16.9405C20.0143 16.6056 20.2829 16.4514 20.6317 16.3516Z" fill="url(#paint2_linear_386_61028)"/>
<path d="M4.3324 19.8203C4.53826 19.9258 4.73105 20.0601 4.93778 20.1656C6.7952 21.1123 8.68261 20.8921 10.408 19.822C11.3375 20.0632 12.191 20.5352 12.8891 21.1947C13.983 22.2228 14.6188 23.6466 14.6542 25.1472C14.6745 25.8697 14.6483 26.6618 14.6547 27.3899C14.6578 27.7218 14.684 28.8099 14.6264 29.0801C14.5844 29.2857 14.4838 29.475 14.3368 29.6249C13.9367 30.0283 13.3119 29.9464 12.788 29.9447L11.3534 29.943L4.35277 29.9426L2.15268 29.943C0.433604 29.9438 -0.0738312 29.9992 0.00840071 27.9522C0.0466135 27.001 -0.0271685 25.9497 0.0174642 24.9855C0.0276842 24.762 0.0523724 24.5394 0.0913877 24.3192C0.210959 23.6652 0.442856 23.0371 0.776835 22.4624C1.58421 21.0913 2.80273 20.2159 4.3324 19.8203Z" fill="url(#paint3_linear_386_61028)"/>
<path d="M7.19484 11.2362C9.48336 11.1335 11.4226 12.9039 11.528 15.1923C11.6334 17.4808 9.86525 19.4221 7.57697 19.5302C5.28484 19.6385 3.33957 17.8667 3.23397 15.5744C3.12837 13.2822 4.90245 11.3391 7.19484 11.2362Z" fill="url(#paint4_linear_386_61028)"/>
<defs>
<linearGradient id="paint0_linear_386_61028" x1="17.0193" y1="0" x2="17.0193" y2="30" gradientUnits="userSpaceOnUse">
<stop stop-color="#0A4B6E"/>
<stop offset="1" stop-color="#1391D4"/>
</linearGradient>
<linearGradient id="paint1_linear_386_61028" x1="20.7876" y1="11.7471" x2="20.7876" y2="14.6768" gradientUnits="userSpaceOnUse">
<stop stop-color="#0A4B6E"/>
<stop offset="1" stop-color="#1391D4"/>
</linearGradient>
<linearGradient id="paint2_linear_386_61028" x1="20.8417" y1="16.3433" x2="20.8417" y2="20.1565" gradientUnits="userSpaceOnUse">
<stop stop-color="#0A4B6E"/>
<stop offset="1" stop-color="#1391D4"/>
</linearGradient>
<linearGradient id="paint3_linear_386_61028" x1="7.33164" y1="19.8203" x2="7.33164" y2="29.9526" gradientUnits="userSpaceOnUse">
<stop stop-color="#0A4B6E"/>
<stop offset="1" stop-color="#1391D4"/>
</linearGradient>
<linearGradient id="paint4_linear_386_61028" x1="7.38098" y1="11.2319" x2="7.38098" y2="19.5349" gradientUnits="userSpaceOnUse">
<stop stop-color="#0A4B6E"/>
<stop offset="1" stop-color="#1391D4"/>
</linearGradient>
</defs>
</svg>
