<svg width="44" height="39" viewBox="0 0 44 39" fill="none" xmlns="http://www.w3.org/2000/svg">
<path d="M21.1109 16.7676C21.4987 16.7695 21.9385 16.7726 22.311 16.7689C22.9492 16.7627 22.9366 17.0769 23.0334 17.5976C23.0626 17.7538 23.1125 18.0227 23.2629 18.0963C23.4468 18.1863 23.7038 18.2625 23.8933 18.3547C24.4661 18.6463 24.6109 18.7028 25.1461 18.3028C25.4785 18.0545 25.7616 18.0246 26.052 18.3465C26.1309 18.4339 26.2611 18.5472 26.3487 18.6453C26.5601 18.882 26.9054 19.0987 26.9761 19.4261C27.0398 19.7621 26.5938 19.9966 26.4847 20.287C26.3286 20.6436 26.5634 20.8552 26.6673 21.1893C26.6911 21.2662 26.8255 21.6108 26.8568 21.6533C27.1486 22.0484 28.1047 21.7347 28.1871 22.3446C28.2228 22.6119 28.2116 22.9548 28.2113 23.2351C28.2113 23.4288 28.2214 23.6893 28.1866 23.8821C28.0995 24.3938 27.0148 24.1741 26.8643 24.5138C26.795 24.6704 26.4637 25.4752 26.4238 25.6393C26.3253 26.0459 27.3031 26.5107 26.8713 26.9955C26.6841 27.2058 26.5118 27.364 26.3127 27.5587C26.1664 27.7048 26.0051 27.8829 25.8389 28.0048C25.3734 28.2811 24.9087 27.5071 24.4846 27.5788C24.3035 27.6094 23.9645 27.8096 23.7685 27.8853C23.6669 27.9529 23.3287 28.0211 23.2493 28.0867C22.824 28.4382 23.243 29.3236 22.498 29.4106C22.0416 29.4062 21.5627 29.4237 21.1244 29.4127C20.3869 29.3941 20.7063 28.5188 20.3995 28.1401C20.3411 28.068 19.9275 27.9296 19.8006 27.8736C19.6408 27.8031 19.2762 27.6133 19.1263 27.5804C18.7518 27.4978 18.3613 28.065 17.9688 28.0624C17.7651 28.061 17.5796 27.8621 17.4426 27.7209C17.2685 27.5414 16.7691 27.1017 16.669 26.9212C16.4205 26.4479 17.185 26.0763 17.1765 25.7035C17.156 25.5557 16.7759 24.5338 16.7026 24.4769C16.167 24.0626 15.2732 24.5271 15.3868 23.4494C15.4178 23.1557 15.3178 22.526 15.4462 22.201C15.5611 21.9102 16.0827 21.9244 16.3342 21.8544C16.4151 21.85 16.686 21.7618 16.7187 21.678C16.837 21.3745 17.087 20.8473 17.1609 20.5577C17.2466 20.2218 16.644 19.8463 16.6105 19.5498C16.5707 19.1973 16.9984 18.9141 17.2072 18.679C17.3463 18.5315 17.5952 18.2608 17.7576 18.1669C18.2243 17.8968 18.6438 18.6425 19.1017 18.5943C19.2522 18.5741 19.6088 18.3802 19.771 18.3132C19.8711 18.2507 20.2648 18.1446 20.3356 18.081C20.7602 17.6996 20.3227 16.861 21.1109 16.7676ZM22.0379 25.8734C23.5726 25.7394 24.7087 24.3875 24.5763 22.8525C24.4437 21.3177 23.0929 20.1803 21.558 20.3113C20.0208 20.4424 18.8816 21.7956 19.0142 23.3324C19.1467 24.8695 20.5009 26.0074 22.0379 25.8734Z" fill="url(#paint0_linear_386_61070)"/>
<path d="M23.697 9.00781C24.0327 9.04138 24.4414 9.18269 24.7518 9.30701C25.6759 9.67133 26.6071 10.4552 26.6526 11.5217C26.6881 12.3544 26.6768 13.2391 26.6603 14.0754C26.6519 14.496 26.256 14.8121 25.8414 14.8122C25.3349 14.8123 24.8207 14.8148 24.3102 14.8144L21.4201 14.8131L19.0025 14.8154C18.5772 14.8157 18.1454 14.8335 17.7212 14.81C17.5999 14.8033 17.4889 14.783 17.3785 14.7296C17.1919 14.6393 17.0337 14.4663 16.9677 14.2691C16.8681 13.9714 16.8943 11.6959 16.9571 11.325C17.0017 11.0618 17.0992 10.8334 17.2177 10.5958C17.5585 10.0266 18.058 9.65686 18.6662 9.37703C18.8831 9.28026 19.7172 8.94028 19.9298 9.04917C20.0428 9.10702 20.355 10.3151 20.3988 10.4684L21.018 12.6063C21.176 11.98 21.3118 11.2135 21.4349 10.5766C21.3293 10.3016 21.078 9.80587 21.0119 9.5665C20.9365 9.29356 22.4167 9.32034 22.5572 9.49729C22.5675 9.53153 22.5815 9.58895 22.567 9.62341C22.4321 9.94401 22.2834 10.2563 22.1544 10.5809L22.5752 12.601C22.9576 11.4827 23.2057 10.2671 23.571 9.14042C23.5908 9.07938 23.6466 9.04079 23.697 9.00781Z" fill="url(#paint1_linear_386_61070)"/>
<path d="M5.07078 25.3503C5.77766 25.3207 6.78839 25.3676 7.51521 25.391C7.47616 25.6463 7.4875 26.0494 7.48867 26.3162L7.49758 27.6019C7.72426 27.4532 8.10676 27.185 8.3357 27.0814C8.54458 27.185 8.92431 27.4541 9.16055 27.593C9.16531 27.1638 9.16515 26.7345 9.16006 26.3053C9.1591 26.08 9.14384 25.6711 9.19127 25.4622C9.29626 25.4059 9.88996 25.432 10.0615 25.4365C10.543 25.4484 11.0324 25.4453 11.5132 25.4729C11.606 25.478 11.7394 25.5151 11.8176 25.5681C11.8696 25.6031 11.8607 25.696 11.8697 25.7493C11.8768 26.1505 11.8732 26.5602 11.873 26.9614L11.8718 29.4261C11.8713 29.8441 11.9265 31.6536 11.793 31.9094C11.6188 32.0065 10.4854 31.9762 10.241 31.9762L7.99238 31.9766L6.24578 31.9762C5.90476 31.9759 5.19393 32.0632 4.9558 31.8062C4.9082 31.7549 4.87517 31.6533 4.87298 31.5824C4.85979 31.1608 4.86399 30.7374 4.86388 30.3152L4.8629 27.8659L4.86164 26.3216C4.86157 26.0791 4.85454 25.8036 4.8741 25.5618C4.88229 25.4607 4.99207 25.3996 5.07078 25.3503Z" fill="url(#paint2_linear_386_61070)"/>
<path d="M21.5141 3.46727C22.8976 3.31125 24.1455 4.30695 24.3004 5.69063C24.4557 7.07431 23.459 8.32146 22.0753 8.47552C20.6928 8.62944 19.4471 7.63409 19.2923 6.25179C19.1374 4.86948 20.1318 3.62312 21.5141 3.46727Z" fill="url(#paint3_linear_386_61070)"/>
<path d="M14.6732 32.2383C15.0032 32.2332 15.33 32.5644 15.6168 32.733C16.3117 33.1412 17.0189 33.5121 17.776 33.7931C19.0465 34.27 20.3919 34.516 21.7489 34.5195C22.9139 34.5181 24.0714 34.3358 25.1804 33.9796C25.7037 33.8134 26.2144 33.6099 26.7086 33.3707C27.0027 33.2255 27.2802 33.0607 27.5832 32.929C27.9027 32.7901 28.2923 33.1132 28.1929 33.4516C28.1275 33.6741 28.0094 33.7434 27.8199 33.8468C27.1904 34.1988 26.5326 34.4981 25.8533 34.7411C22.7874 35.8358 19.4112 35.6589 16.4767 34.2492C16.0914 34.0667 14.4058 33.1961 14.297 32.8443C14.2621 32.7313 14.2706 32.5726 14.3296 32.469C14.4032 32.3399 14.5366 32.2785 14.6732 32.2383Z" fill="url(#paint4_linear_386_61070)"/>
<path d="M14.282 24.0801C14.3014 24.0896 14.3327 24.117 14.3512 24.1317C14.4252 24.2916 14.3876 27.4516 14.3877 27.9126L14.3914 29.1691C14.396 30.3119 14.4843 30.1114 13.6 30.8102C13.2195 31.1151 12.8357 31.4157 12.4486 31.7122C12.387 31.6961 12.391 31.6933 12.3449 31.6473C12.2988 31.5434 12.3267 30.5014 12.3268 30.3219L12.3251 27.5963C12.326 26.9416 12.2981 26.1239 12.3629 25.4659C12.3812 25.2805 12.8777 25.003 13.0569 24.8837C13.4614 24.6099 13.8698 24.3422 14.282 24.0801Z" fill="url(#paint5_linear_386_61070)"/>
<path d="M31.7833 23.4186C33.0974 23.3682 34.4615 23.4478 35.7799 23.4128C35.9337 23.4086 36.1627 23.4102 36.3041 23.4655C36.4061 23.5795 36.4157 23.7055 36.4117 23.8575C36.3919 24.6415 36.1559 25.3264 35.5938 25.8791C35.4937 25.9706 35.3777 26.0726 35.2678 26.1501C34.7923 26.4879 34.2001 26.6183 33.6266 26.5121C32.3563 26.2887 31.4752 24.8931 31.6374 23.61C31.6505 23.5069 31.7016 23.4697 31.7833 23.4186Z" fill="url(#paint6_linear_386_61070)"/>
<path d="M31.7953 30.3044C32.6659 30.2778 33.6225 30.3081 34.5006 30.2986C34.8423 30.2948 36.1985 30.2743 36.4384 30.3457C36.4639 30.4106 36.4832 30.5763 36.4769 30.6398C36.4555 30.8518 36.5203 32.306 36.4431 32.3991L36.367 32.4012C34.8712 32.4238 33.1372 32.4278 31.6421 32.3984C31.626 31.936 31.5912 30.8158 31.6554 30.3835C31.7063 30.314 31.693 30.3354 31.7953 30.3044Z" fill="url(#paint7_linear_386_61070)"/>
<path d="M15.1309 11.7451C15.2074 11.7514 15.2666 11.7578 15.3388 11.7867C15.4564 11.835 15.5484 11.9305 15.5923 12.0498C15.78 12.5705 14.9062 12.8645 14.5215 13.1135C13.9389 13.4935 13.3991 13.9355 12.9115 14.4315C11.7281 15.6526 10.834 17.1239 10.2951 18.7367C10.1269 19.2395 10.0219 19.755 9.85845 20.2533C9.8167 20.3806 9.63615 20.4451 9.51591 20.4815C8.78557 20.4148 9.02228 19.8015 9.15299 19.3086C9.51813 17.9092 10.1195 16.5823 10.9312 15.3852C11.8029 14.0758 12.9489 12.9717 14.2899 12.1494C14.503 12.0211 14.8979 11.7894 15.1309 11.7451Z" fill="url(#paint8_linear_386_61070)"/>
<path d="M31.4305 26.957L31.4662 26.979C31.522 27.1445 31.497 29.1028 31.4851 29.3942C30.5776 29.526 30.7559 30.1507 30.7573 30.8885C30.7613 31.3924 30.7597 31.8962 30.7527 32.3999C30.3538 32.3919 29.5998 32.4781 29.2929 32.2986C29.2273 32.2316 29.1717 32.1702 29.1402 32.0806C29.0559 31.8418 29.0814 29.7177 29.1285 29.3881C29.1654 29.1199 29.2453 28.8594 29.3645 28.6164C29.783 27.7588 30.5531 27.2591 31.4305 26.957Z" fill="url(#paint9_linear_386_61070)"/>
<path d="M36.6292 26.9639C36.9919 27.0096 37.5122 27.3196 37.8031 27.5259C38.3971 27.948 38.8707 28.5999 38.9774 29.3331C39.0708 30.0235 38.9956 30.7287 39.0264 31.424C39.0395 31.7202 39.0535 32.0015 38.8747 32.2496C38.6154 32.4884 37.7314 32.4126 37.3677 32.3964C37.3556 31.6192 37.3948 30.809 37.3519 30.0317C37.3278 29.5915 37.019 29.4554 36.6217 29.4005C36.6164 28.6592 36.593 27.6914 36.6292 26.9639Z" fill="url(#paint10_linear_386_61070)"/>
<path d="M28.4218 11.7471C28.7162 11.7725 29.2535 12.1232 29.5229 12.2933C31.3701 13.4595 32.8306 15.293 33.7267 17.2728C33.9016 17.6591 34.152 18.2847 34.2437 18.6935C34.1714 18.9882 34.0946 19.1036 33.7839 19.1538C33.3173 19.1072 33.2816 18.6607 33.1434 18.2921C32.2632 15.9442 30.5361 13.7989 28.2804 12.6532C27.8598 12.4395 27.8705 11.8418 28.4218 11.7471Z" fill="url(#paint11_linear_386_61070)"/>
<path d="M33.7779 20.2459C33.8421 20.243 33.9065 20.2424 33.9709 20.2441C34.8343 20.2732 35.603 20.6695 36.0024 21.4541C36.2568 21.9534 36.2262 22.4693 36.2066 23.0108C35.7608 23.0435 35.2522 23.016 34.8012 23.0188C34.6215 23.0199 34.5157 22.9655 34.3722 22.8621C33.4275 22.1504 32.8734 21.893 31.7012 21.769C31.9941 20.8061 32.8104 20.3239 33.7779 20.2459Z" fill="url(#paint12_linear_386_61070)"/>
<path d="M32.4878 26.7236C32.6397 26.754 32.7823 26.8448 32.9252 26.9153C33.199 27.0509 33.4651 27.1445 33.7706 27.176C34.1534 27.214 34.5398 27.1667 34.9018 27.0373C35.0831 26.972 35.4169 26.7304 35.5934 26.7416C35.6279 26.7439 35.6553 26.7645 35.6756 26.7923C35.7813 26.9367 35.7243 28.7418 35.7243 29.0174L35.7208 29.4063C34.6298 29.4079 33.4679 29.4278 32.3825 29.403L32.3778 27.7024C32.3774 27.4316 32.3694 27.1309 32.3904 26.8611C32.397 26.7757 32.4313 26.7647 32.4878 26.7236Z" fill="url(#paint13_linear_386_61070)"/>
<path d="M11.3504 23.3692C12.0717 23.3454 12.8499 23.4369 13.5777 23.4224C13.7382 23.4192 14.0713 23.4129 14.1839 23.53L14.1826 23.5812C14.0138 23.787 12.3887 24.8012 12.0643 25.0055C11.819 25.0743 9.48995 25.0048 9.16797 24.9539C9.35365 24.7543 11.1717 23.4285 11.3504 23.3692Z" fill="url(#paint14_linear_386_61070)"/>
<path d="M7.84084 23.2723C8.27712 23.2504 8.74379 23.2891 9.18355 23.2931C9.36235 23.2947 10.1662 23.2849 10.2289 23.397C10.2174 23.4091 10.2058 23.4212 10.1943 23.4334C9.40983 23.9567 8.57951 24.4336 7.77258 24.9235C7.71187 24.9604 7.48525 24.948 7.40565 24.9457C6.86921 24.8969 6.16267 24.9501 5.60702 24.9046C5.41524 24.8887 5.20533 24.9125 5.01187 24.8724L5.00195 24.8238C5.09019 24.691 5.37015 24.5797 5.51846 24.5003L6.51745 23.956C6.85686 23.7749 7.51494 23.4009 7.84084 23.2723Z" fill="url(#paint15_linear_386_61070)"/>
<path d="M31.4197 22.2036C32.2337 22.0449 33.2425 22.55 33.8821 23.008C33.4101 23.0241 32.922 23.0183 32.4486 23.0183C31.8224 23.0187 30.7416 23.0481 30.0871 22.991C30.0449 22.9872 30.0306 22.9347 30.0176 22.8995C30.085 22.5498 31.0948 22.2503 31.4197 22.2036Z" fill="url(#paint16_linear_386_61070)"/>
<defs>
<linearGradient id="paint0_linear_386_61070" x1="21.7951" y1="16.7676" x2="21.7951" y2="29.4164" gradientUnits="userSpaceOnUse">
<stop stop-color="#0A4B6E"/>
<stop offset="1" stop-color="#1391D4"/>
</linearGradient>
<linearGradient id="paint1_linear_386_61070" x1="21.7887" y1="9.00781" x2="21.7887" y2="14.8221" gradientUnits="userSpaceOnUse">
<stop stop-color="#0A4B6E"/>
<stop offset="1" stop-color="#1391D4"/>
</linearGradient>
<linearGradient id="paint2_linear_386_61070" x1="8.37151" y1="25.3408" x2="8.37151" y2="31.9903" gradientUnits="userSpaceOnUse">
<stop stop-color="#0A4B6E"/>
<stop offset="1" stop-color="#1391D4"/>
</linearGradient>
<linearGradient id="paint3_linear_386_61070" x1="21.7964" y1="3.45117" x2="21.7964" y2="8.49122" gradientUnits="userSpaceOnUse">
<stop stop-color="#0A4B6E"/>
<stop offset="1" stop-color="#1391D4"/>
</linearGradient>
<linearGradient id="paint4_linear_386_61070" x1="21.2425" y1="32.2383" x2="21.2425" y2="35.451" gradientUnits="userSpaceOnUse">
<stop stop-color="#0A4B6E"/>
<stop offset="1" stop-color="#1391D4"/>
</linearGradient>
<linearGradient id="paint5_linear_386_61070" x1="13.3578" y1="24.0801" x2="13.3578" y2="31.7122" gradientUnits="userSpaceOnUse">
<stop stop-color="#0A4B6E"/>
<stop offset="1" stop-color="#1391D4"/>
</linearGradient>
<linearGradient id="paint6_linear_386_61070" x1="34.0153" y1="23.4014" x2="34.0153" y2="26.5482" gradientUnits="userSpaceOnUse">
<stop stop-color="#0A4B6E"/>
<stop offset="1" stop-color="#1391D4"/>
</linearGradient>
<linearGradient id="paint7_linear_386_61070" x1="34.0502" y1="30.293" x2="34.0502" y2="32.4193" gradientUnits="userSpaceOnUse">
<stop stop-color="#0A4B6E"/>
<stop offset="1" stop-color="#1391D4"/>
</linearGradient>
<linearGradient id="paint8_linear_386_61070" x1="12.3141" y1="11.7451" x2="12.3141" y2="20.4815" gradientUnits="userSpaceOnUse">
<stop stop-color="#0A4B6E"/>
<stop offset="1" stop-color="#1391D4"/>
</linearGradient>
<linearGradient id="paint9_linear_386_61070" x1="30.293" y1="26.957" x2="30.293" y2="32.4137" gradientUnits="userSpaceOnUse">
<stop stop-color="#0A4B6E"/>
<stop offset="1" stop-color="#1391D4"/>
</linearGradient>
<linearGradient id="paint10_linear_386_61070" x1="37.8214" y1="26.9639" x2="37.8214" y2="32.4206" gradientUnits="userSpaceOnUse">
<stop stop-color="#0A4B6E"/>
<stop offset="1" stop-color="#1391D4"/>
</linearGradient>
<linearGradient id="paint11_linear_386_61070" x1="31.1141" y1="11.7471" x2="31.1141" y2="19.1538" gradientUnits="userSpaceOnUse">
<stop stop-color="#0A4B6E"/>
<stop offset="1" stop-color="#1391D4"/>
</linearGradient>
<linearGradient id="paint12_linear_386_61070" x1="33.9602" y1="20.2432" x2="33.9602" y2="23.027" gradientUnits="userSpaceOnUse">
<stop stop-color="#0A4B6E"/>
<stop offset="1" stop-color="#1391D4"/>
</linearGradient>
<linearGradient id="paint13_linear_386_61070" x1="34.0578" y1="26.7236" x2="34.0578" y2="29.4154" gradientUnits="userSpaceOnUse">
<stop stop-color="#0A4B6E"/>
<stop offset="1" stop-color="#1391D4"/>
</linearGradient>
<linearGradient id="paint14_linear_386_61070" x1="11.6759" y1="23.3652" x2="11.6759" y2="25.0343" gradientUnits="userSpaceOnUse">
<stop stop-color="#0A4B6E"/>
<stop offset="1" stop-color="#1391D4"/>
</linearGradient>
<linearGradient id="paint15_linear_386_61070" x1="7.61544" y1="23.2656" x2="7.61544" y2="24.9496" gradientUnits="userSpaceOnUse">
<stop stop-color="#0A4B6E"/>
<stop offset="1" stop-color="#1391D4"/>
</linearGradient>
<linearGradient id="paint16_linear_386_61070" x1="31.9498" y1="22.1738" x2="31.9498" y2="23.0262" gradientUnits="userSpaceOnUse">
<stop stop-color="#0A4B6E"/>
<stop offset="1" stop-color="#1391D4"/>
</linearGradient>
</defs>
</svg>
