<svg preserveAspectRatio="none" width="100%" height="100%" overflow="visible" style="display: block;" viewBox="0 0 21.1104 21.889" fill="none" xmlns="http://www.w3.org/2000/svg">
<g id="Group">
<path id="Vector" d="M2.39891 19.0583V5.38457L0.959562 6.46408V19.0583H1.67923H2.39891ZM8.15628 16.8993C8.15628 16.8357 8.18156 16.7747 8.22654 16.7297C8.27153 16.6847 8.33255 16.6594 8.39617 16.6594H11.9945V8.35095e-05L6.71694 2.40432V19.0583H8.15628V16.8993ZM9.35573 2.98567H10.3153V4.90479H9.35573V2.98567ZM9.35573 5.38457H10.3153V7.3037H9.35573V5.38457ZM9.35573 7.78348H10.3153V9.7026H9.35573V7.78348ZM9.35573 10.1824H10.3153V12.1015H9.35573V10.1824ZM7.91639 2.98567H8.87595V4.90479H7.91639V2.98567ZM7.91639 5.38457H8.87595V7.3037H7.91639V5.38457ZM7.91639 7.78348H8.87595V9.7026H7.91639V7.78348ZM7.91639 10.1824H8.87595V12.1015H7.91639V10.1824ZM7.91639 12.5813H8.87595V14.5004H7.91639V12.5813ZM6.23716 6.51038L2.87869 5.25095V19.0583H6.23716V6.51038ZM5.0377 16.8993H4.07814V14.9802H5.0377V16.8993ZM5.0377 14.5004H4.07814V12.5813H5.0377V14.5004ZM5.0377 12.1015H4.07814V10.1824H5.0377V12.1015ZM5.0377 9.7026H4.07814V7.78348H5.0377V9.7026ZM16.3126 16.8993V19.0583H17.7519V5.18796L12.4743 6.06754V16.6594H16.0727C16.1363 16.6594 16.1973 16.6847 16.2423 16.7297C16.2873 16.7747 16.3126 16.8357 16.3126 16.8993ZM16.0727 6.82392H17.0322V8.26326H16.0727V6.82392ZM16.0727 8.74304H17.0322V10.1824H16.0727V8.74304ZM16.0727 10.6622H17.0322V12.1015H16.0727V10.6622ZM14.1535 15.9398H13.194V14.5004H14.1535V15.9398ZM14.1535 14.0206H13.194V12.5813H14.1535V14.0206ZM14.1535 12.1015H13.194V10.6622H14.1535V12.1015ZM14.1535 10.1824H13.194V8.74304H14.1535V10.1824ZM14.1535 8.26326H13.194V6.82392H14.1535V8.26326ZM15.5929 14.0206H14.6333V12.5813H15.5929V14.0206ZM15.5929 12.1015H14.6333V10.6622H15.5929V12.1015ZM15.5929 10.1824H14.6333V8.74304H15.5929V10.1824ZM15.5929 8.26326H14.6333V6.82392H15.5929V8.26326ZM20.1508 6.47996L18.2317 5.32849V19.0583H20.1508V6.47996ZM14.3934 5.26132V1.66161L12.4743 0.126314V5.58119L13.4339 5.42123L14.3934 5.26132Z" fill="var(--fill-0, #005276)"/>
<path id="Vector_2" d="M20.8705 21.4093H18.2317V19.5381H16.3126V21.4093H15.8328V17.1392H8.63606V21.4093H8.15628V19.5381H1.91913V21.4093H0.239891C0.107375 21.4093 0 21.5166 0 21.6492C0 21.7817 0.107375 21.889 0.239891 21.889H20.8705C21.003 21.889 21.1104 21.7817 21.1104 21.6492C21.1104 21.5166 21.003 21.4093 20.8705 21.4093ZM14.6333 20.2578H9.83552V19.2982H14.6333V20.2578ZM14.6333 18.8184H9.83552V17.8589H14.6333V18.8184Z" fill="var(--fill-0, #005276)"/>
</g>
</svg>
