<svg preserveAspectRatio="none" width="100%" height="100%" overflow="visible" style="display: block;" viewBox="0 0 21.0006 21" fill="none" xmlns="http://www.w3.org/2000/svg">
<g id="Group">
<path id="Vector" d="M10.4307 7.86796C10.4307 7.66171 10.262 7.49296 10.0557 7.49296H4.15995C3.9537 7.49296 3.78495 7.66171 3.78495 7.86796C3.78495 8.23921 3.77744 8.61459 3.76244 8.99372H10.4532C10.4382 8.61497 10.4307 8.23959 10.4307 7.86796ZM12.302 18.1749C11.972 17.5558 11.7193 16.8752 11.537 16.1788C10.9708 13.9951 10.622 11.8415 10.4908 9.74373H3.72494C3.59369 11.8415 3.24494 13.9951 2.67869 16.1788C2.33743 17.5033 1.77868 18.6174 1.01367 19.4994H13.2099C12.8572 19.0945 12.5523 18.65 12.302 18.1749ZM8.47323 14.7905L7.4416 16.8542C7.22222 17.2907 6.55397 16.9577 6.77409 16.5167L7.5316 14.9968H6.07659C5.94534 14.9968 5.82534 14.9293 5.75784 14.8205C5.69034 14.708 5.68284 14.5693 5.74284 14.453L6.77409 12.3894C6.9901 11.9562 7.66285 12.2832 7.4416 12.7269L6.68409 14.2464H8.13911C8.41248 14.2381 8.60261 14.5531 8.47286 14.7901L8.47323 14.7905ZM20.9807 20.5161C20.958 20.4392 20.9111 20.3717 20.8469 20.3237C20.7827 20.2757 20.7046 20.2498 20.6245 20.2498H0.371667C0.286703 20.2481 0.204026 20.2774 0.139165 20.3323C-0.0730864 20.4909 -0.038211 20.8607 0.214166 20.9623C0.262166 20.9856 0.316542 20.9991 0.371667 20.9998H20.6241C20.8603 21.0073 21.0666 20.7456 20.9807 20.5161ZM12.7036 10.682C12.7036 11.0532 12.6961 11.4286 12.6736 11.8077H18.0778C18.0553 11.429 18.0478 11.0536 18.0478 10.682C18.0478 10.4757 17.8791 10.307 17.6728 10.307H13.0786C12.8686 10.307 12.7036 10.4757 12.7036 10.682ZM12.182 15.6571C12.4989 17.0874 13.1709 18.5439 14.2599 19.4994H20.032C18.6264 17.6555 18.3827 14.7684 18.1266 12.5581H12.6286C12.5422 13.5992 12.3928 14.634 12.182 15.6571ZM5.92284 6.28095C5.99034 6.3372 6.07659 6.3672 6.16284 6.3672H8.22911C8.31536 6.3672 8.40161 6.3372 8.46911 6.28095C8.75786 6.04095 8.96786 5.72969 9.08411 5.37681C9.73549 5.43232 10.3719 5.13944 10.7683 4.64893C11.5693 5.36069 12.9271 5.24294 13.5883 4.40143C13.9755 4.65377 14.4277 4.78798 14.8899 4.78769C16.2137 4.78769 17.2899 3.71068 17.2899 2.39029C17.2862 -0.096355 13.922 -0.922111 12.7711 1.26453C11.9911 0.951779 11.0255 1.21653 10.5133 1.86454C10.157 1.56453 9.70324 1.39578 9.22324 1.39578C8.80557 1.39624 8.39871 1.5285 8.06062 1.77374C7.72253 2.01897 7.47046 2.36466 7.34035 2.76154C5.43683 2.60142 4.44683 5.07794 5.92284 6.28095Z" fill="var(--fill-0, #005276)"/>
</g>
</svg>
