<svg preserveAspectRatio="none" width="100%" height="100%" overflow="visible" style="display: block;" viewBox="0 0 22.875 23.25" fill="none" xmlns="http://www.w3.org/2000/svg">
<g id="Group">
<path id="Vector" fill-rule="evenodd" clip-rule="evenodd" d="M18.3377 2.40183H21.7555V5.86861H18.3377V2.40183ZM11.4931 22.875H22.875V19.1078H11.4931V22.875ZM14.1818 12.1521V18.3578H22.875V12.1521H14.1818ZM17.1033 16.6518C17.1033 16.8325 16.9559 16.9799 16.7752 16.9799H16.0815C15.9008 16.9799 15.7534 16.8325 15.7534 16.6518V15.9581C15.7534 15.7774 15.9008 15.63 16.0815 15.63H16.7752C16.9559 15.63 17.1033 15.7773 17.1033 15.9581V16.6518ZM17.1033 14.5518C17.1033 14.7325 16.9559 14.88 16.7752 14.88H16.0815C15.9008 14.88 15.7534 14.7325 15.7534 14.5518V13.8581C15.7534 13.6774 15.9008 13.53 16.0815 13.53H16.7752C16.9559 13.53 17.1033 13.6774 17.1033 13.8581V14.5518ZM19.2032 16.6518C19.2032 16.8325 19.0558 16.9799 18.8751 16.9799H18.1814C18.0007 16.9799 17.8533 16.8325 17.8533 16.6518V15.9581C17.8533 15.7774 18.0007 15.63 18.1814 15.63H18.8751C19.0558 15.63 19.2032 15.7773 19.2032 15.9581V16.6518ZM19.2032 14.5518C19.2032 14.7325 19.0558 14.88 18.8751 14.88H18.1814C18.0007 14.88 17.8533 14.7325 17.8533 14.5518V13.8581C17.8533 13.6774 18.0007 13.53 18.1814 13.53H18.8751C19.0558 13.53 19.2032 13.6774 19.2032 13.8581V14.5518ZM21.3032 16.6518C21.3032 16.8325 21.1558 16.9799 20.9751 16.9799H20.2814C20.1007 16.9799 19.9532 16.8325 19.9532 16.6518V15.9581C19.9532 15.7774 20.1007 15.63 20.2814 15.63H20.9751C21.1558 15.63 21.3032 15.7773 21.3032 15.9581V16.6518ZM21.3032 14.5518C21.3032 14.7325 21.1558 14.88 20.9751 14.88H20.2814C20.1007 14.88 19.9532 14.7325 19.9532 14.5518V13.8581C19.9532 13.6774 20.1007 13.53 20.2814 13.53H20.9751C21.1558 13.53 21.3032 13.6774 21.3032 13.8581V14.5518ZM17.2182 6.61856V11.4021H22.875V6.61856H17.2182ZM19.6716 9.27881C19.6716 9.45952 19.5242 9.60694 19.3435 9.60694H18.8065C18.6258 9.60694 18.4784 9.45956 18.4784 9.27881V8.74181C18.4784 8.56111 18.6258 8.41369 18.8065 8.41369H19.3435C19.5242 8.41369 19.6716 8.56106 19.6716 8.74181V9.27881ZM21.6148 9.27881C21.6148 9.45952 21.4674 9.60694 21.2867 9.60694H20.7497C20.569 9.60694 20.4216 9.45956 20.4216 9.27881V8.74181C20.4216 8.56111 20.569 8.41369 20.7497 8.41369H21.2867C21.4674 8.41369 21.6148 8.56106 21.6148 8.74181V9.27881ZM17.1561 5.47158L15.3035 3.92208C15.2341 3.85669 15.1422 3.82034 15.0468 3.82045H14.4619L7.62267 0.529828V0.375C7.62267 0.275544 7.58316 0.180161 7.51284 0.109835C7.44251 0.0395088 7.34713 0 7.24767 0L5.96827 0.000421867C5.88578 0.000449179 5.8056 0.0276974 5.74018 0.0779396C5.67476 0.128182 5.62775 0.198609 5.60644 0.278297L5.50697 0.646266L2.24995 3.27169H0.375C0.275544 3.27169 0.180161 3.3112 0.109835 3.38152C0.0395088 3.45185 0 3.54723 0 3.64669V6.3075C0 6.40696 0.0395088 6.50234 0.109835 6.57267C0.180161 6.64299 0.275544 6.6825 0.375 6.6825H3.03581C3.13527 6.6825 3.23065 6.64299 3.30098 6.57267C3.3713 6.50234 3.41081 6.40696 3.41081 6.3075V6.13369H4.31386V20.7366H3.04753C2.94808 20.7366 2.85269 20.7761 2.78237 20.8464C2.71204 20.9167 2.67253 21.0121 2.67253 21.1116V22.875C2.67253 22.9745 2.71204 23.0698 2.78237 23.1402C2.85269 23.2105 2.94808 23.25 3.04753 23.25H8.889C8.98846 23.25 9.08384 23.2105 9.15416 23.1402C9.22449 23.0698 9.264 22.9745 9.264 22.875V21.1115C9.264 21.0121 9.22449 20.9167 9.15416 20.8464C9.08384 20.776 8.98846 20.7365 8.889 20.7365H7.62267V6.13369H14.6001V7.76841H13.9306C13.8311 7.76841 13.7358 7.80792 13.6654 7.87824C13.5951 7.94857 13.5556 8.04395 13.5556 8.14341V10.2323C13.5556 10.3318 13.5951 10.4272 13.6654 10.4975C13.7358 10.5678 13.8311 10.6073 13.9306 10.6073H16.0195C16.119 10.6073 16.2144 10.5678 16.2847 10.4975C16.355 10.4272 16.3945 10.3318 16.3945 10.2323V8.14341C16.3945 8.04395 16.355 7.94857 16.2847 7.87824C16.2144 7.80792 16.119 7.76841 16.0195 7.76841H15.3501V6.13369L16.916 6.13303C16.9707 6.13309 17.0248 6.12111 17.0745 6.09793C17.1241 6.07476 17.168 6.04096 17.2031 5.99892C17.2668 5.92276 17.2976 5.82442 17.2888 5.72552C17.28 5.62663 17.2323 5.53529 17.1561 5.47158ZM6.25486 0.75H6.87267V3.82045H5.4248L6.25486 0.75ZM3.30305 3.38362L5.17486 1.87486L4.64888 3.82045H3.41081V3.64669C3.41095 3.54823 3.37222 3.45369 3.30305 3.38362ZM4.15819 5.17444L3.74536 4.57045H4.76217L4.15819 5.17444ZM5.66747 4.7257L6.32541 5.38364H5.00953L5.66747 4.7257ZM5.06381 6.66394L6.71738 8.31745L5.06381 9.97097V6.66394ZM6.71738 13.4351L5.06381 15.0886V11.7816L6.71738 13.4351ZM5.06381 16.8992L6.71738 18.5527L5.06381 20.2063V16.8992ZM6.87267 20.7365H5.59411L6.87267 19.458V20.7365ZM6.87267 17.6475L5.21916 15.9939L6.87267 14.3404V17.6475ZM6.87267 12.5298L5.21916 10.8763L6.87267 9.2228V12.5298ZM6.87267 7.4122L5.59411 6.13364H6.87267V7.4122ZM7.2307 5.22839L6.57277 4.57045H7.88864L7.2307 5.22839ZM8.13595 5.38369L8.79389 4.72575L9.45187 5.38369H8.13595ZM10.3571 5.22839L9.69919 4.57045H11.0151L10.3571 5.22839ZM11.2624 5.38369L11.9204 4.72575L12.5783 5.38369H11.2624ZM7.62262 3.82045V1.35872L12.7391 3.82045H7.62262ZM13.4836 5.22839L12.8256 4.57045H14.1415L13.4836 5.22839ZM14.975 5.38369H14.3889L15.0698 4.70273L15.884 5.38369H14.975Z" fill="var(--fill-0, #005276)"/>
</g>
</svg>
