<svg preserveAspectRatio="none" width="100%" height="100%" overflow="visible" style="display: block;" viewBox="0 0 22.0923 22.893" fill="none" xmlns="http://www.w3.org/2000/svg">
<g id="Group 1321317031">
<path id="Vector" d="M10.4653 0.00530269C10.8665 -0.00919628 11.277 0.0135927 11.6786 0.000685275C11.7636 0.000160584 11.9401 -0.00832152 12.0007 0.0572824C12.148 0.216369 12.1338 0.492671 12.17 0.700536C12.1944 0.839632 12.2097 1.00736 12.2283 1.15357C12.7413 1.30071 13.075 1.44512 13.5218 1.73941C13.7527 1.57698 14.3737 1.01733 14.6034 1.27827C14.8106 1.51407 15.4717 2.04931 15.5265 2.35368C15.552 2.49568 15.023 3.05969 14.8932 3.22862C15.0606 3.55242 15.1865 3.89608 15.2676 4.2514C15.4422 4.27456 16.0797 4.35216 16.1813 4.39985C16.4228 4.51303 16.3315 5.94645 16.2593 6.16493C16.2243 6.27087 15.4032 6.34397 15.2689 6.36043C15.1533 6.76904 15.06 6.9842 14.8703 7.3519C15.0412 7.55823 15.3874 7.94456 15.5109 8.1851C15.5309 8.23519 15.4882 8.36764 15.4565 8.40486C15.2906 8.60023 14.6403 9.3554 14.4259 9.3958C14.2765 9.42393 13.6726 8.94628 13.5094 8.8311C13.0218 9.1478 12.7462 9.23514 12.2139 9.40203C12.1644 9.68862 12.1517 10.0753 12.0523 10.3385C12.0254 10.4101 11.9456 10.4369 11.8764 10.4548L11.0196 10.4592C10.8555 10.4604 10.6825 10.4692 10.5219 10.4545C10.3049 10.4277 10.2494 10.3504 10.2235 10.1437C10.1921 9.89395 10.1642 9.64977 10.1355 9.40273C9.55411 9.24305 9.32585 9.13227 8.81506 8.82825C8.61026 8.97652 8.20004 9.29309 7.99716 9.39105C7.7863 9.49285 6.85127 8.44704 6.80116 8.27192C6.75761 8.11972 7.32356 7.49439 7.44868 7.34424C7.2891 7.06408 7.1301 6.66991 7.05803 6.3601C6.8616 6.32771 6.19942 6.2748 6.12835 6.19612C6.00242 6.0567 6.00405 4.65475 6.11633 4.44232C6.16588 4.34856 6.92866 4.2628 7.05126 4.24456C7.1516 3.8512 7.25047 3.58971 7.43392 3.23318C7.27649 3.03356 6.89137 2.61384 6.81492 2.41551C6.72226 2.17518 7.68561 1.26937 7.89517 1.19616C8.03242 1.14822 8.66901 1.63818 8.81912 1.73815C9.22252 1.45485 9.64988 1.29022 10.1179 1.15532C10.1474 0.951443 10.1654 0.746796 10.1944 0.543548C10.2274 0.312072 10.2036 0.0770979 10.4653 0.00530269ZM11.4437 8.40888C13.1865 8.25553 14.4745 6.71761 14.3194 4.97502C14.1644 3.23245 12.6251 1.94607 10.8826 2.10281C9.14268 2.25934 7.85845 3.79593 8.01328 5.53611C8.1681 7.27628 9.70345 8.56202 11.4437 8.40888Z" fill="var(--fill-0, #005276)"/>
<path id="Vector_2" d="M12.0638 3.34848C12.2086 3.34349 12.8312 3.31145 12.9068 3.40098C12.9265 3.46701 12.9407 3.55909 12.9409 3.62831C12.9424 4.35791 12.9419 5.10125 12.9423 5.82957C12.9424 6.0087 12.9521 6.96295 12.9274 7.06027C12.8753 7.12055 12.9062 7.09874 12.8293 7.12598C12.6742 7.13225 12.068 7.16555 11.9772 7.08197C11.9532 7.01042 11.9422 6.92664 11.9417 6.85098C11.9343 5.74856 11.9485 4.64515 11.9363 3.54282C11.935 3.4318 11.9585 3.38404 12.0638 3.34848Z" fill="var(--fill-0, #005276)"/>
<path id="Vector_3" d="M10.6759 4.56758C10.842 4.56566 11.4586 4.53446 11.5555 4.61262C11.6013 4.78143 11.588 5.15263 11.5878 5.33716V6.28675C11.5885 6.52265 11.5911 6.78207 11.5864 7.01946C11.5855 7.06614 11.5455 7.09752 11.5109 7.12807C11.3538 7.1325 10.7467 7.164 10.634 7.08885C10.6031 6.97901 10.5982 6.87402 10.5983 6.76049C10.5986 6.07397 10.5959 5.38731 10.5997 4.70078C10.6001 4.63047 10.6285 4.61228 10.6759 4.56758Z" fill="var(--fill-0, #005276)"/>
<path id="Vector_4" d="M9.35175 5.53455C9.50564 5.52979 10.125 5.49876 10.2081 5.58102C10.2713 5.79525 10.2498 6.76138 10.2265 7.03915C10.2222 7.08996 10.1789 7.1106 10.1431 7.13183C9.95336 7.13346 9.40666 7.16429 9.2802 7.07873C9.24499 7.0047 9.24607 6.85227 9.24777 6.76745C9.25538 6.38644 9.23465 6.00066 9.25786 5.621C9.2604 5.57969 9.32042 5.55137 9.35175 5.53455Z" fill="var(--fill-0, #005276)"/>
<path id="Vector_5" d="M8.95534 14.1647C9.09421 14.167 9.16696 14.2081 9.17629 14.3581C9.18996 14.578 9.17884 14.798 9.18185 15.0182C9.18907 15.545 9.16841 16.0777 9.18778 16.604C9.6589 16.3163 12.5716 14.1909 12.7251 14.1722C12.7846 14.165 12.8357 14.196 12.8783 14.2324C12.9695 14.4055 12.9173 16.2421 12.9257 16.6033C13.1335 16.48 13.6134 16.0613 13.8303 16.1239C13.9151 16.2136 13.8943 16.6176 13.8952 16.7465C13.9101 18.7912 13.8719 20.843 13.8968 22.8872C13.5055 22.8634 12.9119 22.8819 12.5065 22.8821H7.27874L5.57141 22.8814C5.31017 22.8812 4.88888 22.8681 4.63807 22.8884C4.64685 22.4741 4.63638 22.0099 4.63622 21.591L4.63304 18.7099C4.63279 18.4743 4.61485 17.3604 4.65842 17.1792C4.75889 17.0589 5.25209 16.735 5.40724 16.6276L6.37568 15.9534L7.98545 14.8307C8.27663 14.6266 8.65952 14.3426 8.95534 14.1647ZM12.5677 20.1754C12.8238 20.0316 12.7138 19.5381 12.7286 19.2619C12.7624 18.6267 12.7035 18.5735 12.0731 18.6069C11.8776 18.6127 11.5698 18.6104 11.3595 18.612C11.3032 18.6464 11.2055 18.7045 11.199 18.7797C11.1701 19.1173 11.1899 19.4627 11.1852 19.8018C11.1834 19.9195 11.1995 20.0281 11.2646 20.1269C11.4104 20.2228 12.3405 20.178 12.5677 20.1754ZM7.2159 20.1745C7.28138 20.1392 7.33263 20.1131 7.36203 20.0404C7.40741 19.9281 7.39622 18.8238 7.34291 18.7328C7.30744 18.6723 7.24296 18.6296 7.17464 18.6171C6.93412 18.5728 6.28639 18.6094 6.00783 18.6115C5.95384 18.6428 5.86122 18.6917 5.85476 18.7636C5.82169 19.1367 5.83671 19.5246 5.84249 19.8994C5.84444 20.0264 5.89133 20.161 6.03267 20.1698C6.42073 20.1941 6.82677 20.1794 7.2159 20.1745ZM9.88945 20.1773C9.93835 20.1518 10.0227 20.1079 10.0327 20.0486C10.0679 19.8403 10.0593 19.6043 10.0571 19.3917C10.0554 19.2306 10.1087 18.6393 9.87809 18.6214C9.48832 18.5912 9.07376 18.6081 8.68168 18.6122C8.6266 18.6461 8.53928 18.698 8.53293 18.7706C8.50272 19.1166 8.52315 19.4709 8.51846 19.8184C8.51705 19.9228 8.53557 20.0435 8.59507 20.1303C8.75742 20.2189 9.63752 20.1764 9.88945 20.1773Z" fill="var(--fill-0, #005276)"/>
<path id="Vector_6" d="M14.6727 10.7627C15.1314 10.748 15.6719 10.7621 16.138 10.7624L19.0414 10.763L20.4943 10.761C20.7362 10.7605 20.9845 10.7532 21.2254 10.7706C21.3572 10.7801 21.4874 10.9129 21.4928 11.0459C21.5038 11.3193 21.4998 11.5949 21.4998 11.8687L21.4993 13.5223L21.4959 20.3438L21.497 21.9487C21.4977 22.1174 21.5103 22.675 21.4798 22.8102C21.3366 22.9311 20.4564 22.8817 20.2183 22.8802L20.2176 19.5232C20.2192 19.2983 20.2622 18.6498 20.1477 18.5014C20.0934 18.4311 19.1299 18.4532 19.0124 18.4532L17.3873 18.4535L16.3538 18.4525C15.6 18.4523 15.65 18.3766 15.65 19.1349V20.0035L15.6502 22.8805C15.4039 22.8816 14.5263 22.9302 14.3815 22.8095C14.3474 22.6505 14.3589 21.9335 14.3587 21.7327L14.3589 19.5092L14.3598 14.0148C14.3598 13.0672 14.3584 12.1196 14.361 11.172C14.3615 10.9378 14.4289 10.8101 14.6727 10.7627ZM16.9644 14.1502C17.0831 14.15 17.2248 14.1222 17.2339 13.98C17.2601 13.5683 17.2424 13.1428 17.2454 12.73C17.2468 12.5453 17.1342 12.4614 16.9612 12.4588C16.6322 12.4535 16.3032 12.4609 15.9743 12.4609C15.8739 12.4647 15.7768 12.4602 15.7039 12.542C15.6112 12.6459 15.632 13.7275 15.6575 13.9018C15.6664 13.9629 15.6906 14.0839 15.7457 14.1222C15.8438 14.1904 16.7807 14.1483 16.9644 14.1502ZM19.699 14.1495C19.8129 14.1514 20.0957 14.1838 20.1679 14.0837C20.2531 13.9658 20.24 12.7688 20.1861 12.6076C20.1741 12.5716 20.1503 12.5159 20.1176 12.4936C20.0065 12.4182 19.2919 12.461 19.1166 12.4617C18.9113 12.4612 18.6542 12.4161 18.6371 12.7027C18.6128 13.1073 18.639 13.5195 18.6329 13.9254C18.6299 14.1161 18.8015 14.1547 18.955 14.1537C19.2029 14.1519 19.451 14.1509 19.699 14.1495ZM17.0929 17.0423C17.1515 17.0014 17.2332 16.9508 17.2365 16.869C17.2542 16.4375 17.25 15.9901 17.2381 15.5592C17.2346 15.4285 17.0516 15.3589 16.9477 15.3713C16.5672 15.3706 16.1824 15.364 15.8022 15.3755C15.7411 15.4182 15.6806 15.4542 15.6635 15.5322C15.621 15.7264 15.6215 16.8359 15.7114 16.9729C15.7382 17.014 15.7934 17.0288 15.8398 17.0377C16.0535 17.079 16.8605 17.0648 17.0929 17.0423ZM20.0338 17.0484C20.1022 17.026 20.1519 16.9993 20.1917 16.9366C20.2493 16.8462 20.2278 15.6513 20.1842 15.5139C20.1735 15.4806 20.1508 15.4241 20.1195 15.407C19.9873 15.3346 18.9898 15.3647 18.7943 15.3773C18.7396 15.4147 18.6498 15.4694 18.6435 15.5434C18.6126 15.9067 18.6346 16.279 18.6294 16.644C18.6276 16.7645 18.6451 16.8856 18.7072 16.9895C18.8366 17.0944 19.7954 17.0503 20.0338 17.0484Z" fill="var(--fill-0, #005276)"/>
<path id="Vector_7" d="M2.84596 13.3542C3.54535 13.3329 4.32966 13.3521 5.03722 13.3498C5.10426 14.3081 5.11044 15.2907 5.17436 16.2426C4.89103 16.4373 4.5787 16.6414 4.312 16.8542C4.13208 16.9977 4.18257 17.5692 4.18261 17.7948L4.18311 18.9628L4.18234 22.8817C3.82237 22.8735 3.42467 22.8817 3.06194 22.8821C2.78658 22.8824 2.51122 22.8842 2.23588 22.8878C2.08347 22.8892 1.70195 22.9188 1.59478 22.8184C1.51761 22.4866 1.58958 21.808 1.56566 21.4101C1.55536 21.2386 1.55387 19.6533 1.60476 19.5909C1.77135 19.3862 2.8004 19.6465 3.03673 19.4466C3.11722 19.3818 3.11668 19.1924 3.03004 19.1386C2.85122 19.0272 2.46951 19.0679 2.25731 19.0674C2.27696 18.8984 2.28118 18.6212 2.29069 18.4413L2.35848 17.1635L2.56901 13.3575L2.84596 13.3542Z" fill="var(--fill-0, #005276)"/>
<path id="Vector_8" d="M16.1224 18.9135C17.0847 18.8901 18.0583 18.9223 19.0217 18.9092C19.262 18.9058 19.5264 18.9027 19.765 18.9174C19.7924 19.381 19.7723 20.0598 19.7706 20.538C19.7678 21.3095 19.7821 22.1171 19.7669 22.886C19.5313 22.8629 18.8683 22.8825 18.6065 22.8823L16.1014 22.8813C16.1018 22.4919 16.0671 19.0101 16.1224 18.9135ZM19.3484 21.2745C19.4682 21.1456 19.4463 20.9866 19.2691 20.9875C18.8665 20.989 18.4512 20.9712 18.0498 20.9843C17.5473 21.0006 17.0055 20.9598 16.507 20.9896C16.4265 21.0648 16.4042 21.1295 16.4603 21.2304C16.547 21.3004 16.8358 21.2899 16.9521 21.2848C17.7266 21.2517 18.5823 21.3304 19.3484 21.2745ZM19.3143 20.1296C19.4773 20.039 19.4664 19.8536 19.2812 19.8452C18.9844 19.8318 18.6762 19.8379 18.3793 19.838L16.5446 19.8389C16.4475 19.887 16.405 19.943 16.4402 20.0568C16.4839 20.1104 16.5313 20.1303 16.6004 20.1301C17.5016 20.1279 18.4134 20.1459 19.3143 20.1296Z" fill="var(--fill-0, #005276)"/>
<path id="Vector_9" d="M0.916726 2.27774C1.52072 2.23356 1.94795 2.57213 2.07661 3.15364C2.55184 3.14116 3.02997 3.14852 3.5055 3.14848C3.76227 3.14847 4.03357 3.15539 4.22401 3.35561C4.47553 3.62006 4.40291 4.06473 4.39711 4.39692C4.39511 4.51081 4.39683 4.64434 4.48548 4.72884C4.62491 4.86169 5.38008 4.80287 5.60736 4.80095C5.60447 4.95416 5.60671 5.11291 5.60678 5.26659C5.14826 5.27231 4.53353 5.36018 4.16133 5.0865C3.74429 4.64707 4.10858 4.07745 3.86638 3.68587C3.79978 3.57819 2.28855 3.623 2.0545 3.62356C2.02064 3.72363 1.98788 3.80344 1.92934 3.89209C1.76849 4.13567 1.51669 4.30462 1.2303 4.36111C0.97306 4.41273 0.695341 4.35338 0.477489 4.20825C0.236744 4.04787 0.0710459 3.797 0.0180346 3.51262C-0.0337525 3.2364 0.0270421 2.95095 0.186881 2.71983C0.369333 2.45624 0.609589 2.33457 0.916726 2.27774Z" fill="var(--fill-0, #005276)"/>
<path id="Vector_10" d="M4.50164 5.95183C4.79325 5.92746 5.29688 5.94488 5.60235 5.9462C5.60169 6.16394 5.60613 6.22633 5.73194 6.40924C5.57171 6.40462 5.33006 6.41438 5.19602 6.40985C4.43551 6.38232 4.35791 6.36911 4.40471 7.147C4.4618 8.09598 3.87107 8.04592 3.19357 8.04505L2.0433 8.04269C2.02959 8.09691 2.01383 8.13902 1.99253 8.19062C1.88471 8.44537 1.68013 8.6469 1.42378 8.75091C1.13886 8.86657 0.879521 8.84538 0.600036 8.72902L0.578524 8.71774C0.0537278 8.43736 -0.159192 7.80299 0.141631 7.28162C0.281688 7.04074 0.512692 6.86626 0.782681 6.79742C1.05566 6.72942 1.34454 6.77437 1.58395 6.92209C1.83392 7.07629 1.97268 7.29229 2.04098 7.57248C2.48662 7.57213 3.39716 7.60272 3.80083 7.54783C4.24249 7.48779 3.49778 6.23896 4.50164 5.95183Z" fill="var(--fill-0, #005276)"/>
<path id="Vector_11" d="M20.9281 2.27965C21.135 2.25728 21.3201 2.28449 21.5084 2.37799C21.7631 2.50344 21.9553 2.72768 22.0403 2.99854C22.1244 3.25961 22.1083 3.57137 21.978 3.81349C21.535 4.63726 20.3107 4.53818 20.0423 3.62153C19.7346 3.62677 18.7029 3.56873 18.4878 3.66305C18.4411 3.68353 18.405 3.70922 18.3814 3.75614C18.2896 3.93945 18.4211 4.54213 18.3102 4.83844C18.3078 4.84493 18.3054 4.85137 18.3027 4.85784C18.032 5.40327 17.2936 5.27855 16.765 5.26547C16.7678 5.11226 16.7664 4.95898 16.761 4.80584C17.0083 4.80518 17.267 4.80691 17.5265 4.807C18.3909 4.80726 17.4001 3.35845 18.4084 3.17979C18.6691 3.1336 18.8696 3.14932 19.1225 3.1493C19.4219 3.14929 19.7126 3.1513 20.0069 3.15221C20.1495 2.65767 20.3992 2.35609 20.9281 2.27965Z" fill="var(--fill-0, #005276)"/>
<path id="Vector_12" d="M16.7638 5.94321C17.0849 5.9511 17.4228 5.91544 17.741 5.95042C18.7295 6.05913 18.1682 7.23899 18.4176 7.49604C18.4666 7.54639 18.5257 7.55912 18.5932 7.5682C18.7657 7.59137 18.9554 7.57598 19.1302 7.5749L20.0221 7.57364C20.2004 7.00325 20.678 6.64214 21.2907 6.79881C21.5546 6.86576 21.7804 7.03649 21.9166 7.27229C22.0607 7.5233 22.0824 7.8299 22.0069 8.10618C21.9833 8.17347 21.9485 8.25537 21.9122 8.31763C21.7765 8.55144 21.5537 8.72189 21.2926 8.79157C21.0236 8.86249 20.7375 8.82205 20.4989 8.67939C20.2476 8.527 20.1045 8.32368 20.0328 8.04413C19.5419 8.03516 19.0347 8.07689 18.5465 8.03937C17.5069 7.9595 18.1152 6.77733 17.8357 6.48602C17.7077 6.35249 16.8595 6.40854 16.6381 6.40547C16.7624 6.22018 16.7645 6.15839 16.7638 5.94321Z" fill="var(--fill-0, #005276)"/>
<path id="Vector_13" d="M2.67892 11.3485L4.94096 11.3488C4.959 11.8664 4.9967 12.3829 5.01335 12.8976L4.98322 12.9058H2.60056C2.61768 12.3946 2.65492 11.8623 2.67892 11.3485Z" fill="var(--fill-0, #005276)"/>
<path id="Vector_14" d="M2.95877 9.57481L4.03842 9.57189C4.22848 9.57181 4.6858 9.54155 4.82308 9.64416C4.88701 9.78623 4.90049 10.671 4.91385 10.8996L4.6273 10.8986L2.70396 10.898C2.72395 10.5858 2.72318 9.95903 2.79366 9.64741C2.80377 9.60276 2.91043 9.58206 2.95877 9.57481Z" fill="var(--fill-0, #005276)"/>
</g>
</svg>
