<svg preserveAspectRatio="none" width="100%" height="100%" overflow="visible" style="display: block;" viewBox="0 0 22.0001 19.7727" fill="none" xmlns="http://www.w3.org/2000/svg">
<g id="Group 1321317032">
<path id="Subtract" d="M10.7335 0.00997269C12.3255 -0.0302647 12.002 -0.0149786 12.4073 1.40157C12.764 1.5949 13.2231 1.82483 13.5323 2.07345C13.9177 1.88853 14.3953 1.71589 14.7989 1.5588C15.1731 1.95175 15.8001 3.11152 16.0274 3.62814C15.6332 3.92737 15.2618 4.24262 14.8829 4.55978C15.0579 5.08519 15.0063 5.28631 14.919 5.82833C15.2437 6.06678 15.4746 6.29159 15.8379 6.53536C15.3395 7.51883 15.5701 7.87387 14.7823 8.74337C14.3637 8.58159 13.9412 8.42987 13.5157 8.28927C13.1649 8.53064 12.7949 8.7433 12.4102 8.92501C12.2281 9.42777 12.2668 9.91344 12.0215 10.2404C11.8535 10.3699 11.7253 10.346 11.5088 10.342C9.97949 10.3817 9.83164 10.5589 9.6524 8.95333C9.23594 8.79215 8.82518 8.50733 8.45025 8.26095L7.23931 8.75704C6.55401 8.06633 6.6768 7.48077 6.16412 6.5256C6.40634 6.39547 6.82487 6.05038 7.05865 5.86837C6.987 5.34998 6.9542 5.01318 7.08013 4.50314C6.76866 4.20895 6.318 3.87699 5.97271 3.60763L5.98638 3.57247C6.15498 3.16459 6.90202 1.77242 7.27154 1.62228C7.57951 1.63883 8.09843 1.91594 8.37994 2.06564C8.75809 1.83318 9.19297 1.62857 9.59283 1.42989C9.69302 0.962075 9.80836 0.497525 9.93951 0.0373164C10.1978 0.0234887 10.4734 0.0187029 10.7335 0.00997269ZM10.754 3.09884C10.0019 3.18544 9.35437 3.67072 9.05963 4.36837C8.76502 5.06599 8.86805 5.86813 9.33013 6.46798C9.79224 7.06791 10.5414 7.37211 11.2911 7.26486C12.4279 7.1021 13.2231 6.05651 13.0762 4.9172C12.9292 3.77781 11.8949 2.96766 10.754 3.09884Z" fill="var(--fill-0, #005276)"/>
<path id="Vector" d="M18.5868 11.1842C20.1478 10.9798 21.6039 12.0505 21.8974 13.5776C22.0069 14.1462 22.0063 14.6551 21.9952 15.2316C21.9665 16.7237 22.0327 18.2269 21.9653 19.717C21.4071 19.7859 20.4582 19.762 19.8684 19.7621L16.4131 19.753C16.3352 18.5861 16.3791 16.8794 16.3868 15.6776C15.9738 16.1221 15.7325 16.3849 15.217 16.7032C14.4409 17.0544 13.5219 17.3282 12.7066 17.5905C12.5976 17.6256 12.2239 17.4483 12.1665 17.491C11.7706 17.7861 11.4185 17.9351 10.9523 18.0833C10.0831 17.7278 8.81992 17.085 9.53077 15.9828C10.1252 15.0614 11.6464 15.5335 12.4325 15.3258C13.1494 15.1363 14.1323 14.7659 14.6594 14.2558C16.0218 12.9376 16.5959 11.5787 18.5868 11.1842Z" fill="var(--fill-0, #005276)"/>
<path id="Vector_2" d="M2.68014 11.1752C5.28567 10.9976 6.0138 13.1769 7.73001 14.5606C8.07337 14.8375 9.09893 15.1521 9.58538 15.3346C9.09893 15.7772 8.959 16.0204 8.7783 16.6368C8.90622 17.0557 9.09553 17.2898 9.36058 17.6234C8.5337 17.3102 7.48154 17.002 6.6915 16.6238C6.60077 16.5804 5.86912 15.9306 5.67589 15.7907C5.61052 15.9107 5.6237 16.216 5.6203 16.3694C5.62423 17.464 5.64971 18.6433 5.60595 19.7311C4.7284 19.7896 3.62762 19.7623 2.73426 19.7653C1.92454 19.768 0.839285 19.7932 0.0525238 19.732C-0.0140158 19.2585 0.00754068 17.5447 0.0166196 16.9865C0.0290372 16.2264 -0.0471075 14.4788 0.0505933 13.8043C0.109343 13.375 0.25437 12.962 0.47695 12.5902C1.00482 11.7211 1.73869 11.4006 2.68014 11.1752Z" fill="var(--fill-0, #005276)"/>
<path id="Vector_3" d="M2.66466 5.79861C3.96605 5.49094 5.26879 6.30267 5.56658 7.60676C5.86431 8.91084 5.04299 10.2079 3.73709 10.4959C2.44507 10.7807 1.16524 9.96983 0.87067 8.67957C0.576103 7.38938 1.3771 6.10305 2.66466 5.79861Z" fill="var(--fill-0, #005276)"/>
<path id="Vector_4" d="M18.2148 5.8036C19.5011 5.49042 20.7991 6.27585 21.1189 7.56118C21.4387 8.84651 20.6603 10.1488 19.3769 10.4753C18.0842 10.8042 16.7704 10.0185 16.4482 8.72371C16.1267 7.42888 16.9186 6.11906 18.2148 5.8036Z" fill="var(--fill-0, #005276)"/>
</g>
</svg>
