<svg preserveAspectRatio="none" width="100%" height="100%" overflow="visible" style="display: block;" viewBox="0 0 22 18.7976" fill="none" xmlns="http://www.w3.org/2000/svg">
<g id="Group">
<path id="Vector" fill-rule="evenodd" clip-rule="evenodd" d="M22 14.4357H0V14.9743C0 15.606 0.516866 16.1228 1.1485 16.1228H20.8515C21.4831 16.1228 22 15.606 22 14.9743V14.4357H22ZM6.43936 16.8353L5.45221 18.5292C5.37762 18.6572 5.47849 18.7976 5.60644 18.7976H16.3936C16.5215 18.7976 16.6224 18.6572 16.5478 18.5292L15.5607 16.8353H6.43936ZM5.08227 3.5375C5.71755 3.7127 6.14348 4.33467 6.05049 5.01026L7.77455 5.75402C8.35252 3.85178 7.06057 1.88082 5.08227 1.66064V3.5375ZM5.76836 5.66393L7.49238 6.40766C6.61002 7.94828 4.6363 8.47383 3.1085 7.57161L4.23545 6.0708C4.78384 6.28728 5.40389 6.11707 5.76836 5.66393ZM3.66812 5.64434C3.08873 4.89598 3.4532 3.79023 4.36972 3.5375V1.66064C2.77792 1.8378 1.54009 3.18751 1.54009 4.82659C1.54009 5.7404 1.92487 6.56424 2.54118 7.14515L3.66812 5.64434ZM10.1196 6.18338L12.4237 3.18768C12.1701 2.6665 12.5469 2.04511 13.1391 2.04511C13.6184 2.04511 13.9881 2.46547 13.9278 2.94132L15.9174 4.27455C16.0191 4.21671 16.1323 4.182 16.2489 4.17289C16.3656 4.16377 16.4828 4.18048 16.5922 4.22182L18.7081 2.26832L18.265 2.24747C18.1713 2.24243 18.0834 2.20054 18.0205 2.13095C17.9576 2.06135 17.9248 1.9697 17.9292 1.87599C17.9336 1.78228 17.9749 1.69412 18.0441 1.63074C18.1132 1.56736 18.2046 1.53391 18.2984 1.53768L19.6354 1.60066C19.8518 1.61085 20.0119 1.8081 19.9647 2.03634L19.7287 3.33509C19.7109 3.42653 19.6578 3.50727 19.5809 3.55989C19.504 3.61251 19.4095 3.63279 19.3178 3.61635C19.2261 3.59991 19.1445 3.54808 19.0907 3.47203C19.0369 3.39598 19.0151 3.30182 19.0301 3.20986L19.0892 2.88427L17.0746 4.74434C17.2207 5.24927 16.8432 5.76079 16.3107 5.76079C15.8313 5.76079 15.4616 5.34003 15.522 4.86454L13.5325 3.53131C13.3672 3.62543 13.1736 3.65716 12.9869 3.62074L10.6828 6.61643C10.9364 7.13753 10.5596 7.75901 9.96742 7.75901C9.52827 7.75901 9.17231 7.40304 9.17231 6.96389C9.17231 6.46266 9.62968 6.08834 10.1196 6.18338ZM9.23746 9.14345H10.6974C10.7955 9.14345 10.8755 9.22348 10.8755 9.32159V12.129C10.8755 12.2271 10.7955 12.3071 10.6974 12.3071H9.23746C9.13935 12.3071 9.05932 12.2271 9.05932 12.129V9.32159C9.05932 9.22348 9.13935 9.14345 9.23746 9.14345ZM18.7525 4.21683C18.6544 4.21683 18.5743 4.29686 18.5743 4.39497V12.129C18.5743 12.2271 18.6544 12.3071 18.7525 12.3071H20.2124C20.3105 12.3071 20.3905 12.2271 20.3905 12.129V4.39497C20.3905 4.29686 20.3105 4.21683 20.2124 4.21683H18.7525ZM15.5808 7.14519C15.4827 7.14519 15.4026 7.22522 15.4026 7.32333V12.129C15.4026 12.2271 15.4827 12.3071 15.5808 12.3071H17.0407C17.1388 12.3071 17.2189 12.2271 17.2189 12.129V7.32333C17.2189 7.22522 17.1388 7.14519 17.0407 7.14519H15.5808ZM12.4091 5.63739C12.311 5.63739 12.231 5.71742 12.231 5.81553V12.129C12.231 12.2271 12.311 12.3071 12.4091 12.3071H13.8691C13.9672 12.3071 14.0472 12.2271 14.0472 12.129V5.81553C14.0472 5.71742 13.9672 5.63739 13.8691 5.63739H12.4091ZM22 13.7232H0V1.14854C0 0.516822 0.516866 0 1.14854 0H20.8515C21.4831 0 22 0.516778 22 1.14854V13.7232ZM2.15168 13.0578H2.47843C2.57292 13.0578 2.66354 13.0203 2.73035 12.9535C2.79717 12.8867 2.8347 12.7961 2.8347 12.7016C2.8347 12.6071 2.79717 12.5165 2.73035 12.4496C2.66354 12.3828 2.57292 12.3453 2.47843 12.3453H2.15168C2.05719 12.3453 1.96657 12.3828 1.89976 12.4496C1.83294 12.5165 1.7954 12.6071 1.7954 12.7016C1.7954 12.7961 1.83294 12.8867 1.89976 12.9535C1.96657 13.0203 2.05719 13.0578 2.15168 13.0578ZM3.53234 13.0578H6.75489C6.84938 13.0578 6.94 13.0203 7.00682 12.9535C7.07363 12.8867 7.11117 12.7961 7.11117 12.7016C7.11117 12.6071 7.07363 12.5165 7.00682 12.4496C6.94 12.3828 6.84938 12.3453 6.75489 12.3453H3.53234C3.43785 12.3453 3.34723 12.3828 3.28041 12.4496C3.2136 12.5165 3.17606 12.6071 3.17606 12.7016C3.17606 12.7961 3.2136 12.8867 3.28041 12.9535C3.34723 13.0203 3.43785 13.0578 3.53234 13.0578ZM3.53234 10.1916H6.75489C6.84938 10.1916 6.94 10.1541 7.00682 10.0873C7.07363 10.0204 7.11117 9.92983 7.11117 9.83534C7.11117 9.74085 7.07363 9.65023 7.00682 9.58341C6.94 9.5166 6.84938 9.47906 6.75489 9.47906H3.53234C3.43785 9.47906 3.34723 9.5166 3.28041 9.58341C3.2136 9.65023 3.17606 9.74085 3.17606 9.83534C3.17606 9.92983 3.2136 10.0204 3.28041 10.0873C3.34723 10.1541 3.43785 10.1916 3.53234 10.1916ZM3.53234 11.6247H6.75489C6.84938 11.6247 6.94 11.5872 7.00682 11.5204C7.07363 11.4536 7.11117 11.3629 7.11117 11.2685C7.11117 11.174 7.07363 11.0833 7.00682 11.0165C6.94 10.9497 6.84938 10.9122 6.75489 10.9122H3.53234C3.43785 10.9122 3.34723 10.9497 3.28041 11.0165C3.2136 11.0833 3.17606 11.174 3.17606 11.2685C3.17606 11.3629 3.2136 11.4536 3.28041 11.5204C3.34723 11.5872 3.43785 11.6247 3.53234 11.6247ZM2.15168 10.1916H2.47843C2.57292 10.1916 2.66354 10.1541 2.73035 10.0873C2.79717 10.0204 2.8347 9.92983 2.8347 9.83534C2.8347 9.74085 2.79717 9.65023 2.73035 9.58341C2.66354 9.5166 2.57292 9.47906 2.47843 9.47906H2.15168C2.05719 9.47906 1.96657 9.5166 1.89976 9.58341C1.83294 9.65023 1.7954 9.74085 1.7954 9.83534C1.7954 9.92983 1.83294 10.0204 1.89976 10.0873C1.96657 10.1541 2.05719 10.1916 2.15168 10.1916ZM2.15168 11.6247H2.47843C2.57292 11.6247 2.66354 11.5872 2.73035 11.5204C2.79717 11.4536 2.8347 11.3629 2.8347 11.2685C2.8347 11.174 2.79717 11.0833 2.73035 11.0165C2.66354 10.9497 2.57292 10.9122 2.47843 10.9122H2.15168C2.05719 10.9122 1.96657 10.9497 1.89976 11.0165C1.83294 11.0833 1.7954 11.174 1.7954 11.2685C1.7954 11.3629 1.83294 11.4536 1.89976 11.5204C1.96657 11.5872 2.05719 11.6247 2.15168 11.6247Z" fill="var(--fill-0, #005276)"/>
</g>
</svg>
