<svg preserveAspectRatio="none" width="100%" height="100%" overflow="visible" style="display: block;" viewBox="0 0 18.0164 14.4491" fill="none" xmlns="http://www.w3.org/2000/svg">
<g id="Group 1321317033">
<path id="Vector" d="M13.3483 6.37959C13.4213 6.36426 13.5834 6.37582 13.5933 6.47545C13.6184 6.72635 13.6081 6.98601 13.6074 7.23874L13.6026 9.25645C13.6022 9.68076 13.576 10.1354 13.6461 10.551C13.666 10.6432 13.7242 10.6746 13.8114 10.6838C14.0796 10.712 14.3613 10.7036 14.6305 10.7038L16.5568 10.701C16.8948 10.6987 17.2339 10.6894 17.5711 10.693C17.7058 10.6944 17.9076 10.7196 17.9008 10.8957C17.8749 11.5666 17.4911 12.3561 17.0961 12.8812C16.4492 13.741 15.502 14.249 14.449 14.4075C13.4881 14.5589 12.3905 14.2894 11.5878 13.7269C9.31734 12.1359 9.28115 8.70166 11.5512 7.08857C12.1364 6.67277 12.6358 6.50409 13.3483 6.37959Z" fill="var(--fill-0, #005276)"/>
<path id="Vector_2" d="M6.71405 2.69879C7.24959 2.66848 7.87856 2.69351 8.4195 2.69909C8.58096 2.70076 8.68615 2.76019 8.80648 2.86428C8.92695 3.22388 8.87452 4.70342 8.87452 5.20081L8.8736 9.00347L8.87454 11.5295C8.87508 11.9597 8.88284 12.3957 8.8677 12.8251C8.86024 13.0359 8.68584 13.1872 8.47884 13.1941C8.15482 13.2138 7.78062 13.2013 7.45364 13.2037C7.1782 13.2058 6.58104 13.2512 6.37223 13.0928C6.24227 12.8045 6.29048 11.0235 6.29048 10.5753L6.28997 6.57329L6.28552 4.37911C6.28448 3.90608 6.26653 3.41698 6.32433 2.94851C6.3488 2.75028 6.55894 2.71951 6.71405 2.69879Z" fill="var(--fill-0, #005276)"/>
<path id="Vector_3" d="M3.50126 5.46204C3.56463 5.45939 3.62805 5.45759 3.69147 5.45663C4.1808 5.45002 5.0073 5.40938 5.47497 5.50467C5.53251 5.51639 5.64056 5.62502 5.68793 5.6712C5.7855 5.99245 5.74298 6.89088 5.74265 7.26684L5.7416 9.6292L5.74352 11.6149C5.74514 12.0026 5.75669 12.3994 5.73515 12.7857C5.7176 13.1005 5.52597 13.1893 5.2492 13.2068C4.91674 13.2214 3.61165 13.2516 3.35351 13.1531C3.29646 13.1313 3.26011 13.1116 3.23444 13.0545C3.18248 12.9387 3.17315 12.7748 3.16769 12.6489C3.15077 12.2594 3.16282 11.8659 3.16326 11.4759L3.16603 9.36431C3.16753 8.25019 3.16317 7.13639 3.16132 6.02238C3.16071 5.65446 3.17679 5.59812 3.50126 5.46204Z" fill="var(--fill-0, #005276)"/>
<path id="Vector_4" d="M11.2395 0.00804226C11.5739 0.000987571 11.6765 -0.0289889 11.9663 0.129683C12.1081 0.481808 12.0637 1.04595 12.0637 1.43614L12.0629 3.06303C12.0622 3.99928 12.1003 5.19931 12.0586 6.11018C10.9387 6.61948 10.294 7.33456 9.72475 8.3948C9.64882 8.53739 9.52629 8.87836 9.44986 9.05454C9.44646 9.02794 9.44402 9.00122 9.44257 8.97446C9.41606 8.47041 9.43218 7.81725 9.43228 7.30489L9.43286 4.33348L9.43073 1.80851C9.42944 -0.258114 9.15321 0.0161282 11.2395 0.00804226Z" fill="var(--fill-0, #005276)"/>
<path id="Vector_5" d="M0.771639 8.16481C1.24735 8.16638 1.81008 8.1351 2.28165 8.18319C2.3299 8.18811 2.45365 8.25784 2.50008 8.28435C2.50698 8.30227 2.51363 8.32027 2.5201 8.33837C2.68812 8.81293 2.55558 10.2635 2.59461 10.8204C2.63682 11.423 2.57776 12.2083 2.57895 12.8287C2.57909 12.9023 2.52247 13.0266 2.48984 13.096C2.26904 13.2357 2.00201 13.2034 1.74057 13.2018C1.42522 13.1976 0.423334 13.2731 0.162123 13.123C0.0299594 12.9991 0.00413124 12.7706 0.00520937 12.618C0.0146312 11.2642 -0.0219078 9.90355 0.0227641 8.55196C0.0369438 8.12335 0.455608 8.16357 0.771639 8.16481Z" fill="var(--fill-0, #005276)"/>
<path id="Vector_6" d="M14.3641 6.32324C15.187 6.42257 15.7695 6.60576 16.4356 7.0967C17.1512 7.63234 17.7273 8.43707 17.9063 9.32231C17.9457 9.51705 18.1121 9.84639 17.9396 10.0247C17.9108 10.0545 17.7612 10.0706 17.7135 10.0769C17.2845 10.1022 14.4911 10.1239 14.249 10.0416C14.1694 9.85319 14.1748 9.28773 14.1804 9.06721C14.2025 8.1952 14.1313 7.30523 14.2121 6.4397C14.2177 6.37984 14.3164 6.34159 14.3641 6.32324Z" fill="var(--fill-0, #005276)"/>
</g>
</svg>
