<svg preserveAspectRatio="none" width="100%" height="100%" overflow="visible" style="display: block;" viewBox="0 0 23.999 21.0939" fill="none" xmlns="http://www.w3.org/2000/svg">
<g id="Group">
<path id="Vector" d="M0.702051 16.8751H19.0771C19.2419 16.8751 19.4012 16.8174 19.5275 16.7123C19.704 16.5645 23.73 13.1011 23.9755 5.62502H4.24103C3.99648 12.4113 0.288753 15.6011 0.250222 15.6329C0.0243302 15.8238 -0.0587795 16.1356 0.0428459 16.413C0.143768 16.6897 0.406785 16.8751 0.702051 16.8751ZM23.2958 1.40625H19.7802V0.703127C19.7802 0.309376 19.4708 0 19.0771 0C18.6833 0 18.3739 0.309376 18.3739 0.703127V1.40625H14.8114V0.703127C14.8114 0.309376 14.5021 0 14.1083 0C13.7146 0 13.4052 0.309376 13.4052 0.703127V1.40625H9.88954V0.703127C9.88954 0.309376 9.58016 0 9.18641 0C8.79266 0 8.48328 0.309376 8.48328 0.703127V1.40625H4.96764C4.57389 1.40625 4.26452 1.71563 4.26452 2.10938V4.21876H23.999V2.10938C23.999 1.71563 23.6896 1.40625 23.2958 1.40625Z" fill="var(--fill-0, #005276)"/>
<path id="Vector_2" d="M20.4305 17.7905C20.0487 18.1084 19.5694 18.2814 19.0771 18.2814H4.26456V20.3908C4.26456 20.7794 4.57905 21.0939 4.96769 21.0939H23.2959C23.6845 21.0939 23.999 20.7794 23.999 20.3908V12.5089C22.6434 15.8348 20.7517 17.5216 20.4305 17.7905Z" fill="var(--fill-0, #005276)"/>
</g>
</svg>
