<svg preserveAspectRatio="none" width="100%" height="100%" overflow="visible" style="display: block;" viewBox="0 0 21.984 21.984" fill="none" xmlns="http://www.w3.org/2000/svg">
<g id="Group">
<path id="Vector" fill-rule="evenodd" clip-rule="evenodd" d="M9.10128 5.61264C9.50688 5.61264 9.75504 5.79168 9.89136 5.94192C10.0637 6.13152 10.1582 6.384 10.1582 6.6528V6.65472H10.1592L10.8077 9.52128H11.1734L11.8248 6.64224H11.8258V6.64032C11.8258 6.37104 11.9203 6.11856 12.0926 5.92944C12.229 5.7792 12.4771 5.60016 12.8832 5.60016C13.4717 5.60016 13.9512 6.0672 13.9512 6.64128C13.9512 7.21536 13.4717 7.6824 12.8832 7.6824C12.6139 7.6824 12.3941 7.60368 12.2266 7.47696L11.7643 9.52128H12.1181C12.277 9.52128 12.4061 9.64992 12.4061 9.80928V10.8538H12.8131C13.0152 9.9984 13.5782 9.36384 14.171 8.69568C15.049 7.7064 15.9571 6.68352 15.9101 4.74576V4.73856C15.9101 2.12592 13.704 0 10.992 0C8.28 0 6.07392 2.12592 6.07392 4.73856V4.74576C6.02688 6.68352 6.93504 7.7064 7.81296 8.69568C8.40624 9.36384 8.9688 9.9984 9.17088 10.8538H9.57792V9.80928C9.57792 9.64992 9.70704 9.52128 9.86592 9.52128H10.2173L9.75744 7.48944C9.58992 7.61616 9.37008 7.69536 9.10128 7.69536C8.51232 7.69536 8.0328 7.22832 8.0328 6.65424C8.0328 6.07968 8.51232 5.61264 9.10128 5.61264ZM20.6472 9.98928H21.984V21.984H12.2664C15.1714 20.6746 17.8267 20.064 20.353 20.1192C20.4304 20.1204 20.5051 20.0909 20.5608 20.0371C20.5882 20.0103 20.6099 19.9782 20.6247 19.9429C20.6396 19.9075 20.6472 19.8695 20.6472 19.8312V9.98928ZM1.3368 19.8312C1.3368 19.909 1.368 19.9829 1.4232 20.0371C1.4506 20.064 1.48311 20.0851 1.51881 20.0992C1.55451 20.1133 1.59267 20.1201 1.63104 20.1192C4.1568 20.0635 6.81264 20.6746 9.7176 21.984H0V9.98928H1.3368V19.8312ZM8.64528 13.62C8.64528 13.7016 8.67936 13.775 8.73408 13.8274H8.7336L9.59136 14.6525C9.8544 14.9054 10.1674 15.0336 10.5216 15.0336H10.704V21.8093C7.55376 20.2843 4.6824 19.5398 1.95072 19.5398H1.9128V7.52976C3.5232 7.43184 5.0352 7.55184 6.41472 7.88496C6.71568 8.32656 7.05648 8.71152 7.38192 9.07824C7.99344 9.76656 8.52144 10.3622 8.64528 11.1667V13.62ZM13.3387 11.1667C13.4626 10.3622 13.9906 9.76656 14.6021 9.07824C14.9275 8.71152 15.2683 8.32656 15.5698 7.88448C16.9478 7.55136 18.4608 7.43184 20.0712 7.52976V19.5398H20.0333C17.3016 19.5398 14.4302 20.2843 11.28 21.8088V15.0336H11.4624C11.8166 15.0336 12.1301 14.9054 12.3926 14.6525L13.2504 13.8274H13.2499C13.278 13.8006 13.3004 13.7685 13.3156 13.7328C13.3309 13.6972 13.3388 13.6588 13.3387 13.62V11.1667ZM12.336 13.908H9.648L9.99072 14.2378C10.1448 14.3856 10.3186 14.4576 10.5216 14.4576H11.4624C11.6654 14.4576 11.8392 14.3856 11.9933 14.2378L12.336 13.908ZM12.7627 12.6686H9.22128V13.332H12.7627V12.6686ZM12.7627 11.4298H9.22128V12.0926H12.7627V11.4298ZM9.10128 7.11936C8.8296 7.11936 8.6088 6.91056 8.6088 6.65424C8.6088 6.39744 8.8296 6.18864 9.10128 6.18864C9.25776 6.18864 9.38016 6.23616 9.46512 6.32928C9.53952 6.41136 9.58224 6.52944 9.58224 6.6528C9.58224 6.86784 9.45648 7.11936 9.10128 7.11936ZM11.8301 10.0973V10.8538H10.1539V10.0973H11.8301ZM12.5189 6.3168C12.6038 6.22368 12.7262 6.17616 12.8832 6.17616C13.1544 6.17616 13.3752 6.38496 13.3752 6.64128C13.3752 6.89808 13.1544 7.1064 12.8832 7.1064C12.5275 7.1064 12.4018 6.85536 12.4018 6.64032C12.4018 6.51648 12.4445 6.39888 12.5189 6.3168Z" fill="var(--fill-0, #005276)"/>
</g>
</svg>
