<svg preserveAspectRatio="none" width="100%" height="100%" overflow="visible" style="display: block;" viewBox="0 0 18 22.5" fill="none" xmlns="http://www.w3.org/2000/svg">
<g id="Building contruction">
<path id="Vector" d="M16.125 21.75V8.625H13.125V11.625H8.625V6.375H5.625V8.625H1.875V21.75H0V22.5H18V21.75H16.125ZM12.75 12.75H14.25V14.25H12.75V12.75ZM12.75 15.75H14.25V17.25H12.75V15.75ZM9.75 12.75H11.25V14.25H9.75V12.75ZM9.75 15.75H11.25V17.25H9.75V15.75ZM6.75 12.75H8.25V14.25H6.75V12.75ZM6.75 15.75H8.25V17.25H6.75V15.75ZM3.75 9.75H5.25V11.25H3.75V9.75ZM3.75 12.75H5.25V14.25H3.75V12.75ZM3.75 15.75H5.25V17.25H3.75V15.75ZM10.875 21.75V19.125H9.375V21.75H8.625V19.125H7.125V21.75H6.375V18.375H11.625V21.75H10.875Z" fill="var(--fill-0, #005276)"/>
<path id="Vector_2" d="M2.625 7.875H3.375V4.5H6.75V5.625H7.5V4.5H10.875V6.375H9.375V7.125H10.875V10.875H11.625V7.125H14.625V7.875H15.375V7.125H16.125V6.375H15.375V4.5H16.125V3.75H15.375V2.25H14.625V3.75H11.625V2.25H10.875V3.75H7.5V1.5H8.25V0.75H7.5V0H6.75V0.75H3.375V0H2.625V0.75H1.875V1.5H2.625V3.75H1.875V4.5H2.625V7.875ZM14.625 4.5V6.375H11.625V4.5H14.625ZM3.375 1.5H6.75V3.75H3.375V1.5Z" fill="var(--fill-0, #005276)"/>
</g>
</svg>
