<svg preserveAspectRatio="none" width="100%" height="100%" overflow="visible" style="display: block;" viewBox="0 0 22.5641 22.875" fill="none" xmlns="http://www.w3.org/2000/svg">
<g id="Group">
<path id="Vector" fill-rule="evenodd" clip-rule="evenodd" d="M0.328436 22.875H5.33914C5.31921 22.8562 5.30014 22.8366 5.282 22.8161L4.00151 21.3703C3.77019 21.1091 3.69458 20.7518 3.80033 20.4193L4.6894 17.6239C2.29386 18.1328 0.423967 20.0634 0.00499848 22.491C-0.00334216 22.5382 -0.00122475 22.5866 0.0112011 22.6329C0.0236269 22.6791 0.046058 22.7221 0.0769089 22.7587C0.10776 22.7953 0.146278 22.8247 0.189741 22.8448C0.233204 22.8649 0.280551 22.8752 0.328436 22.875ZM5.51839 17.4919H5.94528C4.41284 17.4902 3.1453 16.3583 2.93103 14.8848H8.96647C8.75215 16.3583 7.48461 17.4902 5.95217 17.4919H6.37892L7.38228 20.6466C7.40801 20.7275 7.39067 20.8095 7.33437 20.873L6.05394 22.3188C6.04074 22.3337 6.02454 22.3456 6.00639 22.3538C5.98825 22.3619 5.96858 22.3662 5.94868 22.3662C5.92878 22.3662 5.90911 22.3619 5.89096 22.3538C5.87282 22.3456 5.85661 22.3337 5.84342 22.3188L4.56294 20.873C4.50664 20.8095 4.48929 20.7275 4.51503 20.6466L5.51839 17.4919ZM7.1465 11.6365C7.00864 11.9955 6.66289 12.2429 6.26422 12.2429H5.63328C5.23461 12.2429 4.88886 11.9955 4.75095 11.6365C4.65317 11.3818 4.62294 10.8583 4.58567 10.5715C3.59628 11.0667 2.93961 12.066 2.90065 13.1942H8.99684C8.95812 12.0745 8.30872 11.0705 7.31178 10.5716C7.27456 10.8583 7.24428 11.3819 7.1465 11.6365ZM22.0332 14.8106H16.0856V16.0511H20.8039C20.8813 16.0511 20.9445 16.1142 20.9445 16.1917V17.2288C20.9445 17.3062 20.8813 17.3694 20.8039 17.3694H16.0856V18.6809H20.8039C20.8813 18.6809 20.9445 18.7441 20.9445 18.8215V19.8586C20.9445 19.936 20.8813 19.9992 20.8039 19.9992H16.0856V21.2397H22.0332C22.2139 21.2397 22.3613 21.0923 22.3613 20.9116V15.1387C22.3613 14.958 22.2139 14.8106 22.0332 14.8106ZM18.1253 8.42349C18.6146 8.54002 19.0821 8.73386 19.5103 8.9977L20.4104 8.59795L21.4712 9.65873L21.0715 10.5585C21.3354 10.9868 21.5293 11.4545 21.6458 11.9439L22.5641 12.2974V13.7975L21.8807 14.0605H19.4344C19.5691 13.7398 19.6383 13.3953 19.6378 13.0475C19.6378 11.6024 18.4666 10.4312 17.0216 10.4312C16.7016 10.4309 16.3843 10.4894 16.0855 10.6038V7.98825L16.2715 7.50492H17.7717L18.1253 8.42349ZM8.31261 3.15769C8.1319 3.15769 7.98448 3.30511 7.98448 3.48581V10.0943C8.61646 10.4957 9.11623 11.0743 9.42144 11.7579V11.5521C9.42144 11.4746 9.48462 11.4114 9.56206 11.4114H10.9882C11.0656 11.4114 11.1288 11.4746 11.1288 11.5521V12.9782C11.1288 13.0556 11.0656 13.1188 10.9882 13.1188H9.74426C9.74623 13.1609 9.74759 13.2032 9.74825 13.2457C9.86367 13.2882 9.96848 13.3552 10.0554 13.4423C10.3842 13.771 10.3842 14.3082 10.0554 14.6369C9.96334 14.729 9.85127 14.7988 9.7279 14.8406C9.70306 15.0793 9.65557 15.3151 9.58606 15.5448C9.83253 15.1647 10.2686 14.9477 10.7192 14.9477H12.6008C13.2881 14.9477 13.9223 15.4623 13.9223 16.1758V21.2373H15.3356V3.48581C15.3356 3.30511 15.1881 3.15769 15.0074 3.15769H8.31261ZM9.76742 1.5577H13.5526C13.7333 1.5577 13.8807 1.70513 13.8807 1.88583V2.40769H9.43934V1.88583C9.43929 1.70513 9.58667 1.5577 9.76742 1.5577ZM11.285 0.375C11.285 0.275544 11.3245 0.180161 11.3948 0.109835C11.4652 0.0395088 11.5605 0 11.66 0C11.7595 0 11.8548 0.0395088 11.9252 0.109835C11.9955 0.180161 12.035 0.275544 12.035 0.375V0.807703H11.285V0.375ZM9.65581 4.87341H13.6642C13.7933 4.87341 13.8986 4.97869 13.8986 5.10778V6.28284C13.8986 6.41194 13.7933 6.51722 13.6642 6.51722H9.65581C9.59369 6.5171 9.53415 6.49236 9.49022 6.44844C9.44629 6.40451 9.42156 6.34497 9.42144 6.28284V5.10778C9.42144 4.97869 9.52672 4.87341 9.65581 4.87341ZM12.3318 11.4114H13.7579C13.8354 11.4114 13.8986 11.4746 13.8986 11.5521V12.9782C13.8986 13.0556 13.8354 13.1188 13.7579 13.1188H12.3318C12.2544 13.1188 12.1912 13.0556 12.1912 12.9782V11.5521C12.1912 11.4746 12.2543 11.4114 12.3318 11.4114ZM9.56206 8.64173H10.9882C11.0656 8.64173 11.1288 8.70492 11.1288 8.78236V10.2085C11.1288 10.2859 11.0656 10.3491 10.9882 10.3491H9.56206C9.48462 10.3491 9.42144 10.2859 9.42144 10.2085V8.78236C9.42144 8.70488 9.48462 8.64173 9.56206 8.64173ZM12.3318 8.64173H13.7579C13.8354 8.64173 13.8986 8.70492 13.8986 8.78236V10.2085C13.8986 10.2859 13.8354 10.3491 13.7579 10.3491H12.3318C12.2544 10.3491 12.1912 10.2859 12.1912 10.2085V8.78236C12.1912 8.70488 12.2543 8.64173 12.3318 8.64173ZM13.1723 21.2373H12.3353C11.9007 20.0206 11.1321 18.975 10.1477 18.1992V16.1758C10.1477 15.8801 10.4481 15.6977 10.7192 15.6977H12.6008C12.8718 15.6977 13.1722 15.8801 13.1722 16.1758V21.2373H13.1723ZM9.39772 17.6852V16.1758C9.39772 16.1208 9.40161 16.0667 9.40915 16.0138C9.19651 16.4805 8.89183 16.8995 8.51337 17.2456C8.81842 17.3705 9.11398 17.5174 9.39772 17.6852ZM9.45809 14.1349H2.43936C2.42687 14.1348 2.41452 14.1323 2.40302 14.1274C2.39152 14.1225 2.38109 14.1155 2.37233 14.1066C2.31012 14.0444 2.3585 13.9442 2.43936 13.9442H9.36326C9.42931 13.9442 9.48636 13.9337 9.52512 13.9725C9.58733 14.0347 9.539 14.1349 9.45809 14.1349ZM5.63323 11.4929C5.53194 11.4929 5.44962 11.4231 5.43654 11.3226C5.38212 10.9036 5.2939 10.4131 5.26611 10.0001C5.25364 9.81586 5.65756 9.74259 5.80662 9.72408C5.93501 9.70814 5.95151 9.70603 6.08136 9.72281C6.23159 9.74231 6.64404 9.813 6.63129 10L6.46086 11.3226C6.44783 11.423 6.36547 11.4928 6.26417 11.4928H5.63323V11.4929ZM6.55826 22.875H11.569C11.6168 22.8752 11.6642 22.8649 11.7077 22.8448C11.7511 22.8247 11.7896 22.7953 11.8205 22.7587C11.8513 22.722 11.8738 22.6791 11.8862 22.6329C11.8986 22.5866 11.9007 22.5382 11.8924 22.491C11.4734 20.0635 9.6035 18.1328 7.20795 17.624L8.09703 20.4194C8.20278 20.7519 8.12722 21.1092 7.89584 21.3704L6.6154 22.8162C6.59712 22.8367 6.57809 22.8563 6.55826 22.875Z" fill="var(--fill-0, #005276)"/>
</g>
</svg>
