<svg width="24" height="24" viewBox="0 0 24 24" fill="none" xmlns="http://www.w3.org/2000/svg">
<path d="M18.9375 6H15V5.8125C15 5.08875 14.4113 4.5 13.6875 4.5H10.3125C9.58875 4.5 9 5.08875 9 5.8125V6H5.0625C4.51561 6.0004 3.99124 6.21782 3.60453 6.60453C3.21782 6.99124 3.0004 7.51561 3 8.0625V17.4375C3.0004 17.9844 3.21782 18.5088 3.60453 18.8955C3.99124 19.2822 4.51561 19.4996 5.0625 19.5H18.9375C19.4844 19.4996 20.0088 19.2822 20.3955 18.8955C20.7822 18.5088 20.9996 17.9844 21 17.4375V8.0625C20.9996 7.51561 20.7822 6.99124 20.3955 6.60453C20.0088 6.21782 19.4844 6.0004 18.9375 6ZM13.5008 7.5H10.5V6H13.5L13.5008 7.5ZM8.625 9.75C9.6585 9.75 10.5 10.5915 10.5 11.625C10.5 12.6585 9.6585 13.5 8.625 13.5C7.5915 13.5 6.75 12.6585 6.75 11.625C6.75 10.5915 7.5915 9.75 8.625 9.75ZM12 16.6875C12 16.8367 11.9407 16.9798 11.8352 17.0852C11.7298 17.1907 11.5867 17.25 11.4375 17.25H5.8125C5.66332 17.25 5.52024 17.1907 5.41475 17.0852C5.30926 16.9798 5.25 16.8367 5.25 16.6875V16.3125C5.2504 15.7656 5.46782 15.2412 5.85453 14.8545C6.24124 14.4678 6.76561 14.2504 7.3125 14.25H9.9375C10.4844 14.2504 11.0088 14.4678 11.3955 14.8545C11.7822 15.2412 11.9996 15.7656 12 16.3125V16.6875ZM18.1875 17.25H14.0625C13.9133 17.25 13.7702 17.1907 13.6648 17.0852C13.5593 16.9798 13.5 16.8367 13.5 16.6875C13.5 16.5383 13.5593 16.3952 13.6648 16.2898C13.7702 16.1843 13.9133 16.125 14.0625 16.125H18.1875C18.3367 16.125 18.4798 16.1843 18.5852 16.2898C18.6907 16.3952 18.75 16.5383 18.75 16.6875C18.75 16.8367 18.6907 16.9798 18.5852 17.0852C18.4798 17.1907 18.3367 17.25 18.1875 17.25ZM18.1875 14.25H14.0625C13.9133 14.25 13.7702 14.1907 13.6648 14.0852C13.5593 13.9798 13.5 13.8367 13.5 13.6875C13.5 13.5383 13.5593 13.3952 13.6648 13.2898C13.7702 13.1843 13.9133 13.125 14.0625 13.125H18.1875C18.3367 13.125 18.4798 13.1843 18.5852 13.2898C18.6907 13.3952 18.75 13.5383 18.75 13.6875C18.75 13.8367 18.6907 13.9798 18.5852 14.0852C18.4798 14.1907 18.3367 14.25 18.1875 14.25ZM18.1875 11.25H14.0625C13.9133 11.25 13.7702 11.1907 13.6648 11.0852C13.5593 10.9798 13.5 10.8367 13.5 10.6875C13.5 10.5383 13.5593 10.3952 13.6648 10.2898C13.7702 10.1843 13.9133 10.125 14.0625 10.125H18.1875C18.3367 10.125 18.4798 10.1843 18.5852 10.2898C18.6907 10.3952 18.75 10.5383 18.75 10.6875C18.75 10.8367 18.6907 10.9798 18.5852 11.0852C18.4798 11.1907 18.3367 11.25 18.1875 11.25Z" fill="url(#paint0_linear_1121_3452)"/>
<defs>
<linearGradient id="paint0_linear_1121_3452" x1="12" y1="4.5" x2="12" y2="19.5" gradientUnits="userSpaceOnUse">
<stop stop-color="#3890C0"/>
<stop offset="1" stop-color="#0A8EC8"/>
</linearGradient>
</defs>
</svg>
