<svg width="24" height="24" viewBox="0 0 24 24" fill="none" xmlns="http://www.w3.org/2000/svg">
<path d="M20.8414 6.57613L15.3824 12L20.8414 17.4239C20.9401 17.2176 21 16.9896 21 16.7461V7.25391C21 7.01038 20.9401 6.78239 20.8414 6.57613ZM19.418 5.67188H4.58203C4.3385 5.67188 4.11052 5.73175 3.90425 5.83043L10.8815 12.7725C11.4984 13.3894 12.5016 13.3894 13.1185 12.7725L20.0957 5.83043C19.8895 5.73175 19.6615 5.67188 19.418 5.67188ZM3.15855 6.57613C3.05987 6.78239 3 7.01038 3 7.25391V16.7461C3 16.9896 3.05987 17.2176 3.15855 17.4239L8.61758 12L3.15855 6.57613Z" fill="url(#paint0_linear_1121_3388)"/>
<path d="M14.6348 12.7456L13.8623 13.5181C12.8344 14.546 11.1618 14.546 10.1338 13.5181L9.36137 12.7456L3.90234 18.1695C4.10861 18.2682 4.33659 18.328 4.58012 18.328H19.4161C19.6596 18.328 19.8876 18.2682 20.0938 18.1695L14.6348 12.7456Z" fill="url(#paint1_linear_1121_3388)"/>
<defs>
<linearGradient id="paint0_linear_1121_3388" x1="12" y1="5.67187" x2="12" y2="17.4239" gradientUnits="userSpaceOnUse">
<stop stop-color="#3890C0"/>
<stop offset="1" stop-color="#0A8EC8"/>
</linearGradient>
<linearGradient id="paint1_linear_1121_3388" x1="11.9981" y1="12.7456" x2="11.9981" y2="18.328" gradientUnits="userSpaceOnUse">
<stop stop-color="#3890C0"/>
<stop offset="1" stop-color="#0A8EC8"/>
</linearGradient>
</defs>
</svg>
