<svg width="24" height="24" viewBox="0 0 24 24" fill="none" xmlns="http://www.w3.org/2000/svg">
<path d="M12 19.1292C12.4436 19.1292 12.8873 18.9716 13.245 18.6564C15.3772 16.7785 19.5 12.608 19.5 8.4375C19.5 4.29534 16.1422 0.9375 12 0.9375C7.85784 0.9375 4.5 4.29534 4.5 8.4375C4.5 12.608 8.62284 16.7785 10.755 18.6565C11.1127 18.9716 11.5564 19.1292 12 19.1292Z" stroke="white" stroke-width="1.875" stroke-miterlimit="10" stroke-linecap="round" stroke-linejoin="round"/>
<path d="M18.2372 18.1504C20.1626 18.6655 21.375 19.4154 21.375 20.2502C21.375 21.8035 17.1777 23.0627 12 23.0627C6.82233 23.0627 2.625 21.8035 2.625 20.2502C2.625 19.4154 3.83738 18.6655 5.76277 18.1504" stroke="white" stroke-width="1.875" stroke-miterlimit="10" stroke-linecap="round" stroke-linejoin="round"/>
<path d="M12 11.25C13.5533 11.25 14.8125 9.9908 14.8125 8.4375C14.8125 6.8842 13.5533 5.625 12 5.625C10.4467 5.625 9.1875 6.8842 9.1875 8.4375C9.1875 9.9908 10.4467 11.25 12 11.25Z" stroke="white" stroke-width="1.875" stroke-miterlimit="10" stroke-linecap="round" stroke-linejoin="round"/>
</svg>
