<svg width="26" height="26" viewBox="0 0 26 26" fill="none" xmlns="http://www.w3.org/2000/svg">
<g clip-path="url(#clip0_1121_3323)">
<path d="M20.5293 16.1061C19.997 15.5518 19.355 15.2555 18.6745 15.2555C17.9996 15.2555 17.352 15.5464 16.7978 16.1006L15.0638 17.8291C14.9211 17.7523 14.7784 17.681 14.6412 17.6096C14.4437 17.5109 14.2571 17.4176 14.098 17.3188C12.4737 16.2872 10.9975 14.9427 9.58177 13.2032C8.89584 12.3362 8.43489 11.6063 8.10015 10.8655C8.55012 10.454 8.96717 10.0259 9.37325 9.61438C9.5269 9.46073 9.68055 9.3016 9.8342 9.14795C10.9866 7.99558 10.9866 6.50298 9.8342 5.35061L8.33611 3.85253C8.166 3.68242 7.9904 3.50682 7.82578 3.33122C7.49653 2.991 7.15082 2.6398 6.79413 2.31055C6.26185 1.78375 5.6253 1.50389 4.95582 1.50389C4.28635 1.50389 3.63883 1.78375 3.09008 2.31055L3.07911 2.32152L1.21336 4.20373C0.510966 4.90613 0.11038 5.76217 0.0225802 6.75541C-0.109119 8.35775 0.362804 9.85035 0.724978 10.8271C1.61395 13.2251 2.94192 15.4476 4.9229 17.8291C7.32642 20.6991 10.2183 22.9654 13.5218 24.5623C14.7839 25.1604 16.4686 25.8683 18.3508 25.989C18.466 25.9945 18.5867 26 18.6965 26C19.9641 26 21.0287 25.5445 21.8628 24.6391C21.8682 24.6281 21.8792 24.6226 21.8847 24.6117C22.1701 24.266 22.4993 23.9532 22.845 23.6184C23.081 23.3934 23.3224 23.1575 23.5584 22.9105C24.1016 22.3453 24.387 21.6868 24.387 21.0119C24.387 20.3314 24.0962 19.6784 23.5419 19.1297L20.5293 16.1061ZM22.4938 21.8844C22.4883 21.8844 22.4883 21.8899 22.4938 21.8844C22.2798 22.1149 22.0603 22.3234 21.8243 22.5539C21.4677 22.8941 21.1055 23.2508 20.7653 23.6514C20.211 24.244 19.558 24.5239 18.702 24.5239C18.6197 24.5239 18.5319 24.5239 18.4495 24.5184C16.8198 24.4141 15.3052 23.7776 14.1693 23.2343C11.0634 21.7307 8.33611 19.5961 6.06978 16.8908C4.19855 14.6354 2.94741 12.5502 2.1188 10.3113C1.60846 8.94491 1.42189 7.88034 1.5042 6.87613C1.55907 6.2341 1.80601 5.70181 2.26147 5.24635L4.1327 3.37512C4.40159 3.1227 4.68694 2.98551 4.9668 2.98551C5.31251 2.98551 5.59237 3.19403 5.76797 3.36963L5.78443 3.38609C6.11917 3.69888 6.43744 4.02264 6.77218 4.36835C6.94229 4.54395 7.11789 4.71955 7.29349 4.90064L8.79157 6.39872C9.37325 6.98039 9.37325 7.51817 8.79157 8.09984C8.63244 8.25898 8.47879 8.41811 8.31965 8.57176C7.8587 9.04369 7.4197 9.48269 6.94229 9.91071C6.93132 9.92168 6.92034 9.92717 6.91486 9.93815C6.44293 10.4101 6.53073 10.871 6.62951 11.1838L6.64597 11.2332C7.03558 12.177 7.58433 13.066 8.41842 14.1251L8.42391 14.1306C9.93846 15.9963 11.5353 17.4505 13.2968 18.5645C13.5218 18.7071 13.7523 18.8224 13.9718 18.9321C14.1693 19.0309 14.3559 19.1242 14.515 19.223C14.537 19.2339 14.5589 19.2504 14.5809 19.2614C14.7674 19.3547 14.943 19.3986 15.1241 19.3986C15.5796 19.3986 15.8649 19.1132 15.9582 19.0199L17.8349 17.1432C18.0215 16.9566 18.3178 16.7316 18.6636 16.7316C19.0038 16.7316 19.2836 16.9457 19.4537 17.1322L19.4647 17.1432L22.4883 20.1668C23.0535 20.7265 23.0535 21.3027 22.4938 21.8844ZM14.0321 6.18471C15.4698 6.42616 16.7759 7.10661 17.8185 8.14923C18.8611 9.19185 19.5361 10.4979 19.783 11.9356C19.8434 12.2978 20.1561 12.5502 20.5128 12.5502C20.5567 12.5502 20.5951 12.5447 20.639 12.5392C21.0451 12.4734 21.314 12.0892 21.2482 11.6832C20.9518 9.94363 20.1287 8.35775 18.8721 7.10112C17.6154 5.84449 16.0296 5.02136 14.29 4.72504C13.884 4.65919 13.5053 4.92808 13.434 5.32866C13.3626 5.72925 13.626 6.11886 14.0321 6.18471ZM25.9509 11.4692C25.4625 8.60469 24.1126 5.99813 22.0384 3.92387C19.9641 1.8496 17.3575 0.49968 14.4931 0.011294C14.0925 -0.0600432 13.7138 0.214331 13.6425 0.614917C13.5767 1.02099 13.8455 1.39963 14.2516 1.47096C16.8088 1.90447 19.141 3.11721 20.9957 4.96649C22.8505 6.82126 24.0577 9.15344 24.4913 11.7106C24.5516 12.0728 24.8644 12.3252 25.2211 12.3252C25.265 12.3252 25.3034 12.3197 25.3473 12.3142C25.7479 12.2539 26.0223 11.8697 25.9509 11.4692Z" fill="white"/>
</g>
<defs>
<clipPath id="clip0_1121_3323">
<rect width="25.9622" height="26" fill="white"/>
</clipPath>
</defs>
</svg>
