<svg width="36" height="36" viewBox="0 0 36 36" fill="none" xmlns="http://www.w3.org/2000/svg">
<path fill-rule="evenodd" clip-rule="evenodd" d="M19.6978 21.116V22.4139C19.6978 22.5448 19.6457 22.6703 19.5532 22.7628C19.4607 22.8554 19.3352 22.9074 19.2043 22.9074H9.04831V25.077C9.04831 25.6456 8.39687 25.9602 7.95524 25.6125L1.31407 20.379C1.23292 20.3165 1.1672 20.2363 1.12197 20.1444C1.07674 20.0525 1.05322 19.9515 1.05322 19.849C1.05322 19.7466 1.07674 19.6456 1.12197 19.5537C1.1672 19.4618 1.23292 19.3815 1.31407 19.3191L7.95524 14.0856C8.39687 13.7378 9.04831 14.0526 9.04831 14.6212V16.7907H15.1217V19.4944C15.1217 19.9245 15.2925 20.3369 15.5966 20.641C15.7472 20.7916 15.9259 20.911 16.1227 20.9925C16.3194 21.074 16.5303 21.116 16.7432 21.116H19.6978ZM26.8992 11.7017C26.8992 11.1331 27.5506 10.8184 27.9923 11.1662L34.6334 16.3996C34.7146 16.462 34.7803 16.5423 34.8255 16.6342C34.8708 16.7261 34.8943 16.8271 34.8943 16.9295C34.8943 17.032 34.8708 17.133 34.8255 17.2249C34.7803 17.3168 34.7146 17.397 34.6334 17.4595L27.9923 22.693C27.5506 23.0407 26.8992 22.7261 26.8992 22.1575V19.9879H16.7432C16.6123 19.9879 16.4868 19.9359 16.3943 19.8433C16.3018 19.7508 16.2497 19.6253 16.2497 19.4944V14.3647C16.2497 14.2339 16.3018 14.1084 16.3943 14.0158C16.4868 13.9233 16.6123 13.8713 16.7432 13.8712H26.8992V11.7017ZM12.8077 34.5617C13.3394 32.1981 15.4505 30.4321 17.9737 30.4321C20.4984 30.4321 22.6096 32.1981 23.144 34.5611C23.1593 34.633 23.1583 34.7074 23.1411 34.7789C23.124 34.8504 23.0911 34.9172 23.0448 34.9744C22.9985 35.0315 22.9401 35.0776 22.8737 35.1092C22.8074 35.1409 22.7348 35.1573 22.6612 35.1573C20.8239 35.1573 15.1243 35.1573 13.2865 35.1535C13.2136 35.1535 13.1415 35.1372 13.0756 35.1058C13.0098 35.0743 12.9518 35.0286 12.9059 34.9719C12.86 34.9151 12.8273 34.8488 12.8103 34.7779C12.7933 34.7069 12.7924 34.633 12.8077 34.5617ZM17.9737 29.7271C16.4994 29.7271 15.2976 28.5239 15.2976 27.0496C15.2976 25.5753 16.4994 24.3721 17.9737 24.3721C19.4495 24.3721 20.6513 25.5753 20.6513 27.0496C20.6513 28.5239 19.4495 29.7271 17.9737 29.7271ZM12.8077 11.0324C13.3394 8.66873 15.4505 6.90286 17.9737 6.90286C20.4984 6.90286 22.6096 8.66887 23.144 11.0318C23.1593 11.1037 23.1584 11.1782 23.1412 11.2497C23.1241 11.3212 23.0912 11.388 23.0449 11.4451C22.9986 11.5023 22.9401 11.5483 22.8738 11.58C22.8074 11.6116 22.7348 11.628 22.6612 11.628C20.8239 11.628 15.1243 11.628 13.2865 11.6241C13.2136 11.6241 13.1415 11.6078 13.0757 11.5764C13.0098 11.545 12.9518 11.4993 12.9059 11.4425C12.86 11.3858 12.8273 11.3195 12.8104 11.2486C12.7934 11.1776 12.7925 11.1038 12.8077 11.0324ZM17.9737 6.19784C16.4994 6.19784 15.2976 4.99465 15.2976 3.52031C15.2976 2.04596 16.4994 0.842773 17.9737 0.842773C19.4495 0.842773 20.6513 2.04596 20.6513 3.52031C20.6513 4.99465 19.4495 6.19784 17.9737 6.19784Z" fill="black"/>
<path fill-rule="evenodd" clip-rule="evenodd" d="M19.6978 21.116V22.4139C19.6978 22.5448 19.6457 22.6703 19.5532 22.7628C19.4607 22.8554 19.3352 22.9074 19.2043 22.9074H9.04831V25.077C9.04831 25.6456 8.39687 25.9602 7.95524 25.6125L1.31407 20.379C1.23292 20.3165 1.1672 20.2363 1.12197 20.1444C1.07674 20.0525 1.05322 19.9515 1.05322 19.849C1.05322 19.7466 1.07674 19.6456 1.12197 19.5537C1.1672 19.4618 1.23292 19.3815 1.31407 19.3191L7.95524 14.0856C8.39687 13.7378 9.04831 14.0526 9.04831 14.6212V16.7907H15.1217V19.4944C15.1217 19.9245 15.2925 20.3369 15.5966 20.641C15.7472 20.7916 15.9259 20.911 16.1227 20.9925C16.3194 21.074 16.5303 21.116 16.7432 21.116H19.6978ZM26.8992 11.7017C26.8992 11.1331 27.5506 10.8184 27.9923 11.1662L34.6334 16.3996C34.7146 16.462 34.7803 16.5423 34.8255 16.6342C34.8708 16.7261 34.8943 16.8271 34.8943 16.9295C34.8943 17.032 34.8708 17.133 34.8255 17.2249C34.7803 17.3168 34.7146 17.397 34.6334 17.4595L27.9923 22.693C27.5506 23.0407 26.8992 22.7261 26.8992 22.1575V19.9879H16.7432C16.6123 19.9879 16.4868 19.9359 16.3943 19.8433C16.3018 19.7508 16.2497 19.6253 16.2497 19.4944V14.3647C16.2497 14.2339 16.3018 14.1084 16.3943 14.0158C16.4868 13.9233 16.6123 13.8713 16.7432 13.8712H26.8992V11.7017ZM12.8077 34.5617C13.3394 32.1981 15.4505 30.4321 17.9737 30.4321C20.4984 30.4321 22.6096 32.1981 23.144 34.5611C23.1593 34.633 23.1583 34.7074 23.1411 34.7789C23.124 34.8504 23.0911 34.9172 23.0448 34.9744C22.9985 35.0315 22.9401 35.0776 22.8737 35.1092C22.8074 35.1409 22.7348 35.1573 22.6612 35.1573C20.8239 35.1573 15.1243 35.1573 13.2865 35.1535C13.2136 35.1535 13.1415 35.1372 13.0756 35.1058C13.0098 35.0743 12.9518 35.0286 12.9059 34.9719C12.86 34.9151 12.8273 34.8488 12.8103 34.7779C12.7933 34.7069 12.7924 34.633 12.8077 34.5617ZM17.9737 29.7271C16.4994 29.7271 15.2976 28.5239 15.2976 27.0496C15.2976 25.5753 16.4994 24.3721 17.9737 24.3721C19.4495 24.3721 20.6513 25.5753 20.6513 27.0496C20.6513 28.5239 19.4495 29.7271 17.9737 29.7271ZM12.8077 11.0324C13.3394 8.66873 15.4505 6.90286 17.9737 6.90286C20.4984 6.90286 22.6096 8.66887 23.144 11.0318C23.1593 11.1037 23.1584 11.1782 23.1412 11.2497C23.1241 11.3212 23.0912 11.388 23.0449 11.4451C22.9986 11.5023 22.9401 11.5483 22.8738 11.58C22.8074 11.6116 22.7348 11.628 22.6612 11.628C20.8239 11.628 15.1243 11.628 13.2865 11.6241C13.2136 11.6241 13.1415 11.6078 13.0757 11.5764C13.0098 11.545 12.9518 11.4993 12.9059 11.4425C12.86 11.3858 12.8273 11.3195 12.8104 11.2486C12.7934 11.1776 12.7925 11.1038 12.8077 11.0324ZM17.9737 6.19784C16.4994 6.19784 15.2976 4.99465 15.2976 3.52031C15.2976 2.04596 16.4994 0.842773 17.9737 0.842773C19.4495 0.842773 20.6513 2.04596 20.6513 3.52031C20.6513 4.99465 19.4495 6.19784 17.9737 6.19784Z" fill="url(#paint0_linear_386_54601)"/>
<defs>
<linearGradient id="paint0_linear_386_54601" x1="20.4651" y1="20.2979" x2="-9.42732" y2="34.6317" gradientUnits="userSpaceOnUse">
<stop stop-color="#FFA78F"/>
<stop offset="1" stop-color="#F23E2C"/>
</linearGradient>
</defs>
</svg>
