<svg preserveAspectRatio="none" width="100%" height="100%" overflow="visible" style="display: block;" viewBox="0 0 63.4159 73.4289" fill="none" xmlns="http://www.w3.org/2000/svg">
<g id="Group">
<path id="Vector" d="M6.88396 33.3768C5.05998 33.3825 3.31235 34.1096 2.02259 35.3994C0.732837 36.6891 0.0057213 38.4368 0 40.2608V66.545C0.0057213 68.369 0.732837 70.1166 2.02259 71.4063C3.31235 72.6961 5.05998 73.4232 6.88396 73.4289H56.5319C58.3559 73.4232 60.1036 72.6961 61.3933 71.4063C62.6831 70.1166 63.4102 68.369 63.4159 66.545V46.7275C63.4159 43.9823 61.1546 41.721 58.4094 41.721H27.7244L23.9595 34.2896C23.8199 34.0149 23.6069 33.7841 23.3441 33.623C23.0814 33.4619 22.7791 33.3766 22.4709 33.3768H6.88396ZM41.721 53.4029H51.734C52.1766 53.4029 52.6011 53.5787 52.9141 53.8917C53.227 54.2046 53.4029 54.6291 53.4029 55.0717C53.4029 55.5143 53.227 55.9388 52.9141 56.2518C52.6011 56.5647 52.1766 56.7405 51.734 56.7405H41.721C41.2784 56.7405 40.8539 56.5647 40.5409 56.2518C40.228 55.9388 40.0521 55.5143 40.0521 55.0717C40.0521 54.6291 40.228 54.2046 40.5409 53.8917C40.8539 53.5787 41.2784 53.4029 41.721 53.4029ZM41.721 60.0782H51.734C52.1766 60.0782 52.6011 60.254 52.9141 60.567C53.227 60.88 53.4029 61.3045 53.4029 61.7471C53.4029 62.1897 53.227 62.6141 52.9141 62.9271C52.6011 63.2401 52.1766 63.4159 51.734 63.4159H41.721C41.2784 63.4159 40.8539 63.2401 40.5409 62.9271C40.228 62.6141 40.0521 62.1897 40.0521 61.7471C40.0521 61.3045 40.228 60.88 40.5409 60.567C40.8539 60.254 41.2784 60.0782 41.721 60.0782ZM13.3507 0C9.68094 0 6.67536 3.00558 6.67536 6.67536V28.3703C6.67536 28.8129 6.85118 29.2374 7.16415 29.5503C7.47712 29.8633 7.90159 30.0391 8.3442 30.0391C8.7868 30.0391 9.21128 29.8633 9.52425 29.5503C9.83722 29.2374 10.013 28.8129 10.013 28.3703V6.67536C10.013 4.79791 11.4733 3.33768 13.3507 3.33768H41.721V9.92959C41.7284 11.2772 42.2671 12.5676 43.22 13.5205C44.173 14.4735 45.4633 15.0121 46.811 15.0196H53.4029V36.7145C53.4029 37.1571 53.5787 37.5816 53.8917 37.8945C54.2046 38.2075 54.6291 38.3833 55.0717 38.3833C55.5143 38.3833 55.9388 38.2075 56.2518 37.8945C56.5647 37.5816 56.7405 37.1571 56.7405 36.7145V13.3507C56.7405 12.9081 56.5646 12.4837 56.2516 12.1708L44.5697 0.488969C44.2568 0.175979 43.8324 9.45187e-05 43.3898 0H13.3507Z" fill="url(#paint0_linear_0_124)"/>
<g id="Group_2">
<path id="Vector_2" d="M16.6884 8.34404C16.2458 8.34404 15.8213 8.51987 15.5083 8.83283C15.1954 9.1458 15.0195 9.57028 15.0195 10.0129C15.0195 10.4555 15.1954 10.88 15.5083 11.1929C15.8213 11.5059 16.2458 11.6817 16.6884 11.6817H26.7014C27.144 11.6817 27.5685 11.5059 27.8815 11.1929C28.1944 10.88 28.3702 10.4555 28.3702 10.0129C28.3702 9.57028 28.1944 9.1458 27.8815 8.83283C27.5685 8.51987 27.144 8.34404 26.7014 8.34404H16.6884ZM16.6884 16.6882C16.2458 16.6882 15.8213 16.8641 15.5083 17.177C15.1954 17.49 15.0195 17.9145 15.0195 18.3571C15.0195 18.7997 15.1954 19.2242 15.5083 19.5371C15.8213 19.8501 16.2458 20.0259 16.6884 20.0259H35.0456C35.4882 20.0259 35.9127 19.8501 36.2257 19.5371C36.5386 19.2242 36.7144 18.7997 36.7144 18.3571C36.7144 17.9145 36.5386 17.49 36.2257 17.177C35.9127 16.8641 35.4882 16.6882 35.0456 16.6882H16.6884ZM16.6884 25.0324C16.2458 25.0324 15.8213 25.2083 15.5083 25.5212C15.1954 25.8342 15.0195 26.2587 15.0195 26.7013C15.0195 27.1439 15.1954 27.5684 15.5083 27.8813C15.8213 28.1943 16.2458 28.3701 16.6884 28.3701H35.0456C35.4882 28.3701 35.9127 28.1943 36.2257 27.8813C36.5386 27.5684 36.7144 27.1439 36.7144 26.7013C36.7144 26.2587 36.5386 25.8342 36.2257 25.5212C35.9127 25.2083 35.4882 25.0324 35.0456 25.0324H16.6884Z" fill="url(#paint1_linear_0_124)"/>
</g>
</g>
<defs>
<linearGradient id="paint0_linear_0_124" x1="-1.69564" y1="-13.0192" x2="80.1811" y2="53.0518" gradientUnits="userSpaceOnUse">
<stop stop-color="#7ECFFA"/>
<stop offset="1" stop-color="#21B1F1"/>
</linearGradient>
<linearGradient id="paint1_linear_0_124" x1="14.4394" y1="4.79336" x2="37.2834" y2="27.9168" gradientUnits="userSpaceOnUse">
<stop stop-color="#7ECFFA"/>
<stop offset="1" stop-color="#21B1F1"/>
</linearGradient>
</defs>
</svg>
