<svg preserveAspectRatio="none" width="100%" height="100%" overflow="visible" style="display: block;" viewBox="0 0 95.0001 80.9988" fill="none" xmlns="http://www.w3.org/2000/svg">
<g id="Group">
<path id="Vector" d="M94.6668 58.7027C93.7138 56.1227 90.8548 54.7907 88.2748 55.7447L47.5348 70.6827L6.79485 55.7447C6.73208 55.73 6.67131 55.7079 6.61385 55.6787C5.36288 55.2495 3.99279 55.3337 2.80382 55.9129C1.61486 56.4921 0.703994 57.5191 0.270848 58.7687C-0.617152 61.3647 0.746848 64.2077 3.36085 65.0947L45.8088 80.6907C46.917 81.1016 48.1357 81.1016 49.2438 80.6907L91.6928 65.0947C94.2888 64.1587 95.6038 61.2827 94.6668 58.7027ZM94.6668 38.7677C93.7138 36.1877 90.8548 34.8577 88.2748 35.8097L47.5348 50.7647L6.79485 35.8097C6.72885 35.7937 6.67985 35.7767 6.61385 35.7597C5.36504 35.3272 3.99566 35.4081 2.8064 35.9844C1.61714 36.5608 0.70521 37.5855 0.270848 38.8337C-0.158335 40.0846 -0.0740933 41.4547 0.505113 42.6437C1.08432 43.8327 2.11125 44.7435 3.36085 45.1767L45.8088 60.7567C46.917 61.1676 48.1357 61.1676 49.2438 60.7567L91.6928 45.1767C92.9363 44.72 93.9478 43.7888 94.5053 42.5872C95.0629 41.3857 95.121 40.012 94.6668 38.7677ZM91.7098 15.8757L49.2598 0.29566C48.1436 -0.0985534 46.9261 -0.0985534 45.8098 0.29566L3.35985 15.8757C2.4006 16.2252 1.57294 16.8628 0.990372 17.7012C0.407802 18.5397 0.0988389 19.5377 0.105848 20.5587C0.0986319 21.5797 0.407498 22.5781 0.990083 23.4167C1.57267 24.2553 2.40044 24.8931 3.35985 25.2427L45.8098 40.8227C46.9261 41.2169 48.1436 41.2169 49.2598 40.8227L91.7098 25.2427C92.3962 24.9969 93.0199 24.6029 93.5367 24.0887C94.0535 23.5745 94.4506 22.9527 94.6998 22.2677C94.9239 21.6517 95.0243 20.9976 94.9952 20.3427C94.9661 19.6879 94.8082 19.0453 94.5305 18.4516C94.2528 17.8578 93.8607 17.3247 93.3767 16.8827C92.8927 16.4407 92.3263 16.0985 91.7098 15.8757ZM3.35985 25.2427L45.8098 40.8227C46.9261 41.2169 48.1436 41.2169 49.2598 40.8227L91.7098 25.2427C92.3962 24.9969 93.0199 24.6029 93.5367 24.0887C94.0535 23.5745 94.4506 22.9527 94.6998 22.2677C94.9239 21.6517 95.0243 20.9976 94.9952 20.3427C94.9661 19.6879 94.8082 19.0453 94.5305 18.4516C94.2528 17.8578 93.8607 17.3247 93.3767 16.8827C92.8927 16.4407 92.3263 16.0985 91.7098 15.8757L49.2598 0.29566C48.1436 -0.0985534 46.9261 -0.0985534 45.8098 0.29566L3.35985 15.8757C2.4006 16.2252 1.57294 16.8628 0.990372 17.7012C0.407802 18.5397 0.0988389 19.5377 0.105848 20.5587C0.0986319 21.5797 0.407498 22.5781 0.990083 23.4167C1.57267 24.2553 2.40044 24.8931 3.35985 25.2427ZM88.2748 35.8097L47.5348 50.7647L6.79485 35.8097C6.72885 35.7937 6.67985 35.7767 6.61385 35.7597C5.36504 35.3272 3.99566 35.4081 2.8064 35.9844C1.61714 36.5608 0.70521 37.5855 0.270848 38.8337C-0.158335 40.0846 -0.0740933 41.4547 0.505113 42.6437C1.08432 43.8327 2.11125 44.7435 3.36085 45.1767L45.8088 60.7567C46.917 61.1676 48.1357 61.1676 49.2438 60.7567L91.6928 45.1767C92.9363 44.72 93.9478 43.7888 94.5053 42.5872C95.0629 41.3857 95.121 40.012 94.6668 38.7677C93.7138 36.1877 90.8548 34.8577 88.2748 35.8097ZM88.2748 55.7447L47.5348 70.6827L6.79485 55.7447C6.73208 55.73 6.67131 55.7079 6.61385 55.6787C5.36288 55.2495 3.99279 55.3337 2.80382 55.9129C1.61486 56.4921 0.703994 57.5191 0.270848 58.7687C-0.617152 61.3647 0.746848 64.2077 3.36085 65.0947L45.8088 80.6907C46.917 81.1016 48.1357 81.1016 49.2438 80.6907L91.6928 65.0947C94.2888 64.1587 95.6038 61.2827 94.6668 58.7027C93.7138 56.1227 90.8548 54.7907 88.2748 55.7447ZM3.35985 25.2427L45.8098 40.8227C46.9261 41.2169 48.1436 41.2169 49.2598 40.8227L91.7098 25.2427C92.3962 24.9969 93.0199 24.6029 93.5367 24.0887C94.0535 23.5745 94.4506 22.9527 94.6998 22.2677C94.9239 21.6517 95.0243 20.9976 94.9952 20.3427C94.9661 19.6879 94.8082 19.0453 94.5305 18.4516C94.2528 17.8578 93.8607 17.3247 93.3767 16.8827C92.8927 16.4407 92.3263 16.0985 91.7098 15.8757L49.2598 0.29566C48.1436 -0.0985534 46.9261 -0.0985534 45.8098 0.29566L3.35985 15.8757C2.4006 16.2252 1.57294 16.8628 0.990372 17.7012C0.407802 18.5397 0.0988389 19.5377 0.105848 20.5587C0.0986319 21.5797 0.407498 22.5781 0.990083 23.4167C1.57267 24.2553 2.40044 24.8931 3.35985 25.2427ZM88.2748 35.8097L47.5348 50.7647L6.79485 35.8097C6.72885 35.7937 6.67985 35.7767 6.61385 35.7597C5.36504 35.3272 3.99566 35.4081 2.8064 35.9844C1.61714 36.5608 0.70521 37.5855 0.270848 38.8337C-0.158335 40.0846 -0.0740933 41.4547 0.505113 42.6437C1.08432 43.8327 2.11125 44.7435 3.36085 45.1767L45.8088 60.7567C46.917 61.1676 48.1357 61.1676 49.2438 60.7567L91.6928 45.1767C92.9363 44.72 93.9478 43.7888 94.5053 42.5872C95.0629 41.3857 95.121 40.012 94.6668 38.7677C93.7138 36.1877 90.8548 34.8577 88.2748 35.8097ZM88.2748 55.7447L47.5348 70.6827L6.79485 55.7447C6.73208 55.73 6.67131 55.7079 6.61385 55.6787C5.36288 55.2495 3.99279 55.3337 2.80382 55.9129C1.61486 56.4921 0.703994 57.5191 0.270848 58.7687C-0.617152 61.3647 0.746848 64.2077 3.36085 65.0947L45.8088 80.6907C46.917 81.1016 48.1357 81.1016 49.2438 80.6907L91.6928 65.0947C94.2888 64.1587 95.6038 61.2827 94.6668 58.7027C93.7138 56.1227 90.8548 54.7907 88.2748 55.7447Z" fill="url(#paint0_linear_0_219)"/>
</g>
<defs>
<linearGradient id="paint0_linear_0_219" x1="-2.54015" y1="-14.3613" x2="89.4769" y2="86.4787" gradientUnits="userSpaceOnUse">
<stop stop-color="#7ECFFA"/>
<stop offset="1" stop-color="#21B1F1"/>
</linearGradient>
</defs>
</svg>
