<svg preserveAspectRatio="none" width="100%" height="100%" overflow="visible" style="display: block;" viewBox="0 0 131.394 133.984" fill="none" xmlns="http://www.w3.org/2000/svg">
<g id="Group">
<path id="Vector" fill-rule="evenodd" clip-rule="evenodd" d="M38.8047 27.5286V11.7247C38.8047 9.35623 36.8677 7.41947 34.4986 7.41947C34.1724 7.41944 33.857 7.30284 33.6092 7.09069C33.3615 6.87854 33.1977 6.58483 33.1475 6.26255C32.3316 2.59793 29.0741 0 25.3225 0C22.4525 0 19.8453 1.49899 18.3975 3.97688C18.2431 4.24123 18.0044 4.44611 17.7197 4.5587C17.4351 4.67129 17.1208 4.68508 16.8274 4.59786C16.379 4.49059 15.9196 4.43662 15.4585 4.43708C12.2569 4.43708 9.66193 7.03201 9.66193 10.2337C9.66193 13.4354 12.2569 16.03 15.4585 16.03H28.6924C30.2083 16.03 31.4552 17.2769 31.4552 18.7928V27.5286H38.8047ZM77.7554 128.516H114.773V112.217C114.772 111.878 114.637 111.552 114.397 111.312C114.157 111.072 113.831 110.937 113.492 110.936H79.0362C78.3323 110.936 77.7554 111.513 77.7554 112.217V128.516ZM1.36719 133.984C1.00459 133.984 0.656838 133.84 0.40044 133.584C0.144043 133.328 0 132.98 0 132.617C0 132.255 0.144043 131.907 0.40044 131.65C0.656838 131.394 1.00459 131.25 1.36719 131.25H130.027C130.39 131.25 130.737 131.394 130.994 131.65C131.25 131.907 131.394 132.255 131.394 132.617C131.394 132.98 131.25 133.328 130.994 133.584C130.737 133.84 130.39 133.984 130.027 133.984H1.36719ZM107.569 83.039V89.5296H113.492C114.196 89.5296 114.773 88.9524 114.773 88.2488V84.3201C114.773 83.6163 114.196 83.0393 113.492 83.0393L107.569 83.039ZM97.6313 83.039V89.5296H104.835V83.039H97.6313ZM87.6932 83.039V89.5296H94.8969V83.039H87.6932ZM84.9588 89.5296V83.039H79.0359C78.3321 83.039 77.7551 83.6163 77.7551 84.3198V88.2486C77.7551 88.9524 78.3323 89.5294 79.0359 89.5294L84.9588 89.5296ZM107.569 59.7536V66.2442H113.492C114.196 66.2442 114.773 65.667 114.773 64.9631V61.0344C114.773 60.3305 114.196 59.7533 113.492 59.7533L107.569 59.7536ZM97.6313 59.7536V66.2442H104.835V59.7536H97.6313ZM87.6932 59.7536V66.2442H94.8969V59.7536H87.6932ZM84.9588 66.2442V59.7536H79.0359C78.3321 59.7536 77.7551 60.3308 77.7551 61.0346V64.9634C77.7551 65.6672 78.3323 66.2445 79.0359 66.2445L84.9588 66.2442ZM31.7907 109.569H38.4686C38.8062 109.569 39.1299 109.704 39.3686 109.942C39.6073 110.181 39.7417 110.505 39.7423 110.842V117.52C39.7417 117.858 39.6073 118.182 39.3685 118.42C39.1298 118.659 38.8062 118.793 38.4686 118.794H31.7907C31.4531 118.793 31.1295 118.659 30.8908 118.42C30.6521 118.182 30.5177 117.858 30.5171 117.52V110.842C30.5176 110.505 30.652 110.181 30.8907 109.942C31.1295 109.704 31.4531 109.569 31.7907 109.569ZM14.5226 109.569H21.2005C21.5381 109.569 21.8617 109.704 22.1005 109.942C22.3392 110.181 22.4736 110.505 22.4741 110.842V117.52C22.4735 117.858 22.3391 118.182 22.1004 118.42C21.8617 118.659 21.5381 118.793 21.2005 118.794H14.5226C14.185 118.793 13.8614 118.659 13.6228 118.42C13.3841 118.182 13.2497 117.858 13.2492 117.52V110.842C13.2497 110.505 13.3841 110.181 13.6228 109.943C13.8614 109.704 14.185 109.569 14.5226 109.569ZM49.0586 109.569H55.7365C56.0741 109.569 56.3978 109.704 56.6365 109.942C56.8752 110.181 57.0096 110.505 57.0102 110.842V117.52C57.0095 117.858 56.8751 118.182 56.6364 118.42C56.3977 118.659 56.0741 118.793 55.7365 118.794H49.0586C48.721 118.793 48.3974 118.659 48.1586 118.42C47.9199 118.182 47.7855 117.858 47.7849 117.52V110.842C47.7855 110.505 47.9199 110.181 48.1586 109.942C48.3974 109.704 48.721 109.569 49.0586 109.569ZM64.3296 101.013H8.66388C7.15779 101.013 5.9295 102.242 5.9295 103.748V128.516H64.3298L64.3296 101.013ZM67.064 128.516V15.0771C67.064 14.0216 68.2006 13.3654 69.1147 13.8931L124.097 45.6371C124.967 46.1391 125.464 47.001 125.464 48.0051V128.516H117.508V112.217C117.508 110.004 115.705 108.202 113.492 108.202H79.0362C76.823 108.202 75.0207 110.004 75.0207 112.217V128.516H67.064ZM50.7848 81.6002H19.4745C19.0083 81.6002 18.5839 81.7913 18.2761 82.0992C17.9682 82.4071 17.777 82.8315 17.777 83.2977V98.2791H52.4823V83.2977C52.4823 82.8315 52.2912 82.4074 51.9833 82.0995C51.6754 81.7916 51.251 81.6002 50.7848 81.6002ZM40.8656 37.7123H29.3938L27.495 78.8658H42.7643L40.8656 37.7123ZM42.2839 30.263H27.9752C26.9637 30.263 26.1358 31.091 26.1358 32.1024C26.1358 33.0291 26.0124 33.7737 26.6761 34.4373C26.8463 34.6085 27.0487 34.7443 27.2716 34.837C27.4945 34.9298 27.7335 34.9775 27.9749 34.9776H42.2836C43.2951 34.9776 44.1231 34.1497 44.1231 33.1382C44.1231 32.2115 44.2464 31.467 43.5827 30.8033C43.4125 30.6322 43.2101 30.4964 42.9872 30.4036C42.7643 30.3109 42.5253 30.2631 42.2839 30.263Z" fill="url(#paint0_linear_0_239)"/>
</g>
<defs>
<linearGradient id="paint0_linear_0_239" x1="-3.51327" y1="-23.7558" x2="148.753" y2="115.767" gradientUnits="userSpaceOnUse">
<stop stop-color="#7ECFFA"/>
<stop offset="1" stop-color="#21B1F1"/>
</linearGradient>
</defs>
</svg>
