<svg preserveAspectRatio="none" width="100%" height="100%" overflow="visible" style="display: block;" viewBox="0 0 68.0023 67.9994" fill="none" xmlns="http://www.w3.org/2000/svg">
<g id="Group">
<path id="Union" d="M19.2299 1.63594C21.5519 -0.54533 25.2252 -0.545295 27.5473 1.63594C29.0632 3.05957 29.6818 5.06326 29.4027 6.95918C29.2816 7.78242 29.9331 8.51777 30.765 8.51777H35.2113C36.8947 8.51777 38.2592 9.88225 38.2592 11.5656V16.0119C38.2592 16.8439 37.525 17.4956 36.7015 17.3742C34.805 17.0953 32.8027 17.7138 31.3793 19.2297C29.1978 21.5519 29.1978 25.226 31.3793 27.548C32.8028 29.0638 34.8056 29.6817 36.7025 29.4025C37.5256 29.2815 38.26 29.9331 38.2601 30.7648V35.2121C38.2599 36.8783 36.9228 38.2308 35.2631 38.258C36.9226 38.2855 38.259 39.6389 38.2592 41.3049V45.7521C38.2591 45.9601 38.2139 46.157 38.1322 46.3332C38.2144 46.1567 38.2611 45.9596 38.2611 45.7512V41.3039C38.2613 39.6207 39.6257 38.2561 41.309 38.2561H45.7553C46.587 38.2558 47.2388 37.5206 47.1176 36.6975C47.1012 36.5862 47.0877 36.4744 47.0775 36.3625C47.0729 36.3122 47.0711 36.2615 47.0678 36.2111C47.0634 36.1444 47.0582 36.0777 47.056 36.0109C47.0546 35.9667 47.0556 35.9224 47.0551 35.8781C47.0543 35.8088 47.0535 35.7394 47.0551 35.6701C47.0564 35.6122 47.0589 35.5542 47.0619 35.4963C47.0647 35.4426 47.0675 35.3888 47.0717 35.3352C47.0763 35.2758 47.0829 35.2166 47.0892 35.1574C47.0951 35.103 47.1005 35.0486 47.1078 34.9943C47.1166 34.9291 47.1272 34.864 47.1381 34.799C47.1454 34.7553 47.1532 34.7117 47.1615 34.6682C47.1747 34.599 47.1889 34.5299 47.2045 34.4611C47.2143 34.418 47.225 34.3751 47.2357 34.3322C47.2527 34.2642 47.2711 34.1966 47.2904 34.1291C47.3022 34.0879 47.3148 34.047 47.3275 34.0061C47.349 33.9369 47.37 33.8675 47.3939 33.799C47.4055 33.7659 47.4188 33.7333 47.431 33.7004C47.6464 33.1174 47.9538 32.5615 48.3539 32.0539C48.3699 32.0336 48.3854 32.0126 48.4017 31.9924C48.5756 31.7776 48.7656 31.571 48.973 31.3762C51.2951 29.1949 54.9684 29.1947 57.2904 31.3762C58.806 32.7997 59.4248 34.8027 59.1459 36.6984C59.0246 37.5218 59.6762 38.258 60.5082 38.258H64.9545C66.6375 38.2582 68.0021 39.6219 68.0023 41.3049V45.7521C68.0022 46.5839 67.2679 47.2355 66.4447 47.1145C65.6601 46.999 64.8576 47.039 64.0853 47.2307C64.0052 47.2505 63.9252 47.2721 63.8461 47.2951C63.6889 47.341 63.5331 47.3935 63.3793 47.4523C63.3092 47.4791 63.2392 47.507 63.1703 47.5363C62.4195 47.8563 61.7189 48.3328 61.1215 48.9689C60.7124 49.4044 60.3801 49.8879 60.1244 50.4006C59.0173 52.6216 59.3495 55.4 61.1215 57.2863C62.5451 58.802 64.5478 59.4209 66.4447 59.1418C67.0915 59.0467 67.6816 59.4289 67.9056 60.0002C67.9669 60.1563 68.0023 60.3265 68.0023 60.5051V64.9514C68.0023 66.6346 66.6376 67.999 64.9545 67.9992H60.5082C59.6762 67.9992 59.0246 67.265 59.1459 66.4416C59.1477 66.429 59.149 66.4161 59.1508 66.4035C59.2695 65.5609 59.2099 64.6987 58.975 63.8762C58.684 62.8582 58.1232 61.9005 57.2904 61.1184C54.9685 58.9372 51.295 58.9374 48.973 61.1184C48.3461 61.707 47.874 62.3957 47.5541 63.134C47.5166 63.2206 47.4811 63.3082 47.4476 63.3967C47.4347 63.4308 47.4218 63.4649 47.4096 63.4992C47.3408 63.6918 47.282 63.8884 47.2328 64.0881C47.0424 64.8586 47.0024 65.6588 47.1176 66.4416C47.2387 67.2647 46.587 67.999 45.7553 67.9992H41.309C39.6256 67.9992 38.2612 66.6347 38.2611 64.9514V60.5051C38.2611 60.1928 38.1568 59.9061 37.9838 59.676C38.1564 59.906 38.2601 60.193 38.2601 60.5051V64.9514C38.2601 66.6347 36.8956 67.9991 35.2123 67.9992H30.765C29.9333 67.999 29.2816 67.2649 29.4027 66.4416C29.6818 64.5446 29.0641 62.542 27.5482 61.1184C25.2262 58.9368 21.5519 58.9369 19.2299 61.1184C17.714 62.5419 17.0963 64.5445 17.3754 66.4416C17.4965 67.2647 16.8448 67.999 16.0131 67.9992H11.5658C9.88244 67.9992 8.51796 66.6347 8.51795 64.9514V60.5051C8.51795 59.6732 7.7827 59.0217 6.95936 59.1428C5.06345 59.4218 3.05962 58.8032 1.63612 57.2873C-0.545348 54.9651 -0.545385 51.291 1.63612 48.9689C3.05961 47.4531 5.06364 46.8353 6.95936 47.1145C7.78259 47.2355 8.51782 46.5839 8.51795 45.7521V41.3049C8.51816 39.6392 9.85405 38.286 11.5131 38.258C9.85406 38.23 8.51816 36.8778 8.51795 35.2121V30.7648C8.51781 29.9331 7.78258 29.2815 6.95936 29.4025C5.0635 29.6816 3.05961 29.0639 1.63612 27.548C-0.545388 25.2259 -0.545357 21.5517 1.63612 19.2297C3.05962 17.7138 5.06358 17.095 6.95936 17.3742C7.7827 17.4953 8.51795 16.8438 8.51795 16.0119V11.5656C8.51795 9.88225 9.88243 8.51777 11.5658 8.51777H16.0121C16.844 8.51777 17.4955 7.78255 17.3744 6.95918C17.0953 5.06326 17.714 3.05957 19.2299 1.63594ZM36.7015 59.1428C36.6881 59.1448 36.674 59.1448 36.6605 59.1467C36.6743 59.1447 36.6888 59.1448 36.7025 59.1428C36.7071 59.1421 36.7116 59.1414 36.7162 59.1408C36.7113 59.1415 36.7064 59.1421 36.7015 59.1428ZM30.9203 56.7336C30.9671 56.7972 31.0152 56.86 31.0648 56.9221C31.0152 56.86 30.9671 56.7972 30.9203 56.7336ZM30.516 56.1105V56.1096V56.1105ZM29.389 36.8576C29.3868 36.9366 29.3925 37.0141 29.4037 37.09C29.3927 37.0141 29.3866 36.9366 29.389 36.8576ZM63.5443 22.5988C64.9485 22.5988 66.0863 23.7376 66.0863 25.1418C66.0862 26.5458 64.9484 27.6838 63.5443 27.6838H56.6517C55.2477 27.6838 54.1089 26.5458 54.1088 25.1418C54.1088 23.7376 55.2476 22.5988 56.6517 22.5988H63.5443ZM57.9193 6.48555C58.9122 5.49293 60.5221 5.49279 61.515 6.48555C62.5077 7.47831 62.5076 9.0883 61.515 10.0812L56.641 14.9553C55.6481 15.9481 54.0381 15.948 53.0453 14.9553C52.0525 13.9624 52.0525 12.3525 53.0453 11.3596L57.9193 6.48555ZM42.8588 1.91426C44.2629 1.91426 45.4016 3.05218 45.4017 4.45625V11.3488C45.4017 12.7531 44.2629 13.8918 42.8588 13.8918C41.4548 13.8916 40.3168 12.7528 40.3168 11.3488V4.45625C40.3169 3.05233 41.4549 1.9145 42.8588 1.91426ZM29.4027 36.7014L29.389 36.8518V36.8537C29.3908 36.8035 29.3952 36.7524 29.4027 36.7014Z" fill="url(#paint0_linear_0_112)"/>
<g id="Vector" filter="url(#filter0_dd_0_112)">
<path d="M41.0004 41.0002C48.7324 41.0002 55.0004 34.7322 55.0004 27.0002C55.0004 19.2682 48.7324 13.0002 41.0004 13.0002C33.2684 13.0002 27.0004 19.2682 27.0004 27.0002C27.0004 34.7322 33.2684 41.0002 41.0004 41.0002Z" fill="var(--fill-0, white)"/>
</g>
<path id="Vector_2" d="M38.7101 34.0002C37.4921 34.0002 36.347 33.5023 35.4859 32.5984L31.6085 28.5285C30.7977 27.6776 30.7977 26.2977 31.6085 25.4466C32.4192 24.5955 33.7338 24.5955 34.5446 25.4466L38.422 29.5165C38.5207 29.6201 38.6331 29.6418 38.7101 29.6418C38.787 29.6418 38.8994 29.6201 38.9981 29.5165L47.4563 20.6385C48.2671 19.7874 49.5816 19.7874 50.3924 20.6385C51.203 21.4894 51.203 22.8693 50.3924 23.7204L41.9344 32.5984C41.073 33.5023 39.928 34.0002 38.7101 34.0002Z" fill="url(#paint1_linear_0_112)"/>
</g>
<defs>
<filter id="filter0_dd_0_112" x="15.0004" y="1.0002" width="52" height="52" filterUnits="userSpaceOnUse" color-interpolation-filters="sRGB">
<feFlood flood-opacity="0" result="BackgroundImageFix"/>
<feColorMatrix in="SourceAlpha" type="matrix" values="0 0 0 0 0 0 0 0 0 0 0 0 0 0 0 0 0 0 127 0" result="hardAlpha"/>
<feOffset/>
<feGaussianBlur stdDeviation="6"/>
<feComposite in2="hardAlpha" operator="out"/>
<feColorMatrix type="matrix" values="0 0 0 0 0.129412 0 0 0 0 0.694118 0 0 0 0 0.945098 0 0 0 0.5 0"/>
<feBlend mode="normal" in2="BackgroundImageFix" result="effect1_dropShadow_0_112"/>
<feColorMatrix in="SourceAlpha" type="matrix" values="0 0 0 0 0 0 0 0 0 0 0 0 0 0 0 0 0 0 127 0" result="hardAlpha"/>
<feOffset dy="4"/>
<feGaussianBlur stdDeviation="2"/>
<feComposite in2="hardAlpha" operator="out"/>
<feColorMatrix type="matrix" values="0 0 0 0 0 0 0 0 0 0 0 0 0 0 0 0 0 0 0.25 0"/>
<feBlend mode="normal" in2="effect1_dropShadow_0_112" result="effect2_dropShadow_0_112"/>
<feBlend mode="normal" in="SourceGraphic" in2="effect2_dropShadow_0_112" result="shape"/>
</filter>
<linearGradient id="paint0_linear_0_112" x1="54.1088" y1="22.599" x2="66.0861" y2="22.599" gradientUnits="userSpaceOnUse">
<stop stop-color="#7ACBFF"/>
<stop offset="1" stop-color="#45A2E0"/>
</linearGradient>
<linearGradient id="paint1_linear_0_112" x1="31.0004" y1="20.0002" x2="51.0004" y2="20.0002" gradientUnits="userSpaceOnUse">
<stop stop-color="#7ACBFF"/>
<stop offset="1" stop-color="#45A2E0"/>
</linearGradient>
</defs>
</svg>
