<svg width="36" height="36" viewBox="0 0 36 36" fill="none" xmlns="http://www.w3.org/2000/svg">
<path d="M6.13875 8.68353C6.35548 8.67839 7.1062 8.66872 7.13875 8.75971C7.26406 9.11037 7.32211 10.8682 7.3409 11.1787C7.43648 12.611 7.51845 14.0445 7.58601 15.4785C7.65471 16.8469 7.76519 18.2406 7.83699 19.6093C8.08032 19.5876 8.52418 19.6022 8.78328 19.6035C8.7969 19.1955 8.56413 16.1637 8.66316 16.0419C8.75896 15.9249 12.0078 13.9056 12.3321 13.7304C12.4095 13.6886 12.4806 13.6595 12.5694 13.6533C12.7043 13.6438 12.8784 13.6831 12.9805 13.7763C13.0848 13.8717 13.1383 14.0339 13.1622 14.1689C13.212 14.4505 13.1837 14.7738 13.1827 15.0595L13.1807 16.582C13.3913 16.4839 14.0107 16.0794 14.2511 15.9326L16.9073 14.2851C17.2058 14.1013 17.5958 13.8094 17.9073 13.6845C18.0068 13.6447 18.1359 13.6436 18.2393 13.6669C18.3658 13.6955 18.4688 13.7694 18.5382 13.8788C18.6139 13.9991 18.6412 14.1441 18.6495 14.2841C18.6732 14.6845 18.6553 19.5445 18.6348 19.5917C18.5169 19.8629 17.9812 19.858 17.796 20.6992C17.7194 21.0464 17.7072 23.1036 17.7735 23.4843C17.8111 23.6936 17.889 23.8933 18.004 24.0722C18.3203 24.5553 18.7604 24.6129 19.2813 24.7236C19.3796 24.8716 19.5775 25.3644 19.6456 25.5419C19.3336 26.1417 19.1866 26.5321 19.4249 27.1992C19.7569 27.9167 20.8436 28.7683 21.4444 29.291C21.5426 29.3764 21.6338 29.4524 21.6309 29.5888C21.6263 29.8039 21.5113 29.9623 21.3702 30.1054C20.9436 30.2361 19.8676 30.1844 19.3848 30.1835H2.50105C2.01392 30.1831 1.07403 30.3265 1.02156 29.6347C0.993165 29.2597 1.00095 28.8554 1.00105 28.4775L1.003 26.4726L1.00593 20.5107C1.01551 19.5453 1.41107 19.5985 2.24812 19.6035C2.3848 19.6043 2.52973 19.6086 2.66707 19.6113L3.16414 11.1035C3.19312 10.6607 3.21788 10.2176 3.23933 9.77435C3.25587 9.4757 3.26101 9.04644 3.34578 8.77142C3.48259 8.6607 4.28377 8.69046 4.49715 8.69037C5.04431 8.69312 5.59162 8.69084 6.13875 8.68353ZM25.7657 14.0898C26.101 14.0619 27.7749 14.0274 28.0186 14.1435C28.6197 14.43 28.215 15.4775 28.38 15.8769C28.4012 15.9282 28.4322 15.9632 28.4815 15.9882C28.701 16.0997 28.9666 16.1508 29.1973 16.2431C29.4378 16.3392 29.6629 16.4723 29.9044 16.5644C29.9486 16.5812 30.0243 16.6159 30.0704 16.6103C30.3321 16.5782 30.8479 15.8404 31.2042 15.6884C31.356 15.6238 31.5129 15.6237 31.6641 15.6904C31.8346 15.766 32.995 16.8956 33.1485 17.0761C33.2148 17.1539 33.2752 17.2437 33.3087 17.3408C33.5197 17.9518 32.6337 18.3073 32.4171 18.7704C32.3997 18.8073 32.3821 18.8498 32.3927 18.8906C32.4644 19.1652 32.6581 19.4437 32.7677 19.7089C32.8561 19.9232 32.8978 20.1599 32.9893 20.3691C33.1339 20.6986 34.2142 20.4314 34.6134 20.5937C34.7601 20.6536 34.8678 20.7662 34.9229 20.915C35.0205 21.1794 35.0098 22.6222 34.9776 22.9677C34.9667 23.0869 34.9446 23.2067 34.8927 23.3154C34.59 23.9472 33.6606 23.507 33.1905 23.6826C33.122 23.7084 33.0638 23.7576 33.0274 23.8212C32.9213 24.0113 32.8713 24.2652 32.7891 24.4706C32.6962 24.7033 32.5685 24.92 32.4727 25.1503C32.4537 25.196 32.4128 25.2799 32.4132 25.3281C32.4146 25.5593 33.1947 26.1435 33.3194 26.4697C33.3765 26.619 33.3658 26.7791 33.295 26.9218C33.1946 27.1239 32.0665 28.2308 31.8565 28.3974C31.7863 28.4531 31.7076 28.4996 31.6221 28.5273C30.9958 28.7309 30.6557 27.8519 30.1759 27.6347C30.1372 27.6172 30.0797 27.5932 30.0362 27.5996C29.7843 27.6367 29.404 27.8723 29.1485 27.9716C28.9546 28.0472 28.7485 28.097 28.5577 28.1796C28.1654 28.35 28.4833 29.3223 28.295 29.7783C28.2335 29.927 28.1216 30.033 27.9757 30.0976C27.5823 30.18 27.1148 30.1247 26.712 30.1259C26.4349 30.1267 26.1404 30.1558 25.8653 30.1269C25.772 30.1172 25.6824 30.0937 25.6007 30.0468C25.0578 29.7351 25.4267 28.8042 25.2843 28.3496C25.2611 28.2754 25.2221 28.225 25.1514 28.1913C24.9761 28.1084 24.7696 28.0588 24.586 27.9921C24.344 27.9042 24.1101 27.7955 23.8741 27.6933C23.8042 27.663 23.669 27.593 23.5909 27.6035C23.2923 27.6447 22.8202 28.404 22.42 28.5273C22.2774 28.5714 22.1316 28.5458 22.003 28.4736C21.8279 28.3747 20.6565 27.2583 20.4991 27.0605C20.4354 26.9803 20.3847 26.8925 20.3585 26.7929C20.2026 26.1983 20.9886 25.8785 21.2218 25.4394C21.2512 25.384 21.2697 25.3305 21.252 25.2685C21.1882 25.0435 21.0342 24.814 20.9376 24.5976C20.8286 24.3537 20.7545 24.1085 20.6641 23.8593C20.5184 23.4578 19.4755 23.8148 19.0382 23.5859C18.906 23.5167 18.8157 23.3996 18.7725 23.2578C18.6983 23.0136 18.708 21.411 18.7432 21.1015C18.7544 21.0028 18.7786 20.9089 18.8282 20.8222C19.1324 20.29 20.0324 20.6674 20.4923 20.5156C20.5496 20.4966 20.6 20.4601 20.63 20.4072C20.7377 20.2155 20.7972 19.9661 20.88 19.7597C20.9695 19.5368 21.0824 19.3261 21.1827 19.1083C21.2138 19.0408 21.2647 18.9403 21.2589 18.8652C21.237 18.5938 20.4843 18.1287 20.3575 17.7626C20.3053 17.6116 20.3282 17.4549 20.4005 17.3144C20.4789 17.1615 21.6065 16.0114 21.7969 15.8535C21.8855 15.7802 21.986 15.7158 22.0977 15.6855C22.6606 15.5331 23.0247 16.3183 23.4532 16.5429C23.5191 16.5774 23.5906 16.5951 23.6641 16.58C23.8389 16.5441 24.0138 16.4105 24.1807 16.3388C24.4163 16.2376 24.6553 16.1579 24.8975 16.0751C24.9907 16.0433 25.1442 16.0086 25.21 15.9326C25.409 15.7023 25.1676 14.7811 25.3751 14.3867C25.4601 14.2248 25.5941 14.1399 25.7657 14.0898ZM6.11433 25.6474C5.87548 25.557 4.3716 25.5912 4.17195 25.6083C4.10091 25.6608 4.05579 25.7132 4.05086 25.8046C4.03333 26.1284 3.98432 27.4393 4.10554 27.6621C4.28368 27.7484 5.84831 27.7207 6.0782 27.6874C6.33415 27.4346 6.16505 26.5154 6.21492 26.1562C6.23356 26.0224 6.17731 25.6711 6.11433 25.6474ZM9.95027 25.6533C9.75658 25.5551 8.27027 25.5911 8.05086 25.6074C7.9757 25.6459 7.92748 25.6769 7.89949 25.7617C7.85654 25.8927 7.86412 27.1822 7.87898 27.3749C7.88501 27.453 7.8955 27.545 7.93367 27.6142C7.95814 27.6588 8.0424 27.6786 8.08894 27.6874C8.30912 27.7295 8.55348 27.7088 8.77742 27.7079L9.90144 27.704C10.1046 27.5101 10.0081 26.7736 10.0323 26.5078C10.048 26.337 10.039 25.6983 9.95027 25.6533ZM13.7305 25.6249C13.5744 25.5819 12.0481 25.5866 11.8253 25.6064C11.7363 25.6815 11.7052 25.7369 11.7012 25.8583C11.6845 26.3727 11.6872 26.8938 11.7012 27.4081C11.7035 27.4891 11.7314 27.5974 11.7813 27.6621C11.9766 27.7339 13.4619 27.7165 13.712 27.6962C13.7542 27.6518 13.7962 27.6015 13.8038 27.5361C13.8616 27.0396 13.8284 26.5055 13.835 26.0038C13.8366 25.8812 13.8162 25.7086 13.7305 25.6249ZM30.3692 21.7656C30.189 19.807 28.4562 18.3646 26.4971 18.5419C24.5343 18.7198 23.0882 20.4565 23.2686 22.4189C23.4495 24.3811 25.1881 25.8249 27.1505 25.6415C29.1089 25.4588 30.5494 23.7241 30.3692 21.7656ZM9.93562 22.038C9.73665 21.9571 8.82863 21.9815 8.58308 22.0019C8.40361 22.0046 8.09614 21.9797 7.95515 22.0673C7.85201 22.2031 7.87024 22.8315 7.87703 23.0117C7.88766 23.2931 7.83107 23.8414 7.96492 24.0654C8.11752 24.1638 9.11195 24.1209 9.3448 24.1191C9.53082 24.1183 9.73098 24.1212 9.91511 24.1044C10.1286 23.7771 10.0104 22.6238 10.0108 22.1904C10.0107 22.1398 9.97296 22.0733 9.93562 22.038ZM13.127 21.9794C12.8947 21.9834 11.9531 21.9577 11.8272 21.999C11.8124 22.0039 11.7955 22.0195 11.7862 22.0302C11.6522 22.1842 11.6638 23.7378 11.7247 23.9736C11.7385 24.027 11.7643 24.0584 11.8145 24.082C11.9647 24.1526 12.2118 24.1233 12.378 24.121C12.6319 24.1215 13.5657 24.1515 13.7364 24.0712C13.9272 23.79 13.8006 22.6938 13.837 22.329C13.8814 21.8827 13.4358 21.9747 13.127 21.9794ZM5.29304 21.999L5.25789 22.0009C5.02111 22.0164 4.26456 21.97 4.12605 22.0371C3.95311 22.2928 4.06531 23.2212 4.03328 23.5585C4.02233 23.6731 4.04787 23.9617 4.10847 24.0585C4.27322 24.1582 4.76218 24.1232 4.97175 24.1201C5.30718 24.1201 5.73479 24.1315 6.06257 24.1074C6.10901 24.0496 6.15624 23.9927 6.19636 23.9306C6.2436 23.4404 6.19653 22.8938 6.21101 22.3974C6.21401 22.2946 6.19398 22.1293 6.12898 22.0488C5.93584 21.9315 5.53304 21.9956 5.29304 21.999ZM5.77547 5.80756C6.15187 5.80761 6.5447 5.79236 6.92488 5.83392C7.40992 5.8989 7.31887 6.50915 7.35554 6.86908C7.4129 7.43241 7.36195 7.72253 6.75105 7.74408L4.73933 7.74799C4.35647 7.74733 3.96769 7.75311 3.59285 7.72553C3.04342 7.68927 3.11534 7.27954 3.14754 6.86615C3.1681 6.60177 3.12344 6.20857 3.29597 5.98432C3.41481 5.82995 3.60529 5.82387 3.7823 5.81244C4.44652 5.80362 5.11121 5.80169 5.77547 5.80756Z" fill="black"/>
<path d="M6.13875 8.68353C6.35548 8.67839 7.1062 8.66872 7.13875 8.75971C7.26406 9.11037 7.32211 10.8682 7.3409 11.1787C7.43648 12.611 7.51845 14.0445 7.58601 15.4785C7.65471 16.8469 7.76519 18.2406 7.83699 19.6093C8.08032 19.5876 8.52418 19.6022 8.78328 19.6035C8.7969 19.1955 8.56413 16.1637 8.66316 16.0419C8.75896 15.9249 12.0078 13.9056 12.3321 13.7304C12.4095 13.6886 12.4806 13.6595 12.5694 13.6533C12.7043 13.6438 12.8784 13.6831 12.9805 13.7763C13.0848 13.8717 13.1383 14.0339 13.1622 14.1689C13.212 14.4505 13.1837 14.7738 13.1827 15.0595L13.1807 16.582C13.3913 16.4839 14.0107 16.0794 14.2511 15.9326L16.9073 14.2851C17.2058 14.1013 17.5958 13.8094 17.9073 13.6845C18.0068 13.6447 18.1359 13.6436 18.2393 13.6669C18.3658 13.6955 18.4688 13.7694 18.5382 13.8788C18.6139 13.9991 18.6412 14.1441 18.6495 14.2841C18.6732 14.6845 18.6553 19.5445 18.6348 19.5917C18.5169 19.8629 17.9812 19.858 17.796 20.6992C17.7194 21.0464 17.7072 23.1036 17.7735 23.4843C17.8111 23.6936 17.889 23.8933 18.004 24.0722C18.3203 24.5553 18.7604 24.6129 19.2813 24.7236C19.3796 24.8716 19.5775 25.3644 19.6456 25.5419C19.3336 26.1417 19.1866 26.5321 19.4249 27.1992C19.7569 27.9167 20.8436 28.7683 21.4444 29.291C21.5426 29.3764 21.6338 29.4524 21.6309 29.5888C21.6263 29.8039 21.5113 29.9623 21.3702 30.1054C20.9436 30.2361 19.8676 30.1844 19.3848 30.1835H2.50105C2.01392 30.1831 1.07403 30.3265 1.02156 29.6347C0.993165 29.2597 1.00095 28.8554 1.00105 28.4775L1.003 26.4726L1.00593 20.5107C1.01551 19.5453 1.41107 19.5985 2.24812 19.6035C2.3848 19.6043 2.52973 19.6086 2.66707 19.6113L3.16414 11.1035C3.19312 10.6607 3.21788 10.2176 3.23933 9.77435C3.25587 9.4757 3.26101 9.04644 3.34578 8.77142C3.48259 8.6607 4.28377 8.69046 4.49715 8.69037C5.04431 8.69312 5.59162 8.69084 6.13875 8.68353ZM25.7657 14.0898C26.101 14.0619 27.7749 14.0274 28.0186 14.1435C28.6197 14.43 28.215 15.4775 28.38 15.8769C28.4012 15.9282 28.4322 15.9632 28.4815 15.9882C28.701 16.0997 28.9666 16.1508 29.1973 16.2431C29.4378 16.3392 29.6629 16.4723 29.9044 16.5644C29.9486 16.5812 30.0243 16.6159 30.0704 16.6103C30.3321 16.5782 30.8479 15.8404 31.2042 15.6884C31.356 15.6238 31.5129 15.6237 31.6641 15.6904C31.8346 15.766 32.995 16.8956 33.1485 17.0761C33.2148 17.1539 33.2752 17.2437 33.3087 17.3408C33.5197 17.9518 32.6337 18.3073 32.4171 18.7704C32.3997 18.8073 32.3821 18.8498 32.3927 18.8906C32.4644 19.1652 32.6581 19.4437 32.7677 19.7089C32.8561 19.9232 32.8978 20.1599 32.9893 20.3691C33.1339 20.6986 34.2142 20.4314 34.6134 20.5937C34.7601 20.6536 34.8678 20.7662 34.9229 20.915C35.0205 21.1794 35.0098 22.6222 34.9776 22.9677C34.9667 23.0869 34.9446 23.2067 34.8927 23.3154C34.59 23.9472 33.6606 23.507 33.1905 23.6826C33.122 23.7084 33.0638 23.7576 33.0274 23.8212C32.9213 24.0113 32.8713 24.2652 32.7891 24.4706C32.6962 24.7033 32.5685 24.92 32.4727 25.1503C32.4537 25.196 32.4128 25.2799 32.4132 25.3281C32.4146 25.5593 33.1947 26.1435 33.3194 26.4697C33.3765 26.619 33.3658 26.7791 33.295 26.9218C33.1946 27.1239 32.0665 28.2308 31.8565 28.3974C31.7863 28.4531 31.7076 28.4996 31.6221 28.5273C30.9958 28.7309 30.6557 27.8519 30.1759 27.6347C30.1372 27.6172 30.0797 27.5932 30.0362 27.5996C29.7843 27.6367 29.404 27.8723 29.1485 27.9716C28.9546 28.0472 28.7485 28.097 28.5577 28.1796C28.1654 28.35 28.4833 29.3223 28.295 29.7783C28.2335 29.927 28.1216 30.033 27.9757 30.0976C27.5823 30.18 27.1148 30.1247 26.712 30.1259C26.4349 30.1267 26.1404 30.1558 25.8653 30.1269C25.772 30.1172 25.6824 30.0937 25.6007 30.0468C25.0578 29.7351 25.4267 28.8042 25.2843 28.3496C25.2611 28.2754 25.2221 28.225 25.1514 28.1913C24.9761 28.1084 24.7696 28.0588 24.586 27.9921C24.344 27.9042 24.1101 27.7955 23.8741 27.6933C23.8042 27.663 23.669 27.593 23.5909 27.6035C23.2923 27.6447 22.8202 28.404 22.42 28.5273C22.2774 28.5714 22.1316 28.5458 22.003 28.4736C21.8279 28.3747 20.6565 27.2583 20.4991 27.0605C20.4354 26.9803 20.3847 26.8925 20.3585 26.7929C20.2026 26.1983 20.9886 25.8785 21.2218 25.4394C21.2512 25.384 21.2697 25.3305 21.252 25.2685C21.1882 25.0435 21.0342 24.814 20.9376 24.5976C20.8286 24.3537 20.7545 24.1085 20.6641 23.8593C20.5184 23.4578 19.4755 23.8148 19.0382 23.5859C18.906 23.5167 18.8157 23.3996 18.7725 23.2578C18.6983 23.0136 18.708 21.411 18.7432 21.1015C18.7544 21.0028 18.7786 20.9089 18.8282 20.8222C19.1324 20.29 20.0324 20.6674 20.4923 20.5156C20.5496 20.4966 20.6 20.4601 20.63 20.4072C20.7377 20.2155 20.7972 19.9661 20.88 19.7597C20.9695 19.5368 21.0824 19.3261 21.1827 19.1083C21.2138 19.0408 21.2647 18.9403 21.2589 18.8652C21.237 18.5938 20.4843 18.1287 20.3575 17.7626C20.3053 17.6116 20.3282 17.4549 20.4005 17.3144C20.4789 17.1615 21.6065 16.0114 21.7969 15.8535C21.8855 15.7802 21.986 15.7158 22.0977 15.6855C22.6606 15.5331 23.0247 16.3183 23.4532 16.5429C23.5191 16.5774 23.5906 16.5951 23.6641 16.58C23.8389 16.5441 24.0138 16.4105 24.1807 16.3388C24.4163 16.2376 24.6553 16.1579 24.8975 16.0751C24.9907 16.0433 25.1442 16.0086 25.21 15.9326C25.409 15.7023 25.1676 14.7811 25.3751 14.3867C25.4601 14.2248 25.5941 14.1399 25.7657 14.0898ZM6.11433 25.6474C5.87548 25.557 4.3716 25.5912 4.17195 25.6083C4.10091 25.6608 4.05579 25.7132 4.05086 25.8046C4.03333 26.1284 3.98432 27.4393 4.10554 27.6621C4.28368 27.7484 5.84831 27.7207 6.0782 27.6874C6.33415 27.4346 6.16505 26.5154 6.21492 26.1562C6.23356 26.0224 6.17731 25.6711 6.11433 25.6474ZM9.95027 25.6533C9.75658 25.5551 8.27027 25.5911 8.05086 25.6074C7.9757 25.6459 7.92748 25.6769 7.89949 25.7617C7.85654 25.8927 7.86412 27.1822 7.87898 27.3749C7.88501 27.453 7.8955 27.545 7.93367 27.6142C7.95814 27.6588 8.0424 27.6786 8.08894 27.6874C8.30912 27.7295 8.55348 27.7088 8.77742 27.7079L9.90144 27.704C10.1046 27.5101 10.0081 26.7736 10.0323 26.5078C10.048 26.337 10.039 25.6983 9.95027 25.6533ZM13.7305 25.6249C13.5744 25.5819 12.0481 25.5866 11.8253 25.6064C11.7363 25.6815 11.7052 25.7369 11.7012 25.8583C11.6845 26.3727 11.6872 26.8938 11.7012 27.4081C11.7035 27.4891 11.7314 27.5974 11.7813 27.6621C11.9766 27.7339 13.4619 27.7165 13.712 27.6962C13.7542 27.6518 13.7962 27.6015 13.8038 27.5361C13.8616 27.0396 13.8284 26.5055 13.835 26.0038C13.8366 25.8812 13.8162 25.7086 13.7305 25.6249ZM30.3692 21.7656C30.189 19.807 28.4562 18.3646 26.4971 18.5419C24.5343 18.7198 23.0882 20.4565 23.2686 22.4189C23.4495 24.3811 25.1881 25.8249 27.1505 25.6415C29.1089 25.4588 30.5494 23.7241 30.3692 21.7656ZM9.93562 22.038C9.73665 21.9571 8.82863 21.9815 8.58308 22.0019C8.40361 22.0046 8.09614 21.9797 7.95515 22.0673C7.85201 22.2031 7.87024 22.8315 7.87703 23.0117C7.88766 23.2931 7.83107 23.8414 7.96492 24.0654C8.11752 24.1638 9.11195 24.1209 9.3448 24.1191C9.53082 24.1183 9.73098 24.1212 9.91511 24.1044C10.1286 23.7771 10.0104 22.6238 10.0108 22.1904C10.0107 22.1398 9.97296 22.0733 9.93562 22.038ZM13.127 21.9794C12.8947 21.9834 11.9531 21.9577 11.8272 21.999C11.8124 22.0039 11.7955 22.0195 11.7862 22.0302C11.6522 22.1842 11.6638 23.7378 11.7247 23.9736C11.7385 24.027 11.7643 24.0584 11.8145 24.082C11.9647 24.1526 12.2118 24.1233 12.378 24.121C12.6319 24.1215 13.5657 24.1515 13.7364 24.0712C13.9272 23.79 13.8006 22.6938 13.837 22.329C13.8814 21.8827 13.4358 21.9747 13.127 21.9794ZM5.29304 21.999L5.25789 22.0009C5.02111 22.0164 4.26456 21.97 4.12605 22.0371C3.95311 22.2928 4.06531 23.2212 4.03328 23.5585C4.02233 23.6731 4.04787 23.9617 4.10847 24.0585C4.27322 24.1582 4.76218 24.1232 4.97175 24.1201C5.30718 24.1201 5.73479 24.1315 6.06257 24.1074C6.10901 24.0496 6.15624 23.9927 6.19636 23.9306C6.2436 23.4404 6.19653 22.8938 6.21101 22.3974C6.21401 22.2946 6.19398 22.1293 6.12898 22.0488C5.93584 21.9315 5.53304 21.9956 5.29304 21.999ZM5.77547 5.80756C6.15187 5.80761 6.5447 5.79236 6.92488 5.83392C7.40992 5.8989 7.31887 6.50915 7.35554 6.86908C7.4129 7.43241 7.36195 7.72253 6.75105 7.74408L4.73933 7.74799C4.35647 7.74733 3.96769 7.75311 3.59285 7.72553C3.04342 7.68927 3.11534 7.27954 3.14754 6.86615C3.1681 6.60177 3.12344 6.20857 3.29597 5.98432C3.41481 5.82995 3.60529 5.82387 3.7823 5.81244C4.44652 5.80362 5.11121 5.80169 5.77547 5.80756Z" fill="url(#paint0_linear_386_56344)"/>
<defs>
<linearGradient id="paint0_linear_386_56344" x1="20.5033" y1="19.6332" x2="-4.80813" y2="36.7886" gradientUnits="userSpaceOnUse">
<stop stop-color="#FFA78F"/>
<stop offset="1" stop-color="#F23E2C"/>
</linearGradient>
</defs>
</svg>
