<svg width="36" height="36" viewBox="0 0 36 36" fill="none" xmlns="http://www.w3.org/2000/svg">
<path d="M4.91104 1.02382C5.71804 0.97698 6.87931 1.01366 7.7091 1.01371L13.0971 1.0156L17.4573 1.02643C18.0953 1.0292 18.7339 1.03032 19.3718 1.03975C19.6631 1.04403 20.032 0.9996 20.0626 1.38276C20.0946 1.78539 20.0813 2.1949 20.0805 2.59918L20.0793 5.62871C20.0793 6.11402 20.059 7.09446 20.1398 7.53383C20.2206 7.9751 20.3962 8.39356 20.6544 8.76039C21.6141 10.1173 22.8438 10.0082 24.2797 10.0066L26.5681 10.0073C27.1042 10.008 27.9155 9.79915 27.9102 10.5161C27.8961 12.4838 27.9339 14.4591 27.8971 16.4236C27.8966 16.4571 27.8595 16.4635 27.833 16.4763C27.6575 16.452 27.3151 16.1218 27.0406 15.9874C26.6045 15.7748 26.1047 15.7321 25.6387 15.8676C25.1376 16.0159 24.4834 16.5689 24.0078 16.8757C23.4973 17.202 22.9632 17.4898 22.4099 17.7366C21.6694 18.0556 20.8983 18.2987 20.1087 18.4623C19.7128 18.5433 19.0875 18.6213 18.7349 18.7437C18.2117 18.9226 17.7828 19.3046 17.5446 19.8037C17.2519 20.4119 17.3347 21.3334 17.3308 22.007C17.323 23.3766 17.3347 24.7715 17.5415 26.1277C17.6544 26.867 17.8334 27.5948 18.0768 28.3021C18.5876 29.7453 19.3486 31.0869 20.3249 32.266C20.4667 32.4374 21.3428 33.3658 21.3337 33.4615C21.1474 33.6166 20.4315 33.5662 20.1688 33.5652L18.5108 33.5628L12.9635 33.5614L7.49319 33.5605L5.81552 33.5612C5.48472 33.5609 5.05553 33.5726 4.73523 33.5322C4.1982 33.4651 3.68953 33.2532 3.26355 32.9192C2.62837 32.4149 2.13259 31.6283 2.06715 30.8165C2.02882 30.3409 2.04623 29.7171 2.04675 29.2308L2.04807 26.4651L2.04802 17.2944L2.04776 8.13389L2.04735 5.30489C2.0474 4.92352 2.02738 4.1627 2.06442 3.80395C2.1318 3.19287 2.37762 2.61515 2.77121 2.1429C3.32734 1.46764 4.04747 1.1048 4.91104 1.02382Z" fill="url(#paint0_linear_386_56313)"/>
<path d="M7.56922 12.3358C10.1406 12.3072 12.7638 12.3349 15.3383 12.3325L17.9875 12.332C18.289 12.3324 18.5912 12.3296 18.8925 12.3343C19.2729 12.3402 19.5973 12.3041 19.9027 12.5713C20.1061 12.7489 20.2259 13.0036 20.2326 13.2736C20.2422 13.5498 20.1432 13.807 19.9445 13.9977C19.6624 14.2685 19.3843 14.2684 19.0276 14.2718L11.1685 14.2725L8.71869 14.2735C8.25447 14.274 7.78126 14.286 7.31982 14.253C6.55033 14.1935 6.21406 13.206 6.73272 12.6542C6.97634 12.395 7.23252 12.3455 7.56922 12.3358Z" fill="white"/>
<path d="M7.42808 17.4502C8.00166 17.435 8.63089 17.4464 9.20961 17.4467L12.5996 17.4475L14.8247 17.4455C15.2912 17.4455 16.2263 17.3703 16.5937 17.6239C16.8106 17.7733 16.9573 18.0048 16.9999 18.2647C17.0431 18.5299 16.974 18.8012 16.8089 19.0133C16.627 19.2431 16.388 19.3433 16.105 19.3804L10.2033 19.3808L8.40422 19.3813C7.96321 19.3811 7.21996 19.4511 6.86554 19.1951C6.65723 19.0418 6.52037 18.8103 6.48654 18.554C6.39994 17.9307 6.8374 17.5183 7.42808 17.4502Z" fill="white"/>
<path d="M7.48264 22.5691L12.3639 22.5693L14.0069 22.5674C14.4242 22.5667 15.1285 22.5 15.4673 22.7446C15.6806 22.8967 15.8231 23.1286 15.8624 23.3876C15.8995 23.6422 15.8336 23.9014 15.6793 24.1075C15.4973 24.353 15.2758 24.4528 14.9844 24.4951L9.78035 24.4958L8.24287 24.4965C7.79462 24.4965 7.17802 24.5714 6.8198 24.2706C6.62332 24.1034 6.50313 23.8638 6.48675 23.6063C6.44022 22.9718 6.88371 22.6052 7.48264 22.5691Z" fill="white"/>
<path d="M26.0358 17.1105C26.5037 17.0562 26.8294 17.4159 27.1988 17.6749C27.4561 17.8515 27.7186 18.02 27.9862 18.1804C29.1982 18.9059 30.5505 19.392 31.9304 19.6748C32.4069 19.7975 32.9397 19.8121 33.4081 19.9479C33.9551 20.1066 33.9537 20.7558 33.9539 21.1879C33.9547 22.3901 33.9814 23.626 33.8877 24.8225C33.8459 25.2957 33.7844 25.7667 33.7036 26.2346C33.5695 26.9766 33.3624 27.7032 33.0853 28.4042C31.8835 31.4803 29.4801 33.6786 26.4954 34.9856C26.2646 35.0205 26.0956 34.9923 25.8818 34.899C23.0802 33.6786 20.7913 31.4413 19.5704 28.6414C18.5095 26.2982 18.6112 23.7852 18.5987 21.2771C18.5916 19.8365 18.9713 20.0225 20.2048 19.7939C21.7845 19.4957 23.2923 18.8968 24.6459 18.0293C24.9919 17.8085 25.7271 17.2255 26.0358 17.1105Z" fill="url(#paint1_linear_386_56313)"/>
<path d="M29.709 22.5889C30.4928 22.618 30.8746 23.4396 30.4244 24.0897C30.3003 24.269 29.9593 24.5765 29.7888 24.7566L28.3623 26.2689L26.5944 28.1272C26.2898 28.45 25.9924 28.7826 25.681 29.0973C25.3745 29.4067 24.8657 29.4863 24.5102 29.2132C24.2524 29.0152 24.0305 28.7467 23.8093 28.5067L22.8639 27.4845C22.5328 27.1292 22.0534 26.7179 21.984 26.224C21.853 25.5796 22.7188 24.9811 23.252 25.3826C23.79 25.7878 24.3021 26.4817 24.7741 26.9786C24.882 27.0921 25.0044 27.2165 25.1478 27.0766C25.4745 26.7581 25.7776 26.4112 26.0899 26.0781L28.386 23.6349C28.6555 23.349 28.9615 22.9925 29.2592 22.7424C29.3675 22.6518 29.5681 22.6118 29.709 22.5889Z" fill="white"/>
<path d="M21.4172 2.18439C21.4772 2.18226 21.5929 2.17834 21.6321 2.21492C22.0843 2.63847 22.6586 3.2132 23.0861 3.63395L25.9305 6.44176C26.4297 6.93413 26.9376 7.42295 27.4313 7.92086C27.5081 7.99821 27.7345 8.25166 27.7558 8.35992C27.7771 8.46733 27.7479 8.5299 27.6946 8.62009C27.6382 8.64297 27.5899 8.66282 27.5277 8.66351C26.1727 8.67817 24.817 8.65923 23.4618 8.67018C23.2765 8.67167 23.0813 8.67444 22.8968 8.66088C22.7186 8.64943 22.5434 8.6094 22.3779 8.54236C21.9798 8.379 21.6654 8.06087 21.5066 7.66102C21.449 7.51823 21.3902 7.29474 21.3892 7.14038C21.3782 5.54678 21.3835 3.95165 21.3799 2.35781C21.3799 2.28565 21.3897 2.24844 21.4172 2.18439Z" fill="url(#paint2_linear_386_56313)"/>
<defs>
<linearGradient id="paint0_linear_386_56313" x1="16.8825" y1="19.4682" x2="-7.57726" y2="28.9141" gradientUnits="userSpaceOnUse">
<stop stop-color="#FFA78F"/>
<stop offset="1" stop-color="#F23E2C"/>
</linearGradient>
<linearGradient id="paint1_linear_386_56313" x1="27.4091" y1="27.2508" x2="13.1974" y2="33.1817" gradientUnits="userSpaceOnUse">
<stop stop-color="#FFA78F"/>
<stop offset="1" stop-color="#F23E2C"/>
</linearGradient>
<linearGradient id="paint2_linear_386_56313" x1="25.0413" y1="5.86177" x2="19.3979" y2="8.56113" gradientUnits="userSpaceOnUse">
<stop stop-color="#FFA78F"/>
<stop offset="1" stop-color="#F23E2C"/>
</linearGradient>
</defs>
</svg>
