<svg width="36" height="36" viewBox="0 0 36 36" fill="none" xmlns="http://www.w3.org/2000/svg">
<path d="M17.4616 1.74162C18.6619 1.65375 20.2822 1.83542 21.4411 2.09791C25.224 2.9637 28.5127 5.28604 30.5939 8.56104C32.1843 11.0812 32.8608 14.0711 32.5097 17.0304C32.4279 17.6915 32.2868 18.2028 32.1417 18.8414C31.5683 18.4566 31.1543 18.2595 30.5023 18.046C30.5861 17.7387 30.6673 17.1922 30.7057 16.8676C30.9557 14.7552 30.6168 12.9724 29.8095 11.0308C29.0353 11.3363 28.1869 11.5918 27.3908 11.8348C26.8813 11.9904 26.352 12.0977 25.8398 12.2572C25.8515 12.8725 25.9788 13.5132 26.0179 14.1381C26.1241 15.5287 26.0384 16.9135 25.8331 18.2864C25.7024 19.161 25.6617 19.4132 25.0951 20.1088C24.9751 20.256 24.7403 20.7274 24.634 20.9276C24.375 20.2499 24.1772 19.845 23.8404 19.2167C23.8803 18.8999 23.9674 18.5663 24.0206 18.2466C24.3159 16.4763 24.3907 14.4522 24.0164 12.6732C22.6285 12.839 21.2707 13.0901 19.8634 13.1122C19.5589 13.1171 19.2559 13.1677 18.9436 13.1674C18.9348 13.7266 18.9391 14.2822 18.9159 14.8415C18.9066 14.8579 18.884 14.8654 18.8622 14.8776C18.4612 14.8303 17.5182 14.8262 17.1331 14.9216C17.155 14.3637 17.1282 13.7188 17.1281 13.151C16.8754 13.1299 16.5992 13.1119 16.3459 13.1071C14.9405 13.0807 13.5633 12.8407 12.1722 12.6866C12.1163 13.1644 12.0227 13.6637 11.9837 14.1459C11.8821 15.4026 11.9106 16.6263 12.0894 17.8764C12.1244 18.1205 12.2693 18.854 12.2253 19.062C12.183 19.2622 11.8565 19.8197 11.7408 20.0484C11.6 20.3266 11.4749 20.6122 11.366 20.9042C11.2113 20.3111 10.6842 19.857 10.4782 19.3201C10.4371 19.213 10.3689 18.6333 10.3421 18.472C9.98589 16.3316 10.0593 14.3824 10.3671 12.2452C9.19058 12.0265 7.94204 11.5497 6.80396 11.1692C6.6862 11.1298 6.57029 11.0817 6.45655 11.0317C5.71662 12.8781 5.34664 14.3451 5.49929 16.3649C5.54141 16.9223 5.64317 17.4823 5.6986 18.0413C5.23605 18.1611 4.49675 18.4552 4.08543 18.7201C3.83365 17.9495 3.7102 16.9958 3.66827 16.1861C3.51817 12.6409 4.77896 9.18072 7.17468 6.56286C9.81617 3.63867 13.5239 1.90096 17.4616 1.74162ZM23.1146 10.901C23.2685 10.8713 23.4224 10.8426 23.5766 10.815C23.5068 10.3471 23.3013 9.86458 23.1277 9.41925C22.3676 7.46962 21.1232 5.47426 19.4439 4.19013C19.3374 4.10886 19.0584 3.90856 18.9447 3.86267C18.9316 5.13075 18.9274 6.39894 18.9324 7.66708C18.9284 8.87061 18.9319 10.0741 18.9423 11.2776C19.9838 11.2882 21.0892 11.1825 22.1208 11.0466C22.3503 11.0164 22.9144 10.953 23.1146 10.901ZM10.7709 10.4561C11.0923 8.81029 12.0758 6.91428 12.9986 5.51638C13.0937 5.37229 13.8761 4.37202 13.8852 4.31955C13.8258 4.29716 13.8542 4.29801 13.8004 4.30997C11.0422 5.42563 8.98119 6.8493 7.33447 9.38786C7.66481 9.4855 7.95642 9.61114 8.27222 9.71296C9.16896 10.0169 9.85608 10.2097 10.7709 10.4561ZM12.9926 10.907C14.2444 11.1143 15.8545 11.296 17.1205 11.2835C17.127 10.4922 17.218 4.09899 17.0837 3.85144L17.0613 3.87214C16.7322 4.17155 16.3684 4.387 16.0214 4.73107C14.584 6.15639 13.6163 7.79064 12.9215 9.68317C12.7768 10.0773 12.6845 10.451 12.5549 10.8239C12.7006 10.8528 12.8465 10.8806 12.9926 10.907ZM22.1844 4.26024C22.2009 4.3746 22.3455 4.50149 22.4235 4.60072C23.7427 6.2791 24.8819 8.36111 25.3907 10.4486C25.7841 10.3333 26.1782 10.2461 26.5725 10.1363C27.0825 9.99147 27.5897 9.83612 28.0934 9.67037C28.3623 9.57792 28.6557 9.47078 28.9251 9.38651C28.624 8.87128 28.4065 8.6188 28.037 8.16234C26.8488 6.69401 25.2863 5.58774 23.5811 4.79453C23.2552 4.64302 22.5702 4.35879 22.2214 4.26943L22.1844 4.26024Z" fill="url(#paint0_linear_386_56330)"/>
<path d="M15.9671 25.615C16.6949 25.5849 17.5219 25.6118 18.2587 25.6072C18.7589 25.6041 19.4828 25.583 19.9644 25.6184C21.2434 25.7119 22.3469 26.2139 23.2886 27.0777C24.345 28.0466 24.9602 29.2327 25.0271 30.68C25.0289 31.1886 25.0486 31.6747 25.0374 32.1858C25.0241 32.8121 25.2044 34.073 24.3535 34.2248C23.894 34.3067 23.2534 34.2743 22.7764 34.2743L20.0872 34.2729L14.5925 34.2708L12.9372 34.2729C12.5841 34.2743 12.2076 34.2889 11.8519 34.2543C10.7129 34.1433 11.0371 32.8462 11.0005 32.0428C10.926 30.4071 11.082 29.0355 12.1417 27.6992C13.1676 26.4058 14.3439 25.8367 15.9671 25.615Z" fill="url(#paint1_linear_386_56330)"/>
<path d="M20.8151 23.9273C19.0106 25.3974 16.3777 25.2265 14.7786 23.5357C13.1794 21.8449 13.1559 19.2068 14.7246 17.4877C16.2933 15.7686 18.9228 15.5508 20.7531 16.9883C22.5834 18.4259 22.9942 21.0317 21.6953 22.9626C21.4804 23.0273 20.8729 23.6994 20.8151 23.9273Z" fill="url(#paint2_linear_386_56330)"/>
<path d="M5.2042 26.7571C5.52098 26.718 6.14812 26.7952 6.50479 26.7979C6.95919 26.8013 7.4031 26.7545 7.84353 26.7539C8.75297 26.7585 9.6425 27.0204 10.4093 27.5094C10.5277 27.586 10.6703 27.6771 10.5837 27.8373C10.322 28.321 10.0959 28.7887 9.95196 29.3226C9.85383 29.6945 9.78765 30.0738 9.75408 30.4571C9.72727 30.7912 9.73581 31.315 9.74023 31.668C9.74939 32.404 9.69819 33.1411 9.8566 33.8577C9.7069 33.934 7.05096 33.9066 6.66881 33.9064L3.40368 33.9088C2.84443 33.9104 2.22249 33.9311 1.66852 33.8832C1.54204 33.8728 1.40546 33.7943 1.31028 33.7131C0.853936 33.3247 1.04296 32.4879 1.01895 31.9611C0.958644 30.6376 1.06636 29.4922 1.94189 28.4253C2.83469 27.3374 3.83146 26.899 5.2042 26.7571Z" fill="url(#paint3_linear_386_56330)"/>
<path d="M27.8401 26.7566C28.1966 26.7082 28.8262 26.8016 29.2149 26.8C29.5967 26.7974 29.9819 26.7803 30.3637 26.758C32.665 26.6222 34.9362 28.5081 34.9844 30.8601C34.9943 31.3489 34.9825 31.8267 34.9913 32.3455C35.0097 32.7969 35.0523 33.7823 34.4293 33.8686C33.8804 33.9444 33.1038 33.9077 32.5311 33.9061L26.1493 33.9093C26.3002 33.3413 26.2544 32.7599 26.2544 32.1751C26.2544 30.9453 26.338 29.8489 25.8476 28.6812C25.7111 28.3553 25.5359 28.0346 25.3711 27.7207C26.0114 27.1075 26.9852 26.8572 27.8401 26.7566Z" fill="url(#paint4_linear_386_56330)"/>
<path d="M6.25685 18.9444C8.20163 18.714 9.96379 20.1065 10.1888 22.0516C10.4138 23.9969 9.01609 25.7547 7.07005 25.9744C5.13162 26.1932 3.38169 24.8023 3.15755 22.8648C2.93344 20.9272 4.31965 19.1738 6.25685 18.9444Z" fill="url(#paint5_linear_386_56330)"/>
<path d="M28.8944 18.9534C30.8381 18.7107 32.6091 20.0933 32.8447 22.0376C33.0806 23.9815 31.6914 25.7474 29.746 25.9761C27.8105 26.2034 26.0555 24.8232 25.821 22.8888C25.5864 20.9545 26.9607 19.1949 28.8944 18.9534Z" fill="url(#paint6_linear_386_56330)"/>
<path d="M20.8135 23.9271C20.8712 23.6992 21.4788 23.0271 21.6936 22.9624C21.4492 23.3255 21.1527 23.6508 20.8135 23.9271Z" fill="url(#paint7_linear_386_56330)"/>
<defs>
<linearGradient id="paint0_linear_386_56330" x1="20.2591" y1="12.6097" x2="-0.202643" y2="27.6012" gradientUnits="userSpaceOnUse">
<stop stop-color="#FFA78F"/>
<stop offset="1" stop-color="#F23E2C"/>
</linearGradient>
<linearGradient id="paint1_linear_386_56330" x1="19.0498" y1="30.5208" x2="9.6203" y2="37.9455" gradientUnits="userSpaceOnUse">
<stop stop-color="#FFA78F"/>
<stop offset="1" stop-color="#F23E2C"/>
</linearGradient>
<linearGradient id="paint2_linear_386_56330" x1="18.6622" y1="21.0778" x2="10.8523" y2="24.8757" gradientUnits="userSpaceOnUse">
<stop stop-color="#FFA78F"/>
<stop offset="1" stop-color="#F23E2C"/>
</linearGradient>
<linearGradient id="paint3_linear_386_56330" x1="6.51266" y1="30.8104" x2="-0.814761" y2="35.5867" gradientUnits="userSpaceOnUse">
<stop stop-color="#FFA78F"/>
<stop offset="1" stop-color="#F23E2C"/>
</linearGradient>
<linearGradient id="paint4_linear_386_56330" x1="30.8943" y1="30.8099" x2="23.558" y2="35.5976" gradientUnits="userSpaceOnUse">
<stop stop-color="#FFA78F"/>
<stop offset="1" stop-color="#F23E2C"/>
</linearGradient>
<linearGradient id="paint5_linear_386_56330" x1="7.1943" y1="22.9322" x2="0.974671" y2="25.9568" gradientUnits="userSpaceOnUse">
<stop stop-color="#FFA78F"/>
<stop offset="1" stop-color="#F23E2C"/>
</linearGradient>
<linearGradient id="paint6_linear_386_56330" x1="29.8538" y1="22.9369" x2="23.6367" y2="25.9603" gradientUnits="userSpaceOnUse">
<stop stop-color="#FFA78F"/>
<stop offset="1" stop-color="#F23E2C"/>
</linearGradient>
<linearGradient id="paint7_linear_386_56330" x1="21.3184" y1="23.5093" x2="20.5194" y2="23.8638" gradientUnits="userSpaceOnUse">
<stop stop-color="#FFA78F"/>
<stop offset="1" stop-color="#F23E2C"/>
</linearGradient>
</defs>
</svg>
