<svg width="19" height="18" viewBox="0 0 19 18" fill="none" xmlns="http://www.w3.org/2000/svg">
<path fill-rule="evenodd" clip-rule="evenodd" d="M5.2533 0.0381908C5.11776 -0.00241892 4.9746 -0.0107815 4.83525 0.0137701C4.6959 0.0383218 4.56422 0.0951079 4.45071 0.179596C4.33721 0.264085 4.24503 0.373936 4.18152 0.500383C4.11802 0.626829 4.08495 0.76637 4.08496 0.907867V18H7.26227V14.8227C7.26227 14.5819 7.35792 14.351 7.52816 14.1808C7.69841 14.0105 7.92931 13.9149 8.17008 13.9149H9.98569C10.2265 13.9149 10.4574 14.0105 10.6276 14.1808C10.7978 14.351 10.8935 14.5819 10.8935 14.8227V18H14.0708V3.35894C14.0708 3.16364 14.0078 2.97354 13.8912 2.81687C13.7746 2.6602 13.6106 2.54531 13.4235 2.48926L5.2533 0.0381908ZM7.26227 5.29074C7.14189 5.29074 7.02644 5.33857 6.94132 5.42369C6.85619 5.50881 6.80837 5.62426 6.80837 5.74465V6.65245C6.80837 6.77283 6.85619 6.88828 6.94132 6.97341C7.02644 7.05853 7.14189 7.10635 7.26227 7.10635H8.17008C8.29046 7.10635 8.40591 7.05853 8.49104 6.97341C8.57616 6.88828 8.62398 6.77283 8.62398 6.65245V5.74465C8.62398 5.62426 8.57616 5.50881 8.49104 5.42369C8.40591 5.33857 8.29046 5.29074 8.17008 5.29074H7.26227ZM6.80837 8.46806C6.80837 8.34768 6.85619 8.23222 6.94132 8.1471C7.02644 8.06198 7.14189 8.01416 7.26227 8.01416H8.17008C8.29046 8.01416 8.40591 8.06198 8.49104 8.1471C8.57616 8.23222 8.62398 8.34768 8.62398 8.46806V9.37586C8.62398 9.49624 8.57616 9.6117 8.49104 9.69682C8.40591 9.78194 8.29046 9.82976 8.17008 9.82976H7.26227C7.14189 9.82976 7.02644 9.78194 6.94132 9.69682C6.85619 9.6117 6.80837 9.49624 6.80837 9.37586V8.46806ZM7.26227 10.7376C7.14189 10.7376 7.02644 10.7854 6.94132 10.8705C6.85619 10.9556 6.80837 11.0711 6.80837 11.1915V12.0993C6.80837 12.2197 6.85619 12.3351 6.94132 12.4202C7.02644 12.5054 7.14189 12.5532 7.26227 12.5532H8.17008C8.29046 12.5532 8.40591 12.5054 8.49104 12.4202C8.57616 12.3351 8.62398 12.2197 8.62398 12.0993V11.1915C8.62398 11.0711 8.57616 10.9556 8.49104 10.8705C8.40591 10.7854 8.29046 10.7376 8.17008 10.7376H7.26227ZM9.53178 5.74465C9.53178 5.62426 9.57961 5.50881 9.66473 5.42369C9.74985 5.33857 9.8653 5.29074 9.98569 5.29074H10.8935C11.0139 5.29074 11.1293 5.33857 11.2144 5.42369C11.2996 5.50881 11.3474 5.62426 11.3474 5.74465V6.65245C11.3474 6.77283 11.2996 6.88828 11.2144 6.97341C11.1293 7.05853 11.0139 7.10635 10.8935 7.10635H9.98569C9.8653 7.10635 9.74985 7.05853 9.66473 6.97341C9.57961 6.88828 9.53178 6.77283 9.53178 6.65245V5.74465ZM9.98569 8.01416C9.8653 8.01416 9.74985 8.06198 9.66473 8.1471C9.57961 8.23222 9.53178 8.34768 9.53178 8.46806V9.37586C9.53178 9.49624 9.57961 9.6117 9.66473 9.69682C9.74985 9.78194 9.8653 9.82976 9.98569 9.82976H10.8935C11.0139 9.82976 11.1293 9.78194 11.2144 9.69682C11.2996 9.6117 11.3474 9.49624 11.3474 9.37586V8.46806C11.3474 8.34768 11.2996 8.23222 11.2144 8.1471C11.1293 8.06198 11.0139 8.01416 10.8935 8.01416H9.98569ZM9.53178 11.1915C9.53178 11.0711 9.57961 10.9556 9.66473 10.8705C9.74985 10.7854 9.8653 10.7376 9.98569 10.7376H10.8935C11.0139 10.7376 11.1293 10.7854 11.2144 10.8705C11.2996 10.9556 11.3474 11.0711 11.3474 11.1915V12.0993C11.3474 12.2197 11.2996 12.3351 11.2144 12.4202C11.1293 12.5054 11.0139 12.5532 10.8935 12.5532H9.98569C9.8653 12.5532 9.74985 12.5054 9.66473 12.4202C9.57961 12.3351 9.53178 12.2197 9.53178 12.0993V11.1915Z" fill="url(#paint0_linear_476_3104)"/>
<path d="M3.17731 18V2.56738H1.81561C1.57484 2.56738 1.34394 2.66303 1.17369 2.83327C1.00345 3.00352 0.907804 3.23442 0.907804 3.47519V17.0922H0.453902C0.33352 17.0922 0.218068 17.1401 0.132945 17.2252C0.0478218 17.3103 0 17.4258 0 17.5461C0 17.6665 0.0478218 17.782 0.132945 17.8671C0.218068 17.9522 0.33352 18 0.453902 18H3.17731ZM17.7022 18H14.9788V5.99979L16.7907 7.03469C16.93 7.1142 17.0456 7.22917 17.126 7.3679C17.2063 7.50662 17.2485 7.66415 17.2483 7.82448V17.0922H17.7022C17.8226 17.0922 17.938 17.1401 18.0231 17.2252C18.1083 17.3103 18.1561 17.4258 18.1561 17.5461C18.1561 17.6665 18.1083 17.782 18.0231 17.8671C17.938 17.9522 17.8226 18 17.7022 18ZM9.98584 18V14.8227H8.17023V18H9.98584Z" fill="url(#paint1_linear_476_3104)"/>
<defs>
<linearGradient id="paint0_linear_476_3104" x1="9.07788" y1="0" x2="9.07788" y2="18" gradientUnits="userSpaceOnUse">
<stop stop-color="#3890C0"/>
<stop offset="1" stop-color="#0A8EC8"/>
</linearGradient>
<linearGradient id="paint1_linear_476_3104" x1="9.07804" y1="2.56738" x2="9.07804" y2="18" gradientUnits="userSpaceOnUse">
<stop stop-color="#3890C0"/>
<stop offset="1" stop-color="#0A8EC8"/>
</linearGradient>
</defs>
</svg>
