<svg width="25" height="24" viewBox="0 0 25 24" fill="none" xmlns="http://www.w3.org/2000/svg">
<path d="M16.6988 22.3241C16.8342 22.4378 17.0054 22.5002 17.1822 22.5002C17.3591 22.5002 17.5302 22.4378 17.6656 22.3241C17.7931 22.2153 20.7688 19.6709 20.7688 16.4928C20.7688 15.5416 20.3909 14.6293 19.7183 13.9567C19.0457 13.2841 18.1334 12.9062 17.1822 12.9062C16.231 12.9062 15.3188 13.2841 14.6462 13.9567C13.9736 14.6293 13.5957 15.5416 13.5957 16.4928C13.5957 19.6709 16.5713 22.2153 16.6988 22.3241ZM17.1822 15.3689C17.405 15.3667 17.6235 15.4307 17.8099 15.5529C17.9962 15.675 18.1421 15.8498 18.2289 16.0551C18.3157 16.2603 18.3396 16.4867 18.2975 16.7055C18.2554 16.9243 18.1492 17.1257 17.9924 17.2841C17.8357 17.4424 17.6354 17.5506 17.417 17.5949C17.1986 17.6392 16.972 17.6176 16.7659 17.5329C16.5598 17.4481 16.3835 17.304 16.2595 17.1189C16.1355 16.9338 16.0692 16.716 16.0692 16.4931C16.0684 16.3462 16.0965 16.2006 16.152 16.0645C16.2075 15.9285 16.2893 15.8047 16.3927 15.7003C16.496 15.5959 16.619 15.5129 16.7545 15.456C16.8899 15.3991 17.0353 15.3695 17.1822 15.3689Z" fill="url(#paint0_linear_617_1475)"/>
<path d="M17.0697 8.8928C17.1485 9.72481 17.1885 10.5931 17.1897 11.4976C17.1897 11.5838 17.1897 11.6701 17.186 11.7526C18.01 11.7544 18.819 11.9727 19.532 12.3857C20.245 12.7987 20.8369 13.3919 21.2484 14.1057H21.668C21.9007 13.2559 22.018 12.3787 22.0168 11.4976C22.0172 10.6179 21.9012 9.74203 21.6718 8.8928H17.0697ZM7.15017 15.6057H2.89989C3.47579 16.8809 4.31213 18.0214 5.35516 18.954C6.39818 19.8865 7.62481 20.5906 8.95618 21.0208C8.56167 20.3792 8.23742 19.697 7.98905 18.986C7.60138 17.8888 7.32071 16.7568 7.15017 15.6057ZM15.0762 1.98C15.4691 2.62226 15.7931 3.30416 16.043 4.01439C16.4302 5.11171 16.7113 6.24366 16.8822 7.39466H21.1325C20.556 6.11992 19.7195 4.97972 18.6765 4.04721C17.6336 3.1147 16.4073 2.41045 15.0762 1.97963V1.98ZM2.90027 7.39504H7.15017C7.32114 6.24391 7.60218 5.11183 7.98943 4.01439C8.2377 3.30352 8.56182 2.62146 8.95618 1.98C7.62488 2.41024 6.39832 3.11428 5.35537 4.04686C4.31241 4.97945 3.47612 6.11994 2.90027 7.39504ZM6.84267 11.4983C6.84267 10.5951 6.88267 9.72693 6.96267 8.89392H2.36064C2.13125 9.74303 2.01524 10.6188 2.01564 11.4983C2.01437 12.3794 2.13167 13.2567 2.36439 14.1065H6.96267C6.88178 13.2394 6.84174 12.3691 6.84267 11.4983ZM11.3847 21.4771C11.591 21.4921 11.801 21.4996 12.0147 21.4996C12.2243 21.4996 12.4377 21.4921 12.644 21.4771C13.0661 21.2196 13.4207 20.865 13.6782 20.4429C12.9232 19.261 12.5059 17.895 12.4715 16.493C12.4716 16.1948 12.5004 15.8973 12.5577 15.6046H8.67156C8.88477 17.0405 9.31176 18.4363 9.93831 19.7457C10.2451 20.4492 10.747 21.0501 11.3847 21.4771ZM12.644 1.5225C12.4377 1.5075 12.224 1.5 12.014 1.5C11.8005 1.5 11.5907 1.5075 11.3847 1.5225C10.746 1.95008 10.2439 2.55243 9.93831 3.25764C9.31062 4.56517 8.88357 5.95985 8.67156 7.39466H15.3609C15.1477 5.9596 14.7192 4.5649 14.09 3.25764C13.7844 2.55243 13.2826 1.95008 12.644 1.5225ZM15.6871 11.9997C15.6909 11.8347 15.6909 11.6659 15.6909 11.4972C15.6918 10.6275 15.6493 9.75826 15.5634 8.8928H8.46943C8.3835 9.75839 8.34095 10.6277 8.34193 11.4976C8.34029 12.3686 8.3841 13.2392 8.47318 14.1057H13.1161C13.6895 13.1153 14.6032 12.3669 15.6871 11.9997Z" fill="url(#paint1_linear_617_1475)"/>
<defs>
<linearGradient id="paint0_linear_617_1475" x1="17.1822" y1="12.9062" x2="17.1822" y2="22.5002" gradientUnits="userSpaceOnUse">
<stop stop-color="#3890C0"/>
<stop offset="1" stop-color="#0A8EC8"/>
</linearGradient>
<linearGradient id="paint1_linear_617_1475" x1="12.0162" y1="1.5" x2="12.0162" y2="21.4996" gradientUnits="userSpaceOnUse">
<stop stop-color="#3890C0"/>
<stop offset="1" stop-color="#0A8EC8"/>
</linearGradient>
</defs>
</svg>
