<svg width="18" height="13" viewBox="0 0 18 13" fill="none" xmlns="http://www.w3.org/2000/svg">
<path d="M17.8414 0.904254L12.3824 6.32812L17.8414 11.752C17.9401 11.5457 18 11.3177 18 11.0742V1.58203C18 1.3385 17.9401 1.11052 17.8414 0.904254ZM16.418 0H1.58203C1.3385 0 1.11052 0.0598712 0.904254 0.158555L7.88147 7.10061C8.49839 7.71754 9.50161 7.71754 10.1185 7.10061L17.0957 0.158555C16.8895 0.0598712 16.6615 0 16.418 0ZM0.158555 0.904254C0.0598711 1.11052 0 1.3385 0 1.58203V11.0742C0 11.3177 0.0598711 11.5458 0.158555 11.752L5.61758 6.32812L0.158555 0.904254Z" fill="url(#paint0_linear_476_3082)"/>
<path d="M11.6348 7.07422L10.8623 7.84671C9.83439 8.87464 8.16176 8.87464 7.13382 7.84671L6.36137 7.07422L0.902344 12.4981C1.10861 12.5968 1.33659 12.6566 1.58012 12.6566H16.4161C16.6596 12.6566 16.8876 12.5968 17.0938 12.4981L11.6348 7.07422Z" fill="url(#paint1_linear_476_3082)"/>
<defs>
<linearGradient id="paint0_linear_476_3082" x1="9" y1="0" x2="9" y2="11.752" gradientUnits="userSpaceOnUse">
<stop stop-color="#3890C0"/>
<stop offset="1" stop-color="#0A8EC8"/>
</linearGradient>
<linearGradient id="paint1_linear_476_3082" x1="8.99809" y1="7.07422" x2="8.99809" y2="12.6566" gradientUnits="userSpaceOnUse">
<stop stop-color="#3890C0"/>
<stop offset="1" stop-color="#0A8EC8"/>
</linearGradient>
</defs>
</svg>
