<svg width="18" height="18" viewBox="0 0 18 18" fill="none" xmlns="http://www.w3.org/2000/svg">
<path fill-rule="evenodd" clip-rule="evenodd" d="M0.282562 16.5103H17.7174C17.8731 16.5103 18 16.6372 18 16.7929V17.4549C18 17.6106 17.8731 17.7375 17.7174 17.7375H0.282562C0.126937 17.7375 0 17.6106 0 17.4549V16.7929C0 16.6372 0.126937 16.5103 0.282562 16.5103ZM16.5608 4.69185L10.8357 6.4152C10.8125 6.42196 10.7921 6.43615 10.7776 6.45559C10.7631 6.47504 10.7554 6.49867 10.7557 6.5229V15.9853H16.7057V4.79959C16.7058 4.78202 16.7017 4.76468 16.6939 4.74896C16.686 4.73325 16.6746 4.7196 16.6605 4.70912C16.6464 4.69864 16.63 4.69161 16.6127 4.68861C16.5954 4.68561 16.5776 4.68672 16.5608 4.69185ZM3.75563 1.74682H1.29431V15.9853H3.75563V1.74682ZM10.0857 4.69185L4.36069 6.4152C4.33742 6.42196 4.31701 6.43615 4.30255 6.45559C4.2881 6.47504 4.2804 6.49867 4.28062 6.5229V15.9853H10.2307V4.79959C10.2307 4.78202 10.2267 4.76468 10.2188 4.74896C10.211 4.73325 10.1995 4.7196 10.1854 4.70912C10.1713 4.69864 10.1549 4.69161 10.1376 4.68861C10.1203 4.68561 10.1025 4.68672 10.0857 4.69185ZM7.97719 7.92731H9.17794C9.2079 7.92737 9.23661 7.9393 9.25779 7.96048C9.27898 7.98167 9.2909 8.01038 9.29096 8.04034V9.24109C9.2909 9.27104 9.27898 9.29976 9.25779 9.32094C9.23661 9.34213 9.2079 9.35405 9.17794 9.35411H7.97719C7.94723 9.35405 7.91852 9.34213 7.89733 9.32094C7.87615 9.29976 7.86422 9.27104 7.86416 9.24109V8.04034C7.86422 8.01038 7.87615 7.98167 7.89733 7.96048C7.91852 7.9393 7.94723 7.92737 7.97719 7.92731ZM7.97719 12.043H9.17794C9.2079 12.0431 9.23661 12.055 9.25779 12.0762C9.27898 12.0974 9.2909 12.1261 9.29096 12.156V13.3568C9.2909 13.3868 9.27898 13.4155 9.25779 13.4367C9.23661 13.4579 9.2079 13.4698 9.17794 13.4698H7.97719C7.94723 13.4698 7.91852 13.4579 7.89733 13.4367C7.87615 13.4155 7.86422 13.3868 7.86416 13.3568V12.156C7.86422 12.1261 7.87615 12.0974 7.89733 12.0762C7.91852 12.055 7.94723 12.0431 7.97719 12.043ZM6.6471 8.05234V9.25312C6.64704 9.28308 6.63511 9.3118 6.61393 9.33298C6.59275 9.35416 6.56403 9.36609 6.53408 9.36615H5.33333C5.30337 9.36609 5.27465 9.35416 5.25347 9.33298C5.23229 9.3118 5.22036 9.28308 5.2203 9.25312V8.05234C5.22036 8.02238 5.23229 7.99367 5.25347 7.97248C5.27465 7.9513 5.30337 7.93937 5.33333 7.93931H6.53408C6.56403 7.93937 6.59275 7.9513 6.61393 7.97248C6.63511 7.99367 6.64704 8.02238 6.6471 8.05234ZM5.33329 12.055H6.53404C6.564 12.0551 6.59271 12.067 6.61389 12.0882C6.63508 12.1094 6.647 12.1381 6.64706 12.168V13.3688C6.647 13.3987 6.63508 13.4275 6.61389 13.4486C6.59271 13.4698 6.564 13.4818 6.53404 13.4818H5.33329C5.30333 13.4818 5.27462 13.4698 5.25343 13.4486C5.23225 13.4275 5.22032 13.3987 5.22026 13.3688V12.168C5.22032 12.1381 5.23225 12.1094 5.25343 12.0882C5.27462 12.067 5.30333 12.0551 5.33329 12.055ZM14.4522 7.92731H15.653C15.683 7.92737 15.7117 7.9393 15.7329 7.96048C15.7541 7.98167 15.766 8.01038 15.7661 8.04034V9.24109C15.766 9.27104 15.7541 9.29976 15.7329 9.32094C15.7117 9.34213 15.683 9.35405 15.653 9.35411H14.4522C14.4223 9.35405 14.3936 9.34213 14.3724 9.32094C14.3512 9.29976 14.3393 9.27104 14.3392 9.24109V8.04034C14.3393 8.01038 14.3512 7.98167 14.3724 7.96048C14.3936 7.9393 14.4223 7.92737 14.4522 7.92731ZM14.4522 12.043H15.653C15.683 12.0431 15.7117 12.055 15.7329 12.0762C15.7541 12.0974 15.766 12.1261 15.7661 12.156V13.3568C15.766 13.3868 15.7541 13.4155 15.7329 13.4367C15.7117 13.4579 15.683 13.4698 15.653 13.4698H14.4522C14.4223 13.4698 14.3936 13.4579 14.3724 13.4367C14.3512 13.4155 14.3393 13.3868 14.3392 13.3568V12.156C14.3393 12.1261 14.3512 12.0974 14.3724 12.0762C14.3936 12.055 14.4223 12.0431 14.4522 12.043ZM11.8083 12.055H13.0091C13.039 12.0551 13.0678 12.067 13.0889 12.0882C13.1101 12.1094 13.1221 12.1381 13.1221 12.168V13.3688C13.1221 13.3987 13.1101 13.4275 13.0889 13.4486C13.0678 13.4698 13.039 13.4818 13.0091 13.4818H11.8083C11.7784 13.4818 11.7497 13.4698 11.7285 13.4486C11.7073 13.4275 11.6954 13.3987 11.6953 13.3688V12.168C11.6954 12.1381 11.7073 12.1094 11.7285 12.0882C11.7497 12.067 11.7784 12.0551 11.8083 12.055ZM11.8083 7.93931H13.0091C13.039 7.93937 13.0678 7.9513 13.0889 7.97248C13.1101 7.99367 13.1221 8.02238 13.1221 8.05234V9.25312C13.1221 9.28308 13.1101 9.3118 13.0889 9.33298C13.0678 9.35416 13.039 9.36609 13.0091 9.36615H11.8083C11.7784 9.36609 11.7497 9.35416 11.7285 9.33298C11.7073 9.3118 11.6954 9.28308 11.6953 9.25312V8.05234C11.6954 8.02238 11.7073 7.99367 11.7285 7.97248C11.7497 7.9513 11.7784 7.93937 11.8083 7.93931ZM3.75563 1.22186V0.0200625C3.7555 0.0147805 3.75335 0.00974923 3.74961 0.0060133C3.74588 0.00227737 3.74084 0.000123884 3.73556 0H1.31438C1.30909 0.000123884 1.30406 0.00227737 1.30033 0.0060133C1.29659 0.00974923 1.29444 0.0147805 1.29431 0.0200625V1.22183L3.75563 1.22186Z" fill="url(#paint0_linear_617_1493)"/>
<defs>
<linearGradient id="paint0_linear_617_1493" x1="9" y1="0" x2="9" y2="17.7375" gradientUnits="userSpaceOnUse">
<stop stop-color="#3890C0"/>
<stop offset="1" stop-color="#0A8EC8"/>
</linearGradient>
</defs>
</svg>
