<svg width="17" height="18" viewBox="0 0 17 18" fill="none" xmlns="http://www.w3.org/2000/svg">
<path d="M3.69231 4.38462C3.69231 1.96708 5.65938 0 8.07692 0C10.4945 0 12.4615 1.96708 12.4615 4.38462C12.4615 6.80215 10.4945 8.76923 8.07692 8.76923C5.65938 8.76923 3.69231 6.80215 3.69231 4.38462ZM10.8462 10.1538H5.30769C2.38154 10.1538 0 12.5354 0 15.4615C0.000488988 16.1346 0.26809 16.78 0.744038 17.256C1.21999 17.7319 1.86537 17.9995 2.53846 18H13.6154C14.2885 17.9995 14.9339 17.7319 15.4098 17.256C15.8858 16.78 16.1534 16.1346 16.1538 15.4615C16.1538 12.5354 13.7723 10.1538 10.8462 10.1538Z" fill="url(#paint0_linear_476_3063)"/>
<defs>
<linearGradient id="paint0_linear_476_3063" x1="8.07692" y1="0" x2="8.07692" y2="18" gradientUnits="userSpaceOnUse">
<stop stop-color="#3890C0"/>
<stop offset="1" stop-color="#0A8EC8"/>
</linearGradient>
</defs>
</svg>
