<svg width="32" height="32" viewBox="0 0 32 32" fill="none" xmlns="http://www.w3.org/2000/svg">
<g clip-path="url(#clip0_2748_8104)">
<path d="M29.125 30.125H26.3125V27.25C26.3125 26.7318 25.8932 26.3125 25.375 26.3125H6.625C6.10681 26.3125 5.6875 26.7318 5.6875 27.25V30.125H2.875C2.35681 30.125 1.9375 30.5443 1.9375 31.0625C1.9375 31.5807 2.35681 32 2.875 32H29.125C29.6432 32 30.0625 31.5807 30.0625 31.0625C30.0625 30.5443 29.6432 30.125 29.125 30.125ZM7.5625 24.4375H24.4375V16C24.4375 13.7652 23.5623 11.6467 21.9638 10.0262C20.3524 8.43775 18.2339 7.5625 16 7.5625C11.3473 7.5625 7.5625 11.3473 7.5625 16V24.4375ZM15.0625 12.25C15.0625 11.7318 15.4818 11.3125 16 11.3125C16.5182 11.3125 16.9375 11.7318 16.9375 12.25V16C16.9375 16.5182 16.5182 16.9375 16 16.9375C15.4818 16.9375 15.0625 16.5182 15.0625 16V12.25ZM16 18.8125C16.5177 18.8125 16.9375 19.2321 16.9375 19.75C16.9375 20.2677 16.5177 20.6875 16 20.6875C15.4823 20.6875 15.0625 20.2677 15.0625 19.75C15.0625 19.2321 15.4823 18.8125 16 18.8125ZM3.8125 16C3.8125 15.4818 3.39319 15.0625 2.875 15.0625H0.9375C0.419312 15.0625 0 15.4818 0 16C0 16.5182 0.419312 16.9375 0.9375 16.9375H2.875C3.39319 16.9375 3.8125 16.5182 3.8125 16ZM31.0625 15.0625H29.125C28.6068 15.0625 28.1875 15.4818 28.1875 16C28.1875 16.5182 28.6068 16.9375 29.125 16.9375H31.0625C31.5807 16.9375 32 16.5182 32 16C32 15.4818 31.5807 15.0625 31.0625 15.0625ZM16 3.8125C16.5182 3.8125 16.9375 3.39319 16.9375 2.875V0.9375C16.9375 0.419312 16.5182 0 16 0C15.4818 0 15.0625 0.419312 15.0625 0.9375V2.875C15.0625 3.39319 15.4818 3.8125 16 3.8125ZM6.05556 7.38212C6.42175 7.74831 7.015 7.74837 7.38125 7.38212C7.74744 7.01594 7.74744 6.42263 7.38125 6.05644L6.05556 4.73075C5.68937 4.36456 5.09606 4.36456 4.72988 4.73075C4.36369 5.09694 4.36369 5.69025 4.72988 6.05644L6.05556 7.38212ZM25.9444 7.38212L27.2701 6.05644C27.6363 5.69025 27.6363 5.09694 27.2701 4.73075C26.9039 4.36456 26.3106 4.36456 25.9444 4.73075L24.6187 6.05644C24.2526 6.42263 24.2526 7.01594 24.6187 7.38212C24.985 7.74831 25.5782 7.74837 25.9444 7.38212Z" fill="#E7373C"/>
</g>
<defs>
<clipPath id="clip0_2748_8104">
<rect width="32" height="32" fill="white"/>
</clipPath>
</defs>
</svg>
